<svg width="153" height="25" viewBox="0 0 153 25" fill="none" xmlns="http://www.w3.org/2000/svg">
<path fill-rule="evenodd" clip-rule="evenodd" d="M15.7894 0L0.00604516 9.56566L0 9.56921L9.01002e-05 9.56927L0 9.56932L0.00391855 9.57153L15.9489 18.979L17.8936 17.553L23.4447 14.2109V17.5437L15.7893 21.8499L7.65535 17.2247L7.49586 20.0955L15.9488 24.8802L26.156 18.8196V12.5996L24.6376 13.4928L31.4196 9.40973L28.7083 7.97433L15.5308 15.5614L5.19172 9.44233L18.1817 1.75437L15.7894 0Z" fill="white"/>
<path d="M21.0525 3.50879L16.1084 6.21987L21.0525 8.9314L25.9967 6.21987L21.0525 3.50879Z" fill="white"/>
<path d="M4.78406 13.2375L2.17243 11.8021L2.07275 16.9058L3.50815 16.4273L4.78406 18.3412V13.2375Z" fill="#549B43"/>
<path d="M39.403 6.04468C40.3736 6.04468 41.2369 6.24117 41.9931 6.63415C42.7553 7.02117 43.3686 7.5511 43.833 8.22393C44.3034 8.89676 44.5802 9.65593 44.6636 10.5014H41.9306C41.8472 10.0549 41.6954 9.65891 41.4751 9.31356C41.2548 8.96226 40.966 8.68836 40.6088 8.49187C40.2515 8.28943 39.8228 8.18821 39.3226 8.18821C38.7213 8.18821 38.2032 8.33409 37.7686 8.62584C37.3339 8.9176 37.0005 9.38799 36.7683 10.037C36.5361 10.686 36.4199 11.5434 36.4199 12.6092C36.4199 14.2169 36.676 15.3809 37.188 16.1014C37.7061 16.8159 38.4176 17.1732 39.3226 17.1732C39.8228 17.1732 40.2515 17.06 40.6088 16.8338C40.966 16.6016 41.2548 16.2979 41.4751 15.9228C41.6954 15.5417 41.8472 15.1249 41.9306 14.6724H44.6636C44.5862 15.2857 44.4373 15.8722 44.217 16.4319C43.9967 16.9856 43.6841 17.4798 43.2792 17.9145C42.8744 18.3491 42.3534 18.6915 41.7162 18.9416C41.0791 19.1917 40.3081 19.3167 39.403 19.3167C38.2003 19.3167 37.1613 19.0369 36.286 18.4772C35.4107 17.9175 34.7349 17.1315 34.2586 16.1193C33.7882 15.107 33.553 13.9251 33.553 12.5735C33.553 11.2159 33.7882 10.0519 34.2586 9.08134C34.7289 8.10485 35.4018 7.35461 36.277 6.83064C37.1523 6.30666 38.1943 6.04468 39.403 6.04468Z" fill="white"/>
<path d="M49.0686 19.3167C48.4791 19.3167 47.9492 19.2065 47.4788 18.9862C47.0084 18.7659 46.6363 18.4474 46.3624 18.0306C46.0885 17.6078 45.9515 17.0958 45.9515 16.4944C45.9515 15.4822 46.3296 14.7141 47.0858 14.1901C47.842 13.6602 49.0358 13.3863 50.6673 13.3684L51.8194 13.3505V12.7968C51.8194 12.374 51.6944 12.0495 51.4443 11.8233C51.2002 11.5911 50.8191 11.4779 50.3011 11.4839C49.92 11.4898 49.5568 11.5792 49.2115 11.7518C48.8721 11.9245 48.6399 12.2252 48.5148 12.6539H46.3445C46.3802 11.987 46.5738 11.4392 46.9251 11.0105C47.2764 10.5759 47.7527 10.2543 48.3541 10.0459C48.9614 9.83158 49.6491 9.7244 50.4172 9.7244C51.3639 9.7244 52.1231 9.84349 52.6947 10.0817C53.2663 10.3139 53.6801 10.6503 53.9362 11.0909C54.1922 11.5256 54.3202 12.0436 54.3202 12.645V19.1381H52.141L51.9266 17.5483C51.611 18.2152 51.2151 18.6766 50.7387 18.9326C50.2684 19.1887 49.7116 19.3167 49.0686 19.3167ZM49.9439 17.6019C50.182 17.6019 50.4113 17.5602 50.6316 17.4768C50.8578 17.3875 51.0573 17.2714 51.23 17.1285C51.4086 16.9797 51.5515 16.8129 51.6587 16.6284C51.7659 16.4438 51.8194 16.2532 51.8194 16.0567V14.6902L50.8816 14.7081C50.447 14.7141 50.0421 14.7677 49.667 14.8689C49.2919 14.9641 48.9882 15.1219 48.756 15.3422C48.5297 15.5625 48.4166 15.8603 48.4166 16.2354C48.4166 16.6641 48.5654 17.0005 48.8632 17.2446C49.1609 17.4828 49.5211 17.6019 49.9439 17.6019Z" fill="white"/>
<path d="M56.6288 19.1381V9.90303H59.1832V11.207C59.4631 10.8021 59.8382 10.4538 60.3086 10.162C60.7849 9.87028 61.3833 9.7244 62.1038 9.7244C62.4193 9.7244 62.7409 9.78097 63.0684 9.8941C63.3958 10.0072 63.7025 10.1739 63.9883 10.3943C64.2801 10.6086 64.5152 10.8795 64.6939 11.207C64.9916 10.7843 65.3816 10.433 65.8639 10.1531C66.3521 9.86731 66.894 9.7244 67.4894 9.7244C67.8347 9.7244 68.1831 9.78097 68.5344 9.8941C68.8916 10.0072 69.2191 10.1918 69.5168 10.4478C69.8145 10.7039 70.0527 11.0462 70.2313 11.475C70.4159 11.8977 70.5082 12.4217 70.5082 13.0469V19.1381H67.9002V13.3684C67.9002 12.9992 67.8258 12.7045 67.6769 12.4842C67.534 12.2579 67.3495 12.0972 67.1232 12.0019C66.9029 11.9007 66.6677 11.8501 66.4176 11.8501C66.1854 11.8501 65.9502 11.8977 65.712 11.993C65.4739 12.0823 65.2714 12.2282 65.1047 12.4306C64.938 12.6331 64.8546 12.898 64.8546 13.2255V19.1381H62.2556V13.1362C62.2556 12.8563 62.1812 12.6211 62.0323 12.4306C61.8835 12.2401 61.6959 12.0972 61.4696 12.0019C61.2493 11.9007 61.0231 11.8501 60.7909 11.8501C60.5527 11.8501 60.3145 11.9007 60.0764 12.0019C59.8382 12.0972 59.6387 12.249 59.478 12.4574C59.3172 12.6598 59.2368 12.9159 59.2368 13.2255V19.1381H56.6288Z" fill="white"/>
<path d="M72.6251 22.014V9.90303H75.242L75.2509 11.2338C75.3878 11.0135 75.5546 10.814 75.751 10.6354C75.9535 10.4508 76.1768 10.2901 76.4209 10.1531C76.665 10.0162 76.93 9.91196 77.2158 9.84051C77.5016 9.76311 77.8023 9.7244 78.1179 9.7244C78.8026 9.7244 79.4129 9.8941 79.9488 10.2335C80.4847 10.5669 80.9044 11.0849 81.2081 11.7876C81.5177 12.4842 81.6725 13.3714 81.6725 14.4491C81.6725 15.5685 81.5058 16.4884 81.1724 17.2089C80.8449 17.9234 80.3924 18.4533 79.8148 18.7987C79.2373 19.144 78.5853 19.3167 77.8589 19.3167C77.5611 19.3167 77.2813 19.275 77.0193 19.1917C76.7573 19.1143 76.5132 19.0041 76.2869 18.8612C76.0666 18.7183 75.8672 18.5546 75.6885 18.37C75.5159 18.1794 75.364 17.974 75.233 17.7537V22.014H72.6251ZM77.2337 17.4054C77.7993 17.4054 78.2727 17.1702 78.6537 16.6998C79.0408 16.2294 79.2343 15.4851 79.2343 14.467C79.2343 13.5738 79.0497 12.8772 78.6805 12.377C78.3173 11.8709 77.835 11.6179 77.2337 11.6179C76.5608 11.6179 76.0577 11.8918 75.7243 12.4395C75.3968 12.9814 75.233 13.6572 75.233 14.467C75.233 14.985 75.3045 15.4673 75.4474 15.9138C75.5962 16.3604 75.8165 16.7206 76.1083 16.9945C76.406 17.2684 76.7811 17.4054 77.2337 17.4054Z" fill="white"/>
<path d="M86.7037 19.3167C86.275 19.3167 85.8522 19.2512 85.4354 19.1202C85.0246 18.9892 84.6495 18.7957 84.3101 18.5397C83.9707 18.2836 83.6968 17.9681 83.4884 17.5929C83.286 17.2178 83.1847 16.7832 83.1847 16.289V9.90303H85.7927V15.9585C85.7927 16.3872 85.9326 16.7385 86.2125 17.0124C86.4923 17.2863 86.9032 17.4232 87.445 17.4232C87.9571 17.4232 88.362 17.2923 88.6597 17.0303C88.9633 16.7623 89.1152 16.3902 89.1152 15.9138V9.90303H91.6963V19.1381H89.7314L89.4278 17.3071C89.3206 17.849 89.1181 18.2658 88.8204 18.5575C88.5287 18.8433 88.1923 19.0398 87.8112 19.147C87.4361 19.2601 87.0669 19.3167 86.7037 19.3167Z" fill="white"/>
<path d="M97.4726 19.3167C96.8295 19.3167 96.2103 19.2125 95.6148 19.0041C95.0194 18.7897 94.5163 18.4563 94.1054 18.0038C93.6946 17.5453 93.4326 16.9529 93.3195 16.2264H95.5791C95.6565 16.5539 95.7964 16.8129 95.9989 17.0035C96.2073 17.194 96.4425 17.331 96.7045 17.4143C96.9664 17.4917 97.2165 17.5304 97.4547 17.5304C97.9548 17.5304 98.3568 17.453 98.6604 17.2982C98.97 17.1374 99.1249 16.8933 99.1249 16.5658C99.1249 16.3158 99.0326 16.1163 98.848 15.9674C98.6694 15.8186 98.3717 15.7054 97.9548 15.628L96.3293 15.2886C95.5136 15.116 94.8586 14.8242 94.3644 14.4134C93.8702 13.9966 93.6172 13.4071 93.6053 12.645C93.6053 12.0912 93.7511 11.594 94.0429 11.1534C94.3406 10.7128 94.7783 10.3645 95.3558 10.1085C95.9334 9.85242 96.6419 9.7244 97.4815 9.7244C98.6187 9.7244 99.5268 9.97448 100.206 10.4746C100.89 10.9748 101.239 11.6804 101.251 12.5914H99.0713C99.0058 12.2341 98.8271 11.9602 98.5354 11.7697C98.2496 11.5732 97.8894 11.475 97.4547 11.475C97.0022 11.475 96.63 11.5553 96.3383 11.7161C96.0465 11.8769 95.9006 12.121 95.9006 12.4485C95.9006 12.6926 96.0197 12.8861 96.2579 13.029C96.4961 13.166 96.8652 13.285 97.3654 13.3863L98.8659 13.7257C99.3839 13.8507 99.8036 14.0234 100.125 14.2437C100.453 14.458 100.706 14.6932 100.884 14.9493C101.063 15.2053 101.185 15.4643 101.251 15.7263C101.322 15.9823 101.358 16.2145 101.358 16.4229C101.358 17.0362 101.194 17.5602 100.866 17.9949C100.539 18.4236 100.083 18.751 99.5 18.9773C98.9165 19.2036 98.2407 19.3167 97.4726 19.3167Z" fill="white"/>
<path d="M108.778 5.72636C109.748 5.72636 110.611 5.92285 111.368 6.31583C112.13 6.70285 112.743 7.23278 113.207 7.90561C113.678 8.57844 113.955 9.33761 114.038 10.1831H111.305C111.222 9.73654 111.07 9.34058 110.85 8.99524C110.629 8.64394 110.341 8.37004 109.983 8.17355C109.626 7.97111 109.197 7.86988 108.697 7.86988C108.096 7.86988 107.578 8.01576 107.143 8.30752C106.708 8.59928 106.375 9.06967 106.143 9.71868C105.911 10.3677 105.794 11.2251 105.794 12.2909C105.794 13.8986 106.05 15.0626 106.563 15.7831C107.081 16.4976 107.792 16.8548 108.697 16.8548C109.197 16.8548 109.626 16.7417 109.983 16.5154C110.341 16.2832 110.629 15.9796 110.85 15.6044C111.07 15.2234 111.222 14.8066 111.305 14.3541H114.038C113.961 14.9673 113.812 15.5538 113.592 16.1135C113.371 16.6673 113.059 17.1615 112.654 17.5961C112.249 18.0308 111.728 18.3732 111.091 18.6233C110.454 18.8733 109.683 18.9984 108.778 18.9984C107.575 18.9984 106.536 18.7185 105.66 18.1588C104.785 17.5991 104.109 16.8132 103.633 15.8009C103.163 14.7887 102.927 13.6068 102.927 12.2552C102.927 10.8976 103.163 9.73356 103.633 8.76302C104.103 7.78653 104.776 7.03629 105.652 6.51232C106.527 5.98834 107.569 5.72636 108.778 5.72636Z" fill="#549B43"/>
<path d="M116.008 18.8197V9.58471H118.518V11.7729C118.666 11.3025 118.875 10.8917 119.143 10.5404C119.417 10.1831 119.747 9.90624 120.134 9.70975C120.521 9.5073 120.959 9.40608 121.447 9.40608C121.53 9.40608 121.608 9.41203 121.679 9.42394C121.757 9.4299 121.813 9.44181 121.849 9.45967V11.9426C121.795 11.9188 121.73 11.9039 121.653 11.8979C121.581 11.892 121.516 11.886 121.456 11.8801C120.944 11.8384 120.506 11.8533 120.143 11.9247C119.78 11.9962 119.485 12.1182 119.259 12.2909C119.033 12.4636 118.869 12.675 118.768 12.925C118.666 13.1751 118.616 13.455 118.616 13.7646V18.8197H116.008Z" fill="#549B43"/>
<path d="M125.373 14.8006C125.367 15.271 125.442 15.6819 125.597 16.0332C125.751 16.3785 125.975 16.6464 126.266 16.837C126.564 17.0216 126.921 17.1139 127.338 17.1139C127.785 17.1139 128.175 17.0186 128.508 16.828C128.848 16.6375 129.083 16.3249 129.214 15.8903H131.563C131.462 16.5452 131.2 17.1049 130.777 17.5694C130.36 18.0338 129.854 18.3881 129.258 18.6322C128.663 18.8763 128.044 18.9984 127.401 18.9984C126.49 18.9984 125.686 18.8078 124.989 18.4268C124.299 18.0397 123.76 17.4949 123.373 16.7923C122.986 16.0897 122.792 15.2621 122.792 14.3094C122.792 13.3865 122.968 12.5559 123.319 11.8175C123.67 11.0733 124.179 10.4868 124.846 10.0581C125.519 9.62341 126.326 9.40608 127.267 9.40608C128.208 9.40608 128.996 9.60555 129.634 10.0045C130.277 10.3975 130.759 10.9482 131.08 11.6568C131.408 12.3594 131.572 13.1721 131.572 14.095V14.8006H125.373ZM125.364 13.2466H129.133C129.133 12.8774 129.065 12.538 128.928 12.2284C128.791 11.9188 128.583 11.6746 128.303 11.496C128.029 11.3174 127.684 11.2281 127.267 11.2281C126.862 11.2281 126.517 11.3263 126.231 11.5228C125.951 11.7133 125.736 11.9634 125.588 12.273C125.439 12.5827 125.364 12.9072 125.364 13.2466Z" fill="#549B43"/>
<path d="M136.812 18.9984C135.573 18.9984 134.609 18.5726 133.918 17.7212C133.227 16.8638 132.882 15.6729 132.882 14.1486C132.882 13.184 133.022 12.3475 133.302 11.6389C133.582 10.9304 133.996 10.3826 134.543 9.99555C135.091 9.60257 135.761 9.40608 136.553 9.40608C136.886 9.40608 137.196 9.44478 137.482 9.52219C137.773 9.59364 138.038 9.69486 138.277 9.82585C138.515 9.95685 138.723 10.1087 138.902 10.2814C139.08 10.454 139.226 10.6386 139.339 10.8351V5.54773H141.956V18.8197H140.063L139.768 16.9263C139.685 17.1823 139.569 17.4324 139.42 17.6765C139.271 17.9207 139.08 18.1439 138.848 18.3464C138.616 18.5429 138.33 18.7007 137.991 18.8197C137.657 18.9388 137.264 18.9984 136.812 18.9984ZM137.383 17.1228C138.038 17.1228 138.527 16.8935 138.848 16.4351C139.176 15.9766 139.339 15.2025 139.339 14.1129C139.333 13.4818 139.259 12.9578 139.116 12.541C138.973 12.1242 138.759 11.8146 138.473 11.6121C138.193 11.4037 137.836 11.2995 137.401 11.2995C136.836 11.2995 136.365 11.5169 135.99 11.9515C135.615 12.3802 135.427 13.1007 135.427 14.1129C135.427 15.143 135.603 15.9022 135.954 16.3904C136.306 16.8787 136.782 17.1228 137.383 17.1228Z" fill="#549B43"/>
<path d="M148.163 18.9984C147.258 18.9984 146.469 18.8049 145.796 18.4178C145.129 18.0308 144.611 17.483 144.242 16.7745C143.879 16.0659 143.697 15.2264 143.697 14.2558C143.697 13.2853 143.879 12.4368 144.242 11.7104C144.611 10.984 145.129 10.4183 145.796 10.0134C146.469 9.60852 147.261 9.40608 148.172 9.40608C149.083 9.40608 149.872 9.60555 150.539 10.0045C151.206 10.3975 151.721 10.9572 152.084 11.6836C152.447 12.41 152.629 13.2674 152.629 14.2558C152.629 15.1847 152.45 16.0064 152.093 16.7209C151.742 17.4294 151.232 17.9861 150.566 18.391C149.905 18.7959 149.104 18.9984 148.163 18.9984ZM148.172 17.0603C148.63 17.0603 149 16.9263 149.28 16.6583C149.559 16.3904 149.762 16.0391 149.887 15.6044C150.018 15.1638 150.083 14.6845 150.083 14.1665C150.083 13.6783 150.024 13.2168 149.905 12.7821C149.792 12.3475 149.595 11.9962 149.315 11.7282C149.035 11.4603 148.654 11.3263 148.172 11.3263C147.714 11.3263 147.341 11.4543 147.056 11.7104C146.776 11.9605 146.57 12.3028 146.439 12.7375C146.308 13.1662 146.243 13.6425 146.243 14.1665C146.243 14.6488 146.302 15.1132 146.421 15.5598C146.541 16.0004 146.74 16.3606 147.02 16.6405C147.3 16.9203 147.684 17.0603 148.172 17.0603Z" fill="#549B43"/>
</svg>
