<svg width="340" height="57" viewBox="0 0 340 57" fill="none" xmlns="http://www.w3.org/2000/svg">
<path fill-rule="evenodd" clip-rule="evenodd" d="M35.1728 0.813265L0 22.1301L35.5281 43.0917L39.8632 39.9126L52.2263 32.4695V39.8942L35.1728 49.4868L17.0535 39.1836L16.6982 45.5787L35.5281 56.2371L58.2661 42.7364V28.8805L54.8525 30.8885L69.9904 21.7748L63.9506 18.5773L34.5964 35.4782L11.565 21.8474L40.502 4.72135L35.1728 0.813265Z" fill="white"/>
<path d="M46.8971 8.62946L35.8834 14.6687L46.8971 20.709L57.9108 14.6687L46.8971 8.62946Z" fill="white"/>
<path d="M10.6584 30.3016L4.8407 27.1041L4.61865 38.4731L7.81618 37.4072L10.6584 41.6706V30.3016Z" fill="#549B43"/>
<path d="M87.7743 14.2798C89.9363 14.2798 91.8595 14.7175 93.544 15.5929C95.2418 16.4551 96.608 17.6356 97.6425 19.1344C98.6904 20.6332 99.3072 22.3243 99.4928 24.2078H93.4048C93.2191 23.213 92.8808 22.331 92.3901 21.5617C91.8993 20.7791 91.256 20.169 90.4602 19.7313C89.6644 19.2803 88.7094 19.0548 87.5952 19.0548C86.2556 19.0548 85.1016 19.3798 84.1333 20.0297C83.1651 20.6796 82.4223 21.7275 81.905 23.1732C81.3877 24.619 81.1291 26.529 81.1291 28.9032C81.1291 32.4844 81.6994 35.0775 82.8401 36.6824C83.9941 38.2741 85.5791 39.0699 87.5952 39.0699C88.7094 39.0699 89.6644 38.8179 90.4602 38.3139C91.256 37.7966 91.8993 37.1201 92.3901 36.2845C92.8808 35.4356 93.2191 34.5072 93.4048 33.4991H99.4928C99.3204 34.8653 98.9888 36.1718 98.4981 37.4186C98.0073 38.6521 97.3109 39.753 96.409 40.7213C95.5071 41.6895 94.3465 42.4522 92.9273 43.0093C91.508 43.5664 89.7904 43.8449 87.7743 43.8449C85.095 43.8449 82.7804 43.2215 80.8306 41.9747C78.8809 40.7279 77.3754 38.9771 76.3143 36.7222C75.2665 34.4674 74.7426 31.8345 74.7426 28.8236C74.7426 25.7995 75.2665 23.2064 76.3143 21.0444C77.3622 18.8691 78.861 17.1979 80.8108 16.0307C82.7605 14.8634 85.0817 14.2798 87.7743 14.2798Z" fill="white"/>
<path d="M109.305 43.8449C107.992 43.8449 106.812 43.5995 105.764 43.1087C104.716 42.618 103.887 41.9084 103.277 40.9799C102.667 40.0382 102.362 38.8975 102.362 37.5578C102.362 35.303 103.204 33.592 104.889 32.4247C106.573 31.2443 109.233 30.6341 112.867 30.5943L115.433 30.5545V29.321C115.433 28.3793 115.155 27.6564 114.598 27.1524C114.054 26.6351 113.205 26.3831 112.051 26.3963C111.202 26.4096 110.393 26.6086 109.624 26.9932C108.868 27.3779 108.35 28.0477 108.072 29.0027H103.237C103.317 27.5171 103.748 26.2969 104.531 25.3419C105.313 24.3736 106.374 23.6574 107.714 23.1931C109.067 22.7156 110.599 22.4769 112.31 22.4769C114.419 22.4769 116.11 22.7422 117.383 23.2727C118.656 23.79 119.578 24.5394 120.149 25.5209C120.719 26.4892 121.004 27.6431 121.004 28.9828V43.447H116.15L115.672 39.9055C114.969 41.3911 114.087 42.419 113.026 42.9894C111.978 43.5597 110.738 43.8449 109.305 43.8449ZM111.255 40.0249C111.786 40.0249 112.296 39.9321 112.787 39.7464C113.291 39.5474 113.736 39.2888 114.12 38.9704C114.518 38.6388 114.837 38.2675 115.075 37.8563C115.314 37.4451 115.433 37.0207 115.433 36.583V33.5389L113.344 33.5787C112.376 33.592 111.474 33.7113 110.639 33.9368C109.803 34.149 109.126 34.5005 108.609 34.9913C108.105 35.4821 107.853 36.1452 107.853 36.9809C107.853 37.9359 108.185 38.6853 108.848 39.2291C109.511 39.7596 110.314 40.0249 111.255 40.0249Z" fill="white"/>
<path d="M126.147 43.447V22.8748H131.837V25.7796C132.46 24.8776 133.296 24.1017 134.344 23.4518C135.405 22.8018 136.738 22.4769 138.343 22.4769C139.046 22.4769 139.762 22.6029 140.492 22.8549C141.221 23.1069 141.904 23.4783 142.541 23.9691C143.191 24.4466 143.715 25.0501 144.113 25.7796C144.776 24.8378 145.645 24.0553 146.719 23.4319C147.807 22.7952 149.014 22.4769 150.34 22.4769C151.109 22.4769 151.885 22.6029 152.668 22.8549C153.464 23.1069 154.193 23.5181 154.856 24.0884C155.52 24.6588 156.05 25.4214 156.448 26.3764C156.859 27.3182 157.065 28.4854 157.065 29.8781V43.447H151.255V30.5943C151.255 29.772 151.09 29.1154 150.758 28.6247C150.44 28.1206 150.028 27.7625 149.524 27.5503C149.034 27.3248 148.51 27.2121 147.953 27.2121C147.435 27.2121 146.911 27.3182 146.381 27.5304C145.85 27.7293 145.399 28.0543 145.028 28.5053C144.657 28.9563 144.471 29.5465 144.471 30.276V43.447H138.681V30.077C138.681 29.4536 138.515 28.9297 138.184 28.5053C137.852 28.0808 137.434 27.7625 136.93 27.5503C136.44 27.3248 135.936 27.2121 135.418 27.2121C134.888 27.2121 134.357 27.3248 133.827 27.5503C133.296 27.7625 132.852 28.1007 132.494 28.565C132.136 29.0159 131.956 29.5863 131.956 30.276V43.447H126.147Z" fill="white"/>
<path d="M161.78 49.8534V22.8748H167.61L167.63 25.8393C167.935 25.3485 168.306 24.9042 168.744 24.5062C169.195 24.0951 169.692 23.7369 170.236 23.4319C170.78 23.1268 171.37 22.8947 172.007 22.7355C172.644 22.5631 173.313 22.4769 174.016 22.4769C175.542 22.4769 176.901 22.8549 178.095 23.6109C179.289 24.3537 180.224 25.5077 180.9 27.0728C181.59 28.6247 181.935 30.601 181.935 33.0017C181.935 35.4953 181.563 37.5446 180.821 39.1495C180.091 40.7412 179.083 41.9216 177.797 42.6909C176.51 43.4602 175.058 43.8449 173.439 43.8449C172.776 43.8449 172.153 43.752 171.569 43.5664C170.986 43.3939 170.442 43.1485 169.938 42.8302C169.447 42.5119 169.003 42.1471 168.605 41.7359C168.22 41.3115 167.882 40.8539 167.59 40.3631V49.8534H161.78ZM172.047 39.5872C173.307 39.5872 174.361 39.0633 175.21 38.0154C176.072 36.9676 176.503 35.3096 176.503 33.0415C176.503 31.0519 176.092 29.5001 175.27 28.3859C174.461 27.2585 173.386 26.6948 172.047 26.6948C170.548 26.6948 169.427 27.3049 168.684 28.5252C167.955 29.7322 167.59 31.2376 167.59 33.0415C167.59 34.1955 167.749 35.2698 168.068 36.2646C168.399 37.2594 168.89 38.0619 169.54 38.672C170.203 39.2821 171.039 39.5872 172.047 39.5872Z" fill="white"/>
<path d="M193.142 43.8449C192.187 43.8449 191.246 43.699 190.317 43.4072C189.402 43.1154 188.566 42.6843 187.81 42.114C187.054 41.5436 186.444 40.8406 185.98 40.005C185.529 39.1694 185.303 38.2011 185.303 37.1002V22.8748H191.113V36.3641C191.113 37.3191 191.425 38.1017 192.048 38.7118C192.672 39.3219 193.587 39.627 194.794 39.627C195.934 39.627 196.836 39.3352 197.5 38.7516C198.176 38.1547 198.514 37.3257 198.514 36.2646V22.8748H204.264V43.447H199.887L199.211 39.3684C198.972 40.5754 198.521 41.5038 197.858 42.1538C197.208 42.7904 196.458 43.2281 195.609 43.4669C194.774 43.7189 193.951 43.8449 193.142 43.8449Z" fill="white"/>
<path d="M217.131 43.8449C215.699 43.8449 214.319 43.6128 212.993 43.1485C211.667 42.671 210.546 41.9283 209.631 40.9202C208.715 39.8989 208.132 38.5792 207.88 36.961H212.913C213.086 37.6905 213.398 38.2675 213.849 38.6919C214.313 39.1163 214.837 39.4214 215.42 39.6071C216.004 39.7795 216.561 39.8657 217.092 39.8657C218.206 39.8657 219.101 39.6933 219.777 39.3485C220.467 38.9903 220.812 38.4465 220.812 37.717C220.812 37.1599 220.606 36.7156 220.195 36.384C219.797 36.0524 219.134 35.8004 218.206 35.628L214.585 34.8719C212.768 34.4873 211.309 33.8373 210.208 32.9221C209.107 31.9937 208.543 30.6805 208.517 28.9828C208.517 27.7492 208.841 26.6417 209.491 25.6602C210.155 24.6787 211.129 23.9027 212.416 23.3324C213.703 22.762 215.281 22.4769 217.151 22.4769C219.685 22.4769 221.707 23.034 223.219 24.1481C224.745 25.2623 225.521 26.834 225.547 28.8634H220.693C220.547 28.0676 220.149 27.4574 219.499 27.033C218.862 26.5953 218.06 26.3764 217.092 26.3764C216.084 26.3764 215.255 26.5555 214.605 26.9136C213.955 27.2717 213.63 27.8156 213.63 28.5451C213.63 29.0889 213.895 29.52 214.426 29.8383C214.956 30.1434 215.778 30.4086 216.893 30.6341L220.235 31.3902C221.389 31.6687 222.324 32.0534 223.04 32.5441C223.77 33.0216 224.334 33.5455 224.732 34.1159C225.129 34.6862 225.401 35.2632 225.547 35.8468C225.706 36.4172 225.786 36.9344 225.786 37.3987C225.786 38.7649 225.421 39.9321 224.692 40.9003C223.962 41.8553 222.948 42.5848 221.648 43.0889C220.348 43.5929 218.842 43.8449 217.131 43.8449Z" fill="white"/>
<path d="M242.316 13.5693C244.478 13.5693 246.401 14.007 248.086 14.8824C249.784 15.7445 251.15 16.925 252.184 18.4238C253.232 19.9226 253.849 21.6138 254.035 23.4972H247.946C247.761 22.5024 247.423 21.6204 246.932 20.8511C246.441 20.0685 245.798 19.4584 245.002 19.0207C244.206 18.5697 243.251 18.3442 242.137 18.3442C240.797 18.3442 239.643 18.6692 238.675 19.3191C237.707 19.9691 236.964 21.0169 236.447 22.4627C235.929 23.9084 235.671 25.8184 235.671 28.1926C235.671 31.7739 236.241 34.3669 237.382 35.9719C238.536 37.5635 240.121 38.3593 242.137 38.3593C243.251 38.3593 244.206 38.1073 245.002 37.6033C245.798 37.086 246.441 36.4096 246.932 35.5739C247.423 34.7251 247.761 33.7966 247.946 32.7885H254.035C253.862 34.1547 253.531 35.4612 253.04 36.708C252.549 37.9415 251.853 39.0424 250.951 40.0107C250.049 40.979 248.888 41.7416 247.469 42.2987C246.05 42.8558 244.332 43.1343 242.316 43.1343C239.637 43.1343 237.322 42.5109 235.372 41.2641C233.423 40.0173 231.917 38.2665 230.856 36.0116C229.808 33.7568 229.284 31.1239 229.284 28.113C229.284 25.0889 229.808 22.4958 230.856 20.3338C231.904 18.1585 233.403 16.4873 235.352 15.3201C237.302 14.1529 239.623 13.5693 242.316 13.5693Z" fill="#549B43"/>
<path d="M258.423 42.7364V22.1642H264.013V27.0387C264.345 25.9908 264.809 25.0756 265.406 24.2931C266.016 23.4972 266.752 22.8805 267.614 22.4428C268.477 21.9918 269.451 21.7663 270.539 21.7663C270.725 21.7663 270.897 21.7796 271.056 21.8061C271.229 21.8194 271.355 21.8459 271.434 21.8857V27.4167C271.315 27.3636 271.169 27.3305 270.997 27.3172C270.837 27.3039 270.692 27.2907 270.559 27.2774C269.418 27.1846 268.443 27.2177 267.634 27.3769C266.825 27.5361 266.169 27.808 265.665 28.1926C265.161 28.5773 264.796 29.0481 264.57 29.6052C264.345 30.1623 264.232 30.7857 264.232 31.4754V42.7364H258.423Z" fill="#549B43"/>
<path d="M279.285 33.7833C279.272 34.8312 279.438 35.7464 279.782 36.5289C280.127 37.2982 280.625 37.8951 281.275 38.3196C281.938 38.7307 282.734 38.9363 283.662 38.9363C284.657 38.9363 285.526 38.7241 286.268 38.2997C287.025 37.8752 287.548 37.1789 287.84 36.2106H293.073C292.847 37.6696 292.264 38.9164 291.322 39.951C290.394 40.9856 289.266 41.7748 287.94 42.3186C286.613 42.8624 285.234 43.1343 283.801 43.1343C281.772 43.1343 279.981 42.7099 278.43 41.861C276.891 40.9988 275.691 39.7852 274.828 38.2201C273.966 36.6549 273.535 34.8113 273.535 32.6891C273.535 30.6332 273.927 28.7829 274.709 27.1381C275.492 25.4802 276.626 24.1737 278.111 23.2187C279.61 22.2504 281.407 21.7663 283.503 21.7663C285.599 21.7663 287.356 22.2106 288.775 23.0993C290.208 23.9747 291.282 25.2016 291.998 26.78C292.728 28.3452 293.093 30.1557 293.093 32.2116V33.7833H279.285ZM279.265 30.3215H287.661C287.661 29.4991 287.509 28.7431 287.204 28.0534C286.899 27.3636 286.434 26.8198 285.811 26.4219C285.201 26.024 284.431 25.825 283.503 25.825C282.601 25.825 281.832 26.0439 281.195 26.4816C280.572 26.906 280.094 27.4631 279.763 28.1528C279.431 28.8425 279.265 29.5654 279.265 30.3215Z" fill="#549B43"/>
<path d="M304.766 43.1343C302.007 43.1343 299.858 42.186 298.32 40.2892C296.781 38.3792 296.012 35.7265 296.012 32.3309C296.012 30.1822 296.323 28.3186 296.947 26.7402C297.57 25.1618 298.492 23.9416 299.712 23.0794C300.933 22.204 302.425 21.7663 304.189 21.7663C304.932 21.7663 305.621 21.8525 306.258 22.0249C306.908 22.1841 307.498 22.4096 308.029 22.7014C308.559 22.9932 309.024 23.3314 309.422 23.7161C309.819 24.1007 310.144 24.5119 310.396 24.9496V13.1713H316.226V42.7364H312.008L311.351 38.5185C311.166 39.0889 310.907 39.6459 310.575 40.1898C310.244 40.7336 309.819 41.231 309.302 41.6819C308.785 42.1196 308.148 42.4711 307.392 42.7364C306.649 43.0017 305.774 43.1343 304.766 43.1343ZM306.039 38.9562C307.498 38.9562 308.586 38.4456 309.302 37.4242C310.032 36.4029 310.396 34.6786 310.396 32.2514C310.383 30.8454 310.217 29.6782 309.899 28.7497C309.581 27.8212 309.103 27.1315 308.467 26.6805C307.843 26.2163 307.047 25.9842 306.079 25.9842C304.819 25.9842 303.771 26.4683 302.936 27.4366C302.1 28.3916 301.682 29.9965 301.682 32.2514C301.682 34.546 302.073 36.2371 302.856 37.3248C303.639 38.4124 304.7 38.9562 306.039 38.9562Z" fill="#549B43"/>
<path d="M330.052 43.1343C328.036 43.1343 326.279 42.7032 324.78 41.8411C323.294 40.979 322.14 39.7587 321.318 38.1803C320.509 36.6019 320.104 34.7317 320.104 32.5697C320.104 30.4077 320.509 28.5176 321.318 26.8994C322.14 25.2812 323.294 24.0212 324.78 23.1192C326.279 22.2173 328.043 21.7663 330.072 21.7663C332.101 21.7663 333.859 22.2106 335.344 23.0993C336.83 23.9747 337.977 25.2215 338.786 26.8397C339.595 28.4579 340 30.3679 340 32.5697C340 34.6388 339.602 36.4692 338.806 38.0609C338.024 39.6393 336.89 40.8795 335.404 41.7814C333.932 42.6834 332.148 43.1343 330.052 43.1343ZM330.072 38.8169C331.093 38.8169 331.916 38.5185 332.539 37.9216C333.163 37.3248 333.614 36.5422 333.892 35.5739C334.184 34.5924 334.33 33.5247 334.33 32.3707C334.33 31.2831 334.197 30.2551 333.932 29.2869C333.68 28.3186 333.242 27.5361 332.619 26.9392C331.995 26.3423 331.146 26.0439 330.072 26.0439C329.051 26.0439 328.222 26.3291 327.585 26.8994C326.962 27.4565 326.504 28.2192 326.212 29.1874C325.92 30.1424 325.775 31.2035 325.775 32.3707C325.775 33.4451 325.907 34.4797 326.173 35.4745C326.438 36.456 326.882 37.2584 327.506 37.8818C328.129 38.5052 328.984 38.8169 330.072 38.8169Z" fill="#549B43"/>
</svg>
