<svg width="245" height="33" viewBox="0 0 245 33" fill="none" xmlns="http://www.w3.org/2000/svg">
<path fill-rule="evenodd" clip-rule="evenodd" d="M29.6037 13.2343L14.9324 21.744C14.9324 21.744 14.2755 16.4058 17.8417 13.7053C20.7822 11.4758 27.7268 7.73902 27.7268 7.73902" fill="white"/>
<path fill-rule="evenodd" clip-rule="evenodd" d="M3.45195 22.0894C3.79605 23.3141 4.29656 24.4759 4.95349 25.6378C5.23502 26.1402 5.54784 26.6112 5.86066 27.0509L0.0422088 30.4422C0.0422088 30.4422 -0.583432 25.104 2.98272 22.4348C3.10785 22.3406 3.26426 22.215 3.45195 22.0894Z" fill="#41285F"/>
<path fill-rule="evenodd" clip-rule="evenodd" d="M37.5807 12.5748C38.6756 19.1691 35.0469 27.2393 28.9469 30.7876C21.0951 35.3408 11.0536 32.6403 6.51768 24.7586C1.98178 16.8454 4.67204 6.76557 12.5238 2.21237C20.3756 -2.34084 30.4171 0.359684 34.953 8.24143C35.0156 8.36704 35.6412 9.46609 35.6725 9.7173L29.3223 13.3913C29.1971 13.1401 28.7905 12.1352 28.6653 11.9154C26.1315 7.5192 20.3443 5.54091 15.9648 8.05303C11.5854 10.5965 9.70844 16.8454 12.2423 21.2416C14.7761 25.6378 21.2515 27.7103 25.5997 25.1982C27.0074 24.3817 29.6351 22.4035 30.7925 19.4203C32.3879 15.3067 33.9207 14.0507 37.5807 12.5748Z" fill="white"/>
<path d="M78.9776 0H85.0309V31.5221H79.5948L78.9776 26.5763V0ZM65.4571 20.2554C65.4571 17.998 65.7823 16.021 66.4328 14.3245C67.0965 12.6143 68.0523 11.2872 69.3002 10.3432C70.5613 9.3855 72.0945 8.90665 73.8999 8.90665C75.5858 8.90665 76.993 9.40602 78.1213 10.4048C79.263 11.3898 80.159 12.7443 80.8095 14.4682C81.4732 16.1784 81.9312 18.1211 82.1834 20.2965V20.8095C81.9312 22.8754 81.4732 24.7498 80.8095 26.4326C80.159 28.1154 79.263 29.4562 78.1213 30.455C76.993 31.4401 75.5725 31.9326 73.8601 31.9326C72.0813 31.9326 70.5613 31.4469 69.3002 30.4755C68.0523 29.4904 67.0965 28.1497 66.4328 26.4531C65.7823 24.7566 65.4571 22.8344 65.4571 20.6864V20.2554ZM71.4706 20.6864C71.4706 21.8356 71.5967 22.8823 71.8489 23.8263C72.1012 24.7703 72.5127 25.5228 73.0835 26.0837C73.6543 26.631 74.4243 26.9046 75.3933 26.9046C76.3491 26.9046 77.1323 26.6857 77.743 26.2479C78.3536 25.7964 78.8183 25.1739 79.1369 24.3804C79.4554 23.5869 79.6413 22.6702 79.6944 21.6304V19.4961C79.6678 18.6068 79.555 17.8201 79.3559 17.1361C79.17 16.4383 78.9045 15.8568 78.5594 15.3917C78.2275 14.9128 77.7961 14.5503 77.2651 14.304C76.7474 14.0577 76.1367 13.9346 75.4332 13.9346C74.4774 13.9346 73.7074 14.2151 73.1233 14.776C72.5392 15.3233 72.1144 16.0757 71.8489 17.0334C71.5967 17.9775 71.4706 19.0515 71.4706 20.2554V20.6864Z" fill="white"/>
<path d="M104.463 9.31709H110.476V31.5221H104.841L104.463 26.1658V9.31709ZM106.872 21.5278C106.872 23.5253 106.574 25.3107 105.976 26.8841C105.392 28.4438 104.503 29.6751 103.308 30.5781C102.127 31.4811 100.633 31.9326 98.8277 31.9326C96.7038 31.9326 94.978 31.2964 93.6505 30.024C92.3363 28.738 91.6792 26.6242 91.6792 23.6826V9.31709H97.6927V23.7237C97.6927 24.4762 97.8122 25.0918 98.0512 25.5707C98.3034 26.0359 98.6485 26.3779 99.0866 26.5968C99.5379 26.802 100.049 26.9046 100.62 26.9046C101.775 26.9046 102.677 26.6721 103.328 26.2069C103.992 25.7417 104.456 25.1055 104.722 24.2983C105.001 23.4911 105.14 22.5813 105.14 21.5689L106.872 21.5278Z" fill="white"/>
<path d="M132.497 23.6416C132.497 22.9712 132.358 22.3897 132.079 21.8972C131.8 21.4047 131.263 20.9395 130.466 20.5017C129.683 20.0502 128.521 19.5714 126.981 19.0651C125.68 18.6273 124.439 18.1348 123.258 17.5875C122.09 17.0266 121.054 16.3767 120.151 15.6379C119.249 14.8991 118.539 14.0372 118.021 13.0521C117.503 12.0671 117.244 10.9178 117.244 9.6044C117.244 7.92158 117.709 6.45766 118.638 5.21265C119.567 3.95395 120.842 2.97572 122.461 2.27797C124.094 1.58021 125.959 1.23133 128.057 1.23133C130.207 1.23133 132.086 1.62126 133.692 2.4011C135.298 3.18094 136.539 4.26862 137.415 5.66413C138.305 7.04596 138.75 8.6467 138.75 10.4663H132.517C132.517 9.65913 132.351 8.94769 132.019 8.33202C131.687 7.70268 131.183 7.21698 130.506 6.87495C129.842 6.51923 128.993 6.34137 127.957 6.34137C126.961 6.34137 126.132 6.49186 125.468 6.79286C124.804 7.09385 124.306 7.49061 123.975 7.98315C123.656 8.47568 123.497 9.02978 123.497 9.64545C123.497 10.2885 123.716 10.8494 124.154 11.3283C124.592 11.8071 125.229 12.2518 126.065 12.6622C126.902 13.059 127.917 13.4489 129.112 13.832C131.223 14.4887 132.995 15.2617 134.429 16.151C135.862 17.0403 136.938 18.0938 137.654 19.3114C138.384 20.5154 138.75 21.9451 138.75 23.6006C138.75 25.3518 138.311 26.8499 137.435 28.0949C136.572 29.3399 135.351 30.2908 133.771 30.9475C132.192 31.6042 130.333 31.9326 128.196 31.9326C126.736 31.9326 125.302 31.741 123.895 31.358C122.501 30.9612 121.233 30.3592 120.092 29.552C118.963 28.7311 118.061 27.6982 117.384 26.4531C116.707 25.2081 116.368 23.7305 116.368 22.0203H122.64C122.64 22.9096 122.767 23.6621 123.019 24.2778C123.284 24.8798 123.656 25.3723 124.134 25.7554C124.625 26.1385 125.209 26.4189 125.886 26.5968C126.576 26.761 127.346 26.8431 128.196 26.8431C129.192 26.8431 130.001 26.7063 130.625 26.4326C131.263 26.1453 131.734 25.7622 132.039 25.2834C132.344 24.7908 132.497 24.2436 132.497 23.6416Z" fill="white"/>
<path d="M150.794 31.5221H144.781V9.31709H150.436L150.794 13.9551V31.5221ZM148.305 19.7629C148.305 17.656 148.624 15.7884 149.261 14.1603C149.898 12.5322 150.841 11.253 152.088 10.3227C153.35 9.37866 154.909 8.90665 156.768 8.90665C158.679 8.90665 160.239 9.51547 161.447 10.7331C162.655 11.9371 163.259 13.9278 163.259 16.7051V31.5221H157.246V17.4644C157.246 16.5204 157.12 15.7953 156.867 15.2891C156.628 14.7692 156.277 14.4134 155.812 14.2219C155.347 14.0304 154.79 13.9346 154.139 13.9346C153.436 13.9346 152.819 14.0782 152.288 14.3656C151.757 14.6392 151.318 15.036 150.973 15.5558C150.628 16.0757 150.369 16.6914 150.197 17.4028C150.037 18.1006 149.958 18.8599 149.958 19.6808L148.305 19.7629ZM160.571 19.5166C160.558 17.5055 160.856 15.6995 161.467 14.0988C162.091 12.498 163.02 11.2325 164.255 10.3022C165.489 9.37182 167.023 8.90665 168.855 8.90665C170.235 8.90665 171.443 9.18028 172.479 9.72754C173.514 10.2748 174.317 11.1709 174.888 12.4159C175.459 13.661 175.744 15.3301 175.744 17.4234V31.5221H169.691V17.4028C169.691 16.4451 169.565 15.72 169.313 15.2275C169.074 14.735 168.722 14.3998 168.257 14.2219C167.806 14.0304 167.262 13.9346 166.624 13.9346C165.961 13.9346 165.383 14.0646 164.892 14.3245C164.414 14.5845 164.009 14.9607 163.677 15.4532C163.359 15.9321 163.113 16.4999 162.941 17.1566C162.781 17.7996 162.702 18.5042 162.702 19.2704L160.571 19.5166Z" fill="white"/>
<path d="M194.001 16.7256C194.001 15.7269 193.762 14.9333 193.285 14.345C192.807 13.7567 192.043 13.4626 190.995 13.4626C190.397 13.4626 189.88 13.5652 189.441 13.7704C189.003 13.9756 188.672 14.2698 188.446 14.6529C188.22 15.0223 188.107 15.4806 188.107 16.0279H182.094C182.094 14.7144 182.472 13.5241 183.229 12.457C183.986 11.3762 185.054 10.5142 186.435 9.87119C187.815 9.22816 189.441 8.90665 191.313 8.90665C192.986 8.90665 194.479 9.2008 195.794 9.7891C197.108 10.3637 198.143 11.2325 198.9 12.3954C199.657 13.5584 200.035 15.0154 200.035 16.7667V26.0427C200.035 27.3561 200.108 28.3959 200.254 29.1621C200.413 29.9282 200.632 30.5986 200.911 31.1733V31.5221H194.858C194.566 30.8928 194.347 30.1061 194.201 29.1621C194.068 28.2181 194.001 27.2604 194.001 26.289V16.7256ZM194.818 21.5073H191.751C190.291 21.5073 189.236 21.8356 188.585 22.4924C187.935 23.1354 187.61 23.9152 187.61 24.8319C187.61 25.5296 187.849 26.1043 188.326 26.5558C188.804 27.0072 189.448 27.233 190.258 27.233C191.094 27.233 191.811 27.0688 192.408 26.7405C193.019 26.3984 193.484 25.9948 193.802 25.5296C194.134 25.0508 194.293 24.613 194.28 24.2162L195.833 26.8841C195.621 27.4314 195.336 27.9992 194.977 28.5875C194.632 29.1758 194.187 29.723 193.643 30.2292C193.099 30.7355 192.435 31.1459 191.652 31.4606C190.882 31.7752 189.972 31.9326 188.924 31.9326C187.57 31.9326 186.335 31.6521 185.22 31.0912C184.105 30.5166 183.222 29.7299 182.572 28.7311C181.921 27.7187 181.596 26.5626 181.596 25.2629C181.596 22.937 182.432 21.1379 184.105 19.8655C185.778 18.5795 188.267 17.9364 191.572 17.9364H194.778L194.818 21.5073Z" fill="white"/>
<path d="M212.796 31.5221H206.783V9.31709H212.438L212.796 14.4271V31.5221ZM219.089 15.1454C218.796 15.1044 218.451 15.0702 218.053 15.0428C217.655 15.0017 217.296 14.9812 216.978 14.9812C215.929 14.9812 215.066 15.1522 214.389 15.4943C213.712 15.8226 213.208 16.3152 212.876 16.9719C212.544 17.6286 212.365 18.4426 212.338 19.414L211.163 18.8804C211.163 16.9514 211.402 15.2343 211.88 13.7294C212.358 12.2244 213.062 11.0478 213.991 10.1995C214.92 9.33761 216.049 8.90665 217.376 8.90665C217.681 8.90665 218 8.92717 218.332 8.96821C218.677 9.00926 218.956 9.07766 219.168 9.17344L219.089 15.1454Z" fill="white"/>
<path d="M236.012 13.832H223.288V9.31709H236.012V13.832ZM232.368 3.83766V24.5856C232.368 25.1876 232.441 25.6528 232.587 25.9811C232.746 26.3095 232.992 26.5352 233.323 26.6584C233.655 26.7815 234.067 26.8431 234.558 26.8431C234.916 26.8431 235.235 26.8294 235.514 26.802C235.793 26.7747 236.032 26.7405 236.231 26.6994L236.211 31.3785C235.72 31.5563 235.182 31.6932 234.598 31.7889C234.027 31.8847 233.383 31.9326 232.666 31.9326C231.379 31.9326 230.257 31.7137 229.301 31.2759C228.359 30.8244 227.629 30.1129 227.111 29.1416C226.606 28.1565 226.354 26.8704 226.354 25.2834V3.83766H232.368Z" fill="white"/>
<path d="M62.6262 31.9818H47.3136V26.7897H62.6262V31.9818ZM49.3247 31.9818H43.0524V2.10148H49.3247V31.9818ZM60.6349 19.1349H47.3136V14.107H60.6349V19.1349ZM62.6063 7.31412H47.3136V2.10148H62.6063V7.31412Z" fill="#4AB900"/>
<circle cx="242.05" cy="28.31" r="2.831" fill="white"/>
</svg>
