<svg width="18" height="18" viewBox="0 0 18 18" fill="none" xmlns="http://www.w3.org/2000/svg">
<g clip-path="url(#clip0_5652_18155)">
<rect width="18" height="18" fill="white" fill-opacity="0.01"/>
<path d="M11.2516 0H6.30156C5.70482 0 5.13253 0.237053 4.71057 0.65901C4.28862 1.08097 4.05156 1.65326 4.05156 2.25V2.7H3.60156C3.00483 2.7 2.43253 2.93705 2.01057 3.35901C1.58862 3.78097 1.35156 4.35326 1.35156 4.95V15.75C1.35156 16.3467 1.58862 16.919 2.01057 17.341C2.43253 17.7629 3.00483 18 3.60156 18H11.7016C12.2983 18 12.8706 17.7629 13.2926 17.341C13.7145 16.919 13.9516 16.3467 13.9516 15.75V15.3H14.4016C14.9983 15.3 15.5706 15.0629 15.9926 14.641C16.4145 14.219 16.6516 13.6467 16.6516 13.05V5.4L11.2516 0ZM14.918 4.95H13.0516C12.6936 4.94963 12.3505 4.80728 12.0974 4.55418C11.8443 4.30109 11.7019 3.95793 11.7016 3.6V1.72547L14.918 4.95ZM13.0516 15.75C13.0512 16.1079 12.9088 16.4511 12.6557 16.7042C12.4027 16.9573 12.0595 17.0996 11.7016 17.1H3.60156C3.24363 17.0996 2.90047 16.9573 2.64738 16.7042C2.39429 16.4511 2.25193 16.1079 2.25156 15.75V4.95C2.25193 4.59207 2.39429 4.24891 2.64738 3.99582C2.90047 3.74272 3.24363 3.60037 3.60156 3.6H4.05156V13.05C4.05156 13.6467 4.28862 14.219 4.71057 14.641C5.13253 15.0629 5.70482 15.3 6.30156 15.3H13.0516V15.75ZM15.7516 13.05C15.7512 13.4079 15.6088 13.7511 15.3557 14.0042C15.1027 14.2573 14.7595 14.3996 14.4016 14.4H6.30156C5.94363 14.3996 5.60047 14.2573 5.34738 14.0042C5.09429 13.7511 4.95193 13.4079 4.95156 13.05V2.25C4.95193 1.89207 5.09429 1.54891 5.34738 1.29582C5.60047 1.04272 5.94363 0.900372 6.30156 0.9H10.8016V3.6C10.8016 4.19674 11.0386 4.76903 11.4606 5.19099C11.8825 5.61295 12.4548 5.85 13.0516 5.85H15.7516V13.05ZM7.65156 7.65C7.65156 7.53065 7.69897 7.41619 7.78336 7.3318C7.86776 7.24741 7.98222 7.2 8.10156 7.2H10.8016C10.9209 7.2 11.0354 7.24741 11.1198 7.3318C11.2042 7.41619 11.2516 7.53065 11.2516 7.65C11.2516 7.76935 11.2042 7.88381 11.1198 7.9682C11.0354 8.05259 10.9209 8.1 10.8016 8.1H8.10156C7.98222 8.1 7.86776 8.05259 7.78336 7.9682C7.69897 7.88381 7.65156 7.76935 7.65156 7.65ZM13.0516 9.45C13.0516 9.56935 13.0042 9.68381 12.9198 9.7682C12.8354 9.85259 12.7209 9.9 12.6016 9.9H8.10156C7.98222 9.9 7.86776 9.85259 7.78336 9.7682C7.69897 9.68381 7.65156 9.56935 7.65156 9.45C7.65156 9.33065 7.69897 9.21619 7.78336 9.1318C7.86776 9.04741 7.98222 9 8.10156 9H12.6016C12.7209 9 12.8354 9.04741 12.9198 9.1318C13.0042 9.21619 13.0516 9.33065 13.0516 9.45ZM13.0382 11.25C13.0382 11.3092 13.0265 11.3677 13.0039 11.4224C12.9812 11.477 12.948 11.5267 12.9062 11.5684C12.8643 11.6102 12.8146 11.6434 12.7599 11.6659C12.7052 11.6885 12.6467 11.7001 12.5875 11.7H8.10156C7.98222 11.7 7.86776 11.6526 7.78336 11.5682C7.69897 11.4838 7.65156 11.3693 7.65156 11.25C7.65156 11.1307 7.69897 11.0162 7.78336 10.9318C7.86776 10.8474 7.98222 10.8 8.10156 10.8H12.5875C12.6467 10.7999 12.7052 10.8115 12.7599 10.8341C12.8146 10.8566 12.8643 10.8898 12.9062 10.9316C12.948 10.9733 12.9812 11.023 13.0039 11.0776C13.0265 11.1323 13.0382 11.1908 13.0382 11.25Z" fill="white"/>
</g>
<defs>
<clipPath id="clip0_5652_18155">
<rect width="18" height="18" fill="white"/>
</clipPath>
</defs>
</svg>
