<svg width="24" height="24" viewBox="0 0 24 24" fill="none" xmlns="http://www.w3.org/2000/svg">
<path fill-rule="evenodd" clip-rule="evenodd" d="M10.4069 6.48736C9.62481 6.99463 9.20424 7.67898 9.19501 8.59945C9.19501 8.76676 9.19666 8.93407 9.1983 9.10132V9.10134C9.20157 9.43562 9.20485 9.76963 9.19501 10.1028C9.17841 10.5013 9.35365 10.6562 9.73364 10.6267C9.9045 10.6168 10.0762 10.6201 10.2481 10.6234H10.2482C10.3342 10.625 10.4204 10.6267 10.5065 10.6267C10.5644 10.6217 10.6228 10.6285 10.6779 10.6469C10.7331 10.6653 10.7839 10.6947 10.8272 10.7334C10.8706 10.7722 10.9055 10.8193 10.93 10.8721C10.9544 10.9248 10.9678 10.982 10.9693 11.0401C10.9708 11.0982 10.9604 11.156 10.9388 11.21C10.9171 11.2639 10.8846 11.3128 10.8434 11.3538C10.8021 11.3947 10.7529 11.4267 10.6988 11.4479C10.6447 11.4691 10.5868 11.4791 10.5287 11.4771C10.16 11.497 9.79056 11.497 9.4219 11.4771C8.91094 11.4383 8.39998 11.0251 8.37969 10.5455C8.32736 9.68919 8.34155 8.8301 8.42212 7.97597C8.52357 7.06841 9.07327 6.37853 9.84617 5.82883C9.34627 4.9471 9.19501 4.03032 9.53811 3.06743C9.75731 2.44109 10.1751 1.90349 10.7279 1.5364C11.2642 1.17229 11.9009 0.985055 12.5489 1.00093C13.1969 1.01681 13.8237 1.235 14.3415 1.62494C15.6032 2.58968 15.8356 3.82557 15.1347 5.8399C15.8725 6.37299 16.4259 7.07395 16.5366 7.9981C16.6126 8.83834 16.6249 9.68313 16.5735 10.5252C16.555 11.0067 16.0533 11.4272 15.5442 11.4697C15.1725 11.49 14.7999 11.49 14.4282 11.4697C14.3715 11.475 14.3144 11.4681 14.2605 11.4495C14.2067 11.431 14.1575 11.4011 14.1161 11.362C14.0747 11.3229 14.0422 11.2754 14.0206 11.2228C13.999 11.1701 13.9889 11.1134 13.991 11.0565C13.991 10.765 14.1755 10.6212 14.4614 10.623C14.6532 10.6242 14.8367 10.6238 15.0157 10.6234L15.0164 10.6234C15.1041 10.6232 15.1907 10.623 15.2767 10.623C15.594 10.623 15.7545 10.5013 15.7489 10.1655C15.7446 9.93291 15.7468 9.7 15.7491 9.46714V9.4671C15.7526 9.11279 15.7561 8.7586 15.736 8.40576C15.72 8.0539 15.6221 7.71063 15.4501 7.40323C15.2782 7.09583 15.0369 6.83276 14.7455 6.63493C14.6916 6.59945 14.63 6.57727 14.5659 6.57022C14.5018 6.56316 14.4369 6.57143 14.3765 6.59435C13.041 7.51297 11.7332 7.4318 10.4069 6.48736ZM14.7178 4.11702C14.7138 3.67386 14.5788 3.24178 14.3298 2.87514C14.0809 2.5085 13.729 2.22369 13.3186 2.05653C12.9081 1.88936 12.4574 1.84733 12.0231 1.9357C11.5889 2.02407 11.1904 2.23891 10.8779 2.55318C10.5654 2.86745 10.3529 3.26712 10.267 3.70189C10.1811 4.13667 10.2257 4.58714 10.3952 4.99663C10.5647 5.40612 10.8515 5.75633 11.2196 6.0032C11.5877 6.25008 12.0205 6.38259 12.4637 6.38406C12.7611 6.38505 13.0557 6.32699 13.3305 6.21325C13.6052 6.09951 13.8547 5.93235 14.0644 5.72147C14.2741 5.51059 14.4398 5.26018 14.552 4.98476C14.6641 4.70934 14.7205 4.41439 14.7178 4.11702ZM7.65471 11.9806C7.19725 11.4881 6.65862 11.228 5.94844 11.3719L5.87889 9.86773L5.87887 9.8672L5.87869 9.86339C5.84127 9.05535 5.80412 8.2531 5.76767 7.45578C5.76779 7.1314 5.66823 6.81482 5.48248 6.5489C5.29672 6.28297 5.03375 6.08054 4.72915 5.96902C4.14809 5.76611 3.45267 5.91368 3.11695 6.43201C2.88886 6.80523 2.74297 7.22279 2.689 7.65684C2.60085 8.31133 2.5323 8.96846 2.46378 9.6253C2.36024 10.6179 2.25676 11.6099 2.08581 12.5912C1.81649 14.1794 2.1559 15.467 3.46374 16.4575C3.84591 16.7815 4.20696 17.1296 4.54469 17.4997C4.78004 17.7112 4.95995 17.9772 5.06865 18.2743C5.17734 18.5715 5.21152 18.8907 5.16817 19.2042C5.13851 19.3548 5.05027 19.4875 4.92283 19.5731C4.55206 19.7834 4.29566 20.0859 4.27537 20.5212C4.24309 21.0064 4.24309 21.4933 4.27537 21.9785C4.29251 22.2617 4.42068 22.5267 4.63205 22.7159C4.84341 22.9052 5.12091 23.0034 5.40428 22.9893C7.01156 22.9992 8.61453 22.9992 10.2132 22.9893C10.3645 22.9932 10.515 22.966 10.6554 22.9095C10.7957 22.8529 10.923 22.7682 11.0293 22.6604C11.1357 22.5527 11.2188 22.4244 11.2735 22.2833C11.3283 22.1422 11.3535 21.9914 11.3476 21.8401V20.6817C11.3527 20.4524 11.2922 20.2265 11.1732 20.0304C11.0543 19.8344 10.8819 19.6764 10.6762 19.5749C10.6079 19.5301 10.5501 19.4712 10.5065 19.4022C10.4629 19.3331 10.4346 19.2555 10.4235 19.1746C10.4069 18.3021 10.3958 17.4278 10.4235 16.5553C10.4689 15.6447 10.1685 14.7505 9.58234 14.0521C9.17905 13.5714 8.74217 13.1177 8.30555 12.6643L8.30554 12.6643L8.30552 12.6642L8.30549 12.6642C8.08709 12.4374 7.86875 12.2107 7.65471 11.9806ZM9.55932 18.475L9.55932 18.4751C9.5616 18.803 9.5639 19.134 9.5639 19.4698H6.03329C6.03329 19.4212 6.03224 19.3737 6.0312 19.3267C6.02917 19.2347 6.02719 19.1451 6.03329 19.0547C6.09048 18.2431 5.77136 17.5735 5.23088 17.0017C4.87585 16.5894 4.4858 16.2086 4.06508 15.8636C2.96938 15.0409 2.72036 13.995 2.93618 12.6816C3.12849 11.5187 3.25127 10.344 3.37402 9.16956L3.37402 9.16955C3.42669 8.66557 3.47936 8.16163 3.53752 7.65869C3.55048 7.54497 3.57082 7.43221 3.5984 7.32112C3.68878 6.96327 3.88985 6.729 4.29197 6.75667C4.6941 6.78434 4.85458 7.06656 4.89885 7.42073C4.93206 7.68636 4.94036 7.95509 4.94866 8.22383C4.95142 8.31341 4.95419 8.40299 4.95788 8.49245L4.98053 9.0365C5.01783 9.92825 5.0551 10.8191 5.07963 11.7113C5.07357 11.8793 5.03008 12.0438 4.95235 12.1928C4.80777 12.4848 4.75711 12.8145 4.8073 13.1365C4.8575 13.4585 5.00611 13.7571 5.23273 13.9913C5.63693 14.4176 6.05774 14.8356 6.47647 15.2516C6.61574 15.3899 6.75477 15.5281 6.89289 15.6662C7.09764 15.8709 7.31899 15.9908 7.56802 15.7437C7.81704 15.4965 7.70821 15.2585 7.48685 15.0409C6.97589 14.5391 6.46862 14.0318 5.96504 13.5246C5.60165 13.1557 5.55369 12.7203 5.83592 12.4178C6.14766 12.0839 6.55717 12.1042 6.95745 12.5137C7.09783 12.6593 7.23932 12.8046 7.38109 12.9503C7.89695 13.4803 8.41655 14.0142 8.89983 14.5742C9.36751 15.1269 9.60521 15.838 9.5639 16.5608C9.55043 17.1948 9.55483 17.8287 9.55932 18.475ZM10.0656 22.1408H7.79306H7.78753C7.44878 22.1408 7.11004 22.1389 6.77216 22.137H6.77167H6.77119C6.36792 22.1347 5.9659 22.1324 5.56661 22.1334C5.25302 22.139 5.12021 22.0117 5.12021 21.7073C5.1216 21.5003 5.1195 21.3238 5.11772 21.1735V21.1734C5.11231 20.7173 5.10975 20.5017 5.21594 20.4024C5.31113 20.3133 5.49368 20.3176 5.83984 20.3259H5.83989C5.99519 20.3296 6.18341 20.334 6.41144 20.3312C6.80756 20.3312 7.20347 20.3329 7.59924 20.3345C8.39038 20.3378 9.18097 20.3411 9.97156 20.3312C10.3552 20.3257 10.5323 20.4511 10.5028 20.8514C10.4871 21.1371 10.4871 21.4235 10.5028 21.7092C10.5157 22.0209 10.3755 22.1408 10.0656 22.1408ZM19.0756 9.69429C19.048 10.2501 19.0202 10.8095 18.9936 11.3756C18.4014 11.2631 17.9089 11.383 17.5197 11.7778C16.8556 12.4289 16.1897 13.0819 15.5755 13.7773C15.2177 14.1599 14.94 14.61 14.7585 15.1012C14.577 15.5925 14.4954 16.1151 14.5185 16.6383C14.5446 17.2263 14.5393 17.8143 14.534 18.4022C14.5318 18.6444 14.5296 18.8865 14.5296 19.1286C14.5314 19.3591 14.5037 19.5122 14.2455 19.6192C14.0441 19.7008 13.8731 19.843 13.7561 20.0261C13.6391 20.2092 13.582 20.4241 13.5925 20.6412C13.5925 20.7745 13.5915 20.9079 13.5905 21.0413C13.5884 21.3084 13.5864 21.5757 13.5925 21.8438C13.5886 21.997 13.6162 22.1493 13.6737 22.2913C13.7311 22.4334 13.8172 22.562 13.9266 22.6693C14.036 22.7766 14.1663 22.8602 14.3093 22.915C14.4524 22.9697 14.6053 22.9944 14.7583 22.9875C16.3465 23.0023 17.9366 23.006 19.5248 22.9875C19.764 22.9824 19.9971 22.9108 20.1981 22.7809C20.923 22.2884 20.9544 20.1542 20.1981 19.7299C19.7517 19.479 19.6871 19.1765 19.7867 18.8076C19.8944 18.3725 20.0862 17.9627 20.3512 17.6012C20.7772 17.1164 21.2403 16.6655 21.7365 16.2528C22.6736 15.4024 23.1642 14.4082 22.8968 13.117C22.8529 12.9117 22.8364 12.7003 22.82 12.4887C22.8109 12.3714 22.8018 12.2539 22.7879 12.1375C22.7368 11.6931 22.6872 11.2484 22.6377 10.8036L22.6376 10.8033C22.5083 9.64335 22.379 8.48261 22.2216 7.32669C22.0851 6.33613 21.4192 5.81779 20.5209 5.89895C19.7498 5.96905 19.2149 6.64787 19.178 7.57018C19.1459 8.27662 19.1109 8.98248 19.0756 9.69429ZM20.5652 16.1384C19.6004 17.0312 18.6671 17.9314 18.9437 19.4588H15.4039C15.4039 19.1102 15.3959 18.7624 15.3879 18.416L15.3879 18.4159C15.3685 17.5779 15.3492 16.7475 15.4445 15.9318C15.5128 15.3416 15.9241 14.7439 16.3096 14.2514C16.6968 13.7558 17.1549 13.314 17.6126 12.8725L17.6126 12.8725L17.6127 12.8724C17.7546 12.7355 17.8965 12.5987 18.0362 12.4603C18.3977 12.1061 18.8165 12.1209 19.0987 12.4105C19.3809 12.7001 19.3477 13.1391 19.012 13.4803C18.501 14.0005 17.9827 14.5152 17.4625 15.028C17.243 15.2438 17.112 15.4744 17.3666 15.7308C17.6212 15.9872 17.8573 15.8525 18.0712 15.6367C18.2785 15.4273 18.4891 15.2191 18.6998 15.0106L18.7 15.0105L18.7 15.0104C19.0295 14.6846 19.3596 14.3582 19.6779 14.0263C19.919 13.7877 20.0778 13.4784 20.1312 13.1434C20.1846 12.8084 20.1299 12.4651 19.9749 12.1633C19.8984 11.9981 19.86 11.8178 19.8624 11.6357C19.9006 10.5516 19.9482 9.46861 19.9959 8.38495C20.008 8.10972 20.0201 7.83446 20.0321 7.55911C20.0524 7.08689 20.2553 6.78253 20.6408 6.75117C21.0263 6.71981 21.3159 6.97621 21.3786 7.4761C21.4646 8.17358 21.5421 8.8726 21.6196 9.57167L21.6197 9.57279L21.6199 9.5739C21.662 9.95381 21.7041 10.3337 21.7476 10.7134C21.7734 10.9418 21.7983 11.1705 21.8232 11.3993C21.8941 12.0516 21.9651 12.7043 22.0593 13.3531C22.1645 14.0835 22.015 14.7181 21.4875 15.2438C21.1874 15.5488 20.88 15.847 20.5652 16.1384ZM14.8819 20.3405H17.1545C17.4465 20.3405 17.7382 20.3423 18.0299 20.344H18.0301H18.0303C18.4683 20.3467 18.9064 20.3493 19.3459 20.346C19.6945 20.3386 19.8347 20.4733 19.8347 20.8219C19.8323 21.0108 19.8328 21.1733 19.8333 21.3131C19.8348 21.7716 19.8355 21.9856 19.7293 22.0827C19.6364 22.1677 19.4614 22.1631 19.1334 22.1544C18.9829 22.1504 18.8003 22.1456 18.5785 22.1482C18.1761 22.1482 17.7748 22.1464 17.3739 22.1445L17.3731 22.1445H17.373H17.3729C16.5724 22.1408 15.7741 22.1371 14.9741 22.1482C14.5904 22.1537 14.4134 22.0357 14.4447 21.6336C14.4613 21.3479 14.4613 21.0615 14.4447 20.7758C14.4318 20.4622 14.5757 20.3405 14.8819 20.3405ZM12.1432 10.8205C12.0904 10.8589 12.0377 10.8973 11.9858 10.9274L11.9766 11.1192C12.0259 11.1556 12.076 11.2015 12.1261 11.2474C12.241 11.3527 12.3558 11.4578 12.4599 11.4476C12.5562 11.4187 12.644 11.3666 12.7154 11.2959C12.7868 11.2251 12.8397 11.1378 12.8694 11.0417C12.8915 10.9348 12.6628 10.671 12.5005 10.6544C12.3872 10.6428 12.265 10.7318 12.1432 10.8205Z" fill="black"/>
</svg>
