<svg width="24" height="24" viewBox="0 0 24 24" fill="none" xmlns="http://www.w3.org/2000/svg">
<path fill-rule="evenodd" clip-rule="evenodd" d="M3.54027 15.2421H11.9441C12.5785 15.2421 13.2129 15.2423 13.8473 15.2425H13.8474H13.8475H13.8476H13.8478C16.0674 15.2432 18.2865 15.2439 20.5056 15.2358C22.111 15.2358 22.9841 14.3605 22.9852 12.7562C22.9873 12.1498 22.9834 11.5432 22.9795 10.9367L22.9795 10.9362V10.9361V10.936V10.9359V10.9358C22.972 9.78457 22.9646 8.63349 22.9988 7.48375C23.0416 5.98494 21.9668 5 20.5349 5C17.5029 5.00446 14.4694 5.00416 11.4352 5.00386C8.78026 5.0036 6.12475 5.00334 3.46925 5.00627C1.92865 5.00731 1.01474 5.93376 1.00325 7.47748C0.998375 8.63901 1 9.79961 1.00163 10.9599C1.00244 11.5399 1.00325 12.1199 1.00325 12.6998C1.01056 14.3731 1.87121 15.2358 3.54027 15.2421ZM3.84697 14.3831V14.3831V14.3831V14.3832V14.3832C3.84767 14.509 3.84839 14.6366 3.84839 14.7668C2.30988 15.0269 1.36464 13.9636 1.42626 12.6487C1.48182 11.4431 1.46932 10.2369 1.45682 9.03067C1.45146 8.51366 1.44611 7.99662 1.44611 7.47957C1.44611 6.06118 2.38613 5.28096 3.84839 5.53895V7.3417C3.84839 8.11983 4.00819 8.29008 4.78841 8.29008H17.4265C17.6354 8.29008 17.8443 8.29113 18.0532 8.29217H18.0532C18.471 8.29426 18.8888 8.29635 19.3066 8.29008C19.9552 8.28173 20.1421 8.08537 20.1421 7.44615V5.53895C21.6117 5.28827 22.5444 6.05805 22.5444 7.48166C22.5451 8.01702 22.5397 8.55289 22.5343 9.08885C22.5223 10.2772 22.5103 11.4659 22.5643 12.6507C22.6228 13.9542 21.6963 15.0259 20.1421 14.7679C20.1421 14.6491 20.143 14.5287 20.144 14.4072V14.407V14.4068V14.4067V14.4065V14.4064V14.4063V14.4061V14.406C20.1458 14.1595 20.1477 13.9085 20.1421 13.6576C20.1348 13.1469 19.9332 12.9265 19.411 12.9265C14.4672 12.9209 9.52335 12.9209 4.57952 12.9265C4.06564 12.9265 3.85988 13.1469 3.84839 13.6576C3.84424 13.8969 3.84558 14.1366 3.84697 14.3831ZM4.29438 5.53059H19.6993C19.6993 5.7213 19.7006 5.90977 19.702 6.09642V6.09652V6.09661V6.09671V6.0968C19.7055 6.5847 19.7089 7.06019 19.6878 7.53075C19.6826 7.64356 19.5123 7.78978 19.3839 7.85245C19.3045 7.89066 19.2018 7.88234 19.0996 7.87405C19.0565 7.87056 19.0135 7.86707 18.9723 7.86707H4.98477C4.83429 7.86707 4.68381 7.85598 4.52513 7.84428L4.52509 7.84428L4.52505 7.84427C4.45027 7.83876 4.37366 7.83311 4.29438 7.82843V5.53059ZM19.7243 14.7637H4.30587C4.18471 13.362 4.18471 13.362 5.52894 13.362H18.9379C19.7243 13.362 19.7243 13.362 19.7243 14.1569V14.7637ZM17.9456 16.2208C17.8588 16.1415 17.7639 16.0715 17.6625 16.0119C17.6317 16.0347 17.5972 16.0553 17.5668 16.0735L17.5668 16.0735C17.5179 16.1026 17.4793 16.1257 17.4819 16.1424C17.4905 16.2703 17.5315 16.394 17.6009 16.5017C18.2945 17.3237 18.9922 18.1416 19.7097 18.9427C19.7739 19.0147 19.8906 19.0404 20.0071 19.0662C20.0612 19.0781 20.1153 19.0901 20.1641 19.1066C20.1525 19.0598 20.1454 19.0091 20.1384 18.9585C20.1231 18.8489 20.1078 18.7394 20.0471 18.668C19.3577 17.8428 18.6517 17.0313 17.9456 16.2208ZM4.06356 19.2048C4.04085 19.1891 4.01439 19.1742 3.98932 19.1601C3.93945 19.132 3.89506 19.107 3.89645 19.0847L3.8983 19.0558C3.90582 18.9354 3.91448 18.7971 3.9821 18.715C4.31256 18.312 4.65484 17.9183 4.99693 17.5248L4.99695 17.5248L4.997 17.5248C5.09819 17.4084 5.19937 17.292 5.30022 17.1754C5.36854 17.0967 5.43641 17.0176 5.50428 16.9385C5.73003 16.6755 5.9557 16.4125 6.19742 16.1644C6.24514 16.1152 6.33803 16.1098 6.43105 16.1044C6.47444 16.1018 6.51785 16.0993 6.55672 16.0923C6.55335 16.1313 6.55497 16.1742 6.55659 16.217C6.55998 16.307 6.56336 16.3964 6.52016 16.4474C5.78172 17.3206 5.0297 18.1823 4.27768 19.044C4.21178 19.1045 4.14006 19.1584 4.06356 19.2048ZM10.1853 17.1273L10.1853 17.1271C10.2339 16.8945 10.2834 16.6575 10.3346 16.415L10.1862 16.156C10.1541 16.1829 10.1155 16.2083 10.0767 16.2337C9.99194 16.2895 9.90683 16.3454 9.88962 16.4171C9.68351 17.2778 9.49481 18.1415 9.32352 19.0085C9.30997 19.0747 9.36064 19.1537 9.41112 19.2323C9.4346 19.2689 9.45805 19.3054 9.47496 19.3406C9.5057 19.3157 9.54279 19.2923 9.57994 19.2689C9.66145 19.2174 9.74328 19.1657 9.75906 19.0983C9.90784 18.4564 10.0427 17.8105 10.1852 17.1276L10.1853 17.1274L10.1853 17.1273ZM13.7333 16.3931C13.7446 16.3761 13.758 16.3567 13.7726 16.3355C13.809 16.2827 13.8529 16.2191 13.891 16.1549C13.9222 16.1765 13.9584 16.1965 13.9944 16.2164C14.0789 16.2631 14.1622 16.3092 14.1761 16.3722C14.3781 17.2474 14.5622 18.1265 14.7286 19.0095C14.7415 19.0758 14.6925 19.1537 14.6436 19.2317L14.6436 19.2317C14.6208 19.268 14.598 19.3044 14.5814 19.3395C14.5532 19.3186 14.5187 19.2991 14.4841 19.2795C14.4098 19.2375 14.3352 19.1953 14.3223 19.139C14.1597 18.4266 14.0097 17.7108 13.8532 16.9641C13.8137 16.7759 13.7738 16.5857 13.7333 16.3931ZM4.08445 10.1179C3.94024 10.1179 3.82334 10.2348 3.82334 10.379C3.82334 10.5232 3.94024 10.6401 4.08445 10.6401H19.856C20.0002 10.6401 20.1171 10.5232 20.1171 10.379C20.1171 10.2348 20.0002 10.1179 19.856 10.1179H4.08445Z" fill="black"/>
</svg>
