<svg width="24" height="24" viewBox="0 0 24 24" fill="none" xmlns="http://www.w3.org/2000/svg">
<path fill-rule="evenodd" clip-rule="evenodd" d="M18.5894 13.8914H17.3338C17.4571 14.0018 17.5701 14.1233 17.6712 14.2543C17.7416 14.3805 17.8517 14.4799 17.9844 14.537C18.1171 14.5941 18.265 14.6058 18.405 14.5702C18.5011 14.5552 18.5994 14.5684 18.6882 14.6081C18.7769 14.6478 18.8523 14.7123 18.9053 14.7938C19.0503 14.9703 19.2067 15.1362 19.3633 15.3023C19.4313 15.3745 19.4993 15.4466 19.5665 15.5197L22.3053 18.5055C22.4957 18.7134 22.686 18.7801 22.8645 18.6232C23.043 18.4662 23.0254 18.2759 22.8115 18.0347L22.737 17.9523C22.5021 17.6979 22.2672 17.4438 22.0323 17.1897C21.1565 16.2423 20.2813 15.2955 19.4134 14.3426C19.3297 14.2334 19.2842 14.0996 19.2839 13.962C19.279 13.8533 19.281 13.7439 19.2829 13.6345C19.2855 13.4814 19.2882 13.3284 19.2722 13.1773C19.236 13.0354 19.1799 12.8993 19.1054 12.7732C19.0303 12.6447 18.9784 12.5039 18.9524 12.3573C18.9367 10.268 18.9367 8.17282 18.9367 6.07961C18.9315 5.9789 18.9477 5.87823 18.9842 5.78423C19.0207 5.69023 19.0767 5.60503 19.1486 5.53424C19.985 4.66184 20.814 3.78195 21.6434 2.90153C21.8528 2.6792 22.0623 2.45683 22.272 2.23454L22.2723 2.23421C22.4684 2.02441 22.6645 1.81461 22.8606 1.60089C22.8972 1.5707 22.9266 1.5328 22.9468 1.4899C22.9671 1.44699 22.9776 1.40015 22.9776 1.35272C22.9776 1.30529 22.9671 1.25845 22.9468 1.21555C22.9266 1.17264 22.8972 1.13474 22.8606 1.10456C22.8283 1.06982 22.7888 1.04251 22.745 1.02451C22.7011 1.00651 22.6538 0.998255 22.6064 1.00031C22.559 1.00236 22.5127 1.01467 22.4705 1.0364C22.4284 1.05812 22.3914 1.08874 22.3622 1.12614C22.3187 1.16828 22.2782 1.21242 22.2378 1.25643C22.2218 1.27388 22.2058 1.29131 22.1896 1.30858C21.9272 1.58693 21.6646 1.86499 21.402 2.14299C20.5024 3.09542 19.6034 4.04725 18.715 5.00848C18.6289 5.10928 18.5208 5.18895 18.399 5.24133C18.2772 5.29371 18.145 5.31741 18.0126 5.3106C13.9579 5.30667 9.90322 5.3106 5.84853 5.32237C5.74359 5.32816 5.63874 5.30935 5.54234 5.26746C5.44595 5.22557 5.36067 5.16174 5.2933 5.08107C4.43476 4.14318 3.56671 3.21242 2.6984 2.28139C2.45155 2.01671 2.20467 1.752 1.95799 1.4871C1.83447 1.34925 1.70347 1.21826 1.5656 1.09475C1.53761 1.0658 1.50408 1.04277 1.467 1.02705C1.42992 1.01132 1.39006 1.00322 1.34979 1.00322C1.30951 1.00322 1.26965 1.01132 1.23258 1.02705C1.1955 1.04277 1.16197 1.0658 1.13397 1.09475C1.09973 1.11998 1.07098 1.15191 1.04946 1.1886C1.02793 1.22528 1.01409 1.26596 1.00877 1.30815C1.00345 1.35035 1.00676 1.39319 1.0185 1.43407C1.03024 1.47495 1.05017 1.51301 1.07708 1.54596C1.13262 1.62092 1.19431 1.69113 1.2615 1.75587C2.45829 3.0441 3.65573 4.33036 4.85383 5.61467C4.91598 5.67584 4.96467 5.74931 4.99677 5.83039C5.02887 5.91147 5.04366 5.99836 5.04021 6.0855V12.2003C5.04021 12.2301 5.04086 12.2599 5.0415 12.2896C5.04601 12.4971 5.05043 12.7009 4.83421 12.8536C4.75205 12.9428 4.70712 13.06 4.70864 13.1812C4.70276 13.3215 4.7057 13.4618 4.70864 13.602C4.71158 13.7423 4.71453 13.8826 4.70864 14.0228C4.70836 14.1262 4.67463 14.2267 4.61251 14.3092C4.04873 14.9311 3.47963 15.5463 2.9096 16.1626C2.78731 16.2948 2.66498 16.427 2.54265 16.5594C2.42541 16.6864 2.30781 16.8131 2.1902 16.9398C1.83743 17.3197 1.48466 17.6997 1.14182 18.0896C1.10241 18.1425 1.07381 18.2026 1.05765 18.2666C1.04149 18.3305 1.03809 18.397 1.04765 18.4623C1.06826 18.5172 1.10312 18.5655 1.14864 18.6024C1.19416 18.6393 1.24869 18.6634 1.30662 18.6722C1.45566 18.6525 1.59381 18.5834 1.69901 18.476C2.81732 17.2853 3.92975 16.0827 5.02059 14.8585C5.10111 14.7529 5.20749 14.6698 5.32949 14.6172C5.45149 14.5646 5.58498 14.5444 5.71708 14.5584C5.85303 14.5789 5.99185 14.5511 6.10947 14.4799C6.31051 14.2957 6.49987 14.0991 6.67647 13.8914H5.40317V13.2538H18.5894V13.8914ZM17.9734 5.99133H18.248L18.25 12.4907C18.1656 12.5064 18.0832 12.5064 18.0008 12.5064C14.0769 12.526 10.153 12.5358 6.22915 12.5358C5.95296 12.5368 5.83212 12.5601 5.78041 12.5108C5.72818 12.4611 5.74651 12.3372 5.74651 12.0414C5.74455 11.4025 5.74324 10.7636 5.74193 10.1247C5.73932 8.84698 5.7367 7.56923 5.72885 6.29148C5.72689 6.07765 5.77594 6.0031 6.00549 6.0031C9.99086 5.99525 13.9802 5.99133 17.9734 5.99133ZM10.9788 14.3074C10.6651 14.4694 10.3948 14.7041 10.1904 14.992C10.1621 14.9522 10.1389 14.9275 10.1185 14.9058C10.1078 14.8944 10.0978 14.8838 10.0884 14.8723C9.231 13.6952 7.15918 13.7521 6.45092 15.2647C6.41844 15.315 6.37617 15.3583 6.32663 15.392C6.27708 15.4257 6.22127 15.4491 6.16251 15.4608C5.78694 15.5259 5.43759 15.6964 5.15519 15.9523C4.87278 16.2083 4.66895 16.5393 4.56745 16.9067C4.55028 16.9847 4.50971 17.0556 4.45116 17.1099C4.39262 17.1643 4.31888 17.1994 4.2398 17.2107C3.88202 17.2909 3.55345 17.4686 3.29058 17.7242C3.02771 17.9797 2.84083 18.3032 2.75068 18.6585C2.73607 18.7335 2.69988 18.8026 2.64656 18.8573C2.59323 18.912 2.5251 18.95 2.45051 18.9665C1.69319 19.2235 1.17132 19.7395 1.06537 20.5359C1.00612 21.1959 0.987124 21.8589 1.00848 22.5213C1.00259 22.8685 1.12815 22.9862 1.48327 22.9862H22.5232C22.8861 22.9862 22.9999 22.8685 22.9999 22.4938V20.9518C23.0034 20.5 22.8595 20.0593 22.5901 19.6965C22.3207 19.3337 21.9405 19.0685 21.5069 18.941C21.4547 18.9216 21.4072 18.8912 21.3676 18.852C21.328 18.8127 21.2973 18.7655 21.2774 18.7135C21.1883 18.3435 20.9968 18.006 20.7247 17.7399C20.4527 17.4737 20.1111 17.2897 19.7392 17.2088C19.6674 17.1994 19.6005 17.1673 19.5483 17.1172C19.496 17.067 19.4612 17.0015 19.4488 16.9302C19.3862 16.6731 19.2693 16.4324 19.1058 16.2242C18.9424 16.0161 18.7362 15.8454 18.5012 15.7237C18.3859 15.6631 18.2542 15.6303 18.1226 15.5976C17.9521 15.5552 17.7818 15.5128 17.6477 15.4098C17.5181 15.3102 17.43 15.1597 17.3413 15.0082C17.2676 14.8821 17.1934 14.7554 17.0945 14.6565C16.8814 14.4499 16.6279 14.2898 16.3498 14.1862C16.0717 14.0825 15.7752 14.0377 15.4789 14.0545C15.1826 14.0713 14.893 14.1493 14.6284 14.2836C14.3638 14.418 14.13 14.6057 13.9416 14.835C13.911 14.871 13.8786 14.9051 13.845 14.9405C13.8291 14.9572 13.8129 14.9743 13.7964 14.992C13.5921 14.7041 13.3218 14.4694 13.0081 14.3074C12.6944 14.1454 12.3465 14.0608 11.9934 14.0608C11.6404 14.0608 11.2924 14.1454 10.9788 14.3074ZM11.6579 20.9126V22.2858L8.84645 22.2839C8.84645 22.1029 8.83907 21.9216 8.83172 21.7409C8.81539 21.3397 8.79919 20.9416 8.86411 20.5575C8.98968 19.8434 9.66459 19.4805 10.4808 19.5766C10.8037 19.6232 11.0995 19.7832 11.3152 20.028C11.5309 20.2728 11.6524 20.5864 11.6579 20.9126ZM7.95377 22.3015H5.26786C5.26786 22.1412 5.26532 21.9835 5.26281 21.8281C5.25651 21.4382 5.25044 21.063 5.28552 20.6968C5.32868 20.0867 5.92119 19.5825 6.54901 19.5609C7.3436 19.5296 7.96946 19.9337 8.06952 20.6203C8.11697 21.1329 8.12877 21.6481 8.10484 22.1623C8.09354 22.1964 8.07375 22.2271 8.04732 22.2514C8.02089 22.2758 7.9887 22.293 7.95377 22.3015ZM15.1992 20.9342V22.2878H12.3897C12.3897 22.108 12.3825 21.9286 12.3754 21.7501C12.3595 21.3544 12.3438 20.9636 12.4074 20.585C12.531 19.8454 13.2432 19.457 14.0633 19.5708C14.3833 19.6269 14.6731 19.7947 14.8811 20.0444C15.0891 20.294 15.2018 20.6093 15.1992 20.9342ZM19.5469 22.2957C19.5218 22.2912 19.4978 22.2818 19.4763 22.2682C19.4763 22.097 19.4703 21.9257 19.4643 21.7551C19.4507 21.3644 19.4372 20.9774 19.4959 20.6046C19.6038 19.8925 20.2964 19.4962 21.1184 19.5766C21.4388 19.6227 21.7325 19.7805 21.9479 20.022C22.1633 20.2636 22.2864 20.5734 22.2956 20.8969C22.3172 21.2971 22.3113 21.7071 22.2956 22.0995C22.2917 22.1642 22.1838 22.2957 22.121 22.2957H19.5469ZM4.5534 21.7798C4.55162 21.9496 4.54979 22.1235 4.54979 22.3035L3.16466 22.2957C3.02717 22.2957 2.88991 22.2974 2.75279 22.2991C2.47899 22.3026 2.20577 22.3061 1.93255 22.2957C1.85604 22.2917 1.71674 22.1917 1.71674 22.1348C1.69381 21.6507 1.7043 21.1657 1.74813 20.6831C1.83249 19.9415 2.47013 19.5139 3.31769 19.5629C3.64155 19.5878 3.94526 19.7297 4.17203 19.9622C4.3988 20.1948 4.53309 20.5019 4.54979 20.8263C4.56013 21.1391 4.55685 21.4519 4.5534 21.7798ZM18.7425 20.9126V22.3035H17.789H16.1096C15.9879 22.3035 15.8859 22.3015 15.8859 22.1328C15.8906 21.9723 15.89 21.811 15.8895 21.6498C15.8885 21.3343 15.8875 21.0189 15.9252 20.7086C16.0213 19.9337 16.6629 19.5001 17.5398 19.5649C17.8721 19.5995 18.1795 19.7569 18.4019 20.0061C18.6243 20.2553 18.7458 20.5786 18.7425 20.9126ZM6.56863 18.0622C6.24877 17.6037 5.76346 17.2872 5.21489 17.1794C5.28244 16.8702 5.45586 16.5944 5.70519 16.3995C5.95452 16.2047 6.26409 16.103 6.58041 16.1122C7.27886 16.118 7.80858 16.5143 7.95377 17.1401C7.69736 17.2404 7.44881 17.3598 7.21019 17.4972C6.98269 17.6694 6.76825 17.8582 6.56863 18.0622ZM18.7735 17.1775C18.6414 16.5175 18.0748 16.1082 17.3515 16.1082C17.0432 16.1043 16.7434 16.2091 16.5048 16.4043C16.2662 16.5995 16.104 16.8725 16.0468 17.1754C16.3248 17.2308 16.5892 17.3404 16.8248 17.4979C17.0605 17.6554 17.2628 17.8578 17.4202 18.0935C17.7337 17.6226 18.2198 17.2936 18.7735 17.1775ZM10.2022 18.1112C9.88426 17.6326 9.39106 17.2979 8.8288 17.1794V17.1754C8.89598 16.861 9.07413 16.5814 9.33064 16.3875C9.58716 16.1937 9.90489 16.0988 10.2257 16.12C10.9359 16.1494 11.4774 16.5751 11.552 17.1794C10.9976 17.3018 10.5131 17.6363 10.2022 18.1112ZM13.8082 18.0975C13.4883 17.6234 12.9952 17.2937 12.4349 17.1794L12.4466 17.1754C12.5237 16.8712 12.7 16.6014 12.9477 16.4086C13.1953 16.2158 13.5002 16.1112 13.8141 16.1112C14.128 16.1112 14.4329 16.2158 14.6805 16.4086C14.9282 16.6014 15.1045 16.8712 15.1816 17.1754C14.6215 17.2929 14.129 17.6236 13.8082 18.0975ZM15.4504 17.8346C16.2273 17.7875 16.8159 18.1857 16.9709 18.8743C16.6862 18.9229 16.414 19.0273 16.1699 19.1815C15.9258 19.3357 15.7146 19.5367 15.5485 19.7728C15.2351 19.3351 14.7749 19.0246 14.2516 18.8979C14.3007 18.3545 14.8618 17.8699 15.4504 17.8346ZM4.74598 17.8326C5.51507 17.8012 6.11739 18.3839 6.14682 18.8135L4.84997 19.6983C4.67996 19.4741 4.46694 19.2861 4.22337 19.1453C3.9798 19.0045 3.71058 18.9137 3.43148 18.8783C3.52173 18.2897 4.09266 17.8562 4.74598 17.8326ZM9.77446 18.89C9.24524 19.0174 8.77942 19.3307 8.46191 19.7728C8.2957 19.5367 8.08448 19.3358 7.84037 19.1816C7.59627 19.0275 7.3241 18.923 7.0395 18.8743C7.10998 18.5673 7.28613 18.2947 7.53716 18.1043C7.78818 17.9139 8.09814 17.8177 8.41286 17.8326C8.7277 17.8217 9.0364 17.9215 9.2852 18.1147C9.53401 18.3079 9.70714 18.5823 9.77446 18.89ZM13.3786 18.8881C12.8261 19.0005 12.336 19.3163 12.0052 19.7728L11.9934 19.7689C11.6709 19.3153 11.1887 19.0007 10.6436 18.8881C10.7888 18.2289 11.3342 17.8365 12.0542 17.8365C12.3628 17.8307 12.6637 17.9325 12.9054 18.1243C13.147 18.3162 13.3143 18.5863 13.3786 18.8881ZM19.7686 19.1706C19.5454 19.3242 19.3348 19.4954 19.1388 19.6826L17.8655 18.8214C17.893 18.3878 18.4365 17.8934 19.0427 17.8405C19.7922 17.7738 20.4043 18.1681 20.5769 18.8331C20.2994 18.925 20.0292 19.0378 19.7686 19.1706ZM13.2589 15.4805C12.7391 15.6184 12.2885 15.9432 11.9934 16.3927C11.6962 15.9422 11.2425 15.6179 10.7201 15.4824C10.8501 15.2373 11.0501 15.0364 11.2947 14.9054C11.5393 14.7743 11.8174 14.7191 12.0935 14.7468C12.3359 14.7526 12.5721 14.8238 12.7773 14.953C12.9825 15.0822 13.1489 15.2644 13.2589 15.4805ZM9.0552 14.8895C9.31253 15.0204 9.52325 15.2275 9.6587 15.4824H9.66459C9.14258 15.6176 8.6882 15.9393 8.38736 16.3868C8.089 15.942 7.63934 15.6207 7.1219 15.4824C7.22504 15.275 7.38078 15.0983 7.57357 14.9699C7.76636 14.8415 7.98945 14.7659 8.22059 14.7507C8.50645 14.7101 8.79788 14.7586 9.0552 14.8895ZM15.6102 16.3843C15.9037 15.9381 16.3497 15.6139 16.8649 15.4726C16.7289 15.2196 16.5183 15.0146 16.2617 14.8854C16.0052 14.7562 15.715 14.7092 15.4307 14.7507C15.1987 14.7663 14.9749 14.8427 14.7817 14.9722C14.5885 15.1017 14.4328 15.2797 14.3301 15.4883C14.8521 15.6204 15.3075 15.9392 15.6102 16.3843Z" fill="black"/>
</svg>
