<svg width="24" height="24" viewBox="0 0 24 24" fill="none" xmlns="http://www.w3.org/2000/svg">
<path fill-rule="evenodd" clip-rule="evenodd" d="M12.6688 1.08955L12.6688 1.08955L12.6688 1.08956C13.2216 1.16499 13.7732 1.24026 14.3202 1.33828C14.4242 1.35849 14.5149 1.44514 14.6085 1.5346C14.6573 1.58123 14.7069 1.62863 14.7596 1.66777C14.7067 1.68947 14.6525 1.71871 14.5985 1.74785C14.4776 1.81312 14.3576 1.87794 14.2543 1.85668C12.8549 1.54847 11.407 1.53219 10.001 1.80885C8.59504 2.08551 7.26123 2.64917 6.08293 3.4646C6.00092 3.51732 5.87596 3.49975 5.75099 3.48218C5.68851 3.47339 5.62603 3.4646 5.56892 3.4646C5.59761 3.41295 5.62162 3.35427 5.64569 3.29545C5.69532 3.17416 5.74519 3.05226 5.83691 2.99013C7.66683 1.75047 9.81309 1.05995 12.0226 1C12.238 1.03078 12.4535 1.06018 12.6688 1.08955ZM22.4609 12.7652V13.4242L22.7113 13.512C22.7428 13.4433 22.7836 13.375 22.8244 13.3069C22.9086 13.1661 22.9924 13.0259 22.9924 12.8838C23.0191 12.0162 22.9751 11.1478 22.8606 10.2874C22.585 8.4809 21.8534 6.7745 20.7349 5.32935C19.6165 3.88421 18.1481 2.74802 16.4685 2.02812C16.268 1.98372 16.0614 1.9748 15.8578 2.00176C15.8993 2.05572 15.9374 2.1171 15.9755 2.17861C16.0584 2.31238 16.1416 2.44679 16.262 2.50698C20.5059 4.61573 22.5575 8.02927 22.4609 12.7652ZM1.98009 16.4187C1.99722 16.4842 2.01475 16.5513 2.01475 16.6092L2.31789 16.7849C2.37807 16.616 2.45612 16.454 2.55073 16.3017C3.02303 15.5908 3.25266 14.7463 3.20532 13.8942C3.21359 13.5536 3.20759 13.2082 3.20156 12.8618C3.18838 12.1044 3.17511 11.3419 3.31076 10.6124C3.95217 7.07147 6.05213 4.75624 9.43053 3.58324C9.61338 3.48576 9.77948 3.3597 9.92257 3.20982C9.86248 3.19676 9.79774 3.17632 9.73156 3.15542C9.57517 3.10605 9.41081 3.05416 9.28116 3.0912C7.44152 3.62124 5.81825 4.7229 4.6463 6.23676C3.23803 8.00382 2.51983 10.2224 2.62541 12.4795C2.62972 12.6346 2.63627 12.7903 2.64284 12.9463L2.64284 12.9463L2.64284 12.9463L2.64284 12.9463L2.64284 12.9464L2.64284 12.9464L2.64284 12.9464L2.64284 12.9464L2.64284 12.9464L2.64284 12.9465L2.64285 12.9465L2.64285 12.9465L2.64285 12.9465L2.64285 12.9465L2.64285 12.9466L2.64285 12.9466L2.64285 12.9466L2.64285 12.9466L2.64285 12.9466L2.64285 12.9467L2.64285 12.9467L2.64285 12.9467L2.64285 12.9467C2.68983 14.0631 2.73729 15.1909 1.96643 16.1699C1.9295 16.2252 1.95434 16.3202 1.98009 16.4187ZM17.3009 6.30108C15.8613 4.98328 13.9831 4.24789 12.0315 4.23786C10.747 4.24239 9.48314 4.56148 8.35046 5.16726C7.21778 5.77305 6.25074 6.64706 5.53387 7.71291C5.42673 7.85956 5.33819 8.01893 5.27028 8.18738C5.24392 8.27524 5.29663 8.48172 5.34496 8.48172C5.40392 8.49599 5.4652 8.49789 5.52493 8.4873C5.58466 8.47672 5.64156 8.45388 5.69203 8.42022C5.8129 8.28553 5.91894 8.13825 6.00834 7.9809C6.65118 7.01447 7.52023 6.2196 8.54002 5.6653C9.55981 5.11099 10.6995 4.81403 11.8601 4.8002C15.6866 4.69037 18.7004 7.42296 19.2979 11.4428C19.3159 11.5602 19.4022 11.6694 19.4886 11.7789C19.5282 11.8291 19.5679 11.8793 19.601 11.9304C19.6256 11.8681 19.6579 11.8053 19.6901 11.7427C19.7556 11.6154 19.8207 11.4888 19.8207 11.3681C19.6386 9.42492 18.7405 7.61888 17.3009 6.30108ZM15.0382 14.1548L15.0382 14.155C14.9117 15.1236 14.7853 16.0917 14.6365 17.0572C14.6221 17.161 14.5225 17.2516 14.4198 17.345C14.366 17.394 14.3113 17.4437 14.2675 17.4966C14.193 17.3278 14.1456 17.1485 14.1269 16.965C14.1687 16.3748 14.2217 15.7847 14.2747 15.1948L14.2747 15.1947C14.3664 14.1729 14.4581 13.1518 14.4916 12.1324C14.5102 11.8001 14.4591 11.4676 14.3418 11.1562C14.2244 10.8448 14.0433 10.5613 13.8101 10.3239C13.5768 10.0865 13.2966 9.90042 12.9872 9.77761C12.6779 9.65481 12.3463 9.59796 12.0138 9.61072C11.6816 9.60992 11.3528 9.67614 11.0468 9.80541C10.7409 9.93468 10.4642 10.1244 10.2332 10.3631C10.0023 10.6018 9.82193 10.8846 9.70288 11.1947C9.58383 11.5048 9.52856 11.8357 9.54038 12.1676C9.54038 12.5322 9.54038 12.9012 9.51842 13.2615C9.50389 13.3219 9.47401 13.3774 9.43167 13.4229C9.38934 13.4683 9.33599 13.502 9.27679 13.5207C9.21662 13.5095 9.16035 13.4831 9.11341 13.4438C9.06647 13.4046 9.03044 13.3539 9.0088 13.2966C8.73203 11.0737 9.63264 9.02642 12.2203 9.07914C12.9684 9.1099 13.677 9.42293 14.2036 9.95522C14.7302 10.4875 15.0356 11.1995 15.0583 11.9479V13.1824L15.1637 13.2C15.1215 13.5172 15.0801 13.8345 15.0386 14.1517L15.0386 14.1518L15.0386 14.152L15.0386 14.1521L15.0386 14.1523L15.0385 14.1524L15.0385 14.1526L15.0385 14.1528L15.0385 14.1529L15.0385 14.1531L15.0384 14.1532L15.0384 14.1534L15.0384 14.1535L15.0384 14.1537L15.0384 14.1539L15.0383 14.154L15.0383 14.1542L15.0383 14.1543L15.0383 14.1545L15.0383 14.1546L15.0382 14.1548ZM4.98017 20.7081C4.93417 20.5668 4.89001 20.4562 4.85436 20.3669C4.79468 20.2175 4.75883 20.1277 4.77808 20.0535C4.8009 19.9655 4.89383 19.8702 4.98333 19.7785L4.98335 19.7785C5.01449 19.7466 5.04522 19.7151 5.07243 19.6844C6.59806 18.0734 7.42274 15.9233 7.3657 13.7053C7.30529 12.8634 7.35402 12.0173 7.51067 11.1879C7.78246 10.4004 8.15299 9.65052 8.61338 8.95618C8.65327 8.88252 8.79823 8.86889 8.9419 8.85539L8.94191 8.85539L8.94192 8.85539L8.94193 8.85539L8.94194 8.85538L8.94194 8.85538L8.94195 8.85538L8.94196 8.85538L8.94197 8.85538L8.94198 8.85538L8.94199 8.85538L8.942 8.85537L8.942 8.85537L8.94201 8.85537L8.94202 8.85537L8.94203 8.85537L8.94204 8.85537L8.94205 8.85537L8.94206 8.85536L8.94206 8.85536C9.00399 8.84955 9.06569 8.84375 9.1186 8.83317C9.10578 8.88444 9.0985 8.94078 9.09123 8.99712V8.99713L9.09123 8.99714L9.09122 8.99716V8.99717C9.07606 9.1146 9.0609 9.23199 8.99559 9.30324C8.03347 10.3708 7.83138 11.6536 7.91046 13.0111C8.11303 15.4539 7.33892 17.8773 5.75778 19.7503C5.63018 19.9009 5.50704 20.0544 5.35734 20.2411L5.35731 20.2411C5.2493 20.3758 5.12747 20.5276 4.98017 20.7081ZM17.646 16.0513C17.6511 16.2614 17.6673 16.4711 17.6943 16.6795L17.9886 16.7191C18.0915 16.4912 18.1625 16.2502 18.1995 16.003C18.1995 15.4994 18.2068 14.9924 18.2141 14.4837C18.2287 13.4616 18.2435 12.4329 18.1995 11.412C18.1072 9.18468 16.3148 6.91777 14.1929 6.23242C13.9846 6.20151 13.7729 6.20151 13.5646 6.23242L13.5207 6.45648C13.717 6.57799 13.9194 6.68943 14.127 6.79037C16.3368 7.77006 17.5844 9.44388 17.6811 11.8733C17.7135 12.7274 17.6928 13.5848 17.672 14.4425V14.4425V14.4425V14.4425V14.4426V14.4426V14.4426V14.4426V14.4427V14.4427V14.4427V14.4427V14.4427V14.4428V14.4428V14.4428V14.4428V14.4429V14.4429C17.659 14.9792 17.646 15.5156 17.646 16.0513ZM5.78429 12.0183C5.82822 8.72334 8.52127 5.89409 11.6756 5.86773C11.8873 5.91308 12.0886 5.99805 12.2687 6.11815C12.1054 6.24158 11.9207 6.33391 11.7239 6.39053C8.42901 6.71124 6.27194 9.12751 6.36859 12.4224C6.36859 12.5243 6.37906 12.6269 6.3895 12.7293L6.38951 12.7294C6.40249 12.8567 6.41543 12.9836 6.40813 13.1078C6.37507 13.2501 6.32024 13.3864 6.24558 13.512C6.20787 13.477 6.16173 13.4435 6.11549 13.4098C6.01624 13.3376 5.91649 13.265 5.89851 13.1781C5.84046 12.7937 5.80233 12.4066 5.78429 12.0183ZM3.96543 4.58923C2.02802 6.71116 1.07908 9.19773 1 12.2554C1.01105 12.3635 1.02244 12.4876 1.03494 12.6239L1.03494 12.6239C1.06718 12.9752 1.1068 13.407 1.16694 13.8502C1.18184 13.9485 1.2654 14.0346 1.34916 14.121C1.38893 14.162 1.42875 14.2031 1.46129 14.2456C1.55202 14.1072 1.62856 13.96 1.68974 13.8062C1.71346 13.6947 1.71346 13.5795 1.68974 13.468C1.48504 12.0711 1.57263 10.647 1.94697 9.28577C2.32131 7.92455 2.97423 6.65589 3.86439 5.56014C3.97508 5.41812 4.09768 5.28206 4.22087 5.14535C4.35682 4.99448 4.49348 4.84282 4.61563 4.68149C4.64447 4.62899 4.65959 4.57006 4.65959 4.51015C4.65959 4.45025 4.64447 4.39132 4.61563 4.33882C4.5632 4.30722 4.50408 4.28837 4.44304 4.28379C4.38199 4.27921 4.32073 4.28903 4.26417 4.31246C4.14646 4.38298 4.04472 4.47724 3.96543 4.58923ZM12.005 10.6035C12.3623 10.6084 12.7061 10.7408 12.9744 10.9768C13.2426 11.2128 13.4177 11.537 13.468 11.8908C13.468 11.9842 13.4077 12.0816 13.3467 12.1803C13.316 12.23 13.285 12.28 13.2615 12.3301C13.2305 12.3018 13.1937 12.2747 13.1567 12.2475C13.0731 12.186 12.9884 12.1237 12.9671 12.0445C12.8134 11.4602 12.4971 11.0824 11.8556 11.1966C11.2142 11.3109 11.078 11.8249 11.1044 12.3872C11.1659 14.1711 10.9299 15.9528 10.4059 17.6591C10.3823 17.794 10.3378 17.9244 10.2741 18.0457C10.1684 18.1359 10.05 18.2099 9.92262 18.2653C9.90788 18.2252 9.88702 18.1829 9.86614 18.1407C9.81853 18.0443 9.77078 17.9476 9.79521 17.8743C10.3568 15.9909 10.6221 14.0315 10.5816 12.0665C10.5803 11.6849 10.7287 11.318 10.9948 11.0445C11.2609 10.7711 11.6235 10.6127 12.005 10.6035ZM10.5026 22.6058C12.1356 19.9407 13.1281 16.933 13.4021 13.8194L13.1605 13.4416C13.0368 13.5986 12.9376 13.7733 12.8661 13.96C12.8142 14.2244 12.78 14.4926 12.7459 14.7605C12.7165 14.9912 12.6871 15.2216 12.6465 15.4493C12.2291 17.861 11.3713 20.1752 10.116 22.2763C10.0447 22.4052 10.0521 22.576 10.0591 22.7402C10.0612 22.7886 10.0632 22.8365 10.0632 22.8826C10.1089 22.8532 10.1638 22.8277 10.2199 22.8017C10.3313 22.7501 10.4471 22.6964 10.5026 22.6058ZM14.966 22.0875C15.9518 19.6762 16.5608 17.1276 16.7716 14.5311L16.4202 13.8414C16.3069 14.074 16.2157 14.3167 16.1478 14.5663C16.0272 15.2172 15.9216 15.8708 15.8159 16.5242C15.652 17.5378 15.4882 18.5509 15.2691 19.5526C15.0059 20.4715 14.6875 21.3738 14.3158 22.2544C14.2976 22.4178 14.3095 22.5831 14.351 22.7421C14.5059 22.6606 14.6529 22.565 14.7903 22.4565C14.8677 22.3434 14.927 22.2189 14.966 22.0875ZM4.11472 13.3714C4.14011 13.0971 4.16383 12.8227 4.18753 12.5485C4.24998 11.8261 4.31233 11.105 4.40468 10.3884C4.40468 10.2645 4.52949 10.153 4.65315 10.0426C4.7092 9.99254 4.76501 9.9427 4.80885 9.892C4.86729 10.0848 4.90268 10.2839 4.91429 10.4851C4.89168 11.1296 4.86421 11.7734 4.83675 12.417L4.83674 12.4171L4.83674 12.4171C4.80019 13.2738 4.76365 14.1302 4.73856 14.9882C4.73706 15.5147 4.6075 16.033 4.36105 16.4984C4.11461 16.9637 3.75867 17.3621 3.32394 17.6592C3.21868 17.7374 3.05167 17.7394 2.89053 17.7414C2.81628 17.7423 2.74327 17.7432 2.67814 17.7515C2.76396 17.5692 2.87813 17.4016 3.01642 17.2551C3.39753 16.9796 3.70424 16.6139 3.90898 16.1906C4.11372 15.7673 4.21009 15.2997 4.18941 14.83V13.3934L4.11472 13.3714ZM21.4418 14.4528C21.4914 14.1304 21.5411 13.808 21.5911 13.4856L21.3714 13.4636C21.3714 13.2046 21.3744 12.9455 21.3773 12.6865L21.3773 12.686C21.3832 12.1676 21.389 11.6492 21.3714 11.1308C21.3654 11.0227 21.2855 10.9166 21.206 10.8111C21.1693 10.7624 21.1326 10.7137 21.1034 10.6651C21.0112 10.8408 20.9233 11.0122 20.8399 11.1923C20.8225 11.2155 20.828 11.2463 20.8338 11.2785C20.8368 11.2951 20.8399 11.312 20.8399 11.3285C21.0305 13.6573 20.8511 16.0015 20.3083 18.2742C20.2998 18.4986 20.3356 18.7226 20.4137 18.9332C20.4562 18.8798 20.5076 18.8277 20.5591 18.7754L20.5592 18.7754L20.5592 18.7753C20.6731 18.6598 20.7879 18.5434 20.8091 18.4104C21.0349 17.0945 21.238 15.7758 21.4412 14.4566L21.4418 14.4528ZM18.2565 20.954C18.2256 20.731 18.2256 20.5048 18.2565 20.2819C18.9406 18.12 19.2946 15.8673 19.3065 13.5998C19.3065 13.4756 19.3762 13.3514 19.4458 13.2272C19.4797 13.1669 19.5135 13.1065 19.5394 13.0462C19.5708 13.1064 19.6104 13.1666 19.65 13.2268C19.7374 13.3599 19.8249 13.493 19.8249 13.6261C19.8502 15.9388 19.4924 18.2398 18.7662 20.4356C18.6849 20.6305 18.591 20.8198 18.485 21.0023L18.2565 20.954ZM6.68476 21.2307C8.07377 19.3816 8.98792 17.2199 9.34706 14.9352L9.09664 14.6233C9.06119 14.663 9.01796 14.7013 8.97478 14.7396C8.88417 14.82 8.79379 14.9001 8.77594 14.9923C8.41112 17.1362 7.55724 19.1671 6.28058 20.9276C6.22204 21.0089 6.23091 21.1408 6.23947 21.2679C6.24247 21.3126 6.24543 21.3566 6.24543 21.3977C6.29112 21.3805 6.34516 21.368 6.40001 21.3554L6.40004 21.3554L6.40007 21.3554C6.51399 21.329 6.63139 21.3019 6.68476 21.2307ZM20.6509 9.60202C20.5529 9.43832 20.4635 9.26969 20.3829 9.09679C19.822 7.56354 18.8601 6.20877 17.5976 5.17364C17.492 5.08915 17.4423 4.93626 17.3931 4.78474C17.3707 4.71566 17.3483 4.64685 17.3208 4.58495C17.5462 4.61426 17.7647 4.68264 17.9666 4.78703C19.2801 5.83588 20.2738 7.23137 20.8354 8.81563C20.8939 9.04867 20.9278 9.28721 20.9364 9.52733L20.6509 9.60202ZM13.3398 2.76772C13.0339 2.68265 12.728 2.59757 12.4224 2.51125L12.3696 2.70015C12.1197 2.67813 11.8683 2.67813 11.6184 2.70015C11.423 2.755 11.2355 2.83473 11.0605 2.93739C11.1185 2.96844 11.177 3.00736 11.2356 3.0464C11.3677 3.1344 11.5007 3.22295 11.6316 3.22295C13.0296 3.1701 14.4216 3.43287 15.7041 3.99176C15.9042 4.03142 16.1102 4.03142 16.3104 3.99176C16.2566 3.93337 16.2082 3.86262 16.1604 3.79285L16.1604 3.79284C16.0717 3.66315 15.9853 3.53686 15.871 3.49972C15.0321 3.23836 14.186 3.00306 13.3398 2.76772ZM6.12685 14.5708C6.20671 14.7424 6.25578 14.9268 6.27183 15.1155C6.13989 16.6739 5.39778 18.117 4.20701 19.1309C4.124 19.2016 3.9915 19.2121 3.85921 19.2226H3.85918C3.80244 19.227 3.74574 19.2315 3.693 19.2408C3.70531 19.1929 3.71294 19.1395 3.72052 19.0863C3.73729 18.9689 3.75385 18.8529 3.8204 18.8014C4.91108 17.8396 5.60223 16.5043 5.75782 15.0584C5.80121 14.8938 5.86311 14.7346 5.94233 14.5839L6.12685 14.5708ZM10.7284 7.56008C10.3954 7.67109 10.0915 7.85542 9.83923 8.09949L9.88317 8.31915C10.0817 8.3329 10.2813 8.3196 10.4763 8.27961C11.0725 8.03845 11.7166 7.93912 12.3578 7.98944C12.9989 8.03975 13.6197 8.23835 14.171 8.56956C14.273 8.62695 14.4143 8.61724 14.5547 8.6076L14.5548 8.6076C14.6078 8.60395 14.6607 8.60032 14.7113 8.60032C14.6796 8.54644 14.6508 8.48126 14.622 8.41586C14.5591 8.27328 14.4958 8.1296 14.3994 8.09949C13.5453 7.79528 12.6619 7.58033 11.7635 7.45808C11.4152 7.41421 11.0615 7.44907 10.7284 7.56008ZM14.228 18.8585C14.1684 19.0935 14.0966 19.3252 14.0127 19.5526C13.8775 19.8758 13.7444 20.1989 13.6114 20.5217L13.6113 20.5219L13.6113 20.5221L13.6112 20.5223C13.3122 21.2481 13.014 21.9719 12.6948 22.6894C12.6475 22.7928 12.5207 22.8605 12.3932 22.9285L12.3932 22.9285C12.3312 22.9615 12.2691 22.9947 12.2159 23.0321C12.1832 22.8519 12.1832 22.6674 12.2159 22.4873C12.6816 21.2836 13.1736 20.0886 13.6745 18.898C13.7133 18.8054 13.805 18.7392 13.8984 18.6718C13.9423 18.64 13.9866 18.6081 14.0259 18.5729L14.228 18.8585ZM17.3569 19.9507C17.549 19.3791 17.7437 18.7997 17.9534 18.2083L17.6459 17.8041C17.6078 17.8479 17.5633 17.8898 17.5188 17.9318L17.5188 17.9318C17.4247 18.0206 17.3302 18.1097 17.2944 18.2171C16.9298 19.3417 16.5871 20.4708 16.2532 21.6043C16.2339 21.7627 16.2429 21.9234 16.2796 22.0787C16.3265 22.0519 16.3813 22.0279 16.4361 22.0039L16.4361 22.0039L16.4361 22.0039C16.5606 21.9494 16.6853 21.8948 16.7189 21.8063C16.9393 21.1933 17.1465 20.5766 17.3569 19.9507ZM16.3763 12.8616C16.2845 12.7217 16.2037 12.5748 16.1347 12.4223C16.0973 12.279 16.0597 12.1356 16.0221 11.9923L16.0221 11.9922C15.8428 11.3094 15.6634 10.6256 15.5109 9.93573C15.503 9.77577 15.5208 9.61558 15.5636 9.46126C15.6072 9.4816 15.6575 9.49762 15.7077 9.5136C15.8093 9.54595 15.9105 9.57815 15.9546 9.64578C16.4783 10.4568 16.7263 11.4151 16.6619 12.3784C16.6541 12.4512 16.6 12.5272 16.5307 12.6245C16.4831 12.6915 16.4283 12.7685 16.3763 12.8616ZM7.86077 22.1512C7.88077 22.2117 7.90173 22.2751 7.9149 22.338C7.98477 22.3039 8.04075 22.281 8.08491 22.263C8.15459 22.2346 8.19481 22.2182 8.21364 22.1886C8.2828 22.0676 8.35215 21.9465 8.42152 21.8255C8.82806 21.1159 9.2354 20.405 9.61068 19.6845C9.63704 19.6317 9.49646 19.3945 9.41299 19.3945C9.34983 19.3994 9.28869 19.419 9.23451 19.4518C9.18033 19.4846 9.13462 19.5297 9.10107 19.5834C8.66175 20.3303 8.22682 21.0815 7.82264 21.8503C7.78454 21.9207 7.82072 22.0301 7.86077 22.1512Z" fill="black"/>
</svg>
