<svg width="24" height="24" viewBox="0 0 24 24" fill="none" xmlns="http://www.w3.org/2000/svg">
<path fill-rule="evenodd" clip-rule="evenodd" d="M22.1627 16.2186C22.7169 14.8815 23.0014 13.4482 22.9999 12.0008C23.0298 5.98694 18.1267 1.05889 12.1065 1.0003C10.6547 0.989621 9.215 1.26581 7.87016 1.813C6.52532 2.36019 5.3018 3.16762 4.26984 4.18893C3.23787 5.21024 2.41779 6.42531 1.85667 7.7644C1.29554 9.10348 1.00443 10.5402 1.00003 11.9921C0.985074 18.0259 5.88321 22.9652 11.9707 22.9989C13.418 23.0045 14.8521 22.724 16.1907 22.1737C17.5294 21.6234 18.746 20.8139 19.7709 19.792C20.7958 18.77 21.6086 17.5556 22.1627 16.2186ZM12.114 1.75453C17.6928 1.80689 22.2593 6.40831 22.2419 12.0183C22.2388 14.7345 21.1567 17.3381 19.2339 19.2565C17.3111 21.1749 14.7049 22.2509 11.9887 22.2478C9.27256 22.2446 6.66889 21.1626 4.75049 19.2398C2.83209 17.3169 1.75611 14.7108 1.75925 11.9946C1.758 6.34349 6.42301 1.70217 12.114 1.75453ZM11.7936 10.622C11.8108 10.871 11.8137 11.1207 11.8023 11.37L11.8173 11.3725C11.7962 11.6126 11.776 11.8529 11.7559 12.0932L11.7558 12.0939L11.7558 12.0939C11.6995 12.7642 11.6432 13.4348 11.568 14.1027C11.4708 14.9766 11.3597 15.8512 11.249 16.7225L11.249 16.7226L11.249 16.7226C11.2006 17.1029 11.1524 17.4826 11.1054 17.8614C11.0782 18.0215 11.0959 18.186 11.1564 18.3367C11.2169 18.4875 11.3179 18.6185 11.4483 18.7154C11.7387 18.9422 12.0766 18.9248 12.4119 18.8824C12.5278 18.8672 12.6394 18.8289 12.7401 18.7698C12.8409 18.7107 12.9287 18.6319 12.9985 18.5382C13.0683 18.4445 13.1185 18.3378 13.1462 18.2243C13.174 18.1108 13.1786 17.9929 13.1599 17.8776L13.1599 17.8775C13.0864 17.3439 13.0128 16.8104 12.9493 16.2744C12.9249 16.0678 12.9 15.8612 12.8751 15.6546C12.7829 14.8886 12.6906 14.1222 12.6239 13.3535C12.5728 12.7502 12.5436 12.1453 12.5145 11.5405V11.5405L12.5145 11.5404L12.5145 11.5402C12.5003 11.2453 12.486 10.9503 12.4693 10.6557C12.4613 10.5659 12.483 10.476 12.5309 10.3997C12.5789 10.3234 12.6505 10.2648 12.7348 10.2331C12.9262 10.132 13.1018 10.0035 13.2559 9.85159C13.6903 9.39559 13.9529 8.80294 13.9989 8.17483C14.0899 7.29469 13.9403 6.46691 13.3756 5.75506C12.6825 4.8824 11.563 4.88988 10.8823 5.77501C10.2577 6.58659 10.1343 7.5141 10.33 8.48899C10.4834 9.26816 10.8574 9.91268 11.6054 10.2867C11.6584 10.3264 11.7025 10.3767 11.7349 10.4344C11.7674 10.4922 11.7873 10.5561 11.7936 10.622ZM6.70726 6.98428V8.64484L6.70721 8.66155C6.70678 8.76436 6.70632 8.87448 6.84938 8.87921C7.00022 8.88419 7.01643 8.75454 7.01643 8.64359V5.30503C7.01643 5.13174 7.1037 5.0557 7.23584 5.11928C7.26547 5.14429 7.28938 5.17538 7.30594 5.21044C7.3225 5.2455 7.33133 5.28371 7.33184 5.32248C7.33682 5.68655 7.33516 6.05117 7.3335 6.4156V6.41562C7.33267 6.59777 7.33184 6.77988 7.33184 6.96184V8.54261C7.33184 8.5695 7.32801 8.59987 7.32408 8.63104C7.3098 8.74434 7.2942 8.86809 7.4565 8.87297C7.65218 8.87807 7.63957 8.73403 7.62845 8.60704C7.62596 8.5787 7.62355 8.5512 7.62355 8.5264V5.30628C7.62355 5.1305 7.73575 5.03949 7.86167 5.12426C7.88933 5.15273 7.9109 5.18653 7.92505 5.22362C7.93919 5.2607 7.94563 5.30028 7.94395 5.33994V8.45659V8.61367C7.94395 8.62907 7.94326 8.64523 7.94257 8.66163V8.66164C7.93823 8.76468 7.93348 8.87728 8.09479 8.87297C8.24298 8.87297 8.2401 8.76016 8.23755 8.66072C8.23723 8.64806 8.23691 8.63561 8.23691 8.62364V6.46941V5.32373C8.23691 5.18784 8.26185 5.09684 8.43014 5.09559C8.59844 5.09434 8.64582 5.16166 8.65828 5.3175C8.78046 6.58535 8.89141 7.85695 8.97868 9.11607C8.97824 9.27766 8.92086 9.43393 8.81661 9.55739C8.65453 9.75116 8.47404 9.92652 8.29185 10.1035L8.29184 10.1035C8.22319 10.1702 8.1543 10.2372 8.08607 10.3054C7.99326 10.39 7.92082 10.4945 7.87419 10.6111C7.82755 10.7277 7.80793 10.8533 7.81679 10.9786C7.83197 11.1943 7.84675 11.4101 7.86153 11.626C7.91596 12.4206 7.97042 13.2158 8.04493 14.008C8.10996 14.6954 8.19507 15.3815 8.28013 16.0673L8.28013 16.0673L8.28017 16.0676C8.30924 16.3019 8.33831 16.5363 8.36656 16.7706C8.4077 17.1159 8.45258 17.4625 8.50868 17.8053C8.60218 18.38 8.25935 18.8488 7.67591 18.8936C7.35303 18.9186 7.02765 18.9236 6.76087 18.6842C6.64822 18.5917 6.56121 18.4718 6.50817 18.336C6.45512 18.2003 6.43783 18.0531 6.45793 17.9088C6.50489 17.518 6.55717 17.1276 6.60949 16.7368C6.69604 16.0905 6.7827 15.4432 6.84564 14.7921C6.93374 13.8943 6.99943 12.9953 7.06515 12.0959C7.09242 11.7227 7.11969 11.3494 7.14858 10.9761C7.15755 10.8453 7.1361 10.7142 7.08592 10.5931C7.03574 10.4719 6.95819 10.3641 6.85935 10.278C6.72555 10.1514 6.59599 10.0202 6.46646 9.88907L6.46642 9.88903L6.4664 9.88901C6.37389 9.79533 6.2814 9.70168 6.1874 9.60975C6.11578 9.54606 6.06025 9.46631 6.02537 9.37704C5.99048 9.28777 5.97723 9.19151 5.98669 9.09613C6.06232 8.1711 6.13712 7.2465 6.21109 6.32231C6.21991 6.21528 6.22968 6.10826 6.23944 6.00124C6.26142 5.76044 6.28339 5.51965 6.29461 5.27885C6.30306 5.10381 6.40503 5.10294 6.52354 5.10193L6.53522 5.10182C6.67859 5.10182 6.70477 5.18161 6.70352 5.30628L6.70503 5.85992L6.70503 5.8607C6.70614 6.23497 6.70726 6.61074 6.70726 6.98428ZM17.3035 5.19164C17.3015 5.16684 17.2995 5.1412 17.2977 5.11429C17.2399 5.11835 17.1825 5.12584 17.1256 5.13673C16.754 5.24471 16.424 5.46295 16.1791 5.76257C15.9343 6.06219 15.7861 6.42909 15.7543 6.81473C15.7365 7.14006 15.7231 7.46538 15.7097 7.79145C15.7071 7.85397 15.7045 7.91653 15.7019 7.97911C15.6546 9.15596 15.6055 10.3328 15.5548 11.5097C15.547 11.5782 15.5622 11.6474 15.5981 11.7063C15.634 11.7653 15.6885 11.8105 15.753 11.835C15.8548 11.8856 15.9555 11.9391 16.0563 11.9925C16.1765 12.0563 16.2967 12.1201 16.4188 12.1791C16.4771 12.202 16.5254 12.245 16.5549 12.3003C16.5843 12.3556 16.5931 12.4196 16.5796 12.4808C16.5679 12.5816 16.5582 12.6826 16.5484 12.7836C16.5373 12.8989 16.5262 13.0141 16.5123 13.1291C16.3327 14.6824 16.1486 16.2357 15.96 17.7891C15.8964 18.3065 16.1308 18.7179 16.5995 18.8425C16.767 18.8752 16.9379 18.8861 17.1082 18.8749C17.6741 18.8699 18.0432 18.4797 18.0107 17.9125C18.0028 17.7705 17.982 17.629 17.9613 17.4874C17.9496 17.4077 17.9379 17.3279 17.9285 17.248C17.8892 16.9245 17.8485 16.6012 17.8078 16.2779C17.7063 15.4725 17.605 14.6673 17.5258 13.8596C17.4286 12.8585 17.3388 11.8537 17.3213 10.8489C17.2985 9.56578 17.3035 8.28017 17.3084 6.99383C17.3105 6.45051 17.3126 5.90706 17.3126 5.36362C17.3126 5.30711 17.3082 5.25185 17.3035 5.19164Z" fill="black"/>
</svg>
