<svg width="18" height="18" viewBox="0 0 18 18" fill="none" xmlns="http://www.w3.org/2000/svg">
<path fill-rule="evenodd" clip-rule="evenodd" d="M11.0901 4.39217V6.49336H4.67985V4.39217C4.67985 3.54213 5.01753 2.7269 5.61861 2.12583C6.21968 1.52475 7.03491 1.18707 7.88495 1.18707C8.735 1.18707 9.55023 1.52475 10.1513 2.12583C10.7524 2.7269 11.0901 3.54213 11.0901 4.39217ZM3.49278 4.39217V6.49336H2.5432C2.13596 6.49335 1.74523 6.6543 1.45617 6.94115C1.1671 7.22799 1.00313 7.61746 1 8.02468V15.9425C0.999945 16.1482 1.04101 16.3518 1.12078 16.5414C1.20055 16.731 1.31742 16.9027 1.46451 17.0465C1.6116 17.1902 1.78595 17.3032 1.97731 17.3786C2.16867 17.454 2.37318 17.4904 2.57881 17.4857H9.20268C9.3601 17.4857 9.51107 17.4231 9.62238 17.3118C9.73369 17.2005 9.79622 17.0495 9.79622 16.8921C9.79622 16.7347 9.73369 16.5837 9.62238 16.4724C9.51107 16.3611 9.3601 16.2986 9.20268 16.2986H2.5432C2.49598 16.3003 2.44893 16.2922 2.40498 16.2749C2.36102 16.2576 2.3211 16.2314 2.28769 16.198C2.25429 16.1646 2.22811 16.1246 2.2108 16.0807C2.19349 16.0367 2.18542 15.9897 2.18707 15.9425V8.02468C2.18705 7.97846 2.19633 7.9327 2.21437 7.89014C2.2324 7.84758 2.25883 7.80909 2.29206 7.77697C2.3253 7.74484 2.36466 7.71974 2.40781 7.70315C2.45096 7.68657 2.497 7.67884 2.5432 7.68043H13.2269C13.3182 7.68043 13.4057 7.7167 13.4703 7.78126C13.5348 7.84582 13.5711 7.93338 13.5711 8.02468V9.8053C13.5742 9.96176 13.6377 10.111 13.7483 10.2216C13.859 10.3323 14.0082 10.3958 14.1647 10.3988C14.3221 10.3988 14.473 10.3363 14.5843 10.225C14.6957 10.1137 14.7582 9.96271 14.7582 9.8053V8.02468C14.7582 7.61855 14.5969 7.22905 14.3097 6.94187C14.0225 6.65469 13.633 6.49336 13.2269 6.49336H12.2771V4.39217C12.2771 3.2273 11.8144 2.11013 10.9907 1.28644C10.167 0.462746 9.04983 0 7.88495 0C6.72008 0 5.60291 0.462746 4.77922 1.28644C3.95552 2.11013 3.49278 3.2273 3.49278 4.39217ZM6.81392 12.4194C6.52674 12.1322 6.36541 11.7427 6.36541 11.3366C6.36541 10.9304 6.52674 10.5409 6.81392 10.2538C7.1011 9.96658 7.4906 9.80525 7.89673 9.80525C8.30287 9.80525 8.69236 9.96658 8.97954 10.2538C9.26672 10.5409 9.42806 10.9304 9.42806 11.3366C9.42806 11.7427 9.26672 12.1322 8.97954 12.4194C8.83792 12.561 8.67142 12.672 8.49032 12.7482V14.1025C8.49032 14.2599 8.42778 14.4109 8.31647 14.5222C8.20516 14.6335 8.05419 14.696 7.89678 14.696C7.73936 14.696 7.58839 14.6335 7.47708 14.5222C7.36577 14.4109 7.30324 14.2599 7.30324 14.1025V12.7482C7.1221 12.6721 6.95556 12.561 6.81392 12.4194ZM12.9919 11.8318C12.7463 11.8948 12.511 11.9924 12.2929 12.1216L11.7221 11.6806C11.6131 11.5963 11.4584 11.6062 11.3609 11.7037L10.927 12.1376C10.8296 12.235 10.8197 12.3897 10.9039 12.4988L11.345 13.0695C11.2157 13.2876 11.1182 13.523 11.0552 13.7686L10.34 13.8602C10.2033 13.8778 10.1009 13.9941 10.1009 14.132V14.7456C10.1009 14.8834 10.2033 14.9998 10.34 15.0173L11.0552 15.109C11.1182 15.3546 11.2157 15.5899 11.345 15.808L10.904 16.3788C10.8197 16.4879 10.8296 16.6425 10.927 16.74L11.3609 17.1739C11.4584 17.2714 11.6131 17.2812 11.7221 17.197L12.2929 16.7559C12.511 16.8852 12.7463 16.9827 12.9919 17.0457L13.0836 17.7609C13.1011 17.8976 13.2175 18 13.3553 18H13.9689C14.1068 18 14.2231 17.8976 14.2407 17.7609L14.3324 17.0457C14.5779 16.9827 14.8133 16.8852 15.0314 16.7559L15.6021 17.197C15.7112 17.2812 15.8659 17.2714 15.9633 17.1739L16.3972 16.74C16.4947 16.6425 16.5046 16.4879 16.4203 16.3788L15.9793 15.808C16.1085 15.5899 16.2061 15.3546 16.2691 15.109L16.9842 15.0173C17.1209 14.9998 17.2233 14.8834 17.2233 14.7456V14.132C17.2233 13.9941 17.1209 13.8778 16.9842 13.8602L16.2691 13.7685C16.2061 13.523 16.1085 13.2876 15.9793 13.0695L16.4203 12.4988C16.5046 12.3897 16.4947 12.235 16.3972 12.1376L15.9633 11.7037C15.8659 11.6062 15.7112 11.5963 15.6021 11.6806L15.0314 12.1216C14.8133 11.9924 14.5779 11.8948 14.3323 11.8318L14.2407 11.1167C14.2231 10.98 14.1068 10.8776 13.9689 10.8776H13.3553C13.2175 10.8776 13.1011 10.98 13.0836 11.1167L12.9919 11.8318ZM14.9513 14.4388C14.9513 15.1507 14.3741 15.7279 13.6621 15.7279C12.9502 15.7279 12.373 15.1507 12.373 14.4388C12.373 13.7268 12.9502 13.1496 13.6621 13.1496C14.3741 13.1496 14.9513 13.7268 14.9513 14.4388Z" fill="white"/>
</svg>
