<svg width="24" height="24" viewBox="0 0 24 24" fill="none" xmlns="http://www.w3.org/2000/svg">
<path fill-rule="evenodd" clip-rule="evenodd" d="M12.0127 4H21.9395C22.767 4 22.999 4.22285 23 5.04333V16.5908C23 17.3921 22.7832 17.6038 21.9668 17.6038H2.01294C1.22892 17.6038 1 17.3931 1 16.6212V4.96837C1.00506 4.24412 1.26235 4 1.98458 4H12.0127ZM1.78807 4.75464V16.837H22.2109V4.75464H1.78807ZM17.12 20.1806H6.88018C6.88828 19.6741 7.17292 19.4867 7.61861 19.4827C8.11341 19.4786 8.60776 19.48 9.10287 19.4813C9.3507 19.482 9.59872 19.4827 9.84708 19.4827H10.4548V17.9237H13.5159V19.4786H15.1549C15.2508 19.4786 15.3467 19.4783 15.4427 19.4779H15.4427C15.7854 19.4767 16.1282 19.4755 16.4717 19.4897C16.8829 19.507 17.1129 19.7247 17.12 20.1806ZM19.7315 20.2071H22.8797C23.0378 19.1851 22.3115 18.4466 21.2114 18.4203C20.3393 18.4 19.5441 18.9511 19.4277 19.6784C19.4252 19.6919 19.4227 19.7056 19.4201 19.7195C19.3784 19.9447 19.3298 20.2071 19.7315 20.2071Z" fill="black"/>
</svg>
