<svg width="18" height="18" viewBox="0 0 18 18" fill="none" xmlns="http://www.w3.org/2000/svg">
<g clip-path="url(#clip0_5670_33533)">
<rect width="18" height="18" fill="white" fill-opacity="0.01"/>
<path d="M7.00446 9.94354H2.16406C1.58398 9.94354 1.10938 10.4182 1.10938 10.9982V15.81C1.10938 16.3901 1.58398 16.8647 2.16406 16.8647H7.00445C7.58452 16.8647 8.05913 16.3901 8.05913 15.81V10.9982C8.05915 10.4182 7.58454 9.94354 7.00446 9.94354ZM7.00446 15.8081C7.00389 15.8088 7.00326 15.8094 7.00258 15.81H2.16596C2.16528 15.8094 2.16465 15.8088 2.16408 15.8081V11.0001C2.16465 10.9995 2.16528 10.9988 2.16596 10.9982H7.00256V10.9982C7.00322 10.9988 7.0039 10.9995 7.00446 11.0001V15.8081ZM15.8047 1.12163H10.963C10.3829 1.12163 9.90832 1.59624 9.90832 2.17632V6.98806C9.90832 7.56814 10.3829 8.04275 10.963 8.04275H15.8047C16.3848 8.04275 16.8594 7.56814 16.8594 6.98806V2.17632C16.8594 1.59624 16.3848 1.12163 15.8047 1.12163ZM15.8047 6.98618C15.8041 6.98686 15.8035 6.98749 15.8028 6.98806H10.9649C10.9642 6.98749 10.9636 6.98686 10.963 6.98618V2.17821C10.9636 2.17754 10.9642 2.17691 10.9649 2.17633H15.8028C15.8035 2.17688 15.8041 2.17755 15.8047 2.17821V6.98618ZM7.00576 1.12163H2.16406C1.58398 1.12163 1.10938 1.59624 1.10938 2.17632V6.98806C1.10938 7.56814 1.58398 8.04275 2.16406 8.04275H7.00575C7.58582 8.04275 8.06043 7.56814 8.06043 6.98806V2.17632C8.06045 1.59624 7.58584 1.12163 7.00576 1.12163ZM7.00576 6.98618C7.00519 6.98686 7.00456 6.98749 7.00388 6.98806H2.16596C2.16528 6.98749 2.16465 6.98686 2.16408 6.98618V2.17821C2.16465 2.17754 2.16528 2.17691 2.16596 2.17633H7.00387C7.00452 2.17688 7.0052 2.17755 7.00576 2.17821V6.98618ZM15.8047 9.94892H10.9883C10.4082 9.94892 9.93359 10.4233 9.93359 11.0031V15.8174C9.93359 16.3972 10.4082 16.8716 10.9883 16.8716H14.1523C14.4424 16.8716 14.6797 16.6344 14.6797 16.3445C14.6797 16.0546 14.4424 15.8174 14.1523 15.8174H10.9883V11.0031H15.8047V14.2185C15.8047 14.5084 16.042 14.7456 16.332 14.7456C16.6221 14.7456 16.8594 14.5084 16.8594 14.2185V11.0031C16.8594 10.4233 16.3848 9.94892 15.8047 9.94892Z" fill="white"/>
</g>
<defs>
<clipPath id="clip0_5670_33533">
<rect width="18" height="18" fill="white"/>
</clipPath>
</defs>
</svg>
