<svg width="24" height="24" viewBox="0 0 24 24" fill="none" xmlns="http://www.w3.org/2000/svg">
<path fill-rule="evenodd" clip-rule="evenodd" d="M20.9256 11.2869H3.05618V1H20.9256V11.2869ZM3.75104 1.67048V9.20835H15.454V7.8877H18.9081V9.21648H20.245V1.67048H3.75104ZM20.2511 9.95605H3.73885V10.5961H20.2511V9.95605ZM16.1489 9.21039H18.1665V8.56835H16.1489V9.21039ZM11.2808 13.3796V15.4256H10.6265V20.9337H9.93979V15.4703C9.90485 15.4677 9.87072 15.4648 9.83733 15.462H9.83732C9.48239 15.4323 9.21094 15.4095 8.9361 15.7568C8.7975 15.9342 8.54733 16.0255 8.27138 16.1263L8.27135 16.1263C8.14279 16.1733 8.00863 16.2223 7.87754 16.283V17.8393H9.19413V19.8955L8.55412 19.9402V22.297H7.86535V19.9463H4.4276V22.3092H3.73273V19.9463L3.05818 19.9056V17.8739H4.3829V16.1448C4.13397 16.1723 3.88232 16.1298 3.65622 16.0221C3.43011 15.9144 3.23849 15.7458 3.10288 15.5353C3.03872 15.4425 2.85258 15.4331 2.64736 15.4228C2.54714 15.4177 2.44237 15.4125 2.34503 15.3971V20.9378H1.66642V15.4622L1 15.4256V13.3938H2.98098C3.23901 12.5425 3.50517 12.3434 4.35039 12.3434H7.88161C8.76543 12.3434 9.0133 12.5222 9.29166 13.3816L11.2808 13.3796ZM6.12819 15.4439H8.06447C8.4119 15.4439 8.55819 15.2935 8.55006 14.9502V13.4873C8.55006 13.1906 8.42815 13.0261 8.11933 13.0261H4.16144C4.10063 13.0169 4.03852 13.0223 3.98017 13.0417C3.92183 13.0612 3.86891 13.0941 3.82573 13.1379C3.78254 13.1817 3.75032 13.235 3.73169 13.2936C3.71305 13.3522 3.70854 13.4144 3.71851 13.4751V14.9806C3.71851 15.3077 3.87292 15.4479 4.19394 15.4439C4.6234 15.4412 5.05376 15.4421 5.48382 15.443C5.69873 15.4434 5.91357 15.4439 6.12819 15.4439ZM5.1123 16.1631V17.8332H7.14408V16.1631H5.1123ZM3.73273 19.2108H8.51755V18.5667H3.74086L3.73273 19.2108ZM1.67048 14.7267H2.99926V14.0846H1.67048V14.7267ZM9.25712 14.0806V14.7287H10.5859V14.0806H9.25712ZM14.048 20.9377V15.4052C14.151 15.4201 14.2605 15.4244 14.3643 15.4285C14.5718 15.4366 14.7564 15.4438 14.8201 15.5332C14.9555 15.7449 15.1477 15.9144 15.3747 16.0221C15.6018 16.1299 15.8545 16.1717 16.1042 16.1428V17.8637H14.7774V19.8954L15.4642 19.9503V22.3112H16.1428V19.9584H19.5968V22.299H20.2673V19.9422L20.9113 19.8954V17.8413H19.5927V16.2809C19.7239 16.2202 19.8586 16.1717 19.9879 16.1251C20.2609 16.0268 20.5093 15.9373 20.6472 15.7608C20.9243 15.4144 21.1949 15.4328 21.5412 15.4564C21.5808 15.4591 21.6214 15.4619 21.6631 15.4641V20.952H22.3417V15.4662L23 15.4255V13.3877H21.017C20.7204 12.5079 20.4908 12.3454 19.5643 12.3454H16.0757C15.2224 12.3454 14.9501 12.5465 14.7063 13.3938H12.7172V15.4255L13.3938 15.452V20.9377H14.048ZM19.804 15.4438H17.8677H17.8637C17.6506 15.4438 17.4369 15.4432 17.2229 15.4425C16.794 15.4411 16.3639 15.4398 15.9355 15.4438C15.5922 15.4499 15.4398 15.3057 15.4398 14.9582V13.4954C15.4337 13.1723 15.58 13.026 15.9051 13.026H19.8182C20.121 13.026 20.2693 13.1642 20.2693 13.4669V14.9725C20.2734 15.2955 20.1291 15.4438 19.804 15.4438ZM16.8519 17.8291V16.1509H18.8653V17.8291H16.8519ZM15.4662 19.2087V18.5646H20.2348V19.2087H15.4662ZM13.3938 14.0947H14.7348V14.7327H13.3938V14.0947ZM20.9784 14.7307V14.0825L22.3072 14.0805V14.7307H20.9784Z" fill="black"/>
</svg>
