<svg width="24" height="24" viewBox="0 0 24 24" fill="none" xmlns="http://www.w3.org/2000/svg">
<path fill-rule="evenodd" clip-rule="evenodd" d="M14.7305 2.62214L15.3527 2.45411L14.8986 2L14.7305 2.62214ZM7.62365 4.85414C7.46811 4.85658 7.31367 4.82779 7.16946 4.76946C7.02526 4.71113 6.89423 4.62446 6.78413 4.51457C6.67403 4.40469 6.5871 4.27382 6.5285 4.12973C6.46989 3.98564 6.4408 3.83125 6.44295 3.67571C6.44205 3.52236 6.47144 3.37035 6.52943 3.22839C6.58743 3.08643 6.67288 2.95732 6.78089 2.84846C6.8889 2.73961 7.01734 2.65315 7.15885 2.59406C7.30035 2.53496 7.45213 2.50439 7.60548 2.50409C7.76401 2.496 7.92254 2.52009 8.07152 2.57489C8.22049 2.6297 8.35683 2.7141 8.47232 2.823C8.58781 2.9319 8.68006 3.06305 8.74352 3.20855C8.80697 3.35406 8.84032 3.5109 8.84155 3.66963C8.84277 3.82836 8.81185 3.9857 8.75066 4.13217C8.68946 4.27863 8.59925 4.4112 8.48545 4.52187C8.37166 4.63254 8.23664 4.71904 8.08853 4.77614C7.94042 4.83324 7.78228 4.85978 7.62365 4.85414ZM6.26402 11.7603L6.26402 11.7602L6.26403 11.7602L6.26403 11.7601L6.26403 11.7601L6.26403 11.7601L6.26403 11.7601L6.26404 11.7601L6.26404 11.7601C6.35011 10.9309 6.44176 10.0479 6.49524 9.16139C6.53005 8.59375 6.51845 8.02409 6.50684 7.45443C6.50104 7.1696 6.49524 6.88477 6.49524 6.60019C6.49524 6.40116 6.49524 6.30125 6.44753 6.23649C6.39945 6.17121 6.30289 6.14163 6.10901 6.08224L6.10243 6.08022C5.74134 5.96449 5.37966 5.85466 5.01859 5.74501C4.67129 5.63954 4.32455 5.53424 3.97944 5.42403C3.90567 5.40455 3.83707 5.36914 3.77846 5.3203C3.71984 5.27146 3.67264 5.21037 3.64018 5.14133C3.60771 5.07228 3.59077 4.99696 3.59054 4.92067C3.59031 4.84437 3.6068 4.76895 3.63886 4.69972C3.69419 4.57876 3.7922 4.48246 3.91411 4.42925C4.03602 4.37605 4.17328 4.36967 4.29959 4.41135C4.42315 4.44769 4.54687 4.48371 4.67063 4.51974L4.67073 4.51977L4.67074 4.51977C5.20421 4.67508 5.73841 4.83061 6.26364 5.01306C6.69945 5.13641 7.15035 5.19831 7.60328 5.19697C8.26507 5.23674 8.92464 5.08877 9.50602 4.7701C9.8848 4.56745 10.2841 4.39798 10.6829 4.22874L10.6829 4.22873L10.683 4.22868L10.6831 4.22864L10.6832 4.22859L10.6834 4.22854L10.6835 4.22849C10.7626 4.19492 10.8417 4.16135 10.9206 4.12753C10.9852 4.09552 11.0557 4.07706 11.1278 4.07329C11.1998 4.06952 11.2718 4.08052 11.3395 4.10561C11.4071 4.1307 11.4689 4.16936 11.521 4.21921C11.5731 4.26905 11.6145 4.32903 11.6426 4.39546C11.6707 4.46185 11.6851 4.53317 11.6852 4.60523C11.6852 4.6773 11.6709 4.74864 11.643 4.81507C11.615 4.88151 11.5741 4.94168 11.5226 4.99206C11.471 5.04244 11.41 5.082 11.3429 5.10842L11.2771 5.13794C11.0686 5.23257 10.8604 5.32791 10.6521 5.42327C10.1207 5.66655 9.5892 5.9099 9.05418 6.14153C8.9752 6.16673 8.90739 6.2185 8.86228 6.28804C8.81716 6.35758 8.79751 6.4406 8.80668 6.52299C8.81541 6.82683 8.81743 7.13202 8.81945 7.437V7.43702C8.82267 7.92515 8.82589 8.41275 8.85664 8.89347C8.88956 9.40548 8.96308 9.91511 9.0365 10.4241L9.0365 10.4241L9.03651 10.4242C9.06434 10.6171 9.09216 10.81 9.11775 11.0028C9.15136 11.2526 9.18641 11.5023 9.22147 11.7521C9.27406 12.1268 9.32664 12.5014 9.37433 12.8761C9.42428 13.2666 9.22674 13.5368 8.89069 13.5686C8.55465 13.6004 8.36392 13.3733 8.31851 12.9941C8.20498 12.0609 8.09145 11.1254 7.98474 10.19C7.98214 10.1669 7.98021 10.1428 7.97824 10.1182L7.97824 10.1182C7.9647 9.9492 7.94958 9.76057 7.70773 9.77445C7.46678 9.78827 7.4732 9.96872 7.47896 10.1305C7.47982 10.1547 7.48067 10.1786 7.48067 10.2013C7.43753 10.6781 7.39609 11.155 7.35465 11.6318L7.35462 11.6322C7.31319 12.1089 7.27176 12.5856 7.22863 13.0622C7.22764 13.1385 7.21022 13.2137 7.17757 13.2827C7.14492 13.3516 7.0978 13.4128 7.03942 13.4619C6.98103 13.511 6.91276 13.547 6.83923 13.5673C6.7657 13.5877 6.68865 13.592 6.61331 13.5799C6.28408 13.5527 6.12059 13.3029 6.16601 12.7285C6.1959 12.4166 6.22951 12.0927 6.26402 11.7603ZM20.3451 21.7613L20.3446 21.7611C19.7962 21.5057 19.2563 21.2544 18.7154 21.0161C18.2837 20.816 17.8355 20.6534 17.3758 20.5302C16.9766 20.4326 16.5857 20.543 16.1988 20.6523C16.0906 20.6828 15.9826 20.7133 15.8749 20.7391C15.3543 20.865 14.8348 20.9953 14.3154 21.1256L14.3153 21.1256L14.3152 21.1256L14.3152 21.1256L14.3151 21.1257L14.315 21.1257L14.3149 21.1257L14.3149 21.1257L14.3148 21.1257L14.3141 21.1259L14.3139 21.1259L14.3137 21.126L14.3135 21.1261L14.3132 21.1261L14.313 21.1262L14.3128 21.1262L14.3126 21.1263L14.3124 21.1263L14.3122 21.1264C13.6049 21.3038 12.8977 21.4812 12.1875 21.6473C11.4244 21.8366 10.6186 21.7456 9.91695 21.3908C7.43343 20.1829 5.08341 18.7179 2.90542 17.0199C2.38883 16.6075 1.90389 16.1545 1.42128 15.7036L1.41819 15.7007C0.934561 15.2489 0.880067 14.654 1.20476 14.2362C1.38854 14.0105 1.65027 13.862 1.93824 13.82C2.22622 13.7779 2.51948 13.8454 2.7601 14.0091C3.45697 14.464 4.14734 14.9279 4.8381 15.3921L4.83824 15.3922L4.8384 15.3923L4.83926 15.3929L4.84084 15.3939L4.84194 15.3947L4.84257 15.3951L4.8432 15.3955C5.06452 15.5442 5.28587 15.693 5.5075 15.8415L5.71031 15.9766C6.2284 16.3218 6.74568 16.6664 7.25584 17.0199C7.29626 17.0513 7.32981 17.0907 7.35441 17.1356C7.37902 17.1806 7.39415 17.23 7.39889 17.281C7.40365 17.685 7.56701 18.0709 7.85373 18.3555C8.14045 18.6401 8.52754 18.8005 8.93152 18.8023C9.75347 18.7887 10.5754 18.7296 11.3928 18.6524C12.1548 18.5792 12.9157 18.4861 13.6745 18.3932C13.9739 18.3565 14.2729 18.3199 14.5716 18.2846C14.6994 18.2797 14.8254 18.2528 14.944 18.2051C14.9953 18.178 15.0305 18.1188 15.0651 18.0608C15.0825 18.0315 15.0998 18.0025 15.1188 17.9781C15.092 17.9629 15.0638 17.9419 15.0355 17.9208C14.9751 17.8758 14.914 17.8303 14.8645 17.8396C13.1277 18.1542 11.37 18.2726 9.61402 18.3909L9.61397 18.3909L9.61393 18.3909L9.61388 18.3909L9.61384 18.3909C9.4439 18.4023 9.27398 18.4138 9.10409 18.4254C8.82346 18.4509 8.54276 18.3774 8.31056 18.2178C8.07836 18.0581 7.90927 17.8224 7.83256 17.5512C7.80351 17.4446 7.79639 17.3331 7.81163 17.2236C7.82688 17.1141 7.86418 17.0089 7.92128 16.9142C7.97837 16.8195 8.05408 16.7374 8.14381 16.6729C8.23355 16.6083 8.33545 16.5626 8.44335 16.5385C8.7848 16.4429 9.14036 16.3756 9.49461 16.3085L9.49478 16.3084L9.49496 16.3084L9.49513 16.3084L9.4953 16.3083L9.49548 16.3083L9.49565 16.3083L9.49583 16.3082L9.496 16.3082L9.49618 16.3081C9.61254 16.2861 9.72877 16.2641 9.84429 16.2411C10.1298 16.1848 10.4154 16.1298 10.7011 16.0747L10.7011 16.0747L10.7012 16.0747L10.7012 16.0747L10.7012 16.0747L10.7013 16.0747L10.7013 16.0747L10.7013 16.0747L10.7013 16.0747L10.7014 16.0747L10.7014 16.0747C12.1903 15.7878 13.6786 15.501 15.1302 15.04C15.7559 14.8179 16.4281 14.7601 17.0825 14.8722C17.7369 14.9843 18.3515 15.2625 18.8676 15.6803C19.8964 16.4914 21.0658 17.0099 22.2384 17.5298C22.4478 17.6226 22.6573 17.7155 22.866 17.8101L23 17.8714C22.5505 18.8576 22.0999 19.8588 21.644 20.8717L21.6438 20.8724L21.642 20.8762L21.6416 20.8771C21.4581 21.2849 21.2737 21.6946 21.0882 22.106C20.8387 21.9911 20.5918 21.8761 20.3466 21.762L20.3451 21.7613ZM12.0247 4.89883C11.9643 5.07126 11.861 5.22544 11.7244 5.34678C11.8719 5.40581 11.9719 5.44441 12.0854 5.46939C12.2796 5.52859 12.4735 5.58816 12.6676 5.64773L12.6676 5.64774C13.1655 5.80063 13.6636 5.95356 14.1652 6.10061C14.2098 6.10752 14.2527 6.12318 14.2912 6.14668C14.3298 6.17019 14.3633 6.20108 14.3899 6.23758C14.4165 6.27407 14.4356 6.31546 14.4461 6.35937C14.4567 6.40327 14.4584 6.44883 14.4513 6.49342C14.4377 6.86579 14.4422 7.23817 14.4468 7.61054C14.449 7.79673 14.4513 7.98291 14.4513 8.1691C14.4476 8.35086 14.4185 8.53121 14.365 8.70496C14.2411 9.11592 14.109 9.52453 13.977 9.93249C13.9253 10.0925 13.8736 10.2525 13.8224 10.4124C13.7406 10.669 13.752 10.6849 14.0176 10.6849H17.3735C17.4069 10.6849 17.4403 10.6808 17.4774 10.6763L17.4774 10.6763C17.5234 10.6707 17.575 10.6645 17.6392 10.6645C17.6166 10.6055 17.5977 10.5501 17.5798 10.4976C17.5508 10.4128 17.5244 10.3355 17.4893 10.2626C16.9 9.1155 16.6436 7.82637 16.7491 6.5411C16.7479 6.45601 16.773 6.37261 16.821 6.3023C16.8689 6.232 16.9374 6.17821 17.0171 6.14829C17.6294 5.88505 18.2372 5.60646 18.8454 5.32766L18.8455 5.32763C18.9769 5.26737 19.1084 5.2071 19.24 5.14697C19.5805 4.98803 19.7168 4.69512 19.5805 4.39541C19.4443 4.09569 19.1332 4.00941 18.779 4.16835C18.6593 4.22267 18.5392 4.2764 18.4192 4.3301L18.4192 4.33011C18.0728 4.48515 17.7267 4.64001 17.3894 4.80865C16.8451 5.11563 16.2204 5.25023 15.598 5.19465C15.2267 5.18404 14.8566 5.14915 14.4899 5.0902C14.1092 5.00153 13.7368 4.88094 13.3642 4.76032L13.3642 4.76031C13.1835 4.7018 13.0027 4.64329 12.821 4.58841C12.6386 4.52645 12.4562 4.47363 12.2609 4.41708L12.2608 4.41705L12.2608 4.41704L12.2604 4.41694C12.1982 4.39892 12.1347 4.38053 12.0695 4.36135C12.1005 4.5414 12.0851 4.72639 12.0247 4.89883ZM16.4739 2.93567C16.2914 2.73207 16.0383 2.6054 15.766 2.58128C15.6448 2.66008 15.519 2.73136 15.3891 2.79471C15.2468 2.84606 15.1001 2.88407 14.9508 2.90824C14.8778 2.91426 14.809 2.94497 14.7558 2.99532C14.7025 3.04568 14.668 3.11267 14.6579 3.18525C14.6369 3.30022 14.6031 3.4125 14.5694 3.52464L14.5693 3.52467C14.5411 3.6185 14.5129 3.71224 14.4922 3.80739C14.4616 3.915 14.4616 4.02901 14.4922 4.13662C14.5947 4.38593 14.7802 4.59216 15.0173 4.72043C15.2543 4.84869 15.5285 4.89111 15.7932 4.8405C16.0608 4.78387 16.3012 4.63796 16.4749 4.42671C16.6486 4.21546 16.7453 3.95143 16.7491 3.67797C16.7548 3.40459 16.6564 3.13927 16.4739 2.93567ZM8.00514 16.2411L7.51469 16.727L3.30051 13.9047C3.44578 13.7811 3.62879 13.7106 3.81944 13.7048C4.01008 13.699 4.19702 13.7583 4.34951 13.8729C4.99729 14.2829 5.64246 14.6995 6.28699 15.1156L6.28757 15.116L6.28814 15.1164L6.28872 15.1167C6.49307 15.2487 6.69735 15.3806 6.90164 15.5122C7.13314 15.6624 7.3629 15.8151 7.58932 15.9656L7.58949 15.9657C7.72944 16.0587 7.86812 16.1509 8.00514 16.2411ZM15.1665 11.1005H14.2787C14.2611 11.272 14.2433 11.4417 14.2256 11.6102L14.2255 11.6121L14.2253 11.613L14.2253 11.6132C14.1749 12.095 14.1254 12.5671 14.0834 13.0441C14.0718 13.105 14.0727 13.1676 14.0862 13.2281C14.0996 13.2886 14.1253 13.3458 14.1617 13.396C14.1981 13.4462 14.2443 13.4884 14.2977 13.52C14.351 13.5517 14.4102 13.5721 14.4717 13.5799C14.7669 13.6027 14.9485 13.4369 14.9826 13.1099C14.9909 13.0285 14.9994 12.9471 15.008 12.8656L15.008 12.8647C15.0252 12.7012 15.0424 12.5378 15.0575 12.3743C15.0896 12.0266 15.1186 11.6774 15.1483 11.3188L15.1484 11.3185L15.1484 11.3184L15.1665 11.1005ZM16.0498 11.0982H16.933C16.9465 11.2603 16.9609 11.422 16.9751 11.5831L16.9752 11.5834L16.9752 11.5835C16.9945 11.8014 17.0137 12.0182 17.0307 12.2334C17.0354 12.2987 17.0406 12.3637 17.0457 12.4288L17.0457 12.429L17.0458 12.4292V12.4292V12.4293V12.4293C17.0626 12.6426 17.0794 12.8551 17.0829 13.069C17.0829 13.396 16.9535 13.5617 16.6992 13.5685C16.4449 13.5753 16.3041 13.4164 16.2678 13.0985C16.2259 12.725 16.1807 12.3515 16.1357 11.9801L16.1357 11.98L16.1357 11.9799L16.1357 11.9799C16.1074 11.7463 16.0792 11.5135 16.052 11.2821C16.0474 11.2209 16.0466 11.1594 16.0498 11.0982ZM13.7837 3.1353L14.3695 2.97863L14.2015 3.60758L13.7837 3.1353ZM14.4339 2.93083C14.4508 2.95613 14.4676 2.9813 14.4809 3.00589L14.574 3.00135C14.5878 2.98468 14.6043 2.96733 14.6213 2.94948C14.6736 2.89434 14.7306 2.83432 14.7306 2.77429C14.7336 2.72491 14.7169 2.67635 14.6841 2.63931C14.6513 2.60226 14.6052 2.57976 14.5558 2.57675C14.5064 2.57374 14.4579 2.59047 14.4208 2.62325C14.3838 2.65604 14.3613 2.7022 14.3582 2.75158C14.3518 2.80779 14.3931 2.86968 14.4339 2.93083Z" fill="black"/>
</svg>
