<svg width="24" height="24" viewBox="0 0 24 24" fill="none" xmlns="http://www.w3.org/2000/svg">
<path d="M22.1211 4.95213V19.0479H1.87886V4.95213H22.1211ZM22.1211 4.08871H1.87886C1.40201 4.08871 1.01544 4.47526 1.01544 4.95213V19.0479C1.01544 19.5247 1.40201 19.9113 1.87886 19.9113H22.1211C22.598 19.9113 22.9845 19.5247 22.9845 19.0479V4.95213C22.9845 4.47526 22.598 4.08871 22.1211 4.08871Z" fill="#666666"/>
<path d="M19.0928 9.72153C19.0928 9.95996 18.8995 10.1532 18.6611 10.1532H14.3332C14.0947 10.1532 13.9015 9.95996 13.9015 9.72153C13.9015 9.48311 14.0947 9.28983 14.3332 9.28983H18.6611C18.8996 9.28983 19.0928 9.48311 19.0928 9.72153Z" fill="#666666"/>
<path d="M19.0928 12C19.0928 12.2384 18.8995 12.4317 18.6611 12.4317H14.3332C14.0947 12.4317 13.9015 12.2384 13.9015 12C13.9015 11.7616 14.0947 11.5683 14.3332 11.5683H18.6611C18.8996 11.5683 19.0928 11.7616 19.0928 12Z" fill="#666666"/>
<path d="M19.0928 14.2784C19.0928 14.5169 18.8995 14.7102 18.6611 14.7102H14.3332C14.0947 14.7102 13.9015 14.5169 13.9015 14.2784C13.9015 14.04 14.0947 13.8467 14.3332 13.8467H18.6611C18.8996 13.8467 19.0928 14.04 19.0928 14.2784Z" fill="#666666"/>
<path d="M12.0303 14.7421C11.8082 13.9927 11.3411 13.3187 10.7152 12.8442C10.484 12.6689 10.2367 12.5234 9.97732 12.4084C10.4028 12.0156 10.6693 11.4532 10.6693 10.8284C10.6693 9.64088 9.70659 8.67819 8.51906 8.67819C7.33151 8.67819 6.36882 9.6409 6.36882 10.8284C6.36882 11.4413 6.62528 11.9943 7.03672 12.386C6.75424 12.5061 6.48567 12.6622 6.23595 12.853C5.60751 13.3332 5.1416 14.0142 4.92407 14.7706C4.85816 14.9998 4.9905 15.2389 5.21964 15.3048C5.25953 15.3163 5.29965 15.3218 5.33918 15.3218C5.52673 15.3218 5.69944 15.1985 5.75386 15.0093C6.08262 13.8661 7.10488 13.0497 8.28025 12.9654C8.35868 12.974 8.43833 12.9786 8.51906 12.9786C8.58897 12.9786 8.65807 12.9752 8.72631 12.9687C9.87352 13.0695 10.8716 13.8712 11.2025 14.9875C11.2702 15.216 11.5104 15.3464 11.7391 15.2787C11.9676 15.211 12.098 14.9707 12.0303 14.7421ZM8.70918 12.1011C8.63366 12.0966 8.55768 12.0943 8.48133 12.0943C8.42437 12.0943 8.36768 12.0957 8.31115 12.0982C7.70014 11.9985 7.23224 11.4672 7.23224 10.8284C7.23224 10.1189 7.8095 9.54163 8.51906 9.54163C9.22862 9.54163 9.80588 10.1189 9.80588 10.8284C9.80586 11.4734 9.3289 12.0089 8.70918 12.1011Z" fill="#666666"/>
</svg>
