<svg width="24" height="24" viewBox="0 0 24 24" fill="none" xmlns="http://www.w3.org/2000/svg">
<path fill-rule="evenodd" clip-rule="evenodd" d="M13.722 20.6136L13.7221 20.6137C13.8485 21.0917 13.9644 21.53 14.1085 21.959C14.1566 22.0398 14.2231 22.108 14.3026 22.1581C14.3821 22.2082 14.4723 22.2387 14.5659 22.2472C14.8528 22.2638 15.1423 22.2631 15.4322 22.2625C15.7015 22.262 15.9712 22.2614 16.2399 22.2746C16.3645 22.2746 16.4869 22.3531 16.6102 22.432L16.6102 22.432C16.6679 22.469 16.7258 22.5061 16.7842 22.5353C16.7221 22.5641 16.6605 22.6019 16.5991 22.6396C16.475 22.7157 16.3516 22.7914 16.2262 22.7914H9.15509C8.9888 22.7914 8.82302 22.794 8.65758 22.7965H8.65748H8.65738H8.65728H8.65718H8.65708H8.65698H8.65689H8.65681C8.32651 22.8016 7.99756 22.8067 7.66861 22.7914C7.56463 22.7914 7.46716 22.7111 7.37022 22.6312C7.32644 22.5952 7.28278 22.5592 7.23867 22.5307C7.28294 22.5045 7.32637 22.4719 7.37024 22.439L7.37025 22.439L7.37027 22.439L7.37029 22.439L7.37031 22.4389L7.37032 22.4389L7.37034 22.4389L7.37036 22.4389C7.47147 22.3631 7.57487 22.2856 7.69605 22.2792C8.27235 22.2472 8.85322 22.2517 9.42952 22.2792C9.49413 22.2924 9.56085 22.2916 9.6251 22.2767C9.68934 22.2617 9.7496 22.2331 9.80174 22.1927C9.85387 22.1523 9.89665 22.1011 9.92714 22.0426C9.95763 21.9841 9.97511 21.9197 9.97838 21.8538C10.0606 21.4673 10.167 21.0888 10.283 20.6767L10.283 20.6766C10.3413 20.4694 10.402 20.2538 10.4632 20.0243H2.74262C1.45738 20.0197 1 19.5623 1 18.2542V6.40807C1 4.91701 1.45738 4.4825 2.91185 4.4825H3.68482V2.61639C3.65281 2.14529 3.84491 2.0035 4.29314 2.0035C5.47759 2.01876 6.67018 2.01365 7.85733 2.00856C8.44887 2.00603 9.03905 2.0035 9.6262 2.0035C10.1087 1.99781 10.5837 2.12224 11.0015 2.3637C11.4192 2.60516 11.7641 2.95473 12 3.37564C12.7501 2.08125 13.953 1.97606 15.2383 2.0035C16.217 2.02484 17.1958 2.01773 18.1746 2.01061C18.664 2.00706 19.1534 2.0035 19.6428 2.0035C20.1551 2.0035 20.3472 2.16358 20.3152 2.685C20.2941 3.02814 20.3008 3.41684 20.3078 3.82634C20.3114 4.03908 20.3152 4.25743 20.3152 4.47793H21.0927C22.5609 4.47793 23 4.93531 23 6.41265V14.5998V18.3228C23 19.5669 22.5426 20.0151 21.3168 20.0151H14.3647L13.5642 20.0243C13.6201 20.2282 13.6719 20.424 13.722 20.6136ZM20.306 5.0771V5.75859V13.0126C20.306 13.4975 20.1734 13.6667 19.6703 13.6576C18.5268 13.6393 17.3834 13.6454 16.2399 13.6515C15.6682 13.6545 15.0965 13.6576 14.5247 13.6576C14.1008 13.6173 13.6746 13.7057 13.3018 13.9113C12.9289 14.1169 12.6267 14.4302 12.4345 14.8102C12.1692 15.3041 11.7942 15.2995 11.5198 14.8102C11.336 14.4378 11.0445 14.1292 10.6832 13.9245C10.3219 13.7198 9.90744 13.6284 9.49356 13.6621C8.92806 13.6621 8.36256 13.6596 7.79723 13.657H7.7971H7.79697H7.79684H7.79672H7.79659H7.79646H7.79633H7.7963H7.79627H7.79624H7.79621H7.79618H7.79615H7.79612C6.66545 13.652 5.53545 13.6469 4.40748 13.6621C3.79002 13.6621 3.64823 13.4655 3.65281 12.8846C3.67415 11.299 3.66704 9.71341 3.65992 8.12782C3.65636 7.33503 3.65281 6.54224 3.65281 5.74945V5.04508C3.52 5.04508 3.4035 5.03322 3.29487 5.02216C3.2127 5.01379 3.13503 5.00589 3.05821 5.00392C1.68607 5.00392 1.51227 5.1457 1.51227 6.50412V17.4813H22.442V16.6671C22.442 15.5708 22.4389 14.4749 22.4359 13.3792C22.4298 11.1884 22.4237 8.9982 22.442 6.80599C22.4649 5.03136 22.2453 4.97647 20.5073 5.01306C20.4391 5.03074 20.3719 5.05211 20.306 5.0771ZM19.7526 2.55693H14.4744C13.0062 2.55693 12.2378 3.35735 12.2378 4.84383V14.1104C13.0565 13.1544 14.0079 13.1133 14.9821 13.1361C15.8989 13.1545 16.8158 13.1483 17.7244 13.1422H17.7245H17.7246H17.7247H17.7248H17.725H17.7251H17.7252C18.1762 13.1392 18.6252 13.1361 19.0711 13.1361C19.2906 13.1361 19.5285 13.1361 19.7343 13.1041L19.7526 2.55693ZM4.22453 2.55693V13.1407H8.39127C8.53971 13.1407 8.6889 13.1374 8.83824 13.1341C9.8577 13.1117 10.8844 13.0891 11.7301 14.1104V4.43219C11.7102 3.94309 11.503 3.48039 11.1514 3.13983C10.7997 2.79928 10.3306 2.60696 9.84116 2.60267C9.3186 2.57654 8.78708 2.58026 8.25428 2.584C7.8544 2.5868 7.4538 2.5896 7.05572 2.5798L4.22453 2.55693ZM1.60832 18.0804C1.45738 19.2056 1.69064 19.4983 2.70146 19.4983H21.2985C22.3002 19.4983 22.6249 19.0409 22.3322 18.0804H1.60832ZM13.6146 22.1968C13.5584 21.9931 13.506 21.7959 13.4551 21.6038C13.3402 21.1705 13.2322 20.7634 13.1023 20.3673C13.0716 20.29 13.0247 20.2202 12.9647 20.1626C12.9048 20.105 12.8331 20.061 12.7547 20.0334C11.2819 19.7636 10.9938 19.9511 10.6004 21.4056L10.3809 22.2197L13.6146 22.1968ZM16.2079 7.27246H14.2274C14.1124 7.27246 14.0017 7.20066 13.8908 7.12881C13.8385 7.09491 13.7862 7.06101 13.7335 7.03462C13.7822 7.0036 13.831 6.96351 13.8799 6.9233L13.8799 6.92329C13.9824 6.839 14.0856 6.75415 14.1908 6.75105H18.2204C18.3299 6.75105 18.4394 6.8395 18.5457 6.92537C18.5904 6.96144 18.6345 6.99706 18.6777 7.02548C18.6255 7.05307 18.5736 7.08759 18.522 7.12199C18.411 7.19593 18.3007 7.26934 18.1884 7.27246C17.7527 7.28465 17.3129 7.2806 16.8718 7.27654C16.6507 7.2745 16.4293 7.27246 16.2079 7.27246ZM14.177 11.1193H16.1574C16.4022 11.1193 16.6475 11.1232 16.893 11.1271H16.893H16.893H16.893H16.893H16.8931H16.8931C17.3494 11.1344 17.8064 11.1417 18.2614 11.1238C18.3644 11.1206 18.4628 11.0404 18.56 10.9612L18.56 10.9612L18.56 10.9612C18.6009 10.9279 18.6415 10.8948 18.6822 10.8677C18.6371 10.8392 18.592 10.8012 18.5468 10.7632C18.4543 10.6854 18.3611 10.607 18.2659 10.607C16.9029 10.5826 15.5399 10.5826 14.177 10.607C14.0687 10.607 13.9667 10.6927 13.8654 10.778L13.8654 10.778C13.8168 10.8188 13.7684 10.8595 13.7196 10.8906C13.7722 10.9176 13.8233 10.9516 13.8736 10.985C13.9764 11.0533 14.0756 11.1193 14.177 11.1193ZM16.2078 5.33796H14.2319C14.1198 5.33796 14.0077 5.27011 13.8956 5.20227C13.843 5.17046 13.7905 5.13866 13.7379 5.11384C13.7837 5.0861 13.8295 5.05162 13.8754 5.01705C13.9808 4.93763 14.087 4.85771 14.1953 4.85771C15.5339 4.83332 16.874 4.83332 18.2157 4.85771C18.3243 4.85771 18.433 4.93811 18.5385 5.01619C18.5841 5.04986 18.629 5.08309 18.6731 5.10927C18.6186 5.13498 18.5647 5.16819 18.5109 5.20129C18.4021 5.26831 18.2939 5.3349 18.1837 5.33796C17.7476 5.34711 17.3075 5.34406 16.8674 5.34101C16.6474 5.33949 16.4273 5.33796 16.2078 5.33796ZM18.2797 8.68131H16.2398C15.9774 8.68131 15.715 8.67938 15.4525 8.67745C15.0152 8.67424 14.5778 8.67102 14.1404 8.67674C14.0463 8.68302 13.9542 8.75824 13.8629 8.8329C13.8211 8.86703 13.7795 8.90104 13.7379 8.9283C13.7797 8.95457 13.8209 8.9892 13.8617 9.02354C13.9418 9.09082 14.0205 9.15699 14.0993 9.15699C15.5019 9.17529 16.903 9.17529 18.3026 9.15699C18.3885 9.15699 18.4766 9.08837 18.5639 9.02043C18.6021 8.99071 18.6401 8.96111 18.6776 8.93745C18.6368 8.9093 18.596 8.87423 18.5552 8.83915C18.4634 8.76023 18.3715 8.68131 18.2797 8.68131ZM7.66843 7.27229H5.68798C5.58089 7.27229 5.47597 7.18771 5.37173 7.10367C5.3246 7.06566 5.2776 7.02777 5.2306 6.99786C5.27399 6.9721 5.31738 6.9399 5.36125 6.90735C5.46535 6.83011 5.57214 6.75088 5.68798 6.75088C7.05097 6.73258 8.41092 6.73258 9.76781 6.75088C9.86791 6.75088 9.96587 6.8279 10.0632 6.90439C10.1081 6.93974 10.1529 6.97497 10.1977 7.00244C10.1483 7.03297 10.0994 7.07089 10.0507 7.10856L10.0507 7.10857C9.94629 7.18943 9.84333 7.26917 9.74037 7.27229C9.26313 7.28453 8.80022 7.2804 8.34341 7.27632H8.34339H8.34337H8.34334C8.11721 7.2743 7.89257 7.27229 7.66843 7.27229ZM5.67905 11.1191H7.65493C7.9016 11.1191 8.14772 11.123 8.39366 11.127H8.39369H8.39373H8.39376H8.3938C8.85009 11.1342 9.30581 11.1415 9.76345 11.1237C9.86096 11.1205 9.95631 11.0438 10.0525 10.9665C10.0961 10.9314 10.14 10.8961 10.1842 10.8676C10.1388 10.8382 10.0939 10.801 10.0491 10.7638C9.95408 10.685 9.85982 10.6068 9.76345 10.6068C8.42333 10.584 7.05119 10.584 5.67905 10.6068C5.56908 10.6068 5.46559 10.6953 5.36264 10.7834C5.31573 10.8235 5.26892 10.8635 5.22167 10.895C5.27278 10.9206 5.32291 10.9535 5.3727 10.9863L5.37271 10.9863L5.37271 10.9863C5.47439 11.0532 5.57466 11.1191 5.67905 11.1191ZM7.70965 5.33753H5.66515C5.56667 5.33753 5.47208 5.27716 5.3725 5.21361C5.31946 5.17976 5.265 5.14501 5.20777 5.11798C5.25463 5.08959 5.30148 5.0537 5.34847 5.01771C5.45286 4.93775 5.55792 4.85728 5.66515 4.85728H9.75414C9.84899 4.85728 9.94166 4.93377 10.0336 5.00971C10.0747 5.04363 10.1157 5.07743 10.1566 5.10426C10.1146 5.12946 10.0726 5.16065 10.0305 5.19194L10.0305 5.19195C9.935 5.2629 9.83881 5.33435 9.74041 5.33753C9.29573 5.34666 8.84497 5.34363 8.39217 5.34059H8.39216C8.165 5.33906 7.93732 5.33753 7.70965 5.33753ZM5.61044 9.18461H7.71896C7.95206 9.18461 8.18566 9.18562 8.41943 9.18664C8.88748 9.18867 9.35622 9.19071 9.82291 9.18461C9.90372 9.1815 9.98242 9.1087 10.0604 9.03652C10.0972 9.00248 10.1339 8.96858 10.1705 8.94219C10.1346 8.91633 10.0987 8.88323 10.0626 8.85001C9.98387 8.77749 9.90447 8.70436 9.82291 8.70436H5.61044C5.51932 8.70436 5.43035 8.76912 5.34206 8.83338C5.30184 8.86267 5.26175 8.89185 5.22167 8.91475C5.2665 8.94567 5.31029 8.98652 5.35374 9.02705C5.43883 9.10643 5.52263 9.18461 5.61044 9.18461Z" fill="black"/>
</svg>
