<svg xmlns="http://www.w3.org/2000/svg" width="32" height="32" viewBox="0 0 32 32" fill="none">
    <g clip-path="url(#clip0_244_17)">
        <path fill-rule="evenodd" clip-rule="evenodd"
            d="M16 32C24.8366 32 32 24.8366 32 16C32 7.16344 24.8366 0 16 0C7.16344 0 0 7.16344 0 16C0 24.8366 7.16344 32 16 32Z"
            fill="#41285F" />
        <path fill-rule="evenodd" clip-rule="evenodd"
            d="M16 17.8457L25.2308 9.8457H6.76922L16 17.8457ZM13.5068 16.9601L16 19.0066L18.4542 16.9601L25.2308 22.7688H6.76922L13.5068 16.9601ZM6.15384 22.1534V10.4611L12.9231 16.3072L6.15384 22.1534ZM25.8461 22.1534V10.4611L19.0769 16.3072L25.8461 22.1534Z"
            fill="white" />
    </g>
    <defs>
        <clipPath id="clip0_244_17">
            <rect width="32" height="32" fill="white" />
        </clipPath>
    </defs>
</svg>