<svg width="20" height="20" viewBox="0 0 20 20" fill="none" xmlns="http://www.w3.org/2000/svg">
<path d="M17.4478 3.33333H2.552C1.60275 3.33333 0.833252 4.10283 0.833252 5.05208V15.3646C0.833252 16.3138 1.60275 17.0833 2.552 17.0833H17.4478C18.3971 17.0833 19.1666 16.3138 19.1666 15.3646V5.05208C19.1666 4.10283 18.3971 3.33333 17.4478 3.33333ZM17.4478 5.05208V6.5132C16.645 7.16701 15.365 8.18365 12.6286 10.3263C12.0256 10.8007 10.8311 11.9402 9.99992 11.9269C9.1689 11.9404 7.97398 10.8005 7.3712 10.3263C4.63527 8.18397 3.35498 7.16711 2.552 6.5132V5.05208H17.4478ZM2.552 15.3646V8.71868C3.37249 9.3722 4.53605 10.2893 6.30955 11.678C7.09219 12.2941 8.46278 13.6541 9.99992 13.6458C11.5295 13.6541 12.8827 12.3138 13.69 11.6783C15.4634 10.2896 16.6273 9.37227 17.4478 8.71872V15.3646H2.552Z" fill="white" fill-opacity="0.8"/>
</svg>
