<svg width="20" height="20" viewBox="0 0 20 20" fill="none" xmlns="http://www.w3.org/2000/svg">
<path fill-rule="evenodd" clip-rule="evenodd" d="M2.59237 3.33337H17.3983C18.3695 3.33337 19.1574 4.12131 19.1666 5.08333V15.3449C19.1666 16.316 18.3786 17.104 17.4075 17.104H2.59237C1.62119 17.104 0.833252 16.316 0.833252 15.3449V5.08333C0.833252 4.12131 1.62119 3.33337 2.59237 3.33337ZM2.58321 4.56109C2.29919 4.56109 2.06097 4.79015 2.06097 5.08333H2.07013V15.3449C2.07013 15.6289 2.29919 15.8671 2.59237 15.8671H17.3983C17.6823 15.8671 17.9205 15.6381 17.9205 15.3449V5.08333C17.9205 4.79931 17.6915 4.56109 17.3983 4.56109H2.58321ZM9.66558 12.6328L3.96676 8.83058C3.68274 8.6565 3.60028 8.27169 3.75603 7.98767C3.93928 7.70364 4.32408 7.61202 4.60811 7.79526C4.61269 7.79984 4.61727 7.80213 4.62185 7.80442C4.62643 7.80672 4.63101 7.80901 4.6356 7.81359L9.99542 11.3868L15.3552 7.81359C15.6484 7.63035 16.0241 7.72197 16.2073 8.00599C16.3814 8.28085 16.3081 8.63817 16.0424 8.83058L10.3436 12.6328C10.2428 12.697 10.1237 12.7336 10.0046 12.7336C9.88547 12.7336 9.76636 12.697 9.66558 12.6328Z" fill="#41285F"/>
</svg>
