<svg width="24" height="24" viewBox="0 0 24 24" fill="none" xmlns="http://www.w3.org/2000/svg">
<path fill-rule="evenodd" clip-rule="evenodd" d="M20.2964 1.79244V1.79247C20.2996 1.8823 20.3028 1.97198 20.2642 2.03632C20.1953 2.15176 20.0547 2.29048 19.9421 2.29327C19.8727 2.28324 19.807 2.25566 19.7513 2.21313C19.6956 2.17061 19.6517 2.11455 19.6237 2.05029C19.5708 1.79446 19.5677 1.53086 19.6144 1.27385C19.6376 1.15748 19.8406 0.994554 19.9523 1.00014C20.064 1.00573 20.2046 1.17889 20.2744 1.30923C20.3099 1.37367 20.3012 1.46443 20.2924 1.55526V1.55528V1.5553V1.55532V1.55534V1.55536V1.55538V1.55541C20.2886 1.59575 20.2847 1.6361 20.2847 1.67417H20.2959C20.2936 1.71206 20.295 1.75217 20.2964 1.79226V1.79229V1.79232V1.79235V1.79238V1.79241V1.79244ZM22.0798 1.88667C22.0478 1.82706 22.0158 1.7675 21.9942 1.71512L21.8034 1.69092L21.0586 2.57442C21.106 2.61242 21.1633 2.66383 21.2202 2.71489L21.2202 2.71492C21.3375 2.82021 21.4531 2.92403 21.4775 2.90585C21.7476 2.71099 21.9849 2.47435 22.1804 2.20482C22.2207 2.14914 22.1502 2.01778 22.0798 1.88667ZM3.31226 3.64128C3.26087 3.66541 3.20949 3.69318 3.15763 3.72121C3.03942 3.78508 2.91875 3.85029 2.78998 3.87682C2.6737 3.90072 2.5489 3.88204 2.4243 3.86338L2.42429 3.86338L2.42429 3.86338L2.42428 3.86338L2.42428 3.86338L2.42427 3.86338L2.42427 3.86338L2.42426 3.86338L2.42426 3.86338L2.42425 3.86338L2.42425 3.86338L2.42425 3.86338L2.42424 3.86338L2.42424 3.86337C2.36929 3.85515 2.31438 3.84693 2.26025 3.84237C2.27526 3.78675 2.2846 3.72481 2.29393 3.66286C2.31413 3.52883 2.33433 3.39478 2.412 3.32475C2.79464 2.98401 3.25827 2.93001 3.76193 3.03801C3.97405 3.07829 4.1932 3.05895 4.39499 2.98215C4.9452 2.76895 5.46469 2.76895 5.92273 3.1581C6.04841 3.26423 6.1471 3.55842 6.08845 3.69248C5.97952 3.94199 5.74771 3.87868 5.54755 3.71762C5.18912 3.43833 4.82324 3.45508 4.49926 3.76789C4.26093 3.99785 4.05053 4.06115 3.77403 3.82841C3.70066 3.76686 3.60156 3.73603 3.48891 3.70099L3.48891 3.70099C3.43288 3.68356 3.37349 3.66509 3.31226 3.64128ZM20.7984 4.91709C21.0259 4.68759 21.153 4.37708 21.1517 4.05388C21.1503 3.73067 21.0206 3.42124 20.7911 3.19366C20.5616 2.96608 20.2511 2.83898 19.9279 2.84034C19.6047 2.8417 19.2953 2.9714 19.0677 3.2009C18.8401 3.4304 18.713 3.74091 18.7144 4.06412C18.7157 4.38732 18.8454 4.69675 19.0749 4.92434C19.3044 5.15192 19.6149 5.27901 19.9381 5.27765C20.2613 5.27629 20.5708 5.1466 20.7984 4.91709ZM19.4005 4.05946C19.4005 3.72524 19.6165 3.53811 19.9591 3.50739C20.2849 3.5707 20.4991 3.75689 20.4776 4.10043C20.4699 4.2416 20.407 4.37409 20.3025 4.46932C20.198 4.56455 20.0602 4.61491 19.9189 4.60954C19.7776 4.60416 19.6441 4.54349 19.5471 4.4406C19.4502 4.3377 19.3975 4.20082 19.4005 4.05946ZM5.79306 6.60458C5.67194 6.71523 5.556 6.8256 5.44224 6.9339L5.44223 6.93391C5.19225 7.1719 4.95275 7.39989 4.69172 7.59887C4.54462 7.71059 4.22157 7.79251 4.10799 7.70966C3.86407 7.53184 4.02513 7.30747 4.21319 7.13431C4.38357 6.97544 4.55394 6.81441 4.72432 6.65338L4.72437 6.65333L4.72442 6.65328L4.72448 6.65323L4.72453 6.65318L4.72459 6.65313L4.72464 6.65308L4.72469 6.65303L4.72475 6.65298L4.7248 6.65293L4.72485 6.65288L4.72491 6.65283L4.72496 6.65278L4.72501 6.65273L4.72507 6.65268L4.72512 6.65263L4.72518 6.65258L4.72523 6.65253L4.72531 6.65246C4.927 6.46184 5.12868 6.27123 5.33037 6.08417C5.77165 5.67919 5.82658 5.68757 6.2809 6.11489C6.6638 6.47331 7.0467 6.83058 7.43482 7.19273C7.82902 7.56055 8.22861 7.93339 8.63907 8.31759C8.8334 8.16641 9.02686 8.01621 9.21943 7.8667L9.22359 7.86347L9.22576 7.86179L9.22645 7.86125L9.22646 7.86125L9.22647 7.86124L9.22647 7.86124L9.22832 7.8598L9.22853 7.85964L9.22877 7.85946C9.59395 7.57594 9.95597 7.29488 10.3148 7.01421L10.9339 6.52789C11.9588 5.72293 12.9842 4.91764 14.0025 4.10397C14.292 3.87216 14.508 3.83026 14.7882 4.13655C16.1344 5.60926 17.4903 7.07516 18.8461 8.54092L18.8469 8.54181L18.8477 8.5427L18.8485 8.54359C19.3672 9.10432 19.8858 9.66503 20.4039 10.2261C20.4319 10.2564 20.4628 10.2861 20.4937 10.3158L20.4937 10.3159L20.4937 10.3159L20.4938 10.3159L20.4938 10.3159L20.4938 10.3159L20.4938 10.316L20.4939 10.316L20.4939 10.316L20.4939 10.316L20.4939 10.3161L20.4939 10.3161L20.494 10.3161L20.494 10.3161L20.494 10.3161L20.494 10.3162L20.4941 10.3162L20.4941 10.3162C20.5789 10.3979 20.6647 10.4804 20.6981 10.5799C20.7437 10.7158 20.7409 10.9402 20.6571 11.023C20.5733 11.1059 20.3331 11.0882 20.2251 11.0165C20.0873 10.9241 19.9719 10.792 19.857 10.6605L19.857 10.6604C19.8167 10.6143 19.7765 10.5682 19.7354 10.524C18.0665 8.7055 16.3963 6.89008 14.7249 5.07778C14.6556 5.00213 14.5855 4.92684 14.5121 4.84799L14.5116 4.84745L14.5115 4.84729C14.4659 4.79827 14.419 4.74786 14.3702 4.69514L9.18835 8.77191C9.31027 8.96814 9.49265 9.12636 9.67426 9.2839C10.0751 9.63161 10.4721 9.97602 10.2068 10.7186L5.79306 6.60458ZM14.7557 12.1719V11.1478C14.4421 11.1901 14.1307 11.2312 13.8211 11.272L13.8201 11.2722C13.1071 11.3662 12.4037 11.459 11.7049 11.5621C11.0746 11.6552 10.9862 11.5966 10.9852 10.9691C10.9852 10.7519 10.9861 10.5346 10.9869 10.3174C10.9885 9.88296 10.9902 9.4485 10.9852 9.01404C10.9796 8.61093 11.1714 8.4899 11.5438 8.55786C11.8258 8.60966 12.1077 8.66179 12.3897 8.71393L12.3908 8.71413C13.264 8.87559 14.1375 9.03711 15.0127 9.18906C15.3571 9.24865 15.4688 9.42647 15.4632 9.76348C15.4519 10.3849 15.4539 11.0064 15.456 11.6374V11.6375L15.456 11.6382C15.4568 11.888 15.4577 12.1392 15.4577 12.3926C16.4817 12.765 17.3308 13.3552 17.9611 14.2378C18.5767 15.0833 18.9067 16.1031 18.9032 17.1489C18.9032 17.5044 18.9024 17.8599 18.9016 18.2153V18.2157C18.8993 19.1635 18.8971 20.1113 18.9107 21.0591C18.9163 21.4808 18.7598 21.6679 18.3428 21.6437C18.2858 21.6403 18.2285 21.6418 18.1713 21.6433H18.1713H18.1712H18.1712H18.1712H18.1712H18.1712H18.1712H18.1711H18.1711H18.1711H18.1711H18.1711H18.171H18.171H18.171H18.171H18.171C18.1199 21.6446 18.0688 21.6459 18.0179 21.6437C17.9183 21.6374 17.8121 21.6402 17.7058 21.6429C17.4512 21.6495 17.196 21.6561 17.0292 21.5385C16.8891 21.4392 16.8507 21.194 16.8127 20.951C16.7969 20.85 16.7812 20.7493 16.7582 20.6597C16.4743 19.5648 15.3888 18.7977 14.2334 18.8806C13.0781 18.9634 12.1024 19.9121 12.0289 21.0842C11.9991 21.5581 11.7859 21.654 11.3837 21.6484C10.7736 21.6403 10.1635 21.643 9.55338 21.6457C9.24833 21.647 8.94328 21.6484 8.63823 21.6484C7.9521 21.6484 7.9521 21.6484 7.84876 20.9771C7.66256 19.8041 6.76789 18.9513 5.63954 18.8834C4.44975 18.8117 3.42939 19.5602 3.12589 20.7295C3.12147 20.7458 3.11643 20.7627 3.1114 20.7794C3.10266 20.8086 3.09397 20.8376 3.08865 20.8636C2.94156 21.6847 2.92666 21.7014 2.09251 21.6465C1.42034 21.6074 1.01257 21.249 1.00978 20.6224C0.996742 18.0467 0.996742 15.471 1.00978 12.8953C1.00978 12.3702 1.26579 12.1757 1.86907 12.1757L14.7557 12.1719ZM18.1957 17.4925H5.75498C5.72139 17.4925 5.68629 17.4958 5.65122 17.499L5.65117 17.499C5.57253 17.5064 5.49402 17.5137 5.43286 17.4841C5.26375 17.3915 5.10163 17.2866 4.94782 17.1704C5.09385 17.0462 5.24951 16.9338 5.41331 16.8343C5.47239 16.8028 5.55141 16.8108 5.6305 16.8187H5.63051H5.63052H5.63054H5.63055H5.63056H5.63057H5.63059H5.6306H5.63061H5.63063H5.63064H5.63065H5.63066H5.63068H5.63069H5.6307H5.63072C5.66621 16.8223 5.70172 16.8259 5.73543 16.8259H12.6582V12.8674H1.70336V16.8268H3.35398L3.39019 16.8267C3.63508 16.8259 3.90025 16.825 3.89581 17.1638C3.89146 17.4969 3.63238 17.4952 3.39305 17.4936L3.34467 17.4934H1.66891V20.3618C1.67543 20.9231 1.81042 21.0162 2.39228 20.8654C2.67158 19.3945 3.74686 18.3387 5.06885 18.2233C6.82282 18.0734 7.82455 18.835 8.59261 20.9148H11.312C11.7775 19.239 12.8016 18.281 14.1766 18.2205C15.8822 18.1451 16.7834 18.8629 17.5524 20.9045H18.1957V17.4925ZM18.1352 16.7998C18.2897 14.653 15.5871 12.4242 13.43 12.9037V16.7998H18.1352ZM12.4772 10.7596L12.4772 10.7596L12.4772 10.7596C13.1052 10.6633 13.7043 10.5715 14.307 10.5213C14.7808 10.4813 14.8535 10.2895 14.725 9.85658L11.676 9.30544C11.6731 9.36386 11.67 9.41742 11.6671 9.46762L11.667 9.46827L11.667 9.46863L11.667 9.46886L11.667 9.46901L11.667 9.46909L11.667 9.46914C11.6607 9.57828 11.6552 9.67156 11.6546 9.76441C11.6526 10.0114 11.653 10.2602 11.6534 10.5294C11.6535 10.6419 11.6537 10.7579 11.6537 10.8788V10.8825C11.9351 10.8427 12.2088 10.8007 12.4771 10.7596L12.4771 10.7596L12.4771 10.7596L12.4771 10.7596L12.4772 10.7596ZM7.05724 21.9383C7.14004 21.7292 7.18001 21.5055 7.17477 21.2806C7.17331 20.8268 6.99289 20.3919 6.67269 20.0703C6.35249 19.7487 5.91836 19.5664 5.46456 19.563C5.01041 19.5691 4.5763 19.751 4.25341 20.0704C3.93052 20.3898 3.74397 20.8219 3.73293 21.276C3.73177 21.5049 3.77644 21.7318 3.86431 21.9432C3.95219 22.1547 4.08149 22.3464 4.24459 22.507C4.4077 22.6677 4.60131 22.7941 4.81403 22.8788C5.02675 22.9635 5.25427 23.0048 5.48318 23.0002C5.70812 23.0017 5.93109 22.9581 6.13886 22.8719C6.34663 22.7857 6.53497 22.6586 6.69273 22.4983C6.85048 22.3379 6.97444 22.1475 7.05724 21.9383ZM4.5152 21.6909C4.4644 21.5653 4.439 21.431 4.44048 21.2955C4.43635 21.1599 4.46002 21.0249 4.51002 20.8988C4.56002 20.7727 4.63531 20.6582 4.73124 20.5622C4.82717 20.4663 4.94171 20.391 5.06783 20.341C5.19394 20.291 5.32895 20.2673 5.46456 20.2715C5.73847 20.2692 6.00206 20.3758 6.19741 20.5679C6.39275 20.7599 6.50386 21.0216 6.50632 21.2955C6.49988 21.5692 6.38785 21.8298 6.19368 22.0227C5.99951 22.2157 5.73825 22.3261 5.46456 22.3308C5.32913 22.3308 5.19504 22.3039 5.07006 22.2518C4.94508 22.1996 4.83169 22.1232 4.73644 22.0269C4.6412 21.9306 4.566 21.8164 4.5152 21.6909ZM14.413 23.0003C13.9593 23.0015 13.5237 22.8228 13.2016 22.5032C12.8796 22.1836 12.6975 21.7493 12.6953 21.2957C12.7005 20.8416 12.8818 20.4074 13.2011 20.0845C13.5203 19.7616 13.9525 19.5753 14.4065 19.565C14.6353 19.5634 14.8622 19.6078 15.0736 19.6953C15.2851 19.7829 15.4769 19.9119 15.6377 20.0748C15.7985 20.2376 15.925 20.4311 16.0098 20.6436C16.0946 20.8562 16.136 21.0836 16.1316 21.3124C16.1324 21.5369 16.0882 21.7593 16.0018 21.9664C15.9153 22.1736 15.7882 22.3613 15.6281 22.5186C15.4679 22.6759 15.2779 22.7996 15.0692 22.8823C14.8605 22.965 14.6374 23.0051 14.413 23.0003ZM13.401 21.3087C13.4018 21.444 13.4295 21.5778 13.4823 21.7023C13.5352 21.8268 13.6121 21.9397 13.7088 22.0343C13.8055 22.1289 13.92 22.2034 14.0456 22.2535C14.1713 22.3036 14.3056 22.3284 14.4409 22.3263C14.7143 22.3192 14.974 22.2051 15.1641 22.0085C15.3542 21.812 15.4596 21.5487 15.4575 21.2752C15.4549 21.1402 15.4256 21.0071 15.3713 20.8835C15.317 20.7599 15.2388 20.6483 15.1412 20.555C15.0436 20.4617 14.9285 20.3887 14.8026 20.34C14.6766 20.2914 14.5423 20.2681 14.4074 20.2716C14.2722 20.2701 14.1381 20.2961 14.0133 20.3481C13.8885 20.4001 13.7756 20.4769 13.6814 20.574C13.5873 20.671 13.5138 20.7862 13.4656 20.9125C13.4174 21.0388 13.3954 21.1736 13.401 21.3087ZM3.35386 10.5982C3.38453 10.6183 3.41451 10.638 3.43876 10.6583C3.48044 10.6424 3.51904 10.6312 3.55375 10.6212C3.6105 10.6047 3.65684 10.5912 3.68919 10.5652L3.80971 10.4532L3.80979 10.4531C4.44748 9.86024 5.08559 9.26698 5.70476 8.65394C5.77365 8.58598 5.76062 8.31134 5.68894 8.25362C5.58839 8.17355 5.33237 8.13538 5.25417 8.20428C4.57176 8.80476 3.9089 9.43038 3.25721 10.0662C3.18087 10.137 3.16039 10.3241 3.19205 10.4386C3.20892 10.5029 3.28325 10.5517 3.35386 10.5982ZM1.28456 10.6442C1.26371 10.6272 1.23695 10.61 1.2089 10.5921C1.14048 10.5482 1.06432 10.4995 1.04715 10.4348C1.03037 10.3718 1.02725 10.306 1.03801 10.2418C1.04877 10.1776 1.07315 10.1164 1.10953 10.0624C1.53126 9.63505 1.96696 9.2189 2.42501 8.83068C2.50973 8.75807 2.75457 8.78134 2.85884 8.85582C2.93611 8.91075 2.97242 9.18446 2.91098 9.24776C2.5376 9.63269 2.14512 9.99406 1.7525 10.3556L1.75249 10.3556L1.75248 10.3556L1.75234 10.3557L1.75225 10.3558L1.75222 10.3558C1.67014 10.4314 1.58805 10.507 1.50613 10.5828C1.47851 10.6024 1.44092 10.6098 1.39118 10.6197C1.36045 10.6258 1.32508 10.6329 1.28456 10.6442ZM20.2982 6.63884C20.2957 6.60112 20.2932 6.5634 20.295 6.52937H20.2782C20.2782 6.48641 20.2828 6.44071 20.2874 6.39503L20.2874 6.39499C20.2977 6.29219 20.308 6.18942 20.2661 6.11788C20.2133 6.02078 20.1154 5.95242 20.017 5.88374C19.9748 5.8543 19.9325 5.82481 19.8937 5.79297C19.8649 5.84047 19.8316 5.88857 19.7981 5.93711L19.7981 5.93713C19.7061 6.07028 19.6118 6.20673 19.5995 6.34318C19.5959 6.38384 19.59 6.42684 19.5841 6.47095L19.584 6.47106C19.5489 6.72992 19.5086 7.02736 19.8704 7.11962C19.9775 7.14755 20.1637 6.96787 20.2708 6.84684C20.309 6.80284 20.3036 6.72084 20.2982 6.63884ZM17.3812 4.4094C17.3125 4.42737 17.2397 4.42078 17.1754 4.39078C17.0497 4.30886 16.8775 4.17107 16.8784 4.05842C16.8794 3.94578 17.0432 3.7661 17.1707 3.72513C17.3648 3.66558 17.5718 3.66267 17.7675 3.71675C17.8806 3.74907 17.9789 3.83479 18.0774 3.92063C18.1207 3.95843 18.1641 3.99626 18.2088 4.02956C18.0707 4.16321 17.9239 4.28761 17.7694 4.40196C17.7252 4.42942 17.6615 4.42472 17.5679 4.41781C17.5156 4.41395 17.4539 4.4094 17.3812 4.4094ZM18.1557 2.74893L18.1557 2.749C18.2332 2.83958 18.3107 2.93021 18.3835 3.02321C18.7298 2.92639 18.9095 2.63127 18.7615 2.43483C18.5865 2.20279 18.3782 1.99793 18.1433 1.8269C17.9357 1.67515 17.5782 1.89114 17.6778 2.09223C17.7974 2.33011 17.9764 2.5394 18.1557 2.74893ZM18.6286 5.84257L18.6286 5.8426C18.4251 6.02164 18.2215 6.20073 17.987 6.31993C17.7794 6.42514 17.5522 6.07416 17.7077 5.85444C17.8762 5.61442 18.0839 5.4045 18.3221 5.23348C18.5316 5.07894 18.8044 5.26141 18.8882 5.62077C18.8001 5.6917 18.7144 5.76713 18.6286 5.84257ZM21.7465 6.29176C21.9569 6.437 22.238 6.2387 22.2995 5.90727C22.2128 5.83693 22.1282 5.7622 22.0437 5.68748C21.8396 5.50703 21.6355 5.32661 21.4011 5.2081C21.1991 5.1029 20.9533 5.45667 21.0994 5.65497C21.2789 5.9011 21.4975 6.11621 21.7465 6.29176ZM22.2843 4.41939C22.2539 4.41565 22.2193 4.41444 22.1829 4.41316C22.0923 4.40999 21.9903 4.40642 21.9119 4.3626C21.8561 4.33102 21.808 4.28739 21.7711 4.23489C21.7342 4.1824 21.7095 4.12234 21.6987 4.0591C21.6987 3.95204 21.8151 3.76398 21.9017 3.75094C22.1886 3.70551 22.4806 3.70237 22.7684 3.74163C22.8615 3.75653 23.0021 3.96321 22.9965 4.07492C22.9909 4.18664 22.8448 4.3235 22.7275 4.38122C22.6473 4.42067 22.5493 4.41924 22.4408 4.41765C22.3906 4.41691 22.3382 4.41615 22.2843 4.41939ZM4.07381 13.553C3.97595 13.5523 3.87813 13.5517 3.78041 13.5517C3.67205 13.5517 3.56369 13.5526 3.45547 13.5536L3.45523 13.5536H3.45514C3.23898 13.5554 3.02336 13.5573 2.8094 13.5517C2.5208 13.5424 2.36346 13.6783 2.36346 13.9576C2.36224 14.0435 2.36077 14.1293 2.35931 14.2152L2.35931 14.2153L2.35931 14.2153C2.35076 14.7172 2.3422 15.2197 2.38115 15.7181C2.39232 15.8568 2.63531 16.0812 2.7824 16.0905C3.43001 16.1319 4.07961 16.1319 4.72722 16.0905C4.86314 16.0812 5.08844 15.8457 5.09961 15.7014C5.12878 15.3221 5.12485 14.9409 5.12092 14.5595V14.5595V14.5594C5.11896 14.3687 5.11699 14.178 5.11916 13.9874C5.12661 13.6662 4.95438 13.5461 4.66112 13.5517C4.46559 13.5554 4.26964 13.5542 4.07383 13.553H4.07382H4.07381ZM4.40976 14.2462V15.4137L3.09242 15.4165V14.2462H4.40976ZM7.19628 16.109C7.09338 16.109 6.99049 16.1083 6.88746 16.1076C6.681 16.1061 6.47397 16.1047 6.2653 16.109C5.95249 16.1155 5.7998 15.9731 5.7998 15.6687V13.9994C5.7998 13.7034 5.93014 13.5423 6.2504 13.547C6.86764 13.5563 7.48581 13.5544 8.10398 13.547C8.40748 13.547 8.56947 13.6643 8.56202 13.9836C8.5595 14.1773 8.56136 14.3713 8.56322 14.5653V14.5653C8.56684 14.9439 8.57047 15.3224 8.54154 15.6985C8.53037 15.8418 8.31438 16.0569 8.16263 16.0858C7.94067 16.1287 7.70886 16.1201 7.47686 16.1114C7.3819 16.1079 7.28691 16.1044 7.19255 16.1044L7.19628 16.109ZM7.86193 14.2471H6.53714V15.4108H7.86193V14.2471ZM9.35977 16.0108C9.5093 16.1545 9.84875 16.1006 10.613 16.11C10.6943 16.1098 10.7757 16.1092 10.857 16.1086C11.0848 16.107 11.3125 16.1054 11.5402 16.1109C11.8679 16.1184 12.0197 15.9769 12.0122 15.6389C12.0011 15.0977 12.0011 14.5565 12.0122 14.0153C12.0197 13.6773 11.8661 13.5405 11.5365 13.5498C11.2993 13.5548 11.0622 13.5531 10.8253 13.5515C10.707 13.5506 10.5887 13.5498 10.4705 13.5498C9.81237 13.5578 9.50558 13.508 9.36371 13.6381C9.22483 13.7655 9.24399 14.0651 9.2463 14.7601C9.24953 15.5355 9.21239 15.8692 9.35977 16.0108ZM11.2954 14.2508V15.4201H9.99201V14.2508H11.2954Z" fill="black"/>
</svg>
