<svg width="24" height="24" viewBox="0 0 24 24" fill="none" xmlns="http://www.w3.org/2000/svg">
<path d="M1.77926 4.44687C1.34911 4.44687 1 4.79598 1 5.22613V20.4996C1 20.9297 1.34911 21.2788 1.77926 21.2788C2.20941 21.2788 2.55852 20.9297 2.55852 20.4996V5.22613C2.55852 4.79598 2.20941 4.44687 1.77926 4.44687ZM20.5999 2H6.64806C5.32332 2 4.24794 3.07538 4.24794 4.40011V20.3842C4.24794 21.709 5.32332 22.7844 6.64806 22.7844H20.5999C21.9246 22.7844 23 21.709 23 20.3842V4.40011C23 3.07538 21.9215 2 20.5999 2ZM13.6925 3.63956V9.98583L12.4177 9.17229C12.1465 8.99773 11.8348 8.91046 11.5262 8.91046C11.202 8.91046 10.8779 9.00397 10.5973 9.19411L9.49702 9.93908V3.63956H13.6925ZM21.4415 20.3842C21.4415 20.8487 21.0643 21.2258 20.5999 21.2258H6.64806C6.18362 21.2258 5.80646 20.8487 5.80646 20.3842V4.40011C5.80646 3.93568 6.18362 3.55852 6.64806 3.55852H7.93851V10.5968C7.93851 11.0456 8.18475 11.454 8.58062 11.6659C8.97648 11.8779 9.45339 11.8498 9.82743 11.6005L11.4732 10.4877C11.5044 10.4659 11.548 10.4659 11.5792 10.4877L13.4214 11.6659C13.6146 11.7906 13.839 11.8529 14.0604 11.8529C14.2567 11.8529 14.4531 11.8031 14.6308 11.7064C14.8178 11.6037 14.9738 11.4526 15.0824 11.2689C15.191 11.0852 15.2482 10.8756 15.2479 10.6622V3.55852H20.5968C21.0612 3.55852 21.4384 3.93568 21.4384 4.40011V20.3842H21.4415Z" fill="#549B43"/>
</svg>
