<svg width="24" height="24" viewBox="0 0 24 24" fill="none" xmlns="http://www.w3.org/2000/svg">
<path d="M4 12.2225C4 9.72863 4 7.23474 4 4.74085C4 2.46688 5.43512 1.01589 7.69322 1.01476C11.7923 1.01476 15.8917 1.01476 19.9915 1.01476C20.1423 1.01476 20.3202 0.970549 20.4381 1.03516C20.6229 1.16779 20.7952 1.16212 20.8224 1.43418C20.8496 1.70625 20.6592 1.83774 20.5005 1.9443C20.3656 2.03385 20.1366 1.99191 19.9484 1.99191C15.7919 1.99191 11.6355 1.99191 7.47897 1.99191C6.87898 1.98353 6.29634 2.19324 5.83932 2.58208C5.3823 2.97092 5.08198 3.51245 4.99415 4.10604C4.90538 4.6803 5.02383 5.2674 5.3283 5.76232C5.63277 6.25724 6.1034 6.62768 6.65599 6.80738C7.09146 6.92678 7.54228 6.98065 7.99362 6.96721C11.9793 6.97855 15.965 6.96721 19.9507 6.97401C20.9482 6.97401 20.9709 6.99895 20.9709 7.9761C20.9709 12.5482 20.9709 17.1204 20.9709 21.6925C20.9709 22.4803 20.9301 22.52 20.1286 22.52C15.6328 22.52 11.1363 22.52 6.63899 22.52C4.99982 22.5177 4.00567 21.5236 4 19.8742C4 17.3236 4 14.7731 4 12.2225ZM19.9677 7.91489H19.1685C15.7292 7.91489 12.2907 7.91489 8.85288 7.91489C7.52092 7.91489 6.15381 8.07813 5.01342 6.923C4.99529 7.24381 4.97828 7.40704 4.97828 7.56915C4.97828 11.6697 4.97828 15.7695 4.97828 19.8685C4.97828 20.9749 5.54508 21.5395 6.64465 21.5395C10.8956 21.5395 15.1465 21.5395 19.3975 21.5395C19.58 21.5395 19.7636 21.5224 19.9643 21.5111L19.9677 7.91489Z" fill="#549B43"/>
<path d="M13.2628 4.94034H8.3974C8.30332 4.94034 8.2081 4.94034 8.11401 4.94034C7.74219 4.94941 7.40212 4.87913 7.40778 4.42003C7.41459 3.98133 7.74786 3.95526 8.09587 3.95639C9.94361 3.96092 11.7917 3.96092 13.6402 3.95639C15.1672 3.95639 16.6952 3.95639 18.2222 3.95639C18.6053 3.95639 19.1223 3.8487 19.1291 4.4291C19.1347 4.98795 18.6393 4.93694 18.2426 4.93694L13.2628 4.94034Z" fill="#549B43"/>
<path d="M12.0332 15.9055C12.0332 15.2084 12.0038 14.5078 12.0525 13.8129C12.0673 13.6202 12.0922 13.2609 12.4583 13.2609C12.5225 13.2598 12.5862 13.2714 12.6459 13.295C12.7056 13.3186 12.76 13.3537 12.8062 13.3983C12.8523 13.443 12.8891 13.4962 12.9146 13.5551C12.9402 13.614 12.9538 13.6773 12.9548 13.7415C12.9926 15.1728 12.99 16.6053 12.9469 18.0389C12.9501 18.1045 12.9392 18.17 12.9149 18.231C12.8906 18.292 12.8535 18.3471 12.8062 18.3925C12.7588 18.438 12.7022 18.4727 12.6402 18.4944C12.5783 18.5162 12.5124 18.5243 12.447 18.5184C12.0276 18.5184 12.0707 18.1432 12.0559 17.9426C12.0026 17.2669 12.0332 16.5845 12.0332 15.9055Z" fill="#549B43"/>
<path d="M13.1583 11.1297C13.1731 11.5968 12.9033 11.8099 12.5076 11.8461C12.1324 11.8858 11.8014 11.5061 11.8196 11.1138C11.84 10.6752 12.12 10.4473 12.5144 10.4564C12.9089 10.4654 13.1821 10.6967 13.1583 11.1297Z" fill="#549B43"/>
</svg>
