<svg width="14" height="14" viewBox="0 0 14 14" fill="none" xmlns="http://www.w3.org/2000/svg">
<path d="M11.1766 2.07455C9.7047 0.602673 7.30783 0.602673 5.83751 2.07455L1.75939 6.14955C1.73283 6.17611 1.71876 6.21205 1.71876 6.24955C1.71876 6.28705 1.73283 6.32299 1.75939 6.34955L2.33595 6.92611C2.36231 6.95235 2.39798 6.96708 2.43517 6.96708C2.47236 6.96708 2.50804 6.95235 2.53439 6.92611L6.61251 2.85111C7.11877 2.34486 7.7922 2.06674 8.50783 2.06674C9.22345 2.06674 9.89689 2.34486 10.4016 2.85111C10.9078 3.35736 11.186 4.0308 11.186 4.74486C11.186 5.46049 10.9078 6.13236 10.4016 6.63861L6.24533 10.7933L5.57189 11.4667C4.9422 12.0964 3.91876 12.0964 3.28908 11.4667C2.98439 11.162 2.8172 10.7574 2.8172 10.3261C2.8172 9.89486 2.98439 9.49017 3.28908 9.18549L7.41252 5.06361C7.5172 4.96049 7.6547 4.90267 7.80158 4.90267H7.80314C7.95002 4.90267 8.08595 4.96049 8.18908 5.06361C8.29376 5.1683 8.35002 5.3058 8.35002 5.45267C8.35002 5.59799 8.2922 5.73549 8.18908 5.83861L4.81876 9.2058C4.7922 9.23236 4.77814 9.2683 4.77814 9.3058C4.77814 9.3433 4.7922 9.37924 4.81876 9.4058L5.39533 9.98236C5.42168 10.0086 5.45736 10.0233 5.49455 10.0233C5.53174 10.0233 5.56741 10.0086 5.59377 9.98236L8.96251 6.61361C9.27345 6.30267 9.44377 5.89017 9.44377 5.45111C9.44377 5.01205 9.27189 4.59799 8.96251 4.28861C8.32033 3.64642 7.27658 3.64799 6.63439 4.28861L6.23439 4.69017L2.51251 8.41049C2.25991 8.66161 2.05967 8.96039 1.92341 9.2895C1.78716 9.6186 1.7176 9.97148 1.71876 10.3277C1.71876 11.0511 2.00158 11.7308 2.51251 12.2417C3.0422 12.7699 3.73595 13.0339 4.4297 13.0339C5.12345 13.0339 5.8172 12.7699 6.34533 12.2417L11.1766 7.41361C11.8875 6.70111 12.2813 5.75267 12.2813 4.74486C12.2828 3.73549 11.8891 2.78705 11.1766 2.07455Z" fill="black" fill-opacity="0.45"/>
</svg>
