<svg width="20" height="20" viewBox="0 0 20 20" fill="none" xmlns="http://www.w3.org/2000/svg">
<path fill-rule="evenodd" clip-rule="evenodd" d="M17.809 9.60557C17.8088 9.73691 17.8087 9.86837 17.8087 9.99997C17.8087 10.1471 17.8089 10.2941 17.8091 10.441C17.8105 11.3699 17.8119 12.2934 17.7579 13.2226C17.6974 14.4726 17.4142 15.58 16.4981 16.4961C15.5841 17.4101 14.4747 17.6953 13.2247 17.7558C12.2799 17.809 11.3411 17.8079 10.3964 17.8069C10.2651 17.8068 10.1336 17.8066 10.002 17.8066C9.87072 17.8066 9.73951 17.8068 9.60839 17.8069C8.66498 17.8079 7.72595 17.809 6.77939 17.7558C5.52939 17.6953 4.42197 17.4121 3.50595 16.4961C2.59189 15.582 2.30673 14.4726 2.24619 13.2226C2.19303 12.2778 2.19407 11.3374 2.19511 10.3937C2.19526 10.2625 2.19541 10.1313 2.19541 9.99997C2.19541 9.86865 2.19526 9.73744 2.19511 9.60631C2.19407 8.66291 2.19303 7.72388 2.24619 6.77731C2.30673 5.52731 2.58994 4.41989 3.50595 3.50388C4.42001 2.58981 5.52939 2.30466 6.77939 2.24411C7.72421 2.19095 8.663 2.19199 9.60767 2.19304C9.73901 2.19318 9.87045 2.19333 10.002 2.19333C10.1334 2.19333 10.2646 2.19318 10.3957 2.19304C11.3391 2.19199 12.2781 2.19095 13.2247 2.24411C14.4747 2.30466 15.5821 2.58786 16.4981 3.50388C17.4122 4.41794 17.6974 5.52731 17.7579 6.77731C17.8111 7.72212 17.81 8.66091 17.809 9.60557ZM15.5001 15.5C15.7755 15.2265 15.9474 14.9609 16.0899 14.6054C16.441 13.7219 16.4222 11.7939 16.4101 10.5471C16.4081 10.3442 16.4063 10.1594 16.4063 9.99997C16.4063 9.8401 16.4082 9.65456 16.4101 9.45085C16.4223 8.20364 16.4411 6.27566 16.0919 5.39255C15.9493 5.03708 15.7774 4.77341 15.502 4.49802C15.2286 4.22263 14.963 4.05075 14.6075 3.90817C13.7244 3.55896 11.7964 3.57776 10.5492 3.58992C10.3455 3.59191 10.16 3.59372 10.0001 3.59372C9.84023 3.59372 9.65468 3.59191 9.45098 3.58992C8.20376 3.57776 6.27578 3.55896 5.39267 3.90817C5.0372 4.05075 4.77353 4.22458 4.49814 4.49802C4.22275 4.77146 4.05087 5.03708 3.9083 5.39255C3.55908 6.27566 3.57788 8.20364 3.59005 9.45086C3.59203 9.65456 3.59384 9.8401 3.59384 9.99997C3.59384 10.1599 3.59203 10.3454 3.59005 10.5491C3.57788 11.7959 3.55909 13.7226 3.9083 14.6074C4.05087 14.9629 4.22275 15.2265 4.49814 15.5019C4.77158 15.7773 5.0372 15.9492 5.39267 16.0918C6.27578 16.441 8.20376 16.4222 9.45097 16.41C9.65468 16.408 9.84023 16.4062 10.0001 16.4062C10.1595 16.4062 10.3443 16.408 10.5473 16.41C11.794 16.4221 13.722 16.4409 14.6056 16.0898C14.961 15.9472 15.2247 15.7754 15.5001 15.5ZM5.99406 9.99992C5.99406 7.78312 7.78312 5.99406 9.99992 5.99406C12.2167 5.99406 14.0058 7.78312 14.0058 9.99992C14.0058 12.2167 12.2167 14.0058 9.99992 14.0058C7.78312 14.0058 5.99406 12.2167 5.99406 9.99992ZM7.3964 9.99992C7.3964 11.4335 8.56633 12.6034 9.99992 12.6034C11.4335 12.6034 12.6034 11.4335 12.6034 9.99992C12.6034 8.56632 11.4335 7.3964 9.99992 7.3964C8.56633 7.3964 7.3964 8.56632 7.3964 9.99992ZM13.2343 5.83195C13.2343 5.31437 13.6523 4.8964 14.1698 4.8964C14.6874 4.8964 15.1034 5.31242 15.1054 5.83195C15.1054 6.35148 14.6874 6.7675 14.1698 6.7675C13.6523 6.7675 13.2343 6.34953 13.2343 5.83195Z" fill="#41285F"/>
</svg>
