<svg width="24" height="24" viewBox="0 0 24 24" fill="none" xmlns="http://www.w3.org/2000/svg">
<path d="M12.6499 20.231C12.2159 19.626 11.9796 19.0395 12.1321 18.3675C12.365 17.2933 13.1945 16.6549 14.3776 16.6515C16.2796 16.6515 18.1816 16.6515 20.0752 16.6515H20.578V15.5489C20.578 14.7663 20.578 14.7663 21.3069 14.6255C21.3222 14.6024 21.3336 14.5769 21.3405 14.5501C21.3991 13.8195 21.3991 13.8178 20.6701 13.8178H2.31876C1.59985 13.8178 1.56466 13.8647 1.73727 14.6758H2.26849C7.84546 14.6758 13.4213 14.6758 18.9961 14.6758C19.2742 14.6758 19.6948 14.5601 19.7049 14.9975C19.715 15.4349 19.2893 15.3327 19.0128 15.3327C13.6805 15.3327 8.34763 15.3327 3.0142 15.3327H2.39752C2.44779 16.3381 2.39752 17.3101 2.5651 18.2452C2.78462 19.4098 3.8722 20.1824 5.05865 20.2226C5.25747 20.2045 5.45774 20.2101 5.65522 20.2393C5.78426 20.2779 5.8781 20.4438 5.99038 20.551C5.8848 20.6482 5.78761 20.8192 5.67366 20.8309C3.25216 21.1091 1.80597 19.311 1.79927 17.5749C1.79927 16.8476 1.79927 16.1186 1.79927 15.3964C1.04852 15.078 0.931219 14.8517 1.03009 13.8882C1.08036 13.3938 1.41552 13.1944 1.88809 13.1592C1.83781 12.6196 1.98528 12.1889 2.50812 11.9526C2.57012 11.9242 2.60532 11.7851 2.61369 11.7063C2.75614 10.3305 3.42309 9.67695 4.76874 9.58645C4.82598 9.58265 4.88171 9.56645 4.93206 9.53896C4.98241 9.51147 5.02618 9.47335 5.06032 9.42726C5.58484 8.24584 7.20531 7.73808 8.43365 8.75695C9.99045 7.86711 10.8618 7.97604 11.7852 9.13902L13.5179 8.95134C14.1363 7.61072 14.7932 6.18296 15.4401 4.7619C15.6076 4.3748 15.8624 4.09159 16.3064 4.02121C16.5041 3.98012 16.7096 3.99901 16.8965 4.07544C17.0834 4.15187 17.2432 4.28237 17.3555 4.45021C17.4833 4.62458 17.5537 4.83437 17.557 5.05055C17.5603 5.26672 17.4963 5.47858 17.3739 5.65677C16.5595 7.01079 15.7434 8.36873 14.9256 9.73057C14.8502 9.85793 14.7882 9.99367 14.7195 10.1261L14.815 10.1948C14.9826 10.0171 15.1317 9.83614 15.2976 9.66354C16.3031 8.61115 17.5767 8.47542 18.6307 9.31498C19.3837 9.91975 19.9181 10.7543 20.1523 11.6912C20.2763 12.1554 20.3199 12.6414 20.402 13.1994C20.6366 13.1994 20.9299 13.1994 21.2232 13.1994C21.6806 13.2112 21.9488 13.4458 21.989 13.8949C22.0232 14.1499 22.0186 14.4087 21.9756 14.6624C21.9337 14.8534 21.808 15.1316 21.6656 15.1752C21.1963 15.3159 21.2366 15.6393 21.2215 16.003C21.2047 16.4353 21.2701 16.7001 21.756 16.8794C22.6425 17.2146 23.1386 18.22 22.966 19.1115C22.8876 19.5961 22.6394 20.037 22.2658 20.3554C21.8921 20.6738 21.4174 20.8489 20.9265 20.8493C16.3941 20.8594 11.8617 20.8594 7.32932 20.8493C7.10644 20.8493 6.86346 20.8493 6.86848 20.5427C6.87351 20.236 7.13158 20.2243 7.37121 20.2243L12.6499 20.231ZM13.8699 13.1709C14.0207 12.5006 14.1665 11.8739 14.2922 11.2505C14.3271 11.0847 14.3271 10.9135 14.2922 10.7478C14.2394 10.5157 14.1307 10.3 13.9755 10.1195C13.8204 9.93904 13.6234 9.79925 13.4018 9.71234C13.1802 9.62543 12.9408 9.59402 12.7043 9.62086C12.4678 9.64769 12.2414 9.73196 12.0449 9.86631C11.6227 10.1277 11.5422 10.1059 11.3327 9.68532C10.8434 8.66478 9.6201 8.49217 8.8593 9.33844C8.52415 9.71884 8.43533 9.71884 8.0985 9.34849C7.34273 8.51061 5.98703 8.74522 5.63009 9.8043C5.48765 10.23 5.30666 10.307 4.88604 10.24C3.95599 10.0724 3.15329 10.9103 3.30579 11.9024H10.3574C11.3529 11.9024 11.6243 12.1588 11.678 13.1659L13.8699 13.1709ZM15.1837 17.3134C14.8234 17.3134 14.5251 17.3134 14.2268 17.3134C14.0373 17.3074 13.8485 17.339 13.6713 17.4064C13.4941 17.4738 13.332 17.5757 13.1944 17.7061C13.0568 17.8365 12.9464 17.993 12.8696 18.1663C12.7929 18.3397 12.7512 18.5265 12.7471 18.7161C12.7341 18.9069 12.7601 19.0985 12.8233 19.279C12.8866 19.4596 12.9859 19.6254 13.1152 19.7664C13.2444 19.9075 13.401 20.0208 13.5754 20.0995C13.7498 20.1782 13.9383 20.2206 14.1296 20.2243C16.402 20.2511 18.6743 20.2477 20.9467 20.2243C21.3021 20.2193 21.6424 20.0798 21.899 19.8338C22.1555 19.5878 22.3093 19.2536 22.3292 18.8987C22.3912 18.1781 21.9471 17.4961 21.2433 17.3671C20.821 17.2883 20.3719 17.352 19.9026 17.352C19.9026 17.6503 19.9026 17.9335 19.9026 18.2167C19.9026 18.887 19.5474 19.2992 18.9676 19.311C18.3559 19.3244 17.9923 18.9306 17.9755 18.2267C17.9755 17.9335 17.9755 17.6402 17.9755 17.3436H17.1041C17.1041 17.7257 17.1276 18.0809 17.1041 18.4345C17.1002 18.5596 17.0705 18.6825 17.0169 18.7956C16.9633 18.9086 16.8868 19.0094 16.7924 19.0915C16.698 19.1737 16.5877 19.2354 16.4683 19.2729C16.3489 19.3103 16.223 19.3227 16.0986 19.3093C15.8531 19.2993 15.6214 19.1931 15.4534 19.0138C15.2853 18.8345 15.1945 18.5964 15.2004 18.3507C15.1753 18.0206 15.1837 17.6938 15.1837 17.3134ZM15.244 13.176C15.3613 11.6946 15.973 10.9019 17.0773 10.9103C17.5135 10.9295 17.9369 11.0643 18.304 11.3008C18.9743 11.718 19.1134 12.4269 19.0631 13.1776H19.6261C19.6511 13.1089 19.6679 13.0375 19.6764 12.9648C19.6647 11.5756 19.1519 10.4327 17.9738 9.65516C17.3873 9.26806 16.774 9.34514 16.2076 9.73895C15.4334 10.2785 14.996 11.0561 14.7664 11.9476C14.6891 12.3533 14.6382 12.7637 14.6139 13.176H15.244ZM6.7428 13.1944H10.3357C10.4211 13.1944 10.525 13.2262 10.5887 13.1944C10.7333 13.0948 10.8716 12.9862 11.0026 12.8693C10.8618 12.7587 10.7295 12.6397 10.5803 12.5442C10.5284 12.5124 10.4396 12.5442 10.3692 12.5442H3.17843C3.05173 12.5261 2.92255 12.5382 2.80138 12.5794C2.74296 12.6097 2.69204 12.6526 2.65233 12.7051C2.61261 12.7576 2.5851 12.8182 2.5718 12.8827C2.5718 12.9866 2.70084 13.1173 2.80808 13.181C2.91618 13.216 3.03112 13.2247 3.14324 13.2061L6.7428 13.1944ZM18.3358 13.1944C18.4257 12.9599 18.4398 12.7031 18.3761 12.4602C18.3124 12.2173 18.174 12.0005 17.9805 11.8404C17.7944 11.6839 17.5671 11.5842 17.3259 11.5532C17.0847 11.5222 16.8396 11.5613 16.6199 11.6656C16.4002 11.77 16.2152 11.9353 16.0868 12.1419C15.9585 12.3484 15.8922 12.5876 15.8959 12.8308C15.8959 13.0117 15.9059 13.2028 16.1875 13.1977C16.8913 13.1877 17.6018 13.1944 18.3274 13.1944H18.3358ZM14.1799 9.49764L14.3106 9.50602C15.1563 8.10172 15.9975 6.69798 16.8343 5.2948C16.8716 5.2455 16.8968 5.18814 16.908 5.12733C16.9191 5.06651 16.9158 5.00394 16.8984 4.94462C16.8809 4.88531 16.8498 4.83091 16.8076 4.78579C16.7653 4.74067 16.713 4.70609 16.655 4.68482C16.3684 4.5407 16.1791 4.70325 16.0685 4.94121C15.4216 6.33434 14.7832 7.73082 14.1531 9.13064C14.1095 9.23119 14.1682 9.37531 14.1799 9.49764ZM15.8406 17.3252C15.8252 17.676 15.8302 18.0274 15.8557 18.3776C15.8762 18.4456 15.9143 18.5072 15.966 18.556C16.0178 18.6048 16.0814 18.6392 16.1506 18.6557C16.2203 18.6392 16.2846 18.6049 16.3372 18.5561C16.3897 18.5074 16.4288 18.4459 16.4506 18.3776C16.4749 18.0273 16.48 17.676 16.4656 17.3252H15.8406ZM18.6157 17.3352C18.5979 17.6703 18.6029 18.0063 18.6307 18.3407C18.6475 18.4647 18.8335 18.5636 18.9424 18.6758C19.043 18.5736 19.2173 18.4798 19.2307 18.3675C19.2546 18.0234 19.259 17.6782 19.2441 17.3336L18.6157 17.3352Z" fill="black"/>
</svg>
