<svg width="20" height="20" viewBox="0 0 20 20" fill="none" xmlns="http://www.w3.org/2000/svg">
<path d="M5.62667 3.70667C5.62667 4.18075 5.45481 4.5837 5.11111 4.91556C4.76741 5.24741 4.32297 5.41333 3.77778 5.41333C3.2563 5.41333 2.82964 5.24741 2.49778 4.91556C2.16592 4.5837 2 4.18075 2 3.70667C2 3.20889 2.16592 2.8 2.49778 2.48C2.82964 2.16 3.26814 2 3.81333 2C4.35852 2 4.79111 2.16 5.11111 2.48C5.43111 2.8 5.60297 3.20889 5.62667 3.70667ZM2.10667 17.7511V6.76445H5.52V17.7511H2.10667ZM7.54667 10.2844C7.54667 9.26519 7.52297 8.09186 7.47556 6.76445H10.4267L10.6044 8.29333H10.6756C11.3867 7.10814 12.5126 6.51556 14.0533 6.51556C15.2385 6.51556 16.1926 6.91259 16.9156 7.70667C17.6385 8.50075 18 9.68 18 11.2444V17.7511H14.5867V11.6711C14.5867 10.083 14.0059 9.28889 12.8444 9.28889C12.0148 9.28889 11.4341 9.71556 11.1022 10.5689C11.0311 10.7111 10.9956 10.9956 10.9956 11.4222V17.7511H7.54667V10.2844Z" fill="#41285F"/>
</svg>
