<svg width="18" height="18" viewBox="0 0 18 18" fill="none" xmlns="http://www.w3.org/2000/svg">
<path fill-rule="evenodd" clip-rule="evenodd" d="M2 3.716V9.53582V15.4918C2.00545 16.4189 2.63235 17.0995 3.54038 17.105C5.87693 17.1163 8.21393 17.1163 10.5514 17.105C11.3117 17.1009 11.8951 16.6129 12.0312 15.8593C12.0875 15.5463 12.0843 15.2215 12.081 14.8986C12.0803 14.8234 12.0795 14.7484 12.0795 14.6736C12.0802 14.3258 11.874 14.1066 11.5847 14.1045C11.2954 14.1025 11.1034 14.2917 11.081 14.6321C11.0688 14.8167 11.0712 15.0027 11.0736 15.1886C11.0746 15.2639 11.0755 15.3391 11.0755 15.4142C11.0714 15.9601 10.9353 16.1023 10.3989 16.1023H3.69421C3.14967 16.1017 3.01353 15.9601 3.01353 15.4155V11.5016V3.67379C3.01421 3.19732 3.16941 3.00877 3.57782 3.00877C5.89213 3.00468 8.20645 3.00468 10.5208 3.00877C10.8727 3.00877 11.0551 3.19936 11.0653 3.55331C11.0694 3.68552 11.0683 3.81784 11.0672 3.95013C11.0658 4.12436 11.0644 4.29851 11.0748 4.47223C11.0959 4.82755 11.3035 5.02154 11.6058 5.00384C11.8889 4.98751 12.0652 4.7833 12.0741 4.44296C12.0777 4.27637 12.0765 4.10978 12.0753 3.94339C12.0747 3.86028 12.0741 3.77721 12.0741 3.69421C12.0741 2.63644 11.4376 2 10.3792 2H3.70851C2.63031 2 2 2.63303 2 3.716ZM14.2562 10.0491H14.6197L14.6558 10.1287C13.9724 10.8039 13.2903 11.4819 12.6096 12.1626C12.353 12.4199 12.3224 12.7017 12.5164 12.9059C12.724 13.1237 13.0487 13.123 13.3005 12.8712C14.2807 11.896 15.2548 10.9144 16.2227 9.92654C16.48 9.66447 16.48 9.44529 16.2227 9.18323C15.253 8.19715 14.2791 7.21538 13.3012 6.23793C13.0603 5.99765 12.7424 5.98608 12.5423 6.18007C12.3224 6.3938 12.3476 6.67629 12.6151 6.94856C13.2318 7.56662 13.8478 8.1849 14.4631 8.80341C14.5049 8.84562 14.5431 8.89136 14.5911 8.94875C14.619 8.98207 14.6501 9.01932 14.6871 9.06207H8.54326C8.41867 9.05713 8.29388 9.06282 8.17025 9.07909C8.09771 9.09123 8.02897 9.12 7.96941 9.16315C7.90985 9.20629 7.86108 9.26264 7.82693 9.32778C7.79278 9.39291 7.77417 9.46507 7.77256 9.5386C7.77096 9.61213 7.78639 9.68503 7.81766 9.7516C7.9395 10.0368 8.18386 10.0491 8.44116 10.0491H14.2562Z" fill="white"/>
</svg>
