<svg width="24" height="24" viewBox="0 0 24 24" fill="none" xmlns="http://www.w3.org/2000/svg">
<path fill-rule="evenodd" clip-rule="evenodd" d="M15.8944 8.60377C14.3557 8.56375 13.1149 7.28299 13.1494 5.76876C13.185 4.15669 14.4835 2.95043 16.1256 3.00157C17.6365 3.04937 18.8339 4.3646 18.785 5.91662C18.7554 6.65539 18.435 7.3525 17.8934 7.8559C17.3519 8.3593 16.6333 8.62813 15.8944 8.60377ZM11.0905 11.0841L11.2698 10.8979L11.2699 10.8977C11.5275 10.6304 11.7559 10.3932 11.9799 10.1502C12.2343 9.86773 12.5472 9.64409 12.8968 9.4949C13.2465 9.34571 13.6244 9.27455 14.0044 9.28638C15.32 9.29083 16.6352 9.29083 17.9501 9.28638C18.3309 9.27639 18.7093 9.34938 19.0591 9.50027C19.4089 9.65117 19.7217 9.87636 19.9757 10.1602C20.4238 10.6415 20.8747 11.1203 21.3258 11.5993C21.7511 12.0509 22.1765 12.5026 22.5995 12.9563C23.0809 13.4744 23.1265 13.9769 22.7462 14.3783C22.366 14.7796 21.8657 14.7641 21.3232 14.3049C21.1411 14.1508 20.9597 13.9956 20.7785 13.8405L20.7784 13.8404L20.7783 13.8404C20.3543 13.4775 19.9303 13.1148 19.4965 12.7651C19.4016 12.6897 19.2734 12.6542 19.1452 12.6187L19.1452 12.6187C19.0843 12.6018 19.0235 12.585 18.9662 12.5639C18.9467 12.6208 18.9221 12.6776 18.8975 12.7343C18.8438 12.8583 18.7902 12.9821 18.7895 13.1064C18.7807 14.8139 18.7805 16.5214 18.7803 18.2288C18.7802 18.9117 18.7801 19.5945 18.7795 20.2773C18.7795 20.3281 18.7745 20.379 18.7681 20.4449C18.7654 20.4727 18.7624 20.5032 18.7594 20.5375H13.9644C13.8054 19.6169 13.8743 18.8354 14.7048 18.2161C15.1781 17.8632 15.5931 17.4316 16.0072 17.0009C16.1476 16.8549 16.2879 16.709 16.4303 16.5662C16.8594 16.1371 16.8972 15.6768 16.5659 15.2844C16.2346 14.8919 15.7132 14.8697 15.2318 15.2455C14.968 15.4509 14.7081 15.6614 14.4483 15.8718L14.4482 15.8718C14.1035 16.1509 13.7589 16.4299 13.4052 16.6974C12.2278 17.5868 10.8826 17.5802 9.71854 16.6852C9.27203 16.3377 8.83367 15.9841 8.39497 15.6303L8.39489 15.6302C8.27216 15.5312 8.1494 15.4322 8.02642 15.3333C7.46387 14.8808 6.95913 14.8563 6.59669 15.2544C6.19645 15.6991 6.26983 16.1438 6.83794 16.6997C6.98077 16.8394 7.12086 16.9792 7.26003 17.118C7.67441 17.5314 8.08063 17.9366 8.52672 18.3095C9.05592 18.7542 9.34165 19.2367 9.2238 19.9338C9.20853 20.1344 9.20853 20.3358 9.2238 20.5364H3.50486C3.56088 20.2234 3.61625 19.9116 3.67148 19.6005L3.6715 19.6004L3.67154 19.6002C3.79386 18.9113 3.91548 18.2263 4.04184 17.5424C4.14006 16.9963 4.24262 16.4506 4.34521 15.9048L4.34521 15.9048C4.47486 15.215 4.60455 14.5249 4.72558 13.8335C4.75004 13.6923 4.69668 13.4344 4.61441 13.4021C4.53258 13.3795 4.44684 13.3747 4.36301 13.3881C4.27917 13.4016 4.19921 13.4329 4.12856 13.48C3.78057 13.7397 3.44334 14.0143 3.10576 14.2891L3.10575 14.2891C2.91163 14.4471 2.7174 14.6053 2.52095 14.7607C2.04288 15.1387 1.56371 15.1421 1.22907 14.7819C0.894428 14.4216 0.922222 13.9591 1.34025 13.5C1.71083 13.0976 2.08336 12.697 2.4559 12.2963L2.45603 12.2961C2.8781 11.8422 3.30018 11.3883 3.71943 10.9318C3.91381 10.7076 4.15559 10.5295 4.42729 10.4103C4.69899 10.2911 4.99379 10.2338 5.29036 10.2425L5.49943 10.2444C6.68949 10.255 7.88043 10.2656 9.07038 10.2425C9.85862 10.2136 10.5435 10.3759 11.0905 11.0841ZM11.5485 16.7041C12.1558 16.708 12.7404 16.473 13.1759 16.0497C13.6115 15.6264 13.8631 15.0489 13.8766 14.4417C13.8977 13.2076 12.8426 12.1381 11.5941 12.1269C11.2898 12.1179 10.9868 12.1697 10.7028 12.2792C10.4188 12.3887 10.1594 12.5538 9.93998 12.7647C9.72052 12.9756 9.54534 13.2282 9.42468 13.5077C9.30402 13.7872 9.24031 14.0879 9.23728 14.3923C9.23425 14.6967 9.29196 14.9986 9.40703 15.2804C9.52209 15.5622 9.69221 15.8183 9.90743 16.0335C10.1226 16.2488 10.3786 16.419 10.6604 16.5341C10.9422 16.6493 11.2441 16.7071 11.5485 16.7041ZM9.74165 8.07671C9.86518 7.75122 9.92124 7.40401 9.90642 7.05617H9.91198C9.92123 6.71487 9.86232 6.37515 9.73872 6.05688C9.61512 5.73861 9.42929 5.44818 9.19211 5.20258C8.95493 4.95698 8.67116 4.76114 8.3574 4.62652C8.04363 4.49189 7.70617 4.42117 7.36475 4.41851C7.02333 4.41585 6.68481 4.4813 6.36899 4.61102C6.05316 4.74074 5.76637 4.93213 5.52539 5.17401C5.28442 5.41588 5.09408 5.70338 4.96553 6.01968C4.83698 6.33598 4.77279 6.67474 4.77672 7.01615C4.75648 7.36371 4.80712 7.71175 4.92555 8.03914C5.04399 8.36652 5.22775 8.6664 5.46568 8.92056C5.7036 9.17473 5.99072 9.37786 6.30958 9.51762C6.62844 9.65738 6.97239 9.73085 7.32052 9.73357C7.66866 9.73629 8.01371 9.66819 8.33472 9.53342C8.65572 9.39865 8.94597 9.20002 9.18783 8.94961C9.4297 8.69919 9.61812 8.40221 9.74165 8.07671Z" fill="#41285F"/>
</svg>
