<svg width="18" height="18" viewBox="0 0 18 18" fill="none" xmlns="http://www.w3.org/2000/svg">
<g clip-path="url(#clip0_5652_14563)">
<rect width="18" height="18" fill="white" fill-opacity="0.01"/>
<g clip-path="url(#clip1_5652_14563)">
<path d="M18 7.20001C18 6.93001 17.91 6.66001 17.775 6.39001C17.415 5.71501 16.74 5.35501 16.065 5.35501H14.85L13.905 3.42001H14.85C15.12 3.37501 15.3 3.60001 15.3 3.87001V3.91501V4.72501C15.3 4.99501 15.48 5.17501 15.75 5.17501C16.02 5.17501 16.2 4.99501 16.2 4.72501V3.91501C16.2 3.91501 16.2 3.91501 16.2 3.87001V3.82501C16.155 3.10501 15.57 2.52001 14.85 2.52001H13.5L13.05 1.57501C12.825 1.12501 12.375 0.855011 11.88 0.855011C11.7 0.855011 11.52 0.900011 11.295 0.990011L8.145 2.52001H1.98H1.89C0.855 2.47501 0 3.33001 0 4.36501V4.41001V4.45501V15.21C0 16.29 0.9 17.19 1.98 17.19H16.02C17.1 17.19 18 16.29 18 15.21V7.20001ZM8.325 3.37501L9.54 2.79001L11.655 1.75501C11.7 1.71001 11.745 1.71001 11.835 1.71001C11.97 1.71001 12.105 1.75501 12.195 1.93501L12.87 3.28501L12.915 3.37501L13.86 5.31001H4.32L8.325 3.37501ZM1.98 3.37501H6.3L2.295 5.31001H1.89C1.35 5.35501 0.945 4.90501 0.9 4.41001C0.945 3.82501 1.395 3.37501 1.98 3.37501ZM17.1 15.21C17.1 15.795 16.605 16.29 16.02 16.29H1.98C1.395 16.29 0.9 15.795 0.9 15.21V5.94001C1.17 6.12001 1.53 6.21001 1.89 6.21001H2.43H2.475H14.13H14.4L16.2 6.25501C16.515 6.30001 16.83 6.52501 16.965 6.79501C17.01 6.88501 17.055 7.02001 17.055 7.15501V8.91001H13.095C12.06 8.91001 11.205 9.76501 11.205 10.8C11.205 11.835 12.06 12.69 13.095 12.69H17.1V15.21ZM17.1 11.79H13.14C12.6 11.79 12.15 11.34 12.15 10.8C12.15 10.26 12.6 9.81001 13.14 9.81001H17.1V11.79Z" fill="white"/>
</g>
</g>
<defs>
<clipPath id="clip0_5652_14563">
<rect width="18" height="18" fill="white"/>
</clipPath>
<clipPath id="clip1_5652_14563">
<rect width="18" height="18" fill="white"/>
</clipPath>
</defs>
</svg>
