<svg width="18" height="18" viewBox="0 0 18 18" fill="none" xmlns="http://www.w3.org/2000/svg">
<g clip-path="url(#clip0_5652_18141)">
<rect width="18" height="18" fill="white" fill-opacity="0.01"/>
<path d="M8.41467 13.542H2.14194C1.86922 13.542 1.64844 13.3212 1.64844 13.0485V4.04849C1.64844 3.77576 1.86922 3.55498 2.14194 3.55498H15.1419C15.4147 3.55498 15.6355 3.77576 15.6355 4.04849H16.6355L16.2069 3.59394C16.2069 3.46407 16.129 3.3342 16.038 3.24329C15.9471 3.15238 15.9601 2.82771 15.8303 2.82771C15.7004 2.82771 15.8822 2.90563 15.7913 2.99654C15.7004 3.08745 15.6484 3.21732 15.6484 3.34719V4.89264C15.6484 5.16537 15.8692 5.39913 16.1419 5.39913C16.4147 5.39913 16.6355 5.17836 16.6355 4.89264C16.6355 3.69784 16.6225 3.82771 16.6225 3.82771C16.116 3.84069 15.9342 3.56797 15.8432 3.47706C15.7523 3.38615 16.2848 3.04849 16.1549 3.04849C16.0251 3.04849 15.8822 2.89264 15.7913 2.99654C15.7004 3.08745 15.6484 3.21732 15.6484 3.34719V4.0355H16.6484C16.6484 3.20433 15.9731 2.54199 15.1549 2.54199H2.14194C1.31078 2.54199 0.648437 3.21732 0.648438 4.0355V13.0355C0.648438 13.8667 1.32376 14.529 2.14194 14.542H8.41467C8.6874 14.542 8.92117 14.3212 8.92117 14.0355C8.92117 13.7628 8.6874 13.542 8.41467 13.542Z" fill="white"/>
<path fill-rule="evenodd" clip-rule="evenodd" d="M13.5489 7.21143C12.2908 7.21143 11.2747 8.22755 11.2747 9.48562C11.2747 10.7437 12.2908 11.7598 13.5489 11.7598C14.807 11.7598 15.8231 10.7437 15.8231 9.48562C15.8231 8.22755 14.807 7.21143 13.5489 7.21143ZM14.5812 9.48562C14.5812 8.9211 14.1134 8.45336 13.5489 8.45336C12.9844 8.45336 12.5166 8.9211 12.5166 9.48562C12.5166 10.0501 12.9844 10.5179 13.5489 10.5179C14.1134 10.5179 14.5812 10.0501 14.5812 9.48562ZM13.3872 14.0184C11.8711 14.0184 10.6453 15.2281 10.6453 16.6797C10.6453 17.0184 10.355 17.3087 10.0001 17.2926C9.64529 17.2926 9.37109 17.0184 9.37109 16.6797C9.38722 14.5023 11.1775 12.7765 13.3711 12.7765C15.5646 12.7765 17.3711 14.5184 17.3711 16.6797C17.3711 17.0184 17.0969 17.2926 16.7582 17.2926C16.4195 17.2926 16.1453 17.0184 16.1453 16.6797C16.1292 15.2281 14.9195 14.0184 13.3872 14.0184Z" fill="white"/>
<path d="M3.87928 7.72259H9.54637C9.79024 7.72259 9.98766 7.52517 9.98766 7.26969C9.98766 7.02582 9.79024 6.8284 9.54637 6.8284H3.87928C3.63541 6.8284 3.43799 7.02582 3.43799 7.26969C3.42637 7.51356 3.62379 7.72259 3.87928 7.72259Z" fill="white"/>
<path d="M3.87928 10.9974H7.75799C8.00186 10.9974 8.19928 10.8 8.19928 10.5561C8.19928 10.3123 8.00186 10.1148 7.75799 10.1148H3.87928C3.63541 10.1148 3.43799 10.3123 3.43799 10.5561C3.42637 10.8 3.62379 10.9974 3.87928 10.9974Z" fill="white"/>
</g>
<defs>
<clipPath id="clip0_5652_18141">
<rect width="18" height="18" fill="white"/>
</clipPath>
</defs>
</svg>
