<svg width="24" height="24" viewBox="0 0 24 24" fill="none" xmlns="http://www.w3.org/2000/svg">
<path fill-rule="evenodd" clip-rule="evenodd" d="M19.6712 3.02771C20.8903 2.82453 22 3.76462 22 5.0005V16.8201C22 19.0292 20.2091 20.8201 18 20.8201C15.7909 20.8201 14 19.0292 14 16.8201C14 14.6109 15.7909 12.8201 18 12.8201C18.7286 12.8201 19.4117 13.0149 20 13.3552V9.0005L10 10.6672V17.8201C10 17.8793 9.99485 17.9373 9.98498 17.9937C9.99492 18.1011 10 18.21 10 18.3201C10 20.2531 8.433 21.8201 6.5 21.8201C4.567 21.8201 3 20.2531 3 18.3201C3 16.3871 4.567 14.8201 6.5 14.8201C7.0368 14.8201 7.54537 14.9409 8 15.1569V6.66716C8 5.68949 8.70682 4.8551 9.6712 4.69438L19.6712 3.02771ZM10 8.63958L20 6.97291V5.0005L10 6.66716V8.63958Z" fill="black"/>
</svg>
