<svg width="18" height="18" viewBox="0 0 18 18" fill="none" xmlns="http://www.w3.org/2000/svg">
<g clip-path="url(#clip0_3223_17760)">
<path d="M3.75 11.25H2.25V14.25C2.25 15.075 2.925 15.75 3.75 15.75H6.75V14.25H3.75V11.25ZM3.75 3.75H6.75V2.25H3.75C2.925 2.25 2.25 2.925 2.25 3.75V6.75H3.75V3.75ZM14.25 2.25H11.25V3.75H14.25V6.75H15.75V3.75C15.75 2.925 15.075 2.25 14.25 2.25ZM14.25 14.25H11.25V15.75H14.25C15.075 15.75 15.75 15.075 15.75 14.25V11.25H14.25V14.25ZM9 6.75C7.755 6.75 6.75 7.755 6.75 9C6.75 10.245 7.755 11.25 9 11.25C10.245 11.25 11.25 10.245 11.25 9C11.25 7.755 10.245 6.75 9 6.75Z" fill="white"/>
</g>
<defs>
<clipPath id="clip0_3223_17760">
<rect width="18" height="18" fill="white"/>
</clipPath>
</defs>
</svg>
