<svg width="18" height="18" viewBox="0 0 18 18" fill="none" xmlns="http://www.w3.org/2000/svg">
<g clip-path="url(#clip0_4649_30496)">
<path d="M17.2879 9.91602C17.4501 9.70748 17.5288 9.43867 17.457 9.16449L15.3275 1.09289C15.2039 0.626353 14.7242 0.346766 14.2585 0.470339L0.651122 4.05813C0.18691 4.18095 -0.0934639 4.66217 0.0285688 5.12792L2.15809 13.1987C2.28012 13.6645 2.76209 13.9441 3.22788 13.8221L8.03607 12.5538V15.2564C8.03607 16.768 10.541 17.559 13.0173 17.559C15.4921 17.559 18 16.768 18 15.2565V11.158C18 10.666 17.7304 10.252 17.2879 9.91602ZM15.7469 7.13383L15.9693 7.9742L13.2644 8.68867L13.0435 7.84676L15.7469 7.13383ZM14.1774 1.81664L14.5999 3.41706L10.3741 4.5324L9.95157 2.93198L14.1774 1.81664ZM12.2811 8.04757L12.4974 8.8694C11.4972 8.91419 10.524 9.08875 9.74227 9.38689L9.57698 8.7628L12.2811 8.04757ZM2.86404 11.4307L2.64314 10.5919L5.3473 9.8766L5.56974 10.72L2.86404 11.4307ZM6.10969 9.67657L8.81231 8.9621L9.01699 9.73218C8.95131 9.77236 8.88955 9.81404 8.82928 9.85654L6.33058 10.5162L6.10969 9.67657ZM17.0979 15.19C17.0979 16.0713 15.2719 16.785 13.0173 16.785C10.765 16.785 8.93746 16.0705 8.93746 15.19V14.1974C8.93746 14.1642 8.95676 14.1341 8.96216 14.1024C9.09114 14.9382 10.8476 15.6009 13.0173 15.6009C15.1877 15.6009 16.9449 14.9382 17.0731 14.1024C17.0786 14.1341 17.0979 14.1642 17.0979 14.1974V15.19ZM17.0979 13.2373C17.0979 14.1179 15.2719 14.8316 13.0173 14.8316C10.765 14.8316 8.93746 14.1179 8.93746 13.2373V12.2448C8.93746 12.2124 8.95676 12.1815 8.96216 12.1498C9.09114 12.9848 10.8476 13.649 13.0173 13.649C15.1877 13.649 16.9449 12.9848 17.0731 12.1498C17.0786 12.1815 17.0979 12.2124 17.0979 12.2448V13.2373ZM13.0172 12.7515C10.7649 12.7515 8.93742 12.0378 8.93742 11.158C8.93742 10.2783 10.7649 9.56457 13.0172 9.56457C15.2719 9.56457 17.0978 10.2783 17.0978 11.158C17.0979 12.0378 15.2719 12.7515 13.0172 12.7515Z" fill="#41285F"/>
</g>
<defs>
<clipPath id="clip0_4649_30496">
<rect width="18" height="18" fill="white"/>
</clipPath>
</defs>
</svg>
