<svg width="18" height="18" viewBox="0 0 18 18" fill="none" xmlns="http://www.w3.org/2000/svg">
<g clip-path="url(#clip0_5652_17991)">
<rect width="18" height="18" fill="white" fill-opacity="0.01"/>
<g clip-path="url(#clip1_5652_17991)">
<path fill-rule="evenodd" clip-rule="evenodd" d="M1.59531 17.1H8.48031C8.70531 17.1 8.93031 17.28 8.93031 17.55C8.93031 17.82 8.75031 18 8.48031 18H1.14531C0.875312 18 0.695312 17.82 0.695312 17.55V0.45C0.695312 0.18 0.875312 0 1.14531 0H5.06031C5.33031 0 5.51031 0.18 5.51031 0.45V1.575V1.62C5.51031 1.755 5.60031 1.845 5.73531 1.845H12.1253H12.1703C12.2603 1.845 12.3503 1.755 12.3503 1.62V0.495C12.3503 0.225 12.5303 0.045 12.8003 0.045H16.7603C17.0303 0.045 17.2103 0.225 17.2103 0.495V8.64C17.2103 8.91 17.0303 9.09 16.7603 9.09C16.4903 9.09 16.3103 8.91 16.3103 8.64V0.945H13.2503V1.62C13.2953 2.205 12.8453 2.7 12.2603 2.7C11.7993 2.73842 7.50147 2.71124 6.11355 2.70247C5.87564 2.70096 5.72324 2.7 5.69031 2.7C5.10531 2.7 4.65531 2.16 4.65531 1.575V0.9H1.59531V17.1ZM12.8441 6.12C12.8441 5.85 12.6641 5.67 12.3941 5.67H4.06914C3.79914 5.67 3.61914 5.85 3.61914 6.12C3.61914 6.39 3.79914 6.57 4.06914 6.57H12.3941C12.6191 6.57 12.8441 6.39 12.8441 6.12ZM12.3943 8.14499C9.69426 8.14499 7.48926 10.35 7.48926 13.05C7.48926 15.75 9.69426 17.955 12.3943 17.955C15.0943 17.955 17.2993 15.75 17.2993 13.05C17.2993 10.35 15.0943 8.18999 12.3943 8.14499ZM12.3943 17.055C10.1893 17.055 8.38926 15.255 8.38926 13.05C8.38926 10.845 10.1893 9.04499 12.3943 9.04499C14.5993 9.04499 16.3993 10.845 16.3993 13.05C16.3543 15.3 14.5993 17.055 12.3943 17.055ZM6.99414 9.31501C7.26414 9.31501 7.44414 9.49501 7.44414 9.76501C7.44414 9.99001 7.26414 10.215 6.99414 10.215H4.06914C3.79914 10.215 3.61914 10.035 3.61914 9.76501C3.61914 9.49501 3.79914 9.31501 4.06914 9.31501H6.99414ZM4.06914 12.465C3.79914 12.465 3.61914 12.645 3.61914 12.915C3.61914 13.185 3.79914 13.365 4.06914 13.365H6.31914C6.58914 13.365 6.76914 13.185 6.76914 12.915C6.76914 12.645 6.58914 12.465 6.31914 12.465H4.06914ZM13.2164 11.745C13.1696 11.467 13.045 11.2079 12.8568 10.998H13.984C14.0167 10.998 14.0491 10.9916 14.0793 10.979C14.1095 10.9665 14.137 10.9482 14.1601 10.9251C14.1832 10.902 14.2016 10.8745 14.2141 10.8443C14.2266 10.8141 14.233 10.7817 14.233 10.749C14.233 10.7163 14.2266 10.6839 14.2141 10.6537C14.2016 10.6235 14.1832 10.596 14.1601 10.5729C14.137 10.5498 14.1095 10.5315 14.0793 10.5189C14.0491 10.5064 14.0167 10.5 13.984 10.5H10.7471C10.7144 10.5 10.682 10.5064 10.6518 10.5189C10.6216 10.5315 10.5941 10.5498 10.571 10.5729C10.5479 10.596 10.5295 10.6235 10.517 10.6537C10.5045 10.6839 10.498 10.7163 10.498 10.749C10.498 10.7817 10.5045 10.8141 10.517 10.8443C10.5295 10.8745 10.5479 10.902 10.571 10.9251C10.5941 10.9482 10.6216 10.9665 10.6518 10.979C10.682 10.9916 10.7144 10.998 10.7471 10.998H11.7434C11.9642 10.998 12.1787 11.0714 12.3533 11.2066C12.5278 11.3418 12.6525 11.5312 12.7077 11.745H10.7471C10.7144 11.745 10.682 11.7514 10.6518 11.7639C10.6216 11.7764 10.5941 11.7948 10.571 11.8179C10.5479 11.841 10.5295 11.8685 10.517 11.8987C10.5045 11.9289 10.498 11.9613 10.498 11.994C10.498 12.0267 10.5045 12.0591 10.517 12.0893C10.5295 12.1195 10.5479 12.1469 10.571 12.17C10.5941 12.1932 10.6216 12.2115 10.6518 12.224C10.682 12.2365 10.7144 12.243 10.7471 12.243H12.7078C12.6527 12.4568 12.528 12.6462 12.3534 12.7815C12.1788 12.9167 11.9643 12.99 11.7434 12.9899H10.9961C10.7873 12.9899 10.6711 13.2315 10.8016 13.3946L12.7936 15.8845C12.814 15.9101 12.8393 15.9313 12.8679 15.9471C12.8966 15.9629 12.9281 15.9728 12.9606 15.9764C12.9931 15.98 13.026 15.9772 13.0574 15.9681C13.0888 15.959 13.1181 15.9438 13.1437 15.9234C13.1692 15.9029 13.1905 15.8777 13.2062 15.849C13.222 15.8203 13.232 15.7889 13.2356 15.7564C13.2392 15.7239 13.2364 15.691 13.2273 15.6595C13.2181 15.6281 13.2029 15.5988 13.1825 15.5733L11.5142 13.4879H11.7434C12.4841 13.4879 13.098 12.9497 13.2164 12.243H13.984C14.0167 12.243 14.0491 12.2365 14.0793 12.224C14.1095 12.2115 14.137 12.1932 14.1601 12.17C14.1832 12.1469 14.2016 12.1195 14.2141 12.0893C14.2266 12.0591 14.233 12.0267 14.233 11.994C14.233 11.9613 14.2266 11.9289 14.2141 11.8987C14.2016 11.8685 14.1832 11.841 14.1601 11.8179C14.137 11.7948 14.1095 11.7764 14.0793 11.7639C14.0491 11.7514 14.0167 11.745 13.984 11.745H13.2164ZM11.002 0.9H6.95195C6.72695 0.9 6.50195 0.72 6.50195 0.45C6.50195 0.18 6.68195 0 6.95195 0H11.002C11.272 0 11.452 0.18 11.452 0.45C11.452 0.72 11.272 0.9 11.002 0.9Z" fill="black"/>
</g>
</g>
<defs>
<clipPath id="clip0_5652_17991">
<rect width="18" height="18" fill="white"/>
</clipPath>
<clipPath id="clip1_5652_17991">
<rect width="18" height="18" fill="white"/>
</clipPath>
</defs>
</svg>
