<svg width="20" height="20" viewBox="0 0 20 20" fill="none" xmlns="http://www.w3.org/2000/svg">
<path d="M17.0722 13.0995L13.7909 11.6933C13.6507 11.6335 13.495 11.6209 13.347 11.6574C13.1991 11.6938 13.067 11.7774 12.9706 11.8954L11.5174 13.6708C9.23686 12.5956 7.40151 10.7602 6.32624 8.47962L8.10166 7.02647C8.21993 6.93028 8.30363 6.79818 8.34011 6.65016C8.37659 6.50215 8.36384 6.34627 8.30381 6.20615L6.89754 2.92484C6.83165 2.77378 6.71512 2.65045 6.56804 2.57611C6.42097 2.50177 6.25256 2.48108 6.09186 2.51761L3.04493 3.22074C2.89 3.25652 2.75177 3.34376 2.6528 3.46821C2.55383 3.59267 2.49996 3.747 2.5 3.90601C2.5 11.4208 8.59093 17.5 16.094 17.5C16.253 17.5001 16.4074 17.4463 16.532 17.3473C16.6565 17.2483 16.7438 17.11 16.7795 16.9551L17.4827 13.9081C17.519 13.7467 17.4978 13.5776 17.4229 13.43C17.348 13.2824 17.224 13.1655 17.0722 13.0995Z" fill="white" fill-opacity="0.8"/>
</svg>
