<svg width="20" height="20" viewBox="0 0 20 20" fill="none" xmlns="http://www.w3.org/2000/svg">
<path d="M11.0417 14.375C10.2084 14.375 9.40842 14.0167 8.83342 13.4167L7.84175 16.75L7.77508 16.9667L7.74175 16.95C7.53341 17.2917 7.17508 17.5 6.76675 17.5C6.14175 17.5 5.62508 16.9833 5.62508 16.35C5.62508 16.3 5.63341 16.25 5.64175 16.2L5.62508 16.1917L5.67508 16.0083L7.60008 10.2167C7.60008 10.2167 7.39175 9.58333 7.39175 8.68333C7.39175 6.89167 8.35842 6.35 9.12508 6.35C9.90008 6.35 10.6084 6.625 10.6084 7.71667C10.6084 9.11667 9.67508 9.83333 9.67508 10.8333C9.67508 11.6167 10.3084 12.2417 11.0751 12.2417C13.5084 12.2417 14.3751 10.4167 14.3751 8.7C14.3751 6.425 12.4084 4.58333 10.0001 4.58333C7.58342 4.58333 5.62508 6.425 5.62508 8.7C5.62508 9.4 5.83341 10.1 6.19175 10.7083C6.28341 10.875 6.33341 11.0583 6.33341 11.25C6.33341 11.3868 6.30647 11.5222 6.25412 11.6486C6.20177 11.775 6.12505 11.8898 6.02832 11.9866C5.93159 12.0833 5.81676 12.16 5.69038 12.2124C5.564 12.2647 5.42854 12.2917 5.29175 12.2917C4.92508 12.2917 4.58341 12.0833 4.39175 11.775C3.8371 10.8451 3.54346 9.78278 3.54175 8.7C3.54175 5.275 6.44175 2.5 10.0001 2.5C13.5584 2.5 16.4584 5.275 16.4584 8.7C16.4584 11.4333 14.7584 14.375 11.0417 14.375Z" fill="#41285F"/>
</svg>
