<svg width="24" height="24" viewBox="0 0 24 24" fill="none" xmlns="http://www.w3.org/2000/svg">
<path fill-rule="evenodd" clip-rule="evenodd" d="M16.2095 1.83733C14.8749 1.28452 13.4445 1 12 1C10.5555 1 9.12506 1.28452 7.79048 1.83733C6.4559 2.39013 5.24327 3.20038 4.22183 4.22183C3.20038 5.24327 2.39013 6.4559 1.83733 7.79048C1.28452 9.12506 1 10.5555 1 12C1 13.4445 1.28452 14.8749 1.83733 16.2095C2.39013 17.5441 3.20038 18.7567 4.22183 19.7782C5.24327 20.7996 6.4559 21.6099 7.79048 22.1627C9.12506 22.7155 10.5555 23 12 23C13.4445 23 14.8749 22.7155 16.2095 22.1627C17.5441 21.6099 18.7567 20.7996 19.7782 19.7782C20.7996 18.7567 21.6099 17.5441 22.1627 16.2095C22.7155 14.8749 23 13.4445 23 12C23 10.5555 22.7155 9.12506 22.1627 7.79048C21.6099 6.4559 20.7996 5.24327 19.7782 4.22183C18.7567 3.20038 17.5441 2.39013 16.2095 1.83733ZM6.82938 4.26176C8.3598 3.23881 10.1592 2.69264 12 2.69231H12.0017C14.4702 2.69231 16.8377 3.67294 18.5832 5.41847C20.3288 7.164 21.3094 9.53145 21.3094 12C21.3094 13.8408 20.7635 15.6403 19.7409 17.1709C18.7182 18.7015 17.2646 19.8945 15.564 20.599C13.8633 21.3036 11.9919 21.488 10.1865 21.129C8.38101 20.77 6.72253 19.8837 5.42076 18.5821C4.11899 17.2806 3.23238 15.6223 2.87305 13.8169C2.51372 12.0115 2.6978 10.1401 3.40202 8.43927C4.10624 6.73849 5.29896 5.28471 6.82938 4.26176ZM11.5552 16.9771C11.6835 17.0323 11.8215 17.0616 11.9612 17.0633C12.1009 17.0616 12.2389 17.0323 12.3673 16.9771C12.4957 16.922 12.6119 16.842 12.7094 16.7419C12.8068 16.6418 12.8836 16.5234 12.9353 16.3936C12.9869 16.2638 13.0125 16.1251 13.0105 15.9853C13.0105 15.3897 12.54 14.9073 11.9612 14.9073C11.3825 14.9073 10.912 15.3897 10.912 15.9853C10.91 16.1251 10.9355 16.2638 10.9872 16.3936C11.0389 16.5234 11.1156 16.6418 11.2131 16.7419C11.3105 16.842 11.4268 16.922 11.5552 16.9771ZM14.3745 11.0117C14.5812 10.7986 14.7547 10.5555 14.8889 10.2907C15.0345 10.0132 15.1072 9.68996 15.1072 9.31934C15.1072 8.85057 14.9803 8.41565 14.7265 8.01627C14.4726 7.61688 14.1138 7.30042 13.6468 7.06857C13.1831 6.83673 12.6466 6.71996 12.0391 6.71996C11.3842 6.71996 10.8139 6.85873 10.3231 7.13627C9.86444 7.38371 9.47828 7.74653 9.20277 8.18888C8.94724 8.61365 8.82031 9.03165 8.82031 9.44288C8.82448 9.6536 8.91141 9.85421 9.06231 10.0013C9.13709 10.0838 9.2286 10.1495 9.33074 10.1938C9.43287 10.2382 9.54328 10.2602 9.65462 10.2586C10.054 10.2586 10.3248 10.0132 10.4669 9.52242C10.6175 9.05196 10.802 8.69827 11.0203 8.45627C11.2386 8.21596 11.5771 8.09411 12.0391 8.09411C12.216 8.08731 12.3925 8.11567 12.5583 8.17755C12.7242 8.23942 12.8762 8.33358 13.0054 8.45457C13.1892 8.62634 13.3128 8.85273 13.3579 9.10022C13.403 9.34772 13.3672 9.60316 13.2559 9.82873C13.1729 9.98104 13.0714 10.1181 12.9529 10.2417C12.8345 10.3669 12.6398 10.5497 12.3708 10.7933C12.0662 11.0726 11.8225 11.3112 11.6431 11.5126C11.462 11.7157 11.3182 11.9492 11.2082 12.2166C11.0999 12.484 11.0457 12.8004 11.0457 13.1643C11.0457 13.457 11.1202 13.6753 11.2691 13.8243C11.341 13.8964 11.4269 13.9531 11.5214 13.9909C11.616 14.0287 11.7173 14.0469 11.8191 14.0443C12.2371 14.0443 12.4875 13.8192 12.5671 13.3673C12.5988 13.2177 12.6338 13.0687 12.672 12.9206C12.7266 12.7235 12.825 12.5413 12.9597 12.3875C13.0668 12.2627 13.181 12.144 13.3015 12.0321C13.8177 11.5532 14.1748 11.2147 14.3745 11.0117Z" fill="#549B43"/>
</svg>
