<svg width="24" height="24" viewBox="0 0 24 24" fill="none" xmlns="http://www.w3.org/2000/svg">
<path fill-rule="evenodd" clip-rule="evenodd" d="M3.38777 16.553L3.38779 16.553C3.59978 16.8868 3.79083 17.1876 3.93415 17.5093C3.97069 17.5915 3.87741 17.7304 3.78393 17.8696C3.74079 17.9338 3.6976 17.9981 3.66711 18.0569C3.62452 18.0122 3.57403 17.9693 3.52359 17.9265L3.52357 17.9265C3.41345 17.833 3.30359 17.7398 3.27682 17.6274C3.17412 17.1735 2.89475 16.9251 2.45517 16.9323C2.01558 16.9394 1.75778 17.1999 1.65713 17.6518C1.63365 17.7572 1.52053 17.8424 1.40554 17.929C1.34953 17.9711 1.29307 18.0136 1.2463 18.059C1.21811 17.998 1.17968 17.9368 1.14156 17.8761C1.0658 17.7554 0.991266 17.6367 1.00083 17.5256C1.05527 16.9577 1.40139 16.573 1.9252 16.349C1.94824 16.3391 1.97225 16.3293 1.99666 16.3193L1.9967 16.3192L1.99673 16.3192L1.99677 16.3192L1.9968 16.3192L1.99682 16.3192C2.1301 16.2645 2.27537 16.2049 2.34219 16.1017C2.66416 15.6043 2.97261 15.1019 3.27943 14.6022L3.27945 14.6021L3.27948 14.6021L3.27952 14.602L3.27955 14.602L3.27959 14.6019L3.27962 14.6018C3.4122 14.3859 3.54446 14.1705 3.67738 13.9562C2.86702 13.1297 2.71604 12.5129 3.13406 11.8188C3.53154 11.1623 4.14573 10.9882 5.26318 11.2732C5.26318 11.0307 5.25576 10.7899 5.24839 10.5509C5.23251 10.0359 5.2169 9.52976 5.27654 9.03402C5.62266 6.14649 7.7713 4.21162 10.7108 4.07524C10.7998 4.0712 10.8888 4.06359 11.0299 4.05154L11.03 4.05153L11.03 4.05153L11.03 4.05153L11.03 4.05153L11.0301 4.05152L11.0304 4.0515L11.0307 4.05147C11.1027 4.04532 11.1882 4.03802 11.2942 4.02944C11.2183 3.95357 11.1567 3.88604 11.1026 3.82666C11.0042 3.71875 10.9303 3.63777 10.8402 3.58262C10.2178 3.20297 9.94972 2.58211 10.1541 1.93579C10.3472 1.32409 10.9439 0.949534 11.6341 1.00551C12.2504 1.05539 12.7495 1.54088 12.8584 2.18923C12.9457 2.70323 12.6612 3.23758 12.162 3.55921C12.0118 3.67128 11.8959 3.82242 11.8272 3.99585C13.7612 4.08338 15.3408 4.75412 16.5517 6.21366C17.774 7.69254 17.8222 9.44624 17.7082 11.3027C18.6264 10.9384 19.3926 11.0615 19.8651 11.8992C20.2841 12.6422 20.013 13.3027 19.4019 13.8666C19.5111 14.0458 19.6194 14.2246 19.7274 14.4028L19.7275 14.403C20.0612 14.9538 20.3918 15.4996 20.7371 16.0356C20.8264 16.173 21.0123 16.2666 21.1736 16.3358C21.7169 16.573 22.0825 16.9557 22.1287 17.548C22.1373 17.6599 22.0506 17.7795 21.9644 17.8985C21.9258 17.9517 21.8874 18.0048 21.8576 18.0569C21.8156 18.0182 21.7648 17.9812 21.7139 17.9441C21.6029 17.8631 21.4918 17.7821 21.4735 17.6844C21.3841 17.206 21.113 16.9292 20.6518 16.9333C20.1907 16.9373 19.9329 17.2244 19.8415 17.6987C19.8238 17.7937 19.7079 17.871 19.5924 17.948C19.5397 17.9831 19.4871 18.0182 19.444 18.0549C19.4152 18.0051 19.3783 17.9552 19.3414 17.9053C19.2613 17.7969 19.1813 17.6886 19.1841 17.5826C19.2026 17.0045 19.5672 16.6289 20.0931 16.3297C19.9719 16.1315 19.855 15.9309 19.7384 15.7307L19.7383 15.7306L19.7382 15.7304L19.7381 15.7302L19.7381 15.7302L19.7381 15.7302L19.7381 15.7302L19.738 15.7302L19.738 15.7302C19.4444 15.2262 19.1524 14.7252 18.799 14.2737C18.6723 14.1123 18.4172 14.0495 18.1368 13.9805C18.0035 13.9477 17.8645 13.9135 17.7308 13.8666C17.7308 14.2462 17.7363 14.6203 17.7418 14.9902C17.7544 15.8482 17.7667 16.6841 17.7092 17.5155C17.6579 18.2768 17.5223 19.0809 17.207 19.7669C16.259 21.83 14.5674 22.9282 12.2822 22.9903C11.2346 23.0188 10.1366 22.9994 9.13833 22.7267C6.78325 22.0814 5.25189 19.9277 5.22005 17.4697C5.20977 16.6906 5.2132 15.9097 5.21663 15.1297V15.1297V15.1296V15.1296V15.1295V15.1294V15.1293V15.1293V15.1293V15.1292V15.1292C5.21834 14.7396 5.22005 14.3501 5.22005 13.9613C4.66235 13.9755 4.29568 14.1709 4.05432 14.6595C3.84932 15.0579 3.60403 15.4374 3.39111 15.7668C3.3 15.9078 3.21481 16.0396 3.14125 16.1597C3.22543 16.2974 3.30808 16.4275 3.38777 16.553ZM5.94413 9.97245C5.93093 10.0489 5.92167 10.1261 5.9164 10.2035C5.9164 10.851 5.91531 11.4984 5.91421 12.1458C5.91107 14.0069 5.90792 15.8678 5.93078 17.7292C5.93511 18.0775 6.02768 18.4253 6.12012 18.7726C6.15923 18.9195 6.19832 19.0664 6.23069 19.2132C6.28923 19.4819 6.45253 19.5806 6.74422 19.5806C7.98513 19.5766 9.22604 19.5757 10.4669 19.5749H10.4678C12.3909 19.5736 14.3138 19.5722 16.2364 19.5592C16.3967 19.5592 16.6596 19.376 16.6976 19.2325L16.7193 19.1492C16.8608 18.6085 17.0061 18.053 17.0129 17.5022C17.0387 15.6962 17.0341 13.8896 17.0296 12.0833C17.0282 11.5167 17.0267 10.9501 17.0262 10.3836C17.0262 10.2959 17.0169 10.2081 17.0071 10.1153C17.0023 10.0704 16.9974 10.0243 16.9934 9.97652L5.94413 9.97245ZM5.9503 9.22334H16.9882C16.9882 7.37092 15.5062 5.48389 13.5424 5.00145C12.7163 4.79802 11.8296 4.79099 10.9681 4.78416L10.9018 4.78364C8.23861 4.76633 6.2615 6.53631 5.9503 9.22334ZM6.82947 20.2849C8.27456 22.2045 9.87679 22.5027 12.6838 22.2839C14.1083 22.173 15.2515 21.5022 16.1512 20.2849H6.82947ZM18.5381 13.4015C18.7539 13.3935 18.9588 13.3053 19.112 13.1544C19.2652 13.0035 19.3555 12.801 19.3649 12.5872C19.3577 12.3795 19.2701 12.1825 19.1203 12.037C18.9704 11.8915 18.7699 11.8088 18.5602 11.8059C18.3504 11.803 18.1476 11.8802 17.9938 12.0215C17.84 12.1628 17.7469 12.3574 17.7339 12.5648C17.737 12.7786 17.8213 12.9835 17.97 13.1385C18.1186 13.2935 18.3207 13.3874 18.536 13.4015H18.5381ZM5.21183 12.5913C5.21397 12.4858 5.19443 12.381 5.1544 12.2832C5.11437 12.1855 5.05468 12.0968 4.97896 12.0226C4.90325 11.9484 4.8131 11.8903 4.714 11.8518C4.61489 11.8132 4.50891 11.7951 4.4025 11.7984C4.19662 11.8026 4.00036 11.8855 3.85484 12.0299C3.70933 12.1743 3.62586 12.3689 3.62192 12.573C3.61773 12.7862 3.69811 12.9925 3.8458 13.1476C3.99349 13.3028 4.1967 13.3943 4.41174 13.4025C4.5183 13.4022 4.62375 13.3809 4.72192 13.3399C4.82009 13.2988 4.90901 13.2387 4.9835 13.1632C5.05798 13.0877 5.11654 12.9982 5.15574 12.9C5.19495 12.8018 5.21401 12.6969 5.21183 12.5913ZM11.4575 1.6905C11.2767 1.69371 11.1046 1.76725 10.9781 1.89523C10.8516 2.02321 10.7811 2.19536 10.7816 2.37447C10.7827 2.46642 10.8024 2.55722 10.8393 2.64156C10.8763 2.7259 10.9298 2.80209 10.9969 2.86565C11.0639 2.92922 11.1431 2.97888 11.2298 3.01174C11.3164 3.0446 11.4088 3.05999 11.5016 3.05701C11.5943 3.05403 11.6855 3.03274 11.7699 2.99439C11.8542 2.95603 11.9299 2.90139 11.9927 2.83365C12.0554 2.76592 12.1039 2.68646 12.1353 2.59992C12.1667 2.51338 12.1803 2.42151 12.1754 2.32969C12.1707 2.24098 12.1483 2.15407 12.1097 2.07393C12.071 1.99378 12.0168 1.92197 11.9501 1.86261C11.8835 1.80324 11.8056 1.75749 11.7211 1.72795C11.6365 1.69842 11.547 1.6857 11.4575 1.6905ZM8.57047 15.6959C8.44241 15.6517 8.31665 15.6093 8.19258 15.5676C7.93653 15.4814 7.68768 15.3976 7.44069 15.305C6.99289 15.1361 6.93435 14.959 7.22912 14.6017C8.173 13.4638 9.12098 12.3279 10.0875 11.2093C10.1571 11.1279 10.2895 11.1003 10.4211 11.0729C10.4835 11.0598 10.5458 11.0469 10.601 11.0282C10.6124 11.0866 10.6313 11.1473 10.6503 11.2079C10.691 11.3383 10.7316 11.4684 10.6965 11.5747C10.5127 12.1399 10.3057 12.6974 10.0888 13.2814L10.0888 13.2814C10.01 13.4935 9.92992 13.7092 9.84918 13.93C9.98599 13.9747 10.1204 14.0185 10.2531 14.0617C10.5458 14.1571 10.8301 14.2497 11.1135 14.3442C11.6466 14.5203 11.703 14.7239 11.3189 15.134C10.3576 16.1824 9.38905 17.2328 8.39587 18.2638C8.30848 18.3546 8.16693 18.3941 8.0253 18.4337C7.96053 18.4517 7.89574 18.4698 7.83612 18.4928C7.82831 18.4264 7.81318 18.3576 7.79805 18.2888C7.76542 18.1405 7.73276 17.992 7.77346 17.8669C7.9421 17.3524 8.13482 16.8458 8.33219 16.3269L8.3322 16.3269L8.33227 16.3267C8.41134 16.1188 8.49116 15.909 8.57047 15.6959ZM10.3802 14.8417L10.3802 14.8417L10.3801 14.8417C10.2736 14.8051 10.1845 14.7744 10.0946 14.7462L10.0918 14.7453L10.0918 14.7453C9.55667 14.5768 9.29171 14.4933 9.19616 14.3177C9.10245 14.1455 9.17166 13.8846 9.30874 13.3678L9.30894 13.3671C9.30884 13.3147 9.30263 13.2624 9.29045 13.2114L8.00045 14.7656L8.62901 14.9691C9.46403 15.2501 9.47327 15.2684 9.17747 16.0684L9.02444 16.4837L9.08709 16.5213L10.5897 14.9132C10.5118 14.8869 10.4435 14.8635 10.3812 14.842L10.3804 14.8418L10.3802 14.8417ZM14.0887 15.4599H14.0887H14.0887H14.0887H14.0887C14.1896 15.4568 14.2904 15.4536 14.3906 15.4536C14.7819 15.4701 15.1739 15.4647 15.5646 15.4373C15.6608 15.4296 15.7484 15.3358 15.8359 15.2421L15.8359 15.2421L15.8359 15.2421L15.8359 15.2421L15.8359 15.2421C15.8763 15.1988 15.9167 15.1555 15.9579 15.1207C15.9115 15.0805 15.8664 15.0294 15.8216 14.9789L15.8216 14.9789C15.7306 14.8762 15.6414 14.7754 15.5471 14.7706C14.8169 14.736 14.0835 14.736 13.3533 14.7706C13.2593 14.7754 13.1676 14.8748 13.0751 14.9751C13.0312 15.0227 12.9871 15.0705 12.9425 15.1085C12.9875 15.1448 13.0312 15.1886 13.075 15.2324L13.075 15.2324C13.17 15.3276 13.2649 15.4226 13.3718 15.4393C13.6064 15.4752 13.8476 15.4676 14.0887 15.4599ZM14.4362 13.0257C14.332 13.0257 14.2277 13.0286 14.1234 13.0315C13.8687 13.0387 13.614 13.0458 13.3619 13.0104C13.2573 12.9957 13.1644 12.8991 13.0715 12.8025L13.0715 12.8025L13.0714 12.8025L13.0714 12.8025C13.0293 12.7586 12.9871 12.7148 12.9439 12.6786C12.9848 12.6435 13.0254 12.5993 13.0661 12.555C13.1539 12.4593 13.2418 12.3635 13.3331 12.36C14.0839 12.3295 14.8378 12.3305 15.5927 12.36C15.6798 12.3642 15.7625 12.4659 15.8452 12.5676L15.8453 12.5676L15.8453 12.5676L15.8453 12.5676C15.8835 12.6146 15.9217 12.6616 15.9604 12.699C15.9201 12.7323 15.8807 12.7729 15.8413 12.8134L15.8413 12.8134L15.8413 12.8135L15.8413 12.8135C15.7531 12.9043 15.665 12.9952 15.567 13.0043C15.1908 13.0335 14.8132 13.0406 14.4362 13.0257ZM14.7936 17.1786C14.6921 17.1812 14.5905 17.1838 14.4893 17.1838C14.3906 17.1838 14.2916 17.1815 14.1927 17.1792H14.1927H14.1927C13.9326 17.1731 13.6731 17.167 13.4201 17.2032C13.3124 17.2164 13.2139 17.3018 13.1156 17.387C13.0705 17.4262 13.0254 17.4653 12.9795 17.4973C13.021 17.5349 13.062 17.5819 13.1031 17.6288L13.1031 17.6289C13.1934 17.732 13.2838 17.8354 13.379 17.8403C14.1093 17.8729 14.8426 17.8709 15.5739 17.8403C15.6646 17.8335 15.7526 17.7447 15.8402 17.6561C15.8836 17.6124 15.9268 17.5687 15.9703 17.535C15.9268 17.498 15.8847 17.4532 15.8426 17.4085L15.8426 17.4085C15.7517 17.3118 15.6614 17.2158 15.5595 17.2011C15.3077 17.1654 15.0507 17.172 14.7936 17.1786ZM13.5402 6.16459C13.8156 6.15664 14.083 6.25731 14.2836 6.4445C14.4843 6.63169 14.6018 6.89012 14.6104 7.16307C14.6165 7.43814 14.5121 7.70435 14.3202 7.90315C14.1282 8.10195 13.8645 8.21704 13.5869 8.22312C13.4494 8.22613 13.3128 8.20228 13.1846 8.15293C13.0565 8.10359 12.9394 8.02972 12.8401 7.93554C12.6395 7.74533 12.5233 7.48394 12.5172 7.20887C12.5139 6.93618 12.6196 6.67329 12.8113 6.47762C13.003 6.28195 13.265 6.16941 13.5402 6.16459ZM13.5689 6.73864C13.5183 6.79888 13.4624 6.85418 13.4113 6.90469C13.3123 7.00267 13.2315 7.08263 13.2423 7.14576C13.258 7.24141 13.3514 7.32474 13.4448 7.40809C13.4856 7.44447 13.5264 7.48086 13.5607 7.51828C13.5955 7.48259 13.6362 7.44798 13.6769 7.41335C13.7732 7.33145 13.8696 7.24946 13.8883 7.15289C13.9013 7.08999 13.8208 7.00731 13.7223 6.90605C13.6725 6.85493 13.6182 6.79908 13.5689 6.73864ZM8.43375 6.80742C8.38569 6.9337 8.36407 7.06835 8.37021 7.20317C8.37345 7.47549 8.48475 7.73561 8.68004 7.92723C8.87533 8.11885 9.13889 8.22657 9.41372 8.22709C9.68794 8.21352 9.94643 8.09613 10.1358 7.89915C10.3252 7.70218 10.4311 7.44065 10.4315 7.16856C10.4298 7.03394 10.4012 6.90099 10.3472 6.77742C10.2933 6.65385 10.2151 6.54211 10.1173 6.44868C10.0195 6.35524 9.90395 6.28197 9.77736 6.2331C9.65076 6.18423 9.51564 6.16074 9.37982 6.16398C9.24364 6.16301 9.10868 6.18953 8.98317 6.24191C8.85766 6.29429 8.74422 6.37144 8.64977 6.46867C8.55531 6.56589 8.48182 6.68115 8.43375 6.80742ZM9.66924 7.03003C9.72579 7.07559 9.78853 7.12613 9.86049 7.17569C9.7871 7.2328 9.72232 7.29215 9.66537 7.34432C9.55893 7.44183 9.47983 7.51429 9.42296 7.50037C9.34512 7.4749 9.27438 7.43171 9.21641 7.37426C9.15845 7.31682 9.11486 7.24672 9.08916 7.16958C9.06656 7.08917 9.27198 6.86424 9.37469 6.86424C9.46428 6.86492 9.55388 6.9371 9.66924 7.03003Z" fill="black"/>
</svg>
