<svg width="16" height="16" viewBox="0 0 16 16" fill="none" xmlns="http://www.w3.org/2000/svg">
<g clip-path="url(#clip0_4809_29577)">
<path d="M15.8042 3.30175L12.6983 0.195767C12.5729 0.0704306 12.4029 0 12.2256 0H0.668344C0.299212 0 0 0.299251 0 0.668344V15.3317C0 15.7008 0.299212 16 0.668344 16H15.3317C15.7008 16 16 15.7008 16 15.3317V3.77432C16 3.59711 15.9296 3.42708 15.8042 3.30175ZM11.8169 6.42864H2.63836V1.52738H11.8169V6.42864Z" fill="white" fill-opacity="0.8"/>
<path d="M8.41222 5.82307H10.1054C10.2284 5.82307 10.3282 5.72332 10.3282 5.60026V2.34179C10.3282 2.21877 10.2284 2.11902 10.1054 2.11902H8.41222C8.28916 2.11902 8.18945 2.21877 8.18945 2.34179V5.60026C8.18945 5.72332 8.28916 5.82307 8.41222 5.82307Z" fill="white" fill-opacity="0.8"/>
</g>
<defs>
<clipPath id="clip0_4809_29577">
<rect width="16" height="16" fill="white"/>
</clipPath>
</defs>
</svg>
