<svg width="24" height="24" viewBox="0 0 24 24" fill="none" xmlns="http://www.w3.org/2000/svg">
<path fill-rule="evenodd" clip-rule="evenodd" d="M21.9872 10.286C22.6452 9.30636 22.9977 8.15348 23 6.97338C22.9965 5.39819 22.3723 3.88787 21.2628 2.76975C20.1532 1.65163 18.6478 1.01581 17.0727 1.0001C15.8926 0.99328 14.737 1.33684 13.7523 1.98726C12.7677 2.63768 11.9982 3.56571 11.5413 4.65379C11.0844 5.74188 10.9608 6.94107 11.186 8.09949C11.4112 9.25791 11.9751 10.3234 12.8064 11.1611C13.6376 11.9988 14.6987 12.5709 15.8554 12.8051C17.012 13.0392 18.2121 12.9248 19.3037 12.4764C20.3953 12.0279 21.3292 11.2656 21.9872 10.286ZM18.4281 8.29439H15.708V5.59493C15.9932 5.59493 16.2769 5.59338 16.5595 5.59185C17.1213 5.58879 17.6787 5.58576 18.2352 5.59493C18.2818 5.6096 18.3239 5.63583 18.3577 5.67118C18.3914 5.70653 18.4157 5.74985 18.4281 5.7971V8.29439ZM18.2099 4.67596H15.6827C15.6827 4.56126 15.6826 4.4477 15.6825 4.3351C15.6817 3.62904 15.6809 2.96129 15.7126 2.29354C15.7287 2.23912 15.7581 2.18959 15.7983 2.14946C15.8384 2.10933 15.8879 2.07988 15.9423 2.0638C16.6936 2.04083 17.4449 2.04083 18.1961 2.0638C18.2788 2.0684 18.4258 2.2453 18.4258 2.34409C18.4465 3.0448 18.4442 3.757 18.4258 4.44622C18.4122 4.49964 18.3852 4.54874 18.3475 4.58891C18.3097 4.62909 18.2624 4.65904 18.2099 4.67596ZM21.6905 8.30817C20.9346 8.31966 20.1512 8.31966 19.3264 8.31966C19.3264 8.04562 19.3255 7.77882 19.3246 7.51741C19.3227 6.94607 19.3209 6.4005 19.3287 5.86143C19.3459 5.79827 19.3789 5.74058 19.4248 5.69391C19.4707 5.64723 19.5278 5.61315 19.5906 5.59493C20.2845 5.57195 20.9737 5.57195 21.6583 5.59493C21.7247 5.60947 21.7864 5.64013 21.8381 5.68421C21.8898 5.72829 21.9298 5.78442 21.9547 5.84764C21.9761 6.58435 21.9761 7.32182 21.9547 8.06005C21.9352 8.12039 21.9008 8.17481 21.8546 8.21821C21.8084 8.2616 21.7519 8.29256 21.6905 8.30817ZM12.3882 5.56276H14.7316L14.7224 8.27142H12.1953C11.937 7.45061 11.9243 6.57223 12.1585 5.74426C12.1785 5.6972 12.2101 5.65591 12.2502 5.6242C12.2904 5.59249 12.3378 5.57137 12.3882 5.56276ZM15.6712 9.27079H18.4281C18.4281 9.38052 18.4283 9.48977 18.4285 9.59861C18.4296 10.276 18.4307 10.9376 18.3891 11.6027C18.3739 11.6628 18.3435 11.718 18.3008 11.763C18.2582 11.8081 18.2048 11.8415 18.1456 11.86C17.3966 11.8784 16.6476 11.8784 15.901 11.86C15.8435 11.8389 15.7923 11.8036 15.7522 11.7574C15.712 11.7112 15.6842 11.6556 15.6712 11.5958V9.27079ZM19.331 2.57383C20.0134 2.66572 21.2471 3.87646 21.4515 4.67596H21.4515C20.7991 4.67596 20.1627 4.67596 19.524 4.65988C19.4528 4.65758 19.331 4.49906 19.331 4.41176V2.57383ZM12.5881 4.6438C13.0517 3.70933 13.8086 2.95242 14.7431 2.48882V4.6438H12.5881ZM19.3655 11.4281V9.27079H21.5136C21.0363 10.1936 20.2862 10.9468 19.3655 11.4281ZM14.727 9.27079V11.4212C13.8026 10.9466 13.0499 10.1947 12.5743 9.27079H14.727ZM15.0418 17.7735C14.881 17.3968 14.7248 17.0292 14.5387 16.5697L18.7452 16.5812H21.5021C21.8422 16.5835 22.0719 16.4847 22.0719 16.1079V14.3021C22.0719 14.0058 21.8697 13.8128 21.6124 13.8656C21.5174 13.9 21.4311 13.9549 21.3596 14.0264C21.2882 14.0978 21.2333 14.1841 21.1989 14.2792C21.1418 14.5754 21.1363 14.8793 21.1828 15.1775C21.231 15.591 21.0541 15.6691 20.6751 15.6691H2.41982H1.96034V14.7501H13.066C13.1041 14.7501 13.145 14.754 13.186 14.7578C13.2836 14.7669 13.382 14.7761 13.4451 14.734C13.5921 14.633 13.792 14.4721 13.792 14.3251C13.7803 14.232 13.7486 14.1425 13.699 14.0628C13.6495 13.983 13.5832 13.915 13.5048 13.8633C13.3593 13.8043 13.2005 13.786 13.0454 13.8105H3.75462V13.374V6.19916C3.75462 5.20208 4.28762 4.66678 5.29388 4.66678H8.61135C8.93988 4.66678 9.24773 4.59326 9.25003 4.2073C9.25233 3.82133 8.95826 3.74781 8.62054 3.74781C8.34649 3.74959 8.07244 3.75382 7.79848 3.75805C7.01135 3.7702 6.22487 3.78234 5.44092 3.73633C4.0349 3.65592 2.79659 4.64381 2.82646 6.34619C2.84637 7.8915 2.83974 9.43783 2.8331 10.9845C2.82978 11.758 2.82646 12.5315 2.82646 13.3051V13.822H1.55599C1.48046 13.8132 1.40392 13.8218 1.33223 13.8472C1.26055 13.8726 1.19562 13.914 1.1424 13.9683C1.08919 14.0226 1.04911 14.0884 1.02523 14.1606C1.00134 14.2328 0.994293 14.3095 1.00461 14.3848V15.846C1.00461 16.4709 1.1011 16.5674 1.7237 16.5766H8.53094C8.50103 16.6545 8.47613 16.7225 8.45355 16.7841C8.4189 16.8786 8.38972 16.9582 8.35634 17.0361C7.64261 18.7162 6.92811 20.3949 6.21285 22.072C6.19969 22.1023 6.18257 22.1338 6.16538 22.1656C6.12256 22.2446 6.07929 22.3244 6.09568 22.3867C6.14622 22.5866 6.22204 22.8715 6.35759 22.9312C6.47697 22.9838 6.68368 22.86 6.85214 22.7591C6.87495 22.7454 6.89706 22.7322 6.91816 22.7199C6.96744 22.6944 6.98922 22.6206 7.01091 22.547C7.02056 22.5143 7.03019 22.4817 7.04222 22.4534C7.24762 21.9755 7.45272 21.4971 7.65783 21.0187C8.24648 19.6458 8.83521 18.2727 9.43153 16.9097C9.49126 16.7742 9.636 16.5858 9.75546 16.5858C10.0465 16.558 10.3539 16.5628 10.6792 16.5678C10.811 16.5699 10.9456 16.572 11.0834 16.572V17.1532V20.5993C11.0834 20.9095 11.2189 21.153 11.5429 21.153C11.8668 21.153 12.0023 20.9279 12.0023 20.6039V19.5288V16.572C12.1473 16.572 12.2875 16.5744 12.4244 16.5767C12.6888 16.5813 12.9411 16.5856 13.1924 16.572C13.2964 16.5551 13.403 16.5782 13.4907 16.6366C13.5785 16.6949 13.641 16.7843 13.6657 16.8867C13.9724 17.6277 14.2907 18.3647 14.6091 19.1018C14.7152 19.3474 14.8213 19.5931 14.9269 19.8389C15.3267 20.7671 15.7257 21.696 16.1239 22.6257C16.2457 22.9083 16.4478 23.0852 16.7603 22.9473C17.0727 22.8095 17.0819 22.543 16.9647 22.2581L16.8797 22.0628C16.2671 20.6338 15.6545 19.2041 15.0418 17.7735Z" fill="black"/>
</svg>
