<svg width="24" height="24" viewBox="0 0 24 24" fill="none" xmlns="http://www.w3.org/2000/svg">
<path d="M12 0.999512C5.93483 0.999512 1 5.93386 1 11.9995C1 18.0652 5.93483 22.9995 12 22.9995C18.0652 22.9995 23 18.0652 23 11.9995C23 5.93386 18.0651 0.999512 12 0.999512ZM20.1283 6.0903H19.6579C19.4551 6.0903 19.2756 6.2213 19.2131 6.41393L18.205 9.51641L15.5684 10.6751L12.4679 8.42276V5.31345L15.0844 3.41363C15.2487 3.29436 15.3171 3.08313 15.2545 2.8905L15.1054 2.43144C17.1431 3.09441 18.8913 4.39288 20.1283 6.0903ZM8.89506 2.43099L8.74594 2.89005C8.68338 3.08317 8.75179 3.29387 8.91608 3.41318L11.5321 5.313V8.42231L8.43159 10.6746L5.7945 9.51547L4.78594 6.41299C4.72338 6.21938 4.54347 6.08936 4.34107 6.08936H3.87171C5.10859 4.39288 6.85737 3.09441 8.89506 2.43099ZM1.93672 11.9917L2.33077 12.2782C2.41291 12.3373 2.50921 12.3681 2.60599 12.3681C2.70228 12.3681 2.79911 12.3378 2.88121 12.2782L5.4723 10.3954L8.10889 11.5546L9.30518 15.2345L7.71092 17.1328H4.45789C4.255 17.1328 4.07558 17.2638 4.01302 17.4565L3.86782 17.9028C2.65882 16.243 1.93623 14.2063 1.93623 11.9995C1.93623 11.9966 1.93672 11.9941 1.93672 11.9917ZM8.88721 21.5651L9.27684 21.2805C9.44109 21.1622 9.51003 20.95 9.44747 20.7579L8.45453 17.7039L10.0488 15.8065H13.9511L15.5439 17.7039L14.5514 20.7584C14.4889 20.9516 14.5583 21.1623 14.7225 21.2816L15.1122 21.5651C14.1315 21.8844 13.0867 22.0638 12.0004 22.0638C10.9132 22.0637 9.86842 21.8853 8.88721 21.5651ZM20.1316 17.9043L19.9865 17.4565C19.9234 17.2633 19.7435 17.1333 19.5411 17.1333L16.2885 17.1338L14.6957 15.2359L15.8911 11.5556L18.5286 10.397L21.1192 12.2782C21.2014 12.3383 21.2977 12.3687 21.3945 12.3687C21.4913 12.3687 21.5881 12.3384 21.6698 12.2782L22.0638 11.9922C22.0638 11.9947 22.0643 11.9971 22.0643 12C22.0637 14.2063 21.3402 16.243 20.1316 17.9043Z" fill="black"/>
</svg>
