<svg width="24" height="24" viewBox="0 0 24 24" fill="none" xmlns="http://www.w3.org/2000/svg">
<path d="M17.043 10.9012C16.7993 11.1333 16.6449 11.261 16.4998 11.406C14.2705 13.6331 12.0214 15.8427 9.82917 18.1081C9.36497 18.5827 8.78471 18.5723 8.27059 18.8044C8.16267 18.8543 7.87021 18.5084 7.66248 18.3402C7.83772 18.1533 7.98859 17.9305 8.194 17.7878C8.39941 17.645 8.73828 17.6264 8.91468 17.4512C11.4307 14.9607 13.92 12.4459 16.4407 9.9612C16.8027 9.60375 16.8526 9.29506 16.6995 8.84129C16.1844 7.31197 15.1603 6.00563 13.7982 5.14039C13.0914 6.05604 12.1641 6.52373 10.9862 6.30091C9.80828 6.07809 9.1642 5.29938 8.82764 4.16903C7.63102 4.33987 6.50872 4.85106 5.59443 5.64174C4.7837 6.31209 4.1354 7.15742 3.69821 8.11425C3.26102 9.07108 3.04631 10.1145 3.07021 11.1662C3.09411 12.2179 3.356 13.2506 3.8362 14.1865C4.3164 15.1225 5.00244 15.9375 5.84278 16.5704C6.1805 16.8292 6.47875 17.11 6.14916 17.515C5.84046 17.8945 5.4865 17.6659 5.18825 17.4233C2.56663 15.295 1.48735 12.5422 2.22892 9.24747C2.94148 6.02703 5.04551 4.01701 8.2439 3.18491C8.65705 3.07698 8.92281 2.95281 9.11081 2.51181C9.59591 1.39075 10.8597 0.802363 12.0342 1.06C13.2991 1.3362 14.1475 2.31916 14.1521 3.59458C14.1521 3.97871 14.296 4.16323 14.5873 4.37561C17.3865 6.41 18.489 9.1616 17.9435 12.5654C17.8936 12.8811 17.6673 13.1851 17.47 13.4555C17.2728 13.7259 17.0163 13.929 16.7865 14.1646C16.7595 14.2009 16.7361 14.2397 16.7169 14.2807C18.2859 15.6795 19.8572 17.0806 21.4309 18.4841C22.2433 19.2094 22.5276 20.125 22.227 21.1533C21.9264 22.1815 21.1826 22.8082 20.1079 22.9637C19.1516 23.1018 18.3764 22.7153 17.7463 22.0039C16.4264 20.5115 15.1061 19.0206 13.7854 17.5313C13.7355 17.4732 13.6995 17.4036 13.5753 17.2156C13.2109 17.6322 12.8883 17.9665 12.6063 18.3332C12.1769 18.8926 11.5618 18.9657 10.9444 18.9622C10.7657 18.9622 10.4443 18.7022 10.4443 18.5618C10.4443 18.3564 10.6764 17.9816 10.8098 17.9746C11.6222 17.9641 12.0318 17.3816 12.5169 16.8988C13.7935 15.6303 15.0306 14.3224 16.3467 13.0992C17.0024 12.4969 16.9954 11.7855 17.043 10.9012ZM15.8592 18.2624C16.7737 19.2941 17.7068 20.3734 18.67 21.4225C18.801 21.5715 18.9606 21.6926 19.1393 21.7787C19.318 21.8647 19.5121 21.914 19.7103 21.9235C19.9084 21.9331 20.1064 21.9027 20.2925 21.8341C20.4787 21.7656 20.6491 21.6603 20.7938 21.5246C21.359 20.9989 21.4599 20.0357 20.9005 19.496C19.8236 18.4516 18.6874 17.4767 17.5884 16.4845L15.8592 18.2624ZM11.4864 5.26457C11.6989 5.26862 11.91 5.22997 12.1073 5.15091C12.3046 5.07184 12.4839 4.95398 12.6348 4.8043C12.7857 4.65462 12.905 4.47617 12.9856 4.27953C13.0662 4.0829 13.1065 3.87208 13.1042 3.65957C13.103 3.34404 13.0086 3.0359 12.8328 2.77387C12.657 2.51185 12.4077 2.30763 12.1162 2.1869C11.8247 2.06616 11.504 2.0343 11.1944 2.0953C10.8848 2.15631 10.6002 2.30747 10.3763 2.52977C10.1524 2.75208 9.99916 3.03562 9.93592 3.34474C9.87269 3.65387 9.90225 3.97479 10.0209 4.26717C10.1395 4.55955 10.3419 4.81033 10.6027 4.988C10.8634 5.16567 11.1709 5.26229 11.4864 5.26573V5.26457ZM15.9707 15.0547C15.4287 15.5909 14.9262 16.0899 14.3958 16.6087L15.0585 17.3618L16.7029 15.7267L15.9707 15.0547Z" fill="black"/>
</svg>
