<svg width="20" height="20" viewBox="0 0 20 20" fill="none" xmlns="http://www.w3.org/2000/svg">
<path d="M13.0569 17.3568C12.5233 17.3568 11.9541 17.2868 11.3473 17.1473C9.23865 16.663 7.5648 15.4274 6.34209 14.4051C4.97752 13.2638 3.4475 11.8302 2.44611 9.84905C1.91639 8.80095 1.67019 7.80153 1.67172 6.70542C1.57655 4.85455 2.86801 3.64603 3.84954 2.89696C4.57024 2.34628 5.51903 2.37051 6.21005 2.95741C6.8537 3.50416 7.49146 4.13385 8.10522 4.8288C8.69431 5.49581 8.68841 6.61811 8.09169 7.38378C8.04825 7.43943 8.00242 7.49291 7.95614 7.54594C7.93083 7.57541 7.90529 7.60444 7.88084 7.63456C7.33672 8.2996 7.33672 8.2996 7.79114 8.95221C8.83509 10.4517 10.065 11.3959 11.5511 11.8379C11.6762 11.8747 11.7015 11.8564 11.7622 11.7927L11.8316 11.7206C11.9971 11.5489 12.1529 11.3867 12.2976 11.2176C12.7103 10.7345 13.2682 10.4491 13.8689 10.4141C14.458 10.382 15.0348 10.5931 15.4892 11.0146C15.9384 11.4317 16.3972 11.8835 16.853 12.3575V12.3578C17.7142 13.2542 17.7703 14.3483 17.007 15.3595C15.9985 16.6957 14.697 17.3568 13.0569 17.3568ZM4.9952 3.70365C4.85529 3.70365 4.71429 3.75429 4.58115 3.856C3.34644 4.79824 2.82087 5.6619 2.87696 6.65609L2.87805 6.6742L2.87783 6.69232C2.87434 7.6099 3.07318 8.41572 3.52258 9.30492C4.4251 11.0907 5.84533 12.4173 7.11562 13.4796C8.23487 14.4158 9.75812 15.5448 11.6171 15.9717C13.6039 16.4281 15.0104 16.0025 16.0443 14.6331C16.4465 14.1001 16.4276 13.6564 15.983 13.1937C15.5432 12.736 15.1012 12.3006 14.6686 11.8992C14.4545 11.7004 14.2 11.6043 13.9387 11.6185C13.6692 11.634 13.4123 11.7702 13.2145 12.0018C13.0465 12.198 12.8705 12.3807 12.7005 12.5572L12.632 12.6284C12.2461 13.03 11.753 13.1568 11.2074 12.9942C9.44884 12.471 8.00744 11.3745 6.8011 9.6417C5.97323 8.45282 6.11969 7.88207 6.94712 6.87086C6.97898 6.83179 7.01216 6.79359 7.04534 6.7554C7.07764 6.71808 7.10994 6.68119 7.14006 6.64256C7.37491 6.34114 7.40394 5.85725 7.20074 5.62764C6.62496 4.97547 6.02867 4.3866 5.42867 3.87695C5.29291 3.76149 5.14471 3.70365 4.9952 3.70365Z" fill="black"/>
</svg>
