<svg width="24" height="24" viewBox="0 0 24 24" fill="none" xmlns="http://www.w3.org/2000/svg">
<path fill-rule="evenodd" clip-rule="evenodd" d="M7.95686 6.82199C8.37075 6.42365 8.61424 5.88048 8.63624 5.30647C8.64768 5.0078 8.59873 4.70991 8.49233 4.43061C8.38593 4.15131 8.22427 3.89635 8.01701 3.681C7.80976 3.46565 7.56118 3.29434 7.28615 3.17733C7.01113 3.06031 6.71533 3 6.41644 3C6.11756 3 5.82176 3.06031 5.54674 3.17733C5.27171 3.29434 5.02313 3.46565 4.81588 3.681C4.60862 3.89635 4.44696 4.15131 4.34056 4.43061C4.23416 4.70991 4.18521 5.0078 4.19665 5.30647C4.21865 5.88048 4.46214 6.42365 4.87603 6.82199C5.28991 7.22032 5.84201 7.44284 6.41644 7.44284C6.99088 7.44284 7.54298 7.22032 7.95686 6.82199ZM19.8379 5.02302C19.6945 6.60277 18.9063 7.48222 17.6523 7.51153C16.3982 7.54085 15.5905 6.70374 15.3722 5.05234C14.8519 5.15102 14.5374 5.51604 14.2021 5.90539C14.1722 5.94011 14.1421 5.97502 14.1117 6.00996C13.6722 5.62829 13.3911 5.09627 13.3234 4.51815C13.2974 4.23152 13.5514 4.08169 13.7892 3.99048C14.3084 3.79846 14.8791 3.79846 15.3983 3.99048C15.4508 4.00742 15.5015 4.02789 15.5565 4.05004C15.6072 4.07049 15.6615 4.09237 15.724 4.11426C15.9214 3.79498 16.197 3.53138 16.5247 3.34841C16.8525 3.16544 17.2215 3.06916 17.5969 3.06869C17.9617 3.06256 18.3221 3.14897 18.6445 3.31984C18.9669 3.49072 19.2408 3.7405 19.4405 4.04586L19.6246 4.02207C20.0607 3.96569 20.4727 3.91244 20.8671 3.86671C20.9437 3.86012 21.0208 3.86673 21.0951 3.88625C21.8801 4.06214 22.056 4.40415 21.714 5.12725C21.5915 5.3656 21.4511 5.59426 21.2938 5.81127C21.1766 5.99041 21.0691 5.99041 20.916 5.81127C20.7085 5.58579 20.4818 5.37872 20.2385 5.1924C20.1121 5.12038 19.9776 5.06353 19.8379 5.02302ZM14.8947 11.6632L14.895 11.6629L14.8953 11.6625C15.036 11.496 15.1767 11.3296 15.3167 11.1629L15.4145 11.2118C15.3905 11.3449 15.3589 11.4764 15.32 11.6059C15.2484 11.7533 15.169 11.8969 15.0822 12.0359C14.9462 12.2802 14.81 12.5246 14.6738 12.7689C14.2652 13.5017 13.8567 14.2345 13.4536 14.9674C13.0823 15.6416 13.4438 16.254 14.206 16.254H14.6979C15.4014 16.2572 15.421 16.2735 15.421 16.9933C15.421 17.28 15.4184 17.5667 15.4159 17.8532L15.4159 17.8535C15.4108 18.4264 15.4058 18.9988 15.421 19.5698C15.4178 19.699 15.441 19.8274 15.489 19.9474C15.537 20.0674 15.6089 20.1764 15.7002 20.2677C15.7916 20.3591 15.9006 20.431 16.0205 20.479C16.1405 20.527 16.269 20.5501 16.3981 20.547C16.5288 20.5433 16.6573 20.5134 16.7762 20.4591C16.8951 20.4048 17.0019 20.3273 17.0903 20.231C17.1786 20.1347 17.2468 20.0217 17.2907 19.8986C17.3347 19.7755 17.3534 19.6449 17.346 19.5144V16.7653C17.346 16.7424 17.3423 16.7177 17.3387 16.6931L17.3387 16.693C17.3315 16.6442 17.3243 16.5959 17.346 16.5634C17.3552 16.5495 17.3648 16.5347 17.3747 16.5194C17.4413 16.4165 17.5215 16.2926 17.6066 16.2898C17.7043 16.2865 17.8671 16.4787 17.8965 16.5373C17.9159 16.5763 17.9095 16.6382 17.903 16.7011C17.8998 16.733 17.8965 16.7651 17.8965 16.7947V19.4558C17.8901 19.5995 17.9055 19.7434 17.9421 19.8825C18.0136 20.0875 18.1514 20.2628 18.3336 20.3807C18.5159 20.4987 18.7322 20.5526 18.9485 20.5339C19.1864 20.5112 19.4071 20.4003 19.5674 20.2232C19.7278 20.046 19.816 19.8153 19.815 19.5763V16.7393C19.8182 16.394 19.9583 16.2637 20.284 16.2637H20.9647C21.8051 16.2637 22.1601 15.6677 21.7563 14.9348C21.5238 14.5143 21.2898 14.0942 21.0559 13.6743L21.0557 13.674L21.0555 13.6737L21.0552 13.6731C20.6896 13.0168 20.3242 12.3608 19.9648 11.7036C19.8873 11.5419 19.823 11.3741 19.7726 11.202L19.854 11.1629L19.8541 11.163L19.8541 11.163L19.8541 11.163C19.9062 11.2151 19.9583 11.2672 20.0039 11.3225C20.1702 11.5178 20.3341 11.715 20.498 11.9123L20.498 11.9124C20.7963 12.2714 21.0945 12.6304 21.4077 12.9772C21.5074 13.0965 21.637 13.1872 21.7831 13.2401C21.9293 13.293 22.0868 13.3062 22.2398 13.2784C22.3927 13.2506 22.5355 13.1828 22.6537 13.0818C22.7719 12.9808 22.8612 12.8503 22.9126 12.7036C22.9985 12.4977 23.0217 12.2711 22.9794 12.0521C22.9371 11.8331 22.8312 11.6314 22.6748 11.4724C22.0646 10.7623 21.4631 10.0457 20.8703 9.32261C20.6312 9.00032 20.3309 8.72829 19.9866 8.52206C19.6424 8.31583 19.2608 8.17945 18.8638 8.1207C18.1439 8.05386 17.4201 8.03754 16.6978 8.07184C15.9685 8.08858 15.2717 8.3766 14.7435 8.87963C14.4989 9.12488 14.2684 9.38369 14.0529 9.65485C13.5166 10.2867 12.9824 10.9208 12.4504 11.5571C12.2623 11.7746 12.1681 12.0578 12.1882 12.3447C12.2084 12.6316 12.3413 12.8988 12.5579 13.088C12.9976 13.443 13.4732 13.3746 13.9292 12.8176C14.2469 12.4295 14.5709 12.0462 14.8947 11.6632ZM8.63628 19.5665V15.6025C8.63628 14.2801 8.64279 12.9577 8.65582 11.6352C8.6724 11.5366 8.70084 11.4404 8.74051 11.3486C8.83896 11.3897 8.93108 11.4445 9.01411 11.5114C9.20629 11.7329 9.3944 11.9593 9.58251 12.1857L9.58252 12.1857L9.58253 12.1857C9.77062 12.4121 9.95872 12.6385 10.1509 12.8599C10.2237 12.9796 10.3214 13.0823 10.4374 13.1609C10.5534 13.2395 10.685 13.2923 10.8231 13.3156C10.9613 13.3389 11.1029 13.3322 11.2382 13.296C11.3736 13.2598 11.4996 13.1949 11.6077 13.1057C11.7157 13.0165 11.8034 12.9051 11.8646 12.779C11.9258 12.653 11.9592 12.5153 11.9626 12.3752C11.9659 12.2351 11.939 12.0959 11.8838 11.9671C11.8287 11.8383 11.7464 11.7229 11.6427 11.6287C10.95 10.7883 10.2497 9.9545 9.54178 9.12717C9.09359 8.57255 8.44805 8.21301 7.74054 8.12395C7.00107 8.05447 6.25745 8.04032 5.51587 8.0816C5.06701 8.10129 4.62792 8.21911 4.2295 8.42676C3.83107 8.63442 3.483 8.92686 3.20976 9.28352C2.70373 9.90431 2.18517 10.5147 1.66412 11.128L1.6641 11.128L1.66408 11.128L1.66351 11.1287C1.5341 11.281 1.40454 11.4335 1.27498 11.5864C1.18178 11.6842 1.10946 11.8 1.0624 11.9267C1.01534 12.0533 0.994524 12.1882 1.00123 12.3232C1.00793 12.4582 1.04201 12.5904 1.10138 12.7118C1.16076 12.8331 1.2442 12.9412 1.34664 13.0293C1.45288 13.1172 1.57651 13.1816 1.70942 13.2183C1.84233 13.255 1.98151 13.2632 2.1178 13.2423C2.25409 13.2214 2.38441 13.1718 2.50019 13.0969C2.61597 13.0221 2.7146 12.9235 2.78958 12.8078C3.16416 12.3518 3.54526 11.9056 3.92961 11.4593C3.99376 11.4105 4.06521 11.372 4.14132 11.3453C4.1836 11.4126 4.21751 11.4848 4.2423 11.5603C4.25204 11.6371 4.25204 11.7148 4.2423 11.7916V19.4069C4.23766 19.577 4.26189 19.7466 4.31396 19.9085C4.38803 20.124 4.53651 20.306 4.73272 20.4219C4.92894 20.5377 5.16003 20.5798 5.38449 20.5406C5.60894 20.5013 5.81205 20.3833 5.95732 20.2078C6.1026 20.0322 6.18052 19.8107 6.17708 19.5828V15.4136C6.17708 15.3887 6.17314 15.3617 6.16918 15.3346C6.1612 15.2799 6.15314 15.2248 6.17708 15.1856C6.25587 15.08 6.34301 14.9809 6.43766 14.8892C6.53833 14.973 6.62904 15.0681 6.70801 15.1726C6.72527 15.2136 6.71966 15.2731 6.71391 15.3342C6.71098 15.3654 6.70801 15.3969 6.70801 15.4266V19.42C6.70257 19.593 6.72568 19.7658 6.77641 19.9313C6.85231 20.1356 6.9958 20.3077 7.18304 20.4191C7.37028 20.5305 7.59 20.5744 7.80569 20.5437C8.0387 20.5084 8.25108 20.39 8.40372 20.2104C8.55635 20.0309 8.63894 19.8022 8.63628 19.5665Z" fill="black"/>
</svg>
