<svg xmlns="http://www.w3.org/2000/svg" width="32" height="32" viewBox="0 0 32 32" fill="none">
    <g clip-path="url(#clip0_243_12)">
        <path
            d="M16 32C24.8366 32 32 24.8366 32 16C32 7.16344 24.8366 0 16 0C7.16344 0 0 7.16344 0 16C0 24.8366 7.16344 32 16 32Z"
            fill="#1CB7EB" />
        <path
            d="M24.5333 10.2665C23.9333 10.5999 23.2 10.7999 22.5333 10.8665C23.2667 10.3999 23.8 9.66654 24.0667 8.79987C23.4 9.19987 22.6667 9.5332 21.8 9.7332C21.1333 8.99987 20.2667 8.5332 19.2667 8.5332C17.3333 8.5332 15.7333 10.1999 15.7333 12.3332C15.7333 12.5999 15.7333 12.9332 15.8 13.1999C12.8667 13.0665 10.2667 11.5332 8.53333 9.26654C8.2 9.79987 8.06666 10.4665 8.06666 11.1999C8.06666 12.5332 8.66666 13.6665 9.6 14.3332C9 14.3332 8.46666 14.1332 8 13.8665V13.9332C8 15.7332 9.2 17.2665 10.8 17.6665C10.5333 17.7332 10.2 17.7999 9.86666 17.7999C9.66666 17.7999 9.4 17.7999 9.2 17.7332C9.66666 19.2665 10.9333 20.3332 12.4667 20.3332C11.2667 21.3332 9.73333 21.9332 8.13333 21.9332C7.86666 21.9332 7.6 21.9332 7.26666 21.8665C8.8 22.9332 10.6667 23.5999 12.6667 23.5999C19.1333 23.5999 22.6667 17.8665 22.6667 12.8665C22.6667 12.7332 22.6667 12.5332 22.6667 12.3999C23.4667 11.7332 24.0667 11.0665 24.5333 10.2665Z"
            fill="white" />
    </g>
    <defs>
        <clipPath id="clip0_243_12">
            <rect width="32" height="32" fill="white" />
        </clipPath>
    </defs>
</svg>