<svg width="24" height="24" viewBox="0 0 24 24" fill="none" xmlns="http://www.w3.org/2000/svg">
<path fill-rule="evenodd" clip-rule="evenodd" d="M20.1371 5.50827L21.4791 5.67349L20.8758 6.948C20.5816 7.56953 20.2872 8.19105 19.9924 8.81258C19.9574 8.94422 19.896 9.05962 19.8052 9.20987C19.7672 9.27265 19.6375 9.47236 19.6314 9.48194C19.5972 9.53608 19.5719 9.57878 19.5536 9.61299V12.0015C19.5536 18.1135 13.9426 21.9974 8.64365 21.9974C7.55936 21.9974 6.73554 21.9427 5.79222 21.7257C4.23982 21.3685 3.08452 20.6587 2.55586 19.418L2.01158 18.1407L3.33431 18.0124C4.53091 17.8964 5.56839 17.6561 6.36513 17.3343C4.1778 16.9635 2.95203 15.9508 2.95203 14.0489V13.0489H3.90064C4.10906 13.0489 4.297 13.0311 4.46501 12.9983C2.8234 11.9636 2.00116 10.3038 2.00116 8.00152C2.00098 7.9034 2.00098 7.90339 2.00042 7.79847C1.99425 6.63803 2.05338 6.01797 2.35473 5.22659C2.54787 4.71941 2.82703 4.24988 3.20275 3.81967L3.91858 3L4.61454 3.83847C6.90807 6.60161 9.17526 8.27795 11.4901 8.48072C11.5 5.93105 13.3279 4.00152 15.759 4.00152C16.8924 4.00152 17.9204 4.45501 18.7283 5.27273C19.1705 5.36851 19.6401 5.44709 20.1371 5.50827ZM18.0398 7.16202L17.749 7.0926L17.5481 6.86028C17.0625 6.29855 16.453 6.00152 15.759 6.00152C14.3712 6.00152 13.3873 7.04391 13.3873 8.50152C13.3873 8.73974 13.3814 8.88942 13.3533 9.08615C13.241 9.87116 12.8233 10.5015 11.9643 10.5015C9.12036 10.5015 6.55463 8.89542 4.0527 6.15228C3.92372 6.56561 3.89338 6.99047 3.89762 7.78727C3.89819 7.89384 3.89819 7.89384 3.89839 8.00152C3.89839 10.0495 4.68546 11.1698 6.54904 11.7942L7.21031 12.0158V12.7472C7.21031 13.6342 6.41316 14.4691 5.2468 14.8431C5.78147 15.2708 6.87493 15.5015 8.64399 15.5015H9.5926V16.5015C9.5926 17.9343 8.03092 19.0561 5.67184 19.6419C6.4412 19.8903 7.46558 19.9974 8.64365 19.9974C13.021 19.9974 17.6564 16.7888 17.6564 12.0015V9.50152C17.6564 9.20774 17.7372 8.95273 17.8714 8.68759C17.9239 8.58393 17.9816 8.48509 18.0529 8.37237C18.0664 8.35115 18.1162 8.27426 18.1557 8.21279L18.2309 8.05429C18.3527 7.79745 18.4745 7.54061 18.5962 7.28377C18.407 7.24599 18.2216 7.20541 18.0398 7.16202Z" fill="white"/>
</svg>
