<svg width="20" height="20" viewBox="0 0 20 20" fill="none" xmlns="http://www.w3.org/2000/svg">
<path d="M18.0656 5.37894C18.0552 5.33015 18.0353 5.28389 18.0071 5.24279C17.9788 5.20169 17.9427 5.16656 17.9009 5.13941C17.8591 5.11225 17.8123 5.0936 17.7633 5.08453C17.7142 5.07546 17.6639 5.07613 17.6151 5.08652L16.5118 5.32155C16.5962 5.20264 16.6794 5.08291 16.7613 4.96236C16.8604 4.81618 16.956 4.66769 17.0482 4.51702C17.0956 4.43912 17.1412 4.36006 17.1848 4.27993L17.2504 4.1515C17.2722 4.10714 17.2928 4.05561 17.3134 4.00747C17.3408 3.94373 17.3485 3.87329 17.3356 3.80515C17.3227 3.73701 17.2897 3.67427 17.241 3.62495C17.1922 3.57563 17.1298 3.54198 17.0618 3.5283C16.9939 3.51461 16.9233 3.52151 16.8593 3.54813L16.7984 3.57348C16.7117 3.60394 16.6266 3.63561 16.5404 3.66473C16.4526 3.69093 16.3664 3.71921 16.2784 3.74357C16.1893 3.76599 16.1019 3.79085 16.0126 3.81107C15.9226 3.82996 15.8341 3.85139 15.744 3.86821C15.6531 3.88392 15.5637 3.90196 15.4726 3.91585C15.3812 3.92877 15.2908 3.94339 15.1994 3.95497C15.1389 3.96264 15.0781 3.96886 15.0174 3.9753C14.7804 3.73976 14.5089 3.54158 14.2124 3.38753C13.8152 3.18126 13.3809 3.06014 12.9472 3.01798C12.513 2.97547 12.0786 3.00959 11.6626 3.10706C11.2462 3.20493 10.8475 3.36644 10.4803 3.5859C10.1132 3.80533 9.77767 4.08387 9.49585 4.41651C9.21427 4.7484 8.98837 5.13599 8.84411 5.55427C8.69875 5.97207 8.63734 6.41729 8.65294 6.85069C8.65673 6.97265 8.66733 7.09328 8.68279 7.21268C8.6237 7.20598 8.56448 7.19965 8.50539 7.19159C8.337 7.17034 8.16927 7.14413 8.00242 7.113C7.83512 7.08314 7.66869 7.04853 7.50336 7.0092C7.17153 6.93138 6.84384 6.83687 6.52154 6.72602C6.19782 6.61467 5.87971 6.4876 5.56836 6.34527C4.31801 5.77518 3.17138 4.95907 2.15241 3.99798C2.11013 3.95183 2.05675 3.91726 1.99735 3.89756C1.93794 3.87785 1.87449 3.87367 1.81301 3.8854C1.75153 3.89714 1.69407 3.9244 1.6461 3.96459C1.59813 4.00479 1.56123 4.05659 1.53892 4.11506L1.52966 4.13931C1.48848 4.24701 1.44926 4.35583 1.41818 4.4672C1.38711 4.57842 1.35969 4.69101 1.34055 4.80494C1.31924 4.9185 1.30523 5.03339 1.29658 5.14829C1.28659 5.26331 1.28403 5.37857 1.285 5.49359C1.28682 5.60849 1.29318 5.7234 1.304 5.8378C1.31582 5.95184 1.33192 6.06539 1.35226 6.17822C1.39398 6.40332 1.45284 6.62491 1.52832 6.84104C1.56572 6.94936 1.60743 7.05615 1.65335 7.16115C1.69852 7.26697 1.74823 7.37079 1.80234 7.47233C1.85578 7.57516 1.91367 7.67561 1.97586 7.77339C2.03775 7.87302 2.10431 7.96967 2.17532 8.06303C2.21078 8.11044 2.24738 8.15699 2.28509 8.20264C2.19347 8.21496 2.10145 8.22506 2.00911 8.23176C1.92626 8.23775 1.84318 8.24091 1.76421 8.23945C1.72351 8.23945 1.6849 8.23775 1.64833 8.23457C1.60802 8.23298 1.57962 8.2269 1.54416 8.22336C1.50924 8.20632 1.47058 8.19835 1.43177 8.20017C1.39295 8.20199 1.35521 8.21355 1.32204 8.23378C1.28886 8.25401 1.2613 8.28226 1.24191 8.31594C1.22251 8.34961 1.2119 8.38762 1.21105 8.42647L1.21069 8.44475C1.20812 8.56001 1.20849 8.67626 1.21886 8.79323C1.22909 8.91104 1.24723 9.02803 1.27318 9.14341C1.32655 9.37807 1.41247 9.60412 1.52845 9.81499C1.6442 10.0268 1.78834 10.2222 1.9493 10.398C2.1096 10.5718 2.28537 10.7307 2.47442 10.8727C2.81696 11.1318 3.18673 11.3372 3.56394 11.5126C3.5436 11.5186 3.52338 11.5251 3.50291 11.5307C3.45649 11.5429 3.41018 11.5571 3.36328 11.5666C3.3165 11.5765 3.26947 11.5895 3.22232 11.5973C3.12789 11.6155 3.03271 11.6302 2.93719 11.6413C2.84168 11.6518 2.74627 11.6575 2.65037 11.6606C2.58437 11.6519 2.51726 11.6617 2.45647 11.6888C2.39569 11.7159 2.3436 11.7594 2.30597 11.8143C2.26835 11.8692 2.24665 11.9334 2.24329 11.9999C2.23993 12.0664 2.25503 12.1325 2.28693 12.1909L2.30275 12.2198C2.49551 12.5721 2.7526 12.875 3.03382 13.1372C3.316 13.3999 3.62414 13.6241 3.94434 13.8215C4.24316 14.0039 4.55351 14.1667 4.87342 14.3088C4.84952 14.3245 4.82636 14.3411 4.80237 14.3565C4.4702 14.57 4.12076 14.7554 3.75768 14.9107C3.39592 15.0644 3.02223 15.1846 2.64465 15.2568C2.55058 15.2743 2.45601 15.289 2.36113 15.3012C2.26693 15.3122 2.17241 15.3204 2.07771 15.3257C1.98382 15.3297 1.88984 15.3305 1.7959 15.3283C1.70284 15.3247 1.60993 15.3177 1.51738 15.3074H1.5171L1.51322 15.3067C1.40792 15.2918 1.30073 15.3146 1.21066 15.3712C1.1206 15.4278 1.05348 15.5144 1.02121 15.6158C0.988946 15.7171 0.99361 15.8266 1.03438 15.9249C1.07515 16.0231 1.14939 16.1037 1.24394 16.1524C1.61044 16.3415 1.98827 16.5229 2.38158 16.6813C2.77741 16.8419 3.18449 16.9732 3.59954 17.0743C4.01514 17.1738 4.43729 17.2437 4.8628 17.2833C5.07419 17.3005 5.28571 17.3164 5.49638 17.3221C5.60129 17.3278 5.70862 17.3281 5.81562 17.3288C5.92174 17.3293 6.03263 17.3316 6.13094 17.3281L6.43408 17.3213L6.75598 17.3035C6.96654 17.2954 7.17635 17.2695 7.38652 17.2497C7.80578 17.1986 8.22481 17.1331 8.63787 17.0339C9.05235 16.9423 9.46003 16.8163 9.86152 16.673C10.263 16.5285 10.653 16.3515 11.035 16.158C11.4123 15.9555 11.7821 15.7366 12.1317 15.4864C12.4789 15.234 12.8185 14.9681 13.1279 14.6687C13.4393 14.3723 13.7355 14.0584 14.0017 13.7204C14.1406 13.5556 14.2617 13.3777 14.3898 13.2051C14.5073 13.0253 14.6317 12.8495 14.7383 12.6631C14.9633 12.2968 15.1551 11.9122 15.3303 11.5214C15.5046 11.1296 15.6489 10.7267 15.777 10.3192C15.8976 9.90992 16.0057 9.49663 16.0811 9.07785C16.1238 8.87106 16.1547 8.65506 16.1859 8.4395C16.2037 8.32875 16.2132 8.23019 16.224 8.12979L16.2312 8.06496C16.2602 8.03863 16.2907 8.0133 16.3182 7.98627L16.4674 7.84151C16.5178 7.79412 16.5635 7.74209 16.6119 7.69261C16.6589 7.64217 16.708 7.5938 16.7527 7.54152L16.8891 7.38666C16.935 7.33573 16.9767 7.28102 17.0205 7.22852C17.064 7.17552 17.1078 7.12299 17.1485 7.06804C17.3161 6.85277 17.4724 6.62893 17.6168 6.39743C17.6894 6.28182 17.7587 6.16424 17.8248 6.04482C17.8576 5.98401 17.8905 5.92456 17.9217 5.86205C17.9549 5.79705 17.9867 5.73132 18.0171 5.6649L18.0392 5.61689C18.0734 5.54248 18.0826 5.45902 18.0656 5.37894ZM16.3858 6.38915C16.3435 6.43166 16.2988 6.47163 16.2546 6.51195C16.2101 6.55181 16.1675 6.59371 16.1212 6.63173L15.985 6.7475C15.9402 6.78672 15.8918 6.82157 15.8456 6.85884C15.7983 6.89479 15.7533 6.93365 15.7047 6.9673L15.5608 7.07096C15.4655 7.1402 15.3649 7.20135 15.2679 7.2669C15.1987 7.31405 15.1407 7.37585 15.0981 7.44793C15.0554 7.52001 15.0292 7.60059 15.0212 7.68396L15.0194 7.70432L14.9918 8.00636C14.9828 8.10714 14.9743 8.20997 14.9609 8.29915C14.9368 8.48411 14.9144 8.66881 14.8785 8.85901C14.8173 9.2377 14.7267 9.60933 14.6255 9.9774C14.5177 10.3432 14.3955 10.7047 14.2472 11.0548C14.0977 11.4038 13.9346 11.7478 13.7413 12.074C13.6509 12.2409 13.5431 12.3967 13.443 12.5578C13.3324 12.7112 13.2292 12.8706 13.1095 13.0172C12.881 13.3192 12.625 13.5989 12.3558 13.8648C12.0889 14.1335 11.7936 14.3719 11.4915 14.6006C11.187 14.8269 10.8631 15.0261 10.5316 15.2124C10.1951 15.3897 9.85078 15.5543 9.49329 15.6898C9.1358 15.8243 8.7715 15.9449 8.39769 16.0341C8.02583 16.1307 7.64554 16.1966 7.26333 16.2503C7.0713 16.2713 6.88001 16.2991 6.68639 16.3096L6.4031 16.3308L6.10009 16.3431C5.9964 16.3486 5.90515 16.3472 5.80901 16.3487C5.71386 16.3497 5.61893 16.3514 5.52182 16.3478C5.32809 16.3459 5.13619 16.3349 4.94429 16.3229C4.56368 16.2942 4.18559 16.2386 3.81286 16.1564C3.72025 16.1361 3.62807 16.1139 3.53639 16.0897C3.73996 16.0389 3.9412 15.9793 4.13951 15.9108C4.57131 15.7599 4.98972 15.5732 5.39035 15.3525C5.79074 15.1321 6.17502 14.8811 6.54054 14.5886C6.62812 14.5184 6.69467 14.4254 6.73289 14.3199C6.7711 14.2143 6.77951 14.1003 6.75718 13.9903C6.73485 13.8803 6.68264 13.7786 6.6063 13.6963C6.52996 13.614 6.43242 13.5544 6.3244 13.5239L6.27748 13.511L6.27737 13.5107C5.63966 13.4044 5.00265 13.2193 4.41489 12.9506C4.12162 12.8159 3.84051 12.6586 3.5861 12.474C3.57588 12.4665 3.56649 12.4584 3.55625 12.4509C3.58757 12.4489 3.6189 12.4467 3.6502 12.4449C3.76944 12.4367 3.88829 12.4237 4.00647 12.4059C4.24757 12.3705 4.48535 12.3153 4.71741 12.2409C4.83839 12.2026 4.95713 12.1576 5.07308 12.106C5.13242 12.0818 5.19187 12.0498 5.25134 12.0205C5.31081 11.9906 5.37051 11.9535 5.43007 11.9195C5.5279 11.8635 5.60752 11.7805 5.65939 11.6804C5.71126 11.5803 5.73319 11.4674 5.72254 11.3552C5.7119 11.243 5.66913 11.1362 5.59937 11.0477C5.52961 10.9592 5.43581 10.8926 5.3292 10.856L5.20015 10.8115C4.7999 10.7537 4.40647 10.6787 4.02596 10.5743C3.64605 10.4697 3.2782 10.3356 2.94389 10.1554C2.61014 9.97534 2.31065 9.747 2.08817 9.45738C1.97596 9.31201 1.8847 9.1516 1.81708 8.98086C1.79849 8.93365 1.78174 8.88573 1.76686 8.83722C1.81953 8.85549 1.87128 8.87546 1.92478 8.89106C2.11312 8.94651 2.30443 8.99134 2.4978 9.02533C2.69577 9.06131 2.89591 9.08403 3.09691 9.09333C3.14807 9.09696 3.20268 9.09563 3.25616 9.09624C3.30905 9.09771 3.36666 9.09306 3.42307 9.09016C3.47803 9.0887 3.54177 9.07797 3.60231 9.07018C3.6625 9.06262 3.73609 9.0419 3.80297 9.02558C3.98903 8.97879 4.15231 8.84123 4.21982 8.64641V8.64627C4.27082 8.49887 4.26117 8.33724 4.19301 8.19695C4.12485 8.05666 4.00375 7.94918 3.85636 7.89817L3.7836 7.87295C3.72686 7.85332 3.66566 7.83334 3.60244 7.79813C3.53906 7.76681 3.47487 7.72516 3.41054 7.68116C3.28247 7.58941 3.15722 7.47671 3.04061 7.35085C2.80704 7.09838 2.60735 6.79549 2.45588 6.47114C2.37985 6.30864 2.31635 6.14058 2.26593 5.96841C2.24134 5.88239 2.21988 5.7955 2.2016 5.70792C2.18426 5.62048 2.17036 5.5324 2.15993 5.44388C2.14967 5.3556 2.14366 5.26688 2.1419 5.17803C2.14068 5.1373 2.14056 5.09655 2.14154 5.05581C3.02649 5.90615 4.02058 6.65902 5.12595 7.2413C5.45823 7.41665 5.79887 7.57569 6.14664 7.71785C6.49585 7.86061 6.85204 7.98565 7.21385 8.0925C7.39501 8.14658 7.57764 8.19559 7.76154 8.23945C7.9454 8.28451 8.13051 8.32429 8.31665 8.35874C8.50274 8.39409 8.68971 8.42463 8.87737 8.45035C9.06502 8.47668 9.25338 8.49655 9.44199 8.51482C9.54353 8.52235 9.64535 8.50461 9.73836 8.4632C9.83138 8.42178 9.91268 8.35797 9.97502 8.27747C10.0374 8.19697 10.0788 8.10228 10.0956 8.00187C10.1124 7.90145 10.1041 7.79843 10.0714 7.702L10.0674 7.6902C9.96786 7.39715 9.90342 7.09947 9.89513 6.80742C9.8849 6.51551 9.92535 6.22952 10.0185 5.9611C10.2021 5.42377 10.6041 4.95882 11.1177 4.65324C11.6293 4.34582 12.2478 4.19817 12.8256 4.25544C13.1142 4.28358 13.3914 4.36253 13.6392 4.49105C13.8876 4.61926 14.1055 4.79774 14.2865 5.01659L14.4299 5.13928C14.4918 5.19159 14.5658 5.22745 14.6453 5.24353C14.7247 5.25961 14.8069 5.2554 14.8842 5.23128C15.0805 5.17056 15.2754 5.10548 15.4687 5.03606C15.5653 5.00099 15.6617 4.96261 15.7576 4.92604C15.8535 4.8884 15.9485 4.84625 16.0436 4.80653C16.0972 4.78349 16.1504 4.75877 16.2036 4.73378C16.0617 5.00901 15.9139 5.28119 15.7604 5.55013H15.7603C15.7333 5.58364 15.7164 5.62414 15.7116 5.6669C15.7069 5.70965 15.7144 5.75288 15.7333 5.79151C15.7523 5.83014 15.7818 5.86257 15.8185 5.88499C15.8552 5.90741 15.8976 5.91889 15.9406 5.91809L15.9858 5.91711L16.8492 5.89848C16.7027 6.06934 16.548 6.23308 16.3858 6.38915Z" fill="#41285F"/>
</svg>
