<svg width="24" height="24" viewBox="0 0 24 24" fill="none" xmlns="http://www.w3.org/2000/svg">
<path d="M8.02234 8.05582C7.81861 7.12134 7.16151 6.5991 6.42215 6.11991C5.92574 5.79758 5.77462 5.22273 5.99078 4.68519C6.14286 4.3026 6.29781 3.8961 6.55893 3.59003C6.777 3.33369 7.13281 3.09553 7.45706 3.04292C8.78752 2.82676 9.93529 2.2567 10.9874 1.45421C11.7794 0.850676 12.4135 0.848763 13.1959 1.44752C14.248 2.25192 15.3958 2.84302 16.7253 3.02188C16.9572 3.0445 17.1785 3.12993 17.3654 3.26898C17.5523 3.40802 17.6977 3.59541 17.7861 3.81097C17.8241 3.89854 17.8672 3.98381 17.9152 4.06635C18.5388 5.129 18.3571 5.77462 17.3279 6.47285C16.8076 6.82579 16.4575 7.42933 16.0156 7.93626C16.9721 8.53884 17.2361 9.04195 16.9587 9.68948C16.8631 9.91139 16.6957 10.1677 16.4919 10.2634C16.1094 10.4394 16.0902 10.7292 15.9888 11.0735C15.8236 11.6488 15.5697 12.1948 15.2361 12.6919C14.9099 13.1701 14.9597 13.6665 15.0955 14.096C15.2141 14.4728 15.5986 14.7158 16.1055 14.7435C19.2179 14.9147 21.5335 16.9061 22.0826 19.9381C22.2394 20.8057 22.1782 21.7162 22.1706 22.6077C22.1706 22.7339 21.9448 22.8755 21.8004 22.9778C21.7363 23.0228 21.6139 22.9855 21.5182 22.9855H2.67467C2.01566 22.9855 2.00514 22.975 2.00514 22.3159C2.00514 21.1538 1.92766 19.9764 2.37434 18.8726C3.40447 16.3293 5.28681 14.9128 8.03955 14.7492C8.56275 14.7177 8.96925 14.492 9.09168 14.0979C9.23515 13.6541 9.32028 13.1156 8.91473 12.6632C8.47063 12.1556 8.20226 11.5182 8.14955 10.8459C8.13329 10.688 8.02616 10.4709 7.898 10.4059C7.40541 10.1543 7.13281 9.76887 7.13951 9.23229C7.14812 8.71483 7.42645 8.33415 7.90469 8.11895C7.94586 8.10178 7.98527 8.08063 8.02234 8.05582V8.05582ZM21.6627 22.425C21.6627 21.8731 21.6627 21.3815 21.6627 20.8889C21.6445 18.402 19.874 16.1065 17.48 15.4503C17.193 15.3719 17.0017 15.4083 16.776 15.6464C15.3662 17.1624 13.9257 18.6507 12.5149 20.1667C12.206 20.4996 12.0166 20.534 11.6885 20.1811C10.2701 18.6507 8.82865 17.1414 7.38437 15.6397C7.26098 15.5125 6.99126 15.4054 6.83344 15.4484C3.70767 16.2978 2.06827 19.151 2.60198 22.425H21.6627ZM12.0969 1.46378C11.8234 1.5929 11.5556 1.66942 11.3537 1.82533C10.2308 2.70529 8.99125 3.30595 7.57566 3.54699C6.99126 3.64263 6.30929 4.75406 6.46041 5.32316C6.48859 5.43097 6.54391 5.52975 6.6211 5.61011C6.94534 5.93914 7.24664 6.08356 7.78226 5.90948C10.732 4.95301 13.7038 5.10317 16.666 5.90279C17.1089 6.02235 17.6359 5.74306 17.7363 5.31838C17.8741 4.73015 17.1969 3.64072 16.6058 3.54125C15.2084 3.305 13.9802 2.71485 12.8679 1.84924C12.6536 1.68185 12.3734 1.59864 12.0969 1.46378ZM8.73683 8.46902L8.64979 8.55319C8.64979 9.20551 8.64979 9.85782 8.64979 10.5101C8.64753 10.9256 8.73697 11.3365 8.91172 11.7134C9.08648 12.0904 9.34224 12.4241 9.66078 12.6909C10.9291 13.8033 13.1184 13.8301 14.4365 12.776C15.8827 11.6177 15.5068 10.0367 15.523 8.38676C14.9042 9.11655 14.1945 9.29828 13.4188 9.30689C12.7186 9.3155 12.0175 9.31263 11.3145 9.31263C10.3762 9.31359 9.43219 9.30594 8.73683 8.46902ZM8.55318 7.34994C8.99221 8.00608 9.38628 8.67753 10.206 8.7244C11.3461 8.78848 12.492 8.74066 13.6349 8.76266C14.6507 8.78179 15.1481 8.11512 15.6254 7.36237C13.7172 6.77892 10.7961 6.77223 8.55318 7.34994ZM12.117 15.4848C11.5049 15.9927 11.3222 16.6249 11.3289 17.3375C11.3423 17.5756 11.3227 17.8144 11.2705 18.0472C11.0266 18.9004 11.5575 19.3489 12.0816 19.7822C12.864 19.2954 13.1175 18.6345 12.887 17.7736C12.8361 17.5242 12.8216 17.2687 12.8439 17.0151C12.865 16.3781 12.5111 15.9276 12.117 15.4848ZM16.5053 6.36477C13.5623 5.63211 10.6813 5.48672 7.75548 6.4212C8.17059 6.88414 8.16964 6.87744 8.65648 6.77223C10.9162 6.27582 13.2567 6.27582 15.5163 6.77223C15.9477 6.87266 16.2155 6.77127 16.5053 6.36477ZM15.3451 15.0113C15.0199 14.8344 14.7282 14.5331 14.4843 14.5733C13.8387 14.6689 13.216 14.9157 12.5207 15.1204C12.9348 15.6942 13.3088 16.2031 13.7076 16.7464L15.3451 15.0113ZM10.4843 16.7502L11.6321 15.1653C11.5718 15.1108 11.5623 15.0955 11.5489 15.0917C11.0955 14.952 10.6421 14.8114 10.1878 14.6756C9.42932 14.448 9.42932 14.4499 8.94438 15.1175L10.4843 16.7502ZM14.446 13.4341C12.8688 14.3064 11.2973 14.2796 9.66844 13.4924C9.73156 13.7316 9.81286 14.0089 9.97451 14.0663C11.9104 14.7779 11.9133 14.7703 13.8961 14.1782C13.9394 14.1588 13.9841 14.1428 14.03 14.1304C14.4307 14.0826 14.5953 13.8846 14.446 13.4341ZM16.359 15.3384L16.248 15.1558C16.0242 15.2839 15.7612 15.3729 15.5785 15.547C15.0563 16.0568 14.5809 16.6134 14.0587 17.1223C13.9008 17.2772 13.6493 17.3356 13.3891 17.4647C13.4063 17.656 13.435 17.9802 13.4733 18.3973C14.4757 17.3279 15.4169 16.3313 16.3571 15.3346L16.359 15.3384ZM10.8009 17.4829C10.5226 17.3308 10.2701 17.2533 10.1017 17.0897C9.58044 16.579 9.10507 16.0223 8.58092 15.5144C8.41067 15.3499 8.14572 15.2839 7.92478 15.172L7.82913 15.3327L10.7273 18.3934L10.8009 17.4829ZM8.16007 8.61823C7.52593 8.98934 7.51827 9.50201 8.09886 9.87026C8.11799 9.45993 8.13712 9.07256 8.16007 8.61823ZM16.0816 9.90756C16.6842 9.4341 16.6479 8.90708 16.0816 8.6737V9.90756Z" fill="black"/>
</svg>
