<svg width="139" height="143" viewBox="0 0 139 143" fill="none" xmlns="http://www.w3.org/2000/svg">
<path d="M127.726 94.0076C114.846 124.334 80.5386 141.323 50.7867 136.74C45.9455 135.994 32.6733 133.773 20.9239 123.292C-1.69868 103.119 -6.53608 63.1742 11.7114 35.0232C24.9927 14.5351 48.8006 2.91967 71.4227 3.50066C76.2955 3.62605 94.9684 4.39702 111.383 17.9301C113.794 19.9176 119.111 24.6411 123.902 32.1341C135.152 49.7297 136.119 74.244 127.726 94.0076Z" fill="url(#paint0_linear_4633_31639)"/>
<path d="M31.9056 8.54292C30.3608 8.67876 28.9226 9.38754 27.8738 10.5299C26.825 11.6723 26.2415 13.1657 26.2379 14.7165C26.1819 34.3776 26.09 102.194 27.3716 126.196C27.4365 127.421 27.9656 128.575 28.8511 129.424C29.7367 130.272 30.9122 130.752 32.1387 130.764C44.7328 130.9 80.9606 131.147 101.527 129.833C103.59 129.703 105.525 128.791 106.939 127.284C108.353 125.776 109.139 123.786 109.137 121.719C109.112 101.084 108.782 43.0522 105.955 16.5264C105.791 14.9871 105.093 13.5538 103.983 12.4751C102.872 11.3964 101.419 10.7404 99.8757 10.6209C86.1407 9.55079 49.6649 6.99809 31.9056 8.54292Z" fill="url(#paint1_linear_4633_31639)"/>
<path d="M31.2936 19.8711C31.0461 36.6891 30.3422 92.6365 31.5711 113.285C31.7511 116.304 34.0956 118.687 36.99 118.789C48.9093 119.204 79.4732 120.008 96.8889 118.092C100.025 117.747 102.422 115.029 102.505 111.737C102.941 94.5737 104.118 42.4654 102.923 22.0476C102.732 18.79 100.243 16.1909 97.1244 15.9808C84.2192 15.1112 51.0796 13.106 36.2697 14.3393C33.4897 14.5695 31.3361 16.9595 31.2936 19.8711Z" fill="#91B3FA"/>
<path d="M60.0912 11.467C60.0956 11.6905 60.1858 11.9038 60.3431 12.0627C60.5004 12.2217 60.7128 12.314 60.9363 12.3207C63.2296 12.3906 69.6903 12.5883 72.578 12.6926C72.7109 12.6973 72.8431 12.6716 72.9646 12.6174C73.086 12.5632 73.1935 12.482 73.2787 12.38C73.364 12.278 73.4248 12.1578 73.4566 12.0287C73.4884 11.8996 73.4902 11.7649 73.462 11.6349C73.4524 11.6172 73.3782 10.9032 72.6484 10.8525C70.6953 10.717 64.8022 10.3505 60.9076 10.5754C60.1065 10.6213 60.0648 11.5311 60.0912 11.467Z" fill="url(#paint2_linear_4633_31639)"/>
<path d="M130.927 102.151C135.225 97.8527 135.225 90.8834 130.927 86.5848C126.628 82.2863 119.659 82.2863 115.36 86.5848C111.062 90.8834 111.062 97.8527 115.36 102.151C119.659 106.45 126.628 106.45 130.927 102.151Z" fill="url(#paint3_linear_4633_31639)"/>
<path d="M130.668 101.893C134.824 97.737 134.824 90.9991 130.668 86.8434C126.512 82.6876 119.775 82.6876 115.619 86.8434C111.463 90.9991 111.463 97.737 115.619 101.893C119.775 106.048 126.512 106.049 130.668 101.893Z" fill="url(#paint4_linear_4633_31639)"/>
<path opacity="0.58" d="M114.368 90.0646C114.348 90.0647 114.329 90.0596 114.311 90.0499C114.294 90.0401 114.279 90.026 114.268 90.009C114.258 89.9919 114.252 89.9724 114.251 89.9524C114.251 89.9324 114.255 89.9126 114.264 89.8947C115.089 88.2476 116.357 86.8632 117.926 85.8974C119.494 84.9317 121.301 84.4228 123.143 84.428C123.745 84.4278 124.345 84.4818 124.937 84.5893C124.952 84.5921 124.966 84.5978 124.979 84.6061C124.992 84.6145 125.003 84.6253 125.012 84.6379C125.021 84.6505 125.027 84.6648 125.03 84.6798C125.033 84.6948 125.033 84.7103 125.031 84.7255C125.028 84.7406 125.022 84.755 125.014 84.7679C125.005 84.7808 124.995 84.7919 124.982 84.8007C124.969 84.8094 124.955 84.8156 124.94 84.8188C124.925 84.822 124.91 84.8223 124.895 84.8195C124.317 84.7147 123.731 84.662 123.143 84.662C121.344 84.6569 119.58 85.1539 118.048 86.097C116.516 87.0401 115.278 88.392 114.472 90.0005C114.462 90.0197 114.448 90.0358 114.429 90.0471C114.411 90.0585 114.39 90.0645 114.368 90.0646Z" fill="white"/>
<path opacity="0.78" d="M129.744 100.969C133.261 97.4513 133.261 91.7486 129.744 88.2313C126.227 84.7139 120.524 84.7139 117.007 88.2313C113.489 91.7486 113.489 97.4513 117.007 100.969C120.524 104.486 126.227 104.486 129.744 100.969Z" fill="white"/>
<path d="M75.0197 120.329C75.5165 116.048 72.4492 112.175 68.1687 111.678C63.8881 111.182 60.0153 114.249 59.5185 118.53C59.0217 122.81 62.0891 126.683 66.3696 127.18C70.6502 127.676 74.523 124.609 75.0197 120.329Z" fill="url(#paint5_linear_4633_31639)"/>
<path d="M72.6031 124.764C75.5489 121.818 75.5489 117.042 72.6031 114.096C69.6573 111.15 64.8811 111.15 61.9353 114.096C58.9895 117.042 58.9895 121.818 61.9353 124.764C64.8811 127.71 69.6573 127.71 72.6031 124.764Z" fill="url(#paint6_linear_4633_31639)"/>
<path d="M61.0492 116.379C61.0362 116.379 61.0234 116.376 61.0119 116.37C61.0021 116.365 60.9934 116.359 60.9863 116.35C60.9791 116.342 60.9737 116.333 60.9702 116.322C60.9668 116.312 60.9655 116.301 60.9663 116.29C60.9671 116.279 60.9701 116.269 60.975 116.259C61.5595 115.091 62.4583 114.109 63.5702 113.425C64.6822 112.74 65.9632 112.379 67.2692 112.382C67.6954 112.382 68.1208 112.421 68.5403 112.497C68.5618 112.501 68.5808 112.513 68.5934 112.531C68.6059 112.549 68.6109 112.571 68.6073 112.592C68.6054 112.603 68.6014 112.613 68.5955 112.622C68.5897 112.632 68.5821 112.639 68.5732 112.646C68.5643 112.652 68.5543 112.656 68.5437 112.658C68.5331 112.661 68.5222 112.661 68.5116 112.659C68.1019 112.585 67.6864 112.548 67.2701 112.547C65.9951 112.544 64.7443 112.896 63.6586 113.565C62.5728 114.233 61.6951 115.191 61.1243 116.332C61.1176 116.346 61.107 116.358 61.0937 116.366C61.0804 116.375 61.065 116.379 61.0492 116.379Z" fill="white"/>
<path opacity="0.78" d="M67.4338 125.979C70.9599 125.979 73.8184 123.12 73.8184 119.594C73.8184 116.068 70.9599 113.209 67.4338 113.209C63.9077 113.209 61.0492 116.068 61.0492 119.594C61.0492 123.12 63.9077 125.979 67.4338 125.979Z" fill="white"/>
<path d="M126.727 119.588C127.235 114.082 123.183 109.207 117.677 108.699C112.171 108.191 107.296 112.243 106.788 117.749C106.28 123.255 110.332 128.13 115.838 128.638C121.344 129.145 126.219 125.094 126.727 119.588Z" fill="url(#paint7_linear_4633_31639)"/>
<path d="M123.601 125.511C127.381 121.731 127.381 115.603 123.601 111.824C119.821 108.044 113.693 108.044 109.913 111.824C106.133 115.603 106.133 121.731 109.913 125.511C113.693 129.291 119.821 129.291 123.601 125.511Z" fill="url(#paint8_linear_4633_31639)"/>
<path opacity="0.58" d="M108.777 114.753C108.759 114.753 108.741 114.749 108.725 114.74C108.709 114.731 108.696 114.718 108.686 114.703C108.677 114.687 108.671 114.669 108.67 114.651C108.669 114.633 108.673 114.615 108.682 114.599C109.432 113.101 110.585 111.842 112.012 110.964C113.438 110.085 115.082 109.622 116.757 109.627C117.304 109.627 117.85 109.676 118.388 109.774C118.402 109.777 118.415 109.782 118.426 109.789C118.438 109.797 118.448 109.807 118.456 109.818C118.464 109.83 118.47 109.843 118.473 109.856C118.476 109.87 118.476 109.884 118.473 109.898C118.471 109.912 118.466 109.925 118.458 109.936C118.45 109.948 118.441 109.958 118.429 109.966C118.418 109.974 118.405 109.98 118.391 109.983C118.377 109.986 118.363 109.986 118.35 109.983C117.824 109.888 117.291 109.84 116.757 109.84C115.121 109.835 113.517 110.287 112.124 111.145C110.731 112.003 109.605 113.232 108.873 114.695C108.864 114.712 108.85 114.727 108.833 114.737C108.816 114.748 108.797 114.753 108.777 114.753Z" fill="white"/>
<path opacity="0.78" d="M122.76 124.671C125.959 121.472 125.959 116.285 122.76 113.086C119.561 109.887 114.374 109.887 111.175 113.086C107.976 116.285 107.976 121.472 111.175 124.671C114.374 127.87 119.56 127.87 122.76 124.671Z" fill="white"/>
<path d="M75.8533 53.4164C81.7081 47.5616 81.7081 38.069 75.8533 32.2142C69.9985 26.3594 60.506 26.3594 54.6511 32.2142C48.7963 38.069 48.7963 47.5616 54.6511 53.4164C60.506 59.2712 69.9985 59.2712 75.8533 53.4164Z" fill="url(#paint9_linear_4633_31639)"/>
<path d="M75.5011 53.0641C81.1613 47.4039 81.1613 38.2268 75.5011 32.5665C69.8408 26.9062 60.6637 26.9062 55.0035 32.5665C49.3432 38.2268 49.3432 47.4039 55.0035 53.0641C60.6637 58.7244 69.8408 58.7244 75.5011 53.0641Z" fill="url(#paint10_linear_4633_31639)"/>
<path opacity="0.58" d="M51.8918 42.2587H51.8836C51.8434 42.2563 51.8057 42.238 51.7788 42.2079C51.7519 42.1778 51.738 42.1383 51.7401 42.0979C51.7698 41.5277 51.8355 40.96 51.9368 40.3981C51.9395 40.3775 51.9463 40.3577 51.9569 40.3399C51.9675 40.322 51.9816 40.3065 51.9983 40.2943C52.0151 40.2821 52.0341 40.2734 52.0544 40.2688C52.0746 40.2641 52.0955 40.2636 52.1159 40.2673C52.1363 40.271 52.1558 40.2788 52.1731 40.2903C52.1904 40.3017 52.2051 40.3165 52.2165 40.3339C52.2279 40.3512 52.2357 40.3707 52.2393 40.3911C52.243 40.4115 52.2425 40.4324 52.2378 40.4526C52.1395 41.0018 52.0755 41.5566 52.0464 42.1137C52.0443 42.1532 52.027 42.1903 51.9982 42.2173C51.9694 42.2443 51.9313 42.2592 51.8918 42.2587Z" fill="white"/>
<path opacity="0.58" d="M53.3007 36.9475C53.2768 36.9474 53.2532 36.9419 53.2318 36.9312C53.1956 36.9129 53.1681 36.8809 53.1555 36.8423C53.1428 36.8037 53.146 36.7617 53.1643 36.7255C55.4816 32.1345 60.1137 29.2827 65.2526 29.2827C66.0711 29.2826 66.8879 29.3561 67.6933 29.5024C67.7333 29.5097 67.7687 29.5326 67.7918 29.566C67.8149 29.5994 67.8238 29.6407 67.8165 29.6806C67.8092 29.7206 67.7863 29.7561 67.7529 29.7792C67.7195 29.8023 67.6782 29.8112 67.6382 29.8039C66.8509 29.6608 66.0523 29.5889 65.2521 29.589C60.2271 29.589 55.7022 32.3767 53.4371 36.8633C53.4244 36.8886 53.4049 36.9099 53.3809 36.9247C53.3568 36.9396 53.329 36.9475 53.3007 36.9475Z" fill="white"/>
<path opacity="0.78" d="M74.2424 51.8055C79.0331 47.0148 79.0331 39.2476 74.2424 34.457C69.4518 29.6663 61.6846 29.6663 56.894 34.457C52.1033 39.2476 52.1033 47.0148 56.894 51.8055C61.6846 56.5961 69.4518 56.5961 74.2424 51.8055Z" fill="white"/>
<path d="M69.1644 38.2808C69.1644 40.4301 67.4219 42.7497 65.2731 42.7497C63.1243 42.7497 61.3823 40.4301 61.3823 38.2808C61.3823 36.1316 63.1243 34.6073 65.2731 34.6073C67.4219 34.6073 69.1644 36.132 69.1644 38.2808Z" fill="url(#paint11_linear_4633_31639)"/>
<path d="M60.4443 51.0233H69.943C70.4306 51.0235 70.9057 50.8685 71.2994 50.5808C71.6931 50.2931 71.985 49.8876 72.1329 49.4229L72.645 47.8274C72.8265 47.2639 72.7834 46.6522 72.5248 46.1197C72.2663 45.5872 71.8121 45.1751 71.2571 44.9693C67.3917 43.5561 63.3947 43.7375 59.3 45.1C58.1515 45.4828 57.5164 46.7085 57.8327 47.8757L58.2256 49.3272C58.3577 49.8144 58.6466 50.2445 59.0476 50.5511C59.4487 50.8577 59.9395 51.0236 60.4443 51.0233Z" fill="url(#paint12_linear_4633_31639)"/>
<path d="M98.1333 35.6517C102.252 31.5326 102.252 24.8541 98.1333 20.735C94.0141 16.6159 87.3357 16.6159 83.2165 20.735C79.0974 24.8541 79.0974 31.5326 83.2165 35.6517C87.3357 39.7709 94.0141 39.7709 98.1333 35.6517Z" fill="url(#paint13_linear_4633_31639)"/>
<path d="M97.8852 35.4037C101.867 31.4215 101.867 24.9652 97.8852 20.983C93.9031 17.0009 87.4467 17.0009 83.4646 20.983C79.4824 24.9652 79.4824 31.4215 83.4646 35.4037C87.4467 39.3858 93.9031 39.3858 97.8852 35.4037Z" fill="url(#paint14_linear_4633_31639)"/>
<path opacity="0.58" d="M81.2746 27.8015H81.2688C81.2403 27.7999 81.2136 27.7871 81.1945 27.7658C81.1754 27.7446 81.1654 27.7166 81.1669 27.6881C81.1879 27.2868 81.2341 26.8872 81.3052 26.4917C81.3103 26.4635 81.3263 26.4386 81.3498 26.4223C81.3732 26.406 81.4022 26.3997 81.4303 26.4048C81.4585 26.4099 81.4834 26.4259 81.4997 26.4494C81.516 26.4728 81.5223 26.5018 81.5172 26.5299C81.448 26.9163 81.4029 27.3066 81.3822 27.6986C81.381 27.7263 81.3691 27.7525 81.3491 27.7717C81.329 27.7908 81.3023 27.8015 81.2746 27.8015Z" fill="white"/>
<path opacity="0.58" d="M82.2643 24.0654C82.2459 24.0653 82.2278 24.0606 82.2118 24.0516C82.1957 24.0426 82.1823 24.0296 82.1727 24.0139C82.1631 23.9982 82.1577 23.9803 82.1569 23.9619C82.1562 23.9436 82.1602 23.9253 82.1686 23.9089C83.0963 22.0726 84.593 20.5857 86.4352 19.6698C88.2774 18.754 90.3664 18.4585 92.3904 18.8274C92.4185 18.8325 92.4434 18.8485 92.4597 18.872C92.476 18.8955 92.4823 18.9245 92.4772 18.9526C92.4722 18.9807 92.4561 19.0056 92.4326 19.0219C92.4092 19.0382 92.3802 19.0445 92.3521 19.0394C91.7982 18.9387 91.2363 18.8881 90.6733 18.8882C88.949 18.8836 87.2577 19.3602 85.7895 20.2643C84.3212 21.1685 83.1344 22.4643 82.3624 24.006C82.3533 24.0242 82.3392 24.0394 82.3219 24.0499C82.3045 24.0604 82.2846 24.0657 82.2643 24.0654Z" fill="white"/>
<path opacity="0.78" d="M96.9993 34.5181C100.37 31.1477 100.37 25.6831 96.9993 22.3127C93.6289 18.9422 88.1643 18.9422 84.7939 22.3127C81.4234 25.6831 81.4234 31.1477 84.7939 34.5181C88.1643 37.8886 93.6289 37.8886 96.9993 34.5181Z" fill="white"/>
<path d="M93.4265 25.0034C93.4265 26.5152 92.2009 28.1471 90.6891 28.1471C89.1773 28.1471 87.9517 26.5152 87.9517 25.0034C87.9517 23.4915 89.1773 22.4191 90.6891 22.4191C92.2009 22.4191 93.4265 23.4915 93.4265 25.0034Z" fill="url(#paint15_linear_4633_31639)"/>
<path d="M87.2922 33.9679H93.9745C94.3173 33.9679 94.6513 33.8589 94.9282 33.6568C95.2051 33.4547 95.4106 33.1698 95.515 32.8433L95.8745 31.7196C96.0021 31.3233 95.9718 30.8932 95.79 30.5187C95.6082 30.1442 95.2889 29.8544 94.8986 29.7096C92.1789 28.7156 89.3668 28.8429 86.4863 29.8015C86.0978 29.934 85.7746 30.21 85.5827 30.5729C85.3908 30.9358 85.3448 31.3583 85.454 31.754L85.7307 32.7748C85.8239 33.1175 86.0274 33.42 86.3096 33.6356C86.5918 33.8512 86.9371 33.968 87.2922 33.9679Z" fill="url(#paint16_linear_4633_31639)"/>
<path d="M54.3696 22.3751C58.4887 18.256 58.4887 11.5775 54.3696 7.45839C50.2505 3.33925 43.572 3.33925 39.4529 7.45839C35.3337 11.5775 35.3337 18.256 39.4529 22.3751C43.572 26.4942 50.2504 26.4942 54.3696 22.3751Z" fill="url(#paint17_linear_4633_31639)"/>
<path d="M54.1215 22.1271C58.1037 18.1449 58.1037 11.6886 54.1215 7.70644C50.1394 3.72429 43.6831 3.72429 39.7009 7.70644C35.7188 11.6886 35.7188 18.1449 39.7009 22.1271C43.6831 26.1092 50.1394 26.1092 54.1215 22.1271Z" fill="url(#paint18_linear_4633_31639)"/>
<path opacity="0.58" d="M37.5116 14.5245H37.5059C37.4774 14.5229 37.4506 14.5101 37.4315 14.4888C37.4124 14.4676 37.4025 14.4396 37.4039 14.4111C37.4247 14.0098 37.4709 13.6102 37.5423 13.2147C37.5448 13.2008 37.55 13.1875 37.5576 13.1756C37.5653 13.1637 37.5752 13.1534 37.5868 13.1453C37.5985 13.1373 37.6116 13.1316 37.6254 13.1286C37.6392 13.1256 37.6535 13.1253 37.6674 13.1278C37.6813 13.1303 37.6946 13.1356 37.7065 13.1432C37.7184 13.1509 37.7287 13.1608 37.7367 13.1724C37.7448 13.184 37.7505 13.1971 37.7535 13.2109C37.7565 13.2248 37.7568 13.239 37.7543 13.253C37.6846 13.6393 37.6394 14.0296 37.6188 14.4216C37.6177 14.4493 37.6059 14.4755 37.5859 14.4947C37.566 14.5138 37.5393 14.5245 37.5116 14.5245Z" fill="white"/>
<path opacity="0.58" d="M38.5027 10.7883C38.4861 10.7881 38.4698 10.7842 38.4549 10.7768C38.4297 10.7639 38.4106 10.7416 38.4017 10.7148C38.3927 10.688 38.3946 10.6587 38.407 10.6332C39.1964 9.05499 40.4107 7.72842 41.9132 6.80285C43.4156 5.87729 45.1466 5.38947 46.9112 5.39432C47.4873 5.39411 48.0621 5.44585 48.6288 5.5489C48.657 5.55404 48.6819 5.57014 48.6981 5.59365C48.7144 5.61717 48.7206 5.64617 48.7155 5.67429C48.7103 5.7024 48.6942 5.72732 48.6707 5.74357C48.6472 5.75981 48.6182 5.76605 48.5901 5.76091C48.0361 5.66016 47.4743 5.60954 46.9112 5.60968C45.1866 5.6049 43.4949 6.08153 42.0265 6.98595C40.5581 7.89036 39.3712 9.18666 38.5994 10.729C38.5904 10.7469 38.5766 10.7619 38.5595 10.7724C38.5425 10.7829 38.5228 10.7884 38.5027 10.7883Z" fill="white"/>
<path opacity="0.78" d="M53.2362 21.2415C56.6066 17.8711 56.6066 12.4065 53.2362 9.03607C49.8657 5.66563 44.4011 5.66563 41.0307 9.03607C37.6603 12.4065 37.6603 17.8711 41.0307 21.2415C44.4011 24.612 49.8657 24.612 53.2362 21.2415Z" fill="white"/>
<path d="M49.6631 11.7264C49.6631 13.2382 48.438 14.8701 46.9257 14.8701C45.4134 14.8701 44.1887 13.2382 44.1887 11.7264C44.1887 10.2146 45.4139 9.14209 46.9257 9.14209C48.4375 9.14209 49.6631 10.2146 49.6631 11.7264Z" fill="url(#paint19_linear_4633_31639)"/>
<path d="M43.5287 20.6909H50.211C50.5539 20.6909 50.8879 20.582 51.1649 20.3799C51.4418 20.1777 51.6474 19.8928 51.752 19.5663L52.1114 18.4426C52.2389 18.0463 52.2085 17.6161 52.0266 17.2417C51.8447 16.8672 51.5254 16.5774 51.1351 16.4326C48.4154 15.4386 45.6033 15.5659 42.7228 16.5245C42.3343 16.6571 42.0112 16.9331 41.8193 17.296C41.6275 17.6589 41.5814 18.0813 41.6905 18.477L41.9686 19.4969C42.0615 19.8396 42.2646 20.1422 42.5465 20.358C42.8285 20.5738 43.1736 20.6908 43.5287 20.6909Z" fill="url(#paint20_linear_4633_31639)"/>
<path d="M87.1391 97.5275H47.018C39.1642 81.5509 31.3099 65.2512 23.4556 49.1133H110.702C102.847 65.2512 94.9943 81.5509 87.1391 97.5275Z" fill="url(#paint21_linear_4633_31639)"/>
<path d="M112.512 47.1765H21.7447C21.1849 47.1765 20.7311 47.6303 20.7311 48.1901V49.7134C20.7311 50.2732 21.1849 50.727 21.7447 50.727H112.512C113.072 50.727 113.526 50.2732 113.526 49.7134V48.1901C113.526 47.6303 113.072 47.1765 112.512 47.1765Z" fill="url(#paint22_linear_4633_31639)"/>
<path d="M84.258 116.409H49.899C48.9031 110.438 47.9072 103.823 46.9113 97.5275H87.2457C86.2498 103.822 85.2539 110.441 84.258 116.409Z" fill="url(#paint23_linear_4633_31639)"/>
<path d="M85.2841 116.567C85.2841 117.263 84.8534 117.701 84.348 117.701H49.5458C49.0395 117.701 48.6504 117.263 48.6504 116.567V115.791C48.6504 115.095 49.0395 114.473 49.5458 114.473H84.348C84.8543 114.473 85.2841 115.095 85.2841 115.791V116.567Z" fill="url(#paint24_linear_4633_31639)"/>
<path d="M19.0647 79.538C19.0647 79.538 27.9661 85.6283 29.8914 82.7004C31.8167 79.7725 22.0759 70.9653 22.0759 70.9653L19.0647 79.538Z" fill="url(#paint25_linear_4633_31639)"/>
<path d="M17.0747 136.954C17.0762 136.908 17.0716 136.863 17.0609 136.819C16.3909 134.154 13.0523 132.493 13.0523 132.493L11.7301 132.599C10.9696 134.948 11.0672 136.389 11.1898 137.03C11.1931 137.048 11.1984 137.065 11.2032 137.082C12.2938 137.178 14.5388 137.241 17.0747 136.954Z" fill="url(#paint26_linear_4633_31639)"/>
<path d="M11.1964 130.627L11.7563 133.323C11.7723 133.415 11.8175 133.501 11.8852 133.566C11.953 133.631 12.0398 133.673 12.133 133.685C12.4218 133.715 12.7129 133.71 13.0006 133.672C13.2878 133.629 13.4907 133.337 13.4395 133.02L13.0504 130.627L11.1964 130.627Z" fill="url(#paint27_linear_4633_31639)"/>
<path d="M28.7869 136.835C28.7782 136.814 28.7677 136.794 28.7553 136.775C28.0475 135.785 26.2437 133.815 22.6803 132.96L20.9708 132.907C20.9708 132.907 20.2094 134.23 20.1951 136.681C20.5856 136.84 21.3408 137.012 22.8009 137.053C25.0583 137.116 27.7359 136.922 28.7869 136.835Z" fill="url(#paint28_linear_4633_31639)"/>
<path d="M20.6534 130.316C20.6726 130.443 20.9066 132.38 20.9975 133.131C21.0047 133.214 21.0396 133.292 21.0965 133.353C21.1535 133.413 21.2292 133.453 21.3115 133.466C21.6024 133.501 22.0734 133.532 22.4854 133.448C22.708 133.4 22.8683 133.189 22.8683 132.94V129.9L20.6534 130.316Z" fill="url(#paint29_linear_4633_31639)"/>
<path d="M19.2843 94.9709C19.2843 94.9709 23.4077 110.641 23.3331 130.36C23.3326 130.535 23.2722 130.704 23.162 130.839C23.0518 130.975 22.8985 131.068 22.7277 131.104C22.2094 131.214 21.447 131.344 20.8163 131.326C20.6528 131.32 20.4962 131.258 20.3732 131.15C20.2502 131.043 20.1683 130.895 20.1415 130.734C19.5629 127.344 16.2449 108.241 14.3546 105.142C14.3546 105.142 13.1103 122.154 13.5085 130.98C13.5134 131.086 13.4781 131.189 13.4096 131.27C13.3412 131.351 13.2446 131.403 13.1395 131.415C12.6294 131.47 12.1149 131.468 11.6052 131.411C11.4809 131.398 11.3644 131.345 11.2739 131.259C11.1835 131.173 11.1244 131.059 11.106 130.936C10.6945 128.064 8.32411 110.986 8.42604 98.6798C8.43179 97.9859 10.2614 94.969 10.2614 94.969L19.2843 94.9709Z" fill="url(#paint30_linear_4633_31639)"/>
<path d="M22.1222 70.9529C16.4473 70.1321 10.2139 70.8854 7.19081 71.2663C6.21204 71.3903 5.31388 71.8725 4.66969 72.6197C2.10982 75.5821 -3.50765 83.6934 3.10429 91.866C3.9504 91.3965 5.15257 90.6432 5.96902 89.7717C5.23776 87.7096 5.17794 85.0746 6.7108 81.8428C6.76308 82.0991 6.82841 82.3526 6.90654 82.6023C9.01991 89.296 9.13237 94.8666 9.12759 96.1506C9.12717 96.2357 9.1523 96.319 9.19974 96.3896C9.24719 96.4603 9.31474 96.5151 9.39367 96.5469C12.1747 97.661 17.5294 96.9977 19.3245 96.7302C19.4823 96.7059 19.6241 96.6201 19.7188 96.4916C19.8136 96.3631 19.8537 96.2023 19.8304 96.0444C19.1982 91.4645 21.3441 84.7678 23.0511 80.3721C23.7235 78.6349 22.4754 71.4401 22.1222 70.9529Z" fill="url(#paint31_linear_4633_31639)"/>
<path d="M12.7959 64.4979L12.0101 70.974C11.9927 71.1164 12.0265 71.2604 12.1053 71.3803C12.1842 71.5002 12.3031 71.5882 12.4408 71.6286C13.2912 71.877 15.1117 72.2537 16.7752 71.5688C16.9281 71.5048 17.0536 71.3891 17.13 71.242C17.2063 71.0949 17.2286 70.9257 17.193 70.7639L16.2024 66.2055L12.7959 64.4979Z" fill="url(#paint32_linear_4633_31639)"/>
<path d="M15.608 59.5461C15.686 59.6117 19.0776 65.4268 19.0776 65.4268L15.7161 67.2932L11.6827 62.2591C11.6827 62.2591 14.3024 58.4502 15.608 59.5461Z" fill="url(#paint33_linear_4633_31639)"/>
<path d="M13.2204 62.3166C13.1943 62.3968 13.187 62.482 13.1991 62.5656C13.2111 62.6491 13.2421 62.7288 13.2897 62.7985L15.1777 65.5742C15.2059 65.6161 15.2399 65.6538 15.2787 65.6862C15.495 65.8656 16.2287 66.3811 16.7283 65.5938C17.1542 64.9238 17.5553 64.3117 18.0065 64.0432C18.0695 64.0064 18.1391 63.9825 18.2114 63.9727C18.2836 63.963 18.3571 63.9676 18.4276 63.9865C18.498 64.0053 18.564 64.0379 18.6218 64.0824C18.6796 64.1269 18.7279 64.1824 18.7641 64.2457C19.0805 64.7927 19.6959 65.9087 20.1041 66.9774C20.153 67.1068 20.1512 67.25 20.0991 67.3782C20.0471 67.5064 19.9485 67.6102 19.8232 67.6689C19.1393 67.9924 17.7854 68.5839 16.5689 68.8232C16.4709 68.8428 16.3694 68.8353 16.2753 68.8015C16.1813 68.7678 16.0981 68.7091 16.0348 68.6318C15.4653 67.9388 13.8616 65.9996 13.3247 65.5244C12.826 65.0813 11.9651 65.3081 11.5789 65.4431C11.5066 65.4687 11.4298 65.479 11.3534 65.4734C11.2769 65.4678 11.2025 65.4464 11.1347 65.4105C10.7232 65.1932 9.99383 64.6357 10.5719 63.5881C10.6397 63.4613 10.6553 63.313 10.6154 63.1748C10.5756 63.0367 10.4834 62.9195 10.3585 62.8482C9.89716 62.5812 9.38365 62.0596 9.79235 61.1441C10.2063 60.2175 11.0328 60.0912 11.6028 60.1261C11.7265 60.1359 11.8501 60.1054 11.955 60.039C12.0599 59.9727 12.1405 59.8741 12.1847 59.7581C12.2051 59.698 12.2409 59.6443 12.2885 59.6023C12.3361 59.5603 12.3939 59.5315 12.4561 59.5188C12.5254 59.5026 12.5907 59.4727 12.6483 59.4309C12.7059 59.3891 12.7547 59.3363 12.7916 59.2755C12.8286 59.2147 12.8531 59.1471 12.8637 59.0767C12.8743 59.0063 12.8707 58.9346 12.8533 58.8656C12.7246 58.3616 12.7619 57.6959 13.5496 57.2025C14.9944 56.2971 16.377 57.5591 16.7737 58.6679C17.1705 59.7768 15.5462 60.6693 14.5048 60.8607C13.7401 61.0043 13.3654 61.8657 13.2204 62.3166Z" fill="url(#paint34_linear_4633_31639)"/>
<path d="M14.0305 66.5424C14.0305 66.5424 13.2567 64.6396 12.4115 64.7592C11.5664 64.8788 10.9471 65.7642 12.0531 66.6534C13.4294 67.7613 14.0305 66.5424 14.0305 66.5424Z" fill="url(#paint35_linear_4633_31639)"/>
<path d="M6.42846 81.3437C5.30765 78.2765 5.71443 74.5724 5.71874 74.5355L6.02742 74.5709C6.02311 74.6073 5.62542 78.2401 6.72039 81.237L6.42846 81.3437Z" fill="url(#paint36_linear_4633_31639)"/>
<path d="M14.201 104.743C14.1665 104.743 14.133 104.732 14.1057 104.71C14.0785 104.689 14.0591 104.66 14.0507 104.626C13.7085 103.308 11.1482 101.858 11.1223 101.844C11.0863 101.824 11.0598 101.79 11.0487 101.75C11.0375 101.71 11.0425 101.668 11.0627 101.632C11.0829 101.596 11.1166 101.569 11.1563 101.558C11.196 101.547 11.2385 101.552 11.2745 101.572C11.3846 101.634 13.9765 103.101 14.3512 104.548C14.3566 104.568 14.3581 104.589 14.3554 104.609C14.3527 104.63 14.346 104.649 14.3357 104.667C14.3254 104.685 14.3116 104.7 14.2952 104.713C14.2788 104.725 14.2601 104.734 14.2402 104.74C14.2273 104.742 14.2141 104.743 14.201 104.743Z" fill="url(#paint37_linear_4633_31639)"/>
<path d="M5.96715 89.7717C5.1507 90.6432 3.94853 91.3989 3.10242 91.866C4.36585 93.428 6.07578 94.992 8.33895 96.5229L8.61221 97.1365C8.72787 97.3944 8.91266 97.6153 9.14613 97.7747C9.3796 97.9341 9.65263 98.0258 9.93498 98.0395C13.0988 98.1903 13.9741 97.5193 11.062 95.4883C11.0625 95.4892 7.33825 93.6357 5.96715 89.7717Z" fill="url(#paint38_linear_4633_31639)"/>
<path d="M32.4254 74.6547C32.4254 74.6547 27.9464 78.2751 26.8457 79.6538C25.745 81.0326 26.4207 83.8806 28.5786 83.5097C30.7365 83.1388 34.0525 76.2986 34.0525 76.2986L32.4254 74.6547Z" fill="url(#paint39_linear_4633_31639)"/>
<path d="M25.5364 69.8455C25.5364 69.8455 32.9442 76.9714 34.8403 78.2856C37.0417 79.8112 39.9361 76.802 38.9292 75.1313C37.9223 73.4606 30.3628 68.1556 30.3628 68.1556L25.5364 69.8455Z" fill="url(#paint40_linear_4633_31639)"/>
<path d="M26.9893 61.4102L44.0982 44.6167L52.9809 63.9256L29.966 69.1401L26.9893 61.4102Z" fill="url(#paint41_linear_4633_31639)"/>
<path d="M53.365 64.1431C54.4757 63.6171 53.2834 58.7713 50.7017 53.3196C48.1201 47.868 45.1268 43.875 44.016 44.401C42.9052 44.927 44.0976 49.7728 46.6792 55.2245C49.2609 60.6761 52.2542 64.6692 53.365 64.1431Z" fill="url(#paint42_linear_4633_31639)"/>
<path d="M53.2007 63.39C52.9317 63.2914 52.1957 62.7679 50.9849 61.0823C49.8124 59.4552 48.537 57.2294 47.3928 54.813C46.2485 52.3967 45.3349 50.0005 44.8185 48.0652C44.2849 46.06 44.3428 45.1593 44.4357 44.8884C44.7051 44.987 45.4407 45.5106 46.6519 47.1961C47.8239 48.8232 49.0998 51.0491 50.2436 53.4654C51.3874 55.8817 52.3015 58.2774 52.8178 60.2132C53.3534 62.2185 53.295 63.1191 53.2007 63.39Z" fill="url(#paint43_linear_4633_31639)"/>
<mask id="mask0_4633_31639" style="mask-type:luminance" maskUnits="userSpaceOnUse" x="44" y="44" width="10" height="20">
<path d="M53.2007 63.39C52.9317 63.2914 52.1957 62.7679 50.9849 61.0823C49.8124 59.4552 48.537 57.2294 47.3928 54.813C46.2485 52.3967 45.3349 50.0005 44.8185 48.0652C44.2849 46.06 44.3428 45.1593 44.4357 44.8884C44.7051 44.987 45.4407 45.5106 46.6519 47.1961C47.8239 48.8232 51.508 49.9082 52.6523 52.3235C53.7965 54.7389 52.3019 58.2765 52.8178 60.2142C53.3534 62.2185 53.295 63.1191 53.2007 63.39Z" fill="white"/>
</mask>
<g mask="url(#mask0_4633_31639)">
<path d="M51.3621 52.8442C52.1565 54.5192 51.8971 56.3091 50.1087 57.1557C48.3203 58.0023 46.227 57.3299 45.4326 55.653C44.6381 53.9761 45.4441 51.9292 47.232 51.0826C49.0199 50.236 50.5676 51.1673 51.3621 52.8442Z" fill="url(#paint44_linear_4633_31639)"/>
</g>
<path d="M23.4924 62.5611C24.4017 61.993 25.7642 61.2986 27.4191 60.934C28.1441 63.7365 29.487 66.3796 31.3697 68.8835L27.1582 70.8782C26.8333 71.0322 26.4641 71.0653 26.1169 70.9714C25.7698 70.8776 25.4675 70.6629 25.2645 70.3661C24.4251 69.1362 23.111 67.0233 22.5338 65.1018C22.3924 64.6318 22.4097 64.1284 22.583 63.6692C22.7562 63.21 23.0758 62.8206 23.4924 62.5611Z" fill="url(#paint45_linear_4633_31639)"/>
<path d="M26.9749 63.381L23.6938 64.9349C23.6313 64.9654 23.5617 64.9782 23.4924 64.972C23.4231 64.9659 23.3569 64.941 23.3007 64.9C23.2445 64.859 23.2005 64.8035 23.1735 64.7394C23.1465 64.6753 23.1374 64.6051 23.1473 64.5363C23.1499 64.5171 23.1562 64.4986 23.1659 64.4818C23.1756 64.465 23.1885 64.4503 23.2038 64.4386C23.2192 64.4268 23.2368 64.4182 23.2555 64.4132C23.2742 64.4082 23.2937 64.4069 23.3129 64.4094C23.3321 64.412 23.3506 64.4183 23.3674 64.428C23.3841 64.4377 23.3988 64.4506 23.4106 64.466C23.4224 64.4813 23.431 64.4989 23.436 64.5176C23.441 64.5363 23.4423 64.5558 23.4397 64.575C23.437 64.5913 23.4389 64.6079 23.445 64.6232C23.4512 64.6385 23.4614 64.6518 23.4746 64.6617C23.4877 64.6715 23.5034 64.6776 23.5198 64.6792C23.5362 64.6808 23.5527 64.6779 23.5675 64.6707L26.8486 63.1168C26.8702 63.1066 26.8868 63.0882 26.8949 63.0657C26.903 63.0431 26.9018 63.0184 26.8917 62.9967L26.7811 62.7632C26.7708 62.7415 26.7523 62.7249 26.7297 62.7168C26.7071 62.7087 26.6822 62.7099 26.6605 62.7201L23.3555 64.2855C23.3379 64.2947 23.3187 64.3003 23.2989 64.3019C23.2791 64.3035 23.2591 64.3011 23.2403 64.2948C23.2215 64.2886 23.2041 64.2785 23.1892 64.2654C23.1743 64.2522 23.1623 64.2362 23.1538 64.2182C23.1453 64.2003 23.1405 64.1808 23.1396 64.161C23.1388 64.1411 23.1421 64.1213 23.1491 64.1028C23.1561 64.0842 23.1669 64.0672 23.1806 64.0529C23.1944 64.0386 23.2109 64.0272 23.2292 64.0194L26.5346 62.4535C26.627 62.4099 26.7329 62.4048 26.8291 62.4391C26.9252 62.4735 27.0038 62.5446 27.0477 62.6368L27.1582 62.8704C27.2011 62.9625 27.2058 63.0677 27.1715 63.1633C27.1372 63.259 27.0666 63.3372 26.9749 63.381Z" fill="#91B3FA"/>
<path d="M27.3722 64.9727L24.0916 66.5266C24.029 66.5563 23.9595 66.5686 23.8906 66.5621C23.8216 66.5556 23.7556 66.5307 23.6996 66.4899C23.6436 66.4491 23.5997 66.3939 23.5724 66.3302C23.5451 66.2665 23.5355 66.1967 23.5446 66.128C23.5497 66.0892 23.5701 66.054 23.6011 66.0303C23.6322 66.0065 23.6714 65.996 23.7102 66.0011C23.749 66.0063 23.7841 66.0266 23.8079 66.0577C23.8317 66.0887 23.8421 66.128 23.837 66.1667C23.8344 66.183 23.8364 66.1997 23.8426 66.2149C23.8488 66.2302 23.8591 66.2434 23.8723 66.2533C23.8855 66.2631 23.9011 66.2692 23.9175 66.2708C23.9339 66.2724 23.9504 66.2695 23.9653 66.2624L27.2463 64.7085C27.2679 64.6982 27.2844 64.6798 27.2925 64.6573C27.3005 64.6348 27.2994 64.6101 27.2894 64.5884L27.1789 64.3549C27.1685 64.3332 27.15 64.3166 27.1274 64.3085C27.1048 64.3004 27.08 64.3016 27.0583 64.3118L23.7533 65.8772C23.7357 65.8855 23.7168 65.8903 23.6974 65.8912C23.6781 65.8922 23.6587 65.8893 23.6405 65.8828C23.6223 65.8763 23.6055 65.8663 23.5911 65.8533C23.5768 65.8403 23.5651 65.8246 23.5568 65.8071C23.5485 65.7896 23.5437 65.7706 23.5428 65.7513C23.5418 65.7319 23.5447 65.7126 23.5512 65.6943C23.5577 65.6761 23.5677 65.6593 23.5807 65.645C23.5937 65.6306 23.6094 65.6189 23.6269 65.6106L26.9319 64.0452C27.0243 64.0016 27.1303 63.9964 27.2265 64.0308C27.3228 64.0651 27.4015 64.1362 27.4454 64.2285L27.556 64.4621C27.5988 64.5542 27.6035 64.6595 27.5691 64.7552C27.5347 64.8508 27.4639 64.9289 27.3722 64.9727Z" fill="#91B3FA"/>
<path opacity="0.58" d="M29.7411 59.5304C29.7096 59.5446 29.6741 59.5473 29.6408 59.538C29.6075 59.5286 29.5785 59.5079 29.5589 59.4794C29.5394 59.4509 29.5305 59.4164 29.5338 59.382C29.537 59.3475 29.5523 59.3154 29.577 59.2911L42.7444 47.0119C42.773 46.9852 42.8111 46.9709 42.8502 46.9723C42.8893 46.9736 42.9263 46.9904 42.953 47.0191C42.9798 47.0477 42.994 47.0857 42.9927 47.1249C42.9913 47.164 42.9745 47.201 42.9459 47.2277L29.7784 59.505C29.7673 59.5152 29.7547 59.5238 29.7411 59.5304Z" fill="white"/>
<path opacity="0.58" d="M28.0503 61.3805C28.0194 61.3949 27.9844 61.3982 27.9514 61.3898C27.9183 61.3814 27.8892 61.3618 27.8689 61.3344C27.8487 61.307 27.8385 61.2734 27.8401 61.2393C27.8418 61.2052 27.8552 61.1728 27.878 61.1475L28.5207 60.4435C28.5471 60.4146 28.5839 60.3974 28.623 60.3957C28.6621 60.3939 28.7003 60.4078 28.7292 60.4342C28.758 60.4606 28.7752 60.4973 28.777 60.5364C28.7787 60.5755 28.7649 60.6137 28.7385 60.6426L28.0948 61.3466C28.0823 61.3607 28.0672 61.3722 28.0503 61.3805Z" fill="white"/>
<path d="M28.469 66.5357L25.1884 68.0896C25.1258 68.1193 25.0563 68.1316 24.9874 68.1251C24.9184 68.1186 24.8524 68.0937 24.7964 68.0529C24.7404 68.0121 24.6965 67.9569 24.6692 67.8932C24.6419 67.8295 24.6323 67.7597 24.6414 67.691C24.6465 67.6522 24.6669 67.617 24.6979 67.5933C24.729 67.5695 24.7682 67.559 24.807 67.5641C24.8458 67.5693 24.8809 67.5896 24.9047 67.6207C24.9285 67.6517 24.9389 67.691 24.9338 67.7297C24.9314 67.746 24.9335 67.7625 24.9397 67.7777C24.946 67.7929 24.9562 67.806 24.9694 67.8158C24.9825 67.8257 24.9981 67.8317 25.0144 67.8334C25.0307 67.8351 25.0472 67.8324 25.0621 67.8254L28.3427 66.2687C28.3534 66.2636 28.363 66.2565 28.371 66.2477C28.379 66.239 28.3852 66.2287 28.3892 66.2175C28.3932 66.2064 28.3949 66.1945 28.3944 66.1827C28.3938 66.1708 28.3908 66.1592 28.3857 66.1485L28.2752 65.915C28.2701 65.9043 28.263 65.8947 28.2542 65.8868C28.2454 65.8788 28.2351 65.8727 28.224 65.8688C28.2128 65.8648 28.201 65.8631 28.1892 65.8637C28.1773 65.8643 28.1657 65.8673 28.1551 65.8724L24.8496 67.4378C24.8142 67.4546 24.7737 67.4566 24.7368 67.4434C24.7 67.4303 24.6699 67.403 24.6531 67.3677C24.6364 67.3323 24.6343 67.2918 24.6475 67.2549C24.6606 67.2181 24.6879 67.188 24.7232 67.1712L28.0287 65.6058C28.121 65.5622 28.2269 65.557 28.323 65.5912C28.4192 65.6255 28.4978 65.6965 28.5418 65.7886L28.6523 66.0222C28.696 66.1146 28.7013 66.2206 28.6669 66.3169C28.6326 66.4132 28.5614 66.4919 28.469 66.5357Z" fill="#91B3FA"/>
<path d="M29.6693 68.2786L26.3882 69.833C26.3255 69.8625 26.2561 69.8747 26.1871 69.8681C26.1181 69.8616 26.0522 69.8366 25.9963 69.7957C25.9403 69.7549 25.8964 69.6997 25.8691 69.6361C25.8418 69.5724 25.8322 69.5025 25.8412 69.4339C25.8437 69.4147 25.85 69.3961 25.8597 69.3794C25.8694 69.3626 25.8823 69.3479 25.8977 69.3361C25.9131 69.3244 25.9306 69.3157 25.9493 69.3107C25.9681 69.3057 25.9876 69.3045 26.0068 69.307C26.026 69.3096 26.0445 69.3159 26.0612 69.3256C26.078 69.3353 26.0927 69.3482 26.1045 69.3636C26.1162 69.3789 26.1249 69.3965 26.1299 69.4152C26.1349 69.4339 26.1361 69.4534 26.1336 69.4726C26.1312 69.4888 26.1332 69.5054 26.1395 69.5206C26.1458 69.5357 26.156 69.5489 26.1692 69.5587C26.1823 69.5685 26.1979 69.5746 26.2142 69.5763C26.2305 69.578 26.247 69.5752 26.2618 69.5683L29.5429 68.0139C29.5645 68.0037 29.5812 67.9853 29.5893 67.9628C29.5973 67.9402 29.5962 67.9155 29.586 67.8938L29.4755 67.6603C29.4651 67.6386 29.4466 67.622 29.424 67.6139C29.4014 67.6058 29.3766 67.607 29.3549 67.6172L26.0498 69.1831C26.0323 69.1914 26.0134 69.1961 25.994 69.1971C25.9747 69.1981 25.9553 69.1952 25.9371 69.1887C25.9188 69.1822 25.9021 69.1722 25.8877 69.1592C25.8733 69.1462 25.8617 69.1305 25.8534 69.113C25.8451 69.0955 25.8403 69.0765 25.8394 69.0572C25.8384 69.0378 25.8412 69.0185 25.8478 69.0002C25.8543 68.982 25.8643 68.9652 25.8773 68.9508C25.8903 68.9365 25.906 68.9248 25.9235 68.9165L29.229 67.3511C29.2746 67.3292 29.3241 67.3165 29.3746 67.3139C29.4252 67.3112 29.4757 67.3186 29.5234 67.3356C29.5711 67.3526 29.6149 67.3789 29.6523 67.4129C29.6898 67.447 29.7201 67.4881 29.7415 67.5339L29.8526 67.7675C29.8956 67.8596 29.9004 67.965 29.8661 68.0607C29.8318 68.1565 29.761 68.2347 29.6693 68.2786Z" fill="#91B3FA"/>
<path d="M37.4662 77.1614C37.3091 77.2356 37.1445 77.2927 36.9752 77.3318C36.6081 77.4186 36.2257 77.4175 35.8592 77.3284C35.4926 77.2393 35.1524 77.0648 34.8661 76.8192L29.4865 72.2374C29.4717 72.2248 29.4596 72.2095 29.4508 72.1922C29.442 72.175 29.4367 72.1561 29.4352 72.1368C29.4336 72.1175 29.4359 72.0981 29.4419 72.0797C29.4479 72.0613 29.4574 72.0442 29.47 72.0294C29.4825 72.0147 29.4979 72.0026 29.5151 71.9938C29.5324 71.985 29.5512 71.9797 29.5705 71.9781C29.5898 71.9766 29.6092 71.9789 29.6277 71.9848C29.6461 71.9908 29.6632 72.0004 29.6779 72.0129L35.0575 76.5948C35.3086 76.8104 35.6072 76.9636 35.9289 77.0418C36.2505 77.12 36.5861 77.121 36.9082 77.0446C37.2244 76.9732 37.5193 76.828 37.7688 76.6209C38.0183 76.4138 38.2154 76.1507 38.3439 75.853C38.3582 75.82 38.3721 75.7865 38.386 75.7525C38.4007 75.7163 38.4292 75.6874 38.4653 75.6721C38.5013 75.6569 38.5419 75.6566 38.5781 75.6714C38.6144 75.6861 38.6433 75.7146 38.6585 75.7506C38.6737 75.7867 38.674 75.8273 38.6593 75.8635C38.6444 75.9004 38.6296 75.9358 38.6143 75.9707C38.3893 76.4941 37.9811 76.9175 37.4662 77.1614Z" fill="#91B3FA"/>
<path d="M28.85 71.5808C28.8243 71.593 28.7956 71.5974 28.7674 71.5937C28.7392 71.59 28.7127 71.5782 28.6911 71.5598L28.09 71.0487C28.0753 71.0361 28.0631 71.0207 28.0543 71.0035C28.0455 70.9862 28.0402 70.9674 28.0387 70.9481C28.0371 70.9288 28.0394 70.9094 28.0454 70.891C28.0514 70.8725 28.0609 70.8555 28.0735 70.8407C28.0861 70.826 28.1014 70.8139 28.1187 70.8051C28.1359 70.7963 28.1547 70.7909 28.174 70.7894C28.1933 70.7879 28.2128 70.7902 28.2312 70.7961C28.2496 70.8021 28.2667 70.8116 28.2814 70.8242L28.8815 71.3353C28.9112 71.3607 28.9296 71.3969 28.9327 71.4358C28.9357 71.4748 28.9232 71.5133 28.8978 71.543C28.8848 71.5589 28.8684 71.5718 28.85 71.5808Z" fill="#91B3FA"/>
<path d="M50.8642 53.0328C50.8305 53.0488 50.7921 53.0514 50.7566 53.0401C50.721 53.0288 50.6911 53.0045 50.6728 52.972C50.2335 52.1925 49.6711 51.7239 49.0016 51.5784C47.8406 51.3272 46.7222 52.1312 46.7112 52.1398C46.6794 52.163 46.6398 52.1726 46.601 52.1665C46.5622 52.1605 46.5274 52.1392 46.5042 52.1075C46.481 52.0758 46.4714 52.0361 46.4775 51.9973C46.4835 51.9585 46.5048 51.9237 46.5365 51.9005C46.5844 51.8642 47.7698 51.0104 49.0614 51.2889C49.8185 51.4521 50.4493 51.9694 50.9279 52.8261C50.947 52.8602 50.9519 52.9005 50.9414 52.9381C50.9309 52.9758 50.9059 53.0078 50.8719 53.0271L50.8642 53.0328Z" fill="#91B3FA"/>
<path d="M34.1143 71.798C34.1143 71.798 35.2513 70.8328 36.14 71.798C37.0288 72.7633 37.2044 74.4479 37.024 74.5302C36.8435 74.6125 31.3476 73.2481 34.1143 71.798Z" fill="url(#paint46_linear_4633_31639)"/>
<path d="M99.0644 133.463C103.873 128.654 103.873 120.858 99.0644 116.049C94.2558 111.241 86.4595 111.241 81.6509 116.049C76.8423 120.858 76.8423 128.654 81.6509 133.463C86.4595 138.271 94.2558 138.271 99.0644 133.463Z" fill="url(#paint47_linear_4633_31639)"/>
<path d="M98.7751 133.173C103.424 128.524 103.424 120.987 98.7751 116.338C94.1263 111.69 86.5891 111.69 81.9403 116.338C77.2915 120.987 77.2916 128.524 81.9403 133.173C86.5891 137.822 94.1263 137.822 98.7751 133.173Z" fill="url(#paint48_linear_4633_31639)"/>
<path opacity="0.58" d="M80.5414 119.942C80.521 119.942 80.5008 119.937 80.4825 119.928C80.4671 119.92 80.4534 119.91 80.4421 119.896C80.4309 119.883 80.4223 119.868 80.4169 119.852C80.4116 119.836 80.4095 119.818 80.4108 119.801C80.4121 119.784 80.4168 119.767 80.4246 119.752C81.5079 117.607 83.2559 115.87 85.4076 114.801C87.5593 113.731 89.9992 113.386 92.3631 113.818C92.3972 113.824 92.4274 113.844 92.4471 113.872C92.4667 113.901 92.4742 113.936 92.4679 113.97C92.4615 114.004 92.4419 114.035 92.4133 114.054C92.3846 114.074 92.3494 114.081 92.3152 114.075C91.6687 113.958 91.013 113.899 90.3559 113.899C88.3443 113.893 86.371 114.449 84.658 115.504C82.945 116.558 81.5601 118.07 80.6591 119.869C80.6484 119.891 80.6316 119.909 80.6108 119.922C80.59 119.935 80.5659 119.942 80.5414 119.942Z" fill="white"/>
<path opacity="0.78" d="M97.7417 132.14C101.676 128.205 101.676 121.826 97.7417 117.891C93.8071 113.956 87.4277 113.956 83.493 117.891C79.5583 121.826 79.5583 128.205 83.493 132.14C87.4277 136.074 93.8071 136.074 97.7417 132.14Z" fill="white"/>
<path d="M66.2762 90.1082C66.2214 90.1083 66.1682 90.0895 66.1255 90.0551C65.9551 89.9192 65.7862 89.7746 65.623 89.6244C65.5995 89.603 65.5805 89.5771 65.567 89.5484C65.5535 89.5196 65.5458 89.4885 65.5443 89.4568C65.5429 89.425 65.5477 89.3933 65.5584 89.3635C65.5692 89.3336 65.5858 89.3061 65.6072 89.2827C65.6286 89.2592 65.6544 89.2402 65.6832 89.2267C65.7119 89.2132 65.743 89.2055 65.7748 89.204C65.8065 89.2025 65.8382 89.2073 65.8681 89.2181C65.898 89.2289 65.9254 89.2455 65.9489 89.2669C66.1044 89.4104 66.2657 89.5459 66.4275 89.6756C66.4665 89.707 66.4948 89.7497 66.5085 89.7979C66.5222 89.8461 66.5206 89.8973 66.5039 89.9446C66.4873 89.9918 66.4564 90.0327 66.4156 90.0617C66.3747 90.0907 66.3259 90.1062 66.2758 90.1063L66.2762 90.1082Z" fill="#91B3FA"/>
<path d="M64.3533 88.0594C64.3144 88.0596 64.276 88.0504 64.2415 88.0325C64.207 88.0146 64.1773 87.9885 64.1552 87.9565C64.0154 87.7579 63.8819 87.5526 63.7575 87.3454C63.6474 87.1626 63.5421 86.9745 63.444 86.7869C63.4293 86.7586 63.4204 86.7277 63.4176 86.696C63.4149 86.6642 63.4185 86.6322 63.4281 86.6019C63.4377 86.5715 63.4532 86.5433 63.4737 86.5189C63.4942 86.4946 63.5194 86.4745 63.5476 86.4598C63.5759 86.4451 63.6068 86.4361 63.6386 86.4334C63.6703 86.4307 63.7023 86.4342 63.7326 86.4438C63.763 86.4535 63.7912 86.469 63.8156 86.4895C63.84 86.51 63.8601 86.5351 63.8747 86.5634C63.9676 86.7424 64.0662 86.9214 64.1729 87.096C64.2916 87.2932 64.4193 87.4894 64.5519 87.6785C64.5789 87.7144 64.5952 87.7573 64.599 87.8021C64.6028 87.8469 64.5938 87.8919 64.5732 87.9319C64.5525 87.9719 64.5211 88.0052 64.4823 88.0281C64.4436 88.051 64.3992 88.0625 64.3543 88.0613L64.3533 88.0594ZM62.8697 84.8951C62.8165 84.895 62.7648 84.8774 62.7225 84.8449C62.6803 84.8125 62.65 84.767 62.6362 84.7156C62.5184 84.2741 62.4303 83.8251 62.3725 83.3718C62.3702 83.3113 62.3907 83.2522 62.4298 83.206C62.4689 83.1599 62.5239 83.1301 62.584 83.1224C62.644 83.1148 62.7047 83.1299 62.7542 83.1648C62.8036 83.1997 62.8382 83.2519 62.8511 83.311C62.9057 83.7427 62.9895 84.1703 63.1018 84.5907C63.1101 84.6214 63.1122 84.6534 63.108 84.685C63.1039 84.7165 63.0936 84.7469 63.0776 84.7744C63.0617 84.8019 63.0405 84.826 63.0153 84.8453C62.99 84.8646 62.9612 84.8788 62.9305 84.887C62.9115 84.8921 62.8919 84.8948 62.8721 84.8951H62.8697ZM62.5768 81.4144H62.5544C62.5227 81.4116 62.4919 81.4025 62.4638 81.3877C62.4356 81.3729 62.4107 81.3527 62.3904 81.3282C62.3701 81.3038 62.3548 81.2755 62.3454 81.2452C62.336 81.2148 62.3327 81.1829 62.3356 81.1512C62.378 80.6964 62.4504 80.245 62.5524 79.7997C62.5595 79.7687 62.5727 79.7393 62.5911 79.7133C62.6096 79.6873 62.633 79.6652 62.66 79.6482C62.687 79.6313 62.7171 79.6198 62.7485 79.6145C62.7799 79.6092 62.8121 79.6101 62.8432 79.6172C62.8743 79.6243 62.9036 79.6374 62.9296 79.6559C62.9556 79.6743 62.9777 79.6977 62.9947 79.7247C63.0116 79.7517 63.0231 79.7818 63.0284 79.8132C63.0338 79.8446 63.0329 79.8768 63.0257 79.9079C62.9285 80.3323 62.8595 80.7627 62.819 81.1962C62.8132 81.2558 62.7854 81.3112 62.7411 81.3515C62.6968 81.3918 62.6391 81.4142 62.5792 81.4144H62.5768ZM63.501 78.0458C63.4601 78.0458 63.4199 78.0354 63.3841 78.0157C63.3484 77.996 63.3182 77.9675 63.2963 77.933C63.2745 77.8985 63.2618 77.859 63.2593 77.8182C63.2568 77.7774 63.2647 77.7367 63.2823 77.6998C63.4785 77.2864 63.7023 76.8867 63.9523 76.5033C63.9878 76.4508 64.0426 76.4143 64.1048 76.4017C64.167 76.3892 64.2317 76.4015 64.2849 76.4362C64.3381 76.4708 64.3755 76.5249 64.3892 76.5869C64.4029 76.6488 64.3917 76.7137 64.3581 76.7675C64.1205 77.1322 63.9077 77.5124 63.7211 77.9056C63.7018 77.947 63.6713 77.9821 63.6329 78.0069C63.5946 78.0317 63.55 78.0452 63.5043 78.0458H63.501ZM65.5292 75.2035C65.481 75.2035 65.434 75.1891 65.3941 75.1622C65.3542 75.1353 65.3232 75.0972 65.3051 75.0526C65.287 75.008 65.2825 74.9591 65.2923 74.912C65.3022 74.8649 65.3258 74.8218 65.3602 74.7881C65.6873 74.4692 66.0354 74.1724 66.4021 73.8999C66.4274 73.8784 66.4568 73.8623 66.4886 73.8527C66.5203 73.843 66.5537 73.84 66.5867 73.8438C66.6197 73.8476 66.6515 73.8581 66.6803 73.8748C66.709 73.8914 66.734 73.9138 66.7537 73.9405C66.7735 73.9671 66.7875 73.9976 66.7949 74.03C66.8024 74.0623 66.8031 74.0959 66.7971 74.1285C66.791 74.1611 66.7783 74.1922 66.7598 74.2197C66.7412 74.2472 66.7172 74.2707 66.6892 74.2885C66.34 74.5481 66.0085 74.8307 65.6971 75.1346C65.6528 75.1779 65.5935 75.2026 65.5315 75.2035H65.5292ZM68.4169 73.2371C68.3615 73.237 68.3079 73.218 68.2649 73.1832C68.2218 73.1484 68.192 73.0999 68.1804 73.0459C68.1688 72.9918 68.176 72.9353 68.2009 72.8859C68.2258 72.8365 68.2669 72.7971 68.3173 72.7743C68.7337 72.5861 69.1624 72.4262 69.6004 72.2957C69.6615 72.2787 69.727 72.2864 69.7825 72.3171C69.8381 72.3479 69.8794 72.3992 69.8974 72.4601C69.9155 72.521 69.909 72.5865 69.8792 72.6426C69.8494 72.6987 69.7988 72.7408 69.7382 72.76C69.321 72.8837 68.9127 73.0355 68.5159 73.2141C68.4857 73.2285 68.4527 73.2364 68.4192 73.2371H68.4169Z" fill="#91B3FA"/>
<path d="M71.8147 72.3852C71.7527 72.3839 71.6936 72.3589 71.6496 72.3153C71.6055 72.2718 71.5798 72.213 71.5778 72.151C71.5757 72.0891 71.5975 72.0287 71.6387 71.9824C71.6798 71.936 71.7372 71.9072 71.7989 71.9019C72.0171 71.887 72.2392 71.8789 72.4593 71.8784C72.5235 71.8784 72.5851 71.9039 72.6306 71.9493C72.676 71.9948 72.7015 72.0564 72.7015 72.1206C72.7015 72.1848 72.676 72.2464 72.6306 72.2918C72.5851 72.3372 72.5235 72.3627 72.4593 72.3627C72.2497 72.3627 72.0382 72.3704 71.83 72.3848L71.8147 72.3852Z" fill="#91B3FA"/>
<path d="M79.8121 75.5573C79.7786 75.5573 79.7455 75.5503 79.7149 75.5369C79.6843 75.5235 79.6567 75.5039 79.6341 75.4793C79.4905 75.3266 79.3441 75.1754 79.1923 75.0308C79.1458 74.9864 79.1189 74.9253 79.1174 74.861C79.1159 74.7967 79.14 74.7345 79.1844 74.6879C79.2289 74.6414 79.29 74.6145 79.3543 74.613C79.4186 74.6115 79.4808 74.6356 79.5273 74.6801C79.6867 74.8318 79.8432 74.9902 79.9911 75.151C80.0229 75.1855 80.0441 75.2286 80.0519 75.275C80.0596 75.3214 80.0538 75.369 80.0349 75.4121C80.0161 75.4552 79.9852 75.4918 79.9458 75.5176C79.9065 75.5434 79.8605 75.5572 79.8135 75.5573H79.8121Z" fill="#91B3FA"/>
<path d="M74.8465 92.0105C74.7864 92.0116 74.7282 91.9903 74.683 91.9508C74.6377 91.9113 74.6088 91.8564 74.6018 91.7968C74.5947 91.7372 74.6101 91.6771 74.6449 91.6281C74.6797 91.5792 74.7314 91.5449 74.79 91.532C75.2057 91.4315 75.6144 91.3036 76.0132 91.1491C76.0428 91.1376 76.0744 91.132 76.1062 91.1327C76.1379 91.1333 76.1692 91.1403 76.1983 91.153C76.2274 91.1658 76.2537 91.1842 76.2757 91.2071C76.2977 91.2301 76.3149 91.2571 76.3265 91.2867C76.338 91.3163 76.3436 91.3479 76.3429 91.3796C76.3422 91.4114 76.3353 91.4427 76.3225 91.4718C76.3098 91.5009 76.2914 91.5272 76.2684 91.5492C76.2455 91.5711 76.2185 91.5884 76.1889 91.5999C75.77 91.7629 75.3407 91.8978 74.9039 92.0038C74.8851 92.0084 74.8658 92.0107 74.8465 92.0105ZM77.9964 90.6347C77.9444 90.6346 77.8937 90.6178 77.852 90.5868C77.8102 90.5557 77.7796 90.512 77.7646 90.4622C77.7496 90.4124 77.7511 90.359 77.7688 90.3101C77.7865 90.2612 77.8195 90.2192 77.8629 90.1905C78.22 89.9547 78.5612 89.6955 78.8842 89.4148C78.9327 89.3726 78.9959 89.3515 79.06 89.356C79.1241 89.3605 79.1837 89.3902 79.2259 89.4387C79.268 89.4872 79.2892 89.5504 79.2847 89.6145C79.2802 89.6786 79.2504 89.7383 79.2019 89.7804C78.8628 90.0747 78.5047 90.3465 78.1299 90.594C78.0906 90.6204 78.0443 90.6346 77.9969 90.6347H77.9964ZM80.4936 88.2748C80.4488 88.2746 80.4049 88.2621 80.3668 88.2385C80.3287 88.2149 80.2979 88.1812 80.2778 88.1411C80.2576 88.1011 80.249 88.0562 80.2528 88.0116C80.2566 87.9669 80.2727 87.9242 80.2993 87.8881C80.5547 87.5447 80.787 87.1846 80.9947 86.8104C81.0259 86.7542 81.0782 86.7128 81.1399 86.6951C81.2017 86.6775 81.268 86.6851 81.3242 86.7163C81.3803 86.7476 81.4218 86.7998 81.4394 86.8616C81.4571 86.9234 81.4494 86.9897 81.4182 87.0458C81.2 87.4386 80.956 87.8166 80.6879 88.1772C80.6654 88.2075 80.6361 88.2321 80.6023 88.249C80.5686 88.266 80.5314 88.2748 80.4936 88.2748ZM82.037 85.2048C82.0133 85.2047 81.9898 85.2012 81.9671 85.1942C81.9365 85.1854 81.908 85.1705 81.8832 85.1505C81.8584 85.1304 81.8379 85.1056 81.8228 85.0775C81.8078 85.0494 81.7985 85.0186 81.7955 84.9869C81.7925 84.9552 81.7958 84.9232 81.8054 84.8928C81.9281 84.4827 82.024 84.0652 82.0925 83.6427C82.1029 83.5793 82.138 83.5225 82.1902 83.4849C82.2424 83.4474 82.3073 83.4321 82.3708 83.4424C82.4343 83.4528 82.491 83.4879 82.5286 83.5401C82.5661 83.5923 82.5814 83.6573 82.5711 83.7207C82.4988 84.1642 82.3974 84.6024 82.2677 85.0325C82.2527 85.082 82.2223 85.1255 82.1809 85.1565C82.1395 85.1875 82.0892 85.2044 82.0375 85.2048H82.037ZM82.4495 81.793C82.3876 81.793 82.328 81.7692 82.283 81.7266C82.2381 81.6839 82.2112 81.6257 82.2079 81.5638C82.1852 81.1364 82.1343 80.711 82.0557 80.2903C82.0486 80.2586 82.048 80.2258 82.0539 80.1939C82.0597 80.1619 82.072 80.1315 82.0898 80.1044C82.1077 80.0773 82.1309 80.054 82.1579 80.036C82.1849 80.018 82.2153 80.0057 82.2473 79.9997C82.2792 79.9937 82.312 79.9941 82.3437 80.0011C82.3754 80.008 82.4055 80.0212 82.432 80.04C82.4585 80.0588 82.4809 80.0827 82.498 80.1103C82.5151 80.1379 82.5264 80.1687 82.5314 80.2008C82.6143 80.6435 82.6679 81.0911 82.6917 81.5408C82.695 81.605 82.6726 81.6678 82.6297 81.7155C82.5867 81.7632 82.5266 81.792 82.4625 81.7954L82.4495 81.793ZM81.6762 78.443C81.6286 78.443 81.5822 78.429 81.5425 78.4028C81.5029 78.3766 81.4718 78.3394 81.4531 78.2956C81.2856 77.9016 81.0927 77.5189 80.8755 77.1499C80.858 77.1225 80.8462 77.0919 80.8408 77.0598C80.8353 77.0277 80.8364 76.9949 80.844 76.9633C80.8516 76.9316 80.8654 76.9018 80.8847 76.8757C80.9041 76.8495 80.9284 76.8275 80.9565 76.8109C80.9845 76.7944 81.0155 76.7837 81.0478 76.7794C81.08 76.7752 81.1128 76.7774 81.1442 76.7861C81.1755 76.7948 81.2048 76.8097 81.2302 76.83C81.2557 76.8502 81.2768 76.8754 81.2923 76.904C81.5207 77.2912 81.7234 77.6929 81.8992 78.1066C81.9144 78.1434 81.9204 78.1833 81.9165 78.2229C81.9127 78.2625 81.8991 78.3005 81.8771 78.3336C81.8551 78.3668 81.8252 78.3939 81.7901 78.4128C81.7551 78.4316 81.7159 78.4415 81.6762 78.4416V78.443Z" fill="#91B3FA"/>
<path d="M72.5119 92.2895C72.3636 92.2895 72.2152 92.2862 72.0683 92.28C72.0365 92.2786 72.0054 92.2709 71.9765 92.2574C71.9477 92.244 71.9219 92.225 71.9004 92.2015C71.8789 92.178 71.8623 92.1506 71.8514 92.1207C71.8406 92.0908 71.8357 92.059 71.8372 92.0273C71.8382 91.9954 71.8456 91.9641 71.8589 91.9352C71.8722 91.9062 71.8911 91.8802 71.9146 91.8587C71.9381 91.8371 71.9657 91.8205 71.9957 91.8098C72.0257 91.799 72.0575 91.7944 72.0894 91.7961C72.2975 91.8052 72.5095 91.8076 72.7187 91.8033H72.7239C72.7863 91.8053 72.8455 91.8313 72.8892 91.8759C72.9329 91.9205 72.9576 91.9803 72.9583 92.0427C72.959 92.1051 72.9355 92.1654 72.8928 92.2109C72.8502 92.2565 72.7915 92.2838 72.7292 92.2871C72.6569 92.2886 72.5847 92.2895 72.5119 92.2895Z" fill="#91B3FA"/>
<path d="M71.215 89.6282C71.2391 89.635 71.2648 89.634 71.2883 89.6254C71.3118 89.6168 71.3321 89.6011 71.3462 89.5804L72.1769 88.3839C72.8653 88.4153 73.5542 88.3345 74.2166 88.1446L75.3015 89.1133C75.3201 89.1298 75.3434 89.1401 75.3681 89.1428C75.3928 89.1455 75.4177 89.1403 75.4394 89.1281L76.9627 88.2762C76.9845 88.2642 77.0019 88.2456 77.0126 88.2231C77.0232 88.2006 77.0265 88.1753 77.022 88.1509L76.765 86.7195C77.2738 86.2547 77.7034 85.7101 78.0371 85.1072L79.4886 85.0287C79.5134 85.0272 79.5372 85.018 79.5566 85.0024C79.576 84.9868 79.59 84.9655 79.5967 84.9416L80.0719 83.2623C80.0785 83.2381 80.0775 83.2126 80.0689 83.1891C80.0603 83.1656 80.0447 83.1453 80.0241 83.1311L78.8277 82.3003C78.8595 81.6119 78.7787 80.923 78.5884 80.2607L79.557 79.1757C79.5736 79.1572 79.584 79.134 79.5868 79.1093C79.5895 79.0846 79.5845 79.0596 79.5723 79.0379L78.7229 77.5151C78.7107 77.4933 78.6921 77.4758 78.6695 77.4651C78.6469 77.4545 78.6215 77.4512 78.597 77.4557L77.1656 77.7127C76.7008 77.204 76.1562 76.7743 75.5533 76.4407L75.471 74.9878C75.4695 74.963 75.4604 74.9392 75.4449 74.9199C75.4294 74.9005 75.4082 74.8864 75.3843 74.8796L73.7046 74.4049C73.6805 74.3981 73.6549 74.399 73.6315 74.4076C73.608 74.4162 73.5879 74.432 73.5739 74.4527L72.7431 75.6491C72.0546 75.6175 71.3655 75.6983 70.703 75.8884L69.6185 74.9198C69.5999 74.9032 69.5766 74.8928 69.5518 74.8901C69.527 74.8873 69.502 74.8924 69.4802 74.9045L67.9569 75.7563C67.9352 75.7686 67.9178 75.7873 67.9072 75.8098C67.8965 75.8324 67.8932 75.8577 67.8976 75.8822L68.1546 77.3136C67.6458 77.7784 67.2161 78.323 66.8825 78.9259L65.4296 79.0082C65.4048 79.0097 65.3811 79.0188 65.3617 79.0343C65.3423 79.0498 65.3282 79.071 65.3214 79.0949L64.8467 80.7746C64.84 80.7987 64.841 80.8242 64.8496 80.8477C64.8581 80.8711 64.8739 80.8913 64.8945 80.9053L66.091 81.7361C66.0596 82.4246 66.1404 83.1137 66.3302 83.7762L65.3616 84.8607C65.3451 84.8794 65.3348 84.9027 65.3321 84.9275C65.3295 84.9523 65.3346 84.9772 65.3468 84.999L66.1986 86.5223C66.2107 86.544 66.2293 86.5614 66.2518 86.5721C66.2743 86.5827 66.2995 86.5861 66.324 86.5816L67.7554 86.3246C68.2202 86.8334 68.7648 87.2631 69.3677 87.5967L69.4501 89.0496C69.4515 89.0745 69.4607 89.0982 69.4763 89.1176C69.4919 89.137 69.5132 89.1511 69.5372 89.1578L71.215 89.6282Z" fill="#91B3FA"/>
<path d="M72.4622 83.8882H72.4057C71.9051 83.881 71.4277 83.6761 71.0775 83.3183C70.7273 82.9605 70.5328 82.4788 70.5364 81.9782C70.54 81.4775 70.7414 80.9986 71.0967 80.6459C71.452 80.2932 71.9323 80.0952 72.433 80.0952C72.9336 80.0952 73.4139 80.2932 73.7692 80.6459C74.1245 80.9986 74.3259 81.4775 74.3295 81.9782C74.3331 82.4788 74.1386 82.9605 73.7884 83.3183C73.4383 83.6761 72.9608 83.881 72.4602 83.8882H72.4622ZM72.4622 80.789C72.1397 80.7889 71.8301 80.9158 71.6005 81.1422C71.3708 81.3686 71.2396 81.6763 71.235 81.9988C71.2305 82.3212 71.3531 82.6325 71.5763 82.8653C71.7995 83.098 72.1053 83.2336 72.4277 83.2426C72.5889 83.2482 72.7497 83.2214 72.9004 83.1639C73.0512 83.1063 73.1889 83.0192 73.3054 82.9076C73.4839 82.7388 73.6076 82.5204 73.6605 82.2805C73.7135 82.0407 73.6932 81.7905 73.6024 81.5622C73.5116 81.334 73.3543 81.1383 73.151 81.0005C72.9478 80.8626 72.7078 80.7889 72.4622 80.789Z" fill="#BDD0FB"/>
<path d="M73.6978 86.1696C73.6592 86.1697 73.6218 86.1559 73.5925 86.1307C73.5632 86.1056 73.5439 86.0707 73.5381 86.0325C73.5323 85.9943 73.5404 85.9553 73.561 85.9226C73.5815 85.8899 73.6131 85.8656 73.65 85.8542C73.9255 85.7693 74.1913 85.6556 74.443 85.5149L74.4774 85.4953C75.352 84.9985 76.0086 84.1918 76.3175 83.2345C76.3247 83.213 76.3314 83.1915 76.3381 83.1695C76.3472 83.1403 76.3558 83.1111 76.364 83.0814C76.5701 82.3514 76.5671 81.5782 76.3553 80.8498C76.1436 80.1215 75.7315 79.4672 75.166 78.9616C74.6006 78.4559 73.9045 78.1193 73.1571 77.9899C72.4097 77.8605 71.641 77.9436 70.9385 78.2297C70.236 78.5159 69.6279 78.9935 69.1836 79.6083C68.7393 80.2231 68.4766 80.9503 68.4254 81.7071C68.3741 82.4639 68.5365 83.2199 68.8939 83.889C69.2513 84.558 69.7894 85.1133 70.4469 85.4915C70.4838 85.5129 70.5108 85.5481 70.522 85.5893C70.5332 85.6305 70.5277 85.6744 70.5067 85.7116C70.4854 85.7488 70.4502 85.776 70.4088 85.7872C70.3674 85.7984 70.3233 85.7927 70.2861 85.7715C69.4487 85.2902 68.7941 84.5454 68.4244 83.6531C68.0547 82.7609 67.9908 81.7713 68.2425 80.8389C68.4942 79.9064 69.0474 79.0835 69.8159 78.4985C70.5844 77.9135 71.5249 77.5992 72.4907 77.6048C73.4565 77.6104 74.3933 77.9354 75.155 78.5293C75.9166 79.1231 76.4604 79.9524 76.7013 80.8877C76.9422 81.823 76.8669 82.8117 76.4869 83.6996C76.107 84.5876 75.4438 85.3248 74.6009 85.7963L74.5607 85.8188C74.3018 85.9605 74.0292 86.0756 73.7471 86.1624C73.7312 86.1676 73.7146 86.17 73.6978 86.1696Z" fill="#BDD0FB"/>
<path d="M51.6784 75.7362C51.6398 75.7365 51.6017 75.7274 51.5673 75.7097C51.533 75.6921 51.5034 75.6664 51.4812 75.6348C51.352 75.4539 51.23 75.2658 51.1184 75.0749C51.086 75.0194 51.077 74.9533 51.0932 74.8912C51.1095 74.829 51.1498 74.7759 51.2053 74.7435C51.2608 74.711 51.3269 74.702 51.389 74.7182C51.4512 74.7345 51.5043 74.7748 51.5367 74.8303C51.6406 75.0088 51.7549 75.1849 51.8751 75.3534C51.9011 75.3895 51.9166 75.4321 51.9199 75.4765C51.9232 75.521 51.9142 75.5654 51.8939 75.605C51.8735 75.6446 51.8426 75.6778 51.8046 75.701C51.7666 75.7241 51.7229 75.7363 51.6784 75.7362Z" fill="#91B3FA"/>
<path d="M50.5379 73.1926C50.483 73.1925 50.4299 73.1738 50.387 73.1395C50.3442 73.1053 50.3142 73.0575 50.302 73.0041C50.1999 72.557 50.1401 72.1013 50.1235 71.643C50.1223 71.6113 50.1274 71.5796 50.1385 71.5498C50.1495 71.5201 50.1664 71.4928 50.188 71.4695C50.2096 71.4462 50.2356 71.4275 50.2645 71.4142C50.2933 71.401 50.3245 71.3936 50.3563 71.3925C50.388 71.3913 50.4197 71.3964 50.4494 71.4075C50.4792 71.4185 50.5065 71.4354 50.5298 71.457C50.553 71.4786 50.5718 71.5046 50.585 71.5335C50.5982 71.5623 50.6056 71.5936 50.6068 71.6253C50.6227 72.0535 50.6788 72.4792 50.7743 72.8969C50.7876 72.9591 50.776 73.024 50.7419 73.0777C50.7078 73.1314 50.6539 73.1696 50.592 73.184C50.5743 73.189 50.5562 73.1919 50.5379 73.1926ZM50.6173 69.7397C50.5953 69.7399 50.5734 69.737 50.5523 69.7311C50.4904 69.7139 50.4379 69.6728 50.4063 69.6169C50.3747 69.561 50.3666 69.4948 50.3838 69.433C50.5066 68.9913 50.6703 68.5621 50.8729 68.1509C50.9013 68.0932 50.9514 68.0492 51.0122 68.0285C51.073 68.0079 51.1395 68.0122 51.1971 68.0405C51.2547 68.0689 51.2987 68.119 51.3194 68.1798C51.3401 68.2406 51.3358 68.3072 51.3074 68.3648C51.118 68.7484 50.9649 69.149 50.8504 69.5612C50.8365 69.6124 50.8061 69.6576 50.764 69.6898C50.7219 69.7221 50.6704 69.7396 50.6173 69.7397ZM52.323 66.7372C52.2755 66.7373 52.2291 66.7234 52.1895 66.6973C52.1499 66.6712 52.1189 66.634 52.1002 66.5904C52.0816 66.5467 52.0762 66.4986 52.0848 66.4519C52.0933 66.4053 52.1154 66.3622 52.1483 66.328C52.4647 65.9964 52.8118 65.6954 53.1849 65.4292C53.2372 65.3943 53.301 65.3812 53.3628 65.3925C53.4247 65.4038 53.4797 65.4388 53.5162 65.4899C53.5528 65.5411 53.568 65.6044 53.5587 65.6666C53.5494 65.7288 53.5162 65.7849 53.4663 65.8231C53.118 66.0718 52.7939 66.3527 52.4981 66.662C52.4756 66.6859 52.4485 66.7049 52.4183 66.7178C52.3882 66.7307 52.3558 66.7373 52.323 66.7372ZM55.2475 64.9018C55.1899 64.9017 55.1343 64.8811 55.0905 64.8436C55.0468 64.8062 55.0178 64.7544 55.0088 64.6975C54.9999 64.6406 55.0114 64.5824 55.0415 64.5333C55.0715 64.4842 55.1181 64.4474 55.1729 64.4295C55.2839 64.3936 55.3964 64.3596 55.5079 64.329C55.8367 64.2394 56.1714 64.1728 56.5095 64.1294C56.5423 64.1223 56.5762 64.1221 56.6091 64.1287C56.642 64.1354 56.6731 64.1488 56.7005 64.1682C56.7279 64.1875 56.751 64.2123 56.7683 64.2411C56.7857 64.2698 56.7968 64.3018 56.8011 64.3351C56.8054 64.3683 56.8027 64.4021 56.7933 64.4343C56.7838 64.4665 56.7678 64.4964 56.7462 64.522C56.7245 64.5477 56.6978 64.5686 56.6677 64.5834C56.6376 64.5982 56.6048 64.6066 56.5712 64.608C56.2551 64.6485 55.9422 64.7109 55.6347 64.7946C55.5284 64.8237 55.4235 64.8556 55.3198 64.8903C55.2964 64.8979 55.272 64.9017 55.2475 64.9018Z" fill="#91B3FA"/>
<path d="M59.3293 64.8142C59.3073 64.8144 59.2854 64.8115 59.2642 64.8056C59.0665 64.7501 58.8622 64.7032 58.6569 64.6654C58.6254 64.6597 58.5955 64.6478 58.5686 64.6304C58.5418 64.6131 58.5186 64.5906 58.5005 64.5644C58.4823 64.5381 58.4695 64.5085 58.4628 64.4772C58.4561 64.446 58.4556 64.4138 58.4614 64.3823C58.4671 64.3509 58.479 64.3209 58.4963 64.2941C58.5137 64.2673 58.5361 64.2441 58.5624 64.226C58.5887 64.2078 58.6183 64.195 58.6495 64.1883C58.6808 64.1816 58.713 64.1811 58.7444 64.1868C58.9641 64.227 59.1828 64.2773 59.3943 64.3371C59.4509 64.3526 59.4998 64.3881 59.5321 64.437C59.5644 64.486 59.5778 64.5449 59.5698 64.603C59.5619 64.6611 59.5331 64.7143 59.4888 64.7527C59.4446 64.7911 59.3879 64.8121 59.3293 64.8119V64.8142Z" fill="#91B3FA"/>
<path d="M63.8149 68.5849C63.7691 68.585 63.7242 68.572 63.6855 68.5475C63.6468 68.523 63.6158 68.488 63.5962 68.4466C63.5072 68.2595 63.4086 68.0743 63.3033 67.8968C63.2859 67.8694 63.2742 67.8388 63.2688 67.8068C63.2635 67.7748 63.2646 67.7421 63.2721 67.7105C63.2797 67.679 63.2935 67.6493 63.3127 67.6232C63.3319 67.5971 63.3562 67.5751 63.3841 67.5585C63.412 67.542 63.443 67.5312 63.4751 67.5269C63.5072 67.5225 63.5399 67.5246 63.5712 67.5331C63.6025 67.5417 63.6318 67.5564 63.6573 67.5764C63.6828 67.5965 63.704 67.6214 63.7197 67.6498C63.8326 67.8412 63.9384 68.0384 64.0336 68.2389C64.0511 68.2758 64.059 68.3166 64.0566 68.3574C64.0541 68.3981 64.0414 68.4376 64.0196 68.4722C63.9977 68.5067 63.9675 68.5352 63.9317 68.5549C63.896 68.5746 63.8558 68.5849 63.8149 68.5849Z" fill="#91B3FA"/>
<path d="M57.9562 78.6762C57.8941 78.6753 57.8347 78.6505 57.7904 78.6071C57.746 78.5637 57.72 78.5049 57.7177 78.4429C57.7154 78.3808 57.7371 78.3203 57.7781 78.2738C57.8192 78.2272 57.8766 78.1982 57.9385 78.1928C58.3588 78.1608 58.7753 78.0903 59.1827 77.9822C59.2138 77.9732 59.2462 77.9705 59.2783 77.9742C59.3104 77.978 59.3414 77.9881 59.3695 78.004C59.3976 78.0199 59.4222 78.0412 59.442 78.0668C59.4617 78.0923 59.4761 78.1216 59.4844 78.1528C59.4926 78.184 59.4946 78.2165 59.4901 78.2485C59.4856 78.2805 59.4747 78.3112 59.4582 78.3389C59.4416 78.3667 59.4197 78.3908 59.3937 78.4099C59.3677 78.429 59.3381 78.4427 59.3067 78.4503C58.871 78.5659 58.4257 78.6413 57.9763 78.6757L57.9562 78.6762ZM61.1846 77.618C61.132 77.6182 61.0808 77.6012 61.0387 77.5696C60.9967 77.538 60.9661 77.4936 60.9516 77.443C60.9371 77.3924 60.9394 77.3385 60.9583 77.2895C60.9773 77.2404 61.0117 77.1988 61.0564 77.171C61.413 76.9472 61.7481 76.6909 62.0575 76.4053C62.1048 76.3621 62.1673 76.3393 62.2313 76.342C62.2953 76.3447 62.3557 76.3727 62.3991 76.4198C62.4425 76.4669 62.4655 76.5293 62.463 76.5933C62.4606 76.6574 62.4328 76.7178 62.3858 76.7614C62.0543 77.0671 61.6951 77.3413 61.3129 77.5807C61.2745 77.6051 61.23 77.618 61.1846 77.618ZM63.5444 75.1773C63.5019 75.1774 63.46 75.1663 63.4231 75.145C63.3862 75.1237 63.3556 75.093 63.3344 75.0561C63.3132 75.0192 63.3021 74.9773 63.3022 74.9347C63.3024 74.8921 63.3138 74.8504 63.3353 74.8136C63.5464 74.4494 63.7239 74.0667 63.8656 73.6703C63.8885 73.6117 63.9333 73.5644 63.9906 73.5383C64.0478 73.5122 64.113 73.5094 64.1722 73.5304C64.2315 73.5515 64.2802 73.5948 64.3081 73.6512C64.336 73.7076 64.3409 73.7726 64.3216 73.8325C64.1701 74.2571 63.9799 74.6669 63.7536 75.0567C63.7323 75.0932 63.7017 75.1234 63.665 75.1442C63.6283 75.1651 63.5867 75.1758 63.5444 75.1754V75.1773ZM64.4968 71.9168H64.4863C64.4545 71.9155 64.4234 71.908 64.3945 71.8946C64.3657 71.8813 64.3398 71.8624 64.3183 71.839C64.2968 71.8156 64.2801 71.7882 64.2691 71.7584C64.2582 71.7285 64.2533 71.6968 64.2547 71.6651C64.2585 71.5737 64.2604 71.4818 64.2604 71.3899C64.2602 71.0608 64.2362 70.7321 64.1886 70.4064C64.1822 70.3742 64.1825 70.3411 64.1893 70.309C64.1961 70.2769 64.2094 70.2465 64.2283 70.2197C64.2472 70.1929 64.2714 70.1702 64.2993 70.153C64.3273 70.1359 64.3585 70.1245 64.3909 70.1198C64.4234 70.115 64.4565 70.1169 64.4882 70.1253C64.5199 70.1337 64.5496 70.1485 64.5754 70.1687C64.6013 70.1889 64.6227 70.2142 64.6385 70.243C64.6543 70.2717 64.664 70.3034 64.6672 70.3361C64.718 70.6847 64.7436 71.0366 64.7438 71.3889C64.7438 71.4875 64.7438 71.5861 64.738 71.6842C64.7353 71.7464 64.7087 71.8052 64.6638 71.8484C64.6189 71.8915 64.5591 71.9157 64.4968 71.9159V71.9168Z" fill="#91B3FA"/>
<path d="M55.8414 78.5148C55.823 78.5149 55.8047 78.5128 55.7868 78.5086C55.5705 78.4607 55.3561 78.3976 55.1441 78.3282C55.0854 78.3063 55.0374 78.2625 55.0104 78.2059C54.9833 78.1494 54.9792 78.0846 54.9989 78.0251C55.0186 77.9657 55.0606 77.9161 55.116 77.887C55.1715 77.8578 55.2361 77.8513 55.2963 77.8687C55.492 77.9333 55.694 77.9898 55.8959 78.0367C55.9543 78.0497 56.0059 78.0838 56.0407 78.1325C56.0754 78.1812 56.0909 78.2411 56.0841 78.3006C56.0774 78.36 56.0488 78.4149 56.004 78.4545C55.9591 78.4942 55.9012 78.5158 55.8414 78.5153V78.5148Z" fill="#91B3FA"/>
<path d="M55.0963 76.2861C55.111 76.2949 55.1281 76.2989 55.1452 76.2978C55.1623 76.2966 55.1786 76.2902 55.192 76.2794L55.9903 75.6243C56.4542 75.7788 56.9403 75.8567 57.4293 75.8549L57.983 76.7259C57.9924 76.7409 58.0062 76.7525 58.0225 76.7591C58.0389 76.7657 58.0569 76.767 58.074 76.7628L59.279 76.4757C59.2962 76.4716 59.3117 76.4623 59.3233 76.449C59.3349 76.4357 59.342 76.419 59.3436 76.4015L59.4446 75.3745C59.8819 75.1556 60.2806 74.8667 60.6247 74.5193L61.6326 74.7437C61.6499 74.7477 61.668 74.7461 61.6843 74.7393C61.7006 74.7324 61.7143 74.7206 61.7236 74.7054L62.3725 73.6526C62.3817 73.6375 62.386 73.6199 62.3848 73.6022C62.3836 73.5846 62.377 73.5677 62.3658 73.554L61.7106 72.7557C61.8652 72.2917 61.9431 71.8057 61.9413 71.3167L62.8123 70.7634C62.8272 70.7539 62.8388 70.74 62.8454 70.7236C62.852 70.7072 62.8533 70.6892 62.8492 70.672L62.562 69.467C62.5578 69.4499 62.5485 69.4345 62.5352 69.4229C62.5219 69.4113 62.5054 69.4041 62.4878 69.4024L61.4608 69.3014C61.2415 68.8643 60.9527 68.4657 60.6056 68.1212L60.8301 67.1134C60.8339 67.0961 60.8323 67.0781 60.8254 67.0618C60.8186 67.0455 60.8068 67.0317 60.7918 67.0224L59.7389 66.374C59.7242 66.3652 59.7071 66.3612 59.69 66.3624C59.6729 66.3636 59.6566 66.3699 59.6432 66.3807L58.8426 67.0344C58.3786 66.8799 57.8925 66.802 57.4035 66.8037L56.8522 65.9337C56.8427 65.9188 56.8288 65.9072 56.8124 65.9005C56.796 65.8938 56.778 65.8924 56.7608 65.8964L55.5557 66.1835C55.5385 66.1875 55.5231 66.1969 55.5115 66.2102C55.4999 66.2235 55.4928 66.2401 55.4911 66.2577L55.3901 67.2847C54.9528 67.5035 54.5541 67.7924 54.21 68.1399L53.2021 67.915C53.1848 67.9112 53.1667 67.9129 53.1504 67.9198C53.1342 67.9268 53.1204 67.9386 53.1112 67.9537L52.4622 69.0066C52.453 69.0217 52.4487 69.0393 52.4499 69.0569C52.4511 69.0746 52.4578 69.0914 52.4689 69.1052L53.1246 69.903C52.9697 70.3669 52.8916 70.8529 52.8934 71.342L52.0186 71.8967C52.0037 71.9062 51.9921 71.9201 51.9855 71.9365C51.9789 71.9529 51.9776 71.9709 51.9818 71.9881L52.2689 73.1927C52.273 73.2098 52.2824 73.2253 52.2957 73.237C52.309 73.2486 52.3255 73.2559 52.3431 73.2577L53.3701 73.3587C53.5894 73.7958 53.8782 74.1944 54.2253 74.5389L54.0008 75.5467C53.997 75.5639 53.9987 75.5819 54.0055 75.5981C54.0124 75.6143 54.0241 75.628 54.0391 75.6372L55.0963 76.2861Z" fill="#91B3FA"/>
<path d="M57.4198 72.9135C57.2583 72.9134 57.0977 72.8887 56.9436 72.8403C56.5941 72.7306 56.2934 72.503 56.0928 72.1965C55.8922 71.8899 55.8041 71.5233 55.8435 71.159C55.883 70.7948 56.0475 70.4555 56.309 70.1989C56.5706 69.9424 56.913 69.7845 57.2779 69.7521C57.6428 69.7197 58.0077 69.8148 58.3104 70.0213C58.613 70.2277 58.8347 70.5327 58.9377 70.8843C59.0407 71.2359 59.0186 71.6123 58.8751 71.9495C58.7317 72.2866 58.4758 72.5635 58.151 72.7331C57.9254 72.8514 57.6745 72.9133 57.4198 72.9135ZM57.4169 70.7131C57.3236 70.7133 57.2315 70.7347 57.1476 70.7757C57.0637 70.8167 56.9903 70.8763 56.9328 70.9498C56.8754 71.0234 56.8354 71.1091 56.8159 71.2004C56.7964 71.2917 56.7979 71.3862 56.8203 71.4768C56.8427 71.5674 56.8854 71.6518 56.9452 71.7235C57.005 71.7952 57.0803 71.8523 57.1654 71.8907C57.2506 71.929 57.3433 71.9474 57.4366 71.9446C57.5299 71.9419 57.6214 71.9179 57.7041 71.8746C57.8487 71.7989 57.9574 71.6689 58.0063 71.5131C58.0552 71.3574 58.0403 71.1886 57.9649 71.0438C57.9277 70.972 57.8766 70.9084 57.8145 70.8565C57.7525 70.8047 57.6808 70.7657 57.6036 70.7418C57.5432 70.7225 57.4803 70.7128 57.4169 70.7131Z" fill="#BDD0FB"/>
<path d="M57.4915 74.4555C57.4494 74.4555 57.409 74.4391 57.3788 74.4097C57.3487 74.3802 57.3312 74.3402 57.3302 74.2981V74.2942C57.3302 74.252 57.3468 74.2115 57.3763 74.1814C57.4058 74.1512 57.446 74.1338 57.4882 74.133C57.6894 74.1285 57.8896 74.1027 58.0854 74.0559L58.0998 74.0526C58.8069 73.8795 59.4202 73.4407 59.8123 72.8273C60.2044 72.2139 60.3452 71.473 60.2055 70.7586C60.1983 70.7222 60.1907 70.6858 60.1821 70.6494C60.0211 69.9763 59.6189 69.3854 59.0516 68.9889C58.4843 68.5924 57.7912 68.4176 57.1037 68.4978C56.4162 68.5779 55.782 68.9074 55.3211 69.4238C54.8602 69.9402 54.6046 70.6077 54.6029 71.2998C54.603 71.5226 54.6292 71.7445 54.6809 71.9612C54.7994 72.4586 55.0504 72.9145 55.4073 73.2806C55.4375 73.3109 55.4545 73.352 55.4545 73.3948C55.4545 73.4376 55.4375 73.4786 55.4073 73.5089C55.3767 73.5387 55.3354 73.5552 55.2926 73.5546C55.2498 73.5541 55.209 73.5366 55.1791 73.506C54.7811 73.0983 54.5012 72.5902 54.3693 72.0359C54.3118 71.7946 54.2826 71.5474 54.2822 71.2993C54.2889 70.5314 54.5758 69.7924 55.0889 69.2211C55.602 68.6498 56.3061 68.2854 57.0689 68.1966C57.8316 68.1077 58.6006 68.3005 59.2313 68.7385C59.862 69.1766 60.3111 69.8299 60.4941 70.5757C60.5902 70.9782 60.6061 71.3956 60.5408 71.8042C60.4755 72.2128 60.3303 72.6045 60.1136 72.957C59.8968 73.3094 59.6127 73.6157 59.2775 73.8583C58.9423 74.1009 58.5626 74.2751 58.1601 74.3708L58.1051 74.3833C57.9163 74.425 57.724 74.4492 57.5308 74.4555H57.4891H57.4915Z" fill="#BDD0FB"/>
<defs>
<linearGradient id="paint0_linear_4633_31639" x1="144.662" y1="139.293" x2="45.007" y2="52.0958" gradientUnits="userSpaceOnUse">
<stop stop-color="#DAE3FE"/>
<stop offset="1" stop-color="#E9EFFD"/>
</linearGradient>
<linearGradient id="paint1_linear_4633_31639" x1="88.7685" y1="-100.347" x2="64.884" y2="90.7289" gradientUnits="userSpaceOnUse">
<stop stop-color="#09005D"/>
<stop offset="1" stop-color="#1A0F91"/>
</linearGradient>
<linearGradient id="paint2_linear_4633_31639" x1="60.0859" y1="11.5986" x2="73.4821" y2="11.5986" gradientUnits="userSpaceOnUse">
<stop stop-color="#4F52FF"/>
<stop offset="1" stop-color="#4042E2"/>
</linearGradient>
<linearGradient id="paint3_linear_4633_31639" x1="108.081" y1="111.852" x2="122.845" y2="94.7146" gradientUnits="userSpaceOnUse">
<stop stop-color="#E1473D"/>
<stop offset="1" stop-color="#E9605A"/>
</linearGradient>
<linearGradient id="paint4_linear_4633_31639" x1="131.188" y1="82.2153" x2="87.5296" y2="148.171" gradientUnits="userSpaceOnUse">
<stop stop-color="#FF928E"/>
<stop offset="1" stop-color="#FE7062"/>
</linearGradient>
<linearGradient id="paint5_linear_4633_31639" x1="56.5913" y1="131.822" x2="67.0572" y2="119.675" gradientUnits="userSpaceOnUse">
<stop stop-color="#E1473D"/>
<stop offset="1" stop-color="#E9605A"/>
</linearGradient>
<linearGradient id="paint6_linear_4633_31639" x1="72.9718" y1="110.815" x2="42.0235" y2="157.569" gradientUnits="userSpaceOnUse">
<stop stop-color="#FF928E"/>
<stop offset="1" stop-color="#FE7062"/>
</linearGradient>
<linearGradient id="paint7_linear_4633_31639" x1="103.058" y1="134.57" x2="116.487" y2="118.983" gradientUnits="userSpaceOnUse">
<stop stop-color="#E1473D"/>
<stop offset="1" stop-color="#E9605A"/>
</linearGradient>
<linearGradient id="paint8_linear_4633_31639" x1="124.074" y1="107.613" x2="84.3645" y2="167.603" gradientUnits="userSpaceOnUse">
<stop stop-color="#FF928E"/>
<stop offset="1" stop-color="#FE7062"/>
</linearGradient>
<linearGradient id="paint9_linear_4633_31639" x1="50.2596" y1="42.8155" x2="80.2445" y2="42.8155" gradientUnits="userSpaceOnUse">
<stop stop-color="#E1473D"/>
<stop offset="1" stop-color="#E9605A"/>
</linearGradient>
<linearGradient id="paint10_linear_4633_31639" x1="50.7583" y1="42.8155" x2="79.7464" y2="42.8155" gradientUnits="userSpaceOnUse">
<stop stop-color="#FF928E"/>
<stop offset="1" stop-color="#FE7062"/>
</linearGradient>
<linearGradient id="paint11_linear_4633_31639" x1="68.3881" y1="-10.2502" x2="63.3851" y2="67.6972" gradientUnits="userSpaceOnUse">
<stop stop-color="#FF928E"/>
<stop offset="1" stop-color="#FE7062"/>
</linearGradient>
<linearGradient id="paint12_linear_4633_31639" x1="68.937" y1="-10.2147" x2="63.9345" y2="67.7321" gradientUnits="userSpaceOnUse">
<stop stop-color="#FF928E"/>
<stop offset="1" stop-color="#FE7062"/>
</linearGradient>
<linearGradient id="paint13_linear_4633_31639" x1="80.1271" y1="28.1937" x2="101.222" y2="28.1937" gradientUnits="userSpaceOnUse">
<stop stop-color="#E1473D"/>
<stop offset="1" stop-color="#E9605A"/>
</linearGradient>
<linearGradient id="paint14_linear_4633_31639" x1="80.4779" y1="28.1937" x2="100.872" y2="28.1937" gradientUnits="userSpaceOnUse">
<stop stop-color="#FF928E"/>
<stop offset="1" stop-color="#FE7062"/>
</linearGradient>
<linearGradient id="paint15_linear_4633_31639" x1="92.8513" y1="-8.67994" x2="87.8483" y2="69.2674" gradientUnits="userSpaceOnUse">
<stop stop-color="#FF928E"/>
<stop offset="1" stop-color="#FE7062"/>
</linearGradient>
<linearGradient id="paint16_linear_4633_31639" x1="93.2375" y1="-8.65511" x2="88.2345" y2="69.2922" gradientUnits="userSpaceOnUse">
<stop stop-color="#FF928E"/>
<stop offset="1" stop-color="#FE7062"/>
</linearGradient>
<linearGradient id="paint17_linear_4633_31639" x1="36.3634" y1="14.9169" x2="57.4588" y2="14.9169" gradientUnits="userSpaceOnUse">
<stop stop-color="#E1473D"/>
<stop offset="1" stop-color="#E9605A"/>
</linearGradient>
<linearGradient id="paint18_linear_4633_31639" x1="36.7141" y1="14.9169" x2="57.108" y2="14.9169" gradientUnits="userSpaceOnUse">
<stop stop-color="#FF928E"/>
<stop offset="1" stop-color="#FE7062"/>
</linearGradient>
<linearGradient id="paint19_linear_4633_31639" x1="48.4188" y1="-11.5317" x2="43.4158" y2="66.4161" gradientUnits="userSpaceOnUse">
<stop stop-color="#FF928E"/>
<stop offset="1" stop-color="#FE7062"/>
</linearGradient>
<linearGradient id="paint20_linear_4633_31639" x1="48.805" y1="-11.5069" x2="43.802" y2="66.4404" gradientUnits="userSpaceOnUse">
<stop stop-color="#FF928E"/>
<stop offset="1" stop-color="#FE7062"/>
</linearGradient>
<linearGradient id="paint21_linear_4633_31639" x1="69.2429" y1="97.3959" x2="67.1448" y2="50.5949" gradientUnits="userSpaceOnUse">
<stop stop-color="#4F52FF"/>
<stop offset="1" stop-color="#4042E2"/>
</linearGradient>
<linearGradient id="paint22_linear_4633_31639" x1="67.1286" y1="51.2109" x2="67.1286" y2="19.9032" gradientUnits="userSpaceOnUse">
<stop stop-color="#4F52FF"/>
<stop offset="1" stop-color="#4042E2"/>
</linearGradient>
<linearGradient id="paint23_linear_4633_31639" x1="67.3195" y1="92.2249" x2="66.3513" y2="113.527" gradientUnits="userSpaceOnUse">
<stop stop-color="#4F52FF"/>
<stop offset="1" stop-color="#4042E2"/>
</linearGradient>
<linearGradient id="paint24_linear_4633_31639" x1="66.9672" y1="115.603" x2="66.9672" y2="134.646" gradientUnits="userSpaceOnUse">
<stop stop-color="#4F52FF"/>
<stop offset="1" stop-color="#4042E2"/>
</linearGradient>
<linearGradient id="paint25_linear_4633_31639" x1="-3.13479" y1="90.3977" x2="21.8256" y2="78.8857" gradientUnits="userSpaceOnUse">
<stop stop-color="#FF928E"/>
<stop offset="1" stop-color="#FE7062"/>
</linearGradient>
<linearGradient id="paint26_linear_4633_31639" x1="21.2622" y1="122.462" x2="12.87" y2="137.525" gradientUnits="userSpaceOnUse">
<stop stop-color="#4F52FF"/>
<stop offset="1" stop-color="#4042E2"/>
</linearGradient>
<linearGradient id="paint27_linear_4633_31639" x1="12.7656" y1="128.032" x2="11.6257" y2="137.983" gradientUnits="userSpaceOnUse">
<stop stop-color="#FEBBBA"/>
<stop offset="1" stop-color="#FF928E"/>
</linearGradient>
<linearGradient id="paint28_linear_4633_31639" x1="29.298" y1="126.939" x2="20.9062" y2="142.002" gradientUnits="userSpaceOnUse">
<stop stop-color="#4F52FF"/>
<stop offset="1" stop-color="#4042E2"/>
</linearGradient>
<linearGradient id="paint29_linear_4633_31639" x1="22.0533" y1="129.096" x2="20.9128" y2="139.047" gradientUnits="userSpaceOnUse">
<stop stop-color="#FEBBBA"/>
<stop offset="1" stop-color="#FF928E"/>
</linearGradient>
<linearGradient id="paint30_linear_4633_31639" x1="35.6003" y1="83.5943" x2="-0.865909" y2="140.18" gradientUnits="userSpaceOnUse">
<stop stop-color="#09005D"/>
<stop offset="1" stop-color="#1A0F91"/>
</linearGradient>
<linearGradient id="paint31_linear_4633_31639" x1="-2.65053" y1="97.0709" x2="24.3543" y2="74.2622" gradientUnits="userSpaceOnUse">
<stop stop-color="#FF928E"/>
<stop offset="1" stop-color="#FE7062"/>
</linearGradient>
<linearGradient id="paint32_linear_4633_31639" x1="11.83" y1="61.6549" x2="15.3006" y2="72.3531" gradientUnits="userSpaceOnUse">
<stop stop-color="#FEBBBA"/>
<stop offset="1" stop-color="#FF928E"/>
</linearGradient>
<linearGradient id="paint33_linear_4633_31639" x1="15.0757" y1="61.4259" x2="18" y2="73.9116" gradientUnits="userSpaceOnUse">
<stop stop-color="#FEBBBA"/>
<stop offset="1" stop-color="#FF928E"/>
</linearGradient>
<linearGradient id="paint34_linear_4633_31639" x1="13.19" y1="67.538" x2="19.0946" y2="60.434" gradientUnits="userSpaceOnUse">
<stop stop-color="#09005D"/>
<stop offset="1" stop-color="#1A0F91"/>
</linearGradient>
<linearGradient id="paint35_linear_4633_31639" x1="210.012" y1="124.79" x2="220.811" y2="127.981" gradientUnits="userSpaceOnUse">
<stop stop-color="#FEBBBA"/>
<stop offset="1" stop-color="#FF928E"/>
</linearGradient>
<linearGradient id="paint36_linear_4633_31639" x1="11.6186" y1="67.9657" x2="2.60659" y2="84.5224" gradientUnits="userSpaceOnUse">
<stop stop-color="#E1473D"/>
<stop offset="1" stop-color="#E9605A"/>
</linearGradient>
<linearGradient id="paint37_linear_4633_31639" x1="25.3656" y1="85.0372" x2="13.1007" y2="102.574" gradientUnits="userSpaceOnUse">
<stop stop-color="#4F52FF"/>
<stop offset="1" stop-color="#4042E2"/>
</linearGradient>
<linearGradient id="paint38_linear_4633_31639" x1="3.10242" y1="93.9162" x2="12.8385" y2="93.9162" gradientUnits="userSpaceOnUse">
<stop stop-color="#FEBBBA"/>
<stop offset="1" stop-color="#FF928E"/>
</linearGradient>
<linearGradient id="paint39_linear_4633_31639" x1="28.8288" y1="76.5122" x2="31.6555" y2="82.0098" gradientUnits="userSpaceOnUse">
<stop stop-color="#FEBBBA"/>
<stop offset="1" stop-color="#FF928E"/>
</linearGradient>
<linearGradient id="paint40_linear_4633_31639" x1="30.5075" y1="82.0924" x2="33.1306" y2="69.0283" gradientUnits="userSpaceOnUse">
<stop stop-color="#09005D"/>
<stop offset="1" stop-color="#1A0F91"/>
</linearGradient>
<linearGradient id="paint41_linear_4633_31639" x1="52.0884" y1="46.9181" x2="35.3044" y2="68.7582" gradientUnits="userSpaceOnUse">
<stop stop-color="#FF928E"/>
<stop offset="1" stop-color="#FE7062"/>
</linearGradient>
<linearGradient id="paint42_linear_4633_31639" x1="43.6041" y1="54.2681" x2="53.7857" y2="54.2681" gradientUnits="userSpaceOnUse">
<stop stop-color="#E1473D"/>
<stop offset="1" stop-color="#E9605A"/>
</linearGradient>
<linearGradient id="paint43_linear_4633_31639" x1="38.7143" y1="66.8123" x2="48.236" y2="54.87" gradientUnits="userSpaceOnUse">
<stop stop-color="#FF928E"/>
<stop offset="1" stop-color="#FE7062"/>
</linearGradient>
<linearGradient id="paint44_linear_4633_31639" x1="52.9708" y1="51.7742" x2="39.0819" y2="59.3573" gradientUnits="userSpaceOnUse">
<stop stop-color="#09005D"/>
<stop offset="1" stop-color="#1A0F91"/>
</linearGradient>
<linearGradient id="paint45_linear_4633_31639" x1="28.3289" y1="69.6583" x2="21.5234" y2="56.6551" gradientUnits="userSpaceOnUse">
<stop stop-color="#09005D"/>
<stop offset="1" stop-color="#1A0F91"/>
</linearGradient>
<linearGradient id="paint46_linear_4633_31639" x1="33.3371" y1="72.9514" x2="37.0876" y2="72.9514" gradientUnits="userSpaceOnUse">
<stop stop-color="#FEBBBA"/>
<stop offset="1" stop-color="#FF928E"/>
</linearGradient>
<linearGradient id="paint47_linear_4633_31639" x1="73.5079" y1="144.314" x2="90.0239" y2="125.143" gradientUnits="userSpaceOnUse">
<stop stop-color="#E1473D"/>
<stop offset="1" stop-color="#E9605A"/>
</linearGradient>
<linearGradient id="paint48_linear_4633_31639" x1="99.3566" y1="111.161" x2="50.5184" y2="184.942" gradientUnits="userSpaceOnUse">
<stop stop-color="#FF928E"/>
<stop offset="1" stop-color="#FE7062"/>
</linearGradient>
</defs>
</svg>
