<svg width="137" height="137" viewBox="0 0 137 137" fill="none" xmlns="http://www.w3.org/2000/svg">
<path d="M125.512 39.834H73.6479C70.9698 39.834 68.7988 42.0059 68.7988 44.685V113.822C68.7988 116.501 70.9698 118.673 73.6479 118.673H125.512C128.19 118.673 130.361 116.501 130.361 113.822V44.685C130.361 42.0059 128.19 39.834 125.512 39.834Z" fill="url(#paint0_linear_4739_29948)"/>
<path d="M121.386 44.4004H78.1176C76.2772 44.4004 74.7852 45.8924 74.7852 47.7329V111.048C74.7852 112.888 76.2772 114.38 78.1176 114.38H121.386C123.226 114.38 124.718 112.888 124.718 111.048V47.7329C124.718 45.8924 123.226 44.4004 121.386 44.4004Z" fill="#2F406E"/>
<path d="M121.757 47.3809H77.7402V108.442H121.757V47.3809Z" fill="white"/>
<g style="mix-blend-mode:multiply" opacity="0.5">
<path d="M115.1 48.5693H84.3994V49.4267H115.1V48.5693Z" fill="#B0C3E0"/>
</g>
<path d="M112.573 68.8408H90.3486V69.1734H112.573V68.8408Z" fill="#C0CFE7"/>
<path d="M112.573 70.3857H90.3486V70.7184H112.573V70.3857Z" fill="#C0CFE7"/>
<path d="M112.573 71.9297H90.3486V72.2623H112.573V71.9297Z" fill="#C0CFE7"/>
<path d="M101.888 66.5986H90.3018V67.7019H101.888V66.5986Z" fill="#6E7A99"/>
<path d="M87.2369 66.5986H81.5967V72.2388H87.2369V66.5986Z" stroke="#B5C7E2" stroke-width="2" stroke-miterlimit="10"/>
<path d="M82.3359 69.7547L84.0487 71.2897L88.4245 65.0752" stroke="#E06C6C" stroke-width="3" stroke-miterlimit="10" stroke-linecap="round"/>
<path d="M112.573 87.9678H90.3486V88.3004H112.573V87.9678Z" fill="#C0CFE7"/>
<path d="M112.573 89.5127H90.3486V89.8453H112.573V89.5127Z" fill="#C0CFE7"/>
<path d="M112.573 91.0557H90.3486V91.3883H112.573V91.0557Z" fill="#C0CFE7"/>
<path d="M102.9 85.7266H90.3018V86.8298H102.9V85.7266Z" fill="#6E7A99"/>
<path d="M109.736 85.7266H103.974V86.8298H109.736V85.7266Z" fill="#6E7A99"/>
<path d="M87.2369 85.749H81.5967V91.3892H87.2369V85.749Z" stroke="#B5C7E2" stroke-width="2" stroke-miterlimit="10"/>
<path d="M82.3359 88.9062L84.0487 90.4412L88.4245 84.2246" stroke="#E06C6C" stroke-width="3" stroke-miterlimit="10" stroke-linecap="round"/>
<path d="M112.573 97.5322H90.3486V97.8649H112.573V97.5322Z" fill="#C0CFE7"/>
<path d="M112.573 99.0771H90.3486V99.4098H112.573V99.0771Z" fill="#C0CFE7"/>
<path d="M112.573 100.619H90.3486V100.952H112.573V100.619Z" fill="#C0CFE7"/>
<path d="M96.9832 95.29H90.3018V96.3933H96.9832V95.29Z" fill="#6E7A99"/>
<path d="M87.2369 95.3135H81.5967V100.954H87.2369V95.3135Z" stroke="#B5C7E2" stroke-width="2" stroke-miterlimit="10"/>
<path d="M82.3359 98.4687L84.0487 100.004L88.4245 93.7871" stroke="#E06C6C" stroke-width="3" stroke-miterlimit="10" stroke-linecap="round"/>
<path d="M87.2369 57.0342H81.5967V62.6744H87.2369V57.0342Z" stroke="#B5C7E2" stroke-width="2" stroke-miterlimit="10"/>
<path d="M112.573 59.2764H90.3486V59.609H112.573V59.2764Z" fill="#C0CFE7"/>
<path d="M112.573 60.8223H90.3486V61.1549H112.573V60.8223Z" fill="#C0CFE7"/>
<path d="M112.573 62.3662H90.3486V62.6988H112.573V62.3662Z" fill="#C0CFE7"/>
<path d="M98.5162 57.0342H90.3018V58.1374H98.5162V57.0342Z" fill="#6E7A99"/>
<path d="M109.735 57.0342H99.6201V58.1374H109.735V57.0342Z" fill="#6E7A99"/>
<path d="M82.3359 60.1902L84.0487 61.7253L88.4245 55.5107" stroke="#E06C6C" stroke-width="3" stroke-miterlimit="10" stroke-linecap="round"/>
<path d="M112.573 78.4043H90.3486V78.7369H112.573V78.4043Z" fill="#C0CFE7"/>
<path d="M112.573 79.9492H90.3486V80.2818H112.573V79.9492Z" fill="#C0CFE7"/>
<path d="M112.573 81.4932H90.3486V81.8258H112.573V81.4932Z" fill="#C0CFE7"/>
<path d="M94.2561 76.1621H90.3018V77.2654H94.2561V76.1621Z" fill="#6E7A99"/>
<path d="M104.738 76.1621H95.5732V77.2654H104.738V76.1621Z" fill="#6E7A99"/>
<path d="M87.2369 76.1855H81.5967V81.8257H87.2369V76.1855Z" stroke="#B5C7E2" stroke-width="2" stroke-miterlimit="10"/>
<path d="M82.3359 79.3416L84.0487 80.8787L88.4245 74.6621" stroke="#E06C6C" stroke-width="3" stroke-miterlimit="10" stroke-linecap="round"/>
<path d="M51.7662 59.7801C51.3897 59.3377 51.0811 58.8416 50.8506 58.3083L52.2091 57.7178C52.3823 58.1175 52.6137 58.4894 52.8958 58.8213L51.7662 59.7801Z" fill="#FFAD5B"/>
<path d="M62.1819 64.6709H50.3584V65.5828H62.1819V64.6709Z" fill="#BDC1C9"/>
<path d="M59.2061 66.6104H50.3584V67.5223H59.2061V66.6104Z" fill="#BDC1C9"/>
<path d="M93.3974 55.6455H93.4036C93.3793 55.6559 93.3751 55.6566 93.3974 55.6455Z" fill="#323657"/>
<g opacity="0.18">
<path d="M89.7772 7.88184H53.1616C51.8561 7.88184 50.7979 8.94055 50.7979 10.2465V35.0046C50.7979 36.3105 51.8561 37.3693 53.1616 37.3693H89.7772C91.0827 37.3693 92.141 36.3105 92.141 35.0046V10.2465C92.141 8.94055 91.0827 7.88184 89.7772 7.88184Z" fill="#549B43"/>
</g>
<path d="M81.0156 23.0576H87.6769C87.8122 23.0576 87.9419 23.1114 88.0376 23.2071C88.1332 23.3028 88.187 23.4326 88.187 23.5679V24.5967C88.187 24.7319 88.1333 24.8615 88.0378 24.9571C87.9422 25.0527 87.8126 25.1063 87.6775 25.1063H81.0163C80.8812 25.1063 80.7516 25.0527 80.656 24.9571C80.5605 24.8615 80.5068 24.7319 80.5068 24.5967V23.5679C80.5067 23.501 80.5198 23.4347 80.5454 23.3728C80.5709 23.311 80.6083 23.2548 80.6556 23.2074C80.7028 23.16 80.7589 23.1224 80.8207 23.0967C80.8825 23.071 80.9487 23.0577 81.0156 23.0576Z" fill="white"/>
<path d="M81.0156 19.7812H87.6769C87.8122 19.7812 87.9419 19.835 88.0376 19.9307C88.1332 20.0264 88.187 20.1562 88.187 20.2916V21.3203C88.187 21.4555 88.1333 21.5851 88.0378 21.6807C87.9422 21.7763 87.8126 21.83 87.6775 21.83H81.0163C80.8812 21.83 80.7516 21.7763 80.656 21.6807C80.5605 21.5851 80.5068 21.4555 80.5068 21.3203V20.2888C80.5074 20.1542 80.5612 20.0252 80.6565 19.93C80.7519 19.8349 80.8809 19.7814 81.0156 19.7812Z" fill="white"/>
<path d="M81.0156 16.5039H87.6769C87.8122 16.5039 87.9419 16.5577 88.0376 16.6534C88.1332 16.7491 88.187 16.8789 88.187 17.0142V18.0464C88.187 18.1816 88.1333 18.3112 88.0378 18.4068C87.9422 18.5023 87.8126 18.556 87.6775 18.556H81.0163C80.8812 18.556 80.7516 18.5023 80.656 18.4068C80.5605 18.3112 80.5068 18.1816 80.5068 18.0464V17.0142C80.5067 16.9473 80.5198 16.881 80.5454 16.8191C80.5709 16.7573 80.6083 16.701 80.6556 16.6537C80.7028 16.6063 80.7589 16.5687 80.8207 16.543C80.8825 16.5173 80.9487 16.504 81.0156 16.5039Z" fill="white"/>
<path d="M76.793 18.4864C75.7738 15.6356 73.6642 13.3065 70.9284 12.0117C68.1927 10.7168 65.0548 10.5623 62.2051 11.5819C59.3554 12.6016 57.0273 14.712 55.7329 17.4489C54.4386 20.1858 54.2841 23.3249 55.3033 26.1758C55.3896 26.417 55.4833 26.6549 55.5839 26.8872C56.7612 29.6088 58.951 31.7653 61.6897 32.9001C64.4284 34.0349 67.501 34.059 70.2572 32.9673C73.0133 31.8756 75.2367 29.7538 76.4565 27.051C77.6764 24.3483 77.7971 21.2767 76.793 18.4864ZM68.9288 30.3901C66.8859 31.1236 64.6405 31.052 62.6485 30.1896C60.6564 29.3273 59.0671 27.739 58.203 25.747C58.1278 25.5726 58.0574 25.3946 57.9918 25.2129C57.4211 23.6184 57.336 21.8903 57.7472 20.2474C58.1584 18.6044 59.0475 17.1204 60.3019 15.983C61.5563 14.8456 63.1198 14.106 64.7945 13.8576C66.4692 13.6093 68.1799 13.8635 69.7101 14.5879C71.2404 15.3124 72.5216 16.4746 73.3915 17.9276C74.2614 19.3806 74.681 21.0591 74.5972 22.7507C74.5134 24.4423 73.93 26.071 72.9208 27.4309C71.9115 28.7907 70.5218 29.8206 68.9275 30.3901H68.9288Z" fill="white"/>
<path d="M57.8801 19.7805L55.1543 18.9291C55.8638 16.6625 57.2613 14.6731 59.1526 13.2373C61.0439 11.8015 63.3352 10.9905 65.7083 10.917L65.7939 13.7709C64.0147 13.8258 62.2969 14.4337 60.879 15.5102C59.4611 16.5868 58.4136 18.0784 57.8821 19.7778L57.8801 19.7805Z" fill="#41285F"/>
<path d="M58.2025 25.7479L55.5833 26.8881C55.4828 26.6557 55.3891 26.4179 55.3028 26.1767C54.4636 23.8421 54.4113 21.2968 55.1541 18.9297L57.8798 19.7818C57.3227 21.5574 57.3619 23.4666 57.9912 25.2179C58.0565 25.3964 58.1269 25.573 58.2025 25.7479Z" fill="#7B48B9"/>
<path d="M57.3549 29.73C56.6294 28.875 56.0343 27.9174 55.5889 26.8883L58.208 25.748C58.5406 26.5197 58.9855 27.2378 59.5284 27.879L57.3549 29.73Z" fill="#9A6DD0"/>
<path d="M25.1421 42.9424H22.8164V43.6926H25.1421V42.9424Z" fill="#B8B8B8"/>
<path d="M46.8668 42.9424H42.7588V43.6926H46.8668V42.9424Z" fill="#B8B8B8"/>
<path d="M35.8444 42.9424H31.7363V43.6926H35.8444V42.9424Z" fill="#B8B8B8"/>
<path d="M56.943 42.9424H54.6377V43.6926H56.943V42.9424Z" fill="#B8B8B8"/>
<path opacity="0.18" d="M93.403 50.4092H82.8008V52.095H93.403V50.4092Z" fill="url(#paint1_linear_4739_29948)"/>
<path opacity="0.18" d="M95.6411 47.2637H82.8008V48.9495H95.6411V47.2637Z" fill="url(#paint2_linear_4739_29948)"/>
<path opacity="0.18" d="M47.8314 6.90332L54.9912 6.90332V5.60613L47.8314 5.60613V6.90332Z" fill="url(#paint3_linear_4739_29948)"/>
<path opacity="0.18" d="M47.8314 5.24414L54.9912 5.24414V5.0002L47.8314 5.0002V5.24414Z" fill="url(#paint4_linear_4739_29948)"/>
<path d="M14.6225 19.8881H17.4767L16.6032 18.0752H13.749L14.6225 19.8881Z" fill="url(#paint5_linear_4739_29948)"/>
<path d="M13.2866 19.8881H13.9665L13.093 18.0752H12.4131L13.2866 19.8881Z" fill="url(#paint6_linear_4739_29948)"/>
<path d="M98.4496 118.103L75.8935 132.751H67.1062L51.4464 115.083C51.4464 115.083 32.6397 107.484 28.7191 104.702C28.3999 104.476 28.1757 104.281 28.0745 104.126C26.695 102.056 55.4125 80.7462 55.4125 78.8477C55.4125 76.9491 55.6726 62.714 55.5843 61.5058C55.496 60.2977 52.9577 49.8583 54.5247 44.6825C54.5247 44.6825 56.1909 39.0425 59.6984 39.9653C59.6984 39.9653 60.1393 40.004 60.1393 40.814C60.1393 40.8616 60.1393 40.9092 60.1345 40.9608C60.1203 41.168 60.0901 41.3739 60.0442 41.5764C59.6984 43.1278 60.8491 48.8241 61.5955 50.3761C62.342 51.9281 64.2975 54.8609 64.7588 57.3934C65.22 59.926 67.1741 67.4577 67.9199 69.414C68.6657 71.3703 70.681 74.7054 70.9683 76.5489C71.2557 78.3924 71.6578 83.3352 72.6345 85.1787C73.6112 87.0222 76.4586 96.623 79.0451 99.7291C81.6317 102.835 98.4496 118.103 98.4496 118.103Z" fill="url(#paint7_linear_4739_29948)"/>
<path d="M97.3047 117.063L88.8026 120.042C88.8026 120.042 75.5643 105.825 70.8504 102.375C66.1365 98.9241 69.0097 86.6161 68.3202 83.8519C67.6308 81.0876 67.7456 75.2275 66.021 72.5889C64.2965 69.9504 64.0669 63.9551 63.7218 61.1942C63.3768 58.4333 61.8811 56.3629 60.1341 50.2649C58.4211 44.2961 60.0662 41.097 60.1341 40.9658C60.1203 41.1718 60.0899 41.3763 60.0431 41.5774C59.698 43.1307 60.8486 48.8251 61.5951 50.3777C62.3416 51.9304 64.2978 54.8625 64.7583 57.3951C65.2189 59.9276 67.173 67.46 67.9202 69.4149C68.6673 71.3699 70.6799 74.707 70.9679 76.5498C71.2559 78.3926 71.658 83.3361 72.6341 85.1796C73.6101 87.0231 76.4575 96.6253 79.0447 99.7307C81.6319 102.836 97.3047 117.063 97.3047 117.063Z" fill="url(#paint8_linear_4739_29948)"/>
<path d="M55.5895 61.5078C55.5895 61.5078 57.2604 68.8289 57.3738 72.5879C57.4873 76.347 60.1587 80.3289 60.7639 85.2833C61.3691 90.2376 58.335 103.322 55.5392 104.674C52.7435 106.025 55.5895 61.5078 55.5895 61.5078Z" fill="url(#paint9_linear_4739_29948)"/>
<path d="M63.8836 129.117L51.4441 115.079C51.4441 115.079 32.6374 107.48 28.7168 104.699H42.3912C42.3912 104.699 39.6315 106.021 43.1676 108.178C46.7037 110.334 59.4692 112.577 60.2429 114.821C61.0165 117.064 53.7073 113.156 63.8836 129.117Z" fill="url(#paint10_linear_4739_29948)"/>
<path d="M55.5889 61.5078C55.5889 61.5078 58.0898 71.0842 57.1695 74.3051C56.2491 77.5259 55.5889 82.3573 55.5889 82.3573C55.5889 82.3573 55.6378 65.5047 55.5889 61.5078Z" fill="url(#paint11_linear_4739_29948)"/>
<path d="M55.5884 34.9913V99.831C55.5884 100.467 55.4631 101.097 55.2198 101.684C54.9766 102.272 54.6199 102.805 54.1704 103.255C53.7209 103.705 53.1872 104.061 52.5999 104.304C52.0126 104.548 51.3831 104.673 50.7474 104.673H19.671C18.3873 104.673 17.1562 104.162 16.2484 103.255C15.3406 102.347 14.8304 101.115 14.8301 99.831V34.9913C14.8301 33.7069 15.3401 32.4751 16.248 31.5669C17.1558 30.6587 18.3871 30.1484 19.671 30.1484H50.7461C51.382 30.1481 52.0117 30.2731 52.5993 30.5163C53.1868 30.7596 53.7207 31.1163 54.1704 31.566C54.6201 32.0158 54.9768 32.5498 55.2201 33.1375C55.4634 33.7252 55.5885 34.3552 55.5884 34.9913Z" fill="url(#paint12_linear_4739_29948)"/>
<path d="M52.4902 33.3965H17.9326V92.7702H52.4902V33.3965Z" fill="#EFF4FF"/>
<path d="M39.4715 98.6832C39.4715 100.412 37.5628 101.814 35.2079 101.814C32.853 101.814 30.9443 100.412 30.9443 98.6832C30.9443 96.9546 32.853 95.5527 35.2079 95.5527C37.5628 95.5527 39.4715 96.9546 39.4715 98.6832Z" fill="url(#paint13_linear_4739_29948)"/>
<path d="M102.512 121.115L85.3659 132.75H62.9252L61.5029 131.103L91.8275 110.861L102.512 121.115Z" fill="url(#paint14_linear_4739_29948)"/>
<path d="M117.582 132.75H77.6738L98.3369 119.254C99.7942 118.302 101.547 117.911 103.271 118.153C104.995 118.395 106.572 119.255 107.71 120.573L117.582 132.75Z" fill="url(#paint15_linear_4739_29948)"/>
<g style="mix-blend-mode:soft-light">
<path d="M38.0145 30.1484L16.0989 103.098C15.2809 102.207 14.8279 101.041 14.8301 99.831V34.9913C14.8301 33.7069 15.3401 32.4751 16.248 31.5669C17.1558 30.6587 18.3871 30.1484 19.671 30.1484H38.0145Z" fill="white"/>
</g>
<g style="mix-blend-mode:soft-light">
<path d="M22.1087 104.673L44.4977 30.1484H41.1097L18.7207 104.673H22.1087Z" fill="white"/>
</g>
<path d="M11.5262 83.8022C11.5262 83.8022 8.76642 86.2029 8.79019 88.1422C8.81261 90.0571 8.8683 91.359 9.39132 92.3497C9.78799 93.1013 14.7267 99.5736 15.8217 99.4948C16.7726 99.4269 18.7363 97.8252 18.2669 95.6216C17.7976 93.4179 15.9086 89.9898 15.8217 89.7228V82.8447L11.5262 83.8022Z" fill="url(#paint16_linear_4739_29948)"/>
<path d="M14.9295 98.67C14.9295 98.67 16.1521 96.9114 16.7091 96.4663C17.2661 96.0212 13.7496 90.3004 12.1032 91.8137C10.4567 93.327 12.5929 96.6661 14.9295 98.67Z" fill="url(#paint17_linear_4739_29948)"/>
<path d="M9.53628 69.2299C9.53628 69.2299 5.97164 72.3305 6.00017 74.8379C6.02938 77.3113 6.10138 78.9938 6.77654 80.274C7.28936 81.245 13.7333 89.9366 15.0843 89.5052C16.4353 89.0737 18.85 87.3484 18.2468 84.5012C17.6436 81.6541 15.1991 77.2257 15.0843 76.8805V67.9932L9.53628 69.2299Z" fill="url(#paint18_linear_4739_29948)"/>
<path d="M13.9331 88.4434C13.9331 88.4434 15.5143 86.1718 16.233 85.5963C16.9516 85.0207 12.4095 77.6277 10.2835 79.5833C8.15751 81.5389 10.9145 85.8525 13.9331 88.4434Z" fill="url(#paint19_linear_4739_29948)"/>
<path d="M9.53628 57.9691C9.53628 57.9691 5.97164 61.0691 6.00017 63.5771C6.02938 66.0499 6.10138 67.7324 6.77654 69.0132C7.28936 69.9849 13.7333 78.6766 15.0843 78.2451C16.4353 77.8136 18.85 76.0883 18.2468 73.2412C17.6436 70.394 15.1991 65.9649 15.0843 65.6204V56.7324L9.53628 57.9691Z" fill="url(#paint20_linear_4739_29948)"/>
<path d="M13.9331 77.1801C13.9331 77.1801 15.5143 74.9078 16.233 74.3329C16.9516 73.758 12.4095 66.367 10.2835 68.3226C8.15751 70.2783 10.9145 74.5918 13.9331 77.1801Z" fill="url(#paint21_linear_4739_29948)"/>
<path d="M14.8306 45.8916L15.0839 57.1932C8.90285 60.4719 6.68922 58.4014 6.43043 57.8836C6.17164 57.3658 11.8636 48.8284 12.729 47.6169C13.2733 46.8741 13.9961 46.2807 14.8306 45.8916Z" fill="url(#paint22_linear_4739_29948)"/>
<path d="M6.42033 58.343C6.42033 58.343 9.13117 56.3044 10.1079 55.9273C11.0847 55.5502 12.8337 51.2088 11.8332 50.8371C9.82059 50.0916 5.69559 57.9278 6.42033 58.343Z" fill="url(#paint23_linear_4739_29948)"/>
<path d="M65.7008 61.4264C65.7008 61.4264 67.5544 62.2704 67.9817 61.5732C68.4089 60.876 69.3211 60.151 69.62 59.9376C70.0194 59.6522 70.9533 58.3149 71.2794 58.8198C71.6054 59.3247 69.838 61.0962 69.5351 61.5413C69.2322 61.9863 71.5171 61.7227 71.9559 62.0169C72.3947 62.3111 72.4157 66.2659 70.8358 66.2591C69.2559 66.2523 67.623 65.1549 67.3425 65.2113C67.062 65.2677 65.2471 64.8546 65.2471 64.8546L65.7008 61.4264Z" fill="#EEA886"/>
<path d="M71.5918 61.9229C71.5918 61.9229 76.4144 62.2803 76.701 62.5854C76.9877 62.8905 76.9428 63.1636 76.4898 63.15C76.0367 63.1365 71.8173 62.9462 71.8173 62.9462C71.8173 62.9462 77.4068 64.3732 77.6988 64.5668C77.8693 64.6803 77.8089 65.2117 77.563 65.228C77.3171 65.2443 71.6869 64.1639 71.6869 64.1639C71.6869 64.1639 76.9028 65.5059 77.097 65.7465C77.2668 65.9564 77.097 66.4362 76.6997 66.3641C76.3023 66.2921 71.3826 65.336 71.3826 65.336C71.3826 65.336 75.1096 66.5632 75.151 66.8751C75.1789 67.0654 75.1463 67.5261 74.196 67.1768C73.2457 66.8276 70.9092 66.2547 70.9092 66.2547L71.5918 61.9229Z" fill="#EEA886"/>
<path d="M48.6368 89.3612C48.6544 89.5691 48.6191 90.8704 48.5593 92.7717H38.527C38.364 92.0439 38.3735 90.4532 38.2607 90.4654C38.148 90.4776 37.7995 92.0704 37.553 92.7717H25.9727C26.4896 88.505 27.1104 83.8646 27.6028 80.1328C27.6381 79.8834 27.6708 79.6455 27.6979 79.4199C27.8786 78.0609 28.0124 77.0668 28.0776 76.5884C28.1075 76.3846 28.1224 76.2731 28.1224 76.2731C28.369 76.1576 28.6305 76.0536 28.9008 75.9558C35.3631 73.6319 47.8244 76.0917 47.8244 76.0917C48.8799 82.8841 48.6368 89.3612 48.6368 89.3612Z" fill="#292C47"/>
<path d="M42.0144 40.4896C42.0144 40.4896 52.5989 42.7374 53.482 45.6797C54.365 48.622 55.9326 53.4635 57.8562 61.1094C58.1456 62.2591 69.0711 60.718 69.0711 60.718C69.0711 60.718 69.9806 65.3795 70.0051 65.529C70.073 65.9367 55.2459 66.6882 54.1789 66.4164C52.6349 66.0243 50.0355 55.6801 50.0355 55.6801C50.0355 55.6801 48.6342 71.3014 48.6342 73.7144C48.6342 76.1273 48.7932 81.013 48.7932 81.013C48.7932 81.013 44.8658 82.5188 37.2482 82.1247C37.2482 82.1247 25.1286 81.7081 27.1955 78.0123C28.7577 75.2181 27.8007 56.4194 27.5657 56.3019C27.3307 56.1843 23.1051 61.4784 23.5167 62.4977C23.9284 63.5169 34.8709 67.17 34.8709 67.17C34.8709 67.17 35.1908 68.3482 33.492 71.0174C33.492 71.0174 17.1591 66.2424 17.1 65.2415C17.0409 64.2406 23.8924 44.8127 26.1338 43.7961C29.3561 42.3318 37.7807 40.0303 37.7807 40.0303L42.0144 40.4896Z" fill="#51578F"/>
<path d="M41.0513 59.7802L28.625 56.1709L23.1919 74.8917L35.6182 78.5009L41.0513 59.7802Z" fill="#D9C7C1"/>
<path d="M39.8609 59.4355L27.4346 55.8262L22.0014 74.5469L34.4277 78.1562L39.8609 59.4355Z" fill="#6DBD7D"/>
<path d="M41.2982 54.577L26.4512 50.2646L19.9597 72.6319L34.8067 76.9443L41.2982 54.577Z" fill="#EDDAD3"/>
<path d="M39.8782 54.1649L25.0312 49.8525L18.5398 72.2198L33.3868 76.5322L39.8782 54.1649Z" fill="#548AD1"/>
<path d="M35.0084 57.3446L26.627 54.9102L26.2478 56.2166L34.6292 58.651L35.0084 57.3446Z" fill="#609EF0"/>
<path d="M34.1226 59.8016L25.7412 57.3672L25.3621 58.6736L33.7435 61.108L34.1226 59.8016Z" fill="#609EF0"/>
<path d="M38.2607 66.6305C38.2607 66.6305 39.4413 66.5978 39.8033 66.5455C40.1653 66.4932 39.9256 67.2624 39.5065 67.4071C39.0874 67.5519 38.2607 66.6305 38.2607 66.6305Z" fill="#E6A281"/>
<path d="M38.9518 72.2706C38.9518 72.2706 38.4363 72.3956 38.1843 72.3385C38.1843 72.3385 37.7333 72.2026 37.4073 72.1259C37.3233 72.105 37.2383 72.0887 37.1525 72.0769C36.9026 72.0525 36.3456 72.0722 35.7608 71.8432C35.176 71.6142 33.1953 70.5983 33.1953 70.5983L33.7618 68.7555L34.1924 67.2945C34.1924 67.2945 37.5411 66.403 38.1103 66.5532C38.1644 66.5673 38.2177 66.5846 38.2699 66.6048C38.7392 66.7788 39.0171 67.1049 39.2514 67.2245C39.3377 67.2687 40.167 67.7681 40.2098 68.0529C40.2702 68.4497 40.1514 68.7494 39.9469 68.9362C39.9469 68.9362 40.0312 69.7183 39.7432 70.1593C39.7432 70.1593 39.8437 70.8783 39.3261 71.3267C39.3214 71.3261 39.3424 72.0667 38.9518 72.2706Z" fill="#EEA886"/>
<path d="M34.8713 67.0552C34.8713 67.0552 34.8998 69.5245 33.377 71.3687C33.377 71.3687 21.4985 67.274 20.0701 66.712C18.6416 66.1501 25.2608 48.5527 25.2608 48.5527L30.1309 50.2114L27.5145 55.1617C27.5145 55.1617 26.2158 57.9348 23.5213 62.4956C23.5213 62.4956 25.1793 63.9559 34.8713 67.0552Z" fill="#51578F"/>
<path d="M34.2698 41.0328C34.2698 41.0328 34.1516 45.7425 39.0013 45.6297C44.0202 45.5128 42.9565 40.7059 42.9565 40.7059C42.9565 40.7059 39.1576 39.0513 34.2698 41.0328Z" fill="#EED9CF"/>
<path d="M41.8439 36.8077C41.8439 36.8077 41.4078 39.1989 42.1577 40.8318C42.1577 40.8318 42.9211 44.6371 39.0278 44.8076C35.1344 44.9782 35.1758 40.7027 35.1758 40.7027C35.1758 40.7027 35.9753 40.2366 35.3538 36.8295C34.7323 33.4224 41.8439 36.8077 41.8439 36.8077Z" fill="#EEA886"/>
<path d="M39.4771 22.9807C39.4771 22.9807 44.46 23.7846 43.7027 31.7723C42.9453 39.7599 38.5459 39.1042 38.2525 39.096C37.959 39.0879 33.8374 39.2415 33.5161 29.4905C33.5141 29.4898 33.3783 22.2788 39.4771 22.9807Z" fill="#EEA886"/>
<path d="M43.7766 29.5152C43.7766 29.5152 44.32 28.9179 44.5237 29.5227C44.7275 30.1275 43.8133 32.73 43.746 32.9488C43.746 32.9488 43.6462 33.1832 43.5151 33.0541C43.384 32.925 43.7766 29.5152 43.7766 29.5152Z" fill="#EEA886"/>
<path d="M33.6358 29.4148C33.6358 29.4148 33.1019 28.8073 32.8886 29.4073C32.6753 30.0073 33.559 32.7464 33.6018 32.8484C33.6018 32.8484 33.6976 33.0848 33.8307 32.9585C33.9639 32.8321 33.6358 29.4148 33.6358 29.4148Z" fill="#EEA886"/>
<path d="M43.7744 30.7393L43.0612 31.7165C43.0612 31.7165 43.0809 29.5746 42.9668 29.239C42.8527 28.9033 43.1026 27.7332 43.0062 27.4913C42.9097 27.2493 39.5985 28.1497 34.1659 27.5959C34.1659 27.5959 34.7698 29.5257 34.4159 29.663C34.062 29.8002 34.2352 32.1717 34.2352 32.1717L33.649 31.4922C33.649 31.4922 32.9868 27.441 33.0513 26.7649C33.1369 25.8645 32.8319 21.661 40.4754 22.3827C41.3545 22.4627 42.1924 22.7928 42.89 23.334C43.6752 23.9456 44.4829 24.905 44.4088 26.2199C44.3124 27.9567 43.7744 30.7393 43.7744 30.7393Z" fill="#434343"/>
<path d="M35.9805 38.0371C35.9805 38.0371 38.0358 40.4385 41.2996 38.0371C41.2996 38.0371 40.3846 39.8582 38.4658 39.901C36.547 39.9438 35.9805 38.0371 35.9805 38.0371Z" fill="#A77860"/>
<path d="M12.2088 31.9903L11.9785 31.9932L12.0493 37.7081L12.2796 37.7052L12.2088 31.9903Z" fill="#292929"/>
<path d="M12.1651 37.5254H12.1583C11.615 37.558 11.7141 40.3447 11.7141 40.3447L12.193 40.3392H12.2005L12.6793 40.3338C12.6793 40.3338 12.7072 37.5444 12.1651 37.5254Z" fill="#292929"/>
<path d="M25.0739 28.8373L30.0765 25.3161L18.8351 23.1953L7.36621 32.9606L14.0037 33.7977L25.0739 28.8373Z" fill="#272A45"/>
<path d="M25.3001 30.15C25.3001 30.15 20.1739 30.9049 14.8304 35.0424L13.5215 32.9495C13.5215 32.9495 19.676 28.8439 25.0427 28.2568L25.3001 30.15Z" fill="#51578F"/>
<defs>
<linearGradient id="paint0_linear_4739_29948" x1="68.7988" y1="79.2538" x2="130.36" y2="79.2538" gradientUnits="userSpaceOnUse">
<stop stop-color="#E6E6E6"/>
<stop offset="1" stop-color="#E6E6E6"/>
</linearGradient>
<linearGradient id="paint1_linear_4739_29948" x1="82.8008" y1="51.2518" x2="93.403" y2="51.2518" gradientUnits="userSpaceOnUse">
<stop stop-color="#D5E4FF"/>
<stop offset="1" stop-color="#EDFFFE"/>
</linearGradient>
<linearGradient id="paint2_linear_4739_29948" x1="82.8008" y1="48.1069" x2="95.6411" y2="48.1069" gradientUnits="userSpaceOnUse">
<stop stop-color="#D5E4FF"/>
<stop offset="1" stop-color="#EDFFFE"/>
</linearGradient>
<linearGradient id="paint3_linear_4739_29948" x1="47.8314" y1="6.25439" x2="54.9912" y2="6.25439" gradientUnits="userSpaceOnUse">
<stop stop-color="#D5E4FF"/>
<stop offset="1" stop-color="#EDFFFE"/>
</linearGradient>
<linearGradient id="paint4_linear_4739_29948" x1="47.8314" y1="5.12251" x2="54.9912" y2="5.12251" gradientUnits="userSpaceOnUse">
<stop stop-color="#D5E4FF"/>
<stop offset="1" stop-color="#EDFFFE"/>
</linearGradient>
<linearGradient id="paint5_linear_4739_29948" x1="-7.72234" y1="42.3263" x2="21.6985" y2="12.9174" gradientUnits="userSpaceOnUse">
<stop offset="0.08" stop-color="#BCD7E8"/>
<stop offset="1" stop-color="#E6E7E8"/>
</linearGradient>
<linearGradient id="paint6_linear_4739_29948" x1="-8.93397" y1="41.1147" x2="20.4869" y2="11.7051" gradientUnits="userSpaceOnUse">
<stop offset="0.08" stop-color="#BCD7E8"/>
<stop offset="1" stop-color="#E6E7E8"/>
</linearGradient>
<linearGradient id="paint7_linear_4739_29948" x1="62.4711" y1="108.323" x2="44.9425" y2="46.0867" gradientUnits="userSpaceOnUse">
<stop stop-color="#EEA886"/>
<stop offset="0.79" stop-color="#CF9174"/>
</linearGradient>
<linearGradient id="paint8_linear_4739_29948" x1="88.8488" y1="121.805" x2="51.3476" y2="33.9058" gradientUnits="userSpaceOnUse">
<stop stop-color="#EEA886"/>
<stop offset="0.79" stop-color="#CF9174"/>
<stop offset="0.8" stop-color="#CC8E71"/>
<stop offset="0.93" stop-color="#B4765A"/>
<stop offset="1" stop-color="#AB6D52"/>
</linearGradient>
<linearGradient id="paint9_linear_4739_29948" x1="60.4148" y1="109.105" x2="54.339" y2="75.0792" gradientUnits="userSpaceOnUse">
<stop stop-color="#EEA886"/>
<stop offset="0.79" stop-color="#CF9174"/>
<stop offset="0.8" stop-color="#CC8E71"/>
<stop offset="0.93" stop-color="#B4765A"/>
<stop offset="1" stop-color="#AB6D52"/>
</linearGradient>
<linearGradient id="paint10_linear_4739_29948" x1="48.397" y1="116.204" x2="23.8111" y2="75.6875" gradientUnits="userSpaceOnUse">
<stop stop-color="#EEA886"/>
<stop offset="0.31" stop-color="#E29F7F"/>
<stop offset="0.79" stop-color="#CF9174"/>
<stop offset="0.8" stop-color="#CC8E71"/>
<stop offset="0.93" stop-color="#B4765A"/>
<stop offset="1" stop-color="#AB6D52"/>
</linearGradient>
<linearGradient id="paint11_linear_4739_29948" x1="61.8086" y1="89.2856" x2="55.0196" y2="70.3643" gradientUnits="userSpaceOnUse">
<stop stop-color="#CF9174"/>
<stop offset="1" stop-color="#91624C"/>
</linearGradient>
<linearGradient id="paint12_linear_4739_29948" x1="35.2085" y1="48.4212" x2="35.2085" y2="100.411" gradientUnits="userSpaceOnUse">
<stop offset="0.08" stop-color="#BCD7E8"/>
<stop offset="1" stop-color="#E6E7E8"/>
</linearGradient>
<linearGradient id="paint13_linear_4739_29948" x1="37.0446" y1="102.304" x2="33.462" y2="95.2461" gradientUnits="userSpaceOnUse">
<stop stop-color="#A1A1A1"/>
<stop offset="0.96" stop-color="#BDBDBD"/>
</linearGradient>
<linearGradient id="paint14_linear_4739_29948" x1="111.419" y1="166.399" x2="75.0895" y2="116.673" gradientUnits="userSpaceOnUse">
<stop stop-color="#B3F7FF"/>
<stop offset="1" stop-color="#ADBEFF"/>
</linearGradient>
<linearGradient id="paint15_linear_4739_29948" x1="131.043" y1="165.732" x2="89.9463" y2="123.886" gradientUnits="userSpaceOnUse">
<stop stop-color="#B3F7FF"/>
<stop offset="1" stop-color="#ADBEFF"/>
</linearGradient>
<linearGradient id="paint16_linear_4739_29948" x1="15.5826" y1="103.361" x2="10.0567" y2="74.9388" gradientUnits="userSpaceOnUse">
<stop stop-color="#EEA886"/>
<stop offset="0.79" stop-color="#CF9174"/>
<stop offset="0.8" stop-color="#CC8E71"/>
<stop offset="0.93" stop-color="#B4765A"/>
<stop offset="1" stop-color="#AB6D52"/>
</linearGradient>
<linearGradient id="paint17_linear_4739_29948" x1="12.8748" y1="89.5822" x2="16.2124" y2="103.501" gradientUnits="userSpaceOnUse">
<stop stop-color="#DE9C7D"/>
<stop offset="1" stop-color="#FFE0D1"/>
</linearGradient>
<linearGradient id="paint18_linear_4739_29948" x1="13.2388" y1="86.0199" x2="8.63611" y2="63.3589" gradientUnits="userSpaceOnUse">
<stop stop-color="#EEA886"/>
<stop offset="0.79" stop-color="#CF9174"/>
</linearGradient>
<linearGradient id="paint19_linear_4739_29948" x1="11.3574" y1="76.696" x2="15.1552" y2="93.3176" gradientUnits="userSpaceOnUse">
<stop stop-color="#DE9C7D"/>
<stop offset="1" stop-color="#FFE0D1"/>
</linearGradient>
<linearGradient id="paint20_linear_4739_29948" x1="12.1466" y1="73.2677" x2="12.3193" y2="39.6638" gradientUnits="userSpaceOnUse">
<stop stop-color="#EEA886"/>
<stop offset="0.25" stop-color="#E4A180"/>
<stop offset="0.79" stop-color="#CF9174"/>
<stop offset="0.8" stop-color="#CC8E71"/>
<stop offset="0.93" stop-color="#B4765A"/>
<stop offset="1" stop-color="#AB6D52"/>
</linearGradient>
<linearGradient id="paint21_linear_4739_29948" x1="12.2139" y1="67.2952" x2="14.343" y2="82.1341" gradientUnits="userSpaceOnUse">
<stop stop-color="#DE9C7D"/>
<stop offset="1" stop-color="#FFE0D1"/>
</linearGradient>
<linearGradient id="paint22_linear_4739_29948" x1="9.75733" y1="58.589" x2="20.2282" y2="42.9539" gradientUnits="userSpaceOnUse">
<stop stop-color="#EEA886"/>
<stop offset="0.79" stop-color="#CF9174"/>
<stop offset="0.8" stop-color="#CC8E71"/>
<stop offset="0.93" stop-color="#B4765A"/>
<stop offset="1" stop-color="#AB6D52"/>
</linearGradient>
<linearGradient id="paint23_linear_4739_29948" x1="14.3151" y1="50.8194" x2="3.15844" y2="58.5222" gradientUnits="userSpaceOnUse">
<stop stop-color="#DE9C7D"/>
<stop offset="1" stop-color="#FFE0D1"/>
</linearGradient>
</defs>
</svg>
