<svg width="24" height="24" viewBox="0 0 24 24" fill="none" xmlns="http://www.w3.org/2000/svg">
<path fill-rule="evenodd" clip-rule="evenodd" d="M15.2237 5.82543C12.5713 7.03795 9.8601 7.02619 7.12279 6.60939C7.37129 6.90573 7.62194 7.19818 7.87172 7.48961C8.42698 8.13747 8.97796 8.78033 9.49164 9.44992C11.5508 12.1493 12.7816 15.2211 13.4624 18.5281C13.5495 18.9349 13.6305 19.3412 13.7054 19.7472C13.7707 20.0856 13.6401 20.3155 13.3004 20.3874C10.8048 20.91 8.32616 20.8957 5.88022 20.1195C5.57006 20.0096 5.27122 19.87 4.98782 19.7027C4.30578 19.3277 3.953 18.7881 3.98044 17.9611C4.01078 16.9837 4.00424 16.005 3.9977 15.0264C3.99495 14.6143 3.9922 14.2023 3.9922 13.7904V13.4899C3.9922 13.1868 4.12285 12.9842 4.45081 12.9973C4.75263 13.0091 4.86761 13.209 4.86761 13.4899V15.8117C4.86761 16.022 4.86952 16.2324 4.87143 16.4429V16.4429C4.87603 16.9505 4.88063 17.4581 4.85847 17.9624C4.83887 18.4118 5.00611 18.7463 5.39547 18.894L5.48661 18.928C6.22784 19.2046 6.97795 19.4845 7.74734 19.6426C8.97762 19.8788 10.2376 19.9185 11.4803 19.7602C11.3471 19.5117 11.2212 19.2662 11.0972 19.0243C10.8559 18.5538 10.6215 18.0967 10.354 17.6566C8.69854 14.9376 6.58055 12.655 3.77269 11.0884C3.16391 10.7495 2.49557 10.5083 1.8335 10.2694L1.83311 10.2693C1.72942 10.2318 1.62587 10.1945 1.52274 10.1568C0.967437 9.95295 0.869442 9.76481 1.1582 9.24217C2.14511 7.4504 3.13376 5.6595 4.12416 3.86947C4.44036 3.29849 4.97345 2.99274 5.55096 2.75625C6.92288 2.1905 8.3732 2.02325 9.83658 2.00235C11.3 1.98144 12.7346 2.09381 14.1091 2.59815C14.6385 2.80634 15.1405 3.07838 15.6039 3.40824C15.9867 3.66956 16.1265 4.10073 16.1265 4.57633V15.7581C16.1265 16.0952 16.056 16.4023 15.6692 16.401C15.2824 16.3997 15.2197 16.0743 15.2197 15.7477V6.37289L15.2237 5.82543ZM12.7228 19.5708C11.8435 13.7003 8.82789 9.11151 4.33452 5.34853L2.17473 9.25654C2.51098 9.43896 2.8498 9.61151 3.1865 9.78297L3.18652 9.78298C3.89646 10.1445 4.59694 10.5012 5.24391 10.9355C8.37973 13.0391 10.6754 15.864 12.2185 19.2977L12.2291 19.3223C12.3236 19.5425 12.4066 19.7358 12.7228 19.5708ZM10.0561 2.85947C9.80543 2.88489 9.55442 2.90693 9.30345 2.92897C8.72891 2.97942 8.15458 3.02985 7.58532 3.12079C6.7674 3.25145 5.92856 3.45397 5.23346 3.96223C4.77876 4.29149 4.76047 4.59462 5.23346 4.89514C5.63738 5.15998 6.07746 5.36505 6.54005 5.50401C8.68698 6.09986 10.9505 6.13763 13.1161 5.61377C13.7591 5.43807 14.3747 5.17425 14.9453 4.82981C15.3282 4.61422 15.3073 4.30717 14.9453 4.03802C14.6763 3.83041 14.3799 3.66071 14.0647 3.53367C12.7764 3.03325 11.4267 2.91696 10.0561 2.85947ZM19.099 15.6863L19.0656 15.7769C18.8154 16.4546 18.566 17.1305 18.3334 17.8147C18.3261 17.8791 18.3323 17.9444 18.3517 18.0062C18.371 18.0681 18.4031 18.1252 18.4457 18.174C18.6232 18.373 18.7428 18.6167 18.7916 18.8788C18.8405 19.1409 18.8166 19.4114 18.7227 19.6609C18.5398 20.2019 18.353 20.7428 18.1413 21.2733C17.812 22.1003 17.0059 22.4714 16.2284 22.1761C15.4824 21.8926 15.1218 21.0799 15.3948 20.2633C15.5712 19.7406 15.7659 19.218 15.9658 18.6954C16.0527 18.4356 16.2106 18.2054 16.4217 18.0308C16.6328 17.8562 16.8886 17.7442 17.16 17.7076C17.2353 17.6861 17.3049 17.6485 17.3641 17.5972C17.4232 17.546 17.4704 17.4824 17.5024 17.411C17.876 16.4371 18.2332 15.4576 18.5738 14.4725C18.6228 14.2979 18.616 14.1124 18.5542 13.942C18.3414 13.3214 18.1165 12.7056 17.8915 12.0896L17.8915 12.0895C17.8029 11.8469 17.7143 11.6044 17.6265 11.3615C17.5791 11.2422 17.5381 11.1205 17.5037 10.9969C17.4383 10.7356 17.4775 10.5017 17.7715 10.4063C18.0655 10.311 18.2471 10.4547 18.3451 10.7121C18.4822 11.073 18.6134 11.4366 18.7446 11.8001L18.7446 11.8002L18.7447 11.8006C18.8172 12.0015 18.8897 12.2024 18.9631 12.4028C19.0107 12.5314 19.0634 12.6601 19.1523 12.8772L19.1523 12.8773L19.1565 12.8876C19.235 12.6726 19.3091 12.4645 19.3813 12.2617L19.3814 12.2615C19.5725 11.7248 19.7501 11.226 19.9588 10.7395C20.028 10.5788 20.2828 10.4403 20.4709 10.4116C20.5715 10.3959 20.7649 10.6154 20.8185 10.7644C20.856 10.8669 20.7995 11.0113 20.7488 11.141L20.7488 11.141C20.7394 11.1651 20.7302 11.1886 20.7218 11.2112C20.6146 11.5096 20.5056 11.8072 20.3966 12.1048L20.3966 12.1048C20.1816 12.6921 19.9666 13.2792 19.7654 13.8714C19.6923 14.0956 19.6895 14.3368 19.7575 14.5626C19.9348 15.0878 20.1266 15.6085 20.3184 16.1292C20.4673 16.5335 20.6162 16.9378 20.7584 17.3443C20.8381 17.5704 20.9309 17.6984 21.1922 17.7285C21.4368 17.7529 21.6695 17.8465 21.8629 17.9983C22.0564 18.15 22.2026 18.3538 22.2845 18.5856C22.5275 19.1958 22.7522 19.8151 22.9443 20.4423C23.0425 20.7828 23.0101 21.1478 22.8535 21.4657C22.6969 21.7837 22.4274 22.0319 22.0976 22.1617C21.4065 22.444 20.5768 22.1748 20.2684 21.4941C19.9712 20.8288 19.7189 20.1444 19.5132 19.4453C19.3825 19.0024 19.542 18.5791 19.8203 18.1962C19.8692 18.1212 19.9025 18.037 19.918 17.9487C19.9335 17.8605 19.9309 17.77 19.9104 17.6828C19.7519 17.1859 19.5714 16.6962 19.3908 16.2062L19.3908 16.2062C19.3259 16.03 19.2609 15.8537 19.197 15.6771L19.099 15.6863ZM17.9949 19.1004C17.9494 19.0525 17.9057 18.9962 17.8617 18.9393C17.7616 18.8103 17.6595 18.6787 17.5298 18.6379C17.343 18.5791 16.9967 18.6797 16.9405 18.8077C16.6542 19.4563 16.4153 20.1249 16.2258 20.8081C16.1879 20.9388 16.4101 21.2641 16.5655 21.3072C16.7511 21.3595 17.1235 21.2654 17.1901 21.1282C17.4077 20.6741 17.5835 20.2008 17.7716 19.6944L17.7716 19.6943L17.7717 19.6941C17.8434 19.5012 17.9168 19.3036 17.9949 19.1004ZM21.0837 18.5961C20.5611 18.5961 20.2998 18.9515 20.4187 19.3434C20.5501 19.7599 20.7017 20.1703 20.8531 20.5803L20.8531 20.5805L20.8533 20.581C20.899 20.7046 20.9446 20.8281 20.9897 20.9518C21.1203 21.3072 21.3816 21.434 21.737 21.3438C22.0415 21.2615 22.1787 20.9388 22.0558 20.569L22.0435 20.5326L22.0434 20.5325C21.8698 20.0217 21.6938 19.5042 21.4718 19.0116C21.4022 18.8531 21.2585 18.7384 21.1582 18.6582C21.1286 18.6346 21.1028 18.6139 21.0837 18.5961ZM10.3281 3.97342C10.2374 3.97501 10.1467 3.97661 10.0561 3.97661C9.96545 3.97661 9.87525 3.97501 9.78509 3.97341C9.60493 3.97022 9.42495 3.96703 9.24208 3.97661C8.9677 3.99098 8.76256 4.13079 8.75472 4.41954C8.74688 4.7083 8.95071 4.86771 9.22118 4.87685C9.7781 4.9052 10.3363 4.89822 10.8923 4.85595C11.0543 4.84157 11.2778 4.60377 11.3156 4.4313C11.3797 4.14908 11.1419 3.99098 10.8714 3.97661C10.6911 3.96703 10.5096 3.97022 10.3281 3.97342Z" fill="black"/>
</svg>
