<svg width="24" height="24" viewBox="0 0 24 24" fill="none" xmlns="http://www.w3.org/2000/svg">
<path fill-rule="evenodd" clip-rule="evenodd" d="M1 3.45259V2.46245C1.01605 2.44004 1.02933 2.41577 1.03955 2.39017C1.27276 1.47505 2.06105 0.911792 2.9639 1.01135C3.83265 1.10682 4.50229 1.88692 4.52274 2.8075C4.52407 3.66949 4.71814 4.52027 5.09074 5.29757C5.46335 6.07487 6.00505 6.75901 6.67621 7.29992C7.5563 8.03342 8.63612 8.48616 9.77617 8.59964C9.75412 8.57231 9.73459 8.54734 9.71659 8.52432C9.68337 8.48185 9.65533 8.44599 9.62615 8.41416C9.28688 8.03367 9.05195 7.57179 8.94424 7.07352C8.81261 6.40766 8.80106 5.72363 8.91015 5.05371C9.13518 3.5876 10.3503 2.54428 11.8887 2.44609C13.2525 2.3588 14.5823 3.31075 15.0037 4.65138C15.1306 5.05721 15.1333 5.46995 15.1359 5.88409C15.1366 5.99047 15.1373 6.09694 15.1401 6.20341C15.1591 6.62269 15.0945 7.04158 14.9501 7.43565C14.8056 7.82972 14.5841 8.1911 14.2986 8.49871C14.2837 8.51548 14.2701 8.53416 14.249 8.56301L14.2489 8.56312C14.2392 8.57648 14.2278 8.59201 14.214 8.61055C14.2872 8.59842 14.357 8.5878 14.4243 8.57756L14.4243 8.57756C14.5689 8.55556 14.702 8.53531 14.8332 8.50553C16.1411 8.22151 17.3131 7.50026 18.1561 6.46071C18.999 5.42116 19.4625 4.12538 19.4702 2.78704C19.4704 2.55192 19.517 2.31916 19.6076 2.10216C19.6981 1.88516 19.8306 1.68821 19.9976 1.52265C20.1645 1.3571 20.3626 1.22621 20.5803 1.13752C20.7981 1.04883 21.0312 1.0041 21.2663 1.0059C21.4993 1.00921 21.7293 1.05895 21.9428 1.1522C22.1563 1.24545 22.3491 1.38034 22.5099 1.54898C22.6706 1.71762 22.7962 1.91663 22.8791 2.13436C22.9621 2.3521 23.0008 2.58418 22.9929 2.81705C22.9825 4.72184 22.4515 6.58752 21.4573 8.21231C20.3908 9.98527 18.9628 11.3723 17.0249 12.1756C16.9021 12.226 16.8994 12.3038 16.8994 12.4074V18.486C16.8994 18.519 16.9024 18.5525 16.9063 18.5958C16.9088 18.6241 16.9117 18.6567 16.9144 18.696C17.1074 18.6866 17.3 18.6797 17.4917 18.6729L17.4921 18.6729C17.9126 18.6579 18.3295 18.6431 18.7405 18.6019C19.9785 18.477 21.1936 18.1834 22.3519 17.729C22.7202 17.5927 22.9984 17.7822 22.9984 18.1764V21.5041C23.0071 21.6082 22.9803 21.7122 22.9224 21.7991C22.8644 21.886 22.7787 21.9508 22.6793 21.9828C21.5746 22.4155 20.4214 22.7122 19.2452 22.8665L18.1855 22.9961H16.3798C16.3505 22.9908 16.3215 22.9854 16.2925 22.98L16.2924 22.9799L16.2922 22.9799C16.2388 22.9699 16.1854 22.9599 16.1316 22.9511C15.8989 22.9137 15.666 22.8771 15.433 22.8404C14.8767 22.753 14.32 22.6655 13.7653 22.5665C13.7059 22.5594 13.6487 22.5393 13.5979 22.5076C13.547 22.4759 13.5038 22.4335 13.4711 22.3833C13.4385 22.3331 13.4172 22.2763 13.4089 22.217C13.4006 22.1577 13.4054 22.0973 13.423 22.0401C13.4762 21.8082 13.7108 21.6827 13.9767 21.7359C14.0705 21.7542 14.1642 21.7728 14.258 21.7914L14.2581 21.7914C14.5845 21.8562 14.9112 21.921 15.2396 21.9719C17.3835 22.3005 19.5747 22.1178 21.6346 21.4386C22.1365 21.2781 22.1365 21.275 22.1365 20.7609V20.7567V18.7355L21.8937 18.8133C20.7591 19.1859 19.5836 19.4199 18.3928 19.5102C16.1818 19.6779 13.9615 19.3451 11.8969 18.5364C10.7522 18.0872 9.55529 17.7847 8.33461 17.6363C7.14627 17.4953 5.9446 17.51 4.76005 17.6799C3.82579 17.8105 2.90787 18.039 2.0215 18.3618C1.9574 18.385 1.86739 18.4641 1.86739 18.5173C1.85882 19.1459 1.8595 19.7754 1.86019 20.4103L1.86019 20.4104C1.86038 20.584 1.86057 20.7581 1.86057 20.9326C1.88113 20.9281 1.90058 20.9242 1.91917 20.9205C1.96223 20.9118 2.00072 20.9041 2.03787 20.8917C4.66434 20.0152 7.48452 19.8956 10.1758 20.5467C10.4922 20.6217 10.6395 20.8344 10.5713 21.0922C10.5031 21.35 10.2767 21.4318 9.9671 21.3813C9.77489 21.3495 9.58268 21.3155 9.39039 21.2814L9.39037 21.2814C8.80087 21.1771 8.21061 21.0727 7.61725 21.0295C5.61306 20.8851 3.6018 21.1869 1.72828 21.9132C1.35187 22.0578 1.24003 22.0223 1 21.7059V17.9691C1.10249 17.8558 1.22159 17.7588 1.35323 17.6813C2.97973 17.0434 4.70828 16.7051 6.45527 16.683H7.10309V12.3433C7.09517 12.3092 7.07999 12.2771 7.05858 12.2493C7.03716 12.2216 7.01001 12.1987 6.97898 12.1824C6.88476 12.1334 6.78697 12.0909 6.68922 12.0484C6.57757 11.9999 6.46597 11.9514 6.35981 11.8933C3.46987 10.2949 1.85921 7.78953 1.1773 4.61456C1.12049 4.35135 1.08471 4.08025 1.04898 3.80948C1.03324 3.69022 1.01751 3.57102 1 3.45259ZM12.6947 11.7364C13.6658 12.372 13.6044 13.4166 13.1039 13.9949C12.9742 14.1434 12.816 14.2642 12.6386 14.3503C12.4613 14.4363 12.2684 14.4857 12.0715 14.4957C11.8747 14.5056 11.6778 14.4758 11.4927 14.408C11.3076 14.3403 11.138 14.236 10.9941 14.1013C10.8483 13.9678 10.7323 13.8053 10.6533 13.6242C10.5744 13.443 10.5344 13.2474 10.5358 13.0498C10.5358 12.4674 10.8195 12.0501 11.3009 11.7391C10.8195 11 10.3462 10.2771 9.86482 9.55431C9.81915 9.50307 9.75584 9.47092 9.68752 9.4643C8.47174 9.33871 7.31368 8.88209 6.33935 8.14412L6.17023 8.01865L4.63867 9.55431C5.45526 10.4112 6.45676 11.0703 7.56678 11.4814C7.88728 11.6 7.95547 11.6982 7.95547 12.0337V16.7157L8.07549 16.7348C9.44061 16.8768 10.7823 17.1907 12.0687 17.669C12.7721 17.9256 13.4881 18.1459 14.214 18.3291C14.6158 18.4303 15.0273 18.4941 15.4488 18.5595L15.4489 18.5595C15.6411 18.5894 15.8355 18.6195 16.032 18.6537V12.1456C16.032 11.656 16.062 11.6137 16.5175 11.4432C17.5504 11.0481 18.4862 10.4355 19.2615 9.64705L17.7245 8.10321C17.7117 8.1082 17.6998 8.1151 17.689 8.12366C16.7002 8.88139 15.5193 9.34762 14.2795 9.46975C14.218 9.47759 14.1621 9.50946 14.124 9.5584C13.67 10.2473 13.2172 10.9386 12.7573 11.6409L12.6947 11.7364ZM19.908 8.94059C19.9482 8.88712 19.9907 8.83295 20.0342 8.77771L20.0342 8.77769C20.138 8.64554 20.2466 8.50731 20.3389 8.35824C20.3766 8.29699 20.4145 8.23577 20.4524 8.17451C20.6888 7.79244 20.9261 7.40886 21.1259 7.00806C21.7764 5.70572 22.1229 4.27273 22.1392 2.81705C22.1512 2.59279 22.0791 2.37212 21.9372 2.19812C21.7952 2.02412 21.5934 1.90928 21.3714 1.87601C21.1639 1.84846 20.9535 1.8947 20.7767 2.00664C20.5999 2.11858 20.4682 2.2891 20.4044 2.48837C20.3625 2.62495 20.341 2.76693 20.3403 2.90979C20.3265 4.13851 19.9637 5.338 19.2943 6.36843C19.121 6.63665 18.9236 6.88962 18.729 7.13904C18.6386 7.25486 18.5488 7.36992 18.4623 7.4854L19.908 8.94059ZM5.47196 7.37902C5.46596 7.36675 5.45912 7.3549 5.4515 7.34356C4.3034 6.11093 3.66248 4.49061 3.65672 2.80614C3.6587 2.68389 3.63649 2.56246 3.59137 2.44883C3.54625 2.3352 3.47911 2.23161 3.39381 2.14403C3.3085 2.05644 3.20673 1.98659 3.09433 1.93849C2.98193 1.89038 2.86112 1.86498 2.73887 1.86374C2.21789 1.87874 1.84966 2.30152 1.8633 2.87978C1.89121 4.24099 2.20095 5.58163 2.77296 6.81712C3.10097 7.53943 3.51788 8.21795 4.01404 8.83694L5.47196 7.37902ZM9.72844 6.03566C9.67388 7.08171 10.038 7.89727 10.9559 8.37461C11.8246 8.8233 12.6838 8.72238 13.4448 8.10184C14.0995 7.57404 14.3368 6.85804 14.2631 6.02884L9.72844 6.03566ZM9.78163 5.14099H14.2195C14.1171 4.6271 13.8398 4.16458 13.4347 3.83222C13.0296 3.49986 12.5218 3.31821 11.9978 3.31821C11.4738 3.31821 10.9661 3.49986 10.561 3.83222C10.1559 4.16458 9.87853 4.6271 9.77617 5.14099H9.78163ZM10.8836 9.52021L10.8837 9.52042H13.1119L13.1121 9.52021H10.8836ZM11.9869 13.6335C12.105 13.6353 12.221 13.6022 12.3203 13.5383C12.4196 13.4743 12.4978 13.3824 12.545 13.2742C12.5923 13.1659 12.6064 13.0461 12.5857 12.9298C12.565 12.8135 12.5103 12.706 12.4286 12.6207C12.3469 12.5354 12.2418 12.4762 12.1265 12.4505C12.0112 12.4248 11.8909 12.4337 11.7807 12.4763C11.6705 12.5188 11.5754 12.5929 11.5072 12.6894C11.4391 12.7859 11.401 12.9003 11.3977 13.0184C11.3969 13.1773 11.4579 13.3304 11.5679 13.4452C11.6778 13.5599 11.8281 13.6275 11.9869 13.6335ZM12.3875 21.7364C12.411 21.6852 12.4241 21.6299 12.4261 21.5737C12.4303 21.4601 12.3892 21.3495 12.3118 21.2663C12.2344 21.183 12.1272 21.1339 12.0136 21.1297C11.9 21.1256 11.7894 21.1667 11.7062 21.2441C11.6229 21.3215 11.5738 21.4287 11.5697 21.5423C11.5676 21.5985 11.5766 21.6546 11.5963 21.7074C11.6159 21.7601 11.6457 21.8085 11.684 21.8497C11.7223 21.8909 11.7684 21.9242 11.8195 21.9476C11.8707 21.971 11.926 21.9842 11.9822 21.9862C12.0385 21.9883 12.0946 21.9792 12.1473 21.9596C12.2 21.94 12.2484 21.9102 12.2896 21.8719C12.3308 21.8336 12.3641 21.7875 12.3875 21.7364Z" fill="black"/>
</svg>
