<svg width="24" height="24" viewBox="0 0 24 24" fill="none" xmlns="http://www.w3.org/2000/svg">
<path d="M4.97951 13.4876V14.1376C4.97951 16.7969 4.97951 19.4561 4.97951 22.1153C4.97951 22.9672 4.94569 22.9989 4.07266 22.9989C3.63298 22.9989 3.19224 22.9989 2.75256 22.9989C2.08775 22.9989 2.00002 22.9059 2.00002 22.2242C2.00002 17.7513 2.00002 13.2769 2.00002 8.8012V1.88359C1.99896 1.03488 2.03384 1 2.90581 1C3.36346 1 3.82111 1 4.27982 1C4.88438 1.00528 4.97845 1.09618 4.97951 1.71766C4.97951 4.57066 4.97951 7.42437 4.97951 10.2788V10.9573H10.3212C9.16495 9.39308 8.70096 7.70939 9.18609 5.82806C9.50168 4.55394 10.2486 3.42835 11.2999 2.64247C13.3832 1.05707 16.4039 1.12049 18.4321 2.8232C19.0214 3.30193 19.5072 3.89544 19.8601 4.5677C20.2129 5.23996 20.4254 5.97693 20.4847 6.73385C20.6231 8.28436 20.1676 9.67845 19.1307 11.0049C20.0365 11.0049 20.8218 11.0049 21.6071 11.0049C22.4432 11.0049 22.5034 11.0683 22.5045 11.9107C22.5045 12.2278 22.495 12.5448 22.5045 12.8619C22.5203 13.3132 22.3047 13.5362 21.8703 13.4802C21.4623 13.4284 21.2869 13.6113 21.1463 13.9696C20.2511 16.2399 19.3326 18.5017 18.4311 20.7646C18.3666 20.9263 18.319 21.0954 18.2683 21.2624C18.1235 21.7433 17.8709 22.0393 17.2991 22.0308C15.608 22.0068 13.9169 22.0068 12.2258 22.0308C11.7164 22.0382 11.45 21.812 11.2746 21.3723C10.2881 18.8575 9.29178 16.3456 8.28558 13.8364C8.22745 13.6916 8.03932 13.5056 7.90615 13.5014C6.96654 13.4718 6.0153 13.4876 4.97951 13.4876ZM3.02841 2.00091V21.9927H3.97014V2.00091H3.02841ZM15.2888 7.77598V11.9244C16.3098 11.8726 17.3149 11.4065 17.8994 10.7692C17.3868 9.77041 16.8901 8.80014 16.3637 7.77598H15.2888ZM15.2888 6.69791H16.3658C16.9027 5.65155 17.3932 4.69714 17.911 3.68672C17.187 3.02491 16.2658 2.61906 15.2888 2.53149V6.69791ZM14.2424 6.70319V2.51987C13.176 2.65198 12.2755 3.04833 11.6223 3.69306L13.1475 6.70742L14.2424 6.70319ZM11.617 10.7766C12.2882 11.4562 13.343 11.9287 14.2224 11.9107V7.77598H13.1538L11.617 10.7766ZM14.7614 14.6788C14.4369 15.536 14.1537 16.2695 13.8852 17.004C13.8325 17.1328 13.8225 17.275 13.8567 17.4099C14.1315 18.1762 14.4263 18.934 14.7603 19.8144C15.0986 18.9171 15.3945 18.136 15.683 17.3518C15.7037 17.27 15.6978 17.1837 15.6661 17.1055C15.3797 16.3403 15.0912 15.574 14.7572 14.6788H14.7614ZM17.6859 14.8902C17.3805 15.6966 17.1131 16.3995 16.852 17.1097C16.8189 17.1891 16.8126 17.277 16.834 17.3602C17.1162 18.1265 17.4079 18.8885 17.7483 19.7859C18.0992 18.9192 18.4046 18.1825 18.69 17.4384C18.7147 17.3194 18.6975 17.1954 18.6414 17.0875C18.3433 16.3921 18.0368 15.704 17.6817 14.8923L17.6859 14.8902ZM11.8337 14.8902C11.4606 15.7357 11.1446 16.4565 10.836 17.1763C10.8005 17.2539 10.7937 17.3416 10.8169 17.4236C11.116 18.1783 11.4257 18.9298 11.7682 19.7711C12.0852 18.9414 12.3579 18.2227 12.6137 17.4976C12.6688 17.3527 12.6769 17.194 12.637 17.0442C12.3992 16.3741 12.137 15.7082 11.8284 14.8944L11.8337 14.8902ZM5.0387 11.9942C4.88438 12.4888 5.13805 12.5142 5.46147 12.5131C7.59118 12.5068 9.71984 12.5131 11.8485 12.5131C11.9552 12.5059 12.0612 12.4907 12.1656 12.4677C11.9003 12.2436 11.6202 12.0196 11.3369 12.0153C9.24105 11.9847 7.14938 11.9984 5.03447 11.9984L5.0387 11.9942ZM18.17 13.5077C18.5368 14.3406 18.8834 15.1269 19.2724 16.0116C19.6275 15.1142 19.9393 14.3289 20.2648 13.5077H18.17ZM9.24316 13.5077L10.243 16.0084C10.6394 15.0984 10.9829 14.3237 11.3317 13.5119L9.24316 13.5077ZM9.92594 7.77492C10.2113 8.53908 10.465 9.21552 10.7176 9.88878L10.9364 9.91415L12.0609 7.77492H9.92594ZM12.0662 6.70742C11.6561 5.94115 11.2915 5.26049 10.9279 4.57982L10.6996 4.61682C10.4544 5.28902 10.2081 5.96757 9.93757 6.70742H12.0662ZM18.5558 9.91098H18.7904C19.0409 9.22926 19.2925 8.54648 19.5715 7.78972H17.4629L18.5558 9.91098ZM18.7904 4.58933L18.5568 4.58299L17.465 6.70742H19.5715L18.7904 4.58933ZM17.3107 12.3155L17.3667 12.5174C18.6298 12.5174 19.8917 12.511 21.1548 12.5174C21.5617 12.5174 21.568 12.3239 21.4718 11.9974C20.4688 11.9974 19.4869 11.9678 18.5124 12.0122C18.1024 12.0301 17.7071 12.2035 17.3075 12.3092L17.3107 12.3155ZM15.4019 13.5204C15.6799 14.2666 15.943 14.9705 16.2591 15.8192C16.5761 14.9737 16.8393 14.274 17.1215 13.5204H15.4019ZM14.1082 13.5331H12.3981L13.2553 15.8234L14.1082 13.5331ZM17.1184 20.976L16.2538 18.6824L15.3998 20.976H17.1184ZM13.2542 18.6729C12.9435 19.509 12.6782 20.2203 12.4013 20.9644H14.1061L13.2542 18.6729Z" fill="black"/>
</svg>
