<svg width="24" height="24" viewBox="0 0 24 24" fill="none" xmlns="http://www.w3.org/2000/svg">
<path d="M2.61409 2.0842V4.81109C3.19083 4.93244 3.61077 4.99107 3.8971 4.32571C4.18342 3.66035 4.81197 3.28949 5.54414 3.2854C8.81641 3.2704 12.0887 3.2854 15.361 3.2854C15.4005 3.2854 15.4414 3.32085 15.5191 3.35766C15.545 3.8485 15.5696 4.35979 15.5955 4.86972L15.8504 4.84518C15.8504 4.72383 15.8668 4.60385 15.8709 4.4825C15.8982 3.62353 16.2172 3.29358 17.0789 3.26767C17.6011 3.25267 18.1233 3.26767 18.6455 3.26767C19.9858 3.26767 20.1807 3.45174 20.2421 4.822H21.3601V2.07466C21.7692 1.93831 22.0105 1.95604 21.9887 2.40734C21.9887 2.5205 21.9887 2.63503 21.9887 2.7482C21.9887 8.72192 21.9887 14.6956 21.9887 20.6693C21.9887 21.0157 22.125 21.531 21.4079 21.2734C21.3915 20.9175 21.3751 20.5603 21.3547 20.1417H8.33103V21.2802L7.66703 21.3743V20.1349H4.25841V21.2543C3.68167 21.3402 3.68167 21.3402 3.53715 20.1267H2.63182V21.2665C2.22278 21.4029 1.98418 21.3906 2.006 20.9379C2.006 20.8248 2.006 20.7103 2.006 20.5971C2.006 14.6243 2.00691 8.65283 2.00872 2.68275C2.01009 2.33507 1.86965 1.81696 2.61409 2.0842ZM20.2148 16.1413H21.337V8.84144H8.34875V14.5884H15.4973C15.6187 16.0554 15.6187 16.0554 15.8641 16.1195C15.8491 14.8474 16.1368 14.5625 17.4048 14.5611C17.8374 14.5611 18.2687 14.5611 18.6987 14.5611C19.9517 14.5625 20.2026 14.8174 20.2148 16.1413ZM8.31603 8.07382H21.337V5.58826H8.31603V8.07382ZM8.33512 19.3973H21.3288V16.8844H8.33512V19.3973ZM4.34567 4.83291H14.8306V3.90986C11.7124 3.90986 8.64871 3.90168 5.58504 3.91667C5.02058 3.92213 4.62927 4.25481 4.34567 4.83291ZM2.66454 8.81827V16.1304H3.54669V8.81827H2.66454ZM14.8592 15.2565H8.34875V16.1413H14.8592V15.2565ZM4.25977 6.4445H7.60431V5.57735H4.25977V6.4445ZM4.28977 7.19304V8.09427H7.59886V7.19304H4.28977ZM7.61113 8.84008H4.27341V9.71132H7.61113V8.84008ZM4.27614 10.4244V11.3216H7.58931V10.4244H4.27614ZM4.28568 12.0237V12.9086H7.60431V12.0237H4.28568ZM4.25159 14.5161H7.58931V13.653H4.25159V14.5161ZM4.25159 16.14H7.58931V15.2715H4.24887L4.25159 16.14ZM7.61113 16.8967H4.26386V17.772H7.6084L7.61113 16.8967ZM7.60022 19.4013V18.5178H4.29113V19.4013H7.60022ZM18.0783 16.1809C18.4151 16.1809 18.76 16.2354 19.0873 16.1604C19.2822 16.1154 19.4295 15.87 19.5986 15.7132C19.4336 15.5482 19.2795 15.2537 19.1023 15.2401C18.4062 15.1849 17.7068 15.1849 17.0107 15.2401C16.8321 15.2537 16.674 15.5387 16.5063 15.6982C16.6699 15.8591 16.8117 16.1182 17.0012 16.1591C17.3448 16.2354 17.717 16.1809 18.0783 16.1809ZM18.0265 4.87381C18.3892 4.87381 18.7614 4.92017 19.1173 4.85473C19.2986 4.822 19.5958 4.54795 19.5713 4.4566C19.5154 4.25072 19.2986 3.9494 19.1323 3.93713C18.4061 3.88293 17.6769 3.88293 16.9507 3.93713C16.7926 3.94803 16.5117 4.26708 16.5417 4.39115C16.5789 4.49991 16.6409 4.59852 16.7228 4.6792C16.8047 4.75989 16.9042 4.82045 17.0135 4.85609C17.3325 4.92971 17.6856 4.87381 18.0265 4.87381V4.87381ZM2.65227 5.55554V8.09155H3.54805V5.56099L2.65227 5.55554ZM3.54396 19.3945V16.8994H2.65772V19.3945H3.54396Z" fill="black"/>
</svg>
