<svg width="16" height="16" viewBox="0 0 16 16" fill="none" xmlns="http://www.w3.org/2000/svg">
<path d="M14.7269 13.4091L9.31814 8.00028L14.7269 2.59088C14.9032 2.41456 15.0002 2.18012 15.0001 1.93073C14.9999 1.68209 14.9031 1.44869 14.7274 1.27354C14.5515 1.09716 14.3178 1.00015 14.0691 1C13.8194 1 13.5852 1.09699 13.4091 1.27308L8.00043 6.68174L2.59088 1.27308C2.41479 1.09699 2.18079 1 1.93198 1C1.68319 1 1.44919 1.09697 1.27312 1.27304C1.09709 1.44859 1.00017 1.68209 1 1.93073C0.999834 2.18012 1.09682 2.41456 1.27312 2.59086L6.68263 8.00026L1.2731 13.4092C1.09699 13.5853 1 13.8192 1 14.068C1 14.3168 1.09701 14.5508 1.27312 14.727C1.44919 14.9031 1.68317 15 1.93196 15C2.18077 15 2.41479 14.903 2.59086 14.727L8.00034 9.31816L13.4092 14.727C13.5853 14.9031 13.8195 15 14.0686 15C14.3179 14.9998 14.5513 14.903 14.7265 14.7274C15.0901 14.3638 15.0902 13.7725 14.7269 13.4091Z" fill="white"/>
</svg>
