<svg width="24" height="24" viewBox="0 0 24 24" fill="none" xmlns="http://www.w3.org/2000/svg">
<path d="M9.75576 13.2783C9.47491 13.1406 9.20982 13.012 8.94776 12.8804C8.50919 12.6602 8.38605 12.3011 8.60018 11.8643C8.7397 11.5798 8.88286 11.2965 9.0248 11.0151C9.03061 10.9952 9.03467 10.9749 9.03694 10.9544L6.80766 9.85099C6.42853 9.66355 6.04697 9.48096 5.66966 9.28988C5.01756 8.95928 4.801 8.32295 5.12129 7.67145C5.76834 6.35552 6.41922 5.0412 7.07396 3.7285C7.41911 3.03333 8.04453 2.81859 8.73909 3.15829C12.1745 4.84951 15.6091 6.54235 19.0429 8.23681C20.2622 8.83816 21.4813 9.44011 22.7002 10.0427C22.8023 10.0878 22.8904 10.1594 22.9555 10.2501C23.0659 10.4321 22.9634 10.6293 22.7293 10.7033C22.3119 10.8349 21.8928 10.9611 21.4718 11.0788C21.4032 11.0959 21.3396 11.1289 21.2862 11.1752C21.2328 11.2214 21.191 11.2796 21.1642 11.3451C20.8094 12.0797 20.446 12.81 20.0826 13.5404C19.7793 14.1543 19.2401 14.3356 18.6268 14.0335L17.7424 13.5944C17.6441 13.7909 17.5549 13.9735 17.4615 14.153C17.2188 14.6262 16.7797 14.7754 16.2998 14.5407C15.1469 13.9745 13.9943 13.4063 12.8422 12.8361C12.7682 12.7997 12.693 12.7645 12.5995 12.7208C12.4442 13.0296 12.2962 13.3323 12.1391 13.6308C11.9165 14.0645 11.5792 14.1767 11.1413 13.9644C10.8768 13.8358 10.6135 13.7042 10.3339 13.5658C10.2926 13.6429 10.2526 13.7126 10.2168 13.7848C9.62777 14.9762 9.03269 16.1652 8.45277 17.3638C8.08881 18.113 7.5004 18.4672 6.67845 18.4648C5.84558 18.4648 5.01331 18.4648 4.18044 18.4648H3.91717C3.91717 18.975 3.91717 19.4578 3.91717 19.9401C3.92376 20.1909 3.86842 20.4394 3.75606 20.6637C3.64369 20.888 3.47776 21.0812 3.27296 21.2261C3.02498 21.4168 2.7214 21.5212 2.40854 21.5233C2.06035 21.5233 1.71216 21.5294 1.36396 21.5233C1.09948 21.5203 1 21.4172 1 21.146C1 19.1478 1 17.1497 1 15.1515C1 14.8785 1.11344 14.7597 1.38398 14.7621C1.79951 14.7657 2.21989 14.7475 2.62874 14.8033C2.98034 14.8549 3.30226 15.0295 3.53727 15.2961C3.77229 15.5626 3.90518 15.9039 3.91232 16.2592C3.92748 16.7645 3.91232 17.2704 3.91232 17.7975C4.00756 17.8042 4.07974 17.8145 4.15496 17.8145C5.01028 17.8145 5.8662 17.8085 6.72152 17.8176C7.27535 17.8236 7.64902 17.5792 7.88984 17.0842C8.47886 15.8758 9.08 14.6729 9.67509 13.4682C9.69935 13.4166 9.72058 13.3602 9.75576 13.2783ZM21.7999 10.3059C21.6859 10.2453 21.618 10.204 21.5464 10.1689C18.1684 8.50109 14.7896 6.83413 11.41 5.16798C10.4212 4.68027 9.43224 4.19337 8.44307 3.70727C8.12581 3.55198 7.8589 3.60415 7.71514 3.87591C7.40698 4.46189 7.11945 5.05879 6.81979 5.65751C6.8665 5.68542 6.89683 5.70665 6.92958 5.72303C10.6905 7.58127 14.4541 9.43789 18.2204 11.2929C18.3078 11.329 18.4048 11.3346 18.4958 11.3087C19.2558 11.0854 20.0123 10.8537 20.7711 10.6232C21.0993 10.5225 21.4269 10.4212 21.803 10.3066L21.7999 10.3059ZM6.53408 6.23986C6.25018 6.81128 5.97357 7.36329 5.7012 7.91713C5.52529 8.27684 5.61689 8.54011 5.97842 8.71906C9.48906 10.458 12.9999 12.1969 16.5109 13.9359C16.7493 14.0572 16.8142 14.0311 16.9356 13.7848C17.2275 13.196 17.5181 12.6068 17.8073 12.0172C17.8327 11.9656 17.8485 11.9104 17.874 11.8413L6.53408 6.23986ZM1.64846 15.4275V20.89C1.89717 20.89 2.13011 20.8937 2.36365 20.89C2.60477 20.8912 2.83647 20.7965 3.00788 20.6269C3.17928 20.4574 3.27636 20.2267 3.27781 19.9856C3.28428 18.7602 3.28428 17.5349 3.27781 16.3095C3.28049 16.099 3.20692 15.8946 3.07067 15.734C2.93443 15.5735 2.74471 15.4676 2.53654 15.436C2.249 15.3972 1.95298 15.4275 1.64846 15.4275ZM12.0366 12.4436L9.63626 11.2541C9.46399 11.5974 9.30202 11.9183 9.13035 12.2598L11.5386 13.4488L12.0366 12.4436ZM18.0287 13.0181C18.3417 13.1752 18.6298 13.3214 18.9204 13.4658C19.2109 13.6101 19.3638 13.5531 19.5076 13.2674C19.7502 12.7888 19.9844 12.309 20.2222 11.8285C20.2828 11.7072 20.3435 11.5798 20.4126 11.4336C20.372 11.4328 20.3315 11.4354 20.2913 11.4415C19.7454 11.6071 19.1952 11.7703 18.6492 11.9438C18.5818 11.9712 18.5264 12.022 18.4933 12.0869C18.3332 12.3872 18.1864 12.6929 18.0262 13.0181H18.0287Z" fill="black"/>
</svg>
