<svg width="24" height="24" viewBox="0 0 24 24" fill="none" xmlns="http://www.w3.org/2000/svg">
<path fill-rule="evenodd" clip-rule="evenodd" d="M0 12C0 18.6168 5.3832 24 12 24C18.6168 24 24 18.6168 24 12C24 5.3832 18.6168 0 12 0C5.3832 0 0 5.3832 0 12ZM1.6 12C1.6 6.26533 6.26533 1.6 12 1.6C17.7347 1.6 22.4 6.26533 22.4 12C22.4 17.7347 17.7347 22.4 12 22.4C6.26533 22.4 1.6 17.7347 1.6 12ZM17.9147 17.4968L16.5024 18.2091C15.8424 18.5421 15.0645 18.5605 14.3947 18.248C10.4656 16.4155 7.58453 13.5344 5.75199 9.60533C5.43973 8.93546 5.45813 8.15759 5.79093 7.49759L6.50319 6.08533C6.84186 5.41359 7.76906 5.33306 8.21866 5.93626L9.80772 8.068C10.0472 8.3896 10.0747 8.82213 9.87733 9.17119L9.52746 9.79039C9.35946 10.0875 9.34853 10.4512 9.50879 10.7523C10.3749 12.3789 11.6211 13.6253 13.2477 14.4912C13.5488 14.6515 13.9125 14.6405 14.2096 14.4725L14.8288 14.1227C15.1779 13.9253 15.6104 13.9525 15.932 14.1923L18.0637 15.7813C18.6669 16.2309 18.5864 17.1579 17.9147 17.4968Z" fill="white"/>
</svg>
