<svg width="24" height="24" viewBox="0 0 24 24" fill="none" xmlns="http://www.w3.org/2000/svg">
<path fill-rule="evenodd" clip-rule="evenodd" d="M2.04713 19.9226C1.88857 19.4123 2.15789 19.4139 2.44233 19.4155L2.49039 19.4156H10.8682C11.2079 19.4156 11.3864 19.4156 11.4959 19.3287C11.6172 19.2323 11.6537 19.0292 11.7307 18.601H4.05986V18.1034H4.56128H11.4339C11.7608 18.1034 12.0065 18.0611 11.9293 17.5624H3.52333C3.38966 17.5763 3.25481 17.5721 3.12219 17.55C3.0621 17.5366 3.01246 17.4791 2.96195 17.4205C2.9425 17.398 2.92292 17.3753 2.90256 17.3549C2.92767 17.3287 2.95238 17.2959 2.97704 17.2631C3.03017 17.1926 3.08307 17.1223 3.13924 17.1195C3.49724 17.1026 3.85635 17.1046 4.23692 17.1067C4.367 17.1074 4.49959 17.1081 4.6355 17.1081C4.63938 17.0217 4.644 16.9411 4.64841 16.8643L4.64841 16.8643C4.65654 16.7228 4.66393 16.5941 4.66458 16.4649V5.05541C4.66458 4.13241 4.87518 3.91972 5.75067 3.88875L5.35655 3.7535C5.33248 3.44377 5.73462 2.99362 6.07359 2.98227C6.52487 2.96885 6.97616 2.96885 7.42845 2.98743C7.48055 2.98743 7.53266 3.02812 7.58476 3.06881C7.63294 3.10644 7.68112 3.14407 7.7293 3.14952C7.9986 3.18186 8.27029 3.18739 8.54061 3.16604C8.59828 3.1614 8.65268 3.11907 8.70709 3.07674C8.76149 3.0344 8.8159 2.99207 8.87356 2.98743C9.00638 2.97751 9.14192 2.9838 9.27737 2.99008C9.48044 2.99949 9.6833 3.0089 9.87642 2.96368C10.2386 2.87594 10.469 3.08645 10.6728 3.27268C10.7089 3.3056 10.744 3.33775 10.779 3.36737C10.9966 3.55011 10.8913 3.83403 10.5303 3.83403C10.6181 3.87793 10.7138 3.91467 10.808 3.95084C11.0129 4.02952 11.211 4.10556 11.3065 4.24701C11.4553 4.47735 11.4561 4.83453 11.4568 5.13638L11.4569 5.17621C11.4649 8.92741 11.4666 12.6786 11.4619 16.4298V16.9873C12.0396 17.1938 12.1108 17.1515 12.2532 16.5589C12.881 13.9434 13.5114 11.3309 14.1446 8.72161C14.1817 8.57088 14.2609 8.34993 14.3692 8.30863C15.2718 7.9989 15.5867 7.2256 15.7993 6.39862C16.0941 5.25514 16.3692 4.10687 16.6443 2.9584L16.6445 2.95771C16.7521 2.50846 16.8598 2.05919 16.9686 1.61015C17.0869 1.12181 17.47 0.906026 17.9865 1.03818C18.5631 1.18479 18.8048 1.52756 18.6835 2.04171C18.5401 2.64866 18.3952 3.25522 18.2502 3.8618L18.2502 3.86189C17.9814 4.98668 17.7126 6.11155 17.454 7.23903C17.2534 8.10215 17.4199 8.5812 18.0677 9.18931C17.3796 12.0836 16.6832 14.9784 15.9789 17.9062L15.9788 17.9064L15.978 17.91C15.7361 18.9152 15.4934 19.9243 15.2497 20.9385H15.8314C16.2596 20.9385 16.6879 20.9381 17.1161 20.9376H17.1163C18.5611 20.9362 20.0054 20.9347 21.4474 20.9499C21.493 20.9499 21.5485 20.9379 21.6067 20.9253C21.7963 20.8843 22.014 20.8372 22.011 21.1801C22.011 21.2555 21.6279 21.3866 21.4213 21.3928C19.4978 21.4093 17.5753 21.4176 15.6519 21.3928C15.1926 21.3866 15.002 21.5383 15.0311 22.0793H15.5415C15.7719 22.0793 16.0022 22.079 16.2325 22.0786C17.0221 22.0773 17.8117 22.0761 18.6013 22.0897C18.6813 22.0897 18.7605 22.158 18.8397 22.2263L18.8397 22.2263C18.8765 22.2581 18.9133 22.2898 18.9503 22.3147C18.9117 22.3392 18.8733 22.3704 18.8349 22.4017L18.8349 22.4017C18.7533 22.468 18.6717 22.5343 18.5892 22.5357C18.0954 22.546 17.601 22.5455 17.1068 22.5449H17.1067C16.6646 22.5444 16.2226 22.5439 15.7812 22.5512C15.3891 22.5574 15.0431 22.578 14.64 22.8248C14.3166 23.0225 13.8653 23.007 13.4234 22.9919C13.2745 22.9867 13.1267 22.9817 12.9853 22.9848C12.8426 22.9848 12.6971 22.9269 12.5543 22.8701L12.5542 22.8701C12.5063 22.851 12.4587 22.8321 12.4116 22.8155C11.0788 22.3137 10.9384 22.0494 11.2614 20.6628C11.2977 20.5076 11.3332 20.3519 11.3713 20.1842L11.3714 20.1839L11.4298 19.9277L2.04713 19.9226ZM16.9516 7.2349C16.3498 6.8023 16.1072 7.0759 15.8324 7.58386C15.6836 7.85991 15.4438 8.0843 15.2032 8.30944C15.0839 8.42111 14.9643 8.53297 14.8556 8.65141C14.84 8.66825 14.824 8.6853 14.8077 8.70256C14.7032 8.81336 14.5903 8.93308 14.5547 9.06438C13.5519 13.1535 12.5637 17.2465 11.5903 21.3432C11.5768 21.4439 11.5864 21.5464 11.6185 21.6426C11.6505 21.7387 11.7041 21.8257 11.7748 21.8966C12.4407 22.4015 13.1888 22.6379 14.0333 22.5161C14.3171 22.4758 14.4163 22.3581 14.4825 22.0804C15.4653 17.9685 16.4541 13.8577 17.449 9.74786C17.4841 9.60538 17.5202 9.39167 17.449 9.30494C16.9305 8.68651 16.8422 7.9638 16.9516 7.2349ZM7.57988 4.15409H6.02445V17.0699H7.57988V4.15409ZM8.90866 17.0792C8.97927 17.0843 9.03509 17.0889 9.08137 17.0927C9.16655 17.0997 9.21941 17.104 9.2727 17.104C9.37034 17.1034 9.45654 17.1039 9.53262 17.1043C9.83056 17.106 9.97329 17.1068 10.0401 17.036C10.1016 16.9708 10.0989 16.8451 10.0937 16.6038C10.0919 16.5187 10.0898 16.4192 10.09 16.3028V5.56544C10.09 5.24185 10.108 4.91826 10.1261 4.59299C10.1344 4.44503 10.1426 4.29671 10.1492 4.14789H8.90866V17.0792ZM5.56715 10.8092V5.08845C5.57234 4.93384 5.56428 4.77907 5.54308 4.62591C5.53104 4.55674 5.44279 4.44524 5.39867 4.45143C5.35289 4.45846 5.30909 4.47545 5.27018 4.50126C5.23127 4.52707 5.19815 4.56112 5.17303 4.60114C5.13951 4.71544 5.12827 4.83544 5.13993 4.95423C5.13993 8.8548 5.14261 12.755 5.14795 16.6549C5.14795 16.7556 5.20586 16.8559 5.26367 16.956C5.29058 17.0026 5.31747 17.0492 5.3385 17.0957C5.36249 17.0473 5.39293 16.9987 5.42343 16.95C5.48982 16.844 5.55643 16.7376 5.55712 16.6322C5.56915 15.0803 5.56835 13.5277 5.56755 11.9745V11.9744L5.56755 11.9732C5.56735 11.5852 5.56715 11.1972 5.56715 10.8092ZM10.9956 10.7762V5.106C11.0077 4.96821 11.0023 4.82938 10.9796 4.69302C10.9618 4.62828 10.9105 4.57313 10.8589 4.51776L10.8589 4.51776C10.8349 4.4919 10.8108 4.46599 10.79 4.43904C10.767 4.46404 10.7403 4.48782 10.7137 4.51155C10.6556 4.5633 10.5977 4.61487 10.5784 4.67857C10.5536 4.81469 10.5481 4.95382 10.5624 5.09155V16.5341C10.5465 16.653 10.5506 16.7738 10.5744 16.8913C10.5966 16.9381 10.6282 16.9795 10.6671 17.0127C10.706 17.046 10.7513 17.0704 10.8 17.0844C10.8462 17.0957 10.9625 16.9811 10.9806 16.9078C11.002 16.7713 11.007 16.6326 10.9956 16.4949C10.9963 14.589 10.9963 12.6827 10.9956 10.7762ZM8.44935 10.8309V8.40775C8.44935 7.20599 8.44935 6.00319 8.43932 4.8004C8.43932 4.7187 8.38147 4.63797 8.32336 4.55689C8.29627 4.51911 8.26914 4.48124 8.24778 4.44317C8.22791 4.47486 8.20757 4.50632 8.18724 4.53775C8.13473 4.61896 8.08229 4.70006 8.03818 4.78491C8.02408 4.81188 8.02887 4.84903 8.03357 4.88551C8.03589 4.90351 8.03818 4.92134 8.03818 4.93771C8.03818 8.83828 8.04119 12.7382 8.04721 16.6373C8.04721 16.7431 8.1141 16.8499 8.18034 16.9557L8.18034 16.9557C8.21041 17.0037 8.24034 17.0515 8.26383 17.0988C8.28404 17.0513 8.30979 17.0038 8.3355 16.9565C8.39017 16.8557 8.44466 16.7553 8.44534 16.6549C8.45136 15.1985 8.45061 13.7426 8.44985 12.2869V12.2866V12.2866C8.4496 11.8013 8.44935 11.3161 8.44935 10.8309ZM17.2043 6.14464L16.4281 5.94847L16.2947 6.47295L17.0719 6.67944L17.2043 6.14464ZM18.2026 1.98173V1.98169C18.2076 1.84594 18.2118 1.73161 18.163 1.69791C17.9998 1.58921 17.8062 1.53912 17.6124 1.55543C17.5499 1.56228 17.4957 1.65822 17.4318 1.77146C17.3994 1.8289 17.3644 1.89078 17.3246 1.94776L18.2011 2.19451C18.1974 2.12317 18.2001 2.04976 18.2026 1.98173ZM17.2484 5.73889C17.5493 5.18963 17.2314 5.13491 16.9546 5.10187C16.8742 5.09197 16.7872 5.13973 16.7004 5.18739C16.6605 5.2093 16.6207 5.23119 16.5815 5.24744L17.2484 5.73889ZM17.7649 3.88049C17.7779 3.78448 17.7889 3.70498 17.7987 3.63452L17.7988 3.63414C17.8085 3.56383 17.817 3.50251 17.825 3.44274C17.3986 3.31431 17.2189 3.26019 17.1266 3.32695C17.0594 3.37558 17.0386 3.48836 17.0027 3.6833L17.7649 3.88049ZM17.474 4.79007C17.7341 4.34411 17.4657 4.29766 17.2567 4.2615L17.2567 4.2615C17.2368 4.25806 17.2175 4.25472 17.1993 4.25114C17.1135 4.23405 17.0168 4.27488 16.92 4.31576C16.8764 4.33417 16.8328 4.35259 16.7901 4.36574L17.474 4.79007ZM20.1457 17.3457C19.8616 17.3528 19.579 17.3009 19.3147 17.1932C19.0505 17.0855 18.81 16.9242 18.6076 16.7188C18.4052 16.5134 18.245 16.2682 18.1366 15.9977C18.0282 15.7273 17.9737 15.4371 17.9765 15.1446C17.9735 14.8515 18.0269 14.5607 18.1337 14.289C18.2406 14.0173 18.3987 13.7701 18.5989 13.5618C18.7992 13.3534 19.0376 13.188 19.3003 13.0751C19.5631 12.9623 19.8449 12.9041 20.1296 12.9042C20.7045 12.9144 21.2526 13.1559 21.6567 13.5769C22.0608 13.9979 22.2887 14.5651 22.2918 15.1569C22.2855 15.739 22.0567 16.2951 21.655 16.7047C21.2533 17.1144 20.7111 17.3447 20.1457 17.3457ZM20.1527 16.6901C20.3312 17.0556 20.6993 16.812 21.0222 16.5972C21.6239 16.1976 21.8947 15.604 21.7864 14.8772C21.6861 14.1792 21.2849 13.7074 20.6832 13.5081L20.252 13.9593L20.1136 13.8437C20.1308 13.7867 20.1478 13.7298 20.1654 13.6707C20.19 13.5885 20.2158 13.5021 20.245 13.4059C20.1329 13.4326 20.0208 13.4518 19.9113 13.4704C19.678 13.5102 19.4568 13.548 19.2732 13.6527C18.6875 13.9851 18.4117 14.5385 18.4479 15.2364C18.4529 15.5477 18.5454 15.8508 18.7143 16.109C18.8833 16.3672 19.1213 16.5694 19.3996 16.6912C19.5122 16.7431 19.6527 16.7294 19.8319 16.7119L19.8319 16.7119C19.927 16.7026 20.0331 16.6923 20.1517 16.6901H20.1527ZM12.9472 20.8351L13.4025 20.9693C14.3652 16.9613 15.3119 13.0246 16.2707 9.04148L15.8033 8.96198C15.1687 11.614 14.5336 14.2494 13.8978 16.8879C13.5812 18.202 13.2643 19.517 12.9472 20.8351Z" fill="black"/>
</svg>
