<svg width="24" height="24" viewBox="0 0 24 24" fill="none" xmlns="http://www.w3.org/2000/svg">
<path fill-rule="evenodd" clip-rule="evenodd" d="M16.6114 13.555V8.91973L16.6249 8.91765C16.6249 8.39073 16.6234 7.86393 16.6219 7.3372C16.6189 6.28398 16.6159 5.23106 16.6249 4.17815C16.6291 3.73327 16.4676 3.5499 16.0133 3.56031C15.3287 3.57526 14.6434 3.57252 13.9584 3.56977C13.6887 3.56869 13.4189 3.56761 13.1492 3.56761C12.7151 3.56761 12.281 3.56877 11.8469 3.56992C10.9786 3.57224 10.1104 3.57455 9.24217 3.56761C8.591 3.5624 8.14299 3.09043 8.27844 2.56324C8.40555 2.07043 8.75562 1.89748 9.25572 1.89748C10.9099 1.90595 12.5658 1.90474 14.2213 1.90354C14.8055 1.90311 15.3897 1.90269 15.9737 1.90269C16.2863 1.90269 16.5989 1.87143 16.5989 1.45572C16.5989 1.04001 16.2863 1.00771 15.9737 1.00771C15.7281 1.00704 15.4824 1.00631 15.2367 1.00559C13.2076 0.999613 11.1775 0.993632 9.15153 1.01501C8.05756 1.02647 7.38346 1.75474 7.38451 2.8435C7.38451 6.02123 7.38833 9.19826 7.39597 12.3746C7.39909 13.6051 8.06902 14.2927 9.28281 14.2927H15.8966C16.5072 14.2917 16.6114 14.1802 16.6114 13.555ZM15.707 4.37298V13.3894V13.3904C15.4909 13.3904 15.2753 13.3905 15.06 13.3905C13.7711 13.3906 12.4952 13.3907 11.2186 13.3863C10.9818 13.3863 10.7449 13.3874 10.508 13.3886C10.0338 13.3909 9.55933 13.3932 9.08485 13.3863C8.58892 13.379 8.26593 13.0893 8.26593 12.6205C8.24962 10.5529 8.25184 8.48529 8.25403 6.44792C8.25477 5.75235 8.25552 5.0603 8.25552 4.37298H15.707ZM2.59499 22.1412H11.9719C15.1316 22.1425 18.2898 22.1377 21.4467 22.1266C22.4897 22.1255 22.8606 21.6692 22.971 20.6586C23.1075 19.4062 22.773 18.4342 21.7364 17.7048C21.7142 17.6921 21.6962 17.672 21.6777 17.6514C21.6615 17.6333 21.6449 17.6148 21.6249 17.6007C20.6997 16.9516 20.4851 16.0712 20.5153 14.9585C20.5743 12.7985 20.5621 10.6374 20.5499 8.47647C20.5458 7.73859 20.5416 7.00073 20.5403 6.26294C20.5382 5.44298 20.0308 4.93142 19.2223 4.91683C19.1302 4.91506 19.0378 4.91217 18.9453 4.90927C18.602 4.89852 18.258 4.88775 17.9231 4.93454C17.7975 4.95239 17.6885 5.06852 17.5794 5.18478C17.5292 5.23822 17.479 5.2917 17.4272 5.33566C17.4779 5.3802 17.5269 5.43337 17.5758 5.48648C17.6837 5.60358 17.7914 5.72043 17.9169 5.74408C18.2388 5.80408 18.579 5.78486 18.9128 5.76599C18.9441 5.76422 18.9754 5.76245 19.0067 5.76075C19.5015 5.73366 19.6891 5.95975 19.6891 6.44214C19.6773 9.56777 19.6773 12.6934 19.6891 15.819C19.6901 16.1702 19.5651 16.2598 19.2348 16.2598C18.4399 16.2484 17.6439 16.2502 16.8484 16.2521C16.5501 16.2528 16.252 16.2535 15.954 16.2535H4.86212C4.8247 16.2534 4.78649 16.2551 4.74848 16.2568C4.52088 16.2673 4.30055 16.2774 4.30055 15.8774C4.3068 12.7038 4.3068 9.52401 4.3068 6.34837C4.3068 5.93162 4.5183 5.75554 4.92672 5.767C4.99946 5.76917 5.07242 5.77216 5.14543 5.77515C5.45831 5.78797 5.77205 5.80082 6.07278 5.74929C6.19894 5.72779 6.30833 5.61208 6.41792 5.49618C6.46762 5.44361 6.51736 5.39101 6.56872 5.34712C6.51799 5.3029 6.46878 5.24974 6.41957 5.19658C6.31113 5.07943 6.20269 4.96229 6.07799 4.94079C5.81067 4.89475 5.53595 4.90375 5.26211 4.91273C5.15172 4.91634 5.04148 4.91995 4.93193 4.91995C3.90463 4.92516 3.45038 5.38255 3.45038 6.41713C3.45008 7.20997 3.44462 8.00273 3.43915 8.79531C3.42546 10.7826 3.41177 12.7687 3.47955 14.7522C3.52539 16.0118 3.28993 17.0172 2.2293 17.7538C1.22388 18.4519 0.901942 19.3969 1.02488 20.6138C1.13637 21.7036 1.48227 22.1412 2.59499 22.1412ZM1.90215 20.3575V19.6021L22.0448 19.6042C22.059 19.6307 22.0705 19.6587 22.0792 19.6875C22.1192 20.6364 22.1403 21.0351 21.9547 21.1974C21.7733 21.3561 21.3943 21.2889 20.6424 21.2889H2.83984C1.93028 21.2889 1.90215 21.2608 1.90215 20.3575ZM2.68981 18.6509L2.56686 18.5165C2.68493 18.4089 2.80244 18.3006 2.91996 18.1924C3.25872 17.8804 3.59747 17.5685 3.94944 17.2714C4.08876 17.1763 4.25493 17.1285 4.42349 17.1349C9.47521 17.1245 14.5266 17.1245 19.5776 17.1349C19.7784 17.1431 19.971 17.2163 20.1267 17.3433C20.4459 17.614 20.7502 17.9035 21.0544 18.1929C21.1751 18.3077 21.2959 18.4226 21.4176 18.5363L21.3394 18.6509H2.68981Z" fill="black"/>
</svg>
