<svg width="24" height="24" viewBox="0 0 24 24" fill="none" xmlns="http://www.w3.org/2000/svg">
<path fill-rule="evenodd" clip-rule="evenodd" d="M15.7763 8.06204H15.1196L15.1207 7.39652C15.118 6.75034 15.1194 6.10453 15.1207 5.459V5.45884V5.45867V5.4585V5.45833V5.45826V5.45819V5.45811V5.45804C15.1226 4.51909 15.1246 3.58076 15.1141 2.64282C15.103 1.62796 14.5171 1.05089 13.5 1.00777C13.2843 0.998074 13.0685 0.9996 12.8532 1.00112C12.7739 1.00168 12.6948 1.00224 12.6156 1.00224H2.83739C1.67328 1.00888 1.02545 1.555 1.01661 2.60855C0.997817 5.03515 0.985656 7.46728 1.03319 9.8994C1.06415 11.4339 1.80263 12.64 3.04522 13.5177C3.8462 14.1044 4.6764 14.6502 5.53263 15.1528C6.1115 15.467 6.73142 15.6988 7.37441 15.8415C7.68044 15.9131 8.00806 15.8963 8.35797 15.8784H8.35797C8.52125 15.87 8.68938 15.8614 8.86243 15.8614V16.6088C8.86685 18.3864 9.62302 19.7539 11.1011 20.7389C11.3026 20.8725 11.5037 21.0067 11.7047 21.1408C12.2073 21.4761 12.7096 21.8113 13.2181 22.1374C15.0091 23.2838 16.8088 23.2883 18.602 22.1463C18.9924 21.8969 19.3774 21.6407 19.7628 21.3843L19.763 21.3842L19.7632 21.3841L19.7633 21.3839L19.7635 21.3838C20.0512 21.1924 20.339 21.0008 20.6295 20.8119C22.2137 19.7926 22.9909 18.351 22.9787 16.4639C22.9713 15.0131 22.9738 13.5638 22.9763 12.1153V12.1151V12.1149V12.1147V12.1136C22.9775 11.3893 22.9787 10.6653 22.9787 9.94141C22.9754 8.63027 22.4094 8.06204 21.0828 8.06204H15.7763ZM2.7589 1.79932H8.06535C8.58999 1.79932 9.11462 1.79902 9.63922 1.79872L9.63945 1.79872C10.8636 1.79802 12.0876 1.79733 13.311 1.80042C14.1081 1.80153 14.3292 2.02263 14.3292 2.81639V9.56001C14.3325 11.0425 13.6924 12.1757 12.4763 12.9937C12.3436 13.0827 12.2109 13.1719 12.0782 13.2612L12.077 13.262C11.4629 13.675 10.8476 14.0889 10.2189 14.4795C8.79057 15.3639 7.33793 15.3639 5.90739 14.4795C5.09484 13.9743 4.30109 13.4404 3.51617 12.8942C2.4383 12.1436 1.81921 11.1099 1.80484 9.78332C1.78266 7.63024 1.78898 5.48083 1.7953 3.33175V3.33172L1.7971 2.70805C1.79821 2.04364 2.06464 1.79932 2.7589 1.79932ZM15.1093 9.25342V9.25334V9.25325V9.25315V9.25305C15.1079 9.13146 15.1064 9.00288 15.1064 8.86354L18.6772 8.87901C18.972 8.87901 19.2668 8.8773 19.5616 8.87558C20.1512 8.87214 20.7408 8.8687 21.3304 8.87901C21.9163 8.88896 22.1805 9.14323 22.1805 9.72694L22.1824 10.2793C22.1897 12.4886 22.1971 14.6979 22.1706 16.9072C22.1518 18.1896 21.5426 19.2012 20.5123 19.9363C19.6898 20.5234 18.8485 21.0883 17.9829 21.609C16.622 22.4226 15.2202 22.4282 13.8582 21.609C12.9771 21.0783 12.1193 20.5046 11.2813 19.9065C9.89387 18.9115 9.52463 17.4744 9.66392 15.8625C9.67387 15.7431 9.82312 15.6005 9.94251 15.522C10.3216 15.276 10.7062 15.0377 11.0907 14.7994C11.8467 14.3309 12.6024 13.8626 13.3154 13.3364C14.4431 12.4985 15.0433 11.3067 15.1064 9.8795C15.1142 9.67875 15.1119 9.478 15.1093 9.25342ZM4.7665 11.6428C5.62106 12.6676 6.74095 13.143 8.06756 13.1783C9.38975 13.1463 10.5207 12.6687 11.3797 11.6151C11.5643 11.394 11.7235 11.1022 11.4007 10.9264C11.2691 10.8534 10.9165 10.9883 10.7838 11.1353C9.26925 12.8257 6.85482 12.8411 5.3668 11.1442L5.35103 11.1258C5.16583 10.91 4.97408 10.6866 4.69243 10.9231C4.40279 11.1663 4.5852 11.4217 4.7665 11.6428ZM10.7982 4.91355C11.7191 4.96883 12.4774 5.30601 12.9926 6.09424C13.1485 6.33414 13.3055 6.63152 12.9661 6.79182C12.8301 6.85594 12.4896 6.70559 12.3735 6.55303C11.5123 5.4243 10.1006 5.4243 9.25487 6.54087C9.13769 6.69564 8.80493 6.85483 8.66674 6.79514C8.31629 6.64479 8.46775 6.35293 8.62583 6.1053C9.13548 5.31375 9.89386 4.9821 10.7982 4.91355ZM7.54464 6.19484C7.06706 5.32923 6.27109 4.97215 5.31151 4.91355C4.37182 4.9821 3.60349 5.33254 3.10049 6.15394C2.95456 6.38941 2.85838 6.67463 3.17566 6.80066C3.31274 6.85704 3.64771 6.72659 3.72842 6.58619C4.39393 5.4243 6.24788 5.4243 6.91782 6.60278C6.96974 6.69458 7.12564 6.72748 7.28162 6.7604C7.35479 6.77584 7.42799 6.79129 7.49047 6.81282C7.4978 6.74691 7.51414 6.67604 7.53049 6.60518C7.56595 6.45144 7.6014 6.29776 7.54464 6.19484ZM16.1964 16.3103C17.2422 16.3379 18.3333 16.8122 19.1813 17.8082C19.3836 18.0448 19.587 18.3146 19.2775 18.5655C19.0082 18.7828 18.8113 18.568 18.627 18.3669L18.592 18.3289C17.0443 16.653 14.7747 16.6541 13.2325 18.3289L13.2051 18.3588C13.0174 18.5636 12.8169 18.7824 12.5471 18.5611C12.2387 18.3079 12.4476 18.0371 12.6477 17.8027C13.4923 16.8111 14.61 16.3036 16.1964 16.3103ZM16.4418 12.7284C16.9503 13.5487 17.7198 13.9025 18.6528 13.971C19.608 13.9135 20.4029 13.552 20.8882 12.6953C20.9454 12.5928 20.9113 12.4386 20.8771 12.2839C20.8611 12.2115 20.8451 12.1391 20.8384 12.0718C20.7766 12.0927 20.7073 12.1077 20.638 12.1227C20.4881 12.1552 20.3381 12.1877 20.2625 12.2807C19.3139 13.4769 17.9995 13.4868 17.0841 12.3028C16.9736 12.1591 16.664 12.0264 16.5225 12.0817C16.2119 12.2044 16.2915 12.4852 16.4418 12.7284Z" fill="black"/>
</svg>
