<svg width="14" height="14" viewBox="0 0 14 14" fill="none" xmlns="http://www.w3.org/2000/svg">
<g clip-path="url(#clip0_5425_8391)">
<path fill-rule="evenodd" clip-rule="evenodd" d="M0.944 13.0552C0.988707 13.0999 1.04886 13.1242 1.11052 13.1242C1.13117 13.1242 1.15181 13.1215 1.17232 13.116C1.56416 13.0097 5.01836 12.0585 5.65205 11.425L12.6001 4.47678C12.9385 4.13854 13.1251 3.6886 13.1251 3.20981C13.1251 2.73102 12.9385 2.28094 12.6001 1.94242L12.0569 1.39951C11.3584 0.701018 10.2215 0.700608 9.52214 1.39951L8.80889 2.11277C8.80309 2.11756 8.79746 2.12266 8.79204 2.12809C8.78661 2.13352 8.78151 2.13914 8.77672 2.14494L2.65184 8.26982C2.64688 8.27403 2.64205 8.27848 2.63737 8.28317C2.63277 8.28778 2.6284 8.29253 2.62426 8.2974L2.57492 8.34674C1.94095 8.98071 0.989664 12.435 0.883297 12.8269C0.872372 12.8669 0.872234 12.9091 0.882895 12.9492C0.893556 12.9893 0.914638 13.0259 0.944 13.0552ZM2.816 8.79497C2.42971 9.36406 1.8365 11.1832 1.44904 12.5502C2.81663 12.1625 4.63657 11.5692 5.20453 11.1833L2.816 8.79497ZM5.54921 10.8616L11.3705 5.04002L8.95925 2.6285L3.13758 8.45018L5.54921 10.8616ZM9.29243 2.29532L11.7036 4.70689L12.2668 4.14373C12.5161 3.89436 12.6537 3.56268 12.6537 3.20981C12.6537 2.85694 12.5161 2.52512 12.2668 2.27561L11.7236 1.7327C11.4663 1.47512 11.128 1.34619 10.7897 1.34619C10.4513 1.34619 10.1129 1.47485 9.85519 1.73256L9.29243 2.29532Z" fill="white"/>
</g>
<defs>
<clipPath id="clip0_5425_8391">
<rect width="14" height="14" fill="white"/>
</clipPath>
</defs>
</svg>
