<svg width="25" height="25" viewBox="0 0 25 25" fill="none" xmlns="http://www.w3.org/2000/svg">
<path fill-rule="evenodd" clip-rule="evenodd" d="M0.406494 12C0.406494 18.6168 5.78969 24 12.4065 24C19.0233 24 24.4065 18.6168 24.4065 12C24.4065 5.3832 19.0233 0 12.4065 0C5.78969 0 0.406494 5.3832 0.406494 12ZM2.00649 12C2.00649 6.26533 6.67183 1.6 12.4065 1.6C18.1412 1.6 22.8065 6.26533 22.8065 12C22.8065 17.7347 18.1412 22.4 12.4065 22.4C6.67183 22.4 2.00649 17.7347 2.00649 12ZM12.4065 16.5061C11.9646 16.5061 11.6065 16.1477 11.6065 15.7061V13.9429C11.6065 13.7229 11.6972 13.5125 11.8572 13.3611L14.4046 10.956C14.9041 10.4371 15.1788 9.75547 15.1788 9.0344V8.9392C15.1788 8.18534 14.8814 7.48027 14.3412 6.95387C13.8012 6.42747 13.0897 6.1456 12.3326 6.168C10.8446 6.2064 9.63397 7.4856 9.63397 9.01974C9.63397 9.4616 9.27584 9.81974 8.83397 9.81974C8.3921 9.81974 8.03397 9.4616 8.03397 9.01974C8.03397 6.6256 9.94384 4.62907 12.2913 4.56854C13.4825 4.536 14.606 4.97814 15.4577 5.808C16.3094 6.63814 16.7785 7.75014 16.7785 8.9392V9.0344C16.7785 10.1797 16.3388 11.2627 15.5396 12.0835C15.5318 12.0915 15.5236 12.0995 15.5156 12.1072L13.2065 14.2877V15.7061C13.2065 16.148 12.8484 16.5061 12.4065 16.5061ZM12.4065 19.6987C12.3372 19.6987 12.2678 19.6931 12.1985 19.68C12.1292 19.664 12.0625 19.6453 11.9985 19.6187C11.9345 19.592 11.8732 19.5576 11.8145 19.5203C11.7558 19.4803 11.7025 19.4373 11.6518 19.3869C11.4545 19.1893 11.3398 18.9147 11.3398 18.632C11.3398 18.5624 11.3478 18.4931 11.3612 18.424C11.3745 18.3573 11.3958 18.288 11.4225 18.224C11.4492 18.16 11.4812 18.0987 11.5185 18.04C11.5585 17.9813 11.6038 17.928 11.6518 17.8776C11.7025 17.8293 11.7558 17.784 11.8145 17.7469C11.8732 17.7069 11.9345 17.6749 11.9985 17.6483C12.0625 17.6216 12.1292 17.6003 12.1985 17.5872C12.3345 17.5603 12.4785 17.5603 12.6145 17.5872C12.6838 17.6005 12.7505 17.6219 12.8145 17.6483C12.8782 17.6752 12.9398 17.7069 12.9982 17.7469C13.0569 17.7843 13.1102 17.8296 13.1609 17.8776C13.2089 17.928 13.2542 17.9816 13.2942 18.04C13.3316 18.0989 13.3636 18.16 13.39 18.224C13.4169 18.288 13.4382 18.3573 13.4513 18.424C13.4646 18.4933 13.4726 18.5627 13.4726 18.632C13.4726 18.9147 13.3577 19.1893 13.1606 19.3867C12.9612 19.5867 12.6865 19.6987 12.4065 19.6987Z" fill="white"/>
</svg>
