<svg width="84" height="84" viewBox="0 0 84 84" fill="none" xmlns="http://www.w3.org/2000/svg">
<mask id="mask0_3425_28857" style="mask-type:alpha" maskUnits="userSpaceOnUse" x="0" y="0" width="84" height="84">
<circle cx="42" cy="42" r="42" fill="#D9D9D9"/>
</mask>
<g mask="url(#mask0_3425_28857)">
<path d="M82.35 51.6499C87.6796 29.3652 73.9347 6.97946 51.65 1.64994C29.3652 -3.67958 6.97948 10.0653 1.64995 32.35C-3.67957 54.6347 10.0653 77.0205 32.35 82.35C54.6348 87.6796 77.0205 73.9347 82.35 51.6499Z" fill="#6C72A0"/>
<path d="M61.7405 24.9945H15.2273V58.9276H61.7405V24.9945Z" fill="#F9CE83"/>
<path d="M58.989 27.754H17.978V56.1764H58.989V27.754Z" fill="#379C9B"/>
<path opacity="0.08" d="M58.989 27.754L17.9866 56.1764V27.754H58.989Z" fill="white"/>
<path d="M63.0086 57.5135H13.9658V58.9274H63.0086V57.5135Z" fill="#F9E398"/>
<path d="M29.3989 56.7301C29.4107 56.9195 29.3477 57.1059 29.2234 57.2492C29.0992 57.3926 28.9236 57.4815 28.7345 57.4967H24.6036C24.4152 57.4815 24.2405 57.3923 24.1176 57.2487C23.9947 57.1051 23.9337 56.9186 23.9478 56.7301V56.7301C23.936 56.5431 23.9981 56.3588 24.1208 56.2171C24.2434 56.0753 24.4168 55.9874 24.6036 55.9721H28.7345C28.9229 55.9852 29.0984 56.0723 29.2229 56.2143C29.3473 56.3563 29.4106 56.5417 29.3989 56.7301V56.7301Z" fill="#F2F2F2"/>
<g style="mix-blend-mode:multiply" opacity="0.52">
<path d="M58.989 27.7454V29.1252H19.4345V56.1762H17.978V27.7454H58.989Z" fill="#B3B3B3"/>
</g>
<path d="M37.3373 54.2256H30.9067V56.8916H37.3373V54.2256Z" fill="#87CDDE"/>
<path d="M37.3373 56.8914H30.9067V57.4961H37.3373V56.8914Z" fill="#7B7982"/>
<g style="mix-blend-mode:multiply" opacity="0.26">
<path d="M48.9644 51.1856L47.6272 51.6881L48.9644 51.1856Z" fill="#B3B3B3"/>
<path d="M60.5476 51.2362C60.5476 51.2873 60.5476 51.3554 60.4795 51.4065C60.5032 51.3482 60.5231 51.2885 60.5391 51.2277L60.5476 51.2362Z" fill="#B3B3B3"/>
<g style="mix-blend-mode:multiply">
<path d="M61.7396 39.1926C61.3445 38.4245 60.8583 37.7067 60.2917 37.0548C59.9092 36.5815 59.4717 36.1555 58.9885 35.7857C57.687 34.7795 56.0853 34.2396 54.4402 34.2525C53.3846 34.3025 52.3534 34.5877 51.4221 35.0873C50.4908 35.5868 49.6828 36.2881 49.0573 37.1399C47.77 38.7963 46.8942 40.7346 46.5021 42.7954C46.0166 46.262 47.9671 51.2191 51.2292 49.473V50.6825L48.938 51.185L47.6008 51.679L47.3368 51.7812L44.8668 52.7011L44.2194 52.9311C43.4408 53.1967 42.7255 53.6206 42.1186 54.1762C41.5118 54.7317 41.0265 55.4069 40.6933 56.1591C40.3121 57.0325 40.0735 57.9613 39.9863 58.9102H61.7396V51.6194L60.5472 51.202L58.997 50.8443L58.1453 50.6484V49.3538C58.4134 49.4832 58.7013 49.5667 58.997 49.6008C60.1724 49.7115 61.1093 48.8257 61.7481 47.8377L61.7396 39.1926Z" fill="#B3B3B3"/>
</g>
</g>
<path d="M73.3407 61.0653V63.2201H43.5897V61.0653C43.5897 58.9274 43.0616 53.5189 47.9079 51.7643H47.9505L48.5979 51.5258L51.0679 50.606L52.6691 50.0098C52.698 50.1025 52.7321 50.1935 52.7713 50.2823C53.5464 52.0795 55.8035 53.3741 58.4694 53.3741V53.4422C58.4694 53.4422 58.4694 53.4848 58.4694 53.5019V53.323C61.0246 53.323 63.2647 52.088 64.0909 50.3675C64.142 50.2482 64.1931 50.129 64.2357 50.0098L65.854 50.5804L69.0224 51.7047C73.8688 53.5189 73.3407 58.9274 73.3407 61.0653Z" fill="#F88011"/>
<path d="M58.4267 53.3228C58.4267 56.8831 51.5703 57.1301 51.0337 50.5547L52.635 49.9585C52.66 50.0525 52.6943 50.1438 52.7372 50.2311C53.5463 52.0623 55.7949 53.3228 58.4267 53.3228Z" fill="white"/>
<path d="M65.8619 50.6145C65.3083 57.1643 58.4263 56.9173 58.4263 53.323C60.9815 53.323 63.2386 52.088 64.0562 50.359C64.116 50.2466 64.1672 50.1298 64.2095 50.0098L65.8619 50.6145Z" fill="white"/>
<path d="M64.091 50.3928C63.2393 52.0963 61.0588 53.3568 58.4611 53.3568C55.8633 53.3568 53.5466 52.0622 52.7715 50.2651L54.9604 49.4985V46.5089H61.8339V49.5155L64.091 50.3928Z" fill="#E7C5A7"/>
<path d="M64.4395 41.9951C64.4487 42.3933 64.4317 42.7916 64.3884 43.1875C64.3391 43.5401 64.2709 43.8899 64.184 44.2351C63.8047 45.751 62.9549 47.1077 61.7565 48.1105C60.8367 48.8859 59.6756 49.3168 58.4726 49.3292C57.2696 49.3416 56.0998 48.9348 55.1641 48.1787C53.9194 47.1709 53.0397 45.7825 52.66 44.2266C52.5679 43.8859 52.5024 43.5384 52.4641 43.1875C52.4284 42.9533 52.4056 42.7173 52.396 42.4806C52.396 42.3187 52.396 42.1654 52.396 41.9951C52.396 41.8247 52.396 41.6629 52.396 41.5011C54.2495 41.3269 56.059 40.8341 57.7449 40.0446C59.2417 39.458 60.5065 38.3995 61.3477 37.0295C61.9449 38.311 62.9642 39.3484 64.2351 39.968L64.2862 40.1724C64.2862 40.2405 64.2862 40.3087 64.2862 40.3683C64.39 40.9043 64.4413 41.4491 64.4395 41.9951Z" fill="#EFD2B2"/>
<path d="M55.1389 48.2128C54.2976 47.5168 53.6146 46.6492 53.1358 45.668C52.6569 44.6868 52.3932 43.6146 52.3622 42.5232C52.3536 42.3615 52.3536 42.1994 52.3622 42.0377C52.3537 41.8731 52.3537 41.7082 52.3622 41.5437C54.215 41.3655 56.0238 40.8729 57.7111 40.0872C59.2089 39.4984 60.4758 38.4407 61.3225 37.0721C61.9134 38.355 62.9308 39.3935 64.2013 40.0106C64.2013 40.1468 64.2695 40.2831 64.295 40.4194C64.3912 40.9535 64.4396 41.495 64.4398 42.0377C64.4687 43.1939 64.2408 44.3421 63.7725 45.3996C63.3041 46.4571 62.607 47.3976 61.7313 48.1531C64.0906 49.3967 65.6833 46.603 66.237 45.121C66.7906 43.6389 66.765 42.2165 66.237 40.0106C65.7934 38.493 65.0263 37.0895 63.9884 35.8967C63.2895 35.0185 62.4007 34.3101 61.3887 33.8248C60.3767 33.3394 59.2679 33.0897 58.1455 33.0945C57.0918 33.1468 56.0631 33.4339 55.1347 33.935C54.2063 34.436 53.4016 35.1383 52.7796 35.9904C51.4962 37.646 50.6209 39.5805 50.2244 41.6374C49.7304 45.138 51.766 50.2228 55.1389 48.2128Z" fill="#9B6138"/>
<g opacity="0.13">
<path d="M52.345 42.0032C52.345 42.165 52.345 42.3183 52.345 42.4802C54.0169 42.2716 55.6301 41.73 57.0891 40.8874C58.7922 40.0399 60.2321 38.7442 61.2541 37.1398C61.2735 37.0955 61.2962 37.0528 61.3222 37.012C60.4779 38.3827 59.2102 39.4411 57.7109 40.0272C56.0236 40.8129 54.2147 41.3054 52.362 41.4836C52.3535 41.6625 52.345 41.8328 52.345 42.0032Z" fill="#4D4D4D"/>
</g>
<g style="mix-blend-mode:multiply" opacity="0.48">
<path d="M61.3228 37.0295C61.5146 37.7844 61.8846 38.4824 62.4018 39.0648C62.919 39.6472 63.5683 40.0971 64.2953 40.3768C64.2953 40.2405 64.2357 40.1042 64.2101 39.968C62.9355 39.3536 61.9146 38.3147 61.3228 37.0295V37.0295Z" fill="#8BACB2"/>
</g>
<g style="mix-blend-mode:multiply">
<path d="M48.1204 63.2199V58.3224L49.0828 62.4959L51.885 63.2199H48.1204Z" fill="#CDBAB2"/>
</g>
<g style="mix-blend-mode:multiply">
<path d="M68.971 63.2199V58.3224L68.017 62.4959L65.2148 63.2199H68.971Z" fill="#CDBAB2"/>
</g>
<path d="M52.6347 44.2261C52.5785 44.2381 52.5205 44.2381 52.4643 44.2261C52.3212 44.2239 52.1848 44.1654 52.0844 44.0635C51.984 43.9615 51.9277 43.8241 51.9277 43.681C51.9365 43.5454 51.9971 43.4185 52.097 43.3265C52.197 43.2345 52.3285 43.1845 52.4643 43.187C52.4942 43.5372 52.5512 43.8846 52.6347 44.2261V44.2261Z" fill="#F2F2F2"/>
<path d="M64.8313 43.7152C64.8313 43.8598 64.7739 43.9984 64.6717 44.1007C64.5694 44.2029 64.4308 44.2603 64.2862 44.2603C64.2441 44.269 64.2006 44.269 64.1584 44.2603C64.2549 43.9071 64.3316 43.5488 64.3884 43.1871C64.5125 43.2091 64.6249 43.2741 64.7059 43.3707C64.7868 43.4672 64.8312 43.5892 64.8313 43.7152V43.7152Z" fill="#F2F2F2"/>
<g style="mix-blend-mode:multiply" opacity="0.7">
<path d="M73.3485 63.2203L55.2492 81.3196C49.0084 83.4175 42.3582 84.0008 35.8475 83.0216C29.3368 82.0424 23.1524 79.5287 17.8048 75.6879C12.4572 71.8472 8.09981 66.7896 5.09236 60.9327C2.08491 55.0758 0.513655 48.5875 0.508301 42.0036C0.508301 41.2115 0.508301 40.4279 0.576439 39.6443L15.2263 24.9945V57.5137H13.9572V58.9276H43.5805C43.5805 59.7793 43.5805 60.5288 43.5805 61.0654V63.2203H73.3485Z" fill="#C1C0C6"/>
</g>
</g>
</svg>
