<svg width="24" height="24" viewBox="0 0 24 24" fill="none" xmlns="http://www.w3.org/2000/svg">
<path fill-rule="evenodd" clip-rule="evenodd" d="M1.5599 11.9855C1.59369 11.9873 1.62791 11.9891 1.66212 11.9919L1.66423 20.9382C1.62467 20.9423 1.58556 20.943 1.54817 20.9436C1.46996 20.9449 1.39931 20.9462 1.34796 20.9783C1.22284 21.0696 1.1067 21.1727 1.00111 21.2861C1.11931 21.4003 1.24543 21.506 1.37853 21.6024C1.42071 21.63 1.48445 21.623 1.54831 21.616C1.57703 21.6129 1.60578 21.6098 1.6326 21.6098H22.3875C22.4173 21.6098 22.4488 21.6126 22.4805 21.6155H22.4805H22.4806H22.4806H22.4806H22.4806H22.4807C22.5557 21.6224 22.6312 21.6293 22.6838 21.5982C22.805 21.5275 22.9726 21.4094 22.98 21.304C22.9874 21.1986 22.8335 21.0573 22.7175 20.9877C22.6487 20.9468 22.5571 20.9424 22.4634 20.9379C22.4221 20.9359 22.3804 20.9339 22.3401 20.9287V11.9929C23.0686 11.9202 23.1223 11.8242 22.8261 11.158C22.7096 10.8951 22.5913 10.6327 22.473 10.3702L22.4728 10.3697C22.2154 9.79882 21.9578 9.22758 21.7181 8.64991C21.5747 8.2999 21.3691 8.19447 21.0012 8.19447C18.9707 8.21134 16.9364 8.21134 14.8982 8.19447C14.6802 8.18461 14.472 8.10097 14.3078 7.95727C13.8205 7.501 13.3515 7.02497 12.8824 6.54881L12.8824 6.5488L12.8821 6.5485C12.7779 6.44276 12.6737 6.33701 12.5693 6.23147C12.5544 6.21655 12.5382 6.20112 12.5215 6.18526C12.4401 6.10803 12.348 6.02057 12.348 5.93312C12.3308 5.5583 12.3332 5.18061 12.3357 4.79667C12.3365 4.66009 12.3374 4.52273 12.3374 4.38443C12.5636 4.38443 12.7826 4.38321 12.9968 4.38201L12.9969 4.38201H12.9969H12.9969H12.9969H12.997H12.997H12.997C13.4116 4.37969 13.8083 4.37748 14.2045 4.38443C14.5787 4.39075 14.7622 4.24421 14.7464 3.85098C14.7306 3.40714 14.7358 2.96225 14.7464 2.51841C14.7559 2.15997 14.6156 1.99234 14.2403 2.00078C13.5667 2.01765 12.893 2.02292 12.2204 2.00078C11.8071 1.98707 11.6616 2.15364 11.6616 2.55637C11.6753 3.58742 11.6785 4.61953 11.6543 5.65058C11.6402 5.86845 11.5533 6.07527 11.4076 6.23779C11.1242 6.54228 10.8294 6.83535 10.5348 7.12827C10.2704 7.39112 10.0061 7.65384 9.7503 7.92459C9.66128 8.02269 9.55121 8.09936 9.42832 8.14885C9.30544 8.19833 9.17295 8.21933 9.04079 8.21029C7.00715 8.19974 4.97245 8.19764 2.93776 8.21661C2.748 8.21872 2.46019 8.3389 2.3885 8.4865C1.99817 9.2933 1.63808 10.1152 1.27788 10.9374C1.20224 11.11 1.12659 11.2827 1.05066 11.4553C0.915716 11.761 1.0612 11.9117 1.3585 11.9666C1.42116 11.978 1.4896 11.9817 1.5599 11.9855ZM2.36003 20.9319V11.9708C2.7111 11.9708 3.0594 11.9701 3.40566 11.9694L3.40653 11.9694H3.40664C4.32342 11.9675 5.22594 11.9656 6.12791 11.9771C6.283 11.9853 6.43798 11.9591 6.58178 11.9004C6.72557 11.8417 6.85462 11.752 6.95971 11.6376C7.85622 10.7314 8.75731 9.82969 9.6581 8.92831L9.65816 8.92825L9.65836 8.92805L9.65882 8.92758L9.65903 8.92738L9.65923 8.92717L9.65943 8.92697L9.65964 8.92676L9.65984 8.92656C10.3177 8.26825 10.9754 7.61011 11.6311 6.95046C11.74 6.82166 11.8387 6.68454 11.9263 6.54036L11.9615 6.57204L11.9615 6.57207C12.1388 6.73135 12.2489 6.83036 12.348 6.92938C13.9237 8.49388 15.4914 10.0668 17.0509 11.6482C17.1489 11.76 17.2709 11.8481 17.4079 11.9058C17.5449 11.9636 17.6932 11.9894 17.8416 11.9813C18.1268 11.972 18.4123 11.9738 18.6978 11.9756H18.6978H18.6978H18.6978H18.6979H18.6979H18.6979C19.0574 11.9779 19.4167 11.9802 19.7751 11.9602C19.8835 11.9511 19.9877 11.8601 20.0917 11.7693L20.0917 11.7693C20.1435 11.7241 20.1952 11.679 20.2474 11.644C20.1985 11.6081 20.1503 11.5634 20.1022 11.5188L20.1022 11.5188C19.999 11.423 19.896 11.3275 19.7867 11.3203C19.4174 11.2975 19.0466 11.2994 18.6757 11.3014H18.6756C18.4303 11.3027 18.1848 11.304 17.9397 11.2982C17.7886 11.3033 17.6401 11.2577 17.518 11.1685C16.9323 10.605 16.3562 10.0313 15.7538 9.43133C15.5831 9.26128 15.4103 9.08914 15.2345 8.91452C15.292 8.90759 15.3421 8.90054 15.387 8.8942L15.3871 8.8942L15.3871 8.89419C15.4789 8.88126 15.5496 8.8713 15.6203 8.8713C16.4035 8.86791 17.1867 8.8683 17.9699 8.86869H17.97H17.97H17.97H17.9701H17.9701H17.9701H17.9703C18.8919 8.86915 19.8135 8.86962 20.7355 8.86392C20.9991 8.86181 21.1467 8.92928 21.2521 9.18652C21.4552 9.68106 21.6737 10.1697 21.9001 10.676C21.9922 10.8821 22.0856 11.091 22.1799 11.3045C22.0918 11.3045 22.0092 11.3003 21.931 11.2964H21.931C21.7638 11.2879 21.617 11.2805 21.4819 11.3171C21.308 11.3635 21.056 11.4922 21.0255 11.6271C20.9654 11.8949 21.2089 11.9729 21.4472 11.9729C21.4822 11.9736 21.5177 11.979 21.5608 11.9855L21.5608 11.9856C21.5851 11.9893 21.6118 11.9933 21.6422 11.9971V20.9245H15.0911V20.3415C15.0901 19.6531 15.0901 19.6531 14.4016 19.5392V17.0607C14.4006 16.5747 14.3099 16.4798 13.8281 16.4798C12.6108 16.4756 11.3932 16.4756 10.1752 16.4798C9.69442 16.4808 9.6027 16.5757 9.6027 17.0617V19.5613C8.84956 19.5613 8.8775 19.9471 8.90651 20.3478C8.92157 20.5557 8.93691 20.7677 8.84365 20.9319H2.36003ZM2.75858 11.289H2.75853H2.75849H2.75844H2.7584H2.75835H2.7583C2.45155 11.2967 2.14063 11.3045 1.82448 11.3045C1.89383 11.1472 1.96196 10.9921 2.02926 10.8389C2.3047 10.2121 2.56627 9.61679 2.84077 9.02627C2.87127 8.98279 2.91119 8.94675 2.95755 8.92083C3.00392 8.89491 3.05553 8.87978 3.10855 8.87657C4.96599 8.87024 6.82132 8.87024 8.80103 8.87024H8.80148C8.64794 9.02245 8.49712 9.16297 8.35187 9.29831L8.35186 9.29831L8.35185 9.29833L8.35184 9.29834L8.35183 9.29834L8.35183 9.29835L8.35183 9.29835C8.0353 9.59327 7.7452 9.86356 7.51108 10.1765C6.79841 11.1253 5.91073 11.4489 4.74052 11.3245C4.09264 11.2556 3.43578 11.2721 2.7586 11.289H2.75858ZM11.6479 17.1629V19.5613H10.3048V17.1629H11.6479ZM12.3669 19.5571V17.1524H13.7111V19.5571H12.3669ZM9.60481 20.2635H14.4164L14.4113 20.9012V20.2637H9.60498V20.9224H9.60481V20.2635ZM12.3585 2.69026H14.0664V3.69601H12.3585V2.69026ZM18.1736 19.204C17.9301 19.204 17.6865 19.2028 17.443 19.2016C16.9559 19.1993 16.4689 19.1969 15.9818 19.204C15.6149 19.2113 15.4547 19.0606 15.4547 18.6979C15.461 18.1244 15.4631 17.552 15.4547 16.9784C15.4494 16.6095 15.6265 16.4682 15.9818 16.4692C17.4578 16.4756 18.9337 16.4756 20.4097 16.4692C20.786 16.4692 20.961 16.6063 20.9463 17.0037C20.9262 17.5614 20.9273 18.1212 20.9463 18.6789C20.96 19.0753 20.7871 19.2124 20.4054 19.2061C19.8948 19.1967 19.3877 19.1992 18.8782 19.2017C18.644 19.2028 18.4093 19.204 18.1736 19.204ZM16.14 18.5176H17.8531V17.1703H16.14V18.5176ZM20.2589 18.5176V17.1629H18.5584V18.5208L20.2589 18.5176ZM5.0618 15.7588H5.06191H5.06203H5.06215H5.06227C5.30576 15.7599 5.54921 15.7609 5.79255 15.7609C6.06368 15.7609 6.33481 15.7598 6.60583 15.7587C7.07988 15.7567 7.55361 15.7548 8.02649 15.7588C8.39337 15.7651 8.54518 15.6059 8.54518 15.2454C8.54096 14.863 8.54237 14.4805 8.54378 14.0984L8.54378 14.0982C8.54448 13.9074 8.54518 13.7166 8.54518 13.5259C8.54834 13.1917 8.40918 13.022 8.06023 13.022C6.55477 13.0262 5.05 13.0262 3.54595 13.022C3.20543 13.0209 3.04834 13.1632 3.05678 13.5143C3.07048 14.0868 3.0747 14.6613 3.05678 15.2338C3.04413 15.6344 3.22335 15.7683 3.59971 15.7609C4.08681 15.7546 4.57438 15.7567 5.0618 15.7588ZM5.43621 13.7252V15.0746H3.74098V13.7252H5.43621ZM7.85254 15.0662H6.15521V13.7188H7.85254V15.0662ZM18.2378 15.7607C17.9893 15.7607 17.7409 15.7596 17.4924 15.7584C16.9955 15.7561 16.4986 15.7537 16.0017 15.7607C15.6169 15.7692 15.4504 15.6121 15.4588 15.2273C15.4693 14.6685 15.4672 14.1098 15.4588 13.551C15.4535 13.1979 15.5927 13.0239 15.9648 13.0239C17.4555 13.0303 18.9459 13.0303 20.4359 13.0239C20.7954 13.0239 20.963 13.162 20.9493 13.5363C20.9335 14.1087 20.9346 14.6823 20.9493 15.2558C20.9588 15.6311 20.788 15.766 20.4296 15.7607C19.9426 15.7558 19.4556 15.7575 18.9686 15.7591H18.9684C18.7249 15.7599 18.4813 15.7607 18.2378 15.7607ZM17.8435 15.0744V13.7208H16.1483V15.0744H17.8435ZM20.2683 13.725H18.5614V15.0597H20.2704L20.2683 13.725ZM3.74745 17.1545H5.47008C5.47008 17.2676 5.47063 17.3784 5.47118 17.4876L5.47118 17.4878C5.47262 17.7787 5.47401 18.0585 5.46481 18.3406C5.44284 18.4304 5.40265 18.5147 5.34674 18.5883C5.28032 18.7159 5.21285 18.8413 5.14538 18.9668C5.19243 18.9921 5.23938 19.0241 5.28639 19.0562L5.28641 19.0562C5.39001 19.1268 5.49389 19.1977 5.59976 19.1977C6.07032 19.2111 6.54123 19.21 7.0123 19.209H7.01233H7.01236H7.01268C7.35729 19.2083 7.70197 19.2075 8.04666 19.2124C8.39351 19.2177 8.54637 19.0691 8.54637 18.7285C8.54216 18.1417 8.54216 17.5548 8.54637 16.9679C8.54848 16.6538 8.41038 16.4819 8.08672 16.4819H3.49127C3.22454 16.483 3.06113 16.6011 3.06113 16.8963C3.06211 17.0909 3.06057 17.2851 3.05904 17.4793C3.0556 17.914 3.05217 18.3482 3.07695 18.7855C3.09532 18.8732 3.13436 18.9554 3.19084 19.025C3.24731 19.0947 3.31958 19.1499 3.40165 19.1861C3.62389 19.2441 3.8573 19.2441 4.07953 19.1861C4.19761 19.1608 4.36313 19.0047 4.36523 18.893C4.36734 18.7812 4.21764 18.6452 4.10167 18.5704C4.03652 18.5257 3.94697 18.5207 3.85949 18.5158H3.85947H3.85946C3.82097 18.5137 3.78288 18.5116 3.74745 18.5061V17.1545ZM6.15956 18.5251V17.1545H7.85268V18.5251H6.15956ZM12.0138 14.7253C11.3843 14.7188 10.7819 14.4687 10.3328 14.0277C9.88366 13.5866 9.62277 12.9888 9.60482 12.3596C9.58268 11.0608 10.6865 9.93483 11.9927 9.93483C12.3117 9.92688 12.6291 9.98268 12.9262 10.0989C13.2234 10.2152 13.4944 10.3896 13.7233 10.6119C13.9522 10.8342 14.1345 11.1 14.2594 11.3936C14.3843 11.6872 14.4494 12.0028 14.4508 12.3219C14.4522 12.641 14.3899 12.9572 14.2676 13.2519C14.1452 13.5467 13.9653 13.814 13.7384 14.0383C13.5114 14.2626 13.242 14.4394 12.9458 14.5583C12.6497 14.6771 12.3328 14.7357 12.0138 14.7306V14.7253ZM13.7354 12.3143C13.7329 11.9721 13.6291 11.6384 13.4372 11.3552C13.2452 11.072 12.9737 10.8519 12.6569 10.7228C12.34 10.5937 11.9921 10.5614 11.6568 10.6298C11.3216 10.6982 11.0142 10.8644 10.7733 11.1073C10.5324 11.3503 10.3688 11.6591 10.3033 11.9949C10.2377 12.3307 10.273 12.6784 10.4048 12.9941C10.5366 13.3098 10.7589 13.5795 11.0438 13.769C11.3286 13.9585 11.6632 14.0594 12.0053 14.059C12.2349 14.0631 12.4629 14.0206 12.6756 13.9342C12.8883 13.8478 13.0813 13.7192 13.243 13.5561C13.4046 13.3931 13.5316 13.199 13.6162 12.9856C13.7008 12.7721 13.7414 12.5438 13.7354 12.3143ZM12.6978 11.6703C12.2403 11.627 11.6699 12.2027 11.6699 12.7804C11.6526 12.8722 11.661 12.9671 11.6942 13.0545C11.7285 13.1181 11.7753 13.1742 11.8318 13.2193C11.8884 13.2644 11.9534 13.2977 12.0231 13.317C12.1117 13.3275 12.313 13.1473 12.3046 13.0682C12.2561 12.6212 12.4754 12.3977 12.8538 12.2353C12.935 12.1974 12.9972 11.9865 12.974 11.8811C12.9483 11.8264 12.9097 11.7787 12.8616 11.742C12.8136 11.7053 12.7574 11.6807 12.6978 11.6703Z" fill="black"/>
</svg>
