<svg width="24" height="24" viewBox="0 0 24 24" fill="none" xmlns="http://www.w3.org/2000/svg">
<path fill-rule="evenodd" clip-rule="evenodd" d="M13.1163 14.6204V13.982C13.3265 13.982 13.5224 13.9828 13.7103 13.9836L13.7107 13.9836C13.9289 13.9845 14.1364 13.9853 14.3434 13.9848C15.2387 13.9736 15.7646 13.4477 15.7692 12.5543C15.773 11.6637 15.773 10.7731 15.7692 9.88254C15.7688 9.79246 15.7677 9.70896 15.7667 9.63154L15.7667 9.63142C15.7546 8.70823 15.7539 8.65131 17.0123 8.65823C17.3788 8.66011 17.6216 8.70229 17.8091 9.09508C18.156 9.81973 18.9622 10.1263 19.7497 9.93879C20.1232 9.84468 20.4565 9.63293 20.7005 9.33481C20.9444 9.03669 21.086 8.66801 21.1043 8.28325C21.138 7.54267 20.6318 6.81427 19.9053 6.55553C18.9594 6.21805 18.1166 6.65678 17.5832 7.78547H16.5698C15.3361 7.7864 14.8871 8.23732 14.8871 9.486V12.4858C14.8871 12.8149 14.8046 13.0952 14.4184 13.1149C14.1444 13.126 13.8693 13.1225 13.5795 13.1188H13.5795H13.5795C13.429 13.1168 13.2746 13.1149 13.1144 13.1149V12.5149C13.12 9.68817 13.12 6.86052 13.1144 4.03192C13.1116 2.71012 12.4094 2.00422 11.0858 2.00422C8.74213 1.99859 6.39851 1.99859 4.05489 2.00422C2.70402 2.00703 2 2.7148 2 4.05536V19.9442C2 21.2641 2.70121 21.9878 4.0127 21.9916C6.38757 22.0028 8.76244 22.0028 11.1373 21.9916C12.4038 21.9859 13.1097 21.2754 13.1163 20.0098C13.1206 18.8123 13.1192 17.6144 13.1177 16.4167L13.1177 16.4142V16.4141C13.117 15.8162 13.1163 15.2182 13.1163 14.6204ZM12.191 17.504H2.93745V5.15498H12.191V17.504ZM2.95432 18.4761H12.2116C12.2116 18.6747 12.2135 18.8696 12.2154 19.0619V19.0619V19.0619C12.2194 19.4771 12.2233 19.8803 12.2079 20.2826C12.1901 20.7794 11.8057 21.0935 11.2526 21.0935H5.96541C5.73257 21.0935 5.49922 21.0944 5.26559 21.0954C4.79749 21.0972 4.32828 21.0991 3.8599 21.0935C3.25993 21.0869 2.92901 20.7673 2.91495 20.1757C2.90558 19.8339 2.9087 19.4903 2.91183 19.1468C2.91339 18.9751 2.91495 18.8033 2.91495 18.6317C2.92223 18.5786 2.93544 18.5264 2.95432 18.4761ZM11.0454 2.90323C11.9801 2.90323 12.2604 3.2079 12.2013 4.19785L2.95807 4.19879C2.82964 3.27259 3.13431 2.90323 4.01458 2.90323H11.0454ZM19.6843 9.03044C19.5764 9.07687 19.4602 9.10048 19.3428 9.09977C19.2256 9.10443 19.1086 9.08543 18.9989 9.04391C18.8892 9.00238 18.7889 8.93919 18.7041 8.85809C18.6194 8.77699 18.5518 8.67964 18.5055 8.57186C18.4591 8.46408 18.4349 8.34807 18.4344 8.23075C18.4397 7.99475 18.535 7.76969 18.7007 7.60155C18.8664 7.43342 19.09 7.3349 19.3259 7.32612C19.5539 7.32966 19.7718 7.42118 19.9339 7.58155C20.096 7.74192 20.1899 7.95874 20.1959 8.18669C20.2046 8.30376 20.1889 8.42135 20.1499 8.53206C20.1109 8.64278 20.0494 8.74421 19.9692 8.82999C19.8891 8.91576 19.7921 8.98401 19.6843 9.03044ZM10.3994 10.7811L10.3994 10.781C10.448 10.6179 10.4966 10.4548 10.5526 10.2959L10.4636 10.2565C10.4447 10.025 10.4135 9.79467 10.3698 9.56654C10.0699 8.36566 9.27209 7.64477 8.08715 7.43665C6.92659 7.23229 5.90758 7.60071 5.21949 8.59346C4.53141 9.58622 4.45079 10.6699 5.06107 11.7245C5.55627 12.5792 6.09647 13.4085 6.63635 14.2373C6.79349 14.4786 6.95061 14.7198 7.10658 14.9616C7.39813 15.4097 7.7178 15.4097 8.0084 14.9616C8.15462 14.7352 8.30175 14.5095 8.44889 14.2837L8.44903 14.2834L8.44917 14.2832C8.98214 13.4653 9.51524 12.6473 10.0052 11.8033C10.1876 11.4917 10.2935 11.1364 10.3994 10.7811ZM8.16816 13.124C7.97502 13.4239 7.77911 13.7281 7.58374 14.041C7.3876 13.7288 7.19164 13.4251 6.99853 13.1259L6.99852 13.1259C6.55665 12.4411 6.12976 11.7796 5.75009 11.0927C5.29824 10.2762 5.60291 9.23374 6.33881 8.66471C7.07471 8.09568 8.05153 8.10693 8.80149 8.69283C9.52895 9.26374 9.83268 10.3024 9.38645 11.1255C9.01903 11.8027 8.60055 12.4525 8.16816 13.124ZM7.91227 19.9813L7.91225 19.9813C7.76948 20.1031 7.66217 20.1947 7.57692 20.1775C7.40724 20.1428 7.20194 19.9244 7.16257 19.7491C7.13726 19.6506 7.40631 19.3638 7.53755 19.3694C7.65371 19.3738 7.7678 19.4647 7.91639 19.5831C7.99084 19.6424 8.07395 19.7087 8.17033 19.7744C8.07309 19.8441 7.98773 19.9169 7.91227 19.9813ZM7.78519 9.84907C7.72973 9.76781 7.66735 9.67641 7.60689 9.57068C7.53128 9.66697 7.45423 9.75089 7.38656 9.8246C7.25787 9.96476 7.16308 10.068 7.1766 10.1491C7.20291 10.2839 7.31689 10.4012 7.43113 10.5188C7.47973 10.5688 7.52837 10.6188 7.57033 10.6703C7.61584 10.6227 7.67185 10.577 7.72725 10.5318C7.84303 10.4375 7.95612 10.3452 7.96499 10.2419C7.97617 10.1289 7.89399 10.0085 7.78519 9.84907Z" fill="black"/>
</svg>
