<svg width="24" height="24" viewBox="0 0 24 24" fill="none" xmlns="http://www.w3.org/2000/svg">
<path fill-rule="evenodd" clip-rule="evenodd" d="M20.6759 16.9477C21.0341 17.3908 21.3926 17.673 21.6563 17.8387C21.9456 18.0221 22.1543 18.0919 22.1774 18.0996C22.1788 18.1 22.1795 18.1003 22.1795 18.1003L22.5521 18.2076L22.5428 18.5919C22.5215 19.4406 22.2273 20.1752 22.2146 20.2065L21.9949 20.7486L21.4892 20.4485C21.1991 20.2759 20.9148 20.0738 20.6467 19.8493C20.4845 19.7149 20.3315 19.5722 20.182 19.4272C20.2211 19.748 20.3584 20.049 20.5749 20.289C20.6626 20.3865 20.7597 20.4753 20.8646 20.554L21.0946 20.7286L21.0578 21.0136C21.01 21.3797 20.787 22.5787 19.919 22.6168L19.7162 22.6258L19.5642 22.4921C19.5364 22.4673 19.281 22.239 19.005 21.8087C18.6066 21.1855 18.0675 19.9593 18.4113 18.212C18.073 18.3052 17.6709 18.378 17.2408 18.378C16.4485 18.378 15.4062 18.123 14.5826 17.0481C14.0134 17.1581 13.4905 17.1849 13.1296 17.1849C12.7477 17.1849 12.5057 17.1571 12.4957 17.1557L12.4606 17.1485C12.2523 17.079 12.0629 16.891 12.1382 16.6418C12.163 16.5575 12.2798 16.4424 12.4826 16.298C12.284 16.2839 12.086 16.2733 11.8866 16.2733C11.7161 16.2733 11.5511 16.2808 11.3892 16.2922C10.7412 16.7126 10.2665 17.1378 9.95849 17.4589L10.1115 17.5032C10.2957 17.3427 10.4944 17.1883 10.6484 17.0728C10.8759 16.9029 11.0635 16.7749 11.1117 16.742C11.1184 16.7374 11.1224 16.7346 11.1235 16.7339L11.3679 16.5696L11.6319 16.7009C12.3293 17.0477 12.7666 17.9587 12.814 18.0611L13.1784 18.8493L12.308 18.7655C12.2846 18.763 12.2609 18.762 12.2375 18.762C12.0994 18.762 11.9381 18.7971 11.7577 18.8669C11.3411 19.028 10.9915 19.3117 10.9686 19.3303C10.9679 19.3309 10.9675 19.3312 10.9674 19.3313L10.8079 19.4657L10.5996 19.4485C8.55667 19.2773 7.42986 19.1632 7.24939 19.1085C6.96717 19.0219 6.61449 18.7435 6.50758 18.3371C6.4567 18.1412 6.42542 17.7552 6.79564 17.3695C6.82399 17.3392 6.8515 17.3081 6.87814 17.2763C6.6248 17.3007 6.36286 17.3172 6.0858 17.3172C5.89639 17.3172 5.70424 17.31 5.51036 17.297C5.37699 17.8635 5.27799 18.5592 5.38352 18.8579C5.43645 19.0088 5.64305 19.0917 5.8077 19.1357C5.95718 19.1738 6.11065 19.194 6.26489 19.1958L6.84961 19.1824L6.77536 19.7575L6.58664 21.2167L6.52511 21.6904L6.04524 21.6502C6.00192 21.6468 5.60936 21.6079 5.13636 21.3566C4.26152 20.8898 2.89649 19.5657 3.58914 15.9374L3.65239 15.606L3.98617 15.5407C4.39627 15.4603 5.46533 15.1949 6.13667 14.8295C5.90533 14.0605 5.51724 12.3109 6.25561 10.9695C6.28758 10.9108 6.4182 10.666 6.52236 10.3676C6.2697 10.576 5.95483 10.7815 5.57602 10.9871C5.39747 11.0839 5.22372 11.2919 5.07019 11.4756L5.06967 11.4762L5.06931 11.4767C4.84358 11.7467 4.61023 12.0259 4.24949 12.0259C4.18005 12.0259 4.1113 12.0142 4.04564 11.9925C3.94699 11.9595 3.86105 11.9004 3.79642 11.8224C3.73386 11.8557 3.66236 11.8836 3.57952 11.899L3.38152 11.9362L3.21239 11.8275C2.66377 11.4749 1.78308 10.7808 2.0488 10.0916C2.09967 9.95996 2.23408 9.68358 2.48708 9.16692L2.4905 9.15995C2.93943 8.24279 3.7464 6.5942 3.94733 5.87964C3.84936 5.6098 3.68677 5.05121 3.73111 4.42008L3.77064 3.85736L4.32924 3.9653C4.37564 3.97458 4.62349 4.03164 4.95417 4.21521C4.95709 4.04731 4.97191 3.87982 4.99852 3.71402C4.99852 3.71402 5.47496 4.05227 5.89949 4.78686C6.49979 4.79178 7.09449 4.90292 7.65605 5.11514C7.6533 4.89789 8.12802 4.4878 8.30161 4.36336L8.30367 4.36267C8.30337 4.36006 8.30251 4.35785 8.30165 4.35566C8.3006 4.35296 8.29955 4.35028 8.29955 4.34686C8.35592 2.99558 9.5422 1.94611 10.9495 2.00214C12.3568 2.05886 13.4527 3.19908 13.397 4.55071C13.3919 4.68546 13.2482 4.72567 13.0268 4.71536C13.021 5.14161 12.8955 5.48846 12.6913 5.73871L12.8518 6.13127C15.0205 6.02299 16.8184 7.64721 17.2233 8.04321L17.2649 8.02464L17.3275 8.14839L17.4261 8.25255L17.39 8.28658C17.7747 9.10264 17.7874 9.73858 17.3986 10.3247C18.0407 10.4178 18.6007 10.7874 18.995 11.37C20.6 10.4402 22.966 11.1009 22.2307 12.2301C21.0004 14.1193 22.6246 16.6593 22.6246 16.6593C22.6246 16.6593 19.6711 15.1416 20.4033 13.3284C20.7505 12.4686 20.1132 12.2937 19.4333 12.3195C19.6088 12.9386 19.6215 13.5925 19.4701 14.218L19.5474 14.5408C19.6433 14.9454 19.7751 15.3407 19.9413 15.7219C19.9556 15.7241 19.9699 15.7262 19.9842 15.7282C20.028 15.7346 20.0717 15.7409 20.1142 15.7508L20.295 15.7917L20.4054 15.9395C20.4432 15.99 20.7014 16.3664 20.6759 16.9477ZM19.3313 15.6961C19.3493 15.6957 19.3673 15.6953 19.3851 15.6947C19.302 15.4854 19.2246 15.2626 19.1555 15.023C19.0309 15.2533 18.8767 15.4663 18.697 15.6566C18.8176 15.6989 18.9269 15.705 19.0393 15.705C19.1009 15.705 19.1624 15.7024 19.2244 15.6997C19.2361 15.6992 19.2479 15.6987 19.2597 15.6982C19.2831 15.6972 19.3072 15.6967 19.3313 15.6961ZM13.9401 11.9967C13.9597 11.9898 15.9081 11.2978 16.6606 10.6392C17.3079 10.0737 17.5901 9.52855 17.1013 8.46739L15.2309 9.29721C15.0322 9.46324 13.2482 10.9726 12.878 11.8605C12.6906 12.3128 13.0758 13.0015 13.3061 13.4134L13.3063 13.4136C13.3405 13.4741 13.3739 13.535 13.4063 13.5965C13.9199 13.5353 14.2007 13.3827 14.3275 13.2857C14.2932 13.1273 14.1866 12.7935 13.8508 12.2425L13.7432 12.0661L13.9401 11.9967ZM14.0178 9.93074C13.4084 10.2539 12.8666 10.5464 12.792 10.6055C12.746 10.6451 12.7061 10.6832 12.6696 10.7303C12.8618 10.7436 13.0545 10.745 13.2468 10.7344C13.4921 10.4555 13.7494 10.1874 14.0178 9.93074ZM12.2984 10.6839C12.3689 10.5412 12.4555 10.4457 12.5679 10.3498C12.6954 10.2411 13.9095 9.60177 14.6476 9.21746L13.0467 8.87061L11.9148 10.5546C12.0355 10.6166 12.1648 10.6602 12.2984 10.6839ZM12.5727 6.35436L12.441 5.98724C12.4384 6.01086 12.4336 6.07386 12.4278 6.15061C12.4157 6.31062 12.399 6.53041 12.3874 6.5778C12.4024 6.55618 12.4427 6.50951 12.4822 6.46378C12.5224 6.41717 12.5618 6.37154 12.5727 6.35436ZM16.8844 8.19308C16.3691 7.71733 14.7541 6.37464 12.9068 6.46402C12.78 6.68058 12.4105 7.23883 11.7972 7.56505L11.3335 9.71624L11.2025 9.72346C10.6195 9.75611 9.76083 9.81249 9.27786 9.85992L9.27614 10.1167C9.2758 10.2233 9.26927 10.3137 9.25964 10.3962H11.6085L12.89 8.49008L15.1192 8.9758L16.8844 8.19308ZM10.5332 7.66027C10.6825 7.90651 10.8196 8.15993 10.944 8.41961L11.3682 7.92496L11.459 7.50386C11.1675 7.61008 10.9347 7.6833 10.722 7.6833C10.6549 7.6833 10.5927 7.67436 10.5332 7.66027ZM11.1575 8.90086L11.217 8.62552L11.1008 8.7613C11.1126 8.78868 11.1227 8.81414 11.1327 8.83953C11.1407 8.85971 11.1487 8.87985 11.1575 8.90086ZM11.4854 4.42894C11.467 4.42506 11.4483 4.42114 11.4301 4.41767C11.3665 4.46924 11.3094 4.5208 11.264 4.56824L11.9907 5.60636L12.3548 4.62324C12.3542 4.62151 12.3539 4.61994 12.3536 4.61841C12.3531 4.61596 12.3526 4.61361 12.3513 4.61086C12.2658 4.59286 12.1781 4.57413 12.0893 4.55514C11.9592 4.52735 11.8266 4.49901 11.6944 4.47164C11.6893 4.63836 11.7216 4.82949 11.8546 5.00239C11.8546 5.00239 11.647 5.01546 11.5531 4.81127C11.4975 4.68992 11.4889 4.55689 11.5122 4.43452C11.5034 4.43271 11.4945 4.43083 11.4854 4.42894ZM11.792 5.92227L10.8519 4.57855C10.3187 4.72602 9.51127 4.94224 8.8523 5.09005C8.89786 5.21511 8.95937 5.31306 9.01403 5.4001C9.05958 5.47263 9.10036 5.53758 9.12317 5.6043C9.16064 5.71361 9.01317 5.99514 8.93445 6.14296C8.81655 6.36502 9.01317 6.44614 9.20086 6.44614C9.2923 6.44614 9.38133 6.42724 9.43117 6.39596C9.49155 6.45664 9.52424 6.51733 9.54997 6.5651C9.58079 6.62231 9.60162 6.66099 9.64808 6.65892C9.88974 6.64827 10.3366 6.30142 10.3366 6.30142C10.3366 6.30142 10.186 6.63658 10.108 6.73283C9.94302 6.93805 9.86877 6.88064 9.94645 6.72836C9.98014 6.66271 10.0173 6.60014 10.0461 6.55546C10.0097 6.60083 9.95436 6.67714 9.90039 6.76308C9.84677 6.88649 9.82305 7.01711 9.93992 7.05664C10.0121 7.08105 10.1919 7.06352 10.293 6.99271C10.3937 7.24846 10.5253 7.34574 10.7216 7.34574C10.9175 7.34574 11.349 7.21408 11.5349 7.11439C11.6563 7.04942 11.9725 6.78302 11.9725 6.78302L11.792 5.92227ZM8.72202 5.57989C8.6543 5.47402 8.57077 5.34099 8.51199 5.16189C8.29096 5.20589 8.10533 5.2358 7.97058 5.24611C8.24832 5.37573 8.51375 5.53025 8.76361 5.70777C8.76849 5.69543 8.77297 5.68293 8.77702 5.6703C8.76303 5.64492 8.74411 5.61492 8.72522 5.58497L8.72202 5.57989ZM5.52858 5.34202C4.89333 4.58267 4.23299 4.4548 4.23299 4.4548C4.18163 5.18046 4.45222 5.79752 4.47119 5.84078C4.4719 5.8424 4.47226 5.84322 4.47224 5.84321C4.53206 5.89843 4.62252 5.96175 4.73037 6.03725C4.90448 6.15913 5.12391 6.31274 5.33299 6.51524C5.67412 6.84789 5.98304 7.21205 6.25561 7.60286C6.50475 7.95783 6.67987 8.34352 6.86498 8.7512C6.90054 8.82951 6.93647 8.90864 6.97336 8.98852C6.97282 8.98953 6.97212 8.99046 6.9713 8.99127C7.15692 9.26764 7.18442 9.61346 7.13527 9.96236C7.20463 9.97841 7.27477 9.99212 7.34496 10.0058C7.36799 10.0103 7.39103 10.0148 7.41405 10.0194C7.4718 9.65333 7.72377 9.40789 8.11908 9.33467C8.22427 9.23911 8.36452 9.18411 8.51508 9.18411H8.51852L8.69658 9.1848C8.85126 9.18414 8.99991 9.24469 9.11011 9.35324C9.16007 9.40279 9.2004 9.46118 9.22905 9.52546C9.66046 9.4818 10.3218 9.4378 10.769 9.41064C10.2881 8.23674 9.73849 7.38699 9.17714 6.7813C8.92861 6.77546 8.72786 6.68024 8.62577 6.51455C8.58864 6.45542 8.5498 6.34989 8.56252 6.2148C7.58764 5.44342 6.65161 5.28805 6.08374 5.28805C5.73792 5.28805 5.52858 5.34202 5.52858 5.34202ZM8.93205 10.115L8.93411 9.75542C8.93389 9.72445 8.92752 9.69382 8.91538 9.66533C8.90323 9.63683 8.88555 9.61103 8.86336 9.58941C8.84117 9.5678 8.81491 9.5508 8.78611 9.53941C8.7573 9.52802 8.72652 9.52246 8.69555 9.52305L8.51646 9.52236H8.51508C8.47057 9.522 8.42685 9.53403 8.38878 9.5571C8.35072 9.58017 8.31982 9.61337 8.29955 9.65299C8.06064 9.6688 7.74714 9.75199 7.74508 10.182V10.1829C7.74507 10.2558 7.74502 10.6461 8.22255 10.6475L8.33736 10.6478C8.9295 10.6478 8.92964 10.6186 8.93205 10.1153L8.93205 10.115ZM2.51836 10.2697C2.35817 10.6853 3.48533 11.4095 3.48533 11.4095C3.57238 11.3932 3.63554 11.3317 3.70759 11.2615C3.8185 11.1536 3.95046 11.0251 4.22302 11.0091C4.17833 11.0063 4.12917 11.0074 4.10099 11.0211C3.87239 10.391 3.47777 9.80836 3.26395 9.59592C3.11442 9.44742 3.03674 9.39346 2.95802 9.34636L3.06389 9.1298C3.17492 9.19305 3.36983 9.37971 3.58536 9.65986C4.98717 8.36324 5.55367 7.63999 5.74102 7.37427C5.53614 7.09377 5.33952 6.86586 5.16214 6.69399C4.99471 6.53226 4.81146 6.40613 4.65875 6.30102C4.55375 6.22875 4.46318 6.16641 4.40211 6.10927C4.40644 6.09656 4.41053 6.08216 4.41458 6.06789C4.41535 6.06517 4.41612 6.06246 4.41689 6.05977C4.18099 6.84835 3.42604 8.39027 2.93854 9.38594C2.72561 9.82082 2.56371 10.1515 2.51836 10.2697ZM4.68138 11.159C4.85924 10.946 5.07068 10.6929 5.33402 10.5502C5.74102 10.3291 6.03733 10.1239 6.25492 9.93624C6.0253 9.86577 5.79224 9.78911 5.55436 9.70214C4.9803 9.49383 4.59564 9.3278 4.3918 9.23464C4.17463 9.44695 3.95449 9.6562 3.73145 9.86233C3.97819 10.2224 4.17932 10.6116 4.33027 11.0211L4.32511 11.0204C4.34239 11.052 4.30185 11.1374 4.25831 11.2291C4.19787 11.3565 4.13165 11.496 4.20617 11.5206C4.22004 11.5252 4.23453 11.5276 4.24914 11.5278C4.37334 11.5278 4.51216 11.3616 4.68138 11.159ZM5.62827 9.51239C5.89169 9.60809 6.15799 9.69568 6.4268 9.77502C6.64611 9.54986 6.74717 9.35461 6.78499 9.19442C6.49417 8.55883 6.18652 8.02361 5.89124 7.58946C5.70664 7.84142 5.31133 8.32474 4.54786 9.08099C4.90283 9.23741 5.26319 9.3813 5.62827 9.51239ZM10.2438 18.0621L9.08261 17.7242C9.08261 17.7242 9.46589 17.1491 10.3091 16.4596C9.97767 16.5443 9.64816 16.6365 9.32083 16.736C8.77186 16.8982 8.20983 17.0625 7.59486 17.1753C7.42024 17.4063 7.26452 17.6036 7.15933 17.7126C6.72655 18.1632 7.17961 18.5657 7.3972 18.6324C7.61514 18.6984 10.6408 18.9518 10.6408 18.9518C10.6408 18.9518 11.0114 18.6424 11.4899 18.4392C11.2764 18.014 11.055 17.7181 10.8801 17.5259C10.6632 17.6912 10.4222 17.8855 10.2438 18.0621ZM10.2245 15.9666C10.7849 15.8288 11.3383 15.7759 11.8862 15.7759C12.2272 15.7785 12.5678 15.7982 12.9068 15.835C13.1189 15.4067 13.2152 15.0282 13.2578 14.7395L13.1705 14.274C11.9168 13.9695 11.1455 12.9245 11.5868 12.2469C11.9818 11.6405 11.5146 10.9558 11.3386 10.7341H9.15342C9.02727 10.9249 8.78561 10.985 8.33771 10.985L8.2222 10.9847C7.74027 10.9833 7.42608 10.6873 7.4058 10.2253C7.38619 10.2216 7.36664 10.2179 7.34709 10.2142C7.26656 10.1989 7.18614 10.1836 7.10261 10.1648C7.01599 10.555 6.8472 10.9341 6.69664 11.2085C5.84311 12.7581 6.73617 15.0382 6.73617 15.0382C5.91083 15.6731 4.08277 16.0306 4.08277 16.0306C3.45852 19.3038 4.57433 20.4911 5.37492 20.9177L5.39349 20.9263C5.47839 20.3794 5.60352 19.9146 5.69495 19.6207C5.69163 19.6198 5.68841 19.6192 5.68507 19.6185C5.68219 19.618 5.67923 19.6174 5.67605 19.6166C5.36599 19.5348 5.02911 19.3667 4.90811 19.0222C4.66267 18.3265 5.13155 16.761 5.13155 16.761C5.46705 16.8009 5.78399 16.8188 6.08477 16.8188C7.28468 16.8188 8.23724 16.5368 9.17588 16.259C9.52339 16.1562 9.869 16.0539 10.2245 15.9666ZM12.5579 16.824C12.6243 16.8305 12.8333 16.8484 13.1292 16.8484C13.65 16.8493 14.1694 16.7947 14.6785 16.6854L14.4204 13.6989C14.09 13.9086 13.6988 13.9516 13.4592 13.9533L13.8267 15.9127L13.7153 15.9708C13.1708 16.2547 12.5363 16.6346 12.4613 16.7538C12.4555 16.7765 12.5266 16.8106 12.5579 16.824ZM19.4113 21.5131C19.7866 21.2728 20.0304 20.8472 20.1572 20.5671C19.2964 19.5448 19.7695 18.2426 20.0211 17.5502C20.0518 17.4657 20.0792 17.3902 20.1005 17.3255C20.3201 16.6631 20.0008 16.2365 20.0008 16.2365C19.8365 16.1987 19.6846 16.1887 19.5395 16.1887C19.4514 16.1887 19.3658 16.1924 19.2816 16.1961C19.1999 16.1996 19.1194 16.2031 19.039 16.2031C18.6822 16.2031 18.3264 16.1337 17.8737 15.691C19.0318 14.9316 19.2834 13.492 18.9252 12.3686H18.9245C18.8424 12.1108 18.7276 11.8695 18.5846 11.657L18.5852 11.6564C18.236 11.139 17.7173 10.7925 17.08 10.7922C17.0603 10.7922 17.0403 10.7938 17.0202 10.7954C17.0082 10.7964 16.9961 10.7974 16.984 10.798C16.9709 10.8105 16.9586 10.8231 16.9464 10.8358C16.9283 10.8544 16.9101 10.8731 16.8888 10.8915C16.6331 11.1156 16.2605 11.3384 15.8689 11.5388C15.8823 11.7122 15.9182 11.8997 15.9552 12.0929C16.0945 12.8206 16.2491 13.6281 15.2701 14.0619C15.1151 14.1307 14.9614 14.1822 14.8095 14.2266L15.034 16.8112C15.6957 17.6318 16.5093 17.8806 17.2401 17.8806C18.2882 17.8806 19.1627 17.3839 19.1627 17.3839C18.4391 19.3973 18.9544 20.7833 19.4113 21.5131ZM20.9995 19.4898C21.0082 19.4963 21.0168 19.5028 21.0252 19.5097C21.1651 19.246 21.3235 18.8548 21.4384 18.2911L21.3858 18.2595C21.0801 18.0624 20.7995 17.829 20.5501 17.5644C20.5414 17.588 20.5333 17.6111 20.5248 17.6353C20.5155 17.6619 20.5058 17.6897 20.4944 17.7205C20.3762 18.0446 20.2634 18.3856 20.205 18.7252C20.4429 18.9841 20.6931 19.2371 20.9698 19.4667C20.9795 19.4749 20.9895 19.4824 20.9995 19.4898ZM4.82279 7.65099C5.05001 7.37462 4.91491 6.69434 4.91491 6.69434C4.91491 6.69434 4.46873 7.04668 4.2666 7.78712C4.2666 7.78711 4.2667 7.78715 4.26689 7.78722L4.26747 7.78745C4.28618 7.79473 4.60302 7.91812 4.82279 7.65099ZM2.80365 10.1445C2.78028 10.3253 2.93256 11.1297 3.09447 10.6083C3.25534 10.0861 2.80365 10.1445 2.80365 10.1445Z" fill="black"/>
</svg>
