<svg width="17" height="20" viewBox="0 0 17 20" fill="none" xmlns="http://www.w3.org/2000/svg">
<path d="M16.0602 4.99157C15.6371 4.01591 15.0271 3.13253 14.2645 2.39128C13.4995 1.64333 12.5976 1.04969 11.608 0.642769C10.5787 0.215755 9.48646 0 8.36049 0C7.23452 0 6.14226 0.215755 5.11293 0.640521C4.11732 1.0518 3.22508 1.64063 2.45646 2.38903C1.6944 3.1307 1.08443 4.01398 0.660748 4.98932C0.222497 6.00067 0 7.07495 0 8.18069C0 9.76739 0.379818 11.3473 1.12597 12.8711C1.72604 14.096 2.56433 15.2894 3.62063 16.4243C5.42533 18.3616 7.31768 19.546 7.85482 19.8629C8.00728 19.9529 8.18117 20.0003 8.35824 20C8.53354 20 8.7066 19.955 8.86167 19.8629C9.39881 19.546 11.2912 18.3616 13.0959 16.4243C14.1522 15.2916 14.9904 14.096 15.5905 12.8711C16.3412 11.3496 16.721 9.77188 16.721 8.18294C16.721 7.0772 16.4985 6.00292 16.0602 4.99157ZM8.36049 18.2762C6.87943 17.3345 1.61816 13.606 1.61816 8.18294C1.61816 6.43218 2.31711 4.78705 3.58692 3.54647C4.86122 2.30363 6.55579 1.61816 8.36049 1.61816C10.1652 1.61816 11.8598 2.30363 13.1341 3.54871C14.4039 4.78705 15.1028 6.43218 15.1028 8.18294C15.1028 13.606 9.84156 17.3345 8.36049 18.2762ZM8.36049 4.40499C6.17598 4.40499 4.40499 6.17597 4.40499 8.36049C4.40499 10.545 6.17598 12.316 8.36049 12.316C10.545 12.316 12.316 10.545 12.316 8.36049C12.316 6.17597 10.545 4.40499 8.36049 4.40499ZM10.1405 10.1405C9.90701 10.3746 9.62956 10.5603 9.32408 10.6868C9.0186 10.8133 8.69113 10.8781 8.36049 10.8776C7.68851 10.8776 7.05697 10.6147 6.58052 10.1405C6.34638 9.907 6.16072 9.62955 6.03421 9.32408C5.9077 9.0186 5.84284 8.69113 5.84335 8.36049C5.84335 7.6885 6.1063 7.05697 6.58052 6.58051C7.05697 6.10406 7.68851 5.84335 8.36049 5.84335C9.03248 5.84335 9.66401 6.10406 10.1405 6.58051C10.6169 7.05697 10.8776 7.6885 10.8776 8.36049C10.8776 9.03247 10.6169 9.66401 10.1405 10.1405Z" fill="white"/>
</svg>
