<svg width="24" height="24" viewBox="0 0 24 24" fill="none" xmlns="http://www.w3.org/2000/svg">
<path fill-rule="evenodd" clip-rule="evenodd" d="M16.2805 2H8.69165C5.54824 2 3 4.68629 3 8V16C3 19.3137 5.54824 22 8.69165 22H16.2805C19.4239 22 21.9722 19.3137 21.9722 16V8C21.9722 4.68629 19.4239 2 16.2805 2ZM4.89722 8C4.89722 5.79086 6.59604 4 8.69165 4H16.2805C18.3761 4 20.075 5.79086 20.075 8V16C20.075 18.2091 18.3761 20 16.2805 20H8.69165C6.59604 20 4.89722 18.2091 4.89722 16V8ZM12.4861 17C9.86657 17 7.74304 14.7614 7.74304 12C7.74304 9.23858 9.86657 7 12.4861 7C15.1056 7 17.2291 9.23858 17.2291 12C17.2291 14.7614 15.1056 17 12.4861 17ZM12.4861 15C14.0578 15 15.3319 13.6569 15.3319 12C15.3319 10.3431 14.0578 9 12.4861 9C10.9144 9 9.64026 10.3431 9.64026 12C9.64026 13.6569 10.9144 15 12.4861 15ZM18.1777 7C18.1777 7.55228 17.753 8 17.2291 8C16.7052 8 16.2805 7.55228 16.2805 7C16.2805 6.44772 16.7052 6 17.2291 6C17.753 6 18.1777 6.44772 18.1777 7Z" fill="white"/>
</svg>
