<svg width="24" height="24" viewBox="0 0 24 24" fill="none" xmlns="http://www.w3.org/2000/svg">
<path fill-rule="evenodd" clip-rule="evenodd" d="M15.9391 11.2922C16.2131 9.37784 16.4871 7.46442 16.7611 5.55194L16.9121 5.56032V6.22578V20.9329C16.9121 21.836 17.1554 22.0793 18.0557 22.0793H21.6542C22.8285 22.0793 22.9991 21.9087 22.9991 20.74V2.34489C23.0026 2.15821 22.9951 1.97149 22.9767 1.78568C22.9749 1.60258 22.9039 1.42694 22.7778 1.29413C22.6517 1.16133 22.48 1.0812 22.2973 1.0699C21.8709 1.04384 21.4359 1.05248 20.9988 1.06117C20.7794 1.06553 20.5596 1.0699 20.34 1.0699H19.5991C19.3735 1.0699 19.1454 1.05223 18.9185 1.03466C18.243 0.982334 17.5786 0.93087 17.024 1.3495L16.7938 1.31228C16.2099 1.21786 15.6707 1.13069 15.1338 1.03914C14.3649 0.907731 14.0042 1.17895 13.898 1.95345C13.6277 3.89203 13.3546 5.82968 13.0788 7.76639C12.4524 12.1058 11.828 16.4453 11.2054 20.7847C11.1243 21.3551 11.3844 21.713 11.9631 21.8388C12.1554 21.8807 12.3542 21.9052 12.5519 21.9296L12.6314 21.9395L12.6754 21.9445C14.3349 22.1326 14.3755 22.1372 14.6305 20.4548C14.957 18.335 15.2523 16.2112 15.5476 14.0881L15.5476 14.088L15.5476 14.0878L15.5476 14.0877L15.5477 14.0876L15.5477 14.0875L15.5477 14.0874L15.5477 14.0873L15.5477 14.0873L15.5477 14.0872L15.5477 14.0871L15.5477 14.0871L15.5477 14.087C15.6773 13.1552 15.8069 12.2234 15.9391 11.2922ZM15.6834 9.32134C15.3012 12.0248 14.9205 14.718 14.5243 17.4574L12.2847 17.1499C12.4623 15.8995 12.6384 14.6512 12.8144 13.4031C13.1789 10.8193 13.5433 8.23661 13.9204 5.63861L16.1572 5.97414C15.9984 7.09321 15.841 8.2066 15.6838 9.31822L15.6836 9.3199L15.6835 9.3205L15.6834 9.3211L15.6834 9.32134ZM17.4629 5.80078H19.6466V17.3652H17.4629V5.80078ZM20.2925 17.354V5.78121H22.4594V17.354H20.2925ZM16.6168 1.8926C16.7491 2.04852 16.6867 2.3698 16.5397 3.12607L16.5396 3.12629C16.5057 3.30099 16.4672 3.49889 16.4256 3.72333L14.2279 3.42136C14.2515 3.26442 14.2732 3.11055 14.2947 2.9591L14.2947 2.95903C14.3496 2.57085 14.4024 2.19847 14.4768 1.83042C14.5019 1.72417 14.6613 1.62911 14.7815 1.57039C14.8728 1.54336 14.9699 1.54336 15.0611 1.57039C15.4333 1.6446 15.7289 1.68076 15.9603 1.70908C16.315 1.75248 16.519 1.77744 16.6168 1.8926ZM19.6754 3.05317V3.05324V3.05331V3.05338V3.05345V3.05352V3.0536C19.6736 3.19443 19.6718 3.33735 19.6718 3.48287H17.4322C17.412 2.97867 17.4185 2.47374 17.4517 1.97022C17.4859 1.87601 17.5428 1.79172 17.6175 1.72488C17.6921 1.65804 17.7821 1.61073 17.8795 1.58717C18.3443 1.54001 18.8127 1.54001 19.2776 1.58717C19.3642 1.60958 19.4438 1.6533 19.5093 1.71433C19.5747 1.77537 19.6238 1.8518 19.6522 1.93667C19.6849 2.30066 19.6803 2.66914 19.6754 3.05304V3.05308V3.05317ZM22.489 3.03697C22.4868 3.17856 22.4846 3.32228 22.4846 3.46889H20.2534C20.2534 3.29761 20.2493 3.12571 20.2453 2.9536C20.2372 2.60875 20.2291 2.26308 20.2534 1.91989C20.2779 1.84145 20.3218 1.77041 20.3809 1.71326C20.44 1.65612 20.5125 1.61469 20.5917 1.59276C21.0969 1.55082 21.6047 1.55082 22.1099 1.59276C22.1973 1.62328 22.2758 1.67503 22.3382 1.74335C22.4007 1.81167 22.4452 1.89443 22.4678 1.9842C22.4999 2.32954 22.4946 2.67632 22.489 3.03697ZM11.9093 19.796C11.9296 19.6653 11.9508 19.5298 11.9743 19.3867L14.1832 19.6859V19.6887C14.147 20.1834 14.0807 20.6755 13.9847 21.1622C13.9345 21.2535 13.8631 21.3315 13.7765 21.3894C13.6899 21.4473 13.5906 21.4835 13.487 21.4949C13.2904 21.5022 13.0946 21.4672 12.8992 21.4323C12.7221 21.4007 12.5453 21.3691 12.3686 21.3691C11.8457 21.3523 11.6612 21.1258 11.7674 20.6197C11.8232 20.3486 11.8644 20.0841 11.9093 19.7962L11.9093 19.7961L11.9093 19.796L11.9093 19.796L11.9093 19.796ZM17.5543 21.4596C17.3873 21.3048 17.4047 20.9511 17.4435 20.1595C17.4505 20.0164 17.4583 19.859 17.4657 19.6859H19.6494C19.6494 19.8641 19.6529 20.0392 19.6564 20.2122V20.2122V20.2122V20.2123V20.2123V20.2123V20.2123C19.6632 20.5521 19.6698 20.8837 19.6494 21.2153C19.6494 21.3096 19.5444 21.4005 19.4465 21.4853L19.4465 21.4853L19.4463 21.4855L19.446 21.4857C19.4193 21.5088 19.3932 21.5315 19.3698 21.5536C19.3391 21.5704 19.2636 21.5704 19.2077 21.5704C18.8881 21.5627 18.6237 21.5676 18.4055 21.5716C17.9443 21.58 17.6892 21.5847 17.5543 21.4596ZM20.3426 21.4705C20.2074 21.3416 20.2177 21.0601 20.2398 20.4568C20.2476 20.2428 20.2569 19.9883 20.2618 19.6859L22.4874 19.6971C22.4874 19.8359 22.4895 19.9729 22.4915 20.1084V20.1085V20.1086V20.1086V20.1087V20.1088V20.1089C22.497 20.4698 22.5024 20.8203 22.4678 21.1678C22.4573 21.2771 22.3331 21.38 22.215 21.4779C22.176 21.5102 22.1377 21.5419 22.1043 21.5732C22.0839 21.5862 22.0424 21.5819 22.0005 21.5776C21.9794 21.5754 21.9581 21.5732 21.9394 21.5732C21.6073 21.5639 21.3382 21.5685 21.1205 21.5721C20.6903 21.5794 20.4608 21.5833 20.3426 21.4705ZM16.2355 5.41493L13.9986 5.11296L14.1412 3.9582L16.3781 4.27695L16.2355 5.41493ZM14.4208 17.9971L14.2782 19.149L12.047 18.8415L12.184 17.6979L14.4208 17.9971ZM22.4371 5.16888H20.2645L20.2673 4.08682H22.4371V5.16888ZM19.6271 19.054H17.4489V17.9803H19.6271V19.054ZM22.4427 19.054H20.2618V17.9747H22.4427V19.054ZM17.4685 4.09521H19.6494V5.19125H17.4685V4.09521ZM1 2.18277V11.5131V21.0112C1 21.7829 1.2796 22.0709 2.05131 22.0821H4.93122H9.56704C10.3975 22.0793 10.6435 21.8417 10.6435 21.0028V2.11567C10.6435 1.3188 10.3695 1.03919 9.54746 1.03919C9.03859 1.03919 8.52971 1.03733 8.02083 1.03547C7.00308 1.03174 5.98532 1.02801 4.96757 1.03919C4.81518 1.04058 4.6621 1.07972 4.50902 1.11886C4.35314 1.15871 4.19725 1.19857 4.04208 1.19857C3.73033 1.18891 3.41926 1.15408 3.1082 1.11924C2.78875 1.08347 2.46932 1.04769 2.14917 1.03919C1.2796 1.01683 1 1.316 1 2.18277ZM10.0871 17.354H4.40277V5.79804H10.0871V17.354ZM3.77087 5.78965V17.3792H1.59835V5.78965H3.77087ZM10.129 3.46335H4.38599C4.38599 3.33429 4.38671 3.20792 4.38742 3.08339V3.08338C4.38951 2.7169 4.3915 2.36627 4.37481 2.00942C4.36362 1.65432 4.54816 1.55646 4.86411 1.55646H9.61736C9.9473 1.55646 10.1234 1.68787 10.129 2.0206V3.46335ZM4.38599 21.0783V19.6803L10.129 19.6663C10.1497 20.1706 10.1422 20.6756 10.1067 21.179C10.0694 21.2728 10.0087 21.3555 9.9304 21.4191C9.85208 21.4827 9.75874 21.5252 9.6593 21.5425C8.05736 21.5593 6.45542 21.5593 4.85627 21.5593H4.85573C4.52859 21.5593 4.38599 21.4195 4.38599 21.0783ZM4.41954 4.08687H10.1039V5.1913H4.41954V4.08687ZM10.0871 19.0624H4.40556V17.9803H10.0871V19.0624ZM2.18272 1.55646C3.99175 1.55646 4.00573 1.55646 3.76248 3.47454H1.55921C1.55921 3.32352 1.55708 3.17274 1.55496 3.02199C1.54978 2.65359 1.5446 2.28538 1.57039 1.91435C1.58078 1.79483 1.7457 1.6729 1.87443 1.57772L1.90312 1.55646C1.94585 1.53417 2.01327 1.5415 2.08159 1.54893C2.11609 1.55268 2.15082 1.55646 2.18272 1.55646ZM1.57878 21.1734C1.54532 20.6718 1.53878 20.1687 1.55921 19.6663L3.81281 19.6635C3.81281 19.804 3.81476 19.9437 3.81671 20.0827C3.82212 20.4694 3.82746 20.8509 3.79044 21.2293C3.77925 21.3524 3.51363 21.5285 3.35426 21.5453C2.90442 21.5929 2.45082 21.5929 2.00098 21.5453C1.90561 21.5224 1.81728 21.4766 1.74369 21.4118C1.6701 21.347 1.61348 21.2651 1.57878 21.1734ZM1.59835 17.9887H3.79603V19.068H1.59835V17.9887ZM3.79603 5.16334H1.57319V4.08966H3.79603V5.16334ZM13.8737 12.0416L13.8738 12.0409L13.8739 12.0401C13.9765 11.3172 14.0773 10.6074 14.1775 9.897C14.194 9.78213 14.2085 9.66683 14.2231 9.55152C14.2602 9.25701 14.2973 8.96246 14.3676 8.67513C14.392 8.56832 14.4804 8.47909 14.5697 8.38893C14.6137 8.34456 14.6579 8.29996 14.6948 8.25293C14.717 8.30198 14.747 8.35188 14.777 8.40173L14.777 8.40175C14.8409 8.50818 14.9047 8.61437 14.8933 8.71148C14.6398 10.6072 14.3685 12.502 14.0796 14.3958C14.0644 14.4989 13.9669 14.5916 13.8702 14.6836L13.8702 14.6837C13.8252 14.7264 13.7804 14.769 13.7441 14.8124L13.5288 14.4769C13.647 13.6375 13.7615 12.8317 13.8737 12.0416ZM18.31 8.70318V11.5216C18.31 11.8036 18.3088 12.0857 18.3076 12.3678C18.3047 13.0447 18.3018 13.7217 18.3156 14.3987C18.3195 14.5126 18.39 14.6266 18.46 14.7396C18.4914 14.7902 18.5226 14.8406 18.5477 14.8908C18.5787 14.8406 18.6193 14.7907 18.6599 14.7407L18.6599 14.7407L18.6599 14.7407L18.6599 14.7407L18.6599 14.7407C18.7436 14.6378 18.8273 14.5349 18.8273 14.4294C18.8441 12.5114 18.8441 10.5952 18.8273 8.68081C18.8254 8.57475 18.7504 8.47895 18.6752 8.38299L18.6752 8.38296C18.6394 8.33727 18.6036 8.29153 18.5756 8.24463C18.546 8.2941 18.5079 8.34329 18.4699 8.39237C18.3898 8.49585 18.31 8.59887 18.31 8.70318ZM21.6012 11.5715V14.4459C21.6012 14.5491 21.5332 14.6497 21.4652 14.7504C21.4337 14.797 21.4023 14.8436 21.3775 14.8904C21.3469 14.8445 21.309 14.7986 21.2712 14.7527L21.2711 14.7526L21.2711 14.7526L21.2711 14.7526C21.1845 14.6475 21.0979 14.5425 21.0979 14.4375C21.0774 12.5194 21.0774 10.6023 21.0979 8.68605C21.0979 8.5928 21.1784 8.50415 21.2635 8.41051C21.311 8.35815 21.36 8.30423 21.3971 8.24707C21.4216 8.29621 21.453 8.34506 21.4843 8.3937C21.5491 8.49452 21.6133 8.59448 21.6152 8.69444C21.6137 8.94478 21.6121 9.19363 21.6105 9.44157C21.6058 10.1545 21.6012 10.86 21.6012 11.5715ZM8.86507 11.9796C9.07919 11.6555 9.19206 11.2751 9.1893 10.8867C9.18209 10.374 8.97542 9.88435 8.61314 9.52155C8.25087 9.15875 7.76149 8.95138 7.24885 8.94343C6.86046 8.94011 6.47986 9.05243 6.1555 9.26608C5.83113 9.47973 5.57768 9.78507 5.42738 10.1432C5.27708 10.5014 5.23674 10.8961 5.3115 11.2773C5.38625 11.6584 5.57272 12.0087 5.84716 12.2835C6.12161 12.5584 6.47163 12.7454 6.85266 12.8207C7.2337 12.896 7.62853 12.8562 7.98689 12.7064C8.34525 12.5566 8.65095 12.3036 8.86507 11.9796ZM5.93236 11.4234C5.86885 11.2519 5.84018 11.0694 5.84804 10.8867V10.8783C5.85671 10.511 6.0076 10.1615 6.2689 9.90334C6.53021 9.64516 6.88154 9.49849 7.24885 9.49425C7.62816 9.50369 7.98888 9.66048 8.25456 9.93137C8.52023 10.2023 8.66997 10.566 8.67203 10.9454C8.66592 11.1333 8.62263 11.3181 8.54468 11.4892C8.46672 11.6603 8.35564 11.8142 8.21786 11.9421C8.08007 12.07 7.91831 12.1694 7.74191 12.2344C7.56551 12.2995 7.37797 12.3289 7.19013 12.321C7.00727 12.3167 6.82711 12.276 6.66017 12.2013C6.49324 12.1265 6.34289 12.0192 6.21792 11.8857C6.09295 11.7521 5.99587 11.5949 5.93236 11.4234ZM7.22691 14.1385C7.08887 14.1385 6.94958 14.1404 6.8104 14.1423C6.53235 14.146 6.25472 14.1497 5.98827 14.1385C5.91232 14.1385 5.83896 14.0702 5.76554 14.0018C5.73084 13.9695 5.69613 13.9372 5.66113 13.912C5.69437 13.8807 5.7273 13.841 5.76013 13.8015L5.76014 13.8015L5.76014 13.8015C5.82673 13.7214 5.89289 13.6418 5.96031 13.6324C6.82428 13.6101 7.68825 13.6129 8.55223 13.6324C8.61108 13.6324 8.66994 13.7033 8.72879 13.7742C8.75661 13.8078 8.78444 13.8413 8.81226 13.8673C8.78121 13.8965 8.75046 13.9332 8.71991 13.9697C8.65692 14.0448 8.59479 14.1189 8.53266 14.1245C8.24767 14.1432 7.96019 14.137 7.67189 14.1308H7.67185C7.52741 14.1277 7.38275 14.1245 7.23809 14.1245L7.22691 14.1385ZM2.93201 14.4151V11.5855C2.93201 11.3433 2.93367 11.1009 2.93534 10.8585C2.94014 10.1576 2.94496 9.456 2.90964 8.75595C2.86937 8.57466 2.79641 8.40222 2.69435 8.24707C2.66128 8.3007 2.61907 8.35404 2.57694 8.40728C2.48727 8.52058 2.39797 8.63342 2.39797 8.74756C2.38492 10.6339 2.38492 12.5241 2.39797 14.4179C2.39797 14.5218 2.48409 14.6311 2.5715 14.742C2.61108 14.7922 2.65092 14.8427 2.68316 14.8932C2.71073 14.8425 2.74593 14.7921 2.78112 14.7418C2.85659 14.6337 2.93201 14.5257 2.93201 14.4151Z" fill="black"/>
</svg>
