<svg width="173" height="24" viewBox="0 0 173 24" fill="none" xmlns="http://www.w3.org/2000/svg">
<path fill-rule="evenodd" clip-rule="evenodd" d="M20.914 9.34953L10.5493 15.3614C10.5493 15.3614 10.0852 11.5901 12.6045 9.68229C14.6819 8.10722 19.588 5.46733 19.588 5.46733" fill="#41285F"/>
<path fill-rule="evenodd" clip-rule="evenodd" d="M2.43868 15.6054C2.68178 16.4706 3.03537 17.2914 3.49946 18.1122C3.69836 18.4671 3.91936 18.7999 4.14035 19.1105L0.0298191 21.5063C0.0298191 21.5063 -0.412174 17.7351 2.10719 15.8494C2.19558 15.7829 2.30608 15.6941 2.43868 15.6054Z" fill="#549B43"/>
<path fill-rule="evenodd" clip-rule="evenodd" d="M26.5495 8.88367C27.3229 13.5423 24.7594 19.2436 20.45 21.7504C14.9029 24.9671 7.80895 23.0592 4.6045 17.4911C1.40005 11.9007 3.30062 4.77964 8.84764 1.56296C14.3946 -1.65372 21.4886 0.254104 24.6931 5.82228C24.7373 5.91102 25.1793 6.68746 25.2014 6.86493L20.7151 9.46046C20.6268 9.28298 20.3395 8.5731 20.2511 8.41781C18.461 5.31205 14.3725 3.91446 11.2786 5.68918C8.18465 7.48608 6.85867 11.9007 8.64874 15.0065C10.4388 18.1122 15.0134 19.5764 18.0853 17.8016C19.0798 17.2249 20.9361 15.8273 21.7538 13.7198C22.8809 10.8137 23.9638 9.92632 26.5495 8.88367Z" fill="#41285F"/>
<path d="M55.7949 0H60.0714V22.2693H56.231L55.7949 18.7752V0ZM46.2432 14.3098C46.2432 12.715 46.4729 11.3183 46.9325 10.1198C47.4014 8.91158 48.0766 7.97403 48.9582 7.30711C49.8491 6.63053 50.9323 6.29223 52.2077 6.29223C53.3988 6.29223 54.3928 6.64502 55.19 7.3506C55.9965 8.04652 56.6296 9.0034 57.0891 10.2213C57.558 11.4294 57.8816 12.8019 58.0597 14.3388V14.7012C57.8816 16.1607 57.558 17.4849 57.0891 18.6737C56.6296 19.8626 55.9965 20.8098 55.19 21.5154C54.3928 22.2113 53.3894 22.5592 52.1796 22.5592C50.9229 22.5592 49.8491 22.2161 48.9582 21.5299C48.0766 20.834 47.4014 19.8867 46.9325 18.6882C46.4729 17.4897 46.2432 16.1317 46.2432 14.6142V14.3098ZM50.4915 14.6142C50.4915 15.4261 50.5806 16.1655 50.7588 16.8324C50.937 17.4994 51.2277 18.031 51.631 18.4273C52.0342 18.8139 52.5782 19.0072 53.2628 19.0072C53.938 19.0072 54.4913 18.8525 54.9227 18.5432C55.3541 18.2243 55.6824 17.7845 55.9074 17.2239C56.1325 16.6633 56.2638 16.0157 56.3013 15.2811V13.7733C56.2826 13.1451 56.2028 12.5893 56.0622 12.106C55.9309 11.6131 55.7433 11.2023 55.4995 10.8737C55.265 10.5354 54.9602 10.2792 54.5851 10.1053C54.2194 9.93129 53.788 9.8443 53.2909 9.8443C52.6157 9.8443 52.0717 10.0424 51.6591 10.4387C51.2465 10.8253 50.9463 11.3569 50.7588 12.0335C50.5806 12.7005 50.4915 13.4592 50.4915 14.3098V14.6142Z" fill="#41285F"/>
<path d="M73.7994 6.5822H78.0478V22.2693H74.0667L73.7994 18.4852V6.5822ZM75.5016 15.2086C75.5016 16.6198 75.2906 17.8812 74.8685 18.9927C74.4559 20.0946 73.8275 20.9644 72.9835 21.6024C72.1488 22.2403 71.0938 22.5592 69.8184 22.5592C68.3178 22.5592 67.0987 22.1098 66.1608 21.2109C65.2324 20.3024 64.7682 18.809 64.7682 16.731V6.5822H69.0165V16.76C69.0165 17.2916 69.1009 17.7265 69.2697 18.0648C69.4479 18.3934 69.6917 18.6351 70.0012 18.7897C70.3201 18.9347 70.6812 19.0072 71.0844 19.0072C71.9003 19.0072 72.538 18.8429 72.9976 18.5142C73.4665 18.1856 73.7947 17.7362 73.9823 17.1659C74.1792 16.5956 74.2777 15.9529 74.2777 15.2376L75.5016 15.2086Z" fill="#41285F"/>
<path d="M93.6046 16.702C93.6046 16.2284 93.5061 15.8176 93.3091 15.4696C93.1122 15.1217 92.7324 14.793 92.1697 14.4837C91.6164 14.1648 90.7958 13.8265 89.7079 13.4689C88.7888 13.1596 87.912 12.8116 87.0773 12.425C86.252 12.0287 85.5205 11.5696 84.8828 11.0477C84.2451 10.5257 83.7433 9.91679 83.3776 9.22088C83.0118 8.52496 82.829 7.71306 82.829 6.78517C82.829 5.59632 83.1572 4.56211 83.8137 3.68255C84.4702 2.79333 85.3705 2.10224 86.5146 1.6093C87.6681 1.11636 88.9858 0.869894 90.4675 0.869894C91.9868 0.869894 93.3138 1.14536 94.4486 1.69629C95.5834 2.24723 96.4602 3.01563 97.0792 4.00151C97.7075 4.97773 98.0217 6.10859 98.0217 7.3941H93.6186C93.6186 6.82383 93.5014 6.32123 93.2669 5.88628C93.0325 5.44167 92.6761 5.09855 92.1978 4.85691C91.7289 4.60561 91.1287 4.47995 90.3972 4.47995C89.6938 4.47995 89.1077 4.58627 88.6388 4.79891C88.1699 5.01156 87.8182 5.29185 87.5837 5.63981C87.3587 5.98777 87.2461 6.37922 87.2461 6.81417C87.2461 7.26845 87.4009 7.66473 87.7103 8.00302C88.0198 8.34132 88.47 8.65545 89.0608 8.94541C89.6516 9.22571 90.3691 9.50117 91.2131 9.77181C92.7042 10.2358 93.9562 10.7819 94.9691 11.4101C95.9819 12.0384 96.7416 12.7826 97.248 13.6428C97.7638 14.4934 98.0217 15.5034 98.0217 16.673C98.0217 17.9102 97.7122 18.9685 97.0933 19.8481C96.4837 20.7276 95.6209 21.3994 94.5049 21.8633C93.3889 22.3273 92.0759 22.5592 90.566 22.5592C89.5344 22.5592 88.5216 22.4239 87.5275 22.1533C86.5427 21.873 85.6471 21.4477 84.8406 20.8775C84.0434 20.2975 83.4057 19.5678 82.9274 18.6882C82.4492 17.8087 82.21 16.7648 82.21 15.5566H86.6412C86.6412 16.1849 86.7303 16.7165 86.9085 17.1514C87.0961 17.5767 87.3587 17.9246 87.6963 18.1953C88.0433 18.4659 88.4559 18.6641 88.9342 18.7897C89.4219 18.9057 89.9658 18.9637 90.566 18.9637C91.2694 18.9637 91.8414 18.867 92.2822 18.6737C92.7324 18.4707 93.0653 18.2001 93.281 17.8618C93.4967 17.5139 93.6046 17.1272 93.6046 16.702Z" fill="#41285F"/>
<path d="M106.531 22.2693H102.282V6.5822H106.278L106.531 9.8588V22.2693ZM104.772 13.9618C104.772 12.4733 104.997 11.154 105.448 10.0038C105.898 8.85359 106.564 7.94986 107.445 7.29261C108.336 6.62569 109.438 6.29223 110.751 6.29223C112.101 6.29223 113.203 6.72235 114.057 7.58258C114.91 8.43314 115.337 9.83947 115.337 11.8016V22.2693H111.089V12.338C111.089 11.6711 110.999 11.1588 110.821 10.8012C110.652 10.4339 110.404 10.1826 110.076 10.0473C109.747 9.91196 109.354 9.8443 108.894 9.8443C108.397 9.8443 107.961 9.94579 107.586 10.1488C107.211 10.3421 106.901 10.6224 106.657 10.9897C106.414 11.3569 106.231 11.7919 106.109 12.2945C105.996 12.7874 105.94 13.3239 105.94 13.9038L104.772 13.9618ZM113.438 13.7878C113.428 12.367 113.639 11.0911 114.071 9.96029C114.512 8.82942 115.168 7.93537 116.04 7.27811C116.912 6.62086 117.996 6.29223 119.29 6.29223C120.265 6.29223 121.119 6.48554 121.85 6.87216C122.582 7.25878 123.149 7.89187 123.552 8.77143C123.956 9.65099 124.157 10.8302 124.157 12.309V22.2693H119.881V12.2945C119.881 11.6179 119.792 11.1056 119.613 10.7577C119.445 10.4097 119.196 10.1729 118.868 10.0473C118.549 9.91196 118.164 9.8443 117.714 9.8443C117.245 9.8443 116.837 9.93612 116.49 10.1198C116.153 10.3034 115.867 10.5692 115.632 10.9172C115.407 11.2555 115.234 11.6566 115.112 12.1205C114.999 12.5748 114.943 13.0726 114.943 13.6138L113.438 13.7878Z" fill="#41285F"/>
<path d="M137.055 11.8161C137.055 11.1105 136.886 10.5499 136.549 10.1343C136.211 9.71865 135.672 9.51084 134.931 9.51084C134.509 9.51084 134.143 9.58333 133.834 9.72831C133.524 9.8733 133.29 10.0811 133.13 10.3517C132.971 10.6127 132.891 10.9365 132.891 11.3231H128.643C128.643 10.3952 128.91 9.55434 129.445 8.80043C129.979 8.03685 130.734 7.42793 131.71 6.97365C132.685 6.51937 133.834 6.29223 135.156 6.29223C136.338 6.29223 137.393 6.50004 138.321 6.91566C139.25 7.32161 139.981 7.93537 140.516 8.75693C141.05 9.5785 141.318 10.6079 141.318 11.8451V18.3983C141.318 19.3261 141.369 20.0607 141.472 20.602C141.585 21.1433 141.74 21.6169 141.937 22.0228V22.2693H137.66C137.454 21.8247 137.299 21.2689 137.196 20.602C137.102 19.9351 137.055 19.2585 137.055 18.5722V11.8161ZM137.632 15.1941H135.466C134.434 15.1941 133.688 15.4261 133.229 15.8901C132.769 16.3443 132.54 16.8953 132.54 17.5429C132.54 18.0358 132.708 18.4418 133.046 18.7607C133.384 19.0797 133.838 19.2392 134.411 19.2392C135.001 19.2392 135.508 19.1232 135.93 18.8912C136.361 18.6496 136.689 18.3644 136.915 18.0358C137.149 17.6975 137.262 17.3882 137.252 17.1079L138.349 18.9927C138.199 19.3793 137.998 19.7804 137.745 20.196C137.501 20.6117 137.187 20.9983 136.802 21.3559C136.417 21.7135 135.949 22.0035 135.395 22.2258C134.851 22.4481 134.209 22.5592 133.468 22.5592C132.511 22.5592 131.639 22.3611 130.852 21.9648C130.064 21.5589 129.44 21.0031 128.981 20.2975C128.521 19.5823 128.291 18.7655 128.291 17.8473C128.291 16.2042 128.882 14.9332 130.064 14.0343C131.245 13.1257 133.004 12.6715 135.339 12.6715H137.604L137.632 15.1941Z" fill="#41285F"/>
<path d="M150.333 22.2693H146.085V6.5822H150.08L150.333 10.1923V22.2693ZM154.778 10.6997C154.572 10.6707 154.328 10.6465 154.047 10.6272C153.766 10.5982 153.512 10.5837 153.287 10.5837C152.546 10.5837 151.937 10.7045 151.459 10.9462C150.98 11.1781 150.624 11.5261 150.389 11.99C150.155 12.454 150.028 13.0291 150.01 13.7153L149.18 13.3384C149.18 11.9755 149.348 10.7625 149.686 9.69932C150.024 8.63611 150.521 7.80488 151.177 7.20562C151.834 6.5967 152.631 6.29223 153.569 6.29223C153.784 6.29223 154.009 6.30673 154.244 6.33573C154.488 6.36472 154.685 6.41305 154.835 6.48071L154.778 10.6997Z" fill="#41285F"/>
<path d="M166.734 9.77181H157.745V6.5822H166.734V9.77181ZM164.16 2.71117V17.3689C164.16 17.7942 164.211 18.1228 164.314 18.3548C164.427 18.5867 164.6 18.7462 164.835 18.8332C165.069 18.9202 165.36 18.9637 165.707 18.9637C165.96 18.9637 166.185 18.954 166.382 18.9347C166.579 18.9154 166.748 18.8912 166.889 18.8622L166.875 22.1678C166.528 22.2934 166.148 22.3901 165.735 22.4578C165.332 22.5254 164.877 22.5592 164.371 22.5592C163.461 22.5592 162.668 22.4046 161.993 22.0953C161.327 21.7763 160.812 21.2737 160.446 20.5875C160.089 19.8916 159.911 18.983 159.911 17.8618V2.71117H164.16Z" fill="#41285F"/>
<path d="M44.2432 22.594H33.4255V18.926H44.2432V22.594ZM34.8463 22.594H30.415V1.4846H34.8463V22.594ZM42.8365 13.5181H33.4255V9.96607H42.8365V13.5181ZM44.2292 5.16715H33.4255V1.4846H44.2292V5.16715Z" fill="#549B43"/>
<circle cx="171" cy="20" r="2" fill="#41285F"/>
</svg>
