<svg width="24" height="24" viewBox="0 0 24 24" fill="none" xmlns="http://www.w3.org/2000/svg">
<path fill-rule="evenodd" clip-rule="evenodd" d="M11.998 4.00614H8.15674C7.43607 4.00614 7.0231 3.63872 7.0231 3.0142C7.0231 2.38969 7.44113 2.0081 8.15775 2.00607C10.7219 1.99798 13.2824 1.99798 15.8392 2.00607C16.5548 2.00607 16.9738 2.3988 16.9728 3.01825C16.9718 3.63771 16.5558 4.00817 15.8382 4.01019C14.5618 4.00817 13.2774 4.00614 11.998 4.00614ZM12.0204 5.52013H19.8607C21.6685 5.52013 22.955 6.71653 22.9732 8.52226C23.0089 12.0123 23.0089 15.5023 22.9732 18.9923C22.9539 20.7626 21.6634 21.9903 19.8921 21.9944C14.6288 22.0072 9.36846 22.0072 4.11119 21.9944C2.31457 21.9913 1.03518 20.7423 1.02101 18.9487C0.992665 15.477 0.993002 12.0035 1.02202 8.52833C1.03922 6.72564 2.32571 5.52317 4.13042 5.52115C6.76007 5.5171 9.39005 5.51676 12.0204 5.52013ZM11.9981 7.51615H4.30553C3.32473 7.51615 2.99779 7.84208 2.99779 8.81478V18.6825C2.99779 19.6492 3.34396 19.9984 4.30553 19.9984H19.6907C20.6522 19.9984 20.9994 19.6502 20.9994 18.6825V8.81478C20.9994 7.84511 20.6695 7.51717 19.6907 7.51615C17.1265 7.5148 14.5623 7.5148 11.9981 7.51615ZM13.009 12.7415V10.8123H10.9694V12.7426C10.8111 12.7426 10.6562 12.7411 10.5039 12.7396C10.112 12.7358 9.73701 12.7321 9.3631 12.7547C9.23557 12.7628 9.01795 12.9258 9.01087 13.027C8.98546 13.4334 8.98874 13.8404 8.9922 14.27C8.99342 14.4223 8.99467 14.5775 8.99467 14.7366H11.0038V16.7194H13.012V14.7345H15.003C15.003 14.5676 15.0016 14.406 15.0003 14.2478C14.9971 13.8794 14.9942 13.5298 15.009 13.1758C15.0222 12.8509 14.919 12.7213 14.5799 12.7355C14.2216 12.7517 13.8627 12.7482 13.4938 12.7447C13.3343 12.7431 13.173 12.7415 13.009 12.7415Z" fill="black"/>
</svg>
