<svg width="24" height="24" viewBox="0 0 24 24" fill="none" xmlns="http://www.w3.org/2000/svg">
<path fill-rule="evenodd" clip-rule="evenodd" d="M17.1982 3.14566L17.4914 3.72515C17.5878 3.65648 17.6981 3.60999 17.8145 3.589C17.9309 3.56801 18.0506 3.57305 18.1648 3.60376C18.386 3.6531 18.5964 3.74236 18.7855 3.86716C19.1049 4.07651 19.4006 4.31997 19.6674 4.59324C20.0838 5.01561 20.6439 5.26582 21.2363 5.29412C21.8317 5.31446 22.421 5.16852 22.9382 4.87268C22.9465 4.86794 22.9535 4.86197 22.9632 4.85382C22.9722 4.84623 22.9834 4.83674 23 4.82458C22.7381 4.86811 22.4691 4.82636 22.2327 4.70547C21.7078 4.45871 21.2211 4.13782 20.7874 3.75264V3.72286L21.5043 3.8809C21.2712 3.5159 20.9518 3.21385 20.5744 3.00136C20.3173 2.84518 20.0522 2.70056 19.7872 2.556C19.6791 2.49703 19.571 2.43808 19.4635 2.37836L19.8621 2.18825C19.0512 1.70267 17.6976 2.20428 17.1982 3.14566ZM16.0791 2.46912C15.639 2.17443 15.1213 2.01689 14.5917 2.01644C13.8821 2.01644 13.2015 2.29783 12.6992 2.79892C12.1968 3.3 11.9136 3.97987 11.9118 4.68942C11.9109 5.21908 12.0671 5.73712 12.3607 6.178C12.6543 6.61887 13.072 6.96277 13.561 7.1662C14.0501 7.36963 14.5885 7.42344 15.1081 7.32083C15.6277 7.21822 16.1053 6.9638 16.4803 6.58975C16.8553 6.21569 17.1109 5.73882 17.2149 5.21945C17.3188 4.70008 17.2664 4.16155 17.0642 3.67199C16.862 3.18242 16.5192 2.76382 16.0791 2.46912ZM21.4539 12.3259C20.8395 12.5095 20.3037 12.8923 19.9307 13.4138C19.6736 13.764 19.3647 14.0729 19.0145 14.33C18.9625 14.3647 18.9761 14.3994 18.9914 14.438L18.9939 14.4445C19.1134 14.7597 19.1904 15.0894 19.2229 15.4249C19.2617 15.9841 19.1334 16.5421 18.8542 17.0282C18.5333 17.6022 18.1533 18.1411 17.7204 18.6361L17.6196 18.7529C17.6621 18.8148 17.7055 18.8749 17.7486 18.9346L17.7486 18.9346C17.838 19.0583 17.9257 19.1797 17.9998 19.3095C18.1145 19.5092 18.2141 19.7163 18.3134 19.9224L18.3134 19.9225L18.3134 19.9225L18.3135 19.9226C18.3225 19.9413 18.3315 19.96 18.3405 19.9788C18.3552 20.0092 18.3699 20.0396 18.3846 20.0699C18.4123 20.139 18.4308 20.2114 18.4396 20.2852C18.4592 20.3547 18.462 20.4279 18.4479 20.4987C18.4338 20.5695 18.4032 20.6359 18.3585 20.6926C18.3139 20.7494 18.2564 20.7947 18.1909 20.825C18.1254 20.8553 18.0537 20.8697 17.9815 20.867C17.7304 20.8849 17.4798 20.8267 17.2623 20.6998C16.9357 20.5128 16.6455 20.2683 16.4057 19.9783C16.2062 19.7447 16.0165 19.504 15.8257 19.2617L15.8257 19.2617C15.7733 19.1952 15.7209 19.1287 15.6681 19.0621C15.6342 19.018 15.6132 18.9652 15.6075 18.9098C15.6019 18.8544 15.6118 18.7985 15.6361 18.7483C15.7006 18.5692 15.7851 18.3978 15.888 18.2376C16.1054 17.9235 16.3358 17.6173 16.5655 17.312C16.6408 17.212 16.7159 17.1122 16.7905 17.0122C16.8434 16.9415 16.8981 16.8718 16.9528 16.8019C17.0544 16.6722 17.1563 16.5421 17.2486 16.4052C17.3356 16.2917 17.3988 16.1618 17.4342 16.0232C17.4697 15.8846 17.4766 15.7403 17.4547 15.5989C17.4214 15.4741 17.3777 15.3523 17.3242 15.2348C17.7479 15.1844 18.1625 15.0744 18.4282 14.669C18.4017 14.6768 18.3757 14.686 18.3503 14.6965C18.0601 14.827 17.7507 14.9098 17.4341 14.9416C17.0841 14.9804 16.7302 14.9226 16.4108 14.7744C16.0913 14.6262 15.8186 14.3933 15.6223 14.101C15.4965 13.9132 15.3833 13.7173 15.2833 13.5146C15.2582 13.4688 15.2375 13.4436 15.1826 13.4482C15.1469 13.4512 15.093 13.4503 15.0326 13.4493H15.0326H15.0326H15.0326L15.0325 13.4493C14.9998 13.4488 14.9652 13.4482 14.9306 13.4482L15.0406 13.6085C15.096 13.688 15.1556 13.7645 15.2192 13.8376C15.2948 13.92 15.2673 13.9887 15.194 14.0277C15.074 14.0964 14.9464 14.1509 14.8138 14.1903C14.6771 14.2182 14.5385 14.2358 14.3992 14.243C14.4311 14.3223 14.4694 14.3989 14.5137 14.472C14.6374 14.6621 14.7634 14.85 14.9031 15.0286C14.9895 15.134 15.0408 15.2637 15.0497 15.3997C15.0594 15.8375 14.9758 16.2724 14.8046 16.6755C14.6902 17.0117 14.5121 17.3227 14.2801 17.5917C14.1925 17.687 14.0932 17.7709 13.9846 17.8413C13.879 17.9155 13.753 17.9554 13.6239 17.9554C13.4948 17.9554 13.3688 17.9155 13.2632 17.8413C13.095 17.7408 12.9624 17.5904 12.8836 17.411C12.8047 17.2317 12.7837 17.0322 12.8234 16.8404C12.9045 16.3614 13.0949 15.9076 13.38 15.5142C13.4006 15.4805 13.4227 15.4483 13.4464 15.4139L13.4624 15.3905C13.1025 15.0685 12.7685 14.7185 12.4638 14.3438C12.4319 14.3184 12.3923 14.3046 12.3515 14.3048C12.0208 14.2899 11.6959 14.2121 11.3941 14.0758C11.3678 14.0643 11.3425 14.0505 11.3185 14.0346C11.2899 14.0232 11.2645 14.005 11.2445 13.9815C11.2246 13.9581 11.2107 13.93 11.2042 13.8999C11.1976 13.8698 11.1985 13.8386 11.2069 13.8089C11.2153 13.7793 11.2308 13.7522 11.2521 13.7299C11.3397 13.6376 11.4347 13.5526 11.5361 13.4757C11.5682 13.4499 11.6018 13.4262 11.6369 13.4047C11.6304 13.3917 11.6243 13.3787 11.6183 13.3659L11.6183 13.3659C11.6094 13.347 11.6007 13.3285 11.5911 13.3108C11.5378 13.215 11.5164 13.1048 11.53 12.9961C11.5435 12.8873 11.5914 12.7857 11.6667 12.7061C11.7989 12.563 11.9607 12.4505 12.1408 12.3763C12.1742 12.3615 12.2028 12.3377 12.2233 12.3075C12.5806 11.6822 13.149 11.2047 13.8266 10.9607C14.1269 10.8542 14.4327 10.764 14.7428 10.6905C14.8023 10.6744 14.8275 10.6538 14.8298 10.592C14.8298 10.5215 14.8367 10.4511 14.8436 10.3803C14.8499 10.3153 14.8562 10.25 14.8573 10.1843C14.8544 10.1661 14.8554 10.1474 14.8602 10.1296C14.865 10.1118 14.8735 10.0952 14.8852 10.0809C14.8969 10.0666 14.9114 10.055 14.928 10.0467C14.9445 10.0385 14.9626 10.0338 14.981 10.0331C15.4571 9.93169 15.8831 9.66768 16.1858 9.28641C16.2113 9.25675 16.2294 9.22141 16.2385 9.18334C16.2215 9.19584 16.2049 9.20868 16.1884 9.22146L16.1883 9.2215L16.1883 9.22151C16.1624 9.24152 16.1367 9.26138 16.1102 9.27954C15.7496 9.52862 15.3445 9.70592 14.9169 9.80177C14.0717 10.0014 13.2033 10.0854 12.3355 10.0514C12.15 10.0514 11.9622 10.0354 11.7744 10.0194L11.7743 10.0194C11.5865 10.0033 11.5453 10.0446 11.5178 10.198C11.5178 10.2225 11.5106 10.2471 11.5025 10.275C11.4984 10.2888 11.4941 10.3035 11.4903 10.3194C11.3362 10.0582 11.0839 9.99512 10.8309 9.93187L10.778 9.91858C10.6933 9.89741 10.6072 9.88097 10.5209 9.86449L10.5209 9.86449C10.4485 9.85066 10.376 9.83681 10.3039 9.82009C10.0176 9.75367 9.95571 9.61853 10.0748 9.362L10.1115 9.27725C10.0806 9.29142 10.0511 9.30522 10.0226 9.31856L10.0226 9.31858L10.0226 9.31858L10.0225 9.31862L10.0225 9.31862C9.94975 9.35271 9.88347 9.38377 9.816 9.4101C9.62589 9.48568 9.43578 9.55898 9.24338 9.62082C9.18018 9.62694 9.11639 9.62071 9.05556 9.6025C9.09261 9.55773 9.13579 9.5184 9.18383 9.48568C9.55488 9.3139 9.93052 9.14669 10.3062 8.97949L10.3886 8.94284C10.2951 8.79583 10.1709 8.67081 10.0244 8.57637L10.2672 8.59469C10.9605 8.66247 11.6601 8.62541 12.3424 8.48475C12.5497 8.43512 12.752 8.3669 12.9471 8.2809C13.2161 8.1789 13.4369 7.97938 13.5655 7.72202C13.6252 7.7347 13.6844 7.74836 13.7433 7.76195L13.7434 7.76197C13.8654 7.79012 13.9863 7.81802 14.1083 7.83655C14.696 7.94625 15.3035 7.85508 15.8331 7.57772C15.9221 7.52906 16.008 7.47363 16.0941 7.41813L16.0941 7.41812C16.1741 7.36652 16.2542 7.31486 16.337 7.26851C16.5266 7.15397 16.7431 7.09155 16.9645 7.08756C17.0719 7.08556 17.1778 7.11207 17.2716 7.16438C17.3654 7.21669 17.4436 7.29293 17.4982 7.38532C17.625 7.60547 17.701 7.85122 17.7204 8.10453C17.8337 8.87013 17.8659 9.64554 17.8166 10.4179V10.4752C17.882 10.4845 17.9472 10.4932 18.0122 10.5018C18.154 10.5207 18.2945 10.5394 18.4327 10.5645C19.2622 10.6815 20.0495 11.0035 20.7232 11.5013C20.9944 11.7033 21.2271 11.9524 21.4103 12.2365L21.4539 12.3259ZM15.4024 8.29693L15.3887 8.2809C15.2287 8.32386 15.0687 8.36754 14.9087 8.41123L14.9086 8.41125L14.9085 8.41127L14.9084 8.41129L14.9084 8.4113L14.9084 8.4113L14.9084 8.4113C14.5736 8.50272 14.2384 8.59422 13.9022 8.67944C13.3307 8.83267 12.7436 8.92027 12.1523 8.94055C11.6339 8.9582 11.1221 9.06272 10.6383 9.24976L10.5558 9.28641C10.5853 9.29641 10.6164 9.30031 10.6474 9.29786L11.953 9.21541C13.003 9.13949 14.0339 8.8951 15.0062 8.49162C15.0922 8.45665 15.1753 8.41335 15.2587 8.36995L15.2587 8.36995C15.3064 8.34512 15.3541 8.32027 15.4024 8.29693ZM14.9581 13.084C14.7582 12.6298 14.4231 12.2482 13.9984 11.9915C13.8206 11.8869 13.6157 11.8375 13.4097 11.8494C13.1637 11.8736 12.9311 11.9728 12.7432 12.1335C12.894 12.0955 13.047 12.0672 13.2013 12.0487C13.5285 12.0466 13.8438 12.1714 14.0808 12.3969C14.1341 12.4415 14.1863 12.4856 14.2379 12.5292L14.2382 12.5294C14.406 12.6711 14.5677 12.8077 14.7428 12.9443C14.788 12.9786 14.8386 13.0097 14.8886 13.0406C14.9121 13.055 14.9354 13.0694 14.9581 13.084ZM14.3832 14.2292C14.2847 13.6589 13.861 13.1344 13.4876 13.1L14.3832 14.2292ZM5.44581 19.8982C5.58475 19.9013 5.72329 19.9143 5.86038 19.9371C6.04682 19.9713 6.22836 20.0282 6.40093 20.1066C6.46254 20.1351 6.51702 20.177 6.56045 20.2292C6.60388 20.2814 6.63517 20.3426 6.65204 20.4083C6.66892 20.4741 6.67097 20.5428 6.65805 20.6094C6.64512 20.6761 6.61754 20.739 6.5773 20.7937C6.4866 20.9307 6.3682 21.0471 6.22972 21.1355C6.09124 21.2239 5.93577 21.2822 5.77335 21.3068C5.36177 21.3872 4.93663 21.3636 4.53649 21.2381C4.26844 21.1496 4.0425 20.9653 3.90203 20.7204C3.71192 20.4181 3.5264 20.1135 3.36606 19.8042C3.23986 19.5973 3.20081 19.3487 3.25748 19.1131C3.31415 18.8774 3.46191 18.6737 3.6684 18.5468C3.82391 18.4417 3.98967 18.3527 4.16315 18.2811C4.5675 18.1269 4.91622 17.8548 5.16408 17.5C5.30639 17.286 5.39515 17.0409 5.4229 16.7854C5.42824 16.7493 5.42546 16.7125 5.41476 16.6776C5.40407 16.6428 5.38572 16.6107 5.36106 16.5838C5.28839 16.4968 5.21519 16.4101 5.14197 16.3234L5.14196 16.3234C4.91284 16.052 4.68356 15.7805 4.47007 15.4959C3.97959 14.8325 3.71251 14.0304 3.70734 13.2054V12.8756C3.74061 11.9941 3.61969 11.1135 3.35003 10.2736C3.22663 9.87092 3.08366 9.474 2.9407 9.07712C2.882 8.91414 2.8233 8.75117 2.76596 8.58782C2.76596 8.56909 2.7569 8.55037 2.74619 8.52823C2.73987 8.51516 2.73297 8.5009 2.72702 8.48475L2.80489 8.493C2.95005 8.50843 3.0882 8.52312 3.22634 8.53285C3.74463 8.58932 4.26889 8.54894 4.77241 8.41374C5.05889 8.33803 5.32138 8.19063 5.53514 7.98542C5.55842 7.96482 5.58883 7.95413 5.61988 7.95565C6.60868 7.94332 7.58258 8.19727 8.43945 8.69089C8.542 8.75275 8.64068 8.82083 8.73492 8.89474C8.75253 8.91275 8.77578 8.92417 8.8008 8.92708C8.82581 8.93 8.85107 8.92424 8.87235 8.91077C9.0782 8.80059 9.30407 8.73283 9.53658 8.7115C9.62359 8.69889 9.71236 8.70751 9.79532 8.73662C9.87828 8.76574 9.95296 8.81448 10.013 8.87871C10.0199 8.88794 10.0251 8.89776 10.0306 8.90815C10.036 8.91839 10.0417 8.92919 10.0496 8.94055C9.99063 8.9654 9.93241 8.98919 9.8748 9.01274C9.76247 9.05864 9.65246 9.1036 9.54346 9.15356C9.37854 9.22915 9.1976 9.32535 9.0281 9.42155C8.9534 9.46664 8.88553 9.52217 8.82654 9.58646C8.74637 9.67121 8.76928 9.76741 8.8838 9.7926C8.98005 9.81665 9.08073 9.81665 9.17698 9.7926C9.31837 9.75389 9.45605 9.70157 9.59365 9.64928L9.59378 9.64923L9.59382 9.64921C9.64341 9.63037 9.69299 9.61153 9.74273 9.59333L9.83893 9.54981C9.82383 9.62874 9.83687 9.71046 9.87579 9.78076C9.91471 9.85107 9.97704 9.90551 10.0519 9.93461C10.3001 10.0562 10.5675 10.1337 10.8422 10.1637C10.9542 10.1787 11.0651 10.2009 11.1743 10.2301C11.3392 10.2759 11.4033 10.3744 11.33 10.5324C11.1147 11.0524 10.8719 11.2814 10.3199 11.3089C9.93983 11.3264 9.56055 11.2599 9.20905 11.1142C8.73008 10.9353 8.23656 10.7982 7.73399 10.7042L4.96481 10.0995C4.94848 10.0939 4.93075 10.0939 4.91442 10.0995L5.03352 10.1453C5.24185 10.2182 5.45018 10.2912 5.65857 10.3643L5.65986 10.3648L5.66115 10.3652C6.15299 10.5377 6.64516 10.7102 7.13846 10.8806C7.20489 10.9035 7.23008 10.931 7.22779 11.002V11.5952V11.6799C7.29747 11.6688 7.36715 11.6568 7.43651 11.6449L7.43666 11.6448L7.43669 11.6448C7.59526 11.6175 7.75214 11.5905 7.90348 11.5746C8.39124 11.5326 8.88257 11.58 9.35335 11.7143C9.46245 11.7468 9.56369 11.8013 9.65078 11.8746C9.73787 11.9479 9.80893 12.0384 9.85954 12.1403C10.0001 12.4117 10.085 12.7084 10.1092 13.013C10.1758 13.8395 10.1272 14.6713 9.9649 15.4844C9.9649 15.5231 9.95634 15.5618 9.94648 15.6065C9.93942 15.6384 9.9317 15.6733 9.92596 15.7135L10.0176 15.6493C10.2524 15.4579 10.515 15.3034 10.7963 15.1912C10.9328 15.142 11.0754 15.112 11.2201 15.1019C11.3083 15.0953 11.3964 15.1162 11.4723 15.1618C11.5482 15.2073 11.6081 15.2752 11.6438 15.3562C11.7062 15.4652 11.7374 15.5893 11.7342 15.7149C11.731 15.8405 11.6934 15.9628 11.6255 16.0685C11.4895 16.2954 11.3133 16.4957 11.1056 16.6594C10.7942 16.9115 10.4817 17.1564 10.1663 17.4036C10.0431 17.5001 9.91955 17.597 9.79541 17.6947C9.65448 17.7997 9.50049 17.886 9.33731 17.9513C9.26762 17.9898 9.1901 18.012 9.11058 18.0163C9.03106 18.0206 8.9516 18.0067 8.87819 17.9759C8.80478 17.945 8.73932 17.8979 8.68673 17.8381C8.63414 17.7783 8.5958 17.7073 8.57459 17.6306C8.44675 17.297 8.3883 16.9408 8.4028 16.5838V13.439V13.3062L6.69182 14.03C6.71491 14.1097 6.73848 14.1879 6.76182 14.2654C6.81028 14.4262 6.85777 14.5838 6.89796 14.7446L6.941 14.9209L6.94101 14.9209L6.94101 14.9209L6.94102 14.9209C7.062 15.4161 7.18268 15.9099 7.28505 16.4075C7.38099 16.9648 7.28233 17.5382 7.00562 18.0314C6.63421 18.7312 6.12643 19.3496 5.51223 19.8501L5.44581 19.8982ZM5.12285 8.7848V8.82144C5.26964 8.85322 5.41633 8.88525 5.56301 8.91728L5.56303 8.91729C6.47376 9.11617 7.38368 9.31489 8.30889 9.44903C8.29018 9.42229 8.26692 9.39903 8.24018 9.38032C8.03084 9.23112 7.79882 9.11666 7.55304 9.04133C6.97607 8.86686 6.3761 8.78037 5.77335 8.7848C5.62276 8.78172 5.47527 8.78277 5.33157 8.7838H5.33154H5.33152H5.33145L5.33133 8.7838C5.2609 8.7843 5.19138 8.7848 5.12285 8.7848ZM1.00001 5.39261C1.00092 4.86349 1.1587 4.34652 1.45342 3.90708C1.74813 3.46764 2.16654 3.12546 2.65573 2.92382C3.14491 2.72217 3.68291 2.67011 4.20168 2.77423C4.72046 2.87834 5.19671 3.13395 5.57021 3.50873C5.94371 3.88352 6.19769 4.36064 6.30002 4.87977C6.40236 5.39889 6.34846 5.93671 6.14514 6.4252C5.94182 6.91369 5.59821 7.33093 5.15776 7.62413C4.71731 7.91734 4.19981 8.07336 3.6707 8.07245C3.31929 8.07215 2.97139 8.00257 2.64691 7.86767C2.32242 7.73278 2.02772 7.53523 1.77966 7.28632C1.53161 7.03741 1.33507 6.74204 1.20128 6.41709C1.0675 6.09215 0.999105 5.74401 1.00001 5.39261Z" fill="black"/>
</svg>
