<svg width="15" height="20" viewBox="0 0 15 20" fill="none" xmlns="http://www.w3.org/2000/svg">
<path d="M13.5917 4.02842C13.23 3.23773 12.7158 2.52713 12.0594 1.9199C10.7261 0.682171 8.95607 0 7.0801 0C5.20413 0 3.43411 0.68217 2.10077 1.91731C1.44444 2.52713 0.930233 3.23514 0.568475 4.02842C0.191214 4.8553 0 5.73127 0 6.63566V7.33333C0 7.49354 0.129199 7.62274 0.289406 7.62274H1.68475C1.84496 7.62274 1.97416 7.49354 1.97416 7.33333V6.63566C1.97416 4.0646 4.26357 1.97416 7.0801 1.97416C9.89664 1.97416 12.186 4.0646 12.186 6.63566C12.186 7.68992 11.8114 8.68217 11.1008 9.50904C10.3979 10.3282 9.40568 10.9147 8.30749 11.1628C7.67959 11.3049 7.11369 11.6589 6.71318 12.1654C6.31406 12.6701 6.09651 13.2945 6.09561 13.938V14.7494C6.09561 14.9096 6.22481 15.0388 6.38501 15.0388H7.78036C7.94057 15.0388 8.06977 14.9096 8.06977 14.7494V13.938C8.06977 13.5323 8.35142 13.1757 8.7416 13.0879C10.2506 12.7468 11.6202 11.9328 12.5995 10.7959C13.093 10.2196 13.478 9.57881 13.7442 8.88372C14.0207 8.16279 14.1602 7.40568 14.1602 6.63566C14.1602 5.73127 13.969 4.85271 13.5917 4.02842V4.02842ZM7.0801 17.1059C6.28165 17.1059 5.63307 17.7545 5.63307 18.553C5.63307 19.3514 6.28165 20 7.0801 20C7.87855 20 8.52713 19.3514 8.52713 18.553C8.52713 17.7545 7.87855 17.1059 7.0801 17.1059Z" fill="white"/>
</svg>
