<svg width="16" height="16" viewBox="0 0 16 16" fill="none" xmlns="http://www.w3.org/2000/svg">
<path fill-rule="evenodd" clip-rule="evenodd" d="M2.99866 1.00117H13.0025L13.0013 1C14.1082 1 15 1.8918 15 2.99866V13.0025C15 14.1012 14.1082 15.0012 13.0013 15.0012H2.99866C1.89998 15.0012 1 14.1094 1 13.0025V2.99983C1 1.89297 1.8918 1.00117 2.99866 1.00117ZM10.977 2.03089H5.04291H5.04174V5.96744H10.977V2.03089ZM13.712 13.712C13.9013 13.5215 14.0053 13.2713 14.0053 13.0025H14.0065V3.00918C14.0071 2.87739 13.9814 2.7468 13.931 2.625C13.8807 2.50321 13.8066 2.39264 13.7131 2.29972C13.5226 2.1092 13.2725 2.00518 13.0037 2.00518H12.0078V5.99432C12.0084 6.12612 11.9827 6.25671 11.9324 6.3785C11.882 6.5003 11.8079 6.61087 11.7145 6.70379C11.524 6.89314 11.2738 6.99716 11.005 6.99716H4.99733C4.86687 6.99688 4.73776 6.97082 4.6174 6.92047C4.49705 6.87012 4.38784 6.79648 4.29604 6.70379C4.1067 6.51327 4.00384 6.26315 4.00384 5.99432V1.99699H2.99866C2.73309 1.99761 2.47855 2.1033 2.29064 2.29099C2.10274 2.47867 1.99675 2.73309 1.99583 2.99866V13.0025C1.99449 13.1344 2.01979 13.2652 2.0702 13.3871C2.1206 13.509 2.19509 13.6195 2.2892 13.712C2.38212 13.8054 2.49269 13.8795 2.61449 13.9299C2.73628 13.9802 2.86687 14.0059 2.99866 14.0053H13.0025C13.1343 14.0059 13.2649 13.9802 13.3867 13.9299C13.5085 13.8795 13.619 13.8054 13.712 13.712ZM8.45116 3.43346C8.45116 3.1471 8.68492 2.91334 8.97128 2.91334H8.97011C9.2553 2.91334 9.48906 3.1471 9.48906 3.43229V4.43747C9.48535 4.57365 9.42974 4.70326 9.33361 4.7998C9.23894 4.90382 9.1092 4.95525 8.97011 4.95525C8.68492 4.95525 8.45116 4.72149 8.45116 4.4363V3.43346Z" fill="white"/>
</svg>
