<svg width="24" height="24" viewBox="0 0 24 24" fill="none" xmlns="http://www.w3.org/2000/svg">
<path d="M22.0819 6.36544L16.46 1.19474C16.1626 0.921185 15.7004 0.937834 15.4235 1.23204L15.2499 1.41645C14.9685 1.71551 14.9854 2.18696 15.2878 2.46494L15.4087 2.57612L1.87371 16.9551C1.28045 17.5853 0.970956 18.4088 1.00215 19.2737C1.03334 20.1386 1.40131 20.9377 2.03831 21.5236L2.72104 22.1516C3.31599 22.6987 4.0884 23 4.89621 23C5.77906 23 6.63229 22.6315 7.23704 21.9889L20.823 7.55587L20.9097 7.63564C21.2071 7.9092 21.6692 7.89255 21.9462 7.59834L22.1197 7.41393C22.4012 7.11487 22.3842 6.64342 22.0819 6.36544ZM14.0269 13.2382L9.05088 10.8678L15.9925 3.49331L19.8555 7.04627L14.0269 13.2382Z" fill="black"/>
</svg>
