<svg width="24" height="24" viewBox="0 0 24 24" fill="none" xmlns="http://www.w3.org/2000/svg">
<path fill-rule="evenodd" clip-rule="evenodd" d="M10.8255 9.02037C10.8215 8.98318 10.8156 8.94623 10.8078 8.90966C10.536 8.1691 10.5351 8.16719 9.78376 8.22349C9.43312 8.24973 9.08381 8.27787 8.73501 8.30596C8.15773 8.35245 7.58189 8.39883 7.00388 8.43631C6.28424 8.48403 5.829 8.09657 5.79362 7.43998C5.76476 6.82443 6.20139 6.38162 6.88472 6.32817C7.1409 6.30805 7.39715 6.2881 7.65344 6.26815C8.70944 6.18595 9.76606 6.1037 10.8209 6.00847C11.2668 5.96839 11.6504 6.05619 11.9557 6.40643C12.1849 6.66744 12.4165 6.9266 12.6483 7.18583L12.6483 7.18585L12.6483 7.18587L12.6483 7.1859L12.6483 7.18591C13.2639 7.87449 13.8799 8.5636 14.4507 9.28949C15.0596 10.0682 15.1154 11.0483 15.0698 12.0122C15.066 12.0925 14.9787 12.1684 14.891 12.2446C14.8493 12.2808 14.8076 12.317 14.7747 12.3539C14.738 12.3178 14.6954 12.2836 14.6528 12.2495L14.6528 12.2494C14.5592 12.1744 14.4656 12.0994 14.4349 12.0036C14.3877 11.8556 14.3893 11.6911 14.391 11.5271C14.3916 11.4648 14.3923 11.4025 14.3902 11.3413C14.3576 10.3488 13.9005 9.55384 13.273 8.84763L13.1843 8.74831C12.6488 8.1485 12.1126 7.54791 11.5479 6.97903C11.3724 6.8116 11.1417 6.71822 10.9019 6.71755C9.6698 6.79242 8.44856 6.90226 7.22397 7.0124L7.01133 7.03152L6.97239 7.03436C6.74173 7.05076 6.46799 7.07023 6.50674 7.43139C6.54607 7.79678 6.80122 7.77133 7.03632 7.74788C7.0628 7.74524 7.08903 7.74263 7.11467 7.7406L7.13623 7.73888C8.24607 7.65071 9.34589 7.56334 10.4485 7.4543C10.7929 7.41994 11.0071 7.51824 11.1262 7.86275C11.2516 8.20381 11.3949 8.53768 11.5554 8.8629C11.7081 9.1826 11.6485 9.3916 11.331 9.56148C10.5264 9.99892 9.72329 10.4396 8.92057 10.8801L8.92051 10.8802L8.92045 10.8802L8.92039 10.8802C8.09978 11.3306 7.27953 11.7807 6.45833 12.2269C6.24514 12.3443 6.01054 12.4541 5.85879 12.1621C5.69308 11.8423 5.93699 11.7078 6.16415 11.5837C7.56991 10.8158 8.97537 10.0472 10.3805 9.27804C10.4767 9.22534 10.5709 9.16982 10.6672 9.11305L10.6672 9.11304C10.7191 9.08243 10.7717 9.05146 10.8255 9.02037ZM17.8301 15.9299C17.2026 16.3279 16.4038 16.4071 15.579 15.9127C15.526 15.8929 15.4694 15.8848 15.4131 15.8889C15.3568 15.893 15.302 15.9093 15.2522 15.9366C14.4376 16.3842 13.651 16.3355 12.8727 15.8221C12.0236 16.3698 11.1643 16.4013 10.305 15.8221C9.51466 16.3317 8.71681 16.4033 7.89197 15.9175C7.84075 15.8949 7.78538 15.8839 7.72964 15.8852C7.67389 15.8865 7.61908 15.9001 7.56893 15.9251C6.75712 16.3842 5.97045 16.3336 5.1754 15.8297C4.39059 16.325 3.58065 16.4157 2.74464 15.9108C2.67606 15.8686 2.55448 15.907 2.44624 15.9412L2.44621 15.9412C2.42221 15.9487 2.39887 15.9561 2.37691 15.9623C2.27232 15.9916 2.16857 16.027 2.06488 16.0625L2.06487 16.0625L2.06485 16.0625L2.06484 16.0625C1.86028 16.1324 1.65598 16.2023 1.44593 16.2238C1.35241 16.2329 1.24902 16.1417 1.14567 16.0506C1.09675 16.0074 1.04785 15.9643 1 15.9318C1.03729 15.8897 1.0733 15.8382 1.10935 15.7866C1.1885 15.6733 1.26783 15.5597 1.36122 15.5453C1.78015 15.4804 2.1153 15.3678 2.35922 14.9612C2.5119 14.7055 2.75302 14.8057 2.92432 15.0433C3.03568 15.1973 3.18067 15.3224 3.34767 15.4085C3.51467 15.4947 3.69904 15.5396 3.88601 15.5396C4.07298 15.5396 4.25735 15.4947 4.42435 15.4085C4.59135 15.3224 4.73634 15.1973 4.8477 15.0433C5.073 14.7332 5.26105 14.7408 5.49938 15.07C5.94625 15.6989 6.96007 15.6904 7.41066 15.0548C7.63782 14.7351 7.83705 14.7332 8.06234 15.0471C8.17449 15.2 8.31998 15.3238 8.48718 15.4087C8.65438 15.4936 8.83864 15.5372 9.02522 15.536C9.21179 15.5348 9.3955 15.4888 9.56164 15.4018C9.72779 15.3147 9.87175 15.189 9.982 15.0347C10.2026 14.7312 10.4065 14.7417 10.6337 15.0681C11.0694 15.698 12.0953 15.6913 12.545 15.0557C12.7721 14.7351 12.9723 14.7322 13.1966 15.0471C13.6621 15.7037 14.6248 15.698 15.1172 15.0347C15.3267 14.7484 15.5278 14.7341 15.7475 15.0347C16.2549 15.7228 17.1607 15.7085 17.7025 15.0109C17.9092 14.7427 18.1131 14.7675 18.3095 15.0233C18.843 15.7142 19.7395 15.7142 20.259 15.0233C20.4554 14.7627 20.6882 14.7188 20.8548 15.009C21.0522 15.3525 21.3287 15.4861 21.6927 15.5138C21.9515 15.5358 22.2289 15.5854 22.1656 15.9461C22.106 16.2878 21.8007 16.3183 21.5782 16.2143C20.8865 15.8917 20.245 16.0082 19.53 16.1904C19.2064 16.2692 18.8452 16.1755 18.4409 16.0706C18.2474 16.0204 18.044 15.9676 17.8301 15.9299ZM8.86502 13.795C9.66938 14.2674 10.4588 14.2015 11.252 13.7081C12.0406 14.2072 12.8123 14.2578 13.6037 13.8131C13.6534 13.7877 13.7078 13.7734 13.7633 13.7711C13.8188 13.7688 13.8742 13.7786 13.9258 13.7997C14.7367 14.2636 15.5224 14.2072 16.3119 13.7119C17.1553 14.2607 18.0118 14.2521 18.711 13.8026C18.9017 13.8417 19.0784 13.886 19.2456 13.9279C19.6048 14.0179 19.9196 14.0967 20.2322 14.0889C20.4204 14.0842 20.6058 13.9999 20.7905 13.9159C20.9793 13.83 21.1676 13.7444 21.3577 13.7444C21.5722 13.7444 21.7845 13.8331 21.9992 13.9229C22.1611 13.9905 22.3242 14.0587 22.4907 14.0899C22.6369 14.1166 22.932 13.9496 22.9702 13.816C23.0487 13.5351 22.8307 13.4749 22.6074 13.4131L22.6073 13.4131C22.587 13.4075 22.5667 13.4019 22.5466 13.3961C22.2663 13.3149 21.947 13.21 21.7543 13.0057C21.4145 12.6479 21.3074 12.6125 21.0282 13.0153C20.6427 13.5697 19.5824 13.5678 19.1932 13.0153C18.9046 12.6049 18.7966 12.6078 18.4931 13.0344C18.1282 13.5478 17.0185 13.5526 16.6759 13.042C16.3835 12.6059 16.2532 12.602 15.9609 13.0239C15.581 13.5764 14.4974 13.5593 14.1325 13.0038C13.8709 12.6059 13.7089 12.6097 13.4221 13.0181C13.033 13.5745 11.9819 13.5659 11.5993 13.0019C11.3377 12.6173 11.1599 12.6106 10.9057 12.9771C10.4756 13.5965 9.45433 13.5869 9.03819 12.9599C8.82685 12.6393 8.60528 12.6307 8.39116 12.9332C7.91264 13.6108 6.98912 13.6089 6.48174 12.9275C6.28624 12.6631 6.08142 12.644 5.87754 12.9074C5.32548 13.6108 4.49226 13.6127 3.94298 12.9074C3.74469 12.6536 3.51101 12.6183 3.34437 12.9151C3.15818 13.2653 2.86585 13.3827 2.5065 13.4018C2.26165 13.4151 2.01308 13.4648 2.04101 13.7902C2.06708 14.1519 2.34916 14.1481 2.59959 14.0889C2.84791 14.0301 3.09087 13.9529 3.35355 13.8695L3.35359 13.8695L3.3536 13.8694C3.47005 13.8325 3.59037 13.7942 3.71676 13.7558C4.48574 14.2473 5.3292 14.2559 6.17638 13.71C6.96026 14.2072 7.76089 14.2702 8.58573 13.7883C8.63003 13.7688 8.6779 13.7593 8.72609 13.7605C8.77428 13.7616 8.82166 13.7734 8.86502 13.795ZM22.5214 18.4837C21.9013 17.9884 21.3021 18.1101 20.6922 18.2338L20.6922 18.2338C20.5394 18.2649 20.3859 18.296 20.2312 18.3176C19.9948 18.3506 19.7463 18.2579 19.4941 18.1638C19.2725 18.0812 19.048 17.9974 18.8264 17.997C18.5965 17.997 18.3671 18.0786 18.1373 18.1603C17.913 18.2401 17.6883 18.3201 17.4625 18.3243C17.2647 18.3287 17.0662 18.2457 16.8674 18.1626C16.674 18.0817 16.4804 18.0008 16.2867 17.9998C16.1005 17.9998 15.9136 18.0813 15.7271 18.1626C15.5358 18.2459 15.345 18.3291 15.1555 18.3243C14.93 18.3191 14.7058 18.2399 14.482 18.1608C14.2513 18.0793 14.0209 17.9979 13.7898 17.9979C13.5593 17.9979 13.3293 18.0796 13.0991 18.1614C12.8745 18.2412 12.6498 18.321 12.4241 18.3253C12.2266 18.3291 12.0281 18.246 11.8294 18.1629C11.6348 18.0814 11.4399 17.9998 11.2455 17.9998C11.04 17.9998 10.8358 18.0821 10.6305 18.1647C10.4432 18.2401 10.255 18.3159 10.0641 18.33C9.83924 18.3471 9.60983 18.2801 9.37902 18.2126L9.37901 18.2126L9.37899 18.2126C9.24949 18.1747 9.11955 18.1367 8.98972 18.1134L8.97009 18.1098C8.80094 18.0789 8.60161 18.0425 8.46093 18.1086C8.14819 18.2685 7.80364 18.3521 7.45417 18.3529C7.1047 18.3537 6.75977 18.2718 6.44631 18.1134C6.27798 18.0433 6.08958 18.0433 5.92125 18.1134C5.60786 18.2721 5.26301 18.3547 4.91347 18.3547C4.56393 18.3547 4.21908 18.2721 3.90569 18.1134C3.7586 18.0437 3.5482 18.0762 3.37597 18.1134C3.25024 18.1382 3.12584 18.1755 3.00201 18.2126C2.81594 18.2683 2.63114 18.3237 2.445 18.3358C2.35606 18.3417 2.26052 18.2407 2.16503 18.1398C2.12159 18.0939 2.07817 18.048 2.03537 18.0122C2.07344 17.9768 2.11001 17.9344 2.14656 17.8919L2.14657 17.8919C2.22534 17.8004 2.30405 17.7089 2.39752 17.6887L2.43169 17.6814C2.81944 17.5987 3.17044 17.5239 3.40018 17.1094C3.54168 16.8546 3.79025 16.9186 3.96714 17.1657C4.45962 17.8443 5.37104 17.8433 5.8719 17.1705C6.08603 16.8842 6.2955 16.8928 6.50403 17.1801C6.99186 17.8481 7.91818 17.8376 8.40787 17.1571C8.61734 16.8708 8.82867 16.8708 9.03069 17.1571C9.13746 17.3143 9.27946 17.4428 9.44476 17.532C9.61006 17.6213 9.79383 17.6685 9.98063 17.6698C10.1674 17.6711 10.3518 17.6265 10.5183 17.5396C10.6847 17.4527 10.8285 17.3261 10.9373 17.1705C11.1607 16.8527 11.3656 16.8556 11.5815 17.1781C12.0154 17.828 13.0357 17.8357 13.4686 17.1934C13.7023 16.8451 13.8978 16.8479 14.1305 17.201C14.5383 17.8214 15.5698 17.8261 15.9925 17.2106C16.2532 16.8289 16.404 16.8365 16.6656 17.2344C17.038 17.7975 18.1067 17.8166 18.4996 17.2659C18.7938 16.8537 18.9157 16.8508 19.2015 17.2507C19.613 17.8233 20.6418 17.808 21.0477 17.2058C21.2422 16.9195 21.488 16.8317 21.664 17.1409C21.8874 17.5322 22.2225 17.6181 22.5949 17.6629C22.8454 17.6916 23.0651 17.7584 22.9822 18.0447C22.9493 18.1537 22.8375 18.2376 22.7084 18.3345C22.6478 18.38 22.5833 18.4284 22.5214 18.4837ZM16.4852 10.6733C16.7232 10.7766 16.9787 10.8307 17.2372 10.8327C17.7614 10.8379 18.2664 10.6302 18.6419 10.2551C19.0174 9.88003 19.233 9.36793 19.2415 8.83054C19.2418 8.29283 19.0341 7.77695 18.664 7.39593C18.2939 7.0149 17.7915 6.79982 17.267 6.7978C17.0085 6.79579 16.7522 6.84599 16.5127 6.94553C16.2731 7.04506 16.0551 7.19198 15.871 7.3779C15.6868 7.56383 15.5402 7.78511 15.4395 8.02911C15.3388 8.27311 15.2859 8.53506 15.284 8.8C15.282 9.06494 15.331 9.32768 15.4281 9.57322C15.5252 9.81876 15.6685 10.0423 15.8499 10.231C16.0313 10.4198 16.2471 10.5701 16.4852 10.6733ZM18.4422 8.31546C18.5038 8.47896 18.5328 8.65345 18.5275 8.82863C18.5313 9.00385 18.5008 9.17807 18.4379 9.34102C18.3749 9.50397 18.2807 9.65234 18.1609 9.77737C18.0411 9.9024 17.8981 10.0016 17.7403 10.069C17.5825 10.1364 17.4131 10.1708 17.2421 10.17C17.0712 10.1693 16.9021 10.1334 16.7449 10.0645C16.5876 9.9957 16.4455 9.89526 16.3267 9.76916C16.208 9.64306 16.1151 9.49386 16.0535 9.33035C15.9919 9.16685 15.963 8.99236 15.9683 8.81718C15.9644 8.64196 15.9949 8.46774 16.0579 8.30479C16.1208 8.14184 16.215 7.99348 16.3348 7.86844C16.4546 7.74341 16.5976 7.64425 16.7554 7.57681C16.9133 7.50937 17.0826 7.47502 17.2536 7.47578C17.4246 7.47655 17.5937 7.51241 17.7509 7.58126C17.9081 7.65011 18.0503 7.75055 18.169 7.87665C18.2878 8.00275 18.3807 8.15196 18.4422 8.31546Z" fill="black"/>
</svg>
