<svg width="24" height="24" viewBox="0 0 24 24" fill="none" xmlns="http://www.w3.org/2000/svg">
<path d="M16.3914 18.7911C16.3914 19.1626 16.3914 19.55 16.3914 19.9336C16.3783 20.8308 15.8712 21.3416 14.987 21.3528C14.7548 21.3528 14.5226 21.3528 14.2904 21.3528C13.4312 21.3407 12.9139 20.8391 12.8814 19.9735C12.8674 19.588 12.8814 19.2017 12.8814 18.7753H5.40725C5.40725 19.1534 5.40725 19.5351 5.40725 19.9168C5.40075 20.8271 4.87969 21.3435 3.9611 21.3528C3.72982 21.3528 3.49669 21.3528 3.26542 21.3528C2.41927 21.3379 1.89171 20.802 1.88242 19.9466C1.87778 19.5611 1.88242 19.1766 1.88242 18.7586C1.71988 18.7475 1.55734 18.7846 1.46446 18.7187C1.29304 18.5985 1.14666 18.4462 1.03349 18.2701C0.976833 18.1772 1.01956 18.0286 1.01956 17.905C1.01491 13.156 1.03442 8.40889 1.00005 3.65525C0.993552 2.57969 1.57777 1.99082 2.66541 2.00011C7.01316 2.03819 11.3618 2.01497 15.7096 2.0159C16.8047 2.0159 17.2886 2.50352 17.2886 3.60045C17.2886 8.30641 17.2886 13.0102 17.2886 17.7118C17.2923 18.636 17.2923 18.636 16.3914 18.7911ZM16.3691 12.1743H1.91586V17.7899H16.3691V12.1743ZM8.67295 5.12555H1.90471V11.1953H8.67295V5.12555ZM16.3533 11.2148V5.12091H9.62033V11.2148H16.3533ZM16.331 4.17445C16.5418 3.00415 16.4369 2.87412 15.2981 2.87412H2.99421C1.87406 2.87505 1.78025 2.98 1.901 4.10665C1.901 4.11965 1.91865 4.1308 1.95208 4.17445H16.331ZM13.7675 18.7456C13.7675 19.2044 13.7507 19.6196 13.7777 20.0311C13.787 20.162 13.9049 20.3887 13.9876 20.3952C14.4248 20.4272 14.8637 20.4272 15.3009 20.3952C15.378 20.3905 15.5016 20.2178 15.5062 20.1165C15.5285 19.6623 15.5155 19.2054 15.5155 18.7419L13.7675 18.7456ZM4.51931 18.7345H2.77408C2.77408 18.9871 2.77408 19.1849 2.77408 19.3846C2.75736 20.5131 2.72578 20.5141 4.00104 20.4918C4.33541 20.4853 4.51838 20.3181 4.51931 19.9753C4.52024 19.5871 4.51931 19.2017 4.51931 18.7345V18.7345Z" fill="black"/>
<path d="M21.0148 11.239V12.9712C21.0148 15.5545 21.0148 18.1372 21.0148 20.7193C21.0148 21.0398 20.9785 21.3425 20.5764 21.3407C20.1742 21.3388 20.1463 21.023 20.1463 20.711C20.1463 17.7109 20.1463 14.7109 20.1528 11.7108C20.1528 11.3792 20.0971 11.2037 19.7367 11.0792C19.207 10.8929 18.7612 10.5236 18.4796 10.0378C18.1979 9.55197 18.099 8.9816 18.2005 8.42932C18.4224 7.23115 19.4265 6.38594 20.6042 6.39708C21.7188 6.41008 22.7581 7.27295 22.9532 8.34201C23.0658 8.90893 22.9728 9.49743 22.691 10.0021C22.4092 10.5067 21.9568 10.8945 21.4151 11.0959C21.2888 11.1442 21.155 11.1879 21.0148 11.239ZM19.054 8.83056C19.052 9.03171 19.0896 9.23128 19.1649 9.41782C19.2402 9.60436 19.3516 9.77419 19.4927 9.91755C19.6338 10.0609 19.8019 10.175 19.9872 10.2532C20.1725 10.3314 20.3715 10.3722 20.5726 10.3733C20.9862 10.3679 21.381 10.1997 21.6714 9.90519C21.9617 9.61065 22.1243 9.21352 22.1238 8.79991C22.1203 8.59902 22.0771 8.4008 21.9968 8.21662C21.9165 8.03245 21.8006 7.86594 21.6558 7.72666C21.511 7.58737 21.3402 7.47806 21.153 7.40498C20.9658 7.3319 20.7661 7.2965 20.5652 7.30081C20.3642 7.29733 20.1646 7.33466 19.9785 7.41055C19.7923 7.48643 19.6235 7.59929 19.4823 7.7423C19.341 7.8853 19.2302 8.05548 19.1566 8.24253C19.083 8.42959 19.0481 8.62963 19.054 8.83056Z" fill="black"/>
<path d="M9.1623 14.553C9.84312 14.553 10.5239 14.5632 11.2057 14.553C11.6255 14.5446 11.7964 14.749 11.7964 15.1437C11.7964 15.623 11.7964 16.1025 11.7964 16.5824C11.7964 16.9725 11.6385 17.1843 11.214 17.1815C9.83693 17.1716 8.45981 17.1716 7.0827 17.1815C6.70003 17.1815 6.50498 17.0385 6.51241 16.6372C6.52356 16.1115 6.51891 15.5849 6.51241 15.0583C6.51241 14.7081 6.68146 14.553 7.02511 14.5558C7.73937 14.5567 8.45084 14.553 9.1623 14.553ZM7.39757 16.2806H10.8527V15.4502H7.39942L7.39757 16.2806Z" fill="black"/>
<path d="M13.9922 13.4487C14.1997 13.4415 14.4066 13.4764 14.6002 13.5515C14.7938 13.6265 14.9701 13.7401 15.1186 13.8853C15.267 14.0304 15.3844 14.2043 15.4637 14.3962C15.543 14.5881 15.5825 14.7941 15.5799 15.0017C15.5772 15.2093 15.5325 15.4142 15.4483 15.604C15.3642 15.7939 15.2424 15.9646 15.0903 16.106C14.9382 16.2474 14.759 16.3564 14.5636 16.4265C14.3681 16.4966 14.1605 16.5263 13.9532 16.5138C13.5596 16.49 13.1902 16.3156 12.9218 16.0268C12.6533 15.738 12.5063 15.3569 12.5114 14.9626C12.5164 14.5683 12.673 14.1911 12.9487 13.9092C13.2245 13.6273 13.5981 13.4624 13.9922 13.4487V13.4487ZM13.9597 14.3264C13.7854 14.3345 13.6215 14.4116 13.504 14.5406C13.3865 14.6695 13.3251 14.8399 13.3332 15.0142C13.3414 15.1885 13.4184 15.3524 13.5474 15.4699C13.6764 15.5874 13.8467 15.6488 14.021 15.6407C14.1898 15.6251 14.346 15.5451 14.4573 15.4172C14.5685 15.2894 14.6262 15.1235 14.6183 14.9543C14.6104 14.785 14.5376 14.6252 14.4149 14.5083C14.2922 14.3913 14.1292 14.3262 13.9597 14.3264Z" fill="black"/>
<path d="M2.77449 14.9785C2.77388 14.7778 2.81287 14.579 2.88924 14.3934C2.96561 14.2078 3.07785 14.0392 3.21953 13.8971C3.36121 13.755 3.52955 13.6422 3.71488 13.5653C3.90022 13.4883 4.09892 13.4487 4.29959 13.4487C4.70469 13.4512 5.0931 13.6104 5.38334 13.893C5.67357 14.1756 5.84307 14.5597 5.85627 14.9645C5.87206 15.8005 5.14759 16.5222 4.29123 16.5166C4.09049 16.5157 3.89189 16.4752 3.70686 16.3974C3.52183 16.3195 3.35401 16.2058 3.21306 16.0629C3.0721 15.92 2.9608 15.7506 2.88553 15.5645C2.81026 15.3784 2.77253 15.1792 2.77449 14.9785V14.9785ZM4.95162 14.9785C4.95235 14.8934 4.93622 14.8089 4.90416 14.7301C4.87209 14.6512 4.82473 14.5795 4.7648 14.5191C4.70487 14.4586 4.63356 14.4106 4.55499 14.3779C4.47642 14.3452 4.39214 14.3283 4.30702 14.3283C4.21847 14.3262 4.13041 14.342 4.04809 14.3747C3.96576 14.4074 3.89087 14.4563 3.82788 14.5186C3.76488 14.5808 3.71508 14.6552 3.68143 14.7371C3.64779 14.819 3.631 14.9069 3.63206 14.9955C3.63312 15.0841 3.65201 15.1715 3.68761 15.2526C3.72321 15.3337 3.77478 15.4068 3.83925 15.4676C3.90371 15.5283 3.97976 15.5754 4.06284 15.6061C4.14592 15.6368 4.23434 15.6505 4.32281 15.6463C4.40821 15.6435 4.49222 15.624 4.57005 15.5887C4.64788 15.5535 4.718 15.5032 4.7764 15.4409C4.8348 15.3785 4.88033 15.3052 4.91039 15.2252C4.94046 15.1453 4.95447 15.0602 4.95162 14.9748V14.9785Z" fill="black"/>
</svg>
