<svg width="16" height="16" viewBox="0 0 16 16" fill="none" xmlns="http://www.w3.org/2000/svg">
<path d="M14.0521 6.6299L13.0022 6.9119C13.5169 8.82648 12.9665 10.8855 11.5667 12.2853C9.40068 14.4513 5.87902 14.4513 3.71302 12.2853C2.66485 11.2371 2.08725 9.84237 2.08725 8.3593C2.08725 6.87623 2.66485 5.4815 3.71302 4.43332C5.11285 3.03349 7.17012 2.48307 9.0847 2.99782L8.83667 3.91858L11.3407 3.025L9.61983 1L9.3667 1.94624C8.26077 1.64895 7.08858 1.64385 5.97925 1.92926C4.83424 2.22485 3.78607 2.82454 2.94515 3.66375C2.31149 4.29742 1.82053 5.0364 1.48586 5.86033C1.16309 6.65538 1 7.4963 1 8.3593C1 9.2223 1.16309 10.0615 1.48586 10.8583C1.82053 11.6822 2.31149 12.4212 2.94515 13.0548C3.57881 13.6885 4.3178 14.1795 5.14173 14.5141C5.93678 14.8369 6.7777 15 7.6407 15C8.5037 15 9.34292 14.8369 10.1397 14.5141C10.9636 14.1795 11.7026 13.6885 12.3362 13.0548C13.1755 12.2156 13.7768 11.1658 14.0707 10.0208C14.3561 8.90972 14.3494 7.73753 14.0521 6.6299Z" fill="white"/>
</svg>
