<svg width="24" height="24" viewBox="0 0 24 24" fill="none" xmlns="http://www.w3.org/2000/svg">
<path fill-rule="evenodd" clip-rule="evenodd" d="M18.699 4.70812C16.8243 2.91588 14.575 2.02921 11.683 2C11.5932 2.01111 11.4806 2.02197 11.3519 2.0344C11.0028 2.0681 10.5345 2.1133 10.0763 2.2062C8.23862 2.5585 6.54986 3.45678 5.23058 4.78372C4.89723 5.11536 4.9041 5.49512 5.19106 5.75974C5.47803 6.02437 5.83716 5.97626 6.21348 5.62056C9.5213 2.49832 14.4839 2.50519 17.8106 5.63087C18.18 5.97797 18.5512 6.0175 18.8313 5.73912C19.1389 5.44013 19.0994 5.09131 18.699 4.70812ZM4.49369 13.4271L4.4937 13.4272C4.51594 13.4848 4.53997 13.5471 4.56729 13.616C4.38027 13.616 4.19993 13.6153 4.02415 13.6147C3.64271 13.6132 3.28277 13.6119 2.92283 13.6177C2.67136 13.6152 2.42189 13.6626 2.18882 13.757C1.95575 13.8515 1.7437 13.9912 1.56492 14.1681C1.38614 14.3449 1.24417 14.5554 1.14721 14.7875C1.05025 15.0195 1.00021 15.2685 1 15.52C1 16.8225 1.00229 18.1307 1.00687 19.4447C1.00794 19.8856 1.16311 20.3122 1.44552 20.6508C1.72794 20.9894 2.11983 21.2186 2.55339 21.2988C2.78521 21.344 3.02485 21.361 3.26177 21.3779C3.37607 21.386 3.48973 21.3941 3.60158 21.4053C3.62626 21.5309 3.62803 21.671 3.62979 21.8107C3.635 22.2254 3.64017 22.6365 4.24424 22.6545C4.89972 22.6737 4.90851 22.2446 4.91728 21.8164C4.92028 21.6698 4.92328 21.5233 4.9522 21.395H19.0615C19.0868 21.5228 19.0887 21.665 19.0905 21.8067C19.0958 22.2231 19.1011 22.634 19.7025 22.6545C20.3639 22.6762 20.3735 22.2501 20.3834 21.8097C20.3868 21.6575 20.3903 21.5035 20.4208 21.3658H20.883C22.1975 21.3537 23 20.5547 23 19.2539V15.6884C23 14.4202 22.2096 13.6263 20.938 13.6263H19.4465L19.4611 13.5853L19.4611 13.5853L19.4611 13.5853L19.4611 13.5852L19.4612 13.585L19.4612 13.5849L19.4613 13.5847C19.5236 13.4097 19.5673 13.2873 19.6183 13.1693C20.6745 10.7029 21.7301 8.23588 22.7852 5.76833C22.8523 5.62712 22.9019 5.47824 22.933 5.325C22.9688 5.18202 22.948 5.03075 22.875 4.90271C22.802 4.77467 22.6825 4.67972 22.5412 4.63766C22.401 4.57623 22.2426 4.57026 22.0982 4.62097C21.9537 4.67167 21.8339 4.77527 21.7628 4.91088C21.7025 5.02204 21.6491 5.13682 21.603 5.25454L18.18 13.2449C18.089 13.4528 18.0116 13.6246 17.7041 13.6246C15.5886 13.6132 13.4726 13.6123 11.3566 13.6115H11.3566H11.3566H11.3566H11.3566H11.3566H11.3566C9.66382 13.6108 7.97112 13.6101 6.27876 13.604C6.1969 13.5914 6.11884 13.5609 6.0502 13.5145C5.98156 13.4682 5.92406 13.4072 5.88182 13.3359C5.72025 13.0191 5.58279 12.6893 5.44559 12.3601L5.44558 12.3601L5.44556 12.36L5.44553 12.36L5.44551 12.3599L5.44548 12.3599L5.44546 12.3598L5.44544 12.3597C5.39592 12.2409 5.34644 12.1222 5.29587 12.0042C5.12002 11.5928 4.94434 11.1813 4.76869 10.7699C3.97456 8.91 3.18095 7.05132 2.37468 5.19956C2.25748 4.9496 2.05787 4.74756 1.80934 4.62735C1.66156 4.56205 1.3557 4.68577 1.21136 4.82152C0.960478 5.0535 1.0464 5.36624 1.17183 5.65836C2.24179 8.14538 3.31003 10.6381 4.37655 13.1366C4.41591 13.2254 4.45158 13.3179 4.49369 13.4271ZM3.15309 14.9048H11.9974H20.8521C21.5136 14.9048 21.7112 15.1041 21.7112 15.7743V19.211C21.7112 19.8278 21.481 20.0598 20.8521 20.0598H3.15309C2.51215 20.0598 2.29392 19.8296 2.29392 19.1714V15.7777C2.29392 15.1024 2.48637 14.9048 3.15309 14.9048ZM17.1379 7.34297L17.1379 7.343C17.0345 7.49077 16.9416 7.62353 16.8174 7.6723C16.5933 7.73046 16.3554 7.69902 16.1541 7.58467C15.9913 7.49238 15.8504 7.36399 15.709 7.23524C15.6056 7.14104 15.5019 7.04665 15.3894 6.96606C14.3393 6.20236 13.062 5.81598 11.7647 5.86963C10.4673 5.92328 9.22624 6.41382 8.2428 7.26162C8.18868 7.30801 8.13541 7.3557 8.08214 7.40338C8.02887 7.45107 7.9756 7.49875 7.92147 7.54515C7.5778 7.83211 7.23413 7.83039 6.97295 7.54515C6.91564 7.48075 6.87179 7.40554 6.844 7.32394C6.8162 7.24234 6.80502 7.156 6.8111 7.07001C6.81719 6.98402 6.84042 6.90011 6.87943 6.82324C6.91844 6.74637 6.97244 6.67808 7.03824 6.62239C7.82558 5.82388 8.8021 5.23749 9.87695 4.91779C12.4871 4.16859 14.8206 4.69441 16.8483 6.50726C17.0185 6.69862 17.1693 6.90642 17.2985 7.12759C17.2395 7.19777 17.1875 7.2721 17.1379 7.34297ZM15.3257 9.15057C15.3666 9.08598 15.4088 9.01943 15.4564 8.95759C15.3575 8.76308 15.2395 8.57889 15.1042 8.40772C13.4632 6.75467 10.5574 6.75296 8.90439 8.40772C8.78202 8.52464 8.69355 8.67249 8.64836 8.83559C8.61438 8.97021 8.6305 9.1126 8.69373 9.23621C8.75696 9.35983 8.86298 9.45623 8.99203 9.50747C9.3357 9.68446 9.58829 9.51434 9.83745 9.29439C10.3893 8.78637 11.1019 8.48801 11.851 8.45127C12.6002 8.41454 13.3385 8.64175 13.9374 9.09334C13.9955 9.13705 14.0502 9.19005 14.1045 9.24271C14.1996 9.33499 14.2937 9.42622 14.4031 9.46451C14.6075 9.54187 14.8325 9.54491 15.0389 9.4731C15.156 9.41806 15.238 9.28879 15.3257 9.15057ZM13.6178 10.8014C13.5782 10.8535 13.5416 10.9126 13.505 10.9717C13.421 11.1072 13.3371 11.2426 13.2174 11.2928C13.1102 11.3354 12.9951 11.3547 12.8799 11.3493C12.7646 11.344 12.6518 11.3142 12.549 11.2619C12.1606 10.9887 11.8479 10.9663 11.4699 11.2619C11.41 11.3147 11.3399 11.3545 11.2639 11.3789C11.188 11.4033 11.1078 11.4117 11.0284 11.4036C10.949 11.3956 10.8722 11.3712 10.8026 11.332C10.7331 11.2928 10.6725 11.2397 10.6244 11.176C10.5671 11.1201 10.5215 11.0533 10.4904 10.9795C10.4592 10.9057 10.4432 10.8265 10.4432 10.7464C10.4432 10.6663 10.4592 10.5871 10.4904 10.5133C10.5215 10.4395 10.5671 10.3727 10.6244 10.3168C11.2551 9.54699 12.7449 9.54184 13.3738 10.3168C13.4717 10.4695 13.5534 10.6319 13.6178 10.8014ZM15.1953 18.2332C15.2228 17.9781 15.2366 17.7217 15.2365 17.4651C15.2358 17.208 15.222 16.951 15.1953 16.6953C15.1817 16.5504 15.1122 16.4166 15.0015 16.3223C14.8908 16.2279 14.7476 16.1805 14.6025 16.1901C14.2554 16.1815 13.9976 16.3533 13.9718 16.697C13.9366 17.2085 13.9366 17.7217 13.9718 18.2332C13.982 18.3796 14.0497 18.516 14.1601 18.6126C14.2706 18.7092 14.4148 18.7581 14.5612 18.7487C14.7136 18.7641 14.8659 18.7185 14.9847 18.6219C15.1035 18.5253 15.1793 18.3855 15.1953 18.2332ZM17.8158 17.4651C17.8121 17.5435 17.8107 17.6218 17.8093 17.7001V17.7001C17.806 17.8791 17.8027 18.0574 17.7728 18.2332C17.7585 18.3786 17.6891 18.513 17.5789 18.6088C17.4686 18.7047 17.3259 18.7547 17.18 18.7487C17.1044 18.7583 17.0277 18.7523 16.9544 18.7313C16.8812 18.7102 16.8131 18.6745 16.7541 18.6263C16.6951 18.5781 16.6465 18.5184 16.6113 18.4508C16.5761 18.3832 16.5551 18.3092 16.5494 18.2332C16.5116 17.7219 16.5116 17.2084 16.5494 16.697C16.5751 16.3534 16.8346 16.1815 17.1817 16.1936C17.3267 16.1845 17.4694 16.2324 17.5795 16.3271C17.6896 16.4218 17.7584 16.5558 17.7711 16.7005C17.7997 16.9544 17.8146 17.2096 17.8158 17.4651ZM20.3606 18.2195C20.3752 17.978 20.3752 17.7358 20.3606 17.4943C20.3712 17.2406 20.3666 16.9864 20.3468 16.7331C20.3426 16.6576 20.3231 16.5836 20.2895 16.5158C20.256 16.448 20.2091 16.3876 20.1516 16.3383C20.0942 16.2891 20.0274 16.2519 19.9552 16.2291C19.883 16.2063 19.807 16.1983 19.7317 16.2056C19.3811 16.2056 19.1388 16.3774 19.1148 16.7211C19.0821 17.2189 19.0821 17.7183 19.1148 18.216C19.1184 18.2923 19.1374 18.3669 19.1706 18.4356C19.2038 18.5043 19.2505 18.5656 19.308 18.6158C19.3654 18.6661 19.4324 18.7042 19.5049 18.7279C19.5774 18.7516 19.6539 18.7605 19.73 18.7539C19.8066 18.7612 19.884 18.7531 19.9575 18.73C20.031 18.7069 20.0991 18.6694 20.1579 18.6196C20.2167 18.5698 20.2649 18.5087 20.2997 18.44C20.3345 18.3713 20.3552 18.2963 20.3606 18.2195Z" fill="black"/>
</svg>
