<svg width="24" height="24" viewBox="0 0 24 24" fill="none" xmlns="http://www.w3.org/2000/svg">
<path fill-rule="evenodd" clip-rule="evenodd" d="M12.0097 1.75735C12.0057 1.71727 12.0017 1.67723 12.0017 1.63939H12.0083C12.0083 1.61514 12.0112 1.58895 12.0141 1.5628L12.0141 1.56277C12.0205 1.50565 12.0269 1.44869 12.0027 1.4123C11.8963 1.26881 11.7823 1.13117 11.6611 1C11.6242 1.03999 11.5823 1.07826 11.5405 1.11651C11.445 1.20376 11.3495 1.29093 11.3139 1.39834C11.2545 1.59078 11.2561 1.79693 11.3186 1.98841C11.3502 2.06485 11.3985 2.13332 11.4598 2.18885C11.5211 2.24438 11.594 2.28559 11.6732 2.3095C11.7616 2.32625 11.9208 2.1336 11.9915 2.0033C12.0276 1.9376 12.0186 1.84739 12.0097 1.75735ZM17.251 5.56053C20.4517 8.44572 21.2466 14.2803 16.9905 18.0162C17.5759 18.4043 17.5852 18.4098 18.0515 17.911C20.0394 15.7946 20.8864 13.2993 20.5048 10.4142C19.8375 5.36601 15.0229 1.88611 9.99714 2.87545C6.52375 3.55859 4.16627 5.64523 3.12295 9.01158C2.07963 12.3779 2.894 15.4009 5.31383 17.9715C5.73823 18.4229 5.81362 18.4126 6.31713 17.991C2.44633 14.5977 2.58221 9.1363 5.71031 5.90024C8.83096 2.68186 13.9005 2.54226 17.251 5.56053ZM12.8776 14.7156V13.6174C12.9649 13.6656 13.0492 13.723 13.1323 13.7796L13.1324 13.7797L13.1324 13.7797L13.1324 13.7797L13.1324 13.7797L13.1325 13.7797L13.1325 13.7797L13.1325 13.7797L13.1325 13.7797L13.1325 13.7797L13.1325 13.7797L13.1325 13.7797L13.1326 13.7797L13.1326 13.7798L13.1326 13.7798L13.1326 13.7798C13.316 13.9047 13.4939 14.026 13.6873 14.0362C14.6246 14.0827 15.5636 14.0656 16.5027 14.0485H16.5027H16.5027H16.5027H16.5027H16.5027H16.5027H16.5028H16.5028H16.5028H16.5028H16.5028H16.5028H16.5028H16.5028H16.5029H16.5029L16.6171 14.0464C16.7605 14.0436 16.9783 13.9487 17.0229 13.838C17.0676 13.7272 16.9811 13.5076 16.8815 13.4024C16.3677 12.8576 15.8403 12.3302 15.2993 11.8202C15.182 11.7094 14.9409 11.6061 14.8246 11.6527C14.7083 11.6992 14.6208 11.9412 14.6087 12.1031C14.5875 12.3957 14.5918 12.6907 14.596 12.9799C14.5977 13.0964 14.5994 13.212 14.5994 13.3261C14.0158 13.4889 13.6045 13.3782 13.3085 12.8952C13.1845 12.6979 13.0296 12.522 12.8497 12.374C12.7342 12.2781 12.5267 12.1794 12.4187 12.2213C12.3108 12.2632 12.2112 12.481 12.2112 12.6243C12.1903 13.259 12.196 13.9043 12.2014 14.5292L12.2019 14.5788C12.2075 15.2191 12.4308 15.4378 13.0721 15.4378C13.5481 15.4378 14.0239 15.4368 14.4997 15.4358H14.4999H14.5001H14.5003H14.5005H14.5008H14.501H14.5012H14.5014H14.5016H14.5018H14.502H14.5022H14.5024H14.5026H14.5028H14.503C15.4533 15.4337 16.4033 15.4316 17.3533 15.4378C18.0076 15.4416 18.5028 15.1856 18.7745 14.589C19.0612 13.9636 18.875 13.4117 18.4097 12.9398C18.1789 12.7062 17.9487 12.4718 17.7186 12.2374C16.9709 11.4756 16.2232 10.714 15.451 9.97739C15.205 9.75068 14.8886 9.61532 14.5547 9.59394C12.7417 9.55858 10.9268 9.56881 9.11194 9.5865C8.87927 9.58836 8.58703 9.65444 8.42601 9.80335C7.25519 10.8895 6.09553 11.9877 4.96565 13.1167C4.56359 13.5178 4.49937 14.0557 4.74042 14.5862C4.96938 15.0898 5.37703 15.4155 5.92986 15.4239C7.40535 15.4467 8.88236 15.4396 10.3595 15.4325H10.3596L10.8142 15.4304C11.1856 15.4285 11.4592 15.2182 11.475 14.8459C11.5048 14.0706 11.4927 13.2935 11.475 12.5191C11.4673 12.4544 11.4442 12.3925 11.4076 12.3385C11.371 12.2846 11.322 12.2402 11.2647 12.2092C11.1996 12.1954 11.1323 12.1965 11.0677 12.2127C11.0032 12.2288 10.9432 12.2594 10.8924 12.3023C10.6806 12.4848 10.496 12.6967 10.3442 12.9314C10.0399 13.4461 9.60243 13.4368 9.07378 13.3335C9.07378 13.2076 9.07518 13.0834 9.07656 12.9604V12.9604V12.9603V12.9603V12.9602V12.9601V12.9601V12.96V12.9599V12.9599V12.9598V12.9597V12.9597V12.9596V12.9596V12.9595V12.9595C9.07997 12.6556 9.08329 12.3593 9.06541 12.064C9.0561 11.9161 8.97234 11.6722 8.87927 11.6527C8.7929 11.6426 8.70538 11.6507 8.62235 11.6765C8.53931 11.7023 8.4626 11.7452 8.39716 11.8025C7.85053 12.3144 7.32313 12.8418 6.81496 13.3847C6.75876 13.4506 6.71757 13.5279 6.69426 13.6114C6.67096 13.6948 6.6661 13.7823 6.68001 13.8677C6.70514 13.9599 6.95178 14.0427 7.10162 14.0427C7.78476 14.0613 8.46697 14.0595 9.14917 14.0492C9.26251 14.048 9.37845 14.0548 9.49472 14.0617H9.49473H9.49474H9.49475H9.49476H9.49477H9.49479H9.4948H9.49481H9.49482H9.49483H9.49484H9.49485H9.49487H9.49488H9.49489H9.4949C9.97337 14.0899 10.4574 14.1184 10.7891 13.5839V14.7286C10.7241 14.7483 10.6574 14.7617 10.5899 14.7687C10.0935 14.7687 9.59715 14.7693 9.10077 14.7699C8.10802 14.7711 7.11527 14.7724 6.12252 14.7687C5.77351 14.7677 5.46823 14.643 5.3491 14.2875C5.23463 13.9478 5.35283 13.6658 5.61901 13.4145C6.05916 12.9986 6.49458 12.5788 6.93013 12.1589C7.49845 11.611 8.067 11.0629 8.64659 10.5228C8.80459 10.3829 9.00543 10.3009 9.21618 10.2901C10.9678 10.2709 12.72 10.2709 14.4728 10.2901C14.682 10.3049 14.8794 10.3921 15.0312 10.5367C16.001 11.4991 16.955 12.4726 17.9034 13.4536C18.0327 13.5812 18.1239 13.7424 18.1668 13.9189C18.2543 14.4252 17.9248 14.764 17.3236 14.764C16.4034 14.7702 15.4832 14.7681 14.5631 14.7661C14.103 14.765 13.6429 14.764 13.1828 14.764C13.0799 14.7562 12.9778 14.7401 12.8776 14.7156ZM8.39525 16.1499H9.04674V17.8187H14.5695V16.1573H15.2778C15.2778 16.3042 15.2793 16.45 15.2809 16.595V16.595V16.595V16.595V16.595V16.595V16.595V16.595V16.5951V16.5951V16.5951V16.5951V16.5951V16.5951V16.5951V16.5951C15.2844 16.9308 15.2878 17.2623 15.2722 17.5925C15.2583 17.8782 15.3448 18.0336 15.6147 18.1574C16.2378 18.4452 16.853 18.7513 17.4678 19.0573L17.4678 19.0573L17.4685 19.0577C17.6708 19.1583 17.873 19.259 18.0755 19.359C19.0239 19.8243 19.4297 20.6694 19.1374 21.561C18.8154 22.5438 17.8456 23.1562 16.8554 22.9645C15.8142 22.7608 14.7755 22.5476 13.7368 22.3344L13.7363 22.3343L13.7355 22.3342L13.7347 22.334L13.7339 22.3338L13.7332 22.3337L13.7324 22.3335L13.7316 22.3334L13.7308 22.3332L13.7301 22.333L13.7297 22.333L13.7294 22.3329L13.7291 22.3328L13.7287 22.3328L13.7284 22.3327L13.7281 22.3326L13.7277 22.3326C13.346 22.2542 12.9643 22.1759 12.5825 22.098C12.4541 22.0717 12.326 22.0434 12.1979 22.0151C11.9637 21.9633 11.7294 21.9116 11.4936 21.8719C11.072 21.8002 10.87 21.5433 10.856 21.1394C10.8402 20.6592 10.8337 20.1771 10.856 19.6977C10.8812 19.1626 11.1948 18.8946 11.7197 18.9867C12.6939 19.1579 13.6637 19.3531 14.6291 19.5721C14.7245 19.5937 14.7981 19.7096 14.8717 19.8253L14.8717 19.8253C14.9059 19.879 14.94 19.9327 14.9763 19.977C14.9223 20.0037 14.8668 20.0396 14.8114 20.0755C14.691 20.1536 14.5708 20.2315 14.4662 20.2143C13.7194 20.091 12.9765 19.9401 12.2209 19.7865C12.0066 19.743 11.7913 19.6993 11.5745 19.6559V21.1822L12.1933 21.3104C12.9233 21.4618 13.661 21.6147 14.3992 21.7648C14.7811 21.8424 15.1633 21.9184 15.5456 21.9945L15.5457 21.9945L15.5458 21.9945L15.5459 21.9945L15.546 21.9945L15.5461 21.9946L15.5463 21.9946L15.5465 21.9947L15.5468 21.9947L15.547 21.9947L15.5473 21.9948L15.5475 21.9948L15.5477 21.9949L15.548 21.9949L15.5483 21.995L15.5487 21.9951C16.0143 22.0877 16.4801 22.1804 16.9456 22.2758C17.6027 22.4108 18.2263 22.0441 18.472 21.3693C18.6777 20.8044 18.4338 20.3083 17.7916 19.9853L17.7498 19.9658C17.4535 19.8212 17.1613 19.6599 16.8692 19.4985L16.8691 19.4985L16.869 19.4984L16.8689 19.4984L16.8689 19.4984L16.8688 19.4983L16.8688 19.4983L16.8687 19.4983L16.8687 19.4983L16.8686 19.4982L16.8686 19.4982L16.8685 19.4982L16.8685 19.4982L16.8684 19.4981C16.2017 19.13 15.5351 18.7619 14.8208 18.593C14.2132 18.4494 13.5783 18.4779 12.941 18.5065H12.941C12.5006 18.5263 12.0591 18.5461 11.6248 18.5092C9.60517 18.3371 7.72794 18.7075 5.97542 19.7257C5.8835 19.779 5.78478 19.8209 5.68585 19.863C5.58445 19.9061 5.48284 19.9493 5.38814 20.0049C5.12895 20.1508 4.93182 20.3862 4.83366 20.667C4.73549 20.9477 4.74303 21.2547 4.85485 21.5303C4.95549 21.8006 5.15004 22.0258 5.40294 22.1645C5.65584 22.3033 5.95021 22.3464 6.23229 22.286C6.92218 22.1567 7.61313 22.0301 8.30586 21.9031C8.90933 21.7924 9.51415 21.6816 10.1208 21.5685L10.4288 22.2134C9.98678 22.2926 9.54744 22.3749 9.10968 22.457L9.10966 22.457L9.10962 22.457L9.10956 22.457C8.10035 22.6462 7.09946 22.8338 6.09269 22.9766C5.20759 23.1041 4.3774 22.4536 4.14472 21.5861C3.90553 20.6964 4.31597 19.7434 5.1443 19.3525C6.10944 18.8992 7.08668 18.4692 8.06671 18.0495C8.31893 17.9415 8.4148 17.8056 8.40177 17.532C8.3861 17.222 8.3892 16.9084 8.39245 16.5795V16.5795L8.39246 16.5793C8.39384 16.4393 8.39525 16.2964 8.39525 16.1499ZM10.4166 8.79839C10.8404 9.08051 11.3384 9.23051 11.8476 9.2294C12.528 9.2267 13.1798 8.95502 13.6606 8.47361C14.1415 7.99221 14.4125 7.34016 14.4145 6.65973C14.415 6.15059 14.2645 5.65273 13.9819 5.2292C13.6993 4.80567 13.2974 4.47552 12.8271 4.28056C12.3567 4.08559 11.8391 4.03457 11.3398 4.13397C10.8404 4.23337 10.3818 4.47871 10.022 4.83892C9.66218 5.19914 9.41734 5.65802 9.31849 6.15748C9.21963 6.65693 9.27121 7.17449 9.46669 7.64461C9.66217 8.11473 9.99275 8.51627 10.4166 8.79839ZM13.3885 5.61614C13.5967 5.92613 13.7083 6.29094 13.709 6.66438C13.7112 6.91198 13.6643 7.15756 13.571 7.38692C13.4778 7.61628 13.3399 7.82488 13.1656 8.00066C12.9912 8.17643 12.7837 8.31589 12.555 8.41098C12.3264 8.50607 12.0812 8.5549 11.8336 8.55464C11.4602 8.55685 11.0945 8.44818 10.7829 8.2424C10.4713 8.03662 10.2277 7.74298 10.0831 7.39868C9.9385 7.05438 9.89933 6.6749 9.97055 6.30832C10.0418 5.94174 10.2202 5.60454 10.4832 5.33944C10.7462 5.07434 11.082 4.89326 11.448 4.81913C11.814 4.74501 12.1938 4.78118 12.5392 4.92306C12.8847 5.06495 13.1802 5.30616 13.3885 5.61614ZM10.1442 19.2192V19.908C10.0128 19.9385 9.88186 19.9705 9.75111 20.0025L9.75105 20.0025C9.38733 20.0914 9.02471 20.1801 8.65504 20.2356C8.5668 20.249 8.46451 20.1702 8.36234 20.0915L8.36232 20.0914C8.31578 20.0556 8.26927 20.0197 8.22412 19.9927C8.25337 19.9494 8.28014 19.8974 8.30694 19.8454C8.36541 19.732 8.42403 19.6183 8.50892 19.5934C8.87893 19.4853 9.25651 19.4065 9.65342 19.3237L9.65348 19.3237L9.65353 19.3237L9.65356 19.3236L9.65376 19.3236C9.81382 19.2902 9.97703 19.2561 10.1442 19.2192ZM21.4269 7.81269L21.4269 7.81272C21.3505 7.88101 21.2557 7.96578 21.145 8.00068C21.0701 8.02423 20.989 8.06928 20.9063 8.11521C20.6622 8.25086 20.4042 8.39425 20.2506 8.01464C20.0983 7.63922 20.3934 7.54845 20.6663 7.46454C20.7519 7.43821 20.8353 7.41255 20.902 7.37897C21.2464 7.20493 21.5238 7.35198 21.507 7.74474C21.4831 7.76237 21.4564 7.7863 21.4269 7.81269ZM2.96081 15.6379C3.02499 15.5972 3.08919 15.5566 3.15445 15.519L3.28661 15.2295C3.24094 15.2137 3.19287 15.1905 3.14478 15.1674C3.04001 15.1168 2.93514 15.0663 2.85476 15.0918C2.50395 15.2113 2.16471 15.3623 1.84123 15.5432C1.80679 15.5618 1.85891 15.8764 1.90545 15.8857C2.09778 15.935 2.29945 15.935 2.49179 15.8857C2.65729 15.8301 2.80899 15.734 2.9608 15.6379L2.96081 15.6379ZM8.19595 2.87981L8.19594 2.87982C8.14122 2.96562 8.09078 3.04469 8.02582 3.05793C7.90483 3.08492 7.6917 3.04211 7.63493 2.95369C7.48636 2.7232 7.37692 2.46974 7.31104 2.20355C7.28591 2.1021 7.40411 1.9141 7.5037 1.85081C7.58467 1.80055 7.81176 1.8415 7.85922 1.91503C8.01558 2.18793 8.15574 2.4698 8.27897 2.75918C8.24898 2.79667 8.22197 2.839 8.19595 2.87981ZM15.2976 3.058L16.0309 2.06587C15.9463 2.01458 15.8758 1.96594 15.8139 1.92322C15.6961 1.84191 15.6093 1.78205 15.5153 1.76618C15.3227 1.73454 14.888 2.42977 14.9504 2.71457C14.9702 2.80605 15.0696 2.88037 15.1692 2.95478C15.2144 2.98863 15.2597 3.0225 15.2976 3.058ZM3.27661 8.1179C3.20436 8.15386 3.13854 8.19503 3.07887 8.23235C2.9656 8.3032 2.87452 8.36016 2.80381 8.34127C2.45919 8.24238 2.126 8.1073 1.80982 7.93827C1.77734 7.92138 1.80107 7.79754 1.82438 7.67585C1.83448 7.62315 1.84449 7.57086 1.84984 7.52783C1.85245 7.5206 1.85678 7.51411 1.86245 7.50892C1.86813 7.50373 1.87498 7.5 1.88241 7.49805C2.17196 7.53842 2.4586 7.59749 2.74052 7.67488C2.8296 7.70339 2.90465 7.77471 3.02299 7.88715C3.09012 7.95094 3.17117 8.02795 3.27661 8.1179ZM20.8774 15.0208C20.795 14.9892 20.7074 14.9556 20.6147 14.916C20.5851 14.9385 20.5473 14.9608 20.508 14.9841C20.4135 15.04 20.3099 15.1014 20.2889 15.1822C20.2844 15.2589 20.2983 15.3355 20.3294 15.4058C20.3605 15.476 20.4078 15.5379 20.4676 15.5861C20.6589 15.718 20.8774 15.8051 21.107 15.8411C21.2345 15.8607 21.4597 15.7704 21.5025 15.6643C21.5454 15.5582 21.4616 15.3255 21.3592 15.252C21.2254 15.1544 21.0648 15.0927 20.8774 15.0208ZM5.14233 4.93284L5.14233 4.93285C5.08894 5.01811 5.04623 5.08632 4.98506 5.1135C4.93235 5.13705 4.87499 5.14836 4.81729 5.14659C4.75958 5.14481 4.70303 5.13 4.65187 5.10326C4.43711 4.94813 4.24858 4.7596 4.09344 4.54484C4.02829 4.44619 4.06552 4.21351 4.14463 4.10741C4.19675 4.03761 4.45363 4.02551 4.53553 4.09066C4.72062 4.23928 4.88027 4.41181 5.05022 4.59546C5.11015 4.66022 5.17136 4.72637 5.23542 4.79334C5.19916 4.84211 5.1694 4.88961 5.14239 4.93276L5.14237 4.93277L5.14237 4.93279L5.14236 4.9328L5.14233 4.93284ZM19.1515 4.62752L19.1516 4.62742C19.2282 4.56061 19.3064 4.49249 19.3871 4.42326C19.3437 4.36395 19.3093 4.30987 19.2793 4.26261C19.2197 4.16896 19.1772 4.10208 19.1153 4.07424C19.0633 4.05051 19.0065 4.03885 18.9493 4.04014C18.8921 4.04142 18.8359 4.05563 18.7849 4.08169C18.5756 4.24057 18.3878 4.42611 18.2265 4.6336C18.1953 4.69147 18.1773 4.75557 18.1739 4.82126C18.1705 4.88694 18.1818 4.95255 18.207 5.01332C18.2451 5.09709 18.4573 5.19853 18.5001 5.16782C18.722 5.00197 18.9304 4.82022 19.1515 4.62752ZM1.63009 11.9877C1.59219 11.9877 1.5521 11.9916 1.51203 11.9955C1.42122 12.0044 1.33047 12.0133 1.26525 11.9765C1.14705 11.9104 1 11.7671 1 11.6563C1 11.5456 1.15264 11.3771 1.26618 11.3474C1.4925 11.2936 1.72777 11.2894 1.95583 11.3353C2.05593 11.3572 2.14213 11.4414 2.22812 11.5255L2.22814 11.5255L2.22815 11.5255C2.26609 11.5626 2.30398 11.5996 2.34301 11.6312C2.22359 11.7604 2.09207 11.8779 1.95025 11.9821C1.89646 12.0154 1.81668 12.0068 1.73667 11.9983C1.70039 11.9944 1.66406 11.9905 1.63009 11.9905V11.9877ZM21.7714 11.3233C21.7317 11.327 21.6919 11.3307 21.654 11.3307L21.6568 11.3242C21.6276 11.3242 21.5965 11.3209 21.5655 11.3176C21.4974 11.3104 21.4295 11.3032 21.3822 11.3307C21.2348 11.4268 21.0948 11.5339 20.9634 11.6508C21.0018 11.6841 21.0394 11.7222 21.0774 11.7606L21.0774 11.7606C21.1698 11.8541 21.2639 11.9493 21.3748 11.9803C21.5852 12.0357 21.8066 12.0338 22.016 11.9747C22.0872 11.9443 22.1503 11.8977 22.2002 11.8385C22.2502 11.7794 22.2856 11.7094 22.3036 11.6341C22.3166 11.5494 22.1407 11.4005 22.0197 11.3409C21.9507 11.3067 21.8611 11.315 21.7714 11.3233ZM4.99556 18.7902L4.9955 18.7902C4.80069 18.9695 4.60459 19.1499 4.37591 19.2586C4.14603 19.3685 3.92173 19.0995 4.04644 18.8808C4.2262 18.5981 4.46378 18.3567 4.74354 18.1725C4.79326 18.1364 4.92226 18.2108 5.04913 18.2841C5.10513 18.3164 5.16072 18.3485 5.20889 18.3708L5.23309 18.5783C5.15275 18.6455 5.07426 18.7177 4.99556 18.7902ZM19.2129 19.1234C19.288 19.0713 19.3746 19.0113 19.4662 18.954C19.3742 18.8759 19.2888 18.8025 19.2081 18.733C18.9432 18.5051 18.7285 18.3204 18.4974 18.1592C18.4766 18.1447 18.3789 18.2399 18.2804 18.3359C18.2331 18.382 18.1857 18.4282 18.1465 18.4626C18.2099 18.5276 18.2727 18.5932 18.3354 18.6588C18.5361 18.8687 18.7366 19.0784 18.9571 19.2649C18.9804 19.2846 19.0782 19.2168 19.2129 19.1234Z" fill="black"/>
</svg>
