<svg xmlns="http://www.w3.org/2000/svg" width="32" height="32" viewBox="0 0 32 32" fill="none">
    <path fill-rule="evenodd" clip-rule="evenodd"
        d="M29.8516 16.9779L30.4019 17.7504C31.0429 18.6455 30.7707 19.9146 29.8153 20.4357L28.9989 20.9016C28.3216 21.2817 27.9587 22.0665 28.0978 22.8451L28.2672 23.7831C28.4667 24.8744 27.6806 25.8983 26.5981 25.9596L25.6668 26.0148C24.8928 26.0638 24.2336 26.6095 24.028 27.3697L23.7801 28.2893C23.4898 29.3622 22.3529 29.9324 21.3491 29.5094L20.4843 29.1477C19.7647 28.8472 18.9422 29.0496 18.4343 29.6443L17.8235 30.3677C17.1159 31.2015 15.846 31.2138 15.1203 30.3861L14.4975 29.6749C13.9834 29.0863 13.155 28.9024 12.4414 29.2151L11.5827 29.5952C10.5909 30.0366 9.44193 29.4849 9.13956 28.4181L8.87953 27.4985C8.66183 26.7382 7.99662 26.1987 7.22257 26.1681L6.29129 26.1251C5.20277 26.0822 4.40453 25.0706 4.58595 23.9793L4.73713 23.0474C4.87017 22.2688 4.49524 21.4902 3.81189 21.1162L2.98946 20.6625C2.03399 20.1353 1.73767 18.8784 2.36659 17.9711L2.91689 17.1863C3.36439 16.5365 3.35835 15.672 2.89875 15.0344L2.34845 14.2619C1.70744 13.3668 1.97956 12.1038 2.92899 11.5643L3.74537 11.0984C4.42267 10.7183 4.78551 9.9335 4.64642 9.15488L4.4771 8.21686C4.27754 7.13169 5.06369 6.10784 6.14615 6.04653L7.07743 5.99135C7.84544 5.94843 8.5046 5.40279 8.71625 4.6303L8.96419 3.71067C9.25446 2.63776 10.3914 2.06759 11.3952 2.49062L12.26 2.85234C12.9796 3.15276 13.802 2.95044 14.31 2.35574L14.9208 1.6323C15.6283 0.798501 16.8982 0.786239 17.6239 1.61391L18.2468 2.32509C18.7608 2.91978 19.5893 3.10371 20.3029 2.79103L21.1616 2.41092C22.1533 1.9695 23.3023 2.52128 23.6047 3.58805L23.8647 4.50768C24.0824 5.26791 24.7476 5.80742 25.5217 5.83808L26.453 5.88099C27.5415 5.92391 28.3397 6.9355 28.1583 8.0268L28.0011 8.97095C27.868 9.74957 28.243 10.5282 28.9263 10.9022L29.7487 11.3559C30.7042 11.8831 31.0005 13.1399 30.3716 14.0473L29.8334 14.8259C29.3859 15.4758 29.392 16.3403 29.8516 16.9779ZM16.5 26.5C22.299 26.5 27 21.6871 27 15.75C27 9.81294 22.299 5 16.5 5C10.701 5 6 9.81294 6 15.75C6 21.6871 10.701 26.5 16.5 26.5Z"
        fill="#41285F" />
    <path fill-rule="evenodd" clip-rule="evenodd"
        d="M16.5482 8L7 13.7868L7.00002 13.7868L7 13.7868L16.6446 19.4772L17.8207 18.6147L21.1777 16.5937V18.6092L16.5483 21.2132L11.6295 18.4163L11.5331 20.1523L16.6447 23.0457L22.8173 19.3807V15.6193L21.8914 16.164L26.0001 13.6904L24.3605 12.8223L16.3918 17.4104L10.1395 13.71L17.9949 9.06091L16.5482 8Z"
        fill="#41285F" />
    <path d="M19.7308 10.1219L16.741 11.7614L19.7308 13.4011L22.7206 11.7614L19.7308 10.1219Z"
        fill="#41285F" />
    <path d="M9.8935 16.005L8.31419 15.137L8.25391 18.2233L9.12192 17.934L9.8935 19.0913V16.005Z"
        fill="#549B43" />
</svg>