<svg width="190" height="31" viewBox="0 0 190 31" fill="none" xmlns="http://www.w3.org/2000/svg">
<path fill-rule="evenodd" clip-rule="evenodd" d="M19.6554 0L0 11.9124L19.8539 23.6262L22.2764 21.8497L29.1853 17.6903V21.8393L19.6554 27.1999L9.52991 21.4422L9.33137 25.016L19.854 30.9721L32.5605 23.4276V15.6846L30.6539 16.8061L39.1123 11.7138L35.7371 9.92696L19.3333 19.3716L6.46279 11.7543L22.6335 2.18393L19.6554 0Z" fill="#41285F"/>
<path d="M26.2075 4.36787L20.0527 7.74275L26.2075 11.1182L32.3622 7.74275L26.2075 4.36787Z" fill="#41285F"/>
<path d="M5.95622 16.4788L2.70514 14.6919L2.58105 21.0452L4.36791 20.4496L5.95622 22.832V16.4788Z" fill="#549B43"/>
<path d="M49.0505 7.52543C50.2587 7.52543 51.3334 7.77003 52.2748 8.25923C53.2235 8.74102 53.987 9.4007 54.5651 10.2383C55.1507 11.0758 55.4953 12.0209 55.5991 13.0734H52.1969C52.0932 12.5175 51.9042 12.0246 51.6299 11.5947C51.3557 11.1574 50.9962 10.8164 50.5514 10.5718C50.1067 10.3198 49.573 10.1938 48.9504 10.1938C48.2018 10.1938 47.5569 10.3754 47.0159 10.7386C46.4748 11.1018 46.0597 11.6873 45.7706 12.4953C45.4815 13.3032 45.337 14.3705 45.337 15.6973C45.337 17.6986 45.6557 19.1477 46.2932 20.0445C46.938 20.934 47.8238 21.3787 48.9504 21.3787C49.573 21.3787 50.1067 21.2379 50.5514 20.9562C50.9962 20.6671 51.3557 20.2891 51.6299 19.8222C51.9042 19.3478 52.0932 18.8289 52.1969 18.2656H55.5991C55.5028 19.0291 55.3175 19.7592 55.0432 20.4559C54.769 21.1452 54.3798 21.7604 53.8758 22.3015C53.3718 22.8426 52.7232 23.2688 51.9301 23.5801C51.137 23.8914 50.1771 24.0471 49.0505 24.0471C47.5532 24.0471 46.2598 23.6987 45.1702 23.002C44.0807 22.3052 43.2394 21.3268 42.6464 20.0668C42.0608 18.8067 41.7681 17.3354 41.7681 15.6528C41.7681 13.9629 42.0608 12.5138 42.6464 11.3056C43.232 10.09 44.0695 9.1561 45.1591 8.50383C46.2487 7.85156 47.5458 7.52543 49.0505 7.52543Z" fill="#41285F"/>
<path d="M61.0826 24.0471C60.3488 24.0471 59.6892 23.91 59.1036 23.6357C58.518 23.3615 58.0548 22.9649 57.7138 22.4461C57.3729 21.9198 57.2024 21.2824 57.2024 20.5337C57.2024 19.2737 57.6731 18.3175 58.6144 17.6652C59.5557 17.0056 61.0419 16.6646 63.0728 16.6424L64.5071 16.6201V15.9308C64.5071 15.4045 64.3514 15.0006 64.0401 14.7189C63.7362 14.4298 63.2618 14.289 62.617 14.2964C62.1426 14.3038 61.6904 14.415 61.2605 14.63C60.838 14.8449 60.549 15.2192 60.3933 15.7529H57.6916C57.7361 14.9227 57.977 14.2408 58.4143 13.7072C58.8516 13.1661 59.4446 12.7658 60.1932 12.5064C60.9492 12.2395 61.8053 12.1061 62.7615 12.1061C63.94 12.1061 64.8851 12.2544 65.5966 12.5509C66.3082 12.8399 66.8234 13.2587 67.1421 13.8072C67.4608 14.3483 67.6202 14.9932 67.6202 15.7418V23.8247H64.9073L64.6405 21.8457C64.2476 22.6758 63.7547 23.2503 63.1618 23.569C62.5762 23.8877 61.8832 24.0471 61.0826 24.0471ZM62.1722 21.9124C62.4687 21.9124 62.7541 21.8605 63.0283 21.7567C63.31 21.6455 63.5583 21.501 63.7733 21.3231C63.9956 21.1378 64.1735 20.9303 64.3069 20.7005C64.4403 20.4707 64.5071 20.2335 64.5071 19.9889V18.2879L63.3396 18.3101C62.7986 18.3175 62.2945 18.3842 61.8276 18.5102C61.3606 18.6288 60.9826 18.8252 60.6935 19.0995C60.4119 19.3737 60.271 19.7443 60.271 20.2113C60.271 20.745 60.4563 21.1638 60.8269 21.4677C61.1975 21.7641 61.646 21.9124 62.1722 21.9124Z" fill="#41285F"/>
<path d="M70.494 23.8247V12.3285H73.6738V13.9518C74.0222 13.4477 74.4892 13.0141 75.0747 12.6509C75.6677 12.2877 76.4126 12.1061 77.3095 12.1061C77.7023 12.1061 78.1026 12.1765 78.5103 12.3174C78.9179 12.4582 79.2997 12.6657 79.6554 12.94C80.0186 13.2068 80.3114 13.5441 80.5338 13.9518C80.9044 13.4255 81.3899 12.9882 81.9903 12.6398C82.5981 12.284 83.2726 12.1061 84.0138 12.1061C84.4437 12.1061 84.8773 12.1765 85.3146 12.3174C85.7593 12.4582 86.167 12.688 86.5376 13.0067C86.9082 13.3254 87.2047 13.7516 87.4271 14.2853C87.6568 14.8116 87.7717 15.4638 87.7717 16.2421V23.8247H84.5252V16.6424C84.5252 16.1828 84.4326 15.8159 84.2473 15.5417C84.0694 15.26 83.8396 15.0599 83.5579 14.9413C83.2837 14.8153 82.9909 14.7523 82.6796 14.7523C82.3905 14.7523 82.0977 14.8116 81.8013 14.9302C81.5048 15.0413 81.2528 15.2229 81.0452 15.4749C80.8377 15.727 80.7339 16.0568 80.7339 16.4645V23.8247H77.4985V16.3533C77.4985 16.0049 77.4059 15.7121 77.2206 15.4749C77.0352 15.2378 76.8018 15.0599 76.5201 14.9413C76.2459 14.8153 75.9642 14.7523 75.6751 14.7523C75.3786 14.7523 75.0821 14.8153 74.7857 14.9413C74.4892 15.0599 74.2409 15.2489 74.0407 15.5083C73.8406 15.7603 73.7406 16.079 73.7406 16.4645V23.8247H70.494Z" fill="#41285F"/>
<path d="M90.4069 27.4048V12.3285H93.6645L93.6757 13.9851C93.8461 13.7109 94.0537 13.4626 94.2983 13.2402C94.5503 13.0104 94.8283 12.8103 95.1321 12.6398C95.436 12.4693 95.7659 12.3396 96.1217 12.2507C96.4775 12.1543 96.8518 12.1061 97.2446 12.1061C98.097 12.1061 98.8568 12.3174 99.5238 12.7399C100.191 13.1549 100.713 13.7998 101.092 14.6744C101.477 15.5417 101.67 16.6461 101.67 17.9877C101.67 19.3811 101.462 20.5263 101.047 21.4232C100.639 22.3126 100.076 22.9723 99.3571 23.4022C98.6381 23.8321 97.8265 24.0471 96.9222 24.0471C96.5516 24.0471 96.2032 23.9952 95.8771 23.8914C95.5509 23.7951 95.247 23.6579 94.9654 23.4801C94.6911 23.3022 94.4428 23.0983 94.2205 22.8686C94.0055 22.6314 93.8165 22.3756 93.6534 22.1014V27.4048H90.4069ZM96.1439 21.6678C96.8481 21.6678 97.4373 21.375 97.9117 20.7894C98.3935 20.2039 98.6344 19.2774 98.6344 18.0099C98.6344 16.8981 98.4046 16.0309 97.9451 15.4082C97.4929 14.7782 96.8925 14.4632 96.1439 14.4632C95.3063 14.4632 94.68 14.8041 94.2649 15.4861C93.8573 16.1606 93.6534 17.0018 93.6534 18.0099C93.6534 18.6548 93.7424 19.2551 93.9203 19.811C94.1056 20.367 94.3798 20.8154 94.743 21.1563C95.1136 21.4973 95.5806 21.6678 96.1439 21.6678Z" fill="#41285F"/>
<path d="M107.933 24.0471C107.399 24.0471 106.873 23.9655 106.354 23.8025C105.842 23.6394 105.375 23.3985 104.953 23.0798C104.531 22.7611 104.19 22.3682 103.93 21.9013C103.678 21.4343 103.552 20.8932 103.552 20.278V12.3285H106.799V19.8666C106.799 20.4003 106.973 20.8376 107.321 21.1786C107.67 21.5195 108.181 21.69 108.855 21.69C109.493 21.69 109.997 21.527 110.368 21.2008C110.746 20.8673 110.935 20.404 110.935 19.811V12.3285H114.148V23.8247H111.702L111.324 21.5455C111.19 22.22 110.938 22.7388 110.568 23.102C110.205 23.4578 109.786 23.7024 109.311 23.8358C108.844 23.9767 108.385 24.0471 107.933 24.0471Z" fill="#41285F"/>
<path d="M121.338 24.0471C120.538 24.0471 119.767 23.9174 119.026 23.6579C118.284 23.3911 117.658 22.976 117.147 22.4127C116.635 21.842 116.309 21.1045 116.168 20.2002H118.981C119.078 20.6079 119.252 20.9303 119.504 21.1675C119.763 21.4047 120.056 21.5751 120.382 21.6789C120.708 21.7753 121.02 21.8234 121.316 21.8234C121.939 21.8234 122.439 21.7271 122.817 21.5344C123.202 21.3342 123.395 21.0303 123.395 20.6227C123.395 20.3114 123.28 20.0631 123.05 19.8778C122.828 19.6925 122.458 19.5516 121.939 19.4553L119.915 19.0328C118.9 18.8178 118.084 18.4546 117.469 17.9432C116.854 17.4243 116.539 16.6905 116.524 15.7418C116.524 15.0525 116.706 14.4335 117.069 13.885C117.439 13.3365 117.984 12.9029 118.703 12.5842C119.422 12.2655 120.304 12.1061 121.349 12.1061C122.765 12.1061 123.895 12.4174 124.74 13.0401C125.593 13.6627 126.026 14.541 126.041 15.6751H123.328C123.247 15.2303 123.025 14.8894 122.661 14.6522C122.306 14.4076 121.857 14.2853 121.316 14.2853C120.753 14.2853 120.289 14.3854 119.926 14.5855C119.563 14.7856 119.381 15.0895 119.381 15.4972C119.381 15.8011 119.53 16.042 119.826 16.2199C120.123 16.3903 120.582 16.5386 121.205 16.6646L123.073 17.0871C123.718 17.2427 124.24 17.4577 124.64 17.7319C125.048 17.9988 125.363 18.2916 125.585 18.6103C125.808 18.929 125.96 19.2514 126.041 19.5776C126.13 19.8963 126.175 20.1854 126.175 20.4448C126.175 21.2082 125.971 21.8605 125.563 22.4016C125.156 22.9353 124.589 23.3429 123.862 23.6246C123.136 23.9062 122.294 24.0471 121.338 24.0471Z" fill="#41285F"/>
<path d="M135.412 7.12835C136.62 7.12835 137.695 7.37295 138.636 7.86215C139.585 8.34394 140.348 9.00362 140.926 9.84119C141.512 10.6788 141.857 11.6238 141.96 12.6763H138.558C138.454 12.1204 138.265 11.6275 137.991 11.1976C137.717 10.7603 137.358 10.4193 136.913 10.1747C136.468 9.92272 135.934 9.79672 135.312 9.79672C134.563 9.79672 133.918 9.97831 133.377 10.3415C132.836 10.7047 132.421 11.2903 132.132 12.0982C131.843 12.9061 131.698 13.9735 131.698 15.3002C131.698 17.3015 132.017 18.7506 132.655 19.6474C133.299 20.5369 134.185 20.9816 135.312 20.9816C135.934 20.9816 136.468 20.8408 136.913 20.5591C137.358 20.2701 137.717 19.892 137.991 19.4251C138.265 18.9507 138.454 18.4319 138.558 17.8685H141.96C141.864 18.632 141.679 19.3621 141.405 20.0588C141.13 20.7481 140.741 21.3634 140.237 21.9044C139.733 22.4455 139.085 22.8717 138.291 23.183C137.498 23.4943 136.538 23.65 135.412 23.65C133.915 23.65 132.621 23.3016 131.532 22.6049C130.442 21.9081 129.601 20.9297 129.008 19.6697C128.422 18.4096 128.129 16.9383 128.129 15.2558C128.129 13.5658 128.422 12.1167 129.008 10.9085C129.593 9.69295 130.431 8.75902 131.52 8.10675C132.61 7.45448 133.907 7.12835 135.412 7.12835Z" fill="#549B43"/>
<path d="M144.413 23.4276V11.9314H147.537V14.6554C147.722 14.0698 147.981 13.5584 148.315 13.1211C148.656 12.6763 149.067 12.3317 149.549 12.0871C150.031 11.8351 150.576 11.709 151.184 11.709C151.287 11.709 151.384 11.7165 151.473 11.7313C151.569 11.7387 151.639 11.7535 151.684 11.7758V14.8666C151.617 14.837 151.536 14.8184 151.439 14.811C151.35 14.8036 151.269 14.7962 151.195 14.7888C150.557 14.7369 150.012 14.7554 149.56 14.8444C149.108 14.9333 148.741 15.0853 148.46 15.3002C148.178 15.5152 147.974 15.7783 147.848 16.0896C147.722 16.4009 147.659 16.7493 147.659 17.1347V23.4276H144.413Z" fill="#549B43"/>
<path d="M156.071 18.4244C156.064 19.01 156.156 19.5214 156.349 19.9588C156.542 20.3887 156.82 20.7222 157.183 20.9594C157.553 21.1892 157.998 21.3041 158.517 21.3041C159.073 21.3041 159.558 21.1855 159.974 20.9483C160.396 20.7111 160.689 20.3219 160.852 19.7809H163.776C163.65 20.5962 163.324 21.2929 162.798 21.8711C162.279 22.4492 161.649 22.8903 160.907 23.1942C160.166 23.4981 159.395 23.65 158.595 23.65C157.461 23.65 156.46 23.4128 155.593 22.9384C154.733 22.4566 154.062 21.7784 153.581 20.9038C153.099 20.0292 152.858 18.9989 152.858 17.8129C152.858 16.6641 153.077 15.6301 153.514 14.711C153.951 13.7844 154.585 13.0544 155.415 12.5207C156.253 11.9796 157.257 11.709 158.428 11.709C159.599 11.709 160.581 11.9574 161.374 12.454C162.175 12.9432 162.775 13.6288 163.176 14.5108C163.583 15.3855 163.787 16.3972 163.787 17.5461V18.4244H156.071ZM156.06 16.4899H160.752C160.752 16.0303 160.667 15.6078 160.496 15.2224C160.326 14.837 160.066 14.5331 159.718 14.3107C159.377 14.0883 158.947 13.9772 158.428 13.9772C157.924 13.9772 157.494 14.0995 157.138 14.3441C156.79 14.5813 156.523 14.8926 156.338 15.278C156.153 15.6634 156.06 16.0674 156.06 16.4899Z" fill="#549B43"/>
<path d="M170.31 23.65C168.769 23.65 167.568 23.12 166.708 22.0601C165.848 20.9927 165.418 19.5103 165.418 17.6128C165.418 16.412 165.592 15.3706 165.941 14.4886C166.289 13.6066 166.804 12.9246 167.486 12.4428C168.168 11.9536 169.002 11.709 169.988 11.709C170.403 11.709 170.788 11.7572 171.144 11.8536C171.507 11.9425 171.837 12.0685 172.134 12.2316C172.43 12.3947 172.69 12.5837 172.912 12.7986C173.134 13.0136 173.316 13.2434 173.457 13.488V6.90598H176.714V23.4276H174.357L173.99 21.0706C173.887 21.3893 173.742 21.7006 173.557 22.0045C173.372 22.3084 173.134 22.5864 172.845 22.8384C172.556 23.083 172.2 23.2794 171.778 23.4276C171.363 23.5759 170.874 23.65 170.31 23.65ZM171.022 21.3152C171.837 21.3152 172.445 21.0298 172.845 20.4591C173.253 19.8883 173.457 18.9248 173.457 17.5683C173.449 16.7827 173.357 16.1304 173.179 15.6115C173.001 15.0927 172.734 14.7073 172.378 14.4552C172.03 14.1958 171.585 14.0661 171.044 14.0661C170.34 14.0661 169.754 14.3366 169.287 14.8777C168.82 15.4114 168.587 16.3083 168.587 17.5683C168.587 18.8506 168.806 19.7957 169.243 20.4035C169.68 21.0113 170.273 21.3152 171.022 21.3152Z" fill="#549B43"/>
<path d="M184.441 23.65C183.314 23.65 182.332 23.4091 181.495 22.9273C180.664 22.4455 180.02 21.7636 179.56 20.8816C179.108 19.9995 178.882 18.9544 178.882 17.7462C178.882 16.5381 179.108 15.4818 179.56 14.5775C180.02 13.6733 180.664 12.9691 181.495 12.4651C182.332 11.9611 183.318 11.709 184.452 11.709C185.586 11.709 186.568 11.9574 187.398 12.454C188.228 12.9432 188.87 13.6399 189.322 14.5442C189.774 15.4485 190 16.5158 190 17.7462C190 18.9025 189.778 19.9254 189.333 20.8149C188.896 21.6969 188.262 22.3899 187.432 22.894C186.609 23.398 185.612 23.65 184.441 23.65ZM184.452 21.2374C185.023 21.2374 185.482 21.0706 185.831 20.737C186.179 20.4035 186.431 19.9662 186.587 19.4251C186.75 18.8766 186.831 18.2799 186.831 17.6351C186.831 17.0273 186.757 16.4528 186.609 15.9117C186.468 15.3706 186.223 14.9333 185.875 14.5998C185.527 14.2662 185.052 14.0995 184.452 14.0995C183.881 14.0995 183.418 14.2588 183.062 14.5775C182.714 14.8889 182.458 15.3151 182.295 15.8561C182.132 16.3898 182.05 16.9828 182.05 17.6351C182.05 18.2354 182.125 18.8136 182.273 19.3695C182.421 19.918 182.669 20.3664 183.018 20.7148C183.366 21.0632 183.844 21.2374 184.452 21.2374Z" fill="#549B43"/>
</svg>
