<svg xmlns="http://www.w3.org/2000/svg" width="45" height="45" viewBox="0 0 26 26" fill="none">
    <circle cx="13" cy="13" r="12.25" fill="url(#paint0_linear_229_39)"
        stroke="url(#paint1_linear_229_39)" stroke-width="0.5" />
    <path
        d="M6.25 21H5.35227V18.0909H6.28977C6.57197 18.0909 6.81345 18.1491 7.0142 18.2656C7.21496 18.3812 7.36884 18.5473 7.47585 18.7642C7.58286 18.9801 7.63636 19.2386 7.63636 19.5398C7.63636 19.8428 7.58239 20.1037 7.47443 20.3224C7.36648 20.5402 7.20928 20.7079 7.00284 20.8253C6.7964 20.9418 6.54545 21 6.25 21ZM5.70455 20.6875H6.22727C6.4678 20.6875 6.66714 20.6411 6.82528 20.5483C6.98343 20.4555 7.10133 20.3234 7.17898 20.152C7.25663 19.9806 7.29545 19.7765 7.29545 19.5398C7.29545 19.3049 7.2571 19.1027 7.1804 18.9332C7.10369 18.7628 6.98911 18.6321 6.83665 18.5412C6.68419 18.4493 6.49432 18.4034 6.26705 18.4034H5.70455V20.6875ZM8.42727 21V18.0909H10.183V18.4034H8.77955V19.3864H10.092V19.6989H8.77955V20.6875H10.2057V21H8.42727ZM11.0179 21V18.0909H11.3702V20.6875H12.7224V21H11.0179ZM13.4679 21V18.0909H15.2236V18.4034H13.8202V19.3864H15.1327V19.6989H13.8202V20.6875H15.2463V21H13.4679ZM15.8994 18.4034V18.0909H18.0813V18.4034H17.1665V21H16.8142V18.4034H15.8994ZM18.8249 21V18.0909H20.5806V18.4034H19.1772V19.3864H20.4897V19.6989H19.1772V20.6875H20.6033V21H18.8249Z"
        fill="white" />
    <path
        d="M7.53997 5.88457H11.2355V5.60547V5.6042C11.2355 5.59492 11.2357 5.58604 11.237 5.57695C11.2453 5.42148 11.3215 5.28037 11.4383 5.17793L11.4375 5.17725C11.5598 5.06943 11.7297 5.00244 11.9167 5.00088L11.9193 5.00107V5H11.9227H14.126H14.1278C14.1396 5 14.1508 5.00088 14.1621 5.00215C14.3375 5.01035 14.4966 5.07637 14.6124 5.17891C14.7345 5.28672 14.8103 5.43623 14.8122 5.60029L14.8118 5.60234H14.8134V5.60547V5.88447H18.46H18.4619C18.4772 5.88447 18.4916 5.88584 18.5063 5.88779C18.6373 5.89814 18.7561 5.94883 18.8425 6.02549L18.843 6.02617L18.8435 6.02549C18.9378 6.10918 18.9971 6.22549 18.9988 6.35439L18.9986 6.35752H19.0001V6.36064V7.41816C19.0001 7.56191 18.8677 7.67842 18.7046 7.67842H18.6968H7.29553C7.13242 7.67832 7 7.56182 7 7.41816V7.41201V6.36064V6.35928C7 6.34893 7.00044 6.33867 7.00199 6.32852V6.32646C7.01186 6.20859 7.07114 6.10146 7.15957 6.02393L7.15879 6.02373C7.25431 5.93965 7.38673 5.8874 7.53299 5.88564L7.53654 5.88584V5.88457H7.53997ZM15.6199 9.79463H14.9611V15.2725H15.6199V9.79463ZM13.4779 9.79463H12.8188V15.2725H13.4779V9.79463ZM11.336 9.79463H10.6771V15.2725H11.336V9.79463ZM8.20084 8.08291H17.8839L17.9148 8.08467L17.9289 8.08535L17.9438 8.08643H17.9448L17.9628 8.08867C18.1139 8.10459 18.2551 8.16572 18.3586 8.25547C18.4739 8.35557 18.5476 8.49131 18.5476 8.64258C18.5476 8.65215 18.5466 8.66143 18.5455 8.67051L18.5452 8.67715L18.5437 8.69219L17.7245 16.4397L17.7237 16.4439H17.7245L17.7227 16.4575L17.717 16.4852L17.7168 16.4856L17.7166 16.4874C17.7105 16.5197 17.7033 16.5505 17.6934 16.578L17.6927 16.5802L17.6924 16.5807L17.6915 16.5824L17.6889 16.5885L17.6885 16.5905C17.6754 16.6251 17.6592 16.6587 17.6406 16.6891C17.5288 16.8727 17.3216 17.0003 17.0639 17.0003H9.00898L8.98161 16.9989V16.9992L8.98039 16.9989L8.97684 16.9985C8.92587 16.9963 8.87833 16.9896 8.83412 16.9788C8.78813 16.9675 8.74348 16.9509 8.70148 16.9305L8.70048 16.9303L8.70026 16.9305C8.50247 16.8351 8.3706 16.649 8.34899 16.44L7.54075 8.69043L7.53953 8.67822L7.53831 8.6541L7.53787 8.64277H7.53732C7.53732 8.49111 7.61089 8.35508 7.72647 8.25498C7.83462 8.16172 7.98354 8.09883 8.14267 8.08643L8.15619 8.08604V8.08535L8.18943 8.08408L8.20095 8.08428V8.08291H8.20084ZM17.884 8.60381H8.20084V8.60312L8.18799 8.60352C8.16993 8.60566 8.15231 8.61387 8.13945 8.6252C8.13247 8.63135 8.12793 8.63809 8.12793 8.64268H8.12715L8.12793 8.6542L8.93484 16.3929H8.93462L8.93484 16.394C8.93839 16.4308 8.95723 16.4615 8.98438 16.4746L8.98415 16.475L8.99346 16.4781L9.00044 16.4793H9.00898H17.0643C17.0872 16.4793 17.1085 16.464 17.1217 16.4425L17.131 16.4232L17.137 16.4021L17.1385 16.3887H17.1391L17.9573 8.65332L17.9569 8.64258C17.9569 8.63818 17.9524 8.63174 17.9455 8.62578C17.9322 8.61426 17.9138 8.60605 17.8956 8.60361L17.884 8.60381ZM11.5307 6.40518H7.59084V7.15771H18.4092V6.40518H14.5247H14.5178C14.3546 6.40518 14.2226 6.28877 14.2226 6.14502V5.60547V5.60234H14.2233C14.2226 5.58086 14.2116 5.56006 14.1946 5.54521C14.1795 5.53145 14.1587 5.52285 14.1369 5.52061H14.1278H14.126H11.9227H11.9193V5.52002C11.8957 5.5207 11.8725 5.53018 11.8554 5.54531L11.855 5.54492L11.8542 5.54531C11.8397 5.5584 11.8286 5.57588 11.8255 5.59424L11.8263 5.6042V5.60547V6.14492C11.8262 6.28867 11.6938 6.40518 11.5307 6.40518Z"
        fill="white" />
    <defs>
        <linearGradient id="paint0_linear_229_39" x1="25" y1="1" x2="1" y2="25"
            gradientUnits="userSpaceOnUse">
            <stop stop-color="#FF5050" />
            <stop offset="1" stop-color="#FF0000" />
        </linearGradient>
        <linearGradient id="paint1_linear_229_39" x1="19.5" y1="2.5" x2="5.5" y2="21.5"
            gradientUnits="userSpaceOnUse">
            <stop stop-color="#FF5050" stop-opacity="0.79" />
            <stop offset="1" stop-color="#FF0000" stop-opacity="0.83" />
        </linearGradient>
    </defs>
</svg>