<svg width="153" height="25" viewBox="0 0 153 25" fill="none" xmlns="http://www.w3.org/2000/svg">
<path fill-rule="evenodd" clip-rule="evenodd" d="M15.7894 0L0.00604516 9.56566L0 9.56922L9.01002e-05 9.56927L0 9.56932L0.00391855 9.57153L15.9489 18.979L17.8936 17.553L23.4447 14.2109V17.5437L15.7893 21.8499L7.65535 17.2247L7.49586 20.0955L15.9488 24.8802L26.156 18.8196V12.5996L24.6376 13.4928L31.4196 9.40973L28.7083 7.97433L15.5308 15.5614L5.19172 9.44233L18.1817 1.75437L15.7894 0Z" fill="#41285F"/>
<path d="M21.0525 3.50879L16.1084 6.21987L21.0525 8.9314L25.9967 6.21987L21.0525 3.50879Z" fill="#41285F"/>
<path d="M4.78455 13.2375L2.17292 11.8021L2.07324 16.9058L3.50864 16.4273L4.78455 18.3412V13.2375Z" fill="#549B43"/>
<path d="M39.4028 6.04468C40.3733 6.04468 41.2367 6.24117 41.9929 6.63415C42.755 7.02117 43.3683 7.5511 43.8327 8.22393C44.3031 8.89676 44.58 9.65593 44.6634 10.5014H41.9304C41.847 10.0549 41.6952 9.65891 41.4749 9.31356C41.2546 8.96226 40.9658 8.68836 40.6085 8.49187C40.2513 8.28943 39.8226 8.18821 39.3224 8.18821C38.721 8.18821 38.203 8.33409 37.7683 8.62584C37.3337 8.9176 37.0002 9.38799 36.768 10.037C36.5358 10.686 36.4197 11.5434 36.4197 12.6092C36.4197 14.2169 36.6757 15.3809 37.1878 16.1014C37.7058 16.8159 38.4174 17.1732 39.3224 17.1732C39.8226 17.1732 40.2513 17.06 40.6085 16.8338C40.9658 16.6016 41.2546 16.2979 41.4749 15.9228C41.6952 15.5417 41.847 15.1249 41.9304 14.6724H44.6634C44.586 15.2857 44.4371 15.8722 44.2168 16.4319C43.9965 16.9856 43.6839 17.4798 43.279 17.9145C42.8741 18.3491 42.3531 18.6915 41.716 18.9416C41.0789 19.1917 40.3078 19.3167 39.4028 19.3167C38.2 19.3167 37.161 19.0369 36.2857 18.4772C35.4105 17.9175 34.7347 17.1315 34.2583 16.1193C33.7879 15.107 33.5527 13.9251 33.5527 12.5735C33.5527 11.2159 33.7879 10.0519 34.2583 9.08134C34.7287 8.10485 35.4015 7.35461 36.2768 6.83064C37.1521 6.30666 38.1941 6.04468 39.4028 6.04468Z" fill="#41285F"/>
<path d="M49.0683 19.3167C48.4789 19.3167 47.9489 19.2065 47.4786 18.9862C47.0082 18.7659 46.636 18.4474 46.3621 18.0306C46.0882 17.6078 45.9513 17.0958 45.9513 16.4944C45.9513 15.4822 46.3294 14.7141 47.0856 14.1901C47.8418 13.6602 49.0356 13.3863 50.6671 13.3684L51.8192 13.3505V12.7968C51.8192 12.374 51.6942 12.0495 51.4441 11.8233C51.2 11.5911 50.8189 11.4779 50.3009 11.4839C49.9198 11.4898 49.5566 11.5792 49.2112 11.7518C48.8718 11.9245 48.6396 12.2252 48.5146 12.6539H46.3443C46.38 11.987 46.5735 11.4392 46.9248 11.0105C47.2761 10.5759 47.7524 10.2543 48.3538 10.0459C48.9612 9.83158 49.6489 9.7244 50.417 9.7244C51.3637 9.7244 52.1229 9.84349 52.6945 10.0817C53.2661 10.3139 53.6799 10.6503 53.9359 11.0909C54.192 11.5256 54.32 12.0436 54.32 12.645V19.1381H52.1407L51.9264 17.5483C51.6108 18.2152 51.2148 18.6766 50.7385 18.9326C50.2681 19.1887 49.7114 19.3167 49.0683 19.3167ZM49.9436 17.6019C50.1818 17.6019 50.411 17.5602 50.6313 17.4768C50.8576 17.3875 51.0571 17.2714 51.2297 17.1285C51.4084 16.9797 51.5513 16.8129 51.6584 16.6284C51.7656 16.4438 51.8192 16.2532 51.8192 16.0567V14.6902L50.8814 14.7081C50.4467 14.7141 50.0419 14.7677 49.6667 14.8689C49.2916 14.9641 48.988 15.1219 48.7557 15.3422C48.5295 15.5625 48.4163 15.8603 48.4163 16.2354C48.4163 16.6641 48.5652 17.0005 48.8629 17.2446C49.1606 17.4828 49.5209 17.6019 49.9436 17.6019Z" fill="#41285F"/>
<path d="M56.6286 19.1381V9.90303H59.183V11.207C59.4628 10.8021 59.8379 10.4538 60.3083 10.162C60.7847 9.87028 61.3831 9.7244 62.1035 9.7244C62.4191 9.7244 62.7406 9.78097 63.0681 9.8941C63.3956 10.0072 63.7022 10.1739 63.988 10.3943C64.2798 10.6086 64.515 10.8795 64.6936 11.207C64.9913 10.7843 65.3813 10.433 65.8636 10.1531C66.3519 9.86731 66.8937 9.7244 67.4891 9.7244C67.8345 9.7244 68.1828 9.78097 68.5341 9.8941C68.8914 10.0072 69.2189 10.1918 69.5166 10.4478C69.8143 10.7039 70.0524 11.0462 70.2311 11.475C70.4157 11.8977 70.5079 12.4217 70.5079 13.0469V19.1381H67.9V13.3684C67.9 12.9992 67.8256 12.7045 67.6767 12.4842C67.5338 12.2579 67.3492 12.0972 67.123 12.0019C66.9027 11.9007 66.6675 11.8501 66.4174 11.8501C66.1852 11.8501 65.95 11.8977 65.7118 11.993C65.4736 12.0823 65.2712 12.2282 65.1045 12.4306C64.9378 12.6331 64.8544 12.898 64.8544 13.2255V19.1381H62.2554V13.1362C62.2554 12.8563 62.1809 12.6211 62.0321 12.4306C61.8832 12.2401 61.6957 12.0972 61.4694 12.0019C61.2491 11.9007 61.0228 11.8501 60.7906 11.8501C60.5524 11.8501 60.3143 11.9007 60.0761 12.0019C59.8379 12.0972 59.6385 12.249 59.4777 12.4574C59.3169 12.6598 59.2366 12.9159 59.2366 13.2255V19.1381H56.6286Z" fill="#41285F"/>
<path d="M72.6248 22.014V9.90303H75.2417L75.2506 11.2338C75.3876 11.0135 75.5543 10.814 75.7508 10.6354C75.9532 10.4508 76.1765 10.2901 76.4207 10.1531C76.6648 10.0162 76.9297 9.91196 77.2155 9.84051C77.5013 9.76311 77.802 9.7244 78.1176 9.7244C78.8024 9.7244 79.4127 9.8941 79.9485 10.2335C80.4844 10.5669 80.9042 11.0849 81.2079 11.7876C81.5175 12.4842 81.6723 13.3714 81.6723 14.4491C81.6723 15.5685 81.5056 16.4884 81.1721 17.2089C80.8447 17.9234 80.3921 18.4533 79.8146 18.7987C79.237 19.144 78.585 19.3167 77.8586 19.3167C77.5609 19.3167 77.281 19.275 77.0191 19.1917C76.7571 19.1143 76.5129 19.0041 76.2867 18.8612C76.0664 18.7183 75.8669 18.5546 75.6883 18.37C75.5156 18.1794 75.3638 17.974 75.2328 17.7537V22.014H72.6248ZM77.2334 17.4054C77.7991 17.4054 78.2724 17.1702 78.6535 16.6998C79.0405 16.2294 79.234 15.4851 79.234 14.467C79.234 13.5738 79.0495 12.8772 78.6803 12.377C78.3171 11.8709 77.8348 11.6179 77.2334 11.6179C76.5606 11.6179 76.0574 11.8918 75.724 12.4395C75.3965 12.9814 75.2328 13.6572 75.2328 14.467C75.2328 14.985 75.3042 15.4673 75.4471 15.9138C75.596 16.3604 75.8163 16.7206 76.1081 16.9945C76.4058 17.2684 76.7809 17.4054 77.2334 17.4054Z" fill="#41285F"/>
<path d="M86.7035 19.3167C86.2747 19.3167 85.852 19.2512 85.4352 19.1202C85.0244 18.9892 84.6492 18.7957 84.3098 18.5397C83.9705 18.2836 83.6966 17.9681 83.4882 17.5929C83.2857 17.2178 83.1845 16.7832 83.1845 16.289V9.90303H85.7925V15.9585C85.7925 16.3872 85.9324 16.7385 86.2122 17.0124C86.4921 17.2863 86.9029 17.4232 87.4448 17.4232C87.9568 17.4232 88.3617 17.2923 88.6594 17.0303C88.9631 16.7623 89.1149 16.3902 89.1149 15.9138V9.90303H91.6961V19.1381H89.7312L89.4275 17.3071C89.3203 17.849 89.1179 18.2658 88.8202 18.5575C88.5284 18.8433 88.192 19.0398 87.8109 19.147C87.4358 19.2601 87.0667 19.3167 86.7035 19.3167Z" fill="#41285F"/>
<path d="M97.4723 19.3167C96.8293 19.3167 96.21 19.2125 95.6146 19.0041C95.0192 18.7897 94.516 18.4563 94.1052 18.0038C93.6943 17.5453 93.4324 16.9529 93.3192 16.2264H95.5789C95.6563 16.5539 95.7962 16.8129 95.9986 17.0035C96.207 17.194 96.4422 17.331 96.7042 17.4143C96.9662 17.4917 97.2163 17.5304 97.4544 17.5304C97.9546 17.5304 98.3565 17.453 98.6602 17.2982C98.9698 17.1374 99.1246 16.8933 99.1246 16.5658C99.1246 16.3158 99.0323 16.1163 98.8477 15.9674C98.6691 15.8186 98.3714 15.7054 97.9546 15.628L96.3291 15.2886C95.5134 15.116 94.8584 14.8242 94.3642 14.4134C93.87 13.9966 93.6169 13.4071 93.605 12.645C93.605 12.0912 93.7509 11.594 94.0427 11.1534C94.3404 10.7128 94.778 10.3645 95.3556 10.1085C95.9331 9.85242 96.6417 9.7244 97.4812 9.7244C98.6185 9.7244 99.5265 9.97448 100.205 10.4746C100.89 10.9748 101.238 11.6804 101.25 12.5914H99.071C99.0055 12.2341 98.8269 11.9602 98.5351 11.7697C98.2493 11.5732 97.8891 11.475 97.4544 11.475C97.0019 11.475 96.6298 11.5553 96.338 11.7161C96.0463 11.8769 95.9004 12.121 95.9004 12.4485C95.9004 12.6926 96.0195 12.8861 96.2576 13.029C96.4958 13.166 96.865 13.285 97.3651 13.3863L98.8656 13.7257C99.3836 13.8507 99.8034 14.0234 100.125 14.2437C100.452 14.458 100.705 14.6932 100.884 14.9493C101.063 15.2053 101.185 15.4643 101.25 15.7263C101.322 15.9823 101.357 16.2145 101.357 16.4229C101.357 17.0362 101.194 17.5602 100.866 17.9949C100.539 18.4236 100.083 18.751 99.4997 18.9773C98.9162 19.2036 98.2404 19.3167 97.4723 19.3167Z" fill="#41285F"/>
<path d="M108.778 5.72636C109.748 5.72636 110.612 5.92285 111.368 6.31583C112.13 6.70285 112.743 7.23278 113.208 7.90561C113.678 8.57844 113.955 9.33761 114.038 10.1831H111.305C111.222 9.73654 111.07 9.34058 110.85 8.99524C110.63 8.64394 110.341 8.37004 109.984 8.17355C109.626 7.97111 109.198 7.86988 108.697 7.86988C108.096 7.86988 107.578 8.01576 107.143 8.30752C106.709 8.59928 106.375 9.06967 106.143 9.71868C105.911 10.3677 105.795 11.2251 105.795 12.2909C105.795 13.8986 106.051 15.0626 106.563 15.7831C107.081 16.4976 107.792 16.8548 108.697 16.8548C109.198 16.8548 109.626 16.7417 109.984 16.5154C110.341 16.2832 110.63 15.9796 110.85 15.6044C111.07 15.2234 111.222 14.8066 111.305 14.3541H114.038C113.961 14.9673 113.812 15.5538 113.592 16.1135C113.371 16.6673 113.059 17.1615 112.654 17.5961C112.249 18.0308 111.728 18.3732 111.091 18.6233C110.454 18.8733 109.683 18.9984 108.778 18.9984C107.575 18.9984 106.536 18.7185 105.661 18.1588C104.785 17.5991 104.11 16.8132 103.633 15.8009C103.163 14.7887 102.928 13.6068 102.928 12.2552C102.928 10.8976 103.163 9.73356 103.633 8.76302C104.104 7.78653 104.777 7.03629 105.652 6.51232C106.527 5.98834 107.569 5.72636 108.778 5.72636Z" fill="#549B43"/>
<path d="M116.008 18.8197V9.58471H118.518V11.7729C118.667 11.3025 118.875 10.8917 119.143 10.5404C119.417 10.1831 119.747 9.90624 120.134 9.70975C120.521 9.5073 120.959 9.40608 121.447 9.40608C121.531 9.40608 121.608 9.41203 121.68 9.42394C121.757 9.4299 121.814 9.44181 121.849 9.45967V11.9426C121.796 11.9188 121.73 11.9039 121.653 11.8979C121.581 11.892 121.516 11.886 121.456 11.8801C120.944 11.8384 120.507 11.8533 120.143 11.9247C119.78 11.9962 119.485 12.1182 119.259 12.2909C119.033 12.4636 118.869 12.675 118.768 12.925C118.667 13.1751 118.616 13.455 118.616 13.7646V18.8197H116.008Z" fill="#549B43"/>
<path d="M125.374 14.8006C125.368 15.271 125.442 15.6819 125.597 16.0332C125.752 16.3785 125.975 16.6464 126.267 16.837C126.564 17.0216 126.922 17.1139 127.338 17.1139C127.785 17.1139 128.175 17.0186 128.508 16.828C128.848 16.6375 129.083 16.3249 129.214 15.8903H131.563C131.462 16.5452 131.2 17.1049 130.777 17.5694C130.36 18.0338 129.854 18.3881 129.259 18.6322C128.663 18.8763 128.044 18.9984 127.401 18.9984C126.49 18.9984 125.686 18.8078 124.989 18.4268C124.299 18.0397 123.76 17.4949 123.373 16.7923C122.986 16.0897 122.792 15.2621 122.792 14.3094C122.792 13.3865 122.968 12.5559 123.319 11.8175C123.671 11.0733 124.18 10.4868 124.847 10.0581C125.519 9.62341 126.326 9.40608 127.267 9.40608C128.208 9.40608 128.997 9.60555 129.634 10.0045C130.277 10.3975 130.759 10.9482 131.081 11.6568C131.408 12.3594 131.572 13.1721 131.572 14.095V14.8006H125.374ZM125.365 13.2466H129.134C129.134 12.8774 129.065 12.538 128.928 12.2284C128.791 11.9188 128.583 11.6746 128.303 11.496C128.029 11.3174 127.684 11.2281 127.267 11.2281C126.862 11.2281 126.517 11.3263 126.231 11.5228C125.951 11.7133 125.737 11.9634 125.588 12.273C125.439 12.5827 125.365 12.9072 125.365 13.2466Z" fill="#549B43"/>
<path d="M136.812 18.9984C135.574 18.9984 134.609 18.5726 133.918 17.7212C133.228 16.8638 132.882 15.6729 132.882 14.1486C132.882 13.184 133.022 12.3475 133.302 11.6389C133.582 10.9304 133.996 10.3826 134.544 9.99555C135.091 9.60257 135.761 9.40608 136.553 9.40608C136.887 9.40608 137.196 9.44478 137.482 9.52219C137.774 9.59364 138.039 9.69486 138.277 9.82585C138.515 9.95685 138.723 10.1087 138.902 10.2814C139.081 10.454 139.227 10.6386 139.34 10.8351V5.54773H141.957V18.8197H140.063L139.768 16.9263C139.685 17.1823 139.569 17.4324 139.42 17.6765C139.271 17.9207 139.081 18.1439 138.848 18.3464C138.616 18.5429 138.33 18.7007 137.991 18.8197C137.658 18.9388 137.265 18.9984 136.812 18.9984ZM137.384 17.1228C138.039 17.1228 138.527 16.8935 138.848 16.4351C139.176 15.9766 139.34 15.2025 139.34 14.1129C139.334 13.4818 139.259 12.9578 139.116 12.541C138.974 12.1242 138.759 11.8146 138.473 11.6121C138.193 11.4037 137.836 11.2995 137.402 11.2995C136.836 11.2995 136.366 11.5169 135.99 11.9515C135.615 12.3802 135.428 13.1007 135.428 14.1129C135.428 15.143 135.603 15.9022 135.955 16.3904C136.306 16.8787 136.782 17.1228 137.384 17.1228Z" fill="#549B43"/>
<path d="M148.163 18.9984C147.258 18.9984 146.469 18.8049 145.797 18.4178C145.13 18.0308 144.612 17.483 144.242 16.7745C143.879 16.0659 143.698 15.2264 143.698 14.2558C143.698 13.2853 143.879 12.4368 144.242 11.7104C144.612 10.984 145.13 10.4183 145.797 10.0134C146.469 9.60852 147.261 9.40608 148.172 9.40608C149.083 9.40608 149.872 9.60555 150.539 10.0045C151.206 10.3975 151.721 10.9572 152.084 11.6836C152.447 12.41 152.629 13.2674 152.629 14.2558C152.629 15.1847 152.45 16.0064 152.093 16.7209C151.742 17.4294 151.233 17.9861 150.566 18.391C149.905 18.7959 149.104 18.9984 148.163 18.9984ZM148.172 17.0603C148.631 17.0603 149 16.9263 149.28 16.6584C149.56 16.3904 149.762 16.0391 149.887 15.6044C150.018 15.1638 150.084 14.6845 150.084 14.1665C150.084 13.6783 150.024 13.2168 149.905 12.7821C149.792 12.3475 149.595 11.9962 149.315 11.7282C149.036 11.4603 148.655 11.3263 148.172 11.3263C147.714 11.3263 147.342 11.4543 147.056 11.7104C146.776 11.9605 146.571 12.3028 146.44 12.7375C146.309 13.1662 146.243 13.6425 146.243 14.1665C146.243 14.6488 146.303 15.1132 146.422 15.5598C146.541 16.0004 146.74 16.3606 147.02 16.6405C147.3 16.9203 147.684 17.0603 148.172 17.0603Z" fill="#549B43"/>
</svg>
