<svg width="45" height="45" viewBox="0 0 26 26" fill="none" xmlns="http://www.w3.org/2000/svg">
    <circle cx="13" cy="13" r="12.25" fill="url(#paint0_linear_229_14)"
        stroke="url(#paint1_linear_229_14)" stroke-width="0.5" />
    <g clip-path="url(#clip0_229_14)">
        <path
            d="M18.1386 17L7.8613 17C7.38552 17 6.99997 16.6054 6.99997 16.1313L6.99997 5.86869C6.99997 5.39504 7.38599 4.99999 7.8613 4.99999L16.6965 4.99999C16.7643 4.99999 16.8254 5.02743 16.8697 5.07177L18.9283 7.13245C18.951 7.15514 18.9691 7.18213 18.9814 7.21184C18.9937 7.24156 19 7.27342 19 7.30558L19 16.1313C19 16.6056 18.6144 17 18.1386 17ZM14.9101 6.49506C15.2324 6.49506 15.2324 6.98536 14.9101 6.98536L11.3015 6.98536C10.9794 6.98536 10.9794 6.49506 11.3015 6.49506L14.9101 6.49506ZM14.9101 8.00538C15.2324 8.00538 15.2324 8.49568 14.9101 8.49568L11.3015 8.49568C10.9794 8.49568 10.9794 8.00538 11.3015 8.00538L14.9101 8.00538ZM9.99974 5.49733V8.7833C9.99974 9.17695 10.3248 9.5021 10.7181 9.5021L15.4937 9.5021C15.887 9.5021 16.2118 9.17695 16.2118 8.7833L16.2118 5.49733L9.99974 5.49733ZM9.51013 8.7833V5.49029H7.8613C7.65388 5.49029 7.48981 5.66319 7.48981 5.86869L7.48981 16.1313C7.48981 16.3373 7.65364 16.5097 7.8613 16.5097H9.51013V12.5176C9.51013 11.8534 10.0546 11.3082 10.7181 11.3082H15.4937C16.1579 11.3082 16.7017 11.8527 16.7017 12.5176V16.5097H18.1386C18.3465 16.5097 18.5101 16.3375 18.5101 16.1313V7.40716L16.7017 5.59703L16.7017 8.7833C16.7017 9.44767 16.1575 9.9924 15.4937 9.9924L10.7181 9.9924C10.0567 9.9924 9.51013 9.44532 9.51013 8.7833ZM9.99974 12.5176V16.5097L16.2118 16.5097V12.5176C16.2118 12.1235 15.8872 11.7985 15.4937 11.7985H10.7181C10.325 11.7985 9.99974 12.1242 9.99974 12.5176Z"
            fill="white" />
    </g>
    <path
        d="M9.94318 18.8182C9.92614 18.6742 9.85701 18.5625 9.7358 18.483C9.61458 18.4034 9.46591 18.3636 9.28977 18.3636C9.16098 18.3636 9.0483 18.3845 8.9517 18.4261C8.85606 18.4678 8.78125 18.5251 8.72727 18.598C8.67424 18.6709 8.64773 18.7538 8.64773 18.8466C8.64773 18.9242 8.66619 18.991 8.70312 19.0469C8.741 19.1018 8.7893 19.1477 8.84801 19.1847C8.90672 19.2206 8.96828 19.2505 9.03267 19.2741C9.09706 19.2969 9.15625 19.3153 9.21023 19.3295L9.50568 19.4091C9.58144 19.429 9.66572 19.4564 9.75852 19.4915C9.85227 19.5265 9.94176 19.5743 10.027 19.6349C10.1132 19.6946 10.1842 19.7713 10.2401 19.8651C10.2959 19.9588 10.3239 20.0739 10.3239 20.2102C10.3239 20.3674 10.2827 20.5095 10.2003 20.6364C10.1188 20.7633 9.99953 20.8641 9.84233 20.9389C9.68608 21.0137 9.49621 21.0511 9.27273 21.0511C9.06439 21.0511 8.884 21.0175 8.73153 20.9503C8.58002 20.883 8.4607 20.7893 8.37358 20.669C8.28741 20.5488 8.23864 20.4091 8.22727 20.25H8.59091C8.60038 20.3598 8.63731 20.4508 8.7017 20.5227C8.76705 20.5937 8.84943 20.6468 8.94886 20.6818C9.04924 20.7159 9.1572 20.733 9.27273 20.733C9.4072 20.733 9.52794 20.7112 9.63494 20.6676C9.74195 20.6231 9.8267 20.5616 9.8892 20.483C9.9517 20.4034 9.98295 20.3106 9.98295 20.2045C9.98295 20.108 9.95597 20.0294 9.90199 19.9688C9.84801 19.9081 9.77699 19.8589 9.68892 19.821C9.60085 19.7831 9.50568 19.75 9.40341 19.7216L9.04545 19.6193C8.81818 19.554 8.63826 19.4607 8.50568 19.3395C8.37311 19.2183 8.30682 19.0597 8.30682 18.8636C8.30682 18.7008 8.35085 18.5587 8.43892 18.4375C8.52794 18.3153 8.64725 18.2206 8.79688 18.1534C8.94744 18.0852 9.11553 18.0511 9.30114 18.0511C9.48864 18.0511 9.6553 18.0848 9.80114 18.152C9.94697 18.2183 10.0625 18.3092 10.1477 18.4247C10.2339 18.5402 10.2794 18.6714 10.2841 18.8182H9.94318ZM11.0224 21H10.6531L11.7212 18.0909H12.0849L13.1531 21H12.7837L11.9144 18.5511H11.8917L11.0224 21ZM11.1587 19.8636H12.6474V20.1761H11.1587V19.8636ZM13.4521 18.0909L14.3157 20.5398H14.3498L15.2134 18.0909H15.5827L14.5146 21H14.1509L13.0827 18.0909H13.4521ZM16.0359 21V18.0909H17.7915V18.4034H16.3881V19.3864H17.7006V19.6989H16.3881V20.6875H17.8143V21H16.0359Z"
        fill="white" />
    <defs>
        <linearGradient id="paint0_linear_229_14" x1="25" y1="1" x2="1" y2="25"
            gradientUnits="userSpaceOnUse">
            <stop stop-color="#41285F" />
            <stop offset="1" stop-color="#1974C9" />
        </linearGradient>
        <linearGradient id="paint1_linear_229_14" x1="19.5" y1="2.5" x2="5.5" y2="21.5"
            gradientUnits="userSpaceOnUse">
            <stop stop-color="#41285F" />
            <stop offset="1" stop-color="#1974C9" />
        </linearGradient>
        <clipPath id="clip0_229_14">
            <rect width="12" height="12" fill="white" transform="matrix(-1 0 0 -1 19 17)" />
        </clipPath>
    </defs>
</svg>