<svg width="444" height="282" viewBox="0 0 444 282" fill="none" xmlns="http://www.w3.org/2000/svg">
<path d="M420.225 279.823C438.648 269.999 444.891 235.911 430.177 194.159C419.306 163.312 442.388 136.975 443.782 100.808C448.396 -18.9362 236.587 -22.0567 102.472 40.0333C-45.7446 108.652 -3.06759 246.894 51.1139 279.823H420.225Z" fill="#D6EEF6"/>
<path opacity="0.8" d="M385.794 208.276C386.485 208.275 387.174 208.344 387.851 208.483C389.762 205.272 393.909 203.048 398.717 203.048C399.92 203.046 401.119 203.189 402.288 203.473C404.877 200.105 409.58 197.854 414.953 197.854C421.346 197.854 426.791 201.036 428.855 205.503C430.222 204.912 431.686 204.577 433.174 204.513C434.027 207.472 434.771 210.38 435.407 213.24H377.852C378.683 210.398 381.922 208.276 385.794 208.276Z" fill="#F0FBFF"/>
<path opacity="0.8" d="M187.662 40.8021C188.849 36.7402 193.477 33.7085 199.011 33.7085C199.998 33.7074 200.983 33.8062 201.95 34.0033C204.68 29.4155 210.607 26.2381 217.479 26.2381C219.198 26.2357 220.91 26.4393 222.579 26.8444C226.279 22.0322 233 18.8145 240.678 18.8145C249.814 18.8145 257.594 23.3688 260.542 29.7455C262.767 28.7857 265.167 28.2965 267.591 28.3084C275.597 28.3084 282.089 33.407 282.089 39.6983C282.088 40.0672 282.065 40.4358 282.02 40.8021H187.662Z" fill="#F0FBFF"/>
<path opacity="0.8" d="M3.60463 177.58C4.56935 174.28 8.32772 171.818 12.8163 171.818C13.6185 171.817 14.4186 171.897 15.2047 172.057C17.4272 168.332 22.2407 165.748 27.823 165.748C29.2188 165.749 30.6094 165.918 31.9649 166.25C34.9797 162.342 40.4296 159.729 46.6651 159.729C54.0864 159.729 60.3989 163.428 62.799 168.607C64.6062 167.826 66.5551 167.427 68.5237 167.434C75.0288 167.434 80.2995 171.577 80.2995 176.685C80.2998 176.985 80.2813 177.285 80.2443 177.583L3.60463 177.58Z" fill="#F0FBFF"/>
<path opacity="0.8" d="M187.413 168.041C188.24 164.965 191.463 162.672 195.317 162.672C196.005 162.671 196.691 162.746 197.363 162.895C199.266 159.423 203.393 157.018 208.179 157.018C209.378 157.016 210.573 157.17 211.732 157.477C214.308 153.835 218.989 151.401 224.337 151.401C230.701 151.401 236.118 154.847 238.171 159.672C239.706 158.95 241.382 158.578 243.078 158.585C248.656 158.585 253.176 162.438 253.176 167.205C253.176 167.485 253.16 167.764 253.127 168.042L187.413 168.041Z" fill="#F0FBFF"/>
<path opacity="0.8" d="M423.373 67.1362C422.578 64.4562 419.481 62.4546 415.778 62.4546C415.117 62.4536 414.458 62.5187 413.81 62.6489C411.983 59.6222 408.017 57.5251 403.426 57.5251C402.276 57.5228 401.129 57.6572 400.011 57.9254C397.535 54.743 393.037 52.6258 387.898 52.6258C381.783 52.6258 376.576 55.6307 374.603 59.8383C373.11 59.2016 371.502 58.8768 369.878 58.8835C364.519 58.8835 360.174 62.2486 360.174 66.3992C360.175 66.6433 360.19 66.8873 360.221 67.1295L423.373 67.1362Z" fill="#F0FBFF"/>
<path d="M439.381 277.74L12.6704 278.121C12.1672 278.132 11.6891 278.343 11.3412 278.706C10.9932 279.07 10.8038 279.557 10.8146 280.06C10.8043 280.564 10.9943 281.051 11.3429 281.415C11.6914 281.779 12.1701 281.989 12.6737 282L439.385 281.62C439.888 281.608 440.365 281.397 440.713 281.033C441.061 280.67 441.251 280.183 441.24 279.68C441.246 279.431 441.202 279.182 441.112 278.95C441.021 278.717 440.886 278.505 440.713 278.325C440.54 278.144 440.334 278 440.105 277.9C439.877 277.8 439.631 277.745 439.381 277.74Z" fill="#6DABDB"/>
<path d="M332.445 132.966C332.31 133.495 332.102 134.003 331.827 134.474C330.043 137.72 325.906 142.346 325.906 142.346L322.706 135.144C322.706 135.144 323.226 132.879 324.131 129.643C327.223 130.441 330.167 130.908 332.445 132.966Z" fill="#F8A492"/>
<path d="M314.094 126.72C314.094 126.72 331.944 134.407 332.517 134.258C332.889 134.162 339.84 122.533 339.913 111.587C339.949 106.534 334.701 100.455 328.846 101.658C325.898 102.262 325.943 103.083 321.582 109.42C317.221 115.756 314.094 126.72 314.094 126.72Z" fill="#13375B"/>
<path d="M298.857 264.543C298.857 264.543 299.28 271.555 299.282 271.578C299.438 272.468 300.051 274.667 300.051 275.476C300.051 278.516 285.617 272.896 288.853 271.55C289.144 271.427 290.678 270.505 290.776 269.469C290.923 267.877 291.3 264.65 291.3 264.65L298.857 264.543Z" fill="#F7A491"/>
<path d="M288.887 271.511C288.887 271.511 292.276 272.442 294.012 272.674C295.749 272.905 298.032 270.948 299.263 271.478C300.615 272.061 300.563 277.298 300.563 277.298C300.563 277.298 282.389 278.791 277.282 277.246C275.254 276.632 281.959 273.677 288.887 271.511Z" fill="#13375B"/>
<path d="M328.384 264.543C328.384 264.543 328.808 271.555 328.811 271.578C328.967 272.468 329.58 274.667 329.58 275.476C329.58 278.516 315.144 272.896 318.38 271.55C318.673 271.427 320.661 269.816 320.758 268.781C320.906 267.188 320.827 264.65 320.827 264.65L328.384 264.543Z" fill="#F7A491"/>
<path d="M318.41 271.511C318.41 271.511 321.8 272.442 323.535 272.674C325.271 272.905 327.555 270.948 328.788 271.478C330.138 272.061 330.193 277.298 330.193 277.298C330.193 277.298 311.937 279.037 306.802 277.246C304.812 276.553 311.488 273.677 318.41 271.511Z" fill="#13375B"/>
<path d="M323.972 136.852L311.26 119.041C311.206 118.885 311.092 118.567 310.915 118.079C310.273 116.312 308.942 112.634 307.781 108.976L307.769 108.935C307.404 107.657 306.631 105.418 305.884 103.269C305.046 100.869 304.021 97.8939 303.984 97.3864C304.016 97.2993 304.076 97.1435 304.152 96.9358C304.617 95.7265 305.247 92.8439 305.47 91.591C305.612 90.7937 305.755 88.854 304.8 88.854C303.308 88.854 304.019 90.7903 303.331 92.0013C302.895 90.6808 302.55 89.3321 302.298 87.9646L302.06 84.1758C302.013 83.8911 302.316 81.8024 301.269 81.8024H301.221C300.281 81.871 300.301 84.0921 299.911 87.8474C299.787 87.4152 299.663 86.8943 299.576 86.4153C299.518 85.7479 299.412 85.0857 299.258 84.4338C299.445 83.3869 299.337 81.7354 298.223 81.8911C297.663 81.9699 297.709 84.273 297.709 84.273C297.709 84.5895 297.749 87.025 297.732 87.5057C297.616 86.6883 297.169 83.2026 296.295 83.2026C295.57 83.2026 295.511 84.1406 295.528 84.8776C295.536 85.3165 295.992 89.0936 296.017 89.5324C295.682 88.9596 295.27 85.6314 294.932 85.6314C293.518 85.6314 294.029 90.3632 294.548 91.596C294.618 91.8121 294.674 92.0325 294.716 92.2559C294.883 93.0934 295.186 94.5105 295.927 95.7734C296.816 97.2926 298.04 99.7079 298.226 100.078C298.363 100.832 298.789 103.545 299.323 106.957C299.553 108.418 299.804 110.019 300.065 111.677H300.079C300.127 112.036 300.392 113.185 301.398 117.459C302.773 123.322 302.917 123.571 302.978 123.68C303.576 124.737 317.283 143.355 317.865 144.145L318.21 144.613L323.972 136.852Z" fill="#F7A491"/>
<path d="M300.322 95.3111C300.322 95.3111 301.354 92.673 303.191 92.668C302.871 92.5667 302.53 92.5435 302.199 92.6003C301.867 92.6572 301.554 92.7923 301.285 92.9946C300.41 93.6914 300.322 95.3111 300.322 95.3111Z" fill="#F47458"/>
<path d="M327.044 90.2058L328.681 100.557C328.681 100.557 322.445 105.565 318.811 104.508C315.761 103.622 317.853 99.6342 317.853 99.6342C317.853 99.6342 319.477 94.1068 318.978 91.2124C318.479 88.3181 327.044 90.2058 327.044 90.2058Z" fill="#F7A491"/>
<path d="M325.87 93.343C324.308 94.08 321.218 95.0883 318.812 95.3312C319.042 93.8824 319.174 92.3514 318.98 91.2191C318.75 89.8791 320.45 89.5659 322.348 89.6128C324.832 89.8255 327.038 90.2125 327.038 90.2125L327.353 92.2023C326.932 92.6698 326.43 93.0564 325.87 93.343Z" fill="#FE875E"/>
<path d="M330.517 76.2816C330.768 76.2213 330.91 88.0987 327.299 91.045C323.688 93.9913 317.342 94.4971 315.448 91.7585C313.353 88.7285 315.128 76.1342 320.518 73.2516C325.907 70.369 330.517 76.2816 330.517 76.2816Z" fill="#F7A491"/>
<path d="M323.227 67.1446C325.882 67.9147 328.229 69.496 329.941 71.667C331.656 72.0137 333.9 73.1259 335.843 77.1459C338.232 82.0871 335.341 87.0719 331.509 89.3046C327.677 91.5374 327.724 94.4267 327.724 94.4267L326.526 91.6044C326.526 91.6044 326.809 88.8172 327.866 87.1941C328.923 85.5711 326.431 84.2093 325.875 82.7303C325.446 81.593 325.744 79.1023 325.081 77.2263C325.081 77.2263 321.925 74.3185 319.451 74.022C315.241 73.5078 318.437 65.7677 323.227 67.1446Z" fill="#13375B"/>
<path d="M327.077 85.7788C326.526 87.1188 326.752 88.4403 327.579 88.7402C328.406 89.04 329.525 88.2008 330.076 86.8642C330.627 85.5275 330.401 84.2043 329.574 83.9028C328.746 83.6013 327.623 84.4421 327.077 85.7788Z" fill="#F7A491"/>
<path d="M312.548 137.139L288.027 133.141C288.027 133.141 290.817 126.116 291.813 126.116C292.81 126.116 310.371 133.775 310.371 133.775L311.766 136.578L312.548 137.139Z" fill="#ED9A8C"/>
<path d="M325.11 153.952C325.11 153.952 327.556 165.779 326.559 174.749C325.563 183.719 325.484 215.573 325.484 215.573L329.287 266.543L320.262 266.741C320.262 266.741 309.559 215.794 309.759 217.103C309.958 218.411 306.184 181.231 306.184 181.231L318.945 152.832L325.11 153.952Z" fill="#466EB6"/>
<path d="M322.724 153.393C322.724 153.393 324.32 164.042 322.325 168.712C320.33 173.382 305.225 219.211 305.026 222.948C304.826 226.685 299.802 267.987 299.802 267.987L289.307 267.691L287.036 221.772L291.789 164.061L296.407 149.468L322.724 153.393Z" fill="#86B1F2"/>
<path d="M328.681 100.564C328.681 100.564 326.093 102.262 323.68 102.071C321.266 101.88 317.853 99.6477 317.853 99.6477L318.327 98.0397C318.327 98.0397 324.571 97.1301 324.73 97.229C324.889 97.3278 328.681 100.564 328.681 100.564Z" fill="#F7A491"/>
<path d="M301.095 125.769C301.095 125.769 291.82 134.523 287.633 133.028C283.446 131.534 281.714 126.424 291.929 118.949C301.072 112.259 301.095 125.769 301.095 125.769Z" fill="#ED9A8C"/>
<path d="M294.81 136.578C296.189 129.081 306.176 105.75 306.973 101.453C307.36 99.3629 312.748 99.3177 317.878 99.5907C323.298 99.8788 328.681 100.564 328.681 100.564C328.681 100.564 333.479 101.351 335.59 103.329C337.7 105.307 338.269 110.778 335.228 121.163C332.833 129.36 329.868 133.863 328.393 139.834C328.095 141.844 327.84 143.812 327.502 146.12C326.963 155.049 327.502 166.845 327.502 166.845C327.502 166.845 301.384 172.262 291.615 164.042C291.621 164.042 293.398 144.259 294.81 136.578Z" fill="#13375B"/>
<path d="M288.151 120.458C288.151 120.458 298.4 128.918 298.997 128.918C299.383 128.918 313.622 118.441 316.918 109.835C318.736 105.078 314.924 99.7548 310.571 99.7716C307.556 99.785 306.216 100.562 300.23 105.606C294.244 110.649 288.151 120.458 288.151 120.458Z" fill="#13375B"/>
<path d="M320.022 88.2477L315.518 88.0802C315.518 88.0802 315.559 89.7937 317.528 89.9227C319.948 90.0852 320.022 88.2477 320.022 88.2477Z" fill="white"/>
<path d="M391.97 65.5835C391.995 65.5048 392.038 65.433 392.096 65.3736C392.154 65.3142 392.224 65.2688 392.302 65.2408C392.38 65.2128 392.463 65.203 392.546 65.2122C392.628 65.2214 392.707 65.2493 392.777 65.2937C393.212 65.5986 393.653 65.8967 394.092 66.1982C395.061 66.8682 395.08 66.9184 395.197 66.8682C395.478 66.7677 395.385 66.2434 395.333 66.0525C395.217 65.6321 394.998 65.2368 394.964 64.7929C394.909 63.9303 395.599 63.3457 396.405 63.7762C397.14 64.1698 397.86 64.6137 398.582 65.0508C398.45 64.1212 398.292 63.1933 398.175 62.2637C398.161 62.1933 398.168 62.1204 398.195 62.0539C398.221 61.9874 398.267 61.93 398.326 61.8889C398.384 61.8477 398.454 61.8245 398.525 61.822C398.597 61.8196 398.668 61.838 398.729 61.8751L401.95 63.5149C402.118 63.5986 402.836 64.0793 402.988 63.937C403.141 63.7946 402.988 63.1681 402.977 63.0224C402.91 62.2168 402.898 61.932 402.741 59.3056C402.744 59.229 402.767 59.1546 402.808 59.0899C402.849 59.0252 402.907 58.9725 402.975 58.9373C403.043 58.9021 403.119 58.8855 403.195 58.8893C403.272 58.8931 403.346 58.9171 403.41 58.9589C405.836 60.9304 406.09 60.6255 406.402 61.2955C406.417 61.3271 406.424 61.3621 406.422 61.3973C406.42 61.4324 406.41 61.4664 406.391 61.4961C406.372 61.5259 406.346 61.5503 406.315 61.5671C406.284 61.5838 406.249 61.5924 406.214 61.592C405.829 61.6272 405.735 61.6087 404.566 60.8516C404.265 60.6562 403.968 60.4524 403.677 60.2403C403.928 63.4228 404.069 64.2234 403.342 64.6086C402.839 64.8766 402.709 64.7242 399.058 62.8549C399.245 63.8214 399.374 64.7962 399.521 65.7728C399.537 65.853 399.529 65.9362 399.499 66.0121C399.468 66.0879 399.416 66.1533 399.349 66.2001C399.282 66.247 399.203 66.2733 399.121 66.276C399.039 66.2786 398.958 66.2574 398.888 66.2149C396.259 64.7912 396.249 64.6472 395.982 64.5852C395.982 64.5852 395.947 64.4177 395.954 64.6639C395.966 65.086 396.529 65.895 396.386 66.6923C396.261 67.3941 395.643 68.0323 394.879 67.828C394.438 67.709 394.289 67.5332 392.851 66.6035C392.629 67.443 392.308 68.2532 391.896 69.0172C391.749 69.3355 391.508 69.6006 391.204 69.776C391.134 69.8113 391.057 69.828 390.979 69.8243C390.901 69.8207 390.825 69.7969 390.759 69.7552C390.693 69.7135 390.638 69.6554 390.601 69.5866C390.564 69.5177 390.546 69.4404 390.548 69.3622C390.646 68.431 391.393 68.0692 391.97 65.5835Z" fill="#F47458"/>
<path d="M379.318 56.1868C380.198 56.171 381.074 56.0768 381.936 55.9054C382.104 55.8719 382.429 55.8468 382.507 55.6558C382.693 55.1952 381.872 54.6944 381.251 53.1551C380.981 52.4851 380.365 51.13 381.251 50.6644C381.7 50.4265 382.32 50.4232 382.814 50.3394C383.189 50.2758 383.562 50.1987 383.936 50.1284C382.764 47.6561 382.636 47.8303 382.792 47.1972C382.819 47.113 382.878 47.0428 382.956 47.002C383.035 46.9612 383.126 46.9531 383.211 46.9794C383.8 47.2256 383.636 47.1838 385.149 50.2842C385.184 50.3538 385.203 50.4305 385.205 50.5086C385.207 50.5867 385.191 50.6642 385.159 50.7354C385.126 50.8065 385.079 50.8696 385.019 50.92C384.959 50.9703 384.889 51.0066 384.814 51.0262C384.311 51.1116 381.981 51.3746 381.702 51.4533C381.725 51.4768 381.723 51.6041 381.728 51.6309C381.951 52.7095 382.497 53.5537 383.068 54.4683C383.537 55.217 383.738 56.3108 382.745 56.7412C382.211 56.9741 381.05 57.1164 380.147 57.1868C380.923 58.6809 381.708 60.1716 382.472 61.669C382.621 61.9622 382.472 62.4479 382.094 62.4864C381.053 62.5936 380.02 62.736 378.987 62.8868C379.451 63.7653 380.048 64.567 380.757 65.2636C381.28 65.7778 380.59 66.6672 379.357 65.2786C378.644 64.5206 378.062 63.6495 377.635 62.7008C377.491 62.3826 377.635 61.9471 378.014 61.8818C379.034 61.7025 380.062 61.5685 381.092 61.4563C380.338 59.9589 379.6 58.4514 378.848 56.954C378.808 56.8734 378.789 56.7839 378.793 56.6941C378.797 56.6042 378.824 56.5168 378.871 56.4401C378.918 56.3634 378.983 56.2999 379.062 56.2556C379.14 56.2113 379.228 56.1876 379.318 56.1868Z" fill="#66CCB2"/>
<path d="M353.818 51.9927C353.686 52.0178 353.548 51.9917 353.434 51.9196C353.32 51.8475 353.238 51.7347 353.204 51.6041C352.731 50.2524 352.381 48.8906 352.39 47.4434C352.39 46.6913 353.502 46.7567 353.542 47.4853C353.577 48.6388 353.745 49.7843 354.044 50.8989C354.864 50.7246 355.662 50.4612 356.424 50.1133C356.714 49.9793 357.155 50.1133 357.203 50.4734C357.324 51.3813 357.681 54.8284 357.649 54.8669C357.677 54.8556 357.707 54.851 357.738 54.8535C358.106 54.8535 359.272 54.3678 359.829 54.2941C360.454 54.212 360.816 55.0127 360.945 55.5135C361.209 56.5302 360.662 57.8082 361.218 58.7445C361.752 59.644 363.06 58.2822 364.355 58.85C365.35 59.2889 365.246 60.3726 365.192 62.0627C365.182 62.4781 365.165 62.8817 364.812 63.1548C364.768 63.1932 364.713 63.2166 364.655 63.2214C364.597 63.2262 364.539 63.2122 364.489 63.1816C363.961 62.7712 364.068 62.1447 364.07 60.6071C364.07 60.4111 364.129 60.0711 363.965 59.9271C363.414 59.4463 362.29 60.5016 361.117 60.0292C360.206 59.6591 359.886 58.6474 359.849 57.7446C359.819 57.0377 360.076 56.1114 359.719 55.4549C359.136 55.6006 358.546 55.7647 357.962 55.8636C357.317 55.9724 356.816 55.7195 356.657 55.0696C356.48 54.351 356.456 53.5738 356.371 52.8402C356.316 52.3461 356.255 51.852 356.203 51.3578C355.43 51.6444 354.632 51.8569 353.818 51.9927Z" fill="#07345A"/>
<path d="M403.228 79.2932C406.291 81.9548 404.282 83.9279 403.077 83.2177C402.561 82.9129 402.407 82.2395 402.86 81.8107C403.067 81.6131 403.493 81.7772 403.451 82.0854C403.417 82.3384 403.7 82.3484 403.762 82.0754C403.846 81.7052 403.521 81.3283 403.313 81.0587C402.829 80.4272 402.208 79.6014 401.32 79.6333C399.996 79.6818 398.852 81.2396 399.94 83.0653C401.511 85.7017 406.094 84.7721 406.347 81.6466C406.484 79.9448 405.496 78.3134 403.99 77.5429C403.695 77.3938 403.942 76.9918 404.221 77.0521C406.34 77.5077 407.531 79.918 407.186 81.9598C406.834 84.0552 404.926 85.3969 402.87 85.4488C400.712 85.5024 398.654 83.9999 398.503 81.7638C398.337 79.2999 401.088 77.4323 403.228 79.2932Z" fill="#3C8F7C"/>
<path d="M347.528 62.9186C347.965 63.3625 348.365 64.3691 347.732 64.8264C347.44 65.0408 347.032 65.019 346.846 64.669C346.66 64.3189 346.802 63.9521 346.419 63.7293C346.084 63.5383 345.702 63.7544 345.481 64.0191C344.811 64.8247 345.293 66.2133 345.868 66.9386C346.777 68.0909 348.631 67.9988 349.264 66.4779C349.464 66.0006 349.432 65.4914 349.467 64.9872C349.484 64.7092 349.886 64.5065 350.075 64.7644C350.81 65.7594 350.336 67.2267 349.522 68.0306C348.668 68.8765 347.283 69.0876 346.188 68.6303C344.965 68.1177 344.178 66.7979 343.97 65.5215C343.548 62.87 346.106 61.4764 347.528 62.9186Z" fill="#F7CC7F"/>
<path d="M376.257 183.054C376.257 183.054 376.804 181.973 376.958 181.601C377.139 181.164 377.573 179.814 377.573 179.814C377.573 179.814 378.858 175.04 378.484 174.975C378.111 174.91 377.419 175.607 377.233 175.875C377.047 176.143 376.803 176.437 376.617 176.712C376.431 176.987 376.071 177.065 375.711 176.863C375.351 176.66 375.853 175.437 376.113 175.05C376.925 173.838 379.772 171.03 380.059 170.719C380.394 170.354 381.052 161.674 381.519 158.711C382.135 153.854 382.516 148.819 382.579 148.303L378.895 127.593L386.2 123.372C386.2 123.372 390.617 146.303 390.702 147.472C390.742 148.03 388.413 159.188 388.408 159.188C386.9 164.612 385.561 169.387 385.331 170.312C385.331 170.312 385.41 173.26 385.574 175.136C385.738 177.012 385.113 178.796 385.071 179.323C385.006 180.707 384.696 182.068 384.157 183.343C383.395 185.146 383.259 183.082 383.259 183.082C383.259 183.082 384.048 179.486 383.743 179.469C383.509 179.457 383.197 181.447 382.377 183.45C382.166 183.965 381.955 184.472 381.757 184.936C381.239 186.156 380.313 186.182 380.643 184.819C380.786 184.199 380.975 183.59 381.209 182.998C381.464 182.41 381.501 181.787 381.636 181.26C381.904 180.213 382.115 179.452 382.063 179.464C382.011 179.476 381.896 179.233 381.656 179.772C381.367 180.42 381.065 181.938 380.561 182.858C380.275 183.38 379.745 184.507 379.745 184.507C379.745 184.507 378.68 186.239 378.565 186.204C377.93 186.013 378.322 184.556 378.808 183.898C378.891 183.322 379.477 182.151 379.477 182.151C379.477 182.151 380.121 179.516 379.735 179.415C379.419 179.332 376.617 185.335 375.994 185.099C375.5 184.898 376.257 183.054 376.257 183.054Z" fill="#F7A491"/>
<path d="M378.274 139.395C378.274 139.395 382.037 139.42 384.104 139.06C386.859 138.579 388.71 138.055 388.71 138.055C388.71 138.055 388.056 125.816 385.846 118.068C384.931 114.865 383.717 113.185 381.719 112.485C381.707 112.485 376.862 114.495 375.795 121.181C375.544 122.756 378.274 139.395 378.274 139.395Z" fill="#F47458"/>
<path d="M368.153 178.421L363.346 221.242C363.346 221.242 365.691 230.296 365.413 232.869C365.135 235.442 360.187 269.188 360.187 269.188L360.395 271.082V276.672H342.064C342.064 276.672 345.956 274.933 351.403 271.498C351.805 271.245 352.733 270.434 352.959 268.818C354.413 258.416 351.537 223.72 351.537 223.72L349.271 178.558L368.153 178.421Z" fill="#F7A491"/>
<path d="M382.892 187.429C383.929 187.688 385.523 224.508 386.381 226.139C391.819 236.484 393.112 267.937 393.112 267.937L394.735 272.514L396.383 277.953C396.383 277.953 390.953 279.348 388.106 277.786L388.423 272.37L388.711 267.419L374.995 228.225L367.484 188.259L382.892 187.429Z" fill="#F7A491"/>
<path d="M355.609 116.106C357.823 113.091 366.956 104.356 367.969 104.381C370.927 104.431 380.635 104.436 382.541 105.396L382.449 122.025C382.139 123.421 375.438 145.164 375.826 149.924L375.781 149.968C370.163 155.374 361.305 154.949 356.167 149.028C356.167 149.028 356.19 142.432 355.398 136.415C354.152 126.983 350.11 123.598 355.609 116.106Z" fill="#F7CC7F"/>
<path d="M347.553 206.282L346.9 180.879C346.787 173.704 348.254 166.591 351.198 160.046L356.155 149.03C358.165 149.664 360.053 150.202 362.16 150.442C366.745 150.956 371.256 150.442 375.815 149.926C375.825 150.076 375.847 150.226 375.878 150.373C376.706 154.115 381.313 162.456 383.248 173.856C385.452 186.795 386.026 204.736 385.76 206.255C373.001 209.225 359.919 209.322 347.553 206.282Z" fill="#F47458"/>
<path d="M370.946 95.013C370.946 95.013 370.69 101.147 371.242 103.473C371.795 105.8 372.534 105.976 367.787 106.683C365.923 106.961 364.124 107.376 364.124 107.376C364.124 107.376 364.612 103.961 364.685 102.519C364.806 100.143 364.136 92.8037 364.136 92.8037L370.946 95.013Z" fill="#F7A491"/>
<path d="M367.331 98.0648C366.483 98.5411 365.56 98.868 364.601 99.0313C364.434 96.1335 364.137 92.8104 364.137 92.8104L370.632 94.9108C369.84 96.2435 368.699 97.3341 367.331 98.0648Z" fill="#F47458"/>
<path d="M388.429 272.344C390.941 273.456 393.631 272.786 394.716 272.431L395.076 273.397L396.458 277.988C396.458 277.988 390.96 279.348 388.112 277.781L388.429 272.344Z" fill="#13375B"/>
<path d="M360.596 278.06H341.523C340.818 277.997 340.647 277.422 340.891 277.069C341.394 276.339 343.618 275.804 346.119 274.643C350.505 275.104 359.708 272.086 360.4 271.071C360.804 273.102 360.988 277.972 360.596 278.06Z" fill="#13375B"/>
<path d="M368.321 172.448V180.442C368.321 184.598 364.84 187.968 360.548 187.968H352.552V169.327H365.102C365.922 169.324 366.713 169.63 367.318 170.185C367.634 170.471 367.886 170.82 368.059 171.21C368.232 171.6 368.321 172.021 368.321 172.448Z" fill="#13375B"/>
<path d="M368.291 172.739L365.918 172.692L367.258 110.168C364.769 110.614 362.685 112.399 361.979 114.815L345.456 171.275L343.172 170.647L359.693 114.188C360.8 110.404 364.409 107.761 368.47 107.761H369.683L368.291 172.739Z" fill="#13375B"/>
<path d="M367.819 121.948L357.76 120.188L351.516 134.126C347.553 130.31 333.211 119.721 333.138 119.64L329.955 123.252C329.955 123.252 346.831 145.092 354.522 144.08C361.081 143.222 367.943 121.885 367.819 121.948Z" fill="#F8A492"/>
<path d="M372.006 112.503C373.38 118.14 366.054 130.704 366.054 130.704C366.054 130.704 355.62 125.796 353.786 123.682C353.786 123.682 360.874 111.49 361.339 110.748C363.443 107.398 366.298 107.388 368.161 107.607C369.648 107.783 372.006 112.503 372.006 112.503Z" fill="#F47458"/>
<path d="M384.69 132.291C396.791 128.672 393.55 118.042 393.483 118.446C393.518 118.111 394.655 116.771 395.221 115.635C397.566 110.868 394.471 105.128 390.922 103.143C393.267 97.0816 390.937 91.2677 386.504 88.844C384.293 87.6069 382.373 85.9113 380.871 83.871C377.522 79.4071 371.408 74.9132 364.067 76.3804C356.805 78.233 366.53 82.4255 365.575 89.3901C365.086 92.9193 366.489 92.405 368.677 95.2525C365.526 100.77 367.349 110.031 372.177 114.232C369.802 124.173 372.341 135.985 384.69 132.291Z" fill="#184655"/>
<path d="M366.321 91.9025C367.029 91.9025 367.603 90.6614 367.603 89.1304C367.603 87.5994 367.029 86.3583 366.321 86.3583C365.614 86.3583 365.04 87.5994 365.04 89.1304C365.04 90.6614 365.614 91.9025 366.321 91.9025Z" fill="#F7A491"/>
<path d="M367.325 170.185H367.273C365.623 170.185 364.285 171.479 364.285 173.076V178.957C364.285 183.931 360.121 187.963 354.985 187.963H350.116C344.979 187.963 340.814 183.931 340.814 178.957V173.106C340.814 171.019 342.56 169.327 344.716 169.327H365.109C365.929 169.324 366.721 169.63 367.325 170.185Z" fill="#355389"/>
<path d="M375.701 83.6951C377.129 89.571 369.393 93.8355 363.268 93.9929C359.287 94.0934 357.457 93.6864 356.813 89.5056C355.768 82.7236 358.572 78.5881 362.508 76.8779C367.569 74.6703 374.518 78.8494 375.701 83.6951Z" fill="#184655"/>
<path d="M366.703 79.7438C366.703 79.7438 369.396 80.6466 370.831 83.3568C372.267 86.0669 371.553 94.7467 365.581 97.6075C359.608 100.468 356.872 93.9695 357.297 89.174C357.722 84.3785 359.459 78.1023 366.703 79.7438Z" fill="#F7A491"/>
<path d="M372.953 89.9244C373.838 85.4388 373.491 82.0402 370.295 80.3987C367.1 78.7572 364.365 77.1308 361.504 80.0805L360.858 80.4439C360.858 80.4439 366.256 81.9313 366.552 84.7889C366.849 87.6464 369.724 91.0433 369.282 92.4469C368.84 93.8505 368.329 96.6494 368.329 96.6494L369.512 95.6796C369.512 95.6796 372.071 94.4083 372.953 89.9244Z" fill="#184655"/>
<path d="M367.39 88.2075C366.943 89.4453 367.282 90.6899 368.142 90.9847C369.003 91.2794 370.065 90.5157 370.511 89.2762C370.956 88.0367 370.62 86.7938 369.759 86.499C368.898 86.2042 367.836 86.9697 367.39 88.2075Z" fill="#F7A491"/>
<path d="M330.124 123.483L333.576 120.438C333.298 120.014 333.134 119.726 333.137 119.644C333.137 119.27 333.39 115.746 333.221 114.468C333.167 114.059 332.785 112.96 332.429 113.032C332.278 113.05 332.141 113.126 332.045 113.243C331.95 113.36 331.903 113.51 331.916 113.661C331.95 113.947 331.96 114.285 331.992 114.57C332.023 114.855 331.973 115.724 331.688 115.898C331.404 116.073 329.464 112.16 329.464 112.16C329.464 112.16 328.962 111.011 328.826 110.617C328.711 110.282 328.443 109.244 328.443 109.244C328.443 109.244 327.866 107.58 327.418 107.75C326.868 107.957 328.52 113.572 328.255 113.702C327.94 113.86 326.826 111.739 326.826 111.739C326.826 111.739 326.533 110.619 326.252 110.187C326.19 109.468 325.599 108.272 325.066 108.512C324.969 108.557 325.275 110.327 325.275 110.327C325.275 110.327 325.584 111.383 325.699 111.895C325.902 112.8 326.59 113.981 326.776 114.575C326.93 115.078 326.721 114.969 326.686 115.017C326.65 115.066 326.351 114.428 325.92 113.577C325.702 113.15 325.362 112.714 325.187 112.177C324.997 111.647 324.766 111.133 324.498 110.639C323.92 109.543 323.326 110.101 323.691 111.212C323.832 111.636 323.989 112.094 324.15 112.552C324.776 114.359 325.733 115.86 325.57 115.989C325.359 116.156 323.78 113.309 323.78 113.309C323.78 113.309 322.485 112.021 323.033 113.661C323.42 114.826 324.009 115.913 324.775 116.873C325.061 117.248 325.691 118.798 326.895 119.943C328.099 121.089 330.015 123.267 330.124 123.483Z" fill="#F7A491"/>
<path d="M363.807 93.2744L359.305 93.4536C359.305 93.4536 359.472 95.1587 361.459 95.1386C363.876 95.1118 363.807 93.2744 363.807 93.2744Z" fill="white"/>
<path d="M110.878 219.679H36.5494V277.801H110.878V219.679Z" fill="#EDB95C"/>
<path d="M111.902 217.212H33.7831C33.4588 217.211 33.1376 217.275 32.8379 217.399C32.5383 217.523 32.2661 217.705 32.0369 217.935C31.8077 218.164 31.6261 218.437 31.5024 218.737C31.3787 219.037 31.3154 219.358 31.316 219.682C31.316 220.337 31.5759 220.964 32.0386 221.427C32.5013 221.889 33.1288 222.149 33.7831 222.149H111.902C112.226 222.15 112.547 222.086 112.847 221.963C113.146 221.839 113.419 221.657 113.648 221.428C113.878 221.199 114.06 220.927 114.184 220.627C114.308 220.328 114.372 220.006 114.372 219.682C114.373 219.358 114.309 219.036 114.185 218.736C114.061 218.436 113.879 218.163 113.65 217.934C113.42 217.704 113.148 217.522 112.848 217.398C112.548 217.274 112.226 217.211 111.902 217.212Z" fill="#F47458"/>
<path d="M263.621 235.099H188.587V277.801H263.621V235.099Z" fill="#EDB95C"/>
<path d="M265.682 232.631H187.56C186.907 232.631 186.28 232.889 185.817 233.351C185.354 233.812 185.093 234.438 185.092 235.092C185.092 235.746 185.351 236.374 185.814 236.837C186.277 237.299 186.904 237.559 187.559 237.559H265.681C266.335 237.559 266.962 237.299 267.424 236.836C267.887 236.373 268.147 235.746 268.148 235.092C268.146 234.439 267.885 233.813 267.423 233.352C266.961 232.891 266.335 232.632 265.682 232.631Z" fill="#F47458"/>
<path d="M188.589 202.363H110.877V277.801H188.589V202.363Z" fill="#F7CC7F"/>
<path d="M152.2 221.684H147.266V247.127H152.2V221.684Z" fill="#F47458"/>
<path d="M69.5543 234.405H64.6202V259.848H69.5543V234.405Z" fill="#F47458"/>
<path d="M79.4221 234.405H74.488V259.848H79.4221V234.405Z" fill="#F47458"/>
<path d="M220.043 242.115H215.109V267.558H220.043V242.115Z" fill="#F47458"/>
<path d="M229.912 242.115H224.978V267.558H229.912V242.115Z" fill="#F47458"/>
<path d="M239.78 242.115H234.846V267.558H239.78V242.115Z" fill="#F47458"/>
<path d="M188.794 197.428H110.672C110.348 197.428 110.027 197.492 109.728 197.616C109.428 197.74 109.156 197.921 108.927 198.15C108.698 198.38 108.516 198.652 108.392 198.951C108.268 199.251 108.205 199.571 108.205 199.896C108.205 200.55 108.465 201.177 108.928 201.64C109.39 202.103 110.018 202.363 110.672 202.363H188.794C189.448 202.363 190.076 202.103 190.538 201.64C191.001 201.177 191.261 200.55 191.261 199.896C191.261 199.571 191.198 199.251 191.074 198.951C190.95 198.652 190.768 198.38 190.539 198.15C190.31 197.921 190.038 197.74 189.738 197.616C189.439 197.492 189.118 197.428 188.794 197.428Z" fill="#F47458"/>
<path d="M156.046 90.8339C156.046 90.8339 147.857 89.7468 144.871 91.2929C141.885 92.8389 140.248 111.237 140.248 111.237L142.9 112.043C142.9 112.043 142.523 124.783 144.549 125.669C146.576 126.555 160.819 123.806 164.066 120.558C167.314 117.31 161.201 90.1539 161.201 90.1539L156.046 90.8339Z" fill="#3C8F7C"/>
<path d="M172.207 77.841C173.162 75.6987 174.361 69.0507 174.763 66.7861C174.671 66.6186 174.177 65.5684 174.447 63.669C174.636 62.329 173.934 59.994 174.782 60.2369C175.629 60.4798 175.423 62.8248 175.986 62.478C176.677 62.0284 177.505 61.8402 178.322 61.9471C178.91 62.0107 179.362 62.6472 179.945 62.8147C180.528 62.9822 181.084 63.4261 181.102 63.9085C181.146 65.0424 179.111 67.4561 178.965 68.6721C179.001 71.7977 179.133 77.4658 177.754 80.8727C176.08 85.0401 171.926 94.2559 171.926 94.2559L165.443 91.9578C165.443 91.9578 171.077 80.3803 172.207 77.841Z" fill="#F7A491"/>
<path d="M176.619 63.468C176.921 63.6539 177.182 63.8996 177.386 64.1899C177.616 64.4974 177.773 64.8533 177.845 65.2305C177.918 65.6078 177.903 65.9966 177.803 66.3674C177.741 65.5717 177.669 64.6907 176.619 63.468Z" fill="#F48C7F"/>
<path d="M130.704 92.4854C130.704 92.4854 130.991 91.4335 130.277 89.6848C129.822 88.5626 129.882 86.3834 129.234 86.7838C128.586 87.1841 129.281 89.1706 128.731 88.9964C128.182 88.8222 126.47 84.7671 125.884 85.1306C125.298 85.494 127.164 89.2125 126.678 89.0567C126.192 88.9009 124.849 85.3198 124.02 85.8324C123.191 86.3449 125.974 89.8959 125.527 90.1706C125.08 90.4453 123.383 88.1606 122.717 88.576C122.05 88.9914 125.179 91.5809 124.894 91.4888C124.609 91.3967 122.586 90.6346 122.452 91.0432C122.285 91.5022 126.505 93.3463 126.896 94.3681C127.286 95.3898 133.744 105.864 135.885 106.093C138.025 106.322 148.345 100.852 149.272 98.8118C150.198 96.7717 149.568 94.4301 148.198 93.9879C146.828 93.5457 137.166 99.0363 136.735 98.8973C136.305 98.7582 130.704 92.4854 130.704 92.4854Z" fill="#F7A491"/>
<path d="M128.83 89.7317C128.596 89.9991 128.42 90.3115 128.311 90.6496C128.184 91.012 128.141 91.3983 128.185 91.7797C128.228 92.161 128.357 92.5277 128.562 92.8522C128.385 92.075 128.192 91.2107 128.83 89.7317Z" fill="#F48C7F"/>
<path d="M139.249 142.033C138.097 141.809 135.823 140.087 135.823 140.087C133.56 142.422 129.163 149.323 129.163 149.323C129.163 149.323 130.249 149.86 131.036 149.358C131.823 148.855 135.446 146.562 137.338 146.927C137.831 147.023 143.343 148.05 148.173 148.579C148.508 146.827 146.45 143.722 147.001 142.033C144.393 141.583 139.631 142.107 139.249 142.033Z" fill="#F7A491"/>
<path d="M137.861 141.439C137.861 141.439 133.971 146.767 133.644 147.658C133.378 148.386 128.042 151.52 127.633 150.694C127.224 149.869 132.917 139.574 133.977 139.077C135.037 138.579 137.861 141.439 137.861 141.439Z" fill="#07345A"/>
<path d="M168.084 155.048C167.697 156.123 165.617 158.079 165.617 158.079C167.706 160.538 174.197 165.617 174.197 165.617C174.197 165.617 174.897 164.647 174.489 163.831C174.08 163.016 172.003 157.937 172.646 156.175C172.814 155.716 174.023 152.297 175.159 150.366C173.403 149.827 171.682 148.994 170.03 148.256C169.205 150.686 168.211 154.693 168.084 155.048Z" fill="#F7A491"/>
<path d="M167.359 118.471C167.359 118.471 179.371 130.332 180.59 132.62C181.51 134.33 175.378 152.683 175.378 152.683C175.378 152.683 170.762 151.52 168.583 149.416C168.583 149.416 171.34 137.152 170.76 136.599C170.181 136.047 156.462 128.084 156.462 128.084L158.167 120.816L167.359 118.471Z" fill="#D66146"/>
<path d="M164.709 118.158C164.709 118.158 161.572 125.439 161.572 128.28C161.572 130.457 162.533 147.877 157.943 149.552C155.337 150.505 143.067 149.098 143.067 149.098L144.179 141.211C144.179 141.211 150.021 142.078 150.533 141.583C151.046 141.087 145.855 127.948 146.937 123.441C148.019 118.933 157.025 116.185 157.025 116.185L164.709 118.158Z" fill="#F47458"/>
<path d="M168.601 84.3266C168.601 84.3266 170.065 84.7654 174.574 90.8925L167.339 102.334L162.93 91.6999L168.601 84.3266Z" fill="#F7CC7F"/>
<path d="M158.052 91.8071C158.052 91.8071 162.046 91.3565 163.487 90.8339C164.927 90.3113 174.373 121.474 171.065 122.183C164.167 123.664 146.249 127.612 146.249 127.612C146.249 127.612 145.937 125.831 146.904 122.754C148.579 117.428 149.523 105.24 149.523 103.093C149.523 101.83 142.991 106.205 142.991 106.205L140.253 96.3061C140.253 96.3061 148.599 92.9561 151.523 92.3498C152.334 92.1839 158.052 91.8071 158.052 91.8071Z" fill="#F7CC7F"/>
<path d="M170.498 111.813C169.448 106.728 160.509 91.4637 160.432 91.3197L162.275 90.3381C162.596 90.9377 169.83 103.842 170.94 109.222L170.498 111.813Z" fill="#3C8F7C"/>
<path d="M167.368 156.2C167.368 156.2 172.575 160.95 173.516 161.409C174.285 161.783 176.06 167.404 175.084 167.714C174.107 168.024 164.443 161.058 164.046 159.885C163.65 158.713 167.368 156.2 167.368 156.2Z" fill="#07345A"/>
<path d="M146.832 118.496L145.9 117.005C145.979 116.955 153.886 111.907 154.777 105.467C155.678 98.9592 151.092 92.1202 151.044 92.0532L152.498 91.0616C152.704 91.3615 157.522 98.5187 156.517 105.708C155.512 112.965 147.185 118.273 146.832 118.496Z" fill="#3C8F7C"/>
<path d="M158.162 70.9702C158.162 70.9702 161.324 69.8245 163.366 73.0271C165.408 76.2297 164.306 75.9265 165.299 77.5278C166.292 79.1291 168.888 78.7974 168.888 81.2831C168.888 83.7688 167.729 84.154 167.729 84.154C167.729 84.154 168.778 86.0853 167.619 88.0735C166.46 90.0617 163.567 91.7736 161.142 91.4972C161.142 91.4972 157.507 93.4887 153.863 92.5491C150.219 91.6094 151.49 91.6077 149.999 91.6077C148.509 91.6077 144.472 89.5642 145.142 86.5828C145.142 86.5828 142.687 83.6649 145.068 81.2831C147.45 78.9013 147.902 76.4793 149.282 73.2767C150.662 70.0741 156.506 70.1981 158.162 70.9702Z" fill="#13375B"/>
<path d="M160.274 88.0183C160.274 88.0183 160.141 92.4168 160.555 92.8288C160.969 93.2409 161.543 93.9259 160.937 94.9761C160.331 96.0264 157.693 95.3547 156.465 94.755C155.704 94.3558 155.041 93.7929 154.524 93.1069L155.14 86.1406L160.274 88.0183Z" fill="#F7A491"/>
<path d="M158.522 89.8406C157.069 89.3911 155.834 88.4213 155.053 87.1171L155.14 86.1406L160.273 88.0183C160.273 88.0183 160.242 89.0919 160.258 90.2276C159.663 90.1866 159.078 90.0562 158.522 89.8406Z" fill="#B75742"/>
<path d="M154.235 81.1692C154.235 81.1692 154.111 78.583 152.523 79.0855C150.935 79.588 152.146 83.489 153.463 83.3601C154.779 83.2311 154.235 81.1692 154.235 81.1692Z" fill="#F7A491"/>
<path d="M159.226 72.7239C159.226 72.7239 161.709 72.6687 162.981 74.6016C164.252 76.5345 165.63 82.0553 163.532 85.8659C161.433 89.6765 158.757 88.7368 157.653 88.3499C156.549 87.963 154.367 87.107 153.27 83.546C152.173 79.985 152.958 71.9786 159.226 72.7239Z" fill="#F7A491"/>
<path d="M181.168 47.78C181.209 47.9191 181.225 48.0643 181.215 48.2088C181.161 48.4031 181.118 48.5974 181.079 48.7951C181.15 48.7566 181.22 48.7214 181.294 48.6879C181.986 48.3657 182.775 48.3184 183.501 48.5556C183.799 48.6409 184.076 48.7904 184.311 48.9934C184.545 49.1965 184.733 49.4483 184.861 49.7313C184.988 50.0143 185.052 50.3217 185.049 50.6321C185.046 50.9426 184.975 51.2485 184.841 51.5287C184.527 52.2215 183.971 52.7758 183.277 53.0879C182.583 53.4 181.799 53.4483 181.073 53.2237L181.108 53.5922C181.011 53.7267 180.953 53.8848 180.939 54.0497C180.926 54.2147 180.957 54.3802 181.031 54.5286C181.233 54.9791 181.701 55.2086 182.071 55.0411C182.217 54.9643 182.334 54.8424 182.404 54.6935C182.475 54.5446 182.495 54.3769 182.463 54.2153C182.868 54.1743 183.264 54.0679 183.635 53.9004C185.429 53.0965 186.28 51.0965 185.533 49.4333C184.816 47.842 182.903 47.1369 181.168 47.78Z" fill="#E0973F"/>
<path d="M166.601 54.3125C166.679 54.4345 166.776 54.5427 166.889 54.6324C167.07 54.7212 167.246 54.8184 167.417 54.9205C167.343 54.9473 167.27 54.9758 167.196 55.0093C166.494 55.3122 165.934 55.8702 165.628 56.5704C165.495 56.8506 165.423 57.1565 165.42 57.4669C165.417 57.7773 165.481 58.0847 165.609 58.3678C165.736 58.6508 165.924 58.9026 166.159 59.1056C166.393 59.3087 166.67 59.4581 166.968 59.5435C167.695 59.7695 168.479 59.7227 169.174 59.4119C169.868 59.101 170.426 58.5475 170.742 57.8551L170.993 58.1265C171.157 58.1437 171.314 58.2055 171.447 58.3053C171.579 58.405 171.681 58.5389 171.743 58.6926C171.946 59.1432 171.807 59.6423 171.435 59.8098C171.281 59.8675 171.112 59.8737 170.954 59.8275C170.795 59.7813 170.656 59.6852 170.557 59.5535C170.256 59.8304 169.912 60.0566 169.539 60.2235C167.745 61.0275 165.687 60.3324 164.942 58.6675C164.221 57.0762 164.967 55.1785 166.601 54.3125Z" fill="#E0973F"/>
<path d="M181.482 47.2273L181.855 48.0648C182.664 49.8696 182.723 51.9216 182.019 53.7698C181.315 55.618 179.906 57.111 178.102 57.9204C176.36 58.6742 175.254 59.386 173.283 59.3944C171.834 59.4064 170.413 58.996 169.194 58.2133C167.974 57.4307 167.009 56.3098 166.416 54.9875L166.043 54.15L181.482 47.2273Z" fill="#F7CC7F"/>
<path d="M173.283 59.386L172.56 51.2222L170.019 52.3679L170.598 58.912C171.456 59.2341 172.367 59.3948 173.283 59.386Z" fill="#FAE0B2"/>
<path d="M175.088 59.1532L174.288 50.4533L173.008 51.0279L173.777 59.3726C174.22 59.3422 174.659 59.2687 175.088 59.1532Z" fill="#FAE0B2"/>
<path d="M170.236 58.7646L169.742 52.4918L169.134 52.7648L169.579 58.4397C169.794 58.5586 170.018 58.6675 170.236 58.7646Z" fill="#FAE0B2"/>
<path d="M180.597 47.0581L166.545 53.3561C166.031 53.5856 165.741 54.0596 165.875 54.4314L181.848 47.2692C181.655 46.9275 181.109 46.8236 180.597 47.0581Z" fill="#F7CC7F"/>
<path d="M174.488 59.2973L177.113 63.0224L180.59 61.463L179.744 56.9406L174.488 59.2973Z" fill="#F7CC7F"/>
<path d="M179.746 56.9406L179.935 57.9606L175.081 60.1381L174.488 59.2973L179.746 56.9406Z" fill="#B75742"/>
<path d="M183.839 66.0709L178.581 68.4293L178.067 66.225L177.546 63.9905L181.023 62.4311L182.442 64.2652L183.839 66.0709Z" fill="#F7CC7F"/>
<path d="M183.84 66.0709L178.582 68.4293L178.068 66.225L182.443 64.2653L183.84 66.0709Z" fill="#B75742"/>
<path d="M181.199 61.1878L176.501 63.2944C176.294 63.3871 176.202 63.6299 176.294 63.8367L176.392 64.0553C176.485 64.2621 176.728 64.3545 176.935 64.2618L181.633 62.1553C181.839 62.0625 181.932 61.8197 181.839 61.6129L181.741 61.3944C181.648 61.1876 181.406 61.0951 181.199 61.1878Z" fill="#FAE0B2"/>
<path d="M184.103 65.622L177.891 68.4058L177.388 67.2903C177.375 67.2617 177.368 67.2309 177.367 67.1996C177.366 67.1682 177.372 67.1371 177.383 67.1078C177.394 67.0785 177.411 67.0518 177.433 67.0291C177.454 67.0063 177.48 66.9881 177.509 66.9754L183.282 64.3859C183.34 64.3603 183.406 64.3587 183.465 64.3812C183.524 64.4038 183.572 64.4488 183.598 64.5065L184.103 65.622Z" fill="#F7CC7F"/>
<path d="M186.513 65.498L186.694 65.9034L176.383 70.528L176.202 70.1227C175.993 69.6554 176.109 69.1478 176.459 68.9904L185.503 64.9369C185.848 64.7795 186.303 65.0307 186.513 65.498Z" fill="#F7CC7F"/>
<path d="M178.247 68.1881L178.482 69.585L178.051 69.7793L177.817 68.3807L178.247 68.1881Z" fill="#FAE0B2"/>
<path d="M177.63 68.4628L177.865 69.8614L177.434 70.0557L177.2 68.6571L177.63 68.4628Z" fill="#FAE0B2"/>
<path d="M178.794 67.9419L179.03 69.3405L178.598 69.5331L178.364 68.1345L178.794 67.9419Z" fill="#FAE0B2"/>
<path d="M194.687 73.4459L194.868 73.8512L177.587 81.5997L177.404 81.1943C177.195 80.727 177.503 80.1341 178.091 79.8694L193.24 73.0774C193.83 72.8127 194.471 72.9785 194.687 73.4459Z" fill="#F7CC7F"/>
<path d="M181.095 78.5228L181.108 80.0202L180.388 80.3435L180.373 78.8477L181.095 78.5228Z" fill="#FAE0B2"/>
<path d="M180.061 78.9867L180.076 80.4841L179.354 80.8074L179.341 79.31L180.061 78.9867Z" fill="#FAE0B2"/>
<path d="M182.012 78.1124L182.027 79.6098L181.303 79.9331L181.29 78.4357L182.012 78.1124Z" fill="#FAE0B2"/>
<path d="M181.173 55.3661L181.31 55.6726C181.424 55.9267 181.432 56.2156 181.333 56.4759C181.235 56.7362 181.037 56.9467 180.783 57.0611L173.859 60.1649C173.733 60.2214 173.597 60.2526 173.459 60.2567C173.322 60.2608 173.184 60.2377 173.055 60.1887C172.926 60.1397 172.808 60.0658 172.708 59.9712C172.608 59.8766 172.527 59.7631 172.47 59.6373L172.333 59.3307L181.173 55.3661Z" fill="#F7CC7F"/>
<path d="M191.909 73.6737L178.903 79.506L175.289 71.0172L187.961 65.3356L191.909 73.6737Z" fill="#3C8F7C"/>
<path d="M188.817 75.0606L181.997 78.1191L178.305 69.6654L184.951 66.6856L188.817 75.0606Z" fill="#50BFA5"/>
<path d="M182.007 63.7008C181.889 63.5584 181.743 63.4419 181.578 63.3586C181.414 63.2753 181.233 63.227 181.049 63.2167C179.26 63.1263 178.872 63.0744 178.672 62.8365C178.314 62.3943 180.714 62.1916 180.692 62.0911C180.622 61.7444 177.662 62.2586 177.488 61.7277C177.421 61.5284 177.594 61.3558 178.593 61.0979C179.382 60.8935 180.407 60.8818 180.295 60.6557C180.183 60.4296 176.821 61.2821 177.011 60.7244C177.2 60.1666 179.436 59.3073 180.489 59.6641C181.543 60.0209 182.596 62.4312 182.007 63.7008Z" fill="#F7A491"/>
</svg>
