<svg width="12" height="12" viewBox="0 0 12 12" fill="none" xmlns="http://www.w3.org/2000/svg">
<path d="M4.25 2.9689H5.40469V8.25484C5.40469 8.32359 5.46094 8.37984 5.52969 8.37984H6.46719C6.53594 8.37984 6.59219 8.32359 6.59219 8.25484V2.9689H7.75C7.85469 2.9689 7.9125 2.84859 7.84844 2.76734L6.09844 0.551714C6.08674 0.536774 6.0718 0.524691 6.05475 0.516382C6.03769 0.508072 6.01897 0.503754 6 0.503754C5.98103 0.503754 5.96231 0.508072 5.94525 0.516382C5.92819 0.524691 5.91326 0.536774 5.90156 0.551714L4.15156 2.76578C4.0875 2.84859 4.14531 2.9689 4.25 2.9689ZM11.7188 7.78609H10.7812C10.7125 7.78609 10.6562 7.84234 10.6562 7.91109V10.3173H1.34375V7.91109C1.34375 7.84234 1.2875 7.78609 1.21875 7.78609H0.28125C0.2125 7.78609 0.15625 7.84234 0.15625 7.91109V11.0048C0.15625 11.2814 0.379687 11.5048 0.65625 11.5048H11.3438C11.6203 11.5048 11.8438 11.2814 11.8438 11.0048V7.91109C11.8438 7.84234 11.7875 7.78609 11.7188 7.78609Z" fill="black" fill-opacity="0.25"/>
</svg>
